<svg width="225" height="225" viewBox="0 0 225 225" version="1.1" xmlns="http://www.w3.org/2000/svg" xmlns:xlink="http://www.w3.org/1999/xlink">
<title>Group 4</title>
<desc>Created using Figma</desc>
<g id="Canvas" transform="translate(-35415 -15974)">
<g id="Group 4">
<g id="Ellipse">
<use xlink:href="#path0_fill" transform="translate(35415 15974)" fill="#96BF3D"/>
</g>
<g id="Vector">
<use xlink:href="#path1_stroke" transform="translate(35483 16053)" fill="#FFFFFF"/>
</g>
</g>
</g>
<defs>
<path id="path0_fill" d="M 225 112.5C 225 174.632 174.632 225 112.5 225C 50.368 225 0 174.632 0 112.5C 0 50.368 50.368 0 112.5 0C 174.632 0 225 50.368 225 112.5Z"/>
<path id="path1_stroke" d="M 7.56857 32.2583C 4.39753 28.0783 -1.56167 27.2604 -5.74167 30.4314C -9.92168 33.6025 -10.7396 39.5617 -7.56857 43.7417L 7.56857 32.2583ZM 22 67L 14.4314 72.7417C 16.083 74.9187 18.592 76.2791 21.3175 76.4754C 24.043 76.6718 26.7211 75.685 28.6676 73.7671L 22 67ZM 96.6676 6.76709C 100.405 3.08469 100.449 -2.93021 96.7671 -6.66757C 93.0847 -10.4049 87.0698 -10.4495 83.3324 -6.76709L 96.6676 6.76709ZM -7.56857 43.7417L 14.4314 72.7417L 29.5686 61.2583L 7.56857 32.2583L -7.56857 43.7417ZM 28.6676 73.7671L 96.6676 6.76709L 83.3324 -6.76709L 15.3324 60.2329L 28.6676 73.7671Z"/>
</defs>
</svg>
