<svg width="165" height="165" viewBox="0 0 165 165" version="1.1" xmlns="http://www.w3.org/2000/svg" xmlns:xlink="http://www.w3.org/1999/xlink">
<title>Group 3</title>
<desc>Created using Figma</desc>
<g id="Canvas" transform="translate(-33889 -15964)">
<g id="Group 3">
<g id="Rectangle 4.5">
<use xlink:href="#path0_fill" transform="matrix(-1 0 0 1 34054 15964)" fill="#F2F2F2"/>
<mask id="mask0_outline_ins">
<use xlink:href="#path0_fill" fill="white" transform="matrix(-1 0 0 1 34054 15964)"/>
</mask>
<g mask="url(#mask0_outline_ins)">
<use xlink:href="#path1_stroke_2x" transform="matrix(-1 0 0 1 34054 15964)" fill="#BDBDBD"/>
</g>
</g>
<g id="Group">
<g id="Group">
<g id="Group">
<g id="Vector">
<use xlink:href="#path2_fill" transform="matrix(-1 0 0 1 34035 15976)" fill="#ED4343"/>
</g>
<g id="Vector">
<use xlink:href="#path3_fill" transform="matrix(-1 0 0 1 34028.1 15987)" fill="url(#paint3_linear)"/>
</g>
<g id="Vector">
<use xlink:href="#path4_fill" transform="matrix(-1 0 0 1 34026.4 15993.1)" fill="#B73232"/>
</g>
<g id="Vector">
<use xlink:href="#path5_fill" transform="matrix(-1 0 0 1 34015.1 16034.6)" fill="url(#paint5_linear)"/>
</g>
<g id="Vector">
<use xlink:href="#path6_fill" transform="matrix(-1 0 0 1 34010.3 16057.9)" fill="#F76363"/>
</g>
<g id="Vector">
<use xlink:href="#path7_fill" transform="matrix(-1 0 0 1 34024.8 15993.1)" fill="#B73232"/>
</g>
<g id="Group">
<g id="Vector">
<use xlink:href="#path8_fill" transform="matrix(-1 0 0 1 34024.8 15993.1)" fill="#FFFFFF"/>
</g>
<g id="Vector">
<use xlink:href="#path9_fill" transform="matrix(-1 0 0 1 33942.9 16019.1)" fill="#CCCCCC"/>
</g>
<g id="Vector">
<use xlink:href="#path10_fill" transform="matrix(-1 0 0 1 34024.8 16020.7)" fill="#CCCCCC"/>
</g>
</g>
<g id="Vector">
<use xlink:href="#path11_fill" transform="matrix(-1 0 0 1 34008.2 16076.5)" fill="#FFFFFF"/>
</g>
</g>
<g id="Vector">
<use xlink:href="#path12_fill" transform="matrix(-1 0 0 1 34033 16057.9)" fill="url(#paint12_linear)"/>
</g>
</g>
</g>
</g>
</g>
<defs>
<linearGradient id="paint3_linear" x1="0" y1="0" x2="1" y2="0" gradientUnits="userSpaceOnUse" gradientTransform="matrix(-1.06209 75.5564 -75.4072 -1.06419 94.4786 -34.9214)">
<stop offset="0" stop-color="#D34040"/>
<stop offset="1" stop-color="#ED4343"/>
</linearGradient>
<linearGradient id="paint5_linear" x1="0" y1="0" x2="1" y2="0" gradientUnits="userSpaceOnUse" gradientTransform="matrix(0 -55.272 55.1629 0 14.9369 52.8291)">
<stop offset="0" stop-color="#A52D2D"/>
<stop offset="1" stop-color="#B73232"/>
</linearGradient>
<linearGradient id="paint12_linear" x1="0" y1="0" x2="1" y2="0" gradientUnits="userSpaceOnUse" gradientTransform="matrix(-0.59427 -30.9642 30.903 -0.595445 46.7501 55.344)">
<stop offset="0" stop-color="#D34040"/>
<stop offset="1" stop-color="#ED4343"/>
</linearGradient>
<path id="path0_fill" d="M 0 20C 0 8.95431 8.95431 0 20 0L 145 0C 156.046 0 165 8.95431 165 20L 165 145C 165 156.046 156.046 165 145 165L 20 165C 8.95431 165 0 156.046 0 145L 0 20Z"/>
<path id="path1_stroke_2x" d="M 20 0.5L 145 0.5L 145 -0.5L 20 -0.5L 20 0.5ZM 164.5 20L 164.5 145L 165.5 145L 165.5 20L 164.5 20ZM 145 164.5L 20 164.5L 20 165.5L 145 165.5L 145 164.5ZM 0.5 145L 0.5 20L -0.5 20L -0.5 145L 0.5 145ZM 20 164.5C 9.23045 164.5 0.5 155.77 0.5 145L -0.5 145C -0.5 156.322 8.67816 165.5 20 165.5L 20 164.5ZM 164.5 145C 164.5 155.77 155.77 164.5 145 164.5L 145 165.5C 156.322 165.5 165.5 156.322 165.5 145L 164.5 145ZM 145 0.5C 155.77 0.5 164.5 9.23045 164.5 20L 165.5 20C 165.5 8.67816 156.322 -0.5 145 -0.5L 145 0.5ZM 20 -0.5C 8.67816 -0.5 -0.5 8.67816 -0.5 20L 0.5 20C 0.5 9.23045 9.23045 0.5 20 0.5L 20 -0.5Z"/>
<path id="path2_fill" d="M 124.98 77.6134C 124.9 78.9304 124.701 80.367 124.382 81.8835C 121.674 94.2944 110.442 111.813 99.4101 126.778C 87.0237 143.539 42.6157 148.368 22.7815 126.02C 10.3552 112.013 4.54037 98.0456 1.95156 88.1488C 0.398278 82.2825 0 77.8529 0 75.7777C 0 70.1908 11.2314 24.4979 21.6265 13.2043C 29.3531 4.82393 34.6502 1.71122 44.0893 0.314494C 48.2314 -0.284104 52.493 0.234681 55.8385 1.03281C 60.1399 1.99057 64.5608 2.11029 68.8622 1.27225C 76.549 -0.284104 89.3337 -1.52121 98.6932 4.58449C 112.991 13.8428 125.577 65.2025 124.98 77.6134Z"/>
<path id="path3_fill" d="M 6.95583 78.6764C 6.95583 78.6764 -0.491965 75.1247 0.0257965 61.3569C 0.583385 47.5892 12.4122 12.4714 19.8999 8.24135C 27.3875 4.01125 54.4704 -4.2494 74.902 2.65443C 95.3336 9.55826 95.8912 13.8283 101.188 26.8777C 106.485 39.9271 111.265 56.2489 110.747 61.3969C 110.229 66.5448 104.494 73.2491 104.494 73.2491L 6.95583 78.6764Z"/>
<path id="path4_fill" d="M 103.887 65.973C 101.697 68.3275 99.1079 71.0411 96.32 73.7947C 93.8506 76.2689 91.1822 78.783 88.5934 81.0976C 87.7172 81.8957 86.8011 82.6539 85.9249 83.4122C 82.659 86.1657 79.5126 88.4404 76.8442 89.8371C 58.0455 99.6142 34.3878 95.863 23.236 88.8794C 21.5632 87.8418 19.8904 86.6047 18.1779 85.2079C 17.461 84.6094 16.7441 84.0107 16.0272 83.3722C 14.3942 81.9356 12.7613 80.4192 11.2478 78.9027C 8.38022 76.0694 5.75158 73.1961 3.64071 70.8017C 0.454488 67.1702 -0.740345 62.142 0.454488 57.433C 2.32639 50.2897 6.11003 37.7591 13.6375 18.4443C 17.0228 9.78459 26.94 1.52394 53.8635 0.127209C 80.827 -1.26952 89.1908 9.10618 93.2134 17.9654C 98.2715 29.0195 103.011 41.2708 106.715 50.4494C 108.906 55.717 107.79 61.7828 103.887 65.973Z"/>
<path id="path5_fill" d="M 85.0721 32.2511C 82.6028 34.7253 79.9343 37.2395 77.3455 39.554C 76.4693 40.3522 75.5533 41.1104 74.6771 41.8686C 71.4112 44.6222 68.2648 46.8968 65.5964 48.2936C 46.7976 58.1106 23.1399 54.3594 11.9882 47.3757C 10.3154 46.3381 8.64263 45.101 6.93003 43.7043C 6.21313 43.1057 5.49623 42.5071 4.77933 41.8686C 3.14639 40.432 1.51346 38.9155 6.07724e-07 37.3991C 8.96125 11.0608 32.3402 -5.14129 55.042 1.48319C 73.8805 6.95039 82.6028 25.9459 85.0721 32.2511Z"/>
<path id="path6_fill" d="M 72.5662 16.2871C 71.69 17.0852 70.7739 17.8434 69.8977 18.6017C 66.6319 21.3552 63.4855 23.6299 60.817 25.0266C 42.0183 34.8436 18.3606 31.0924 7.20883 24.1088C 5.53606 23.0712 3.8633 21.8341 2.1507 20.4374C 1.4338 19.8388 0.7169 19.2402 6.07724e-07 18.6017C 20.4715 -7.89628 38.5135 2.08036 38.5135 2.08036C 57.9892 -6.93852 72.5662 16.2871 72.5662 16.2871Z"/>
<path id="path7_fill" d="M 105.822 52.0855C 102.357 53.8414 98.1357 55.3179 90.6879 42.3084C 83.2401 29.2989 82.6426 21.2378 70.2562 19.3622C 57.8698 17.4865 42.3768 16.2494 33.0969 23.0735C 23.817 29.8975 19.2766 43.3859 10.5942 51.8461C 3.5845 58.6701 3.03862e-07 53.2029 3.03862e-07 53.2029C 3.03862e-07 53.2029 3.03862e-07 53.2029 3.03862e-07 53.163C 2.1507 45.7005 5.81486 34.367 12.028 18.4443C 15.4134 9.78459 25.3305 1.52394 52.254 0.127209C 79.2175 -1.26952 87.5813 9.10618 91.6039 17.9654C 97.0205 29.7778 102.079 41.7098 105.822 52.0855Z"/>
<path id="path8_fill" d="M 105.862 52.1308C 102.397 53.8867 98.1755 55.3633 90.7277 42.3537C 86.8245 35.4898 84.7933 30.0226 81.9257 26.0719C 80.6512 24.316 79.1776 22.8394 77.3057 21.7221C 75.4338 20.6047 73.2035 19.8465 70.2562 19.4075C 57.8698 17.5319 42.3768 16.2948 33.0969 23.1188C 31.3445 24.3958 29.7514 25.9522 28.2777 27.6282C 21.9451 34.8513 17.6437 45.0275 10.5942 51.8515C 3.5845 58.6755 1.51931e-07 53.2083 1.51931e-07 53.2083C 1.51931e-07 53.2083 1.51931e-07 53.2083 1.51931e-07 53.1684C 1.15501 49.1379 2.74812 43.9899 4.97847 37.565C 6.85038 32.0978 9.16039 25.7925 12.028 18.4497C 15.4133 9.79001 25.3305 1.52936 52.254 0.13263C 79.2174 -1.2641 88.4973 8.63272 92.5598 17.492C 95.0689 22.9991 96.901 25.8324 99.1313 32.0978C 101.68 39.2809 103.871 46.6237 105.862 52.1308Z"/>
<path id="path9_fill" d="M 23.9365 26.059C 20.4715 27.8149 16.2497 29.2914 8.80194 16.2819C 4.89881 9.41794 2.8676 3.95075 1.21545e-06 -1.21785e-06C 2.54898 2.31458 5.65554 4.9085 7.72659 6.06579C 11.9085 8.38037 12.7449 4.19019 17.2056 6.06579C 19.7546 13.2091 21.9451 20.5519 23.9365 26.059Z"/>
<path id="path10_fill" d="M 28.2777 -1.21785e-06C 21.9451 7.22308 17.6437 17.3992 10.5942 24.2233C 3.5845 31.0473 3.03862e-07 25.5801 3.03862e-07 25.5801C 3.03862e-07 25.5801 3.03862e-07 25.5801 3.03862e-07 25.5402C 1.15501 21.5096 2.74812 16.3617 4.97847 9.93673C 7.04952 9.7372 9.27987 9.7372 11.4306 9.7372C 17.6039 9.7372 28.2777 -1.21785e-06 28.2777 -1.21785e-06Z"/>
<path id="path11_fill" d="M 67.7072 -2.4357e-06C 64.4413 2.75355 61.2949 5.02822 58.6265 6.42495C 39.8676 16.242 16.2099 12.4907 5.05813 5.50711C 3.38536 4.46954 1.7126 3.23243 1.21545e-06 1.8357C 1.21545e-06 1.8357 10.634 7.9813 20.2325 7.38271C 29.831 6.7442 39.8278 7.58224 48.4306 7.42261C 56.9139 7.26299 67.4683 0.159624 67.7072 -2.4357e-06Z"/>
<path id="path12_fill" d="M 122.391 1.21785e-06C 119.682 12.4109 108.451 29.9299 97.4187 44.8948C 85.0323 61.6556 40.6243 66.4843 20.7901 44.1366C 8.40366 30.1294 2.58881 16.1621 3.79827e-08 6.26533C 0.35845 6.82402 23.4984 42.2211 49.3466 45.6531C 75.3541 49.125 86.7051 44.0568 92.5996 40.8643C 98.4543 37.6718 115.301 18.1974 122.391 1.21785e-06Z"/>
</defs>
</svg>
