<svg width="165" height="165" viewBox="0 0 165 165" version="1.1" xmlns="http://www.w3.org/2000/svg" xmlns:xlink="http://www.w3.org/1999/xlink">
<title>Group 2</title>
<desc>Created using Figma</desc>
<g id="Canvas" transform="translate(-34084 -15964)">
<g id="Group 2">
<g id="Rectangle 4.6">
<use xlink:href="#path0_fill" transform="matrix(-1 0 0 1 34249 15964)" fill="#F2F2F2"/>
<mask id="mask0_outline_ins">
<use xlink:href="#path0_fill" fill="white" transform="matrix(-1 0 0 1 34249 15964)"/>
</mask>
<g mask="url(#mask0_outline_ins)">
<use xlink:href="#path1_stroke_2x" transform="matrix(-1 0 0 1 34249 15964)" fill="#BDBDBD"/>
</g>
</g>
<g id="Group">
<g id="Group">
<g id="Group">
<g id="Vector">
<use xlink:href="#path2_fill" transform="matrix(-1 0 0 1 34229 15977)" fill="#ED4343"/>
</g>
<g id="Vector">
<use xlink:href="#path3_fill" transform="matrix(-1 0 0 1 34219.8 16006.2)" fill="#B73232"/>
</g>
<g id="Vector">
<use xlink:href="#path4_fill" transform="matrix(-1 0 0 1 34213.8 16028.6)" fill="url(#paint4_linear)"/>
</g>
<g id="Vector">
<use xlink:href="#path5_fill" transform="matrix(-1 0 0 1 34208.6 16056.7)" fill="#F76363"/>
</g>
<g id="Vector">
<use xlink:href="#path6_fill" transform="matrix(-1 0 0 1 34218.8 16048.5)" fill="#B73232"/>
</g>
<g id="Group">
<g id="Vector">
<use xlink:href="#path7_fill" transform="matrix(-1 0 0 1 34218.8 16048.6)" fill="#FFFFFF"/>
</g>
<g id="Vector">
<use xlink:href="#path8_fill" transform="matrix(-1 0 0 1 34136.8 16050.6)" fill="#CCCCCC"/>
</g>
<g id="Vector">
<use xlink:href="#path9_fill" transform="matrix(-1 0 0 1 34218.8 16048.5)" fill="#CCCCCC"/>
</g>
</g>
<g id="Vector">
<use xlink:href="#path10_fill" transform="matrix(-1 0 0 1 34199.4 16006.2)" fill="#FFFFFF"/>
</g>
</g>
<g id="Vector">
<use xlink:href="#path11_fill" transform="matrix(-1 0 0 1 34218.4 15994.2)" fill="url(#paint11_linear)"/>
</g>
</g>
</g>
</g>
</g>
<defs>
<linearGradient id="paint4_linear" x1="0" y1="0" x2="1" y2="0" gradientUnits="userSpaceOnUse" gradientTransform="matrix(0 -41.6524 41.7034 0 27.3864 35.6495)">
<stop offset="0" stop-color="#A52D2D"/>
<stop offset="1" stop-color="#B73232"/>
</linearGradient>
<linearGradient id="paint11_linear" x1="0" y1="0" x2="1" y2="0" gradientUnits="userSpaceOnUse" gradientTransform="matrix(0.530878 22.4461 -22.4735 0.530229 62.8476 -6.75143)">
<stop offset="0" stop-color="#D34040"/>
<stop offset="1" stop-color="#ED4343"/>
</linearGradient>
<path id="path0_fill" d="M 0 20C 0 8.95431 8.95431 0 20 0L 145 0C 156.046 0 165 8.95431 165 20L 165 145C 165 156.046 156.046 165 145 165L 20 165C 8.95431 165 0 156.046 0 145L 0 20Z"/>
<path id="path1_stroke_2x" d="M 20 0.5L 145 0.5L 145 -0.5L 20 -0.5L 20 0.5ZM 164.5 20L 164.5 145L 165.5 145L 165.5 20L 164.5 20ZM 145 164.5L 20 164.5L 20 165.5L 145 165.5L 145 164.5ZM 0.5 145L 0.5 20L -0.5 20L -0.5 145L 0.5 145ZM 20 164.5C 9.23045 164.5 0.5 155.77 0.5 145L -0.5 145C -0.5 156.322 8.67816 165.5 20 165.5L 20 164.5ZM 164.5 145C 164.5 155.77 155.77 164.5 145 164.5L 145 165.5C 156.322 165.5 165.5 156.322 165.5 145L 164.5 145ZM 145 0.5C 155.77 0.5 164.5 9.23045 164.5 20L 165.5 20C 165.5 8.67816 156.322 -0.5 145 -0.5L 145 0.5ZM 20 -0.5C 8.67816 -0.5 -0.5 8.67816 -0.5 20L 0.5 20C 0.5 9.23045 9.23045 0.5 20 0.5L 20 -0.5Z"/>
<path id="path2_fill" d="M 45.7372 138.278C 35.4583 136.886 28.6057 131.991 19.8407 119.775C 9.96019 105.927 0 73.7357 0 68.1648C 0 62.5939 5.73707 35.1374 25.5778 12.8539C 30.7969 6.96463 40.4384 0.67749 48.4065 0.120401C 57.9285 -0.556064 57.9683 1.83146 64.8608 1.99063C 70.4385 2.11 74.5421 -0.197935 81.9525 0.160193C 91.076 0.558114 98.1676 6.72588 102.192 12.1376C 114.582 28.8503 124.383 53.9591 124.98 66.3344C 125.578 78.7097 112.391 120.571 93.586 133.663C 82.0321 141.701 52.9085 139.233 45.7372 138.278Z"/>
<path id="path3_fill" d="M 106.241 47.207C 105.086 50.0322 103.851 53.0962 102.536 56.3591C 100.425 61.5719 98.1538 67.1826 95.7633 72.7535C 94.7673 75.0614 93.7713 77.3296 92.7354 79.5579C 88.6717 88.3918 80.3051 98.7377 53.3728 97.345C 26.4404 95.9522 16.52 87.7153 13.1336 79.0804C 12.6555 77.8867 12.2172 76.7327 11.779 75.5787C 9.54791 69.7293 7.63555 64.5563 6.08176 59.9802C 3.01403 51.1066 2.29689 48.8782 1.10167 44.4613C 0.384535 41.7157 -0.970051 37.5773 1.10167 33.2002C 1.10167 33.2002 1.14151 33.1206 1.18135 33.0012C 1.22119 32.9216 1.26103 32.842 1.30087 32.7625C 1.34071 32.6829 1.38055 32.6431 1.4204 32.5635C 3.25307 29.221 7.99412 23.1726 10.265 20.3473C 11.0619 19.3525 11.9384 18.3975 12.8547 17.4823C 13.4523 16.8854 14.1694 16.209 14.8467 15.5325C 16.1615 14.2989 17.4762 13.0654 18.273 12.3491C 18.9902 11.7125 19.7073 11.1156 20.4244 10.5187C 22.1376 9.12597 23.8109 7.89242 25.4842 6.85783C 36.6396 -0.105783 60.305 -3.84624 79.07 5.94261C 81.7394 7.33533 84.8868 9.64327 88.1537 12.3491C 89.0302 13.1052 89.9067 13.8612 90.8231 14.6571C 93.4526 16.965 96.0024 20.0688 98.3928 23.292C 100.743 26.4355 101.461 29.2608 103.373 31.7279C 104.887 33.7175 106.042 35.906 106.68 38.214C 107.477 41.1188 107.437 44.2226 106.241 47.207Z"/>
<path id="path4_fill" d="M 96.4943 33.897C 94.3828 39.1097 92.1118 44.7204 89.7214 50.2913C 88.8449 51.0872 87.9286 51.883 87.0521 52.639C 83.2274 55.9418 79.5222 58.7272 76.4146 60.3985C 54.4225 72.1769 26.6933 67.6804 13.6255 59.2843C 11.6733 58.0508 9.68131 56.5387 7.68927 54.8674C 7.01197 54.3103 6.37452 53.7532 5.69723 53.1563C 3.46615 47.3069 1.55379 42.1339 3.03961e-07 37.5579C 12.271 9.66362 39.0838 -5.13903 61.7133 1.62562C 79.7214 6.99755 91.315 23.7898 96.4943 33.897Z"/>
<path id="path5_fill" d="M 85.0202 21.8458C 83.9843 22.8008 82.9485 23.716 81.9126 24.6312C 78.0879 27.934 74.3827 30.7194 71.2751 32.3907C 49.283 44.1691 21.5539 39.6726 8.48608 31.2765C 6.53389 30.0429 4.54185 28.5309 2.54981 26.8596C 1.71315 26.1433 0.836655 25.3873 -6.07922e-07 24.6312C 23.9841 -7.24221 42.789 2.34768 42.789 2.34768C 65.6576 -8.51555 85.0202 21.8458 85.0202 21.8458Z"/>
<path id="path6_fill" d="M 105.857 3.18098C 102.391 1.43013 98.1676 -0.0421792 90.7174 12.93C 83.2672 25.9022 82.6696 33.9402 70.2791 35.8105C 57.8886 37.6807 42.3906 38.9142 33.1077 32.1098C 23.8248 25.3054 19.2829 11.8556 10.5976 3.41973C 3.58567 -3.38472 3.03961e-07 2.0668 3.03961e-07 2.0668C 3.03961e-07 2.0668 3.03961e-07 2.0668 3.03961e-07 2.10659C 2.1514 9.54771 5.81675 20.8487 12.0319 36.7257C 15.4184 45.3606 25.3387 53.5975 52.2711 54.9902C 79.2433 56.383 87.6098 46.037 91.6338 37.2032C 97.0521 25.4247 102.112 13.4871 105.857 3.18098Z"/>
<path id="path7_fill" d="M 105.897 3.14119C 102.431 1.39033 98.2075 -0.0819706 90.7573 12.8902C 86.8529 19.7345 84.821 25.186 81.9524 29.1254C 80.6775 30.8763 79.2034 32.3486 77.3309 33.4627C 75.4584 34.5769 73.2273 35.333 70.2791 35.7707C 57.8886 37.6409 42.3906 38.8745 33.1077 32.07C 31.3547 30.7967 29.761 29.2448 28.2869 27.5735C 21.9523 20.3711 17.6495 10.2242 10.5976 3.41973C 3.58567 -3.38471 1.5198e-07 2.0668 1.5198e-07 2.0668C 1.5198e-07 2.0668 1.5198e-07 2.0668 1.5198e-07 2.10659C 1.15538 6.12559 2.74901 11.2588 4.98009 17.6653C 6.85261 23.1168 9.16337 29.4039 12.0319 36.7257C 15.4184 45.3606 25.3387 53.5975 52.2711 54.9902C 79.2433 56.383 88.5262 46.5145 92.5899 37.6807C 95.0999 32.1894 96.9326 29.3642 99.1637 23.1168C 101.713 15.9542 103.905 8.63249 105.897 3.14119Z"/>
<path id="path8_fill" d="M 23.9443 1.13335C 20.4781 -0.617501 16.255 -2.08981 8.80481 10.8824C 4.90041 17.7266 2.86854 23.1782 1.21584e-06 27.1176C 2.54981 24.8096 5.65739 22.2231 7.72911 21.0692C 11.9124 18.7612 12.749 22.9394 17.2112 21.0692C 19.761 13.9464 21.9523 6.62465 23.9443 1.13335Z"/>
<path id="path9_fill" d="M 28.2869 27.5735C 21.9523 20.3711 17.6495 10.2242 10.5976 3.41973C 3.58567 -3.38472 3.03961e-07 2.0668 3.03961e-07 2.0668C 3.03961e-07 2.0668 3.03961e-07 2.0668 3.03961e-07 2.10659C 1.15538 6.12559 2.74901 11.2588 4.9801 17.6653C 7.05182 17.8642 9.2829 17.8642 11.4343 17.8642C 17.6096 17.8642 28.2869 27.5735 28.2869 27.5735Z"/>
<path id="path10_fill" d="M 67.7293 12.3491C 64.4624 9.60348 61.3149 7.33533 58.6456 5.94261C 39.8806 -3.84624 16.2152 -0.105784 5.05978 6.85783C 3.38647 7.89242 1.71315 9.12598 1.21584e-06 10.5187C 1.21584e-06 10.5187 10.6375 4.39072 20.2391 4.9876C 29.8407 5.62427 39.8408 4.78864 48.4464 4.94781C 56.9324 5.10698 67.4903 12.19 67.7293 12.3491Z"/>
<path id="path11_fill" d="M 105.817 50.2112L 105.259 50.1714C 104.622 47.8635 103.466 45.6749 101.953 43.6853C 100.04 41.2182 99.323 38.393 96.9724 35.2494C 94.582 32.0661 92.0322 28.9623 89.4027 26.6145C 88.4863 25.8187 87.6098 25.0627 86.7333 24.3066C 83.4664 21.561 80.319 19.2928 77.6496 17.9001C 58.8846 8.19082 35.2192 11.9313 24.0638 18.8949C 22.4304 19.9295 20.7172 21.163 19.004 22.5558C 18.2869 23.1526 17.5698 23.7495 16.8526 24.3862C 16.016 25.1024 14.7411 26.336 13.4263 27.5696C 12.7092 28.246 12.0319 28.9225 11.4343 29.5194C 10.518 30.4346 9.64146 31.3896 8.84465 32.3844C 6.57373 35.2096 1.83268 41.258 1.5198e-07 44.6006C 2.62949 39.348 21.6734 3.09744 39.9204 0.869082C 59.5619 -1.51844 76.056 0.351786 86.7732 14.9157C 97.4903 29.5194 105.817 50.2112 105.817 50.2112Z"/>
</defs>
</svg>
