<svg width="165" height="165" viewBox="0 0 165 165" version="1.1" xmlns="http://www.w3.org/2000/svg" xmlns:xlink="http://www.w3.org/1999/xlink">
<title>Group 5</title>
<desc>Created using Figma</desc>
<g id="Canvas" transform="translate(-33499 -15964)">
<g id="Group 5">
<g id="Rectangle 4.3">
<use xlink:href="#path0_fill" transform="matrix(-1 0 0 1 33664 15964)" fill="#F2F2F2"/>
<mask id="mask0_outline_ins">
<use xlink:href="#path0_fill" fill="white" transform="matrix(-1 0 0 1 33664 15964)"/>
</mask>
<g mask="url(#mask0_outline_ins)">
<use xlink:href="#path1_stroke_2x" transform="matrix(-1 0 0 1 33664 15964)" fill="#BDBDBD"/>
</g>
</g>
<g id="Group">
<g id="Group">
<g id="Vector">
<use xlink:href="#path2_fill" transform="translate(33535.4 16015.5)" fill="#FFFFFF"/>
</g>
<g id="Vector">
<use xlink:href="#path3_fill" transform="translate(33535.1 16023.5)" fill="#FFD9D9"/>
</g>
<g id="Vector">
<use xlink:href="#path4_fill" transform="translate(33535.1 16058.3)" fill="#FFD9D9"/>
</g>
<g id="Vector">
<use xlink:href="#path5_fill" transform="translate(33521 15993)" fill="#ED4343"/>
</g>
<g id="Vector">
<use xlink:href="#path6_fill" transform="translate(33528.5 16057.3)" fill="#ED4343"/>
</g>
<g id="Vector">
<use xlink:href="#path7_fill" transform="translate(33527.6 16017.8)" fill="#D34040"/>
</g>
<g id="Vector">
<use xlink:href="#path8_fill" transform="translate(33563.6 15997)" fill="#ED4343"/>
</g>
<g id="Vector">
<use xlink:href="#path9_fill" transform="translate(33528.6 16071.4)" fill="#D34040"/>
</g>
<g id="Vector">
<use xlink:href="#path10_fill" transform="translate(33599.3 16054.3)" fill="#ED4343"/>
</g>
</g>
</g>
</g>
</g>
<defs>
<path id="path0_fill" d="M 0 20C 0 8.95431 8.95431 0 20 0L 145 0C 156.046 0 165 8.95431 165 20L 165 145C 165 156.046 156.046 165 145 165L 20 165C 8.95431 165 0 156.046 0 145L 0 20Z"/>
<path id="path1_stroke_2x" d="M 20 0.5L 145 0.5L 145 -0.5L 20 -0.5L 20 0.5ZM 164.5 20L 164.5 145L 165.5 145L 165.5 20L 164.5 20ZM 145 164.5L 20 164.5L 20 165.5L 145 165.5L 145 164.5ZM 0.5 145L 0.5 20L -0.5 20L -0.5 145L 0.5 145ZM 20 164.5C 9.23045 164.5 0.5 155.77 0.5 145L -0.5 145C -0.5 156.322 8.67816 165.5 20 165.5L 20 164.5ZM 164.5 145C 164.5 155.77 155.77 164.5 145 164.5L 145 165.5C 156.322 165.5 165.5 156.322 165.5 145L 164.5 145ZM 145 0.5C 155.77 0.5 164.5 9.23045 164.5 20L 165.5 20C 165.5 8.67816 156.322 -0.5 145 -0.5L 145 0.5ZM 20 -0.5C 8.67816 -0.5 -0.5 8.67816 -0.5 20L 0.5 20C 0.5 9.23045 9.23045 0.5 20 0.5L 20 -0.5Z"/>
<path id="path2_fill" d="M 3.20118e-07 28.4502L 3.20118e-07 58.0718C 3.20118e-07 58.0718 11.3707 72.9245 41.5389 62.423C 67.5531 53.3441 104.519 41.7966 104.519 41.7966L 83.9169 33.1779L 54.9656 9.62285L 28.6157 3.19202e-07L 6.41965 4.60223L 3.20118e-07 16.7354L 3.20118e-07 28.4502Z"/>
<path id="path3_fill" d="M 0 20.3753C 0 20.3753 1.25875 22.1326 2.26576 21.2958C 3.27276 20.459 5.07698 15.5639 7.42665 15.1455C 9.77632 14.7271 10.2379 17.0283 12.0421 18.3253C 13.8463 19.6222 15.6925 14.769 18.4617 15.1037C 21.2729 15.4384 21.5247 18.2416 24.0422 18.2834C 26.5597 18.3253 28.3639 15.5639 31.0493 16.2333C 33.6927 16.9446 36.0843 20.5427 37.4689 20.1243C 38.8535 19.7059 41.1193 18.4508 42.7976 19.162C 44.476 19.8733 43.9305 21.0029 46.1543 21.4631C 48.3781 21.9234 50.56 20.5427 54.7138 23.053C 58.8677 25.5633 60.672 24.4337 62.5181 25.2704C 64.3643 26.1072 88.2806 31.337 92.6863 31.9228C 97.0919 32.5085 73.5952 13.9322 73.5952 13.9322L 24.7975 0L 0.0419578 14.0159L 0.0419578 20.3753L 0 20.3753Z"/>
<path id="path4_fill" d="M 0 10.3081C 0 10.3081 1.25875 8.1325 2.26576 8.96927C 3.27276 9.80604 3.4406 11.9816 5.83223 12.4C 8.22386 12.8184 8.97911 12.0235 10.7833 10.7265C 12.5875 9.4295 15.6925 14.4083 18.4617 14.1154C 21.2729 13.7807 21.5247 10.9775 24.0422 10.9357C 26.5597 10.8938 28.3639 13.6552 31.0493 12.9858C 33.6927 12.2745 35.7486 10.8102 37.2172 10.852C 39.1892 10.9357 40.4899 12.0235 42.1683 11.3541C 43.8466 10.6847 44.7697 9.30398 46.9935 8.84376C 49.2173 8.38353 50.56 10.4336 54.7138 7.92331C 58.8677 5.413 61.5111 7.17022 63.3573 6.33345C 65.2035 5.49668 93.8611 0.601574 98.2667 0.0158357C 102.672 -0.569903 73.5532 15.2869 73.5532 15.2869L 24.7975 29.2609L 0.0419578 15.245L 0.0419578 10.3081L 0 10.3081Z"/>
<path id="path5_fill" d="M 119.671 62.9607C 120.133 63.4628 119.755 64.2577 119.084 64.2577C 77.7547 63.923 72.6778 51.8735 43.5166 43.2548C 21.7821 36.8535 14.1037 50.9112 14.1037 50.9112C 13.852 50.7439 11.2506 47.857 7.22256 43.0456C 3.40433 38.5689 -0.162136 32.3768 0.00569748 25.1806C 0.131573 19.6161 2.43929 12.4617 7.30647 6.98084C 9.32048 4.67972 10.7051 3.55008 13.7681 3.96847C 15.3625 4.17766 14.0618 3.92663 17.7961 2.42044C 23.8381 0.0356491 28.957 -0.633767 34.2858 0.621388C 36.8872 1.45816 39.6145 2.5878 42.5096 3.96847C 42.8033 4.13582 43.097 4.26134 43.3908 4.42869C 48.2999 6.89716 52.0762 9.53298 57.2371 14.5118C 109.014 63.923 115.517 58.3585 119.671 62.9607Z"/>
<path id="path6_fill" d="M 111.918 1.38067C 109.275 3.84914 100.38 6.31761 88.0439 14.0996C 79.4424 19.5386 70.6311 26.7348 55.9037 33.7637C 10.7983 55.3523 1.14787 39.621 0.0569513 29.2451C 0.0149928 29.0359 0.0149926 28.8267 0.0149926 28.6175C -0.362634 18.9947 6.51856 12.9699 6.51856 12.9699C 6.51856 12.9699 14.197 21.9652 35.9314 17.865C 65.0506 12.3842 70.1696 0.376549 111.331 2.55362e-06C 112.086 2.55362e-06 112.464 0.878606 111.918 1.38067Z"/>
<path id="path7_fill" d="M 112.32 39.4756C 69.3961 39.4756 66.501 27.1751 36.9203 18.4727C 15.1858 12.0714 7.5074 26.1292 7.5074 26.1292C 7.25565 25.9618 4.65422 23.0749 0.626207 18.2635C -0.380796 15.1256 -3.23397 -4.58029 22.4866 0.984226C 48.2491 6.59058 57.4799 38.095 112.32 39.4756Z"/>
<path id="path8_fill" d="M 0.881128 0.460223C 0.587419 0.334708 0.29371 0.209193 6.40235e-07 1.59601e-07C 0.251751 0.125516 0.54546 0.292869 0.881128 0.460223Z"/>
<path id="path9_fill" d="M 87.9869 1.27681e-06C 79.3854 5.439 70.5742 12.6352 55.8467 19.6641C 10.7414 41.2527 1.09092 25.5215 0 15.1455C 0.629377 17.1119 2.85318 19.9151 9.98612 22.1744C 22.2799 26.0654 32.7276 23.304 46.9515 18.2834C 56.1404 15.02 73.6371 4.64407 87.9869 1.27681e-06Z"/>
<path id="path10_fill" d="M 2.56094e-06 9.64684C 2.56094e-06 9.64684 12.9232 4.62622 16.8253 1.4465C 20.7275 -1.73322 40.9934 1.32099 40.9934 1.32099L 41.3291 1.65569C 41.4969 1.82305 41.6228 2.03224 41.6648 2.28327C 41.7906 2.74349 41.5809 3.95681 41.1193 4.37519L 37.8885 5.42116L 36.9654 6.17425L 5.9581 11.4459L 2.56094e-06 9.64684Z"/>
</defs>
</svg>
