<svg width="20" height="20" viewBox="0 0 20 20" version="1.1" xmlns="http://www.w3.org/2000/svg" xmlns:xlink="http://www.w3.org/1999/xlink">
<title>Star</title>
<desc>Created using Figma</desc>
<g id="Canvas" transform="translate(-19313 -16944)">
<g id="Star">
<use xlink:href="#path0_fill" transform="translate(19311 16943)" fill="#C4C4C4"/>
</g>
</g>
<defs>
<path id="path0_fill" d="M 11.072 2.31085C 11.4079 1.47438 12.5921 1.47438 12.928 2.31085L 14.8696 7.1458C 15.0126 7.502 15.3469 7.74489 15.7299 7.77086L 20.9282 8.12333C 21.8275 8.18431 22.1934 9.3105 21.5017 9.88844L 17.5034 13.2291C 17.2088 13.4752 17.0811 13.8682 17.1747 14.2404L 18.4459 19.2932C 18.6658 20.1674 17.7078 20.8634 16.9444 20.3841L 12.5317 17.6138C 12.2066 17.4097 11.7934 17.4097 11.4683 17.6138L 7.05561 20.3841C 6.29219 20.8634 5.3342 20.1674 5.55411 19.2932L 6.82525 14.2404C 6.9189 13.8682 6.79121 13.4752 6.49664 13.2291L 2.49831 9.88844C 1.80658 9.3105 2.1725 8.18431 3.07183 8.12333L 8.27012 7.77086C 8.65309 7.74489 8.9874 7.502 9.13045 7.1458L 11.072 2.31085Z"/>
</defs>
</svg>
