<svg width="273" height="19" viewBox="0 0 273 19" version="1.1" xmlns="http://www.w3.org/2000/svg" xmlns:xlink="http://www.w3.org/1999/xlink">
<title>Group 2</title>
<desc>Created using Figma</desc>
<g id="Canvas" transform="translate(-19153 -17410)">
<g id="Group 2">
<g id="Group 2">
<g id="shipped (1)">
<g id="Group">
<g id="Group">
<g id="Vector">
<use xlink:href="#path0_fill" transform="translate(19153 17410)" fill="#96BF3D"/>
</g>
</g>
</g>
<g id="Group">
<g id="Group">
<g id="Vector">
<use xlink:href="#path1_fill" transform="translate(19160.4 17424.3)" fill="#96BF3D"/>
</g>
</g>
</g>
<g id="Group">
<g id="Group">
<g id="Vector">
<use xlink:href="#path2_fill" transform="translate(19176.8 17424.3)" fill="#96BF3D"/>
</g>
</g>
</g>
<g id="Group">
<g id="Group">
<g id="Vector">
<use xlink:href="#path3_fill" transform="translate(19164.9 17422.4)" fill="#96BF3D"/>
</g>
</g>
</g>
<g id="Group">
<g id="Group">
<g id="Vector">
<use xlink:href="#path4_fill" transform="translate(19154 17420.5)" fill="#96BF3D"/>
</g>
</g>
</g>
<g id="Group">
<g id="Group">
<g id="Vector">
<use xlink:href="#path5_fill" transform="translate(19161.4 17414.3)" fill="#96BF3D"/>
</g>
</g>
</g>
</g>
<g id="Fast Shipping">
<use xlink:href="#path6_fill" transform="translate(19191.4 17399)" fill="#96BF3D"/>
</g>
</g>
<g id="Group">
<g id="Easy Support">
<use xlink:href="#path7_fill" transform="translate(19338.6 17399)" fill="#96BF3D"/>
</g>
<g id="headphones">
<g id="Group">
<g id="Vector">
<use xlink:href="#path8_fill" transform="translate(19312 17410)" fill="#96BF3D"/>
</g>
</g>
</g>
</g>
</g>
</g>
<defs>
<path id="path0_fill" d="M 27.5979 7.63083L 26.8294 4.68328C 27.0395 4.64049 27.1971 4.46175 27.1971 4.24761L 27.1971 3.77237C 27.1971 2.74052 26.3217 1.90108 25.2456 1.90108L 21.7454 1.90108L 21.7454 0.920805C 21.7454 0.413051 21.3146 -1.96746e-07 20.7851 -1.96746e-07L 2.94272 -1.96746e-07C 2.4132 -1.96746e-07 1.98245 0.413051 1.98245 0.920805L 1.98245 9.00008C 1.98245 9.24613 2.19046 9.44565 2.44711 9.44565C 2.70369 9.44565 2.91177 9.24618 2.91177 9.00008L 2.91177 0.920805C 2.91177 0.90441 2.92562 0.891127 2.94272 0.891127L 20.785 0.891127C 20.8021 0.891127 20.816 0.90441 20.816 0.920805L 20.816 9.0002C 20.816 9.24624 21.024 9.44576 21.2806 9.44576C 21.5372 9.44576 21.7453 9.24629 21.7453 9.0002L 21.7453 8.49511L 27.2265 8.49511C 27.2269 8.49511 27.2273 8.49522 27.2277 8.49522C 27.2281 8.49522 27.2286 8.49516 27.229 8.49516C 27.9034 8.49561 28.4761 8.92011 28.6728 9.50506L 27.228 9.50506C 26.9714 9.50506 26.7634 9.70453 26.7634 9.95062L 26.7634 10.9011C 26.7634 11.6709 27.4165 12.2972 28.2193 12.2972L 28.7459 12.2972L 28.7459 14.2575L 27.5309 14.2575C 27.1318 13.1525 26.0363 12.3565 24.7499 12.3565C 23.4635 12.3565 22.368 13.1525 21.9689 14.2575L 21.7452 14.2575L 21.7452 10.9011C 21.7452 10.655 21.5372 10.4555 21.2805 10.4555C 21.0239 10.4555 20.8159 10.655 20.8159 10.9011L 20.8159 14.2574L 11.1756 14.2574C 10.7765 13.1524 9.68097 12.3564 8.39456 12.3564C 7.10815 12.3564 6.0126 13.1524 5.61355 14.2574L 2.94272 14.2574C 2.92562 14.2574 2.91177 14.2441 2.91177 14.2277L 2.91177 13.2475L 4.92522 13.2475C 5.18181 13.2475 5.38988 13.0481 5.38988 12.802C 5.38988 12.5559 5.18187 12.3564 4.92522 12.3564L 0.464661 12.3564C 0.208075 12.3564 0 12.5559 0 12.802C 0 13.0481 0.208017 13.2475 0.464661 13.2475L 1.9825 13.2475L 1.9825 14.2277C 1.9825 14.7355 2.41326 15.1485 2.94278 15.1485L 5.45265 15.1485C 5.45254 15.1584 5.45184 15.1683 5.45184 15.1782C 5.45184 16.7342 6.77199 18 8.39456 18C 10.0171 18 11.3373 16.7342 11.3373 15.1782C 11.3373 15.1682 11.3366 15.1584 11.3365 15.1485L 21.808 15.1485C 21.8079 15.1584 21.8072 15.1683 21.8072 15.1782C 21.8072 16.7342 23.1273 18 24.7499 18C 26.3725 18 27.6926 16.7342 27.6926 15.1782C 27.6926 15.1682 27.6919 15.1584 27.6918 15.1485L 29.2105 15.1485C 29.4671 15.1485 29.6752 14.9491 29.6752 14.703L 29.6752 9.95051C 29.6753 8.77716 28.7724 7.80228 27.5979 7.63083ZM 21.7454 2.79215L 25.2456 2.79215C 25.8093 2.79215 26.2679 3.23188 26.2679 3.77237L 26.2679 3.80205L 21.7454 3.80205L 21.7454 2.79215ZM 21.7454 7.60404L 21.7454 4.69312L 25.8741 4.69312L 26.633 7.60404L 21.7454 7.60404ZM 8.39456 17.109C 7.28435 17.109 6.38111 16.243 6.38111 15.1783C 6.38111 14.1137 7.28435 13.2476 8.39456 13.2476C 9.50478 13.2476 10.408 14.1137 10.408 15.1783C 10.408 16.243 9.50478 17.109 8.39456 17.109ZM 24.75 17.109C 23.6398 17.109 22.7366 16.243 22.7366 15.1783C 22.7366 14.1137 23.6398 13.2476 24.75 13.2476C 25.8602 13.2476 26.7635 14.1137 26.7635 15.1783C 26.7635 16.243 25.8602 17.109 24.75 17.109ZM 28.746 11.406L 28.2194 11.406C 27.929 11.406 27.6928 11.1795 27.6928 10.9011L 27.6928 10.3961L 28.7459 10.3961L 28.7459 11.406L 28.746 11.406Z"/>
<path id="path1_fill" d="M 0.960273 -8.41259e-07C 0.430755 -8.41259e-07 -9.90519e-08 0.413051 -9.90519e-08 0.920806C -9.90519e-08 1.42856 0.430755 1.84161 0.960273 1.84161C 1.48979 1.84161 1.92055 1.42856 1.92055 0.920806C 1.92055 0.413051 1.48979 -8.41259e-07 0.960273 -8.41259e-07Z"/>
<path id="path2_fill" d="M 0.960273 -8.41259e-07C 0.430755 -8.41259e-07 -7.78264e-07 0.413051 -7.78264e-07 0.920806C -7.78264e-07 1.42856 0.430755 1.84161 0.960273 1.84161C 1.48979 1.84161 1.92055 1.42856 1.92055 0.920806C 1.92055 0.413051 1.48979 -8.41259e-07 0.960273 -8.41259e-07Z"/>
<path id="path3_fill" d="M 7.40334 2.98511e-07L 0.464661 2.98511e-07C 0.208075 2.98511e-07 2.9008e-07 0.199467 2.9008e-07 0.445564C 2.9008e-07 0.69166 0.208017 0.891127 0.464661 0.891127L 7.40334 0.891127C 7.65992 0.891127 7.868 0.69166 7.868 0.445564C 7.868 0.199467 7.65998 2.98511e-07 7.40334 2.98511e-07Z"/>
<path id="path4_fill" d="M 6.41212 -6.51297e-07L 0.464661 -6.51297e-07C 0.208074 -6.51297e-07 -4.15664e-08 0.199466 -4.15664e-08 0.445563C -4.15664e-08 0.691659 0.208017 0.891126 0.464661 0.891126L 6.41212 0.891126C 6.6687 0.891126 6.87678 0.691659 6.87678 0.445563C 6.87678 0.199466 6.6687 -6.51297e-07 6.41212 -6.51297e-07Z"/>
<path id="path5_fill" d="M 7.73187 0.130461C 7.55045 -0.0434965 7.25619 -0.0434961 7.07478 0.130517L 2.94273 4.09268L 0.79319 2.03148C 0.611718 1.85747 0.317517 1.85747 0.136103 2.03148C -0.0453677 2.2055 -0.0453677 2.48755 0.136103 2.66156L 2.61422 5.03783C 2.70493 5.12486 2.82386 5.16832 2.94273 5.16832C 3.06161 5.16832 3.1806 5.12486 3.27125 5.03783L 7.73181 0.760596C 7.91328 0.586528 7.91328 0.304473 7.73187 0.130461Z"/>
<path id="path6_fill" d="M 2.30957 26L 1.6123 26L 1.6123 16.0059L 7.08789 16.0059L 7.08789 16.6484L 2.30957 16.6484L 2.30957 20.8867L 6.82129 20.8867L 6.82129 21.5361L 2.30957 21.5361L 2.30957 26ZM 12.9805 26L 12.8096 24.8242L 12.7549 24.8242C 12.3812 25.3027 11.9961 25.6423 11.5996 25.8428C 11.2077 26.0387 10.7428 26.1367 10.2051 26.1367C 9.47591 26.1367 8.90853 25.9499 8.50293 25.5762C 8.09733 25.2025 7.89453 24.6852 7.89453 24.0244C 7.89453 23.2998 8.19531 22.737 8.79688 22.3359C 9.40299 21.9349 10.278 21.723 11.4219 21.7002L 12.8369 21.6592L 12.8369 21.167C 12.8369 20.4606 12.6934 19.9274 12.4062 19.5674C 12.1191 19.2074 11.6566 19.0273 11.0186 19.0273C 10.3304 19.0273 9.61719 19.2188 8.87891 19.6016L 8.62598 19.0137C 9.44173 18.6309 10.2484 18.4395 11.0459 18.4395C 11.8617 18.4395 12.4701 18.6514 12.8711 19.0752C 13.2767 19.499 13.4795 20.1598 13.4795 21.0576L 13.4795 26L 12.9805 26ZM 10.2461 25.5215C 11.0391 25.5215 11.6634 25.2959 12.1191 24.8447C 12.5794 24.389 12.8096 23.7578 12.8096 22.9512L 12.8096 22.2197L 11.5107 22.2744C 10.4671 22.3245 9.72201 22.4886 9.27539 22.7666C 8.83333 23.04 8.6123 23.4684 8.6123 24.0518C 8.6123 24.5166 8.75358 24.8789 9.03613 25.1387C 9.32324 25.3939 9.72656 25.5215 10.2461 25.5215ZM 20.5 24.0654C 20.5 24.7308 20.2471 25.2435 19.7412 25.6035C 19.2354 25.959 18.5176 26.1367 17.5879 26.1367C 16.5944 26.1367 15.806 25.984 15.2227 25.6787L 15.2227 24.9473C 15.9701 25.321 16.7585 25.5078 17.5879 25.5078C 18.3216 25.5078 18.8776 25.387 19.2559 25.1455C 19.6387 24.8994 19.8301 24.5736 19.8301 24.168C 19.8301 23.7943 19.6774 23.4798 19.3721 23.2246C 19.0713 22.9694 18.5745 22.7188 17.8818 22.4727C 17.139 22.2038 16.6172 21.9736 16.3164 21.7822C 16.0156 21.5863 15.7878 21.3675 15.6328 21.126C 15.4824 20.8799 15.4072 20.5814 15.4072 20.2305C 15.4072 19.6745 15.6396 19.2347 16.1045 18.9111C 16.5739 18.5876 17.2279 18.4258 18.0664 18.4258C 18.8685 18.4258 19.6296 18.5762 20.3496 18.877L 20.0967 19.4922C 19.3675 19.1914 18.6908 19.041 18.0664 19.041C 17.4603 19.041 16.9795 19.1413 16.624 19.3418C 16.2686 19.5423 16.0908 19.8203 16.0908 20.1758C 16.0908 20.5632 16.2275 20.873 16.501 21.1055C 16.779 21.3379 17.319 21.5977 18.1211 21.8848C 18.791 22.1263 19.2786 22.3451 19.584 22.541C 19.8893 22.7324 20.1172 22.9512 20.2676 23.1973C 20.4225 23.4434 20.5 23.7327 20.5 24.0654ZM 24.376 25.5352C 24.8044 25.5352 25.1781 25.4987 25.4971 25.4258L 25.4971 25.9727C 25.1689 26.082 24.7907 26.1367 24.3623 26.1367C 23.7061 26.1367 23.2207 25.9613 22.9062 25.6104C 22.5964 25.2594 22.4414 24.708 22.4414 23.9561L 22.4414 19.1572L 21.3408 19.1572L 21.3408 18.7607L 22.4414 18.4531L 22.7832 16.7715L 23.1318 16.7715L 23.1318 18.5693L 25.3125 18.5693L 25.3125 19.1572L 23.1318 19.1572L 23.1318 23.8604C 23.1318 24.43 23.2321 24.8516 23.4326 25.125C 23.6331 25.3984 23.9476 25.5352 24.376 25.5352ZM 36.6533 23.2246C 36.6533 24.127 36.3275 24.8379 35.6758 25.3574C 35.0286 25.877 34.1263 26.1367 32.9688 26.1367C 31.9023 26.1367 30.959 25.9362 30.1387 25.5352L 30.1387 23.5664C 30.8132 23.8672 31.3828 24.0791 31.8477 24.2021C 32.3171 24.3252 32.7454 24.3867 33.1328 24.3867C 33.5977 24.3867 33.9531 24.2979 34.1992 24.1201C 34.4499 23.9424 34.5752 23.6781 34.5752 23.3271C 34.5752 23.1312 34.5205 22.958 34.4111 22.8076C 34.3018 22.6527 34.14 22.5046 33.9258 22.3633C 33.7161 22.222 33.2855 21.9964 32.6338 21.6865C 32.0231 21.3994 31.5651 21.1237 31.2598 20.8594C 30.9544 20.5951 30.7106 20.2874 30.5283 19.9365C 30.346 19.5856 30.2549 19.1755 30.2549 18.7061C 30.2549 17.8219 30.5534 17.127 31.1504 16.6211C 31.752 16.1152 32.5814 15.8623 33.6387 15.8623C 34.1582 15.8623 34.6527 15.9238 35.1221 16.0469C 35.596 16.1699 36.0905 16.3431 36.6055 16.5664L 35.9219 18.2139C 35.3887 17.9951 34.9466 17.8424 34.5957 17.7559C 34.2493 17.6693 33.9076 17.626 33.5703 17.626C 33.1693 17.626 32.8617 17.7194 32.6475 17.9062C 32.4333 18.0931 32.3262 18.3369 32.3262 18.6377C 32.3262 18.8245 32.3695 18.9886 32.4561 19.1299C 32.5426 19.2666 32.6794 19.401 32.8662 19.5332C 33.0576 19.6608 33.5065 19.8932 34.2129 20.2305C 35.1471 20.6771 35.7874 21.126 36.1338 21.5771C 36.4801 22.0238 36.6533 22.5729 36.6533 23.2246ZM 45.3555 26L 43.2705 26L 43.2705 21.5361C 43.2705 20.4333 42.8604 19.8818 42.04 19.8818C 41.4567 19.8818 41.0352 20.0801 40.7754 20.4766C 40.5156 20.873 40.3857 21.5156 40.3857 22.4043L 40.3857 26L 38.3008 26L 38.3008 15.3633L 40.3857 15.3633L 40.3857 17.5303C 40.3857 17.6989 40.3698 18.0954 40.3379 18.7197L 40.29 19.335L 40.3994 19.335C 40.8643 18.5876 41.6025 18.2139 42.6143 18.2139C 43.512 18.2139 44.1934 18.4554 44.6582 18.9385C 45.123 19.4215 45.3555 20.1143 45.3555 21.0166L 45.3555 26ZM 47.4131 16.3818C 47.4131 15.7028 47.7913 15.3633 48.5479 15.3633C 49.3044 15.3633 49.6826 15.7028 49.6826 16.3818C 49.6826 16.7054 49.5869 16.9583 49.3955 17.1406C 49.2087 17.3184 48.9261 17.4072 48.5479 17.4072C 47.7913 17.4072 47.4131 17.0654 47.4131 16.3818ZM 49.5869 26L 47.502 26L 47.502 18.3574L 49.5869 18.3574L 49.5869 26ZM 55.9785 26.1367C 55.0807 26.1367 54.3766 25.8109 53.8662 25.1592L 53.7568 25.1592C 53.8298 25.7972 53.8662 26.1663 53.8662 26.2666L 53.8662 29.3633L 51.7812 29.3633L 51.7812 18.3574L 53.4766 18.3574L 53.7705 19.3486L 53.8662 19.3486C 54.3538 18.5921 55.0762 18.2139 56.0332 18.2139C 56.9355 18.2139 57.6419 18.5625 58.1523 19.2598C 58.6628 19.957 58.918 20.9255 58.918 22.165C 58.918 22.9808 58.7972 23.6895 58.5557 24.291C 58.3187 24.8926 57.9792 25.3506 57.5371 25.665C 57.0951 25.9795 56.5755 26.1367 55.9785 26.1367ZM 55.3633 19.8818C 54.8483 19.8818 54.4723 20.0413 54.2354 20.3604C 53.9984 20.6748 53.8753 21.1966 53.8662 21.9258L 53.8662 22.1514C 53.8662 22.9717 53.987 23.5596 54.2285 23.915C 54.4746 24.2705 54.862 24.4482 55.3906 24.4482C 56.3249 24.4482 56.792 23.6781 56.792 22.1377C 56.792 21.3857 56.6758 20.8229 56.4434 20.4492C 56.2155 20.071 55.8555 19.8818 55.3633 19.8818ZM 64.8379 26.1367C 63.9401 26.1367 63.236 25.8109 62.7256 25.1592L 62.6162 25.1592C 62.6891 25.7972 62.7256 26.1663 62.7256 26.2666L 62.7256 29.3633L 60.6406 29.3633L 60.6406 18.3574L 62.3359 18.3574L 62.6299 19.3486L 62.7256 19.3486C 63.2132 18.5921 63.9355 18.2139 64.8926 18.2139C 65.7949 18.2139 66.5013 18.5625 67.0117 19.2598C 67.5221 19.957 67.7773 20.9255 67.7773 22.165C 67.7773 22.9808 67.6566 23.6895 67.415 24.291C 67.1781 24.8926 66.8385 25.3506 66.3965 25.665C 65.9544 25.9795 65.4349 26.1367 64.8379 26.1367ZM 64.2227 19.8818C 63.7077 19.8818 63.3317 20.0413 63.0947 20.3604C 62.8577 20.6748 62.7347 21.1966 62.7256 21.9258L 62.7256 22.1514C 62.7256 22.9717 62.8464 23.5596 63.0879 23.915C 63.334 24.2705 63.7214 24.4482 64.25 24.4482C 65.1842 24.4482 65.6514 23.6781 65.6514 22.1377C 65.6514 21.3857 65.5352 20.8229 65.3027 20.4492C 65.0749 20.071 64.7148 19.8818 64.2227 19.8818ZM 69.4111 16.3818C 69.4111 15.7028 69.7894 15.3633 70.5459 15.3633C 71.3024 15.3633 71.6807 15.7028 71.6807 16.3818C 71.6807 16.7054 71.585 16.9583 71.3936 17.1406C 71.2067 17.3184 70.9242 17.4072 70.5459 17.4072C 69.7894 17.4072 69.4111 17.0654 69.4111 16.3818ZM 71.585 26L 69.5 26L 69.5 18.3574L 71.585 18.3574L 71.585 26ZM 80.834 26L 78.749 26L 78.749 21.5361C 78.749 20.9847 78.651 20.5723 78.4551 20.2988C 78.2591 20.0208 77.9469 19.8818 77.5186 19.8818C 76.9352 19.8818 76.5137 20.0778 76.2539 20.4697C 75.9941 20.8571 75.8643 21.502 75.8643 22.4043L 75.8643 26L 73.7793 26L 73.7793 18.3574L 75.3721 18.3574L 75.6523 19.335L 75.7686 19.335C 76.001 18.9658 76.32 18.6878 76.7256 18.501C 77.1357 18.3096 77.6006 18.2139 78.1201 18.2139C 79.0088 18.2139 79.6833 18.4554 80.1436 18.9385C 80.6038 19.417 80.834 20.1097 80.834 21.0166L 80.834 26ZM 89.6318 18.3574L 89.6318 19.417L 88.4355 19.7246C 88.6543 20.0664 88.7637 20.4492 88.7637 20.873C 88.7637 21.6934 88.4766 22.3337 87.9023 22.7939C 87.3327 23.2497 86.5397 23.4775 85.5234 23.4775L 85.1475 23.457L 84.8398 23.4229C 84.6257 23.5869 84.5186 23.7692 84.5186 23.9697C 84.5186 24.2705 84.9014 24.4209 85.667 24.4209L 86.9658 24.4209C 87.8044 24.4209 88.4424 24.6009 88.8799 24.9609C 89.3219 25.321 89.543 25.8496 89.543 26.5469C 89.543 27.4401 89.1693 28.1328 88.4219 28.625C 87.679 29.1172 86.6104 29.3633 85.2158 29.3633C 84.1494 29.3633 83.3337 29.1764 82.7686 28.8027C 82.208 28.4336 81.9277 27.9141 81.9277 27.2441C 81.9277 26.7839 82.0713 26.3988 82.3584 26.0889C 82.6455 25.779 83.0671 25.5579 83.623 25.4258C 83.4089 25.3346 83.222 25.1865 83.0625 24.9814C 82.903 24.7718 82.8232 24.5508 82.8232 24.3184C 82.8232 24.0267 82.9076 23.7852 83.0762 23.5938C 83.2448 23.3978 83.4886 23.2064 83.8076 23.0195C 83.4066 22.8464 83.0876 22.5684 82.8506 22.1855C 82.6182 21.8027 82.502 21.3516 82.502 20.832C 82.502 19.998 82.7731 19.3532 83.3154 18.8975C 83.8577 18.4417 84.6325 18.2139 85.6396 18.2139C 85.8538 18.2139 86.1068 18.2344 86.3984 18.2754C 86.6947 18.3118 86.8838 18.3392 86.9658 18.3574L 89.6318 18.3574ZM 83.7324 27.0801C 83.7324 27.3672 83.8691 27.5928 84.1426 27.7568C 84.4206 27.9209 84.8079 28.0029 85.3047 28.0029C 86.0521 28.0029 86.6377 27.9004 87.0615 27.6953C 87.4854 27.4902 87.6973 27.21 87.6973 26.8545C 87.6973 26.5674 87.5719 26.3691 87.3213 26.2598C 87.0706 26.1504 86.6833 26.0957 86.1592 26.0957L 85.0791 26.0957C 84.6963 26.0957 84.375 26.1846 84.1152 26.3623C 83.86 26.5446 83.7324 26.7839 83.7324 27.0801ZM 84.4912 20.8594C 84.4912 21.2741 84.5846 21.6022 84.7715 21.8438C 84.9629 22.0853 85.2523 22.2061 85.6396 22.2061C 86.0316 22.2061 86.3187 22.0853 86.501 21.8438C 86.6833 21.6022 86.7744 21.2741 86.7744 20.8594C 86.7744 19.9388 86.3962 19.4785 85.6396 19.4785C 84.874 19.4785 84.4912 19.9388 84.4912 20.8594Z"/>
<path id="path7_fill" d="M 7.14062 26L 1.67871 26L 1.67871 16.0059L 7.14062 16.0059L 7.14062 16.6484L 2.37598 16.6484L 2.37598 20.4287L 6.87402 20.4287L 6.87402 21.0713L 2.37598 21.0713L 2.37598 25.3574L 7.14062 25.3574L 7.14062 26ZM 13.7441 26L 13.5732 24.8242L 13.5186 24.8242C 13.1449 25.3027 12.7598 25.6423 12.3633 25.8428C 11.9714 26.0387 11.5065 26.1367 10.9688 26.1367C 10.2396 26.1367 9.6722 25.9499 9.2666 25.5762C 8.861 25.2025 8.6582 24.6852 8.6582 24.0244C 8.6582 23.2998 8.95898 22.737 9.56055 22.3359C 10.1667 21.9349 11.0417 21.723 12.1855 21.7002L 13.6006 21.6592L 13.6006 21.167C 13.6006 20.4606 13.457 19.9274 13.1699 19.5674C 12.8828 19.2074 12.4202 19.0273 11.7822 19.0273C 11.0941 19.0273 10.3809 19.2188 9.64258 19.6016L 9.38965 19.0137C 10.2054 18.6309 11.012 18.4395 11.8096 18.4395C 12.6253 18.4395 13.2337 18.6514 13.6348 19.0752C 14.0404 19.499 14.2432 20.1598 14.2432 21.0576L 14.2432 26L 13.7441 26ZM 11.0098 25.5215C 11.8027 25.5215 12.4271 25.2959 12.8828 24.8447C 13.3431 24.389 13.5732 23.7578 13.5732 22.9512L 13.5732 22.2197L 12.2744 22.2744C 11.2308 22.3245 10.4857 22.4886 10.0391 22.7666C 9.59701 23.04 9.37598 23.4684 9.37598 24.0518C 9.37598 24.5166 9.51725 24.8789 9.7998 25.1387C 10.0869 25.3939 10.4902 25.5215 11.0098 25.5215ZM 21.2637 24.0654C 21.2637 24.7308 21.0107 25.2435 20.5049 25.6035C 19.999 25.959 19.2812 26.1367 18.3516 26.1367C 17.3581 26.1367 16.5697 25.984 15.9863 25.6787L 15.9863 24.9473C 16.7337 25.321 17.5221 25.5078 18.3516 25.5078C 19.0853 25.5078 19.6413 25.387 20.0195 25.1455C 20.4023 24.8994 20.5938 24.5736 20.5938 24.168C 20.5938 23.7943 20.4411 23.4798 20.1357 23.2246C 19.835 22.9694 19.3382 22.7188 18.6455 22.4727C 17.9027 22.2038 17.3809 21.9736 17.0801 21.7822C 16.7793 21.5863 16.5514 21.3675 16.3965 21.126C 16.2461 20.8799 16.1709 20.5814 16.1709 20.2305C 16.1709 19.6745 16.4033 19.2347 16.8682 18.9111C 17.3376 18.5876 17.9915 18.4258 18.8301 18.4258C 19.6322 18.4258 20.3932 18.5762 21.1133 18.877L 20.8604 19.4922C 20.1312 19.1914 19.4544 19.041 18.8301 19.041C 18.224 19.041 17.7432 19.1413 17.3877 19.3418C 17.0322 19.5423 16.8545 19.8203 16.8545 20.1758C 16.8545 20.5632 16.9912 20.873 17.2646 21.1055C 17.5426 21.3379 18.0827 21.5977 18.8848 21.8848C 19.5547 22.1263 20.0423 22.3451 20.3477 22.541C 20.653 22.7324 20.8809 22.9512 21.0312 23.1973C 21.1862 23.4434 21.2637 23.7327 21.2637 24.0654ZM 21.9336 18.5693L 22.6309 18.5693L 24.2031 22.7393C 24.6816 24.0199 24.9847 24.8835 25.1123 25.3301L 25.1533 25.3301C 25.3447 24.7422 25.6569 23.8649 26.0898 22.6982L 27.6621 18.5693L 28.3594 18.5693L 25.0303 27.2031C 24.7614 27.9049 24.5358 28.3789 24.3535 28.625C 24.1712 28.8711 23.957 29.0557 23.7109 29.1787C 23.4694 29.3018 23.1755 29.3633 22.8291 29.3633C 22.5693 29.3633 22.2799 29.3154 21.9609 29.2197L 21.9609 28.6318C 22.2253 28.7048 22.5101 28.7412 22.8154 28.7412C 23.0479 28.7412 23.2529 28.6865 23.4307 28.5771C 23.6084 28.4678 23.7679 28.2969 23.9092 28.0645C 24.055 27.8366 24.2214 27.472 24.4082 26.9707C 24.5996 26.474 24.7227 26.1504 24.7773 26L 21.9336 18.5693ZM 39.1533 23.2246C 39.1533 24.127 38.8275 24.8379 38.1758 25.3574C 37.5286 25.877 36.6263 26.1367 35.4688 26.1367C 34.4023 26.1367 33.459 25.9362 32.6387 25.5352L 32.6387 23.5664C 33.3132 23.8672 33.8828 24.0791 34.3477 24.2021C 34.8171 24.3252 35.2454 24.3867 35.6328 24.3867C 36.0977 24.3867 36.4531 24.2979 36.6992 24.1201C 36.9499 23.9424 37.0752 23.6781 37.0752 23.3271C 37.0752 23.1312 37.0205 22.958 36.9111 22.8076C 36.8018 22.6527 36.64 22.5046 36.4258 22.3633C 36.2161 22.222 35.7855 21.9964 35.1338 21.6865C 34.5231 21.3994 34.0651 21.1237 33.7598 20.8594C 33.4544 20.5951 33.2106 20.2874 33.0283 19.9365C 32.846 19.5856 32.7549 19.1755 32.7549 18.7061C 32.7549 17.8219 33.0534 17.127 33.6504 16.6211C 34.252 16.1152 35.0814 15.8623 36.1387 15.8623C 36.6582 15.8623 37.1527 15.9238 37.6221 16.0469C 38.096 16.1699 38.5905 16.3431 39.1055 16.5664L 38.4219 18.2139C 37.8887 17.9951 37.4466 17.8424 37.0957 17.7559C 36.7493 17.6693 36.4076 17.626 36.0703 17.626C 35.6693 17.626 35.3617 17.7194 35.1475 17.9062C 34.9333 18.0931 34.8262 18.3369 34.8262 18.6377C 34.8262 18.8245 34.8695 18.9886 34.9561 19.1299C 35.0426 19.2666 35.1794 19.401 35.3662 19.5332C 35.5576 19.6608 36.0065 19.8932 36.7129 20.2305C 37.6471 20.6771 38.2874 21.126 38.6338 21.5771C 38.9801 22.0238 39.1533 22.5729 39.1533 23.2246ZM 46.2148 26L 45.9346 25.0225L 45.8252 25.0225C 45.6019 25.3779 45.2852 25.6536 44.875 25.8496C 44.4648 26.041 43.9977 26.1367 43.4736 26.1367C 42.5758 26.1367 41.8991 25.8975 41.4434 25.4189C 40.9876 24.9359 40.7598 24.2432 40.7598 23.3408L 40.7598 18.3574L 42.8447 18.3574L 42.8447 22.8213C 42.8447 23.3727 42.9427 23.7874 43.1387 24.0654C 43.3346 24.3389 43.6468 24.4756 44.0752 24.4756C 44.6585 24.4756 45.0801 24.2819 45.3398 23.8945C 45.5996 23.5026 45.7295 22.8555 45.7295 21.9531L 45.7295 18.3574L 47.8145 18.3574L 47.8145 26L 46.2148 26ZM 54.1992 26.1367C 53.3014 26.1367 52.5973 25.8109 52.0869 25.1592L 51.9775 25.1592C 52.0505 25.7972 52.0869 26.1663 52.0869 26.2666L 52.0869 29.3633L 50.002 29.3633L 50.002 18.3574L 51.6973 18.3574L 51.9912 19.3486L 52.0869 19.3486C 52.5745 18.5921 53.2969 18.2139 54.2539 18.2139C 55.1562 18.2139 55.8626 18.5625 56.373 19.2598C 56.8835 19.957 57.1387 20.9255 57.1387 22.165C 57.1387 22.9808 57.0179 23.6895 56.7764 24.291C 56.5394 24.8926 56.1999 25.3506 55.7578 25.665C 55.3158 25.9795 54.7962 26.1367 54.1992 26.1367ZM 53.584 19.8818C 53.069 19.8818 52.693 20.0413 52.4561 20.3604C 52.2191 20.6748 52.096 21.1966 52.0869 21.9258L 52.0869 22.1514C 52.0869 22.9717 52.2077 23.5596 52.4492 23.915C 52.6953 24.2705 53.0827 24.4482 53.6113 24.4482C 54.5456 24.4482 55.0127 23.6781 55.0127 22.1377C 55.0127 21.3857 54.8965 20.8229 54.6641 20.4492C 54.4362 20.071 54.0762 19.8818 53.584 19.8818ZM 63.0586 26.1367C 62.1608 26.1367 61.4567 25.8109 60.9463 25.1592L 60.8369 25.1592C 60.9098 25.7972 60.9463 26.1663 60.9463 26.2666L 60.9463 29.3633L 58.8613 29.3633L 58.8613 18.3574L 60.5566 18.3574L 60.8506 19.3486L 60.9463 19.3486C 61.4339 18.5921 62.1562 18.2139 63.1133 18.2139C 64.0156 18.2139 64.722 18.5625 65.2324 19.2598C 65.7428 19.957 65.998 20.9255 65.998 22.165C 65.998 22.9808 65.8773 23.6895 65.6357 24.291C 65.3988 24.8926 65.0592 25.3506 64.6172 25.665C 64.1751 25.9795 63.6556 26.1367 63.0586 26.1367ZM 62.4434 19.8818C 61.9284 19.8818 61.5524 20.0413 61.3154 20.3604C 61.0785 20.6748 60.9554 21.1966 60.9463 21.9258L 60.9463 22.1514C 60.9463 22.9717 61.0671 23.5596 61.3086 23.915C 61.5547 24.2705 61.9421 24.4482 62.4707 24.4482C 63.4049 24.4482 63.8721 23.6781 63.8721 22.1377C 63.8721 21.3857 63.7559 20.8229 63.5234 20.4492C 63.2956 20.071 62.9355 19.8818 62.4434 19.8818ZM 69.3818 22.165C 69.3818 22.9215 69.5049 23.4935 69.751 23.8809C 70.0016 24.2682 70.4072 24.4619 70.9678 24.4619C 71.5238 24.4619 71.9225 24.2705 72.1641 23.8877C 72.4102 23.5003 72.5332 22.9261 72.5332 22.165C 72.5332 21.4085 72.4102 20.8411 72.1641 20.4629C 71.918 20.0846 71.5146 19.8955 70.9541 19.8955C 70.3981 19.8955 69.9971 20.0846 69.751 20.4629C 69.5049 20.8366 69.3818 21.404 69.3818 22.165ZM 74.666 22.165C 74.666 23.4092 74.3379 24.3822 73.6816 25.084C 73.0254 25.7858 72.1117 26.1367 70.9404 26.1367C 70.2067 26.1367 69.5596 25.9772 68.999 25.6582C 68.4385 25.3346 68.0078 24.8721 67.707 24.2705C 67.4062 23.6689 67.2559 22.9671 67.2559 22.165C 67.2559 20.9163 67.5817 19.9456 68.2334 19.2529C 68.8851 18.5602 69.8011 18.2139 70.9814 18.2139C 71.7152 18.2139 72.3623 18.3734 72.9229 18.6924C 73.4834 19.0114 73.9141 19.4694 74.2148 20.0664C 74.5156 20.6634 74.666 21.363 74.666 22.165ZM 80.6543 18.2139C 80.9368 18.2139 81.1715 18.2344 81.3584 18.2754L 81.2012 20.2305C 81.0326 20.1849 80.8275 20.1621 80.5859 20.1621C 79.9206 20.1621 79.401 20.333 79.0273 20.6748C 78.6582 21.0166 78.4736 21.4951 78.4736 22.1104L 78.4736 26L 76.3887 26L 76.3887 18.3574L 77.9678 18.3574L 78.2754 19.6426L 78.3779 19.6426C 78.6149 19.2142 78.9339 18.8701 79.335 18.6104C 79.7406 18.346 80.1803 18.2139 80.6543 18.2139ZM 85.9658 24.4756C 86.3304 24.4756 86.7679 24.3958 87.2783 24.2363L 87.2783 25.7881C 86.7588 26.0205 86.1208 26.1367 85.3643 26.1367C 84.5303 26.1367 83.9219 25.9271 83.5391 25.5078C 83.1608 25.084 82.9717 24.4505 82.9717 23.6074L 82.9717 19.9229L 81.9736 19.9229L 81.9736 19.041L 83.1221 18.3438L 83.7236 16.7305L 85.0566 16.7305L 85.0566 18.3574L 87.1963 18.3574L 87.1963 19.9229L 85.0566 19.9229L 85.0566 23.6074C 85.0566 23.9036 85.1387 24.1224 85.3027 24.2637C 85.4714 24.4049 85.6924 24.4756 85.9658 24.4756Z"/>
<path id="path8_fill" d="M 15.3791 6.84454L 15.3791 6.15252C 15.3791 4.49622 14.7627 2.95714 13.6451 1.81513C 12.4998 0.642857 10.9249 0 9.2068 0L 8.60627 0C 6.88819 0 5.31329 0.642857 4.16791 1.81513C 3.05037 2.95714 2.43393 4.49622 2.43393 6.15252L 2.43393 6.84454C 1.07777 6.93151 -1.51711e-08 8.00546 -1.51711e-08 9.31765L -1.51711e-08 10.3992C -1.51711e-08 11.7643 1.16924 12.876 2.60495 12.876L 4.07247 12.876C 4.33495 12.876 4.54971 12.6718 4.54971 12.4223L 4.54971 7.29076C 4.54971 7.04118 4.33495 6.83698 4.07247 6.83698L 3.38842 6.83698L 3.38842 6.15252C 3.38842 3.16134 5.63146 0.907563 8.60229 0.907563L 9.20282 0.907563C 12.1776 0.907563 14.4167 3.16134 14.4167 6.15252L 14.4167 6.83698L 13.7326 6.83698C 13.4702 6.83698 13.2554 7.04118 13.2554 7.29076L 13.2554 12.4185C 13.2554 12.6681 13.4702 12.8723 13.7326 12.8723L 14.4008 12.8723C 14.2059 15.2395 12.4918 15.7878 11.6964 15.9126C 11.4777 15.2735 10.8453 14.8122 10.1016 14.8122L 8.90852 14.8122C 7.98585 14.8122 7.2342 15.5269 7.2342 16.4042C 7.2342 17.2815 7.98585 18 8.90852 18L 10.1056 18C 10.8771 18 11.5254 17.5008 11.7203 16.8277C 12.11 16.7748 12.7265 16.6424 13.3389 16.3021C 14.2019 15.8218 15.224 14.8424 15.3592 12.8685C 16.7234 12.7891 17.8051 11.7113 17.8051 10.3954L 17.8051 9.31387C 17.8091 8.00546 16.7353 6.92773 15.3791 6.84454ZM 3.60318 11.9647L 2.6129 11.9647C 1.70216 11.9647 0.962438 11.2613 0.962438 10.3954L 0.962438 9.31387C 0.962438 8.4479 1.70216 7.74454 2.6129 7.74454L 3.60318 7.74454L 3.60318 11.9647ZM 10.1056 17.0924L 8.90852 17.0924C 8.51082 17.0924 8.18868 16.7861 8.18868 16.408C 8.18868 16.0298 8.51082 15.7235 8.90852 15.7235L 10.1056 15.7235C 10.5033 15.7235 10.8254 16.0298 10.8254 16.408C 10.8254 16.7861 10.5033 17.0924 10.1056 17.0924ZM 16.8546 10.3954C 16.8546 11.2613 16.1149 11.9647 15.2041 11.9647L 14.2139 11.9647L 14.2139 7.74454L 15.2041 7.74454C 16.1149 7.74454 16.8546 8.4479 16.8546 9.31387L 16.8546 10.3954Z"/>
</defs>
</svg>
