<?xml version="1.0" encoding="utf-8"?>
<!-- Generator: Adobe Illustrator 22.0.1, SVG Export Plug-In . SVG Version: 6.00 Build 0)  -->
<svg version="1.1" id="Layer_1" xmlns="http://www.w3.org/2000/svg" xmlns:xlink="http://www.w3.org/1999/xlink" x="0px" y="0px"
   viewBox="0 0 304.7 100.8" style="enable-background:new 0 0 304.7 100.8;" xml:space="preserve">
<style type="text/css">
  .st0{fill:#96BF3D;fill-opacity:0.25;}
</style>
<path class="st0" d="M290.1,2.5c-5.6-0.4-8.9,0.9-9.7,4.1c2.2-0.8,4.3-0.7,6.4-0.2c5.4,1.3,4.6,0.1,3.7,5.7
  c-2,12.4-7.9,23-16.3,32.2c-12.7,14.1-28.6,23.4-46.1,30.4c-23,9.2-46.9,13.5-71.3,14.1v0c-28,0.5-55.3-3.7-81.5-14.1
  C57.9,67.7,42,58.3,29.2,44.2C20.9,35,14.9,24.4,12.9,12c-0.9-5.5-1.7-4.4,3.7-5.7c2.1-0.5,4.2-0.6,6.4,0.2
  c-0.8-3.2-4.1-4.5-9.7-4.1C6.1,2.9,0.4,7.4-0.3,13.7c2.2-1.9,4.2-3.2,6.4-4.2C7.7,8.7,8,9.2,8.1,10.7c0.1,2.3,0.3,4.7,0.7,7
  c2.2,13.4,8.4,24.8,17.3,34.9c14.9,16.9,33.7,27.9,54.7,35.5c25,9.1,50.4,13,76.2,12.5v0c0.6,0,1.3,0,1.9-0.1
  c4.4-0.1,8.7-0.4,13.1-0.8l0,0c17.1-1.7,34.1-5.6,50.9-11.7c20.9-7.6,39.8-18.6,54.7-35.5c8.9-10.1,15.1-21.5,17.3-34.9
  c0.4-2.3,0.6-4.7,0.7-7c0.1-1.6,0.4-2,1.9-1.3c2.2,1,4.2,2.4,6.4,4.2C303,7.4,297.4,2.9,290.1,2.5z"/>
</svg>
