<svg width="115" height="105" viewBox="0 0 115 105" version="1.1" xmlns="http://www.w3.org/2000/svg" xmlns:xlink="http://www.w3.org/1999/xlink">
<g id="Canvas" fill="none">
<g id="Group">
<g id="Group_2">
<g id="Vector">
<path d="M 1.52588e-06 11.4097C 1.52588e-06 11.4097 11.5 16.0097 12.3 3.90968C 12.7 -2.29032 2.5 -0.790321 6 6.10968C 7.5 9.10968 17.9 6.60968 15.3 0.00967653" stroke-width="0.75" stroke-miterlimit="10" stroke-linecap="round" stroke-linejoin="round" transform="translate(97.0371 29.7969)" stroke="#A2BC44"/>
</g>
<g id="Vector_2">
<path d="M 13.3593 11.0709C 13.3593 11.0709 4.35931 -2.02907 0.359306 0.270931C -0.0406942 0.570931 -1.24069 10.0709 5.05931 16.7709C 11.3593 23.4709 13.3593 11.0709 13.3593 11.0709Z" transform="translate(20.6777 4.93555)" fill="#A2BC44"/>
</g>
<g id="Vector_3">
<path d="M 102.438 47C 102.438 58.9 100.637 66.5 94.5375 71.9C 91.2375 74.8 90.7375 84.7 86.5375 85.7C 83.3375 86.5 76.9375 87.8 70.5375 86.5C 67.9375 85.9 68.4375 77.8 65.6375 77.6C 61.5375 77.2 57.5375 77.4 53.0375 77.4C 49.0375 77.4 49.6375 87.2 43.3375 87.1C 38.6375 87 33.2375 87.3 29.8375 85.6C 27.4375 84.4 29.2375 80.2 27.2375 78C 24.8375 75.3 18.8375 74.3 17.2375 71.1C 15.3375 67.1 6.9375 71.9 3.0375 64.3C -0.5625 57.3 0.0375 55.5 0.0375 47.1C 0.0375 37.4 12.3375 35.2 16.0375 23.6C 21.4375 7.2 35.5375 9.53674e-08 53.9375 9.53674e-08C 82.1375 9.53674e-08 102.537 5.6 102.438 47Z" transform="translate(0 7.40625)" fill="#BEE05F"/>
</g>
<g id="Vector_4">
<path d="M 11.5791 16.7069C 11.5791 16.7069 8.8791 -0.39309 3.9791 0.00690969C 3.4791 0.00690969 -2.1209 8.90691 0.879104 18.3069C 3.8791 27.7069 11.5791 16.7069 11.5791 16.7069Z" transform="translate(24.8574 0)" fill="#BEE05F"/>
</g>
<g id="Vector_5">
<path d="M 0.854254 0.654297C 0.854254 0.654297 16.0543 2.8543 17.1543 1.6543C 18.2543 0.554297 -4.64575 -0.845703 0.854254 0.654297Z" transform="translate(54.2832 8.95312)" fill="#A2BC44"/>
</g>
<g id="Vector_6">
<path d="M 7.62939e-07 5.1C 7.62939e-07 2.3 2.3 -7.62939e-07 5.1 -7.62939e-07C 7.9 -7.62939e-07 10.2 2.3 10.2 5.1" stroke-width="0.75" stroke-miterlimit="10" stroke-linecap="round" stroke-linejoin="round" transform="translate(23.3379 29.8066)" stroke="#A2BC44"/>
</g>
<g id="Vector_7">
<path d="M 2.38419e-08 1.52588e-06C 2.38419e-08 1.52588e-06 3 0.200001 4.1 8.6" stroke-width="0.75" stroke-miterlimit="10" stroke-linecap="round" stroke-linejoin="round" transform="translate(1.73828 48.9062)" stroke="#A2BC44"/>
</g>
<g id="Vector_8" opacity="0.37">
<path d="M 5.7 11.4C 8.84802 11.4 11.4 8.84802 11.4 5.7C 11.4 2.55198 8.84802 0 5.7 0C 2.55198 0 0 2.55198 0 5.7C 0 8.84802 2.55198 11.4 5.7 11.4Z" transform="translate(32.0371 44.207)" fill="#EFFFC3"/>
</g>
</g>
<g id="Group_3">
<g id="Group_4">
<g id="Vector_9">
<path d="M 51 0L 0 0L 0 21.8L 51 21.8L 51 0Z" transform="matrix(0.7678 -0.6407 0.6407 0.7678 54.2539 73.1973)" fill="#6B7F20"/>
</g>
<g id="Vector_10">
<path d="M 37.1 0.499999L 43.7 8.4C 42 9.8 41.8 12.2 43.2 13.9L 12.1 39.9C 10.7 38.2 8.3 38 6.6 39.4L 1.52588e-06 31.5C 1.7 30.1 1.9 27.7 0.500002 26L 31.6 -7.62939e-07C 33 1.7 35.4 1.9 37.1 0.499999Z" stroke-width="0.5" stroke-miterlimit="10" transform="translate(59.0391 45.3066)" stroke="#BEE05F"/>
</g>
<g id="Vector_11">
<path d="M 12.4 6.2C 12.4 9.62416 9.62416 12.4 6.2 12.4C 2.77583 12.4 0 9.62416 0 6.2C 0 2.77583 2.77583 0 6.2 0C 9.62416 0 12.4 2.77583 12.4 6.2Z" stroke-width="0.5" stroke-miterlimit="10" transform="matrix(0.7678 -0.6407 0.6407 0.7678 72.084 64.4395)" stroke="#BEE05F"/>
</g>
<g id="Vector_12">
<path d="M 5.4 10.8C 8.38233 10.8 10.8 8.38233 10.8 5.4C 10.8 2.41766 8.38233 0 5.4 0C 2.41766 0 3.05176e-06 2.41766 3.05176e-06 5.4C 3.05176e-06 8.38233 2.41766 10.8 5.4 10.8Z" transform="matrix(0.7678 -0.6407 0.6407 0.7678 73.2109 64.543)" fill="#BEE05F"/>
</g>
</g>
<g id="Group_5">
<g id="Vector_13">
<path d="M 51 0L 0 0L 0 21.8L 51 21.8L 51 0Z" transform="matrix(0.647 -0.7625 0.7625 0.647 53.6289 75.4375)" fill="#769325"/>
</g>
<g id="Vector_14">
<path d="M 31.8 -7.62939e-07L 39.6 6.6C 38.2 8.2 38.4 10.7 40.1 12.1L 13.8 43.1C 12.2 41.7 9.7 41.9 8.3 43.6L 0.500001 37C 1.9 35.4 1.7 32.9 7.62939e-07 31.5L 26.2 0.600002C 27.9 1.9 30.4 1.7 31.8 -7.62939e-07Z" stroke-width="0.5" stroke-miterlimit="10" transform="translate(58.3379 41.3066)" stroke="#BEE05F"/>
</g>
<g id="Vector_15">
<path d="M 12.4 6.2C 12.4 9.62416 9.62416 12.4 6.2 12.4C 2.77583 12.4 0 9.62416 0 6.2C 0 2.77583 2.77583 1.52588e-06 6.2 1.52588e-06C 9.62416 1.52588e-06 12.4 2.77583 12.4 6.2Z" stroke-width="0.5" stroke-miterlimit="10" transform="matrix(0.647 -0.7625 0.7625 0.647 69.6348 63.8398)" stroke="#BEE05F"/>
</g>
<g id="Vector_16">
<path d="M 5.4 10.8C 8.38233 10.8 10.8 8.38234 10.8 5.4C 10.8 2.41766 8.38233 0 5.4 0C 2.41766 0 3.05176e-06 2.41766 3.05176e-06 5.4C 3.05176e-06 8.38234 2.41766 10.8 5.4 10.8Z" transform="matrix(0.647 -0.7625 0.7625 0.647 70.7617 63.7461)" fill="#BEE05F"/>
</g>
</g>
<g id="Group_6">
<g id="Vector_17">
<path d="M 58.9 43.7L 5.5 43.7C 2.5 43.7 7.62939e-07 41.3 7.62939e-07 38.2L 7.62939e-07 5.5C 7.62939e-07 2.5 2.4 -1.52588e-06 5.5 -1.52588e-06L 58.9 -1.52588e-06C 61.9 -1.52588e-06 64.4 2.4 64.4 5.5L 64.4 38.2C 64.4 41.2 61.9 43.7 58.9 43.7Z" transform="translate(49.8379 60.6055)" fill="#96BF3D"/>
</g>
<g id="Group_7">
<g id="Vector_18">
<path d="M 50.8 33.1L 6 33.1C 2.7 33.1 0 30.4 0 27.1L 0 6C 0 2.7 2.7 1.52588e-06 6 1.52588e-06L 50.8 1.52588e-06C 54.1 1.52588e-06 56.8 2.7 56.8 6L 56.8 27.1C 56.8 30.4 54.1 33.1 50.8 33.1Z" transform="translate(53.6387 65.9062)" fill="#BEE05F"/>
</g>
<g id="Vector_19">
<path d="M 50.8 33.1L 6 33.1C 2.7 33.1 0 30.4 0 27.1L 0 6C 0 2.7 2.7 1.52588e-06 6 1.52588e-06L 50.8 1.52588e-06C 54.1 1.52588e-06 56.8 2.7 56.8 6L 56.8 27.1C 56.8 30.4 54.1 33.1 50.8 33.1Z" stroke-width="0.5" stroke-miterlimit="10" stroke-linecap="round" stroke-dasharray="4.03 4.03" transform="translate(53.6387 65.9062)" stroke="#769325"/>
</g>
</g>
<g id="Vector_20">
<path d="M 3.8 12.8L 12.8 12.8L 12.8 -3.05176e-06L 3.8 -3.05176e-06C 1.7 -3.05176e-06 -3.05176e-06 1.7 -3.05176e-06 3.8L -3.05176e-06 9.1C -3.05176e-06 11.1 1.7 12.8 3.8 12.8Z" transform="translate(101.338 77.2051)" fill="#96BF3D"/>
</g>
<g id="Vector_21">
<path d="M 2.9 5.8C 4.50162 5.8 5.8 4.50162 5.8 2.9C 5.8 1.29837 4.50162 -3.05176e-06 2.9 -3.05176e-06C 1.29837 -3.05176e-06 3.05176e-06 1.29837 3.05176e-06 2.9C 3.05176e-06 4.50162 1.29837 5.8 2.9 5.8Z" transform="translate(104.938 80.7051)" fill="#BEE05F"/>
</g>
<g id="Vector_22">
<path d="M 1.1 2.2C 1.70751 2.2 2.2 1.70751 2.2 1.1C 2.2 0.492485 1.70751 0 1.1 0C 0.492484 0 0 0.492485 0 1.1C 0 1.70751 0.492484 2.2 1.1 2.2Z" transform="translate(106.738 82.5059)" fill="#769325"/>
</g>
</g>
</g>
</g>
</g>
</svg>

