<svg width="163" height="54" viewBox="0 0 163 54" version="1.1" xmlns="http://www.w3.org/2000/svg" xmlns:xlink="http://www.w3.org/1999/xlink">
<title>Group</title>
<desc>Created using Figma</desc>
<g id="Canvas" transform="translate(-11089 -19752)">
<g id="Group">
<g id="Vector">
<use xlink:href="#path0_fill" transform="translate(11089 19752)" fill="#4A7010"/>
</g>
<g id="Group">
<g id="Vector">
<use xlink:href="#path1_fill" transform="translate(11099.9 19768.9)" fill="#FFFFFF"/>
</g>
<g id="Group">
<g id="Vector">
<use xlink:href="#path2_fill" transform="translate(11115.1 19760.3)" fill="#FFFFFF"/>
</g>
</g>
</g>
<g id="Group">
<g id="Group">
<g id="Vector">
<use xlink:href="#path3_fill" transform="translate(11138.5 19773.4)" fill="#FFFFFF"/>
</g>
<g id="Vector">
<use xlink:href="#path4_fill" transform="translate(11155 19778.2)" fill="#FFFFFF"/>
</g>
<g id="Vector">
<use xlink:href="#path5_fill" transform="translate(11169.3 19778.2)" fill="#FFFFFF"/>
</g>
<g id="Vector">
<use xlink:href="#path6_fill" transform="translate(11187.5 19773.1)" fill="#FFFFFF"/>
</g>
<g id="Vector">
<use xlink:href="#path7_fill" transform="translate(11199.1 19775.3)" fill="#FFFFFF"/>
</g>
<g id="Vector">
<use xlink:href="#path8_fill" transform="translate(11207.4 19778.2)" fill="#FFFFFF"/>
</g>
<g id="Vector">
<use xlink:href="#path9_fill" transform="translate(11221.9 19778.2)" fill="#FFFFFF"/>
</g>
<g id="Vector">
<use xlink:href="#path10_fill" transform="translate(11228.8 19778.1)" fill="#FFFFFF"/>
</g>
</g>
<g id="Group">
<g id="Vector">
<use xlink:href="#path11_fill" transform="translate(11138.5 19760.7)" fill="#FFFFFF"/>
</g>
<g id="Vector">
<use xlink:href="#path12_fill" transform="translate(11147.5 19763.1)" fill="#FFFFFF"/>
</g>
<g id="Vector">
<use xlink:href="#path13_fill" transform="translate(11154.9 19763.2)" fill="#FFFFFF"/>
</g>
<g id="Vector">
<use xlink:href="#path14_fill" transform="translate(11166.2 19763.1)" fill="#FFFFFF"/>
</g>
<g id="Vector">
<use xlink:href="#path15_fill" transform="translate(11174.2 19760.4)" fill="#FFFFFF"/>
</g>
<g id="Vector">
<use xlink:href="#path16_fill" transform="translate(11177 19763.1)" fill="#FFFFFF"/>
</g>
<g id="Vector">
<use xlink:href="#path17_fill" transform="translate(11184.8 19763.2)" fill="#FFFFFF"/>
</g>
<g id="Vector">
<use xlink:href="#path18_fill" transform="translate(11191.7 19760.3)" fill="#FFFFFF"/>
</g>
<g id="Vector">
<use xlink:href="#path19_fill" transform="translate(11202.8 19763.1)" fill="#FFFFFF"/>
</g>
<g id="Vector">
<use xlink:href="#path20_fill" transform="translate(11211 19763.1)" fill="#FFFFFF"/>
</g>
<g id="Vector">
<use xlink:href="#path21_fill" transform="translate(11221.3 19761.8)" fill="#FFFFFF"/>
</g>
<g id="Vector">
<use xlink:href="#path22_fill" transform="translate(11226.8 19760.4)" fill="#FFFFFF"/>
</g>
<g id="Vector">
<use xlink:href="#path23_fill" transform="translate(11234.2 19763.1)" fill="#FFFFFF"/>
</g>
</g>
</g>
</g>
</g>
<defs>
<path id="path0_fill" d="M 162.969 46.0885C 162.969 50.0542 159.751 53.3016 155.753 53.3016L 7.21598 53.3016C 3.21752 53.3016 0 50.0542 0 46.0885L 0 7.21305C 0 3.24744 3.21752 -3.81168e-06 7.21598 -3.81168e-06L 155.784 -3.81168e-06C 159.751 -3.81168e-06 163 3.21621 163 7.21305L 163 46.0885L 162.969 46.0885Z"/>
<path id="path1_fill" d="M 31.5452 18.3292C 30.6706 20.234 30.2645 21.1083 29.1711 22.7945C 27.6092 25.1676 25.4226 28.1028 22.7361 28.1028C 20.3308 28.134 19.706 26.5415 16.4573 26.5415C 13.2085 26.5727 12.5213 28.1028 10.1159 28.1028C 7.39824 28.0715 5.33653 25.4174 3.77463 23.0755C -0.567457 16.487 -1.00479 8.74309 1.65044 4.62135C 3.55596 1.68617 6.55481 7.62336e-06 9.36623 7.62336e-06C 12.2401 7.62336e-06 14.0519 1.56127 16.426 1.56127C 18.7376 1.56127 20.1434 7.62336e-06 23.4546 7.62336e-06C 25.9536 7.62336e-06 28.6089 1.37391 30.5144 3.71581C 24.298 7.11936 25.2976 15.9561 31.5452 18.3292Z"/>
<path id="path2_fill" d="M 5.76521 5.96404C 6.9835 4.40277 7.8894 2.24822 7.54578 -3.81168e-06C 5.57778 0.124897 3.26617 1.37391 1.92293 3.02885C 0.704651 4.49644 -0.294964 6.71343 0.0798924 8.83675C 2.23532 8.8992 4.45322 7.61898 5.76521 5.96404Z"/>
<path id="path3_fill" d="M 6.21637 7.62336e-06L -1.90662e-06 18.2668L 2.84266 18.2668L 4.6857 12.6463L 10.6834 12.6463L 12.5889 18.2668L 15.5253 18.2668L 9.27769 7.62336e-06L 6.21637 7.62336e-06ZM 7.68455 2.99763C 7.90322 3.80949 8.12189 4.65257 8.40303 5.58932L 10.0899 10.4292L 5.3417 10.4292L 6.99732 5.55811C 7.24722 4.74625 7.46589 3.90316 7.68455 2.99763Z"/>
<path id="path4_fill" d="M 7.05979 -7.62336e-06C 5.18551 -7.62336e-06 3.65485 0.718189 2.65523 2.12333L 2.53028 0.312245L 9.53309e-07 0.312245L 9.53309e-07 0.530826C 0.062477 1.65494 0.093716 2.90394 0.093716 4.68379L 0.093716 18.7664L 2.8739 18.7664L 2.8739 12.2091C 3.71732 13.2395 5.0918 13.8328 6.6537 13.8328C 8.27808 13.8328 9.74626 13.2083 10.8396 12.053C 12.0579 10.7727 12.6826 8.93044 12.6826 6.74467C 12.6826 4.8087 12.1204 3.12253 11.0895 1.90475C 10.0899 0.655735 8.65293 -7.62336e-06 7.05979 -7.62336e-06ZM 6.37256 2.27945C 8.84036 2.27945 9.93369 4.55889 9.93369 6.83834C 9.93369 9.74229 8.52798 11.5534 6.24761 11.5534C 4.6857 11.5534 3.3737 10.4917 2.99885 8.99289C 2.93637 8.74309 2.90514 8.46206 2.90514 8.08735L 2.90514 5.87036C 2.90514 5.68301 2.93637 5.43321 2.99885 5.1834C 2.99885 5.12095 3.03009 5.02727 3.03009 4.96482C 3.43618 3.37233 4.81066 2.27945 6.37256 2.27945Z"/>
<path id="path5_fill" d="M 7.02856 -7.62336e-06C 5.15427 -7.62336e-06 3.62361 0.718189 2.62399 2.12333L 2.49904 0.281028L 0 0.281028L 0 0.499609C 0.0624761 1.62372 0.0937103 2.87273 0.0937103 4.65257L 0.0937103 18.7352L 2.8739 18.7352L 2.8739 12.1779C 3.71733 13.2083 5.09179 13.8016 6.6537 13.8016C 8.27807 13.8016 9.74627 13.1771 10.8396 12.0217C 12.0579 10.7415 12.6826 8.8992 12.6826 6.71343C 12.6826 4.77746 12.1204 3.0913 11.0895 1.87351C 10.0586 0.655724 8.62169 -7.62336e-06 7.02856 -7.62336e-06ZM 6.34132 2.27945C 8.80912 2.27945 9.90246 4.55889 9.90246 6.83834C 9.90246 9.74229 8.49674 11.5534 6.21636 11.5534C 4.6857 11.5534 3.34247 10.4917 2.96761 8.99289C 2.90514 8.74309 2.8739 8.46206 2.8739 8.08735L 2.8739 5.87036C 2.8739 5.68301 2.90514 5.43321 2.96761 5.1834C 2.96761 5.12095 2.99885 5.02727 2.99885 4.96482C 3.40495 3.37233 4.77941 2.27945 6.34132 2.27945Z"/>
<path id="path6_fill" d="M 6.62246 8.05613C 4.02971 7.05692 3.21752 6.27628 3.21752 4.80869C 3.21752 3.59091 4.18589 2.3419 6.37255 2.3419C 8.15312 2.3419 9.30894 2.9664 9.62132 3.15376L 9.87121 3.30988L 10.6522 0.999202L 10.496 0.90553C 10.0274 0.624502 8.71541 7.62336e-06 6.46627 7.62336e-06C 2.93638 7.62336e-06 0.468568 2.09209 0.468568 5.05849C 0.468568 7.46284 1.99923 9.14901 5.31046 10.3356C 7.65331 11.2099 8.52798 12.1154 8.52798 13.6454C 8.52798 15.3941 7.18474 16.4557 4.99808 16.4557C 3.59237 16.4557 2.12419 16.0498 0.999619 15.3316L 0.749709 15.1755L -1.90662e-06 17.5486L 0.124948 17.6423C 1.1558 18.3293 3.1238 18.8289 4.81065 18.8289C 9.55883 18.8289 11.2457 15.9249 11.2457 13.4581C 11.2769 10.9289 9.93369 9.36759 6.62246 8.05613Z"/>
<path id="path7_fill" d="M 4.71694 7.62336e-06L 1.99924 0.843075L 1.99924 3.15376L -3.81324e-06 3.15376L -3.81324e-06 5.37074L 1.99924 5.37074L 1.99924 12.1466C 1.99924 13.7704 2.31161 14.9257 2.96761 15.6439C 3.59237 16.3308 4.52951 16.7055 5.65408 16.7055C 6.68494 16.7055 7.43465 16.487 7.77827 16.3621L 7.93446 16.2996L 7.8095 14.0826L 7.5596 14.1763C 7.21598 14.27 6.84113 14.3324 6.27884 14.3324C 5.21675 14.3324 4.74818 13.6455 4.74818 12.053L 4.74818 5.37074L 8.09065 5.37074L 8.09065 3.15376L 4.74818 3.15376L 4.74818 7.62336e-06L 4.71694 7.62336e-06Z"/>
<path id="path8_fill" d="M 6.55999 -7.62336e-06C 2.68647 -7.62336e-06 1.90662e-06 2.87272 1.90662e-06 7.02568C 1.90662e-06 11.0225 2.62399 13.8328 6.37256 13.8328L 6.4038 13.8328C 9.55884 13.8328 12.9638 11.6158 12.9638 6.77589C 12.9638 4.80869 12.3703 3.12252 11.2145 1.87351C 9.99617 0.655724 8.40303 -7.62336e-06 6.55999 -7.62336e-06ZM 6.46627 2.18576C 8.96531 2.18576 10.0899 4.62134 10.0899 6.86956C 10.0899 9.64861 8.55922 11.647 6.4038 11.647L 6.37256 11.647C 4.27961 11.647 2.74894 9.67984 2.74894 6.93201C 2.78018 4.55889 3.90475 2.18576 6.46627 2.18576Z"/>
<path id="path9_fill" d="M 6.87237 0.124901L 6.71618 0.0936835C 6.46627 0.0312329 6.27884 -7.62336e-06 6.02894 -7.62336e-06C 4.59199 -7.62336e-06 3.27999 0.843087 2.56151 2.217L 2.4678 0.281028L 1.90662e-06 0.281028L 0.0312418 0.499609C 0.0937179 1.59249 0.124952 2.81028 0.124952 4.46522L 0.0937122 13.4893L 2.87389 13.4893L 2.87389 6.43242C 2.87389 6.05771 2.90514 5.683 2.93637 5.37075C 3.24875 3.68458 4.40456 2.59171 5.84151 2.59171C 6.12265 2.59171 6.34132 2.62292 6.59123 2.62292L 6.87237 2.65414L 6.87237 0.124901Z"/>
<path id="path10_fill" d="M 6.2476 0C 2.56152 0 0 2.93519 0 7.1506C 0 11.2099 2.56152 13.8328 6.52874 13.8328C 8.62169 13.8328 10.0586 13.3644 10.9021 12.9897L 11.0583 12.9273L 10.5272 10.8664L 10.3085 10.9601C 9.55884 11.2723 8.55922 11.5846 6.84113 11.5846C 5.65408 11.5846 2.8739 11.1787 2.68647 7.58774L 11.6205 7.61898L 11.6518 7.43162C 11.7143 7.15059 11.7455 6.77588 11.7455 6.27628C 11.7455 3.37232 10.3085 0 6.2476 0ZM 6.06017 2.0921C 6.9036 2.0921 7.59084 2.3419 8.09065 2.87273C 8.8716 3.68459 9.02779 4.87115 9.02779 5.43321L 2.71771 5.43321C 2.99885 3.84072 3.99846 2.0921 6.06017 2.0921Z"/>
<path id="path11_fill" d="M -1.90662e-06 0.187359C 0.780949 0.0936835 1.65561 -3.81168e-06 2.65523 -3.81168e-06C 4.4358 -3.81168e-06 5.71656 0.374707 6.55998 1.06166C 7.43465 1.77985 7.93446 2.77906 7.93446 4.18419C 7.93446 5.58933 7.43465 6.74466 6.55998 7.55652C 5.65408 8.36838 4.15466 8.80553 2.31161 8.80553C 1.40571 8.80553 0.687236 8.77431 0.031238 8.71186L 0.031238 0.187359L -1.90662e-06 0.187359ZM 1.28076 7.86877C 1.59314 7.93123 2.06171 7.93123 2.53028 7.93123C 5.18551 7.93123 6.62246 6.58854 6.62246 4.27787C 6.62246 2.217 5.3417 0.936755 2.71771 0.936755C 2.06171 0.936755 1.59314 0.999213 1.24952 1.06166L 1.24952 7.86877L 1.28076 7.86877Z"/>
<path id="path12_fill" d="M 3.31123 6.49487C 1.46819 6.49487 -1.90662e-06 5.27708 -1.90662e-06 3.30988C -1.90662e-06 1.21779 1.53066 7.62336e-06 3.43618 7.62336e-06C 5.40418 7.62336e-06 6.74741 1.28023 6.74741 3.18497C 6.74741 5.49565 4.96685 6.49487 3.31123 6.49487ZM 3.34247 5.65178C 4.52952 5.65178 5.43542 4.65257 5.43542 3.21621C 5.43542 2.15455 4.84189 0.843075 3.37371 0.843075C 1.90552 0.843075 1.24952 2.06087 1.24952 3.24743C 1.28076 4.62134 2.12419 5.65178 3.34247 5.65178Z"/>
<path id="path13_fill" d="M 1.34323 0.0312329L 2.28037 3.18498C 2.4678 3.87194 2.65523 4.52768 2.78018 5.18341L 2.81142 5.18341C 2.96761 4.5589 3.18628 3.90315 3.43618 3.2162L 4.56075 0.0624506L 5.62285 0.0624506L 6.68494 3.15376C 6.93484 3.87194 7.15351 4.5589 7.3097 5.18341L 7.34094 5.18341C 7.46589 4.5589 7.65332 3.90317 7.87198 3.15376L 8.84036 0.0312329L 10.0899 0.0312329L 7.87198 6.24506L 6.71618 6.24506L 5.65408 3.27865C 5.40418 2.56047 5.21675 1.9672 5.02932 1.21779L 4.99809 1.21779C 4.8419 1.9672 4.62323 2.62292 4.37332 3.27865L 3.24875 6.21384L 2.09295 6.21384L 1.90662e-06 -3.81168e-06L 1.34323 -3.81168e-06L 1.34323 0.0312329Z"/>
<path id="path14_fill" d="M 0.0624741 1.84229C 0.0624741 1.18656 0.0624751 0.686964 -9.53309e-07 0.156134L 1.12457 0.156134L 1.18704 1.15533L 1.21828 1.15533C 1.5619 0.593273 2.37409 7.62336e-06 3.49866 7.62336e-06C 4.46704 7.62336e-06 5.93523 0.499612 5.93523 2.65416L 5.93523 6.36996L 4.68571 6.36996L 4.68571 2.77905C 4.68571 1.77984 4.27961 0.936767 3.09257 0.936767C 2.28038 0.936767 1.62438 1.46758 1.40571 2.09209C 1.34323 2.24821 1.312 2.43557 1.312 2.62292L 1.312 6.36996L 0.0624741 6.36996L 0.0624741 1.84229Z"/>
<path id="path15_fill" d="M 3.81324e-06 -7.62336e-06L 1.24952 -7.62336e-06L 1.24952 9.11778L 3.81324e-06 9.11778L 3.81324e-06 -7.62336e-06Z"/>
<path id="path16_fill" d="M 3.31123 6.49487C 1.46819 6.49487 -3.81324e-06 5.27708 -3.81324e-06 3.30988C -3.81324e-06 1.21779 1.53066 7.62336e-06 3.43618 7.62336e-06C 5.40417 7.62336e-06 6.74741 1.28023 6.74741 3.18497C 6.74741 5.49565 4.96684 6.49487 3.31123 6.49487ZM 3.34247 5.65178C 4.52951 5.65178 5.43542 4.65257 5.43542 3.21621C 5.43542 2.15455 4.8419 0.843075 3.37371 0.843075C 1.90552 0.843075 1.24952 2.06087 1.24952 3.24743C 1.28076 4.62134 2.12419 5.65178 3.34247 5.65178Z"/>
<path id="path17_fill" d="M 5.43542 4.8087C 5.43542 5.33953 5.46665 5.87035 5.52913 6.30751L 4.40456 6.30751L 4.27961 5.52687L 4.24837 5.52687C 3.87352 6.02648 3.1238 6.46363 2.12418 6.46363C 0.718473 6.46363 1.90662e-06 5.58932 1.90662e-06 4.68379C 1.90662e-06 3.18497 1.46818 2.37313 4.15465 2.37313L 4.15465 2.24822C 4.15465 1.74861 3.99847 0.811862 2.59275 0.811862C 1.93676 0.811862 1.28076 0.967988 0.780953 1.28024L 0.499812 0.530826C 1.0621 0.218573 1.90552 -7.62336e-06 2.78018 -7.62336e-06C 4.90437 -7.62336e-06 5.40418 1.28024 5.40418 2.52925L 5.40418 4.8087L 5.43542 4.8087ZM 4.21713 3.12252C 2.84266 3.0913 1.28076 3.30987 1.28076 4.52766C 1.28076 5.27707 1.8118 5.62055 2.43656 5.62055C 3.34247 5.62055 3.93599 5.12094 4.12341 4.59011C 4.15465 4.46521 4.18589 4.34031 4.18589 4.21541L 4.18589 3.12252L 4.21713 3.12252Z"/>
<path id="path18_fill" d="M 6.46627 0.0312177L 6.46627 7.52529C 6.46627 8.08734 6.46627 8.71186 6.52875 9.11779L 5.40418 9.11779L 5.3417 8.02491L 5.31046 8.02491C 4.9356 8.71186 4.09218 9.24268 2.96761 9.24268C 1.31199 9.24268 -3.81324e-06 7.96245 -3.81324e-06 6.08893C -3.81324e-06 3.99684 1.43695 2.74782 3.09257 2.74782C 4.15466 2.74782 4.87313 3.18498 5.18551 3.68458L 5.21675 3.68458L 5.21675 0L 6.46627 0L 6.46627 0.0312177ZM 5.21675 5.46443C 5.21675 5.3083 5.21675 5.12096 5.15427 4.96483C 4.96684 4.24665 4.27961 3.68458 3.34247 3.68458C 2.03047 3.68458 1.28076 4.71503 1.28076 6.05772C 1.28076 7.33795 1.96799 8.36838 3.31123 8.36838C 4.15465 8.36838 4.9356 7.86877 5.15427 7.02569C 5.18551 6.86957 5.21675 6.71345 5.21675 6.52609L 5.21675 5.46443Z"/>
<path id="path19_fill" d="M 3.31123 6.49487C 1.46819 6.49487 -3.81324e-06 5.27708 -3.81324e-06 3.30988C -3.81324e-06 1.21779 1.53066 7.62336e-06 3.43618 7.62336e-06C 5.40417 7.62336e-06 6.74741 1.28023 6.74741 3.18497C 6.74741 5.49565 4.96684 6.49487 3.31123 6.49487ZM 3.34247 5.65178C 4.52951 5.65178 5.43542 4.65257 5.43542 3.21621C 5.43542 2.15455 4.8419 0.843075 3.37371 0.843075C 1.90552 0.843075 1.24952 2.06087 1.24952 3.24743C 1.24952 4.62134 2.12419 5.65178 3.34247 5.65178Z"/>
<path id="path20_fill" d="M 0.0624741 1.84229C 0.0624741 1.18656 0.0624799 0.686964 3.81324e-06 0.156134L 1.12457 0.156134L 1.18704 1.15533L 1.21828 1.15533C 1.5619 0.593273 2.37409 7.62336e-06 3.49866 7.62336e-06C 4.46704 7.62336e-06 5.93523 0.499612 5.93523 2.65416L 5.93523 6.36996L 4.68571 6.36996L 4.68571 2.77905C 4.68571 1.77984 4.27961 0.936767 3.09257 0.936767C 2.28038 0.936767 1.62438 1.46758 1.40571 2.09209C 1.34324 2.24821 1.312 2.43557 1.312 2.62292L 1.312 6.36996L 0.0624741 6.36996L 0.0624741 1.84229Z"/>
<path id="path21_fill" d="M 2.31161 -7.62336e-06L 2.31161 1.49882L 4.12342 1.49882L 4.12342 2.37313L 2.31161 2.37313L 2.31161 5.71424C 2.31161 6.49487 2.56151 6.93201 3.24875 6.93201C 3.59237 6.93201 3.7798 6.90078 3.96723 6.86956L 4.0297 7.74388C 3.7798 7.80633 3.40495 7.90001 2.90514 7.90001C 2.31162 7.90001 1.84304 7.71266 1.5619 7.43163C 1.21828 7.08815 1.06209 6.52609 1.06209 5.80791L 1.06209 2.43558L -1.90662e-06 2.43558L -1.90662e-06 1.56126L 1.06209 1.56126L 1.06209 0.405936L 2.31161 -7.62336e-06Z"/>
<path id="path22_fill" d="M 1.90662e-06 -7.62336e-06L 1.24952 -7.62336e-06L 1.24952 3.87194L 1.28076 3.87194C 1.46819 3.55968 1.78057 3.24743 2.18666 3.0913C 2.56152 2.87273 2.99885 2.77905 3.46742 2.77905C 4.40456 2.77905 5.87275 3.27866 5.87275 5.4332L 5.87275 9.11778L 4.62323 9.11778L 4.62323 5.55811C 4.62323 4.5589 4.21713 3.71581 3.03008 3.71581C 2.2179 3.71581 1.59314 4.21541 1.34323 4.83991C 1.28076 4.99604 1.24952 5.15217 1.24952 5.37075L 1.24952 9.11778L 1.90662e-06 9.11778L 1.90662e-06 -7.62336e-06Z"/>
<path id="path23_fill" d="M 1.24952 3.46602C 1.28076 4.99606 2.34286 5.62055 3.59238 5.62055C 4.49828 5.62055 5.06056 5.46442 5.49789 5.3083L 5.71656 6.08893C 5.27923 6.27628 4.49828 6.49485 3.40495 6.49485C 1.28076 6.49485 3.81324e-06 5.21462 3.81324e-06 3.37232C 3.81324e-06 1.49881 1.24952 -3.81168e-06 3.24876 -3.81168e-06C 5.49789 -3.81168e-06 6.09142 1.77985 6.09142 2.93518C 6.09142 3.15376 6.09142 3.34111 6.06018 3.46602L 1.24952 3.46602ZM 4.90437 2.65415C 4.90437 1.93596 4.56075 0.811865 3.18628 0.811865C 1.90552 0.811865 1.37448 1.87351 1.24952 2.65415L 4.90437 2.65415Z"/>
</defs>
</svg>
