<svg width="165" height="133" viewBox="0 0 165 133" version="1.1" xmlns="http://www.w3.org/2000/svg" xmlns:xlink="http://www.w3.org/1999/xlink">
<g id="Canvas" fill="none">
<g id="Mask Group">
<g id="Vector">
<path d="M 132.471 133L 32.3909 133C 14.5344 133 0 118.603 0 100.915L 0 32.0845C 0 14.3969 14.5344 0 32.3909 0L 132.609 0C 150.466 0 165 14.3969 165 32.0845L 165 101.053C 164.862 118.603 150.327 133 132.471 133Z" fill="#E5E5E5"/>
</g>
<mask id="mask0" mask-type="alpha" maskUnits="userSpaceOnUse" x="0" y="0" width="165" height="133">
<g id="Vector_2">
<path d="M 132.471 133L 32.3909 133C 14.5344 133 0 118.603 0 100.915L 0 32.0845C 0 14.3969 14.5344 0 32.3909 0L 132.609 0C 150.466 0 165 14.3969 165 32.0845L 165 101.053C 164.862 118.603 150.327 133 132.471 133Z" transform="translate(165 0) scale(-1 1)" fill="#E5E5E5"/>
</g>
</mask>
<g mask="url(#mask0)">
<g id="Group 4">
<g id="Mask Group_2">
<mask id="mask1" mask-type="alpha" maskUnits="userSpaceOnUse" x="0" y="0" width="165" height="133">
<g id="Vector_3">
<path d="M 132.471 133L 32.3909 133C 14.5344 133 0 118.603 0 100.915L 0 32.0845C 0 14.3969 14.5344 0 32.3909 0L 132.609 0C 150.466 0 165 14.3969 165 32.0845L 165 101.053C 164.862 118.603 150.327 133 132.471 133Z" transform="translate(165 0) scale(-1 1)" fill="#E5E5E5"/>
</g>
</mask>
<g mask="url(#mask1)">
<g id="Group">
<g id="Group_2">
<g id="Group_3">
<g id="Group_4">
<g id="Group_5">
<g id="Group_6">
<g id="Group_7">
<g id="Vector_4">
<path d="M 124.822 78.4801C 124.822 87.2114 124.522 52.5908 124.522 52.5908L 0.121938 52.5908C 0.121938 52.5908 -1.77806 24.874 9.42194 14.8229C 18.3219 6.80229 31.6219 2.33511 36.7219 0.812211C 38.0219 0.406104 38.8219 0.20306 38.8219 0.20306L 87.2219 -6.1967e-06C 87.2219 -6.1967e-06 87.9219 0.203047 89.1219 0.507627C 90.6219 0.913734 92.8219 1.62443 95.4219 2.63969C 96.6219 3.0458 97.8219 3.55344 99.1219 4.1626C 99.2219 4.1626 99.3219 4.26413 99.4219 4.26413C 117.522 10.4573 129.022 28.4275 127.122 47.7176C 125.922 61.2206 124.822 74.4191 124.822 78.4801Z" transform="translate(16 85.7383)" fill="white"/>
</g>
<g id="Vector_5">
<path d="M 21.3412 11.8786C 46.4412 15.7366 55.5412 5.07634 55.1412 3.14733C 54.8412 1.31985 53.3411 0.609154 53.2411 0.507627C 52.0411 0.203047 51.3412 -6.1967e-06 51.3412 -6.1967e-06L 3.04115 0.20306C 3.04115 0.20306 2.24116 0.406104 0.941156 0.812211C -0.458844 1.72595 -3.65885 8.02062 21.3412 11.8786Z" transform="translate(51.9805 85.7383)" fill="#96BF3D"/>
</g>
<g id="Group_8">
<g id="Group_9">
<g id="Group_10">
<g id="Vector_6">
<path d="M 7.9 16.0412C 12.263 16.0412 15.8 12.4503 15.8 8.02061C 15.8 3.59095 12.263 0 7.9 0C 3.53695 0 0 3.59095 0 8.02061C 0 12.4503 3.53695 16.0412 7.9 16.0412Z" transform="translate(28.5215 14.9727)" fill="#FF8B6C"/>
</g>
</g>
<g id="Vector_7">
<path d="M 6.4 0.855451C 6.4 0.855451 3.2 -1.47966 3.8147e-07 1.56614" stroke-width="1.2949" stroke-miterlimit="10" stroke-linecap="round" stroke-linejoin="round" transform="translate(31.1211 21.2246)" stroke="#333333"/>
</g>
</g>
<g id="Vector_8">
<path d="M 1.08491 45.484L 3.58491 44.4687C 8.98491 42.2351 12.5849 37.0573 12.9849 31.1687L 14.3849 16.6504C 14.3849 14.5183 14.0849 12.3863 13.5849 10.4573C 12.6849 7.00535 11.0849 3.85802 8.98491 1.01527C 8.68491 0.60916 8.38491 0.304577 8.18491 0.20305L 47.5849 0L 48.4849 0C 48.2849 0.101527 47.9849 0.304582 47.7849 0.406108C 41.6849 4.97481 38.3849 12.4878 38.3849 20.2038L 38.5849 25.4832L 39.1849 31.0672C 39.4849 37.6664 43.7849 43.3519 50.0849 45.2809C 51.6849 45.8901 51.4849 48.3267 49.6849 48.6313L 39.6849 50.1542C 30.1849 51.5756 20.4849 51.6771 10.9849 50.3573L 1.48491 49.1389C -0.31509 48.6313 -0.515091 46.0931 1.08491 45.484Z" transform="translate(53.2363 40.6602)" fill="#F2785F"/>
</g>
<g id="Vector_9">
<path d="M 1.52588e-06 0.30458C 0.300002 0.507634 0.600001 0.812217 0.800001 1.1168C 2.9 3.95954 4.5 7.2084 5.4 10.5588C 9.3 14.8229 17.6 26.6 30.9 30.5595L 30.2 20.2038C 30.2 12.4878 33.5 4.97481 39.6 0.406105C 39.5 0.304579 39.5 0.101524 39.4 -3.09835e-06L 1.52588e-06 0.30458Z" transform="translate(61.4219 40.3555)" fill="#CC6250"/>
</g>
<g id="Group_11">
<g id="Group_12">
<g id="Group_13">
<g id="Vector_10">
<path d="M 7.9 16.0412C 12.263 16.0412 15.8 12.4503 15.8 8.02061C 15.8 3.59095 12.263 0 7.9 0C 3.53695 0 3.05176e-06 3.59095 3.05176e-06 8.02061C 3.05176e-06 12.4503 3.53695 16.0412 7.9 16.0412Z" transform="translate(114.322 12.2324)" fill="#E06F58"/>
</g>
</g>
<g id="Vector_11">
<path d="M 1.52588e-06 0.855452C 1.52588e-06 0.855452 3.2 -1.47966 6.4 1.56614" stroke-width="1.2949" stroke-miterlimit="10" stroke-linecap="round" stroke-linejoin="round" transform="translate(119.422 21.125)" stroke="#333333"/>
</g>
</g>
<g id="Group_14">
<g id="Vector_12">
<path d="M 41 82.7443L 47.4 82.7443C 70 82.7443 88.4 64.1649 88.4 41.1183L 88.4 27.6153C 88.4 12.3863 76.2 0 61.2 0L 23.6 0C 10.6 0 -7.62939e-07 10.6603 -7.62939e-07 23.9603L -7.62939e-07 41.2198C 0.0999992 64.1649 18.4 82.7443 41 82.7443Z" transform="translate(36.3223 -28.8848)" fill="#FF8B6C"/>
</g>
</g>
</g>
</g>
</g>
</g>
</g>
<g id="Vector_13">
<path d="M 16.6579 0.878448C 16.6579 0.878448 21.0579 11.3357 13.9579 15.9044C 6.8579 20.4731 9.3579 43.3166 6.9579 44.8395C 4.5579 46.3624 3.8579 46.87 2.6579 42.0983C 1.4579 37.3265 -1.2421 15.4983 0.657898 8.79753C 2.5579 2.09677 9.8579 -1.86277 16.6579 0.878448Z" transform="translate(33.7637 -27.123)" fill="#333333"/>
</g>
<g id="Vector_14">
<path d="M 0 1.2985C 0 1.2985 0.9 7.59316 6.5 11.4512C 12.1 15.3092 10.8 44.2443 13 44.5489C 14.3 44.6504 15 45.2596 15 41.097C 15 36.2237 14.2 14.3954 12.1 7.99926C 10.1 1.40003 4.4 -2.05188 0 1.2985Z" transform="translate(110.521 -26.7324)" fill="#333333"/>
</g>
<g id="Group_15">
<g id="Vector_15">
<path d="M 38 0C 38 2.53817 37.5 5.07633 36.6 7.30992C 36 8.73129 35.3 10.1527 34.4 11.371C 30.9 16.2443 25.3 19.2901 19 19.2901C 12.7 19.2901 7.1 16.2443 3.7 11.371C 2.8 10.1527 2 8.73129 1.4 7.30992C 0.5 5.07633 -1.52588e-06 2.53817 -1.52588e-06 0L 38 0Z" transform="translate(69.1211 15.2793)" fill="white"/>
</g>
<g id="Group_16">
<g id="Vector_16">
<path d="M 35.2 -3.09835e-06C 34.6 1.42137 33.9 2.84274 33 4.06107L 2.3 4.06107C 1.4 2.84274 0.6 1.42137 0 -3.09835e-06L 35.2 -3.09835e-06Z" transform="translate(70.5215 22.5879)" fill="#D16452"/>
</g>
</g>
</g>
</g>
<g id="Group_17">
<g id="Group_18">
<g id="Vector_17">
<path d="M 0.254641 3.80945C -0.145359 3.50487 -0.045361 2.89571 0.354639 2.69266C 1.95464 1.67739 5.55464 -0.353143 9.05464 0.0529637C 13.5546 0.560597 7.15464 7.46441 4.85464 6.75373C 3.25464 6.24609 1.25464 4.72319 0.254641 3.80945Z" transform="translate(74.9668 74.5195)" fill="url(#paint0_linear)"/>
</g>
<g id="Vector_18">
<path d="M 0.7 19.3916L 3.05176e-06 -1.54917e-06C 3.05176e-06 -1.54917e-06 0.800002 0.101525 2.1 0.507632C 4.6 1.42137 8.8 3.75649 11.5 10.4573C 15.6 20.4069 0.7 19.3916 0.7 19.3916Z" transform="translate(97.3203 69.6992)" fill="#FF8B6C"/>
</g>
<g id="Group_19">
<g id="Group_20">
<g id="Vector_19">
<path d="M 79.0462 30.0994C 75.8462 30.8101 72.7462 31.5207 69.6462 32.0284C 31.2462 38.9322 4.34617 33.4498 3.14617 33.1452C 2.94617 33.1452 0.746164 31.8253 0.546164 31.8253C 6.64616 25.8353 3.64617 19.1345 0.946165 12.1292C -0.653835 7.96656 -0.553833 1.36732 3.84617 2.68717L 3.94617 2.68717C 4.54617 2.89022 38.1462 8.47419 71.9462 0.453582C 80.5462 -1.57695 89.1462 3.39786 91.0462 11.6215C 93.0462 19.8452 87.6462 28.1704 79.0462 30.0994Z" transform="translate(103.176 75.541)" fill="#FF8B6C"/>
</g>
</g>
</g>
<g id="Group_21">
<g id="Group_22">
<g id="Group_23">
<g id="Vector_20">
<path d="M 55.105 13.102C 55.205 16.8585 53.805 20.3104 51.505 22.8486C 49.205 25.3868 45.905 27.1127 42.205 27.2143C 40.205 27.7219 38.105 28.128 36.105 28.4326C 30.805 29.2448 25.505 29.4478 20.105 29.0417C 18.005 28.8387 16.005 28.6356 13.905 28.3311C 10.205 28.4326 6.80502 27.0112 4.30502 24.6761C 1.80502 22.341 0.105022 18.9906 0.00502245 15.2341C -0.0949776 11.4776 1.30502 8.02571 3.60502 5.48755C 5.90502 2.94938 9.20502 1.22342 12.905 1.12189C 15.005 1.42647 17.005 1.73105 19.105 1.83258C 20.305 1.9341 21.605 2.03563 22.805 2.03563C 24.205 2.03563 25.705 2.03563 27.105 2.03563C 28.505 1.93411 30.005 1.93411 31.405 1.73105C 32.605 1.62953 33.905 1.42647 35.105 1.22342C 37.205 0.918838 39.205 0.512734 41.205 0.00510068C 44.905 -0.096426 48.305 1.32495 50.805 3.66006C 53.405 5.99518 55.005 9.34556 55.105 13.102Z" transform="translate(60.0156 32.4336)" fill="#BEE05F"/>
</g>
<g id="Vector_21">
<path d="M 61.5168 14.4168C 61.7168 18.5794 60.1168 22.4374 57.5168 25.2802C 55.1168 27.8183 51.9168 29.6458 48.3168 30.0519C 46.8168 30.255 45.4168 30.5595 43.9168 30.8641C 42.7168 31.0672 41.5168 31.2702 40.2168 31.4733C 34.3168 32.387 28.4168 32.5901 22.4168 32.184C 21.2168 32.0824 19.9168 31.9809 18.7168 31.7779C 17.2168 31.5748 15.7168 31.3718 14.3168 31.2702C 10.6168 31.0672 7.31681 29.5443 4.81681 27.2092C 2.01681 24.5695 0.216808 20.813 0.016808 16.6504C -0.183192 12.4878 1.41681 8.62977 4.01681 5.78702C 5.61681 4.06107 7.5168 2.74122 9.7168 1.92901C 11.9168 1.1168 14.3168 1.01527 16.7168 1.31985C 18.2168 1.5229 19.8168 1.72596 21.3168 1.82748C 22.7168 1.92901 24.1168 2.03053 25.4168 2.03053C 27.0168 2.03053 28.6168 2.03053 30.2168 2.03053C 31.8168 2.03053 33.4168 1.82748 35.0168 1.72595C 36.4168 1.62442 37.7168 1.42137 39.1168 1.21832C 40.6168 1.01526 42.2168 0.710689 43.7168 0.406108C 46.0168 -0.101525 48.4168 -0.203053 50.7168 0.507634C 53.0168 1.21832 55.0168 2.33512 56.7168 3.95954C 59.5168 6.49771 61.4168 10.2542 61.5168 14.4168Z" transform="translate(56.9043 34.0625)" fill="url(#paint1_linear)"/>
</g>
</g>
<g id="Group_24">
<g id="Vector_22">
<path d="M 17.7047 7.30993L 19.4047 53.3015C 19.4047 53.6061 19.4047 53.9107 19.4047 54.2153C 19.1047 58.4794 15.9047 61.9313 11.8047 62.5405C 11.5047 62.5405 11.2047 62.642 10.9047 62.642C 10.6047 62.642 10.3047 62.642 10.0047 62.642C 5.80471 62.3374 2.40471 59.0886 1.80471 54.926C 1.80471 54.6214 1.70471 54.3168 1.70471 54.0122L 0.00470756 8.02061C -0.0952924 4.87328 1.40471 1.92901 3.80471 0.30458C 5.40471 0.30458 7.00471 0.30458 8.60471 0.30458C 10.2047 0.30458 11.8047 0.101524 13.4047 -3.09835e-06C 13.9047 0.304577 14.5047 0.71069 14.9047 1.1168C 16.6047 2.6397 17.6047 4.87328 17.7047 7.30993Z" transform="translate(78.6152 35.7891)" fill="#0071BC"/>
</g>
<g id="Vector_23">
<path d="M 17.7 -1.54917e-06L 19.6 53.9107C 19.6 54.2153 19.6 54.5199 19.6 54.8244C 19.3 59.0886 16.1 62.5405 12 63.1496C 11.7 63.1496 11.4 63.2511 11.1 63.2511C 10.8 63.2511 10.5 63.2511 10.2 63.2511C 6 62.9466 2.6 59.6977 2 55.5351C 2 55.2305 1.9 54.9259 1.9 54.6214L -7.62939e-07 0.71069C 1.4 0.812217 2.7 0.91374 4.1 0.91374C 5.7 0.91374 7.3 0.91374 8.9 0.91374C 10.5 0.812214 12.1 0.710684 13.7 0.609157C 15 0.406104 16.4 0.203052 17.7 -1.54917e-06Z" transform="translate(78.3203 35.1797)" fill="url(#paint2_linear)"/>
</g>
</g>
</g>
<g id="Group_25">
<g id="Group_26">
<g id="Vector_24">
<path d="M 3.1 1.5229C 3.1 2.43664 2.4 3.14733 1.6 3.14733C 1.1 3.14733 0.699998 2.94428 0.399998 2.6397C 0.199998 2.33512 -3.05176e-06 2.03054 -3.05176e-06 1.62443C -3.05176e-06 0.71069 0.699997 -3.09835e-06 1.5 -3.09835e-06C 1.7 -3.09835e-06 1.9 3.09381e-06 2.1 0.10153C 2.7 0.304583 3.1 0.913737 3.1 1.5229Z" transform="translate(82.2207 48.9883)" fill="#9EB54B"/>
</g>
<g id="Vector_25">
<path d="M 3.1 1.5229C 3.1 2.43664 2.4 3.14733 1.6 3.14733C 1.1 3.14733 0.7 2.94427 0.4 2.63969C 0.2 2.33511 -1.52588e-06 2.03053 -1.52588e-06 1.62443C -1.52588e-06 0.710687 0.699998 1.54917e-06 1.5 1.54917e-06C 1.7 1.54917e-06 1.9 0 2.1 0.101527C 2.7 0.30458 3.1 0.913742 3.1 1.5229Z" transform="translate(90.1211 48.6836)" fill="#9EB54B"/>
</g>
<g id="Vector_26">
<path d="M 3.1 1.5229C 3.1 2.43664 2.4 3.14733 1.6 3.14733C 1.1 3.14733 0.700003 2.94427 0.400003 2.63969C 0.200003 2.33511 1.52588e-06 2.03053 1.52588e-06 1.62443C 1.52588e-06 0.710685 0.700002 0 1.5 0C 1.7 0 1.9 -1.55069e-06 2.1 0.101525C 2.7 0.304579 3.1 0.812214 3.1 1.5229Z" transform="translate(82.4199 53.8613)" fill="#9EB54B"/>
</g>
<g id="Vector_27">
<path d="M 3.1 1.5229C 3.1 2.43664 2.4 3.14733 1.6 3.14733C 1.1 3.14733 0.699997 2.94428 0.399997 2.6397C 0.199997 2.33512 3.05176e-06 2.03054 3.05176e-06 1.62443C 3.05176e-06 0.71069 0.700003 -3.09835e-06 1.5 -3.09835e-06C 1.7 -3.09835e-06 1.9 3.09381e-06 2.1 0.10153C 2.6 0.304583 3.1 0.812211 3.1 1.5229Z" transform="translate(90.3203 53.5566)" fill="#9EB54B"/>
</g>
<g id="Vector_28">
<path d="M 3.1 1.5229C 3.1 2.43664 2.4 3.14733 1.6 3.14733C 1.1 3.14733 0.7 2.94428 0.4 2.6397C 0.2 2.33512 -1.52588e-06 2.03054 -1.52588e-06 1.62443C -1.52588e-06 0.71069 0.699998 -3.09835e-06 1.5 -3.09835e-06C 1.7 -3.09835e-06 1.9 3.09381e-06 2.1 0.10153C 2.6 0.304583 3.1 0.812211 3.1 1.5229Z" transform="translate(82.6211 58.6328)" fill="#9EB54B"/>
</g>
<g id="Vector_29">
<path d="M 3.1 1.5229C 3.1 2.43664 2.4 3.14733 1.6 3.14733C 1.1 3.14733 0.700002 2.94427 0.400002 2.63969C 0.200002 2.33511 0 2.03053 0 1.62443C 0 0.710687 0.7 1.54917e-06 1.5 1.54917e-06C 1.7 1.54917e-06 1.9 0 2.1 0.101527C 2.6 0.30458 3 0.913742 3.1 1.5229Z" transform="translate(90.5215 58.3281)" fill="#9EB54B"/>
</g>
</g>
<g id="Group_27">
<g id="Vector_30">
<path d="M 2.5 1.1168C 2.5 2.03054 1.9 2.74122 0.999997 2.74122C 0.799997 2.74122 0.599998 2.74122 0.399998 2.6397C 0.199998 2.33512 -3.05176e-06 2.03054 -3.05176e-06 1.62443C -3.05176e-06 0.71069 0.699997 -3.09835e-06 1.5 -3.09835e-06C 1.7 -3.09835e-06 1.9 3.09381e-06 2.1 0.10153C 2.3 0.40611 2.5 0.71069 2.5 1.1168Z" transform="translate(82.2207 48.9883)" fill="#819337"/>
</g>
<g id="Vector_31">
<path d="M 2.5 1.11679C 2.5 2.03053 1.9 2.74122 0.999998 2.74122C 0.799998 2.74122 0.6 2.74122 0.4 2.63969C 0.2 2.33511 -1.52588e-06 2.03053 -1.52588e-06 1.62443C -1.52588e-06 0.710687 0.699998 1.54917e-06 1.5 1.54917e-06C 1.7 1.54917e-06 1.9 0 2.1 0.101527C 2.3 0.406107 2.5 0.710687 2.5 1.11679Z" transform="translate(90.1211 48.6836)" fill="#819337"/>
</g>
<g id="Vector_32">
<path d="M 2.5 1.11679C 2.5 2.03053 1.9 2.74122 1 2.74122C 0.800002 2.74122 0.600003 2.74122 0.400003 2.63969C 0.200003 2.33511 1.52588e-06 2.03053 1.52588e-06 1.62443C 1.52588e-06 0.710687 0.700002 1.54917e-06 1.5 1.54917e-06C 1.7 1.54917e-06 1.9 0 2.1 0.101527C 2.3 0.406107 2.5 0.812214 2.5 1.11679Z" transform="translate(82.4199 53.7598)" fill="#819337"/>
</g>
<g id="Vector_33">
<path d="M 2.5 1.1168C 2.5 2.03054 1.9 2.74122 1 2.74122C 0.800003 2.74122 0.599997 2.74122 0.399997 2.6397C 0.199997 2.33512 3.05176e-06 2.03054 3.05176e-06 1.62443C 3.05176e-06 0.71069 0.700003 -3.09835e-06 1.5 -3.09835e-06C 1.7 -3.09835e-06 1.9 3.09381e-06 2.1 0.10153C 2.3 0.304583 2.5 0.71069 2.5 1.1168Z" transform="translate(90.3203 53.5566)" fill="#819337"/>
</g>
<g id="Vector_34">
<path d="M 2.5 1.1168C 2.5 2.03054 1.9 2.74122 0.999998 2.74122C 0.799998 2.74122 0.6 2.74122 0.4 2.6397C 0.2 2.33512 -1.52588e-06 2.03054 -1.52588e-06 1.62443C -1.52588e-06 0.71069 0.699998 -3.09835e-06 1.5 -3.09835e-06C 1.7 -3.09835e-06 1.9 3.09381e-06 2.1 0.10153C 2.3 0.304583 2.4 0.71069 2.5 1.1168Z" transform="translate(82.6211 58.6328)" fill="#819337"/>
</g>
<g id="Vector_35">
<path d="M 2.5 1.11679C 2.5 2.03053 1.9 2.74122 1 2.74122C 0.800002 2.74122 0.600003 2.74122 0.400003 2.63969C 0.200003 2.33511 1.52588e-06 2.03053 1.52588e-06 1.62443C 1.52588e-06 0.710687 0.700002 1.54917e-06 1.5 1.54917e-06C 1.7 1.54917e-06 1.9 0 2.1 0.101527C 2.4 0.30458 2.5 0.710687 2.5 1.11679Z" transform="translate(90.4199 58.3281)" fill="#819337"/>
</g>
</g>
</g>
</g>
<g id="Vector_36">
<path d="M 17.8 0.662916L 17.9 4.31788C 17.5 4.62246 17 4.92704 16.2 5.23162C 12.3 6.55147 1.5 2.99803 -7.62939e-07 1.27208L -7.62939e-07 0.561383C 1.8 -0.758464 17.8 0.662916 17.8 0.662916Z" transform="translate(79.8203 76.3457)" fill="url(#paint3_linear)"/>
</g>
<g id="Vector_37">
<path d="M 36.0541 4.87841C 36.0541 4.87841 10.1541 0.208178 4.55407 0.00512476C -1.04593 -0.197929 -0.845932 5.69063 1.75407 7.112C 4.35407 8.53338 33.0541 17.2647 39.0541 13.8128C 44.9541 10.3608 36.0541 4.87841 36.0541 4.87841Z" transform="translate(73.3672 76.7988)" fill="#FF8B6C"/>
</g>
<g id="Vector_38">
<path d="M 34.2848 4.37078C 34.2848 4.37078 10.2848 0.208183 4.58476 0.00512941C -1.11524 -0.197924 -0.81524 5.69063 1.78476 7.112C 4.38476 8.53337 31.1848 16.6555 37.1848 13.3051C 43.1848 9.85321 34.2848 4.37078 34.2848 4.37078Z" transform="translate(71.2363 83.0957)" fill="#FF8B6C"/>
</g>
<g id="Vector_39">
<path d="M 34.2848 4.37077C 34.2848 4.37077 10.2848 0.208186 4.58476 0.00513251C -1.11524 -0.197921 -0.815241 5.69063 1.78476 7.112C 4.38476 8.53338 31.1848 16.6555 37.1848 13.3051C 43.1848 9.85322 34.2848 4.37077 34.2848 4.37077Z" transform="translate(73.3359 88.9824)" fill="#FF8B6C"/>
</g>
<g id="Vector_40">
<path d="M 31.7227 4.06656C 31.7227 4.06656 9.42271 0.208547 4.22271 0.00549325C -0.977292 -0.19756 -0.77729 5.28488 1.62271 6.60473C 4.02271 7.92458 28.8227 15.4376 34.4227 12.2902C 40.0227 9.1429 31.7227 4.06656 31.7227 4.06656Z" transform="translate(77.998 95.6836)" fill="#FF8B6C"/>
</g>
<g id="Vector_41">
<path d="M 2.6 4.67023C 2.2 8.42671 0.399998 9.94962 0.399998 9.94962L -3.05176e-06 -1.54917e-06C -3.05176e-06 -1.54917e-06 0.800003 0.101525 2.1 0.507632C 2.5 1.5229 2.8 2.94427 2.6 4.67023Z" transform="translate(97.2207 69.6992)" fill="url(#paint4_linear)"/>
</g>
</g>
<g id="Group_28">
<g id="Vector_42">
<path d="M 81.8313 35.3923C 78.3313 36.2045 74.8313 36.9152 71.5313 37.5244C 55.3313 40.4687 15.8313 40.6717 4.23131 40.0626C -2.26869 24.2244 -0.0686891 11.6351 2.83131 4.02057C 14.2313 4.93431 55.2313 4.93431 73.7313 0.467134C 83.2313 -1.76645 92.7313 4.22362 94.9313 13.8687C 97.1313 23.4122 91.3313 33.1587 81.8313 35.3923Z" transform="translate(106.99 72.6836)" fill="#96BF3D"/>
</g>
</g>
</g>
</g>
</g>
</g>
</g>
</g>
</g>
</g>
</g>
</g>
<defs>

<linearGradient id="paint0_linear" x2="1" gradientUnits="userSpaceOnUse" gradientTransform="matrix(-12.0217 11.7692 -11.5922 -12.2053 15.67 4.50471)">
<stop stop-color="#FF8B6C"/>
<stop offset="1" stop-color="#ED6264"/>
</linearGradient>
<linearGradient id="paint1_linear" x2="1" gradientUnits="userSpaceOnUse" gradientTransform="matrix(61.4769 -2.28647 2.25209 62.4155 -1.05083 -13.6083)">
<stop stop-color="#00319C"/>
<stop offset="0.1897" stop-color="#00449C"/>
<stop offset="0.841" stop-color="#00449C"/>
<stop offset="1" stop-color="#00319C"/>
</linearGradient>
<linearGradient id="paint2_linear" x2="1" gradientUnits="userSpaceOnUse" gradientTransform="matrix(2.37689 65.8742 -64.8837 2.41318 41.4635 3.68681)">
<stop stop-color="#00319C"/>
<stop offset="0.1487" stop-color="#00449C"/>
<stop offset="0.3835" stop-color="#0058BC"/>
<stop offset="1" stop-color="#0058BC" stop-opacity="0"/>
</linearGradient>
<linearGradient id="paint3_linear" x2="1" gradientUnits="userSpaceOnUse" gradientTransform="matrix(0.757213 -13.6796 13.4739 0.768773 1.97999 5.67057)">
<stop stop-color="#00319C"/>
<stop offset="0.1487" stop-color="#00449C"/>
<stop offset="0.3835" stop-color="#0058BC"/>
<stop offset="1" stop-color="#0058BC" stop-opacity="0"/>
</linearGradient>
<linearGradient id="paint4_linear" x2="1" gradientUnits="userSpaceOnUse" gradientTransform="matrix(-4.9077 1.02188 -1.00651 -4.98262 2.22836 7.21239)">
<stop stop-color="#FF8B6C"/>
<stop offset="1" stop-color="#ED6264"/>
</linearGradient>

</defs>
</svg>

