<?xml version="1.0" encoding="utf-8"?>
<!-- Generator: Adobe Illustrator 22.0.1, SVG Export Plug-In . SVG Version: 6.00 Build 0)  -->
<svg version="1.1" id="Objects" xmlns="http://www.w3.org/2000/svg" xmlns:xlink="http://www.w3.org/1999/xlink" x="0px" y="0px"
	 viewBox="0 0 134 112" style="enable-background:new 0 0 134 112;" xml:space="preserve">
<style type="text/css">
	.st0{fill:#FFFFFF;}
</style>
<path class="st0" d="M54.9,42.7c0.5,0.6,1.6-0.1,1.2-0.8c-1.4-2.1-2.9-4-4.5-5.8c6.3,0.6,11.9,2.8,15.8,8.3c1.8,2.5,2.9,5.4,3.5,8.4
	c0.3,1.5,0.4,3,0.3,4.5c0,1.1-1.2,4.8-0.7,5.6c-0.3-0.4-0.9,0-0.9,0.5c0,0.1,0,0.2,0,0.2c0,0.3,0.4,0.5,0.7,0.4
	c2.5-0.3,2.5-5.7,2.5-7.6c0.1-4-0.9-8-2.8-11.4c-3.9-6.9-12.2-11.9-20.3-11c-0.6-0.7-1.2-1.3-1.8-2c1.7-0.4,3.4-1.1,5-2
	c0.4,0.2,0.8,0.1,1.2-0.3c0.3-0.3,0.5-0.7,0.7-1c0.6-0.9-0.5-2.3-1.5-1.7c-2.5,1.6-5,2.6-7.9,3.1c-0.8,0.1-1.3,1.3-0.6,1.9
	C48.5,35.2,51.6,38.9,54.9,42.7z"/>
<g>
	<path class="st0" d="M42.7,62.7c0.2-0.3,0.4-0.5,0.6-0.5s0.3,2,0.3,5.9c0,6.1,0.5,10.7,1.4,13.8c0.4,1.3,0.4,1.9-0.1,1.9
		c-0.2,0-0.4-0.1-0.7-0.4c-0.3-0.3-0.6-1.3-1.2-2.9c-0.5-1.7-0.8-2.8-0.8-3.4c0-0.3-0.1-0.6-0.2-0.7c-0.1-0.2-0.3-0.3-0.7-0.3
		S40.6,76,40,76c-0.6,0.1-1.5,0.2-2.6,0.3c-2.6,0.3-4.1,0.7-4.5,1c-0.3,0.3-0.3,0.9,0,1.8c0.4,1,0.5,1.5,0.3,1.8
		c-0.4,0.6-0.8,0.2-1.3-1.3c-0.7-2.1-1.3-5.5-1.8-10.1c-0.1-1.1-0.1-2.3,0-3.6c0.1-1.3,0.3-2,0.5-2c0.2,0,0.3,0.7,0.6,2
		c0.2,1.3,0.4,2.5,0.4,3.4c0,0.8,0.1,2,0.3,3.5s0.4,2.4,0.6,2.6c0.1,0.1,1.6,0,4.7-0.4c3-0.4,4.7-0.6,4.9-0.8c0.2-0.1,0.3-2,0.3-5.6
		C42.3,65,42.4,63,42.7,62.7z"/>
	<path class="st0" d="M51.2,72.8c0.5-0.8,1.5-1.7,3-2.6c1.5-0.9,2.9-1.4,4.2-1.4c0.6,0,1.4,0.1,2.5,0.5c1,0.3,1.7,0.7,2.2,1.1
		c0.4,0.4,0.7,0.6,0.9,0.6c0.2,0,0.6,0.4,1.1,1.1s1,1.5,1.4,2.2c0.5,0.9,0.7,2,0.7,3.2c0,1.6-0.4,2.9-1.1,3.9c-0.7,1-2,2-3.7,2.9
		c-0.8,0.4-1.5,0.6-2,0.8c-0.5,0.1-1.3,0.2-2.3,0.2c-1,0-1.8-0.1-2.3-0.2c-0.5-0.1-1.1-0.4-1.9-0.8c-1.2-0.6-2.1-1.2-2.6-1.7
		c-0.5-0.5-1-1.2-1.6-2.3c-0.6-1.1-0.9-1.9-0.9-2.3c0-0.4,0.3-1.1,0.8-2.3C50.3,74.4,50.8,73.5,51.2,72.8z M62.3,71.7
		c-1-0.5-2.3-0.8-3.9-0.8c-1.5,0-2.7,0.2-3.5,0.7c-1.7,1-2.8,2.1-3.3,3.3c-0.3,0.6-0.4,1.4-0.4,2.3c0,0.9,0.1,1.5,0.3,1.6
		c0.2,0.1,0.3,0.4,0.3,0.7c0,0.4,0.5,1.1,1.4,1.9s1.8,1.3,2.5,1.5c1.2,0.4,2.6,0.4,4.1,0.2c1.5-0.2,2.7-0.6,3.8-1.3
		c0.9-0.6,1.5-1.5,1.8-2.7c0.4-1.3,0.3-2.7-0.2-4.2c-0.3-0.9-0.6-1.5-1-1.9C63.9,72.7,63.2,72.2,62.3,71.7z"/>
	<path class="st0" d="M76.1,70c0.4-0.8,1.1-1.4,2.1-1.7c1-0.3,1.8-0.1,2.5,0.5c0.4,0.5,0.8,1.1,1.1,1.8s0.6,1.5,0.7,2.3
		c0.2,1,0.4,2.1,0.7,3.1c0.3,1.1,0.5,1.6,0.7,1.6s0.4-0.5,0.9-1.4c0.5-0.9,0.7-1.5,0.7-1.8c0-0.2,0.2-0.6,0.6-1.2
		c0.4-0.6,0.6-1,0.6-1.3c0-0.4,0.4-1,1.3-1.9c0.9-0.9,1.6-1.5,2.1-1.7c0.4-0.2,0.7-0.2,1-0.3c0.3,0,0.6,0,0.9,0.1s0.5,0.3,0.8,0.5
		c0.2,0.2,0.4,0.6,0.7,1s0.5,1,0.7,1.6c0.2,0.6,0.4,1.3,0.7,2.2c0.3,0.9,0.5,1.9,0.7,2.9c0.2,1,0.5,2.3,0.8,3.7
		c0.3,1.4,0.4,2.2,0.4,2.5c0,0.3-0.1,0.6-0.4,0.8c-0.4,0.3-0.7,0.4-0.9,0.4c-0.3,0-0.5-0.3-0.7-0.8s-0.3-1.1-0.3-1.8
		c0-0.5-0.2-1.4-0.5-2.9c-0.3-1.5-0.6-2.7-0.7-3.6c-0.3-2.1-0.8-3.5-1.5-4.1c-0.7-0.6-1.5-0.5-2.5,0.5c-0.9,1-1.7,2.3-2.4,4
		c-0.7,1.7-1.2,3.5-1.5,5.4c-0.2,1.2-0.4,2-0.6,2.4c-0.2,0.4-0.6,0.5-1.2,0.5c-0.3-0.1-0.6-0.1-0.7-0.3s-0.2-0.4-0.2-0.8
		c-0.1-1-0.5-3.2-1.4-6.6c-0.8-3.4-1.4-5.2-1.6-5.6c-0.2-0.2-0.4-0.3-0.7-0.3c-0.3,0-0.6,0.1-0.9,0.3c-0.3,0.2-0.6,0.4-0.9,0.7
		c-0.3,0.3-0.5,0.6-0.7,1c-0.2,0.4-0.3,0.7-0.3,1c0,0.4-0.1,0.6-0.3,0.7c-0.3,0.2-0.6,1.7-1.1,4.7c-0.5,3.5-1,5.4-1.5,5.6
		c-0.2,0.1-0.3,0.1-0.5-0.2c-0.2-0.2-0.4-0.9-0.7-2.4c-0.3-1.4-0.5-3-0.7-4.7c-0.2-1.7-0.3-3.3-0.4-4.9c-0.1-1.5,0-2.4,0.3-2.8
		c0.6-0.7,0.9-0.4,1.2,0.9c0.1,0.4,0.1,1,0.2,1.8c0.2,1.9,0.4,2.9,0.7,2.9c0.1,0,0.2-0.1,0.3-0.2c0.1-0.1,0.2-0.4,0.3-0.8
		c0.2-0.4,0.3-0.7,0.5-1L76.1,70z"/>
	<path class="st0" d="M106.4,69.8c1.1-0.5,2-0.7,2.7-0.7c0.8,0,1.6,0.2,2.6,0.6c1.8,0.8,3.1,1.9,3.9,3.4c0.5,1,0.7,1.6,0.6,1.9
		c-0.2,0.3-1.2,0.5-3.1,0.6c-0.3,0-0.6,0.1-1.1,0.1c-2.5,0.1-4.7,0.3-6.5,0.5c-1.8,0.3-2.9,0.5-3.2,0.8c-0.3,0.3-0.3,0.8-0.1,1.5
		c0.2,0.7,0.6,1.5,1.1,2.2c0.4,0.5,1.1,1,2.1,1.4c1,0.4,1.9,0.6,2.7,0.6c0.6,0,1.5-0.2,2.8-0.6c1.3-0.4,2.3-0.8,3.1-1.2
		c0.7-0.4,1.2-0.6,1.5-0.6c0.3,0,0.6,0.1,0.8,0.4c0.2,0.2,0.2,0.4,0.2,0.5c-0.1,0.1-0.2,0.3-0.5,0.6c-0.8,0.6-2.1,1.2-3.7,1.7
		s-3.1,0.8-4.3,0.8c-2,0-3.7-0.7-5.2-2.1c-1.5-1.4-2.2-3-2.2-4.8c0-1.4,0.6-2.8,1.7-4.3C103.4,71.6,104.8,70.5,106.4,69.8z
		 M112.8,72c-0.7-0.7-1.2-1.1-1.5-1.2s-0.9-0.2-1.7-0.2c-2.4,0-4.3,0.9-5.7,2.6c-0.8,1-1.1,1.6-0.8,1.8s1,0.2,2.2,0
		c0.4-0.1,0.6-0.1,0.8-0.1c0.2,0,0.5-0.1,0.9-0.1c0.4,0,0.7-0.1,1.1-0.1c0.3,0,0.7,0,1,0c0.9,0,1.9-0.1,3-0.3c1.1-0.2,1.7-0.4,2-0.7
		C114.2,73.5,113.8,72.9,112.8,72z"/>
</g>
</svg>
