<svg width="48" height="32" viewBox="0 0 48 32" version="1.1" xmlns="http://www.w3.org/2000/svg" xmlns:xlink="http://www.w3.org/1999/xlink">
<g id="Canvas" fill="none">
<g id="if_bank_trasfer_payment_methods_copy_295564">
<g id="Vector">
<path d="M 47.9996 30.4562C 47.9996 31.3089 47.3071 32 46.4526 32L 1.54704 32C 0.692947 32 0 31.3093 0 30.4562L 0 1.54376C 0 0.691098 0.692566 0 1.54704 0L 46.453 0C 47.3071 0 48 0.691098 48 1.54376L 47.9996 30.4562Z" fill="#808080"/>
</g>
<g id="Group">
<g id="Vector_2">
<path fill-rule="evenodd" clip-rule="evenodd" d="M -3.72021e-07 5.86798C 0.414853 3.87262 0.812564 1.96202 1.21751 0.0156929C 2.26665 0.0156929 3.27997 -0.0291631 4.28644 0.0328001C 4.87501 0.0696739 5.33786 0.409901 5.52148 1.03067C 5.755 1.82327 5.38586 2.37219 4.75158 2.86258C 5.371 3.36779 5.61557 3.96651 5.27805 4.71387C 4.94586 5.44717 4.34549 5.82693 3.57673 5.85658C 2.43046 5.90106 1.28189 5.86798 -3.72021e-07 5.86798ZM 1.83732 3.45484C 1.73713 3.93078 1.64761 4.35882 1.53332 4.90356C 2.24227 4.85453 2.86093 4.88532 3.4354 4.73972C 3.68569 4.67586 3.84568 4.25466 4.04606 3.9954C 3.79273 3.8156 3.56035 3.53467 3.28188 3.47803C 2.84798 3.39022 2.38284 3.45484 1.83732 3.45484ZM 2.07237 2.39538C 2.59274 2.39538 3.02245 2.43568 3.43997 2.38474C 3.86054 2.33342 4.27997 2.12776 4.21635 1.63434C 4.1874 1.40929 3.84035 1.04588 3.65559 1.05576C 3.18321 1.08351 2.53065 0.655093 2.25903 1.41386C 2.15617 1.70124 2.14017 2.02018 2.07237 2.39538Z" transform="translate(17.752 8.70508)" fill="white"/>
</g>
<g id="Vector_3">
<path fill-rule="evenodd" clip-rule="evenodd" d="M 3.93292 3.76129C 4.15844 2.69423 4.34816 1.83587 4.51844 0.97447C 4.73139 -0.0929698 4.73406 -0.100953 5.92986 0.104324C 5.76453 0.888557 5.59805 1.67051 5.43729 2.4536C 5.23805 3.42487 5.06663 4.40297 4.83006 5.36549C 4.77711 5.58065 4.52339 5.86462 4.32339 5.90111C 3.96035 5.96764 3.5295 6.05963 3.32645 5.50006C 2.94626 4.45163 2.49598 3.42905 1.94703 2.41331C 1.76189 3.28726 1.57941 4.16234 1.3897 5.03553C 1.1718 6.03606 1.16799 6.03569 5.58031e-07 5.83953C 0.259046 4.56453 0.516949 3.29068 0.777518 2.01796C 0.873518 1.55381 0.971041 1.09003 1.07352 0.628161C 1.13904 0.330509 1.12037 -0.0241639 1.60532 0.0108092C 2.02055 0.0416007 2.43198 -0.0834668 2.6335 0.503093C 2.99274 1.54126 3.44264 2.5475 3.93292 3.76129Z" transform="translate(29.6338 8.66992)" fill="white"/>
</g>
<g id="Vector_4">
<path fill-rule="evenodd" clip-rule="evenodd" d="M 1.92989 2.37948C 1.73408 3.27623 1.53865 4.17261 1.34323 5.06975C 1.13294 6.03645 1.13294 6.03645 -1.16257e-07 5.82509C 0.252188 4.57214 0.503234 3.31919 0.755804 2.06662C 0.845327 1.62452 0.916183 1.17709 1.03771 0.744109C 1.12342 0.437715 1.02399 -0.00819289 1.6118 0.00587238C 2.09636 0.0184171 2.45179 0.0393252 2.64531 0.601936C 2.9954 1.6154 3.43616 2.5973 3.91768 3.78715C 4.14587 2.70982 4.3394 1.84158 4.51235 0.969532C 4.72187 -0.0895448 4.74358 -0.109692 5.90091 0.114211C 5.57443 1.69674 5.2472 3.27928 4.91996 4.86181C 4.88872 5.01615 4.89596 5.19368 4.81825 5.32102C 4.6872 5.53618 4.52796 5.85284 4.33559 5.88933C 3.94778 5.9627 3.50512 6.04633 3.2975 5.45521C 2.93179 4.41476 2.48341 3.40396 2.07008 2.37986C 2.02322 2.38024 1.97598 2.38024 1.92989 2.37948Z" transform="translate(18.6455 17.8926)" fill="white"/>
</g>
<g id="Vector_5">
<path fill-rule="evenodd" clip-rule="evenodd" d="M 5.29177 5.8027C 4.04035 6.05055 3.98511 6.02318 3.59159 5.03253C 3.4994 4.80217 3.40912 4.57028 3.30702 4.3441C 2.94969 3.55264 2.72722 3.42871 1.78703 3.51158C 1.68341 3.97574 1.56913 4.45358 1.47199 4.93408C 1.2518 6.02243 1.25142 6.02585 -2.73203e-07 5.81715C 0.191236 4.8972 0.383235 3.97992 0.573329 3.06188C 0.753137 2.20047 0.948564 1.34287 1.10094 0.477286C 1.16456 0.11273 1.32113 -0.00967505 1.68418 0.000588792C 2.47579 0.0222569 3.26931 -0.000930363 4.0613 0.0085732C 5.07844 0.0211179 5.56834 0.388334 5.73481 1.24099C 5.90395 2.10278 5.46091 2.92198 4.63692 3.26677C 4.49368 3.32684 4.34435 3.36941 4.16873 3.43099C 4.54625 4.22891 4.91425 5.00554 5.29177 5.8027ZM 2.02779 2.64828C 2.68379 2.56769 3.30321 2.57681 3.85178 2.3856C 4.11082 2.29475 4.31158 1.83135 4.37368 1.50519C 4.39387 1.39571 3.91349 1.07031 3.64492 1.04788C 2.27846 0.9346 2.27541 0.958928 2.02932 2.27992C 2.01751 2.34265 2.02779 2.41031 2.02779 2.64828Z" transform="translate(6.94336 17.9062)" fill="white"/>
</g>
<g id="Vector_6">
<path fill-rule="evenodd" clip-rule="evenodd" d="M 4.17939 3.46106C 4.56911 4.28331 4.92339 5.02877 5.28491 5.79057C 4.08911 6.07948 3.98816 6.03082 3.59159 5.05005C 3.4994 4.82045 3.39312 4.5954 3.30817 4.36199C 3.05598 3.67166 2.59769 3.34017 1.7897 3.5196C 1.68646 3.97083 1.56723 4.44639 1.46818 4.92651C 1.25332 5.98406 1.25675 5.9852 -1.20907e-06 5.85253C 0.201521 4.84325 0.398855 3.84006 0.604187 2.83877C 0.755805 2.08874 0.940563 1.34405 1.06856 0.589843C 1.14132 0.159902 1.30818 -0.022188 1.77256 0.00214107C 2.51655 0.0416759 3.26435 0.00746529 4.00987 0.0139277C 5.06701 0.0222908 5.56872 0.389506 5.73443 1.26383C 5.89976 2.12942 5.46281 2.92164 4.62282 3.27897C 4.48225 3.33903 4.34016 3.39453 4.17939 3.46106ZM 1.95541 2.63881C 2.62817 2.57152 3.23159 2.60498 3.75807 2.42175C 4.0453 2.32215 4.34359 1.87054 4.3832 1.54628C 4.44035 1.08669 3.98054 1.03917 3.60645 1.03461C 3.18321 1.03005 2.76112 1.03385 2.3036 1.03385C 2.18932 1.56111 2.08722 2.03362 1.95541 2.63881Z" transform="translate(40.3721 17.9004)" fill="white"/>
</g>
<g id="Vector_7">
<path fill-rule="evenodd" clip-rule="evenodd" d="M -4.18523e-07 5.84297C 0.380949 4.01258 0.741707 2.22402 1.12875 0.441908C 1.23656 -0.0568389 1.34323 -0.0693845 2.50169 0.0925561C 2.36912 0.790117 2.23617 1.48502 2.0636 2.3966C 2.77483 1.72641 3.42016 1.22272 3.93406 0.608029C 4.57482 -0.157198 5.34396 0.0283128 6.33519 0.0515015C 5.37177 0.915565 4.55844 1.6462 3.71235 2.40458C 4.33292 3.54539 4.94358 4.66605 5.56072 5.79887C 4.40377 6.12542 4.17749 6.03038 3.69673 5.09029C 3.40074 4.50943 3.09255 3.93466 2.7676 3.31426C 2.13141 3.75903 1.59885 4.16388 1.48951 4.98765C 1.3497 6.03418 1.25599 6.05395 -4.18523e-07 5.84297Z" transform="translate(35.4287 8.66602)" fill="white"/>
</g>
<g id="Vector_8">
<path fill-rule="evenodd" clip-rule="evenodd" d="M 1.2099 -1.39212e-07C 2.69636 -1.39212e-07 4.11083 -1.39212e-07 5.52224 -1.39212e-07C 5.54967 0.941992 5.51691 0.977727 4.6712 0.980008C 4.24187 0.980768 3.81178 0.980008 3.38245 0.980008C 2.21446 0.980388 2.21446 0.980386 2.07503 2.27097C 3.0415 2.27097 3.99997 2.27097 4.9611 2.27097C 4.91349 3.28253 4.91349 3.28253 4.0133 3.28291C 3.29293 3.28291 2.57293 3.28291 1.80799 3.28291C 1.6918 3.8018 1.58551 4.27698 1.4598 4.83921C 2.60036 4.83921 3.67197 4.83921 4.74168 4.83921C 4.74091 5.85647 4.74091 5.85723 3.82511 5.85761C 2.58703 5.85799 1.34818 5.85761 -8.37047e-07 5.85761C 0.215617 4.81602 0.414472 3.8554 0.613709 2.8944C 0.808755 1.94747 1.00456 1.00015 1.2099 -1.39212e-07Z" transform="translate(34.9062 17.9531)" fill="white"/>
</g>
<g id="Vector_9">
<path fill-rule="evenodd" clip-rule="evenodd" d="M 5.65976 5.82991C 4.50435 6.05191 4.48339 6.04659 4.30854 5.05822C 4.24682 4.70963 4.10092 4.52944 3.72683 4.56784C 3.54816 4.58646 3.36226 4.59369 3.18588 4.56708C 2.37712 4.44429 1.8137 4.68188 1.51047 5.50489C 1.24113 6.23514 0.598471 5.83371 -4.18523e-07 5.92723C 0.114284 5.66607 0.177523 5.48398 0.271236 5.31824C 1.17942 3.70567 2.12417 2.11136 2.99121 0.477125C 3.35197 -0.20447 3.90625 0.0525057 4.40187 0.026656C 4.95082 -0.00223479 4.80529 0.503355 4.85291 0.778578C 5.1451 2.45957 5.39577 4.14778 5.65976 5.82991ZM 3.74168 1.48412C 3.31845 2.26569 2.99236 2.86784 2.65407 3.49203C 3.16912 3.49203 3.5855 3.49203 4.05216 3.49203C 3.95159 2.84161 3.86092 2.24821 3.74168 1.48412Z" transform="translate(23.1914 8.66992)" fill="white"/>
</g>
<g id="Vector_10">
<path fill-rule="evenodd" clip-rule="evenodd" d="M 4.85164 1.76475C 4.3004 1.89551 3.83755 2.03427 3.44022 1.39601C 3.29127 1.15576 2.72365 1.11584 2.34347 1.10406C 2.17623 1.09874 1.8909 1.37206 1.85776 1.55567C 1.82499 1.73091 1.99833 2.03275 2.16861 2.14071C 2.58537 2.40453 3.05394 2.58889 3.50193 2.80406C 4.16936 3.12528 4.59259 3.6149 4.53697 4.39381C 4.48173 5.16816 4.04669 5.71975 3.35184 5.99687C 2.45394 6.35535 1.52823 6.30973 0.653955 5.88435C 0.422718 5.77183 0.163675 5.56807 0.0787231 5.34531C -0.0241332 5.07807 -0.0187998 4.49835 0.0520568 4.48124C 0.421197 4.38431 0.860811 4.14558 1.14881 4.71921C 1.44481 5.30767 2.67794 5.36507 3.1027 4.8534C 3.42917 4.45957 3.22536 4.16725 2.87718 3.96767C 2.44709 3.72058 1.97776 3.54305 1.54004 3.30699C 0.744622 2.87895 0.442528 2.2844 0.578908 1.47774C 0.697383 0.772956 1.26576 0.233154 2.05509 0.072354C 3.49698 -0.220356 4.66726 0.394714 4.88783 1.56175C 4.89468 1.60205 4.87259 1.64728 4.85164 1.76475Z" transform="translate(24.9092 17.7422)" fill="white"/>
</g>
<g id="Vector_11">
<path fill-rule="evenodd" clip-rule="evenodd" d="M 6.62662e-07 5.83738C 0.0704763 5.66936 0.122666 5.50096 0.206856 5.35156C 1.12837 3.72379 2.08379 2.11465 2.96531 0.466351C 3.33178 -0.219806 3.89406 0.0493352 4.38092 0.0649211C 4.52492 0.0702431 4.73253 0.501705 4.77787 0.760962C 5.07386 2.44233 5.33329 4.13016 5.60338 5.81115C 4.52949 6.07421 4.47463 6.0381 4.24797 5.00753C 4.21978 4.87866 4.16149 4.65438 4.10397 4.6502C 3.47769 4.60382 2.84645 4.54984 2.22398 4.59736C 2.03275 4.61219 1.8198 4.90489 1.69332 5.11549C 1.14437 6.0362 1.13218 6.05178 6.62662e-07 5.83738ZM 2.57255 3.50977C 3.10855 3.50977 3.52911 3.50977 4.00873 3.50977C 3.90816 2.85137 3.81559 2.24238 3.69711 1.46422C 3.2834 2.21691 2.95198 2.82019 2.57255 3.50977Z" transform="translate(12.3721 17.8887)" fill="white"/>
</g>
<g id="Vector_12">
<path fill-rule="evenodd" clip-rule="evenodd" d="M 1.19809 -1.34572e-06C 2.6236 -1.34572e-06 3.95044 -1.34572e-06 5.27539 -1.34572e-06C 5.315 0.929447 5.26739 0.98609 4.45254 0.988751C 4.02321 0.989891 3.58778 1.03171 3.16454 0.978867C 2.48988 0.894855 2.13789 1.1313 2.12455 1.82735C 2.12075 1.99879 2.08075 2.16947 2.0457 2.42037C 2.98017 2.42037 3.85216 2.42037 4.72187 2.42037C 4.7413 3.39391 4.71311 3.42584 3.86321 3.42774C 3.20836 3.4285 2.55426 3.42774 1.80875 3.42774C 1.69789 3.93067 1.58475 4.42524 1.48304 4.92284C 1.26513 5.97318 1.20913 6.00929 -1.04631e-06 5.76752C 0.396948 3.85616 0.79428 1.94557 1.19809 -1.34572e-06Z" transform="translate(30.002 17.9453)" fill="white"/>
</g>
<g id="Vector_13">
<path fill-rule="evenodd" clip-rule="evenodd" d="M 0.615614 5.81195C 0.939802 4.226 1.25447 2.68604 1.59161 1.03927C 1.00494 1.03927 0.50171 1.03927 -6.39411e-08 1.03927C 0.000761835 0.00185789 0.000761934 0.00071684 0.897898 0.000336698C 2.15998 -0.000423587 3.42245 0.000336698 4.68034 0.000336698C 4.72377 0.986046 4.69063 1.05865 3.79464 1.00809C 3.14131 0.971981 2.83045 1.13848 2.73674 1.84745C 2.6015 2.87231 2.32379 3.87893 2.1116 4.89391C 1.87846 6.01571 1.86056 6.02939 0.615614 5.81195Z" transform="translate(2.60938 17.9121)" fill="white"/>
</g>
<g id="Vector_14">
<path fill-rule="evenodd" clip-rule="evenodd" d="M 6.69709 0.491477C 4.65977 0.492237 2.62207 0.49984 0.585138 0.480453C 0.38933 0.478552 0.195427 0.311669 -2.32513e-08 0.220815C 0.187808 0.147448 0.374854 0.0102163 0.563043 0.009456C 4.68263 -0.0030887 8.8026 -0.00346781 12.9222 0.0102173C 13.1294 0.0105975 13.3355 0.156952 13.542 0.235641C 13.3424 0.320793 13.1443 0.477792 12.9443 0.478932C 10.862 0.497179 8.77974 0.490337 6.69709 0.491477Z" transform="translate(2.29102 8.82031)" fill="white"/>
</g>
<g id="Vector_15">
<path fill-rule="evenodd" clip-rule="evenodd" d="M 5.78015 0.488439C 4.03883 0.48958 2.29636 0.496423 0.555424 0.478937C 0.369902 0.476656 0.185523 0.333341 1.74385e-07 0.256172C 0.177142 0.17064 0.354283 0.0113607 0.531424 0.0106004C 4.01444 -0.00384501 7.49746 -0.00346528 10.9797 0.0113603C 11.1531 0.0121206 11.3252 0.177484 11.4974 0.265297C 11.3108 0.339424 11.1245 0.475894 10.9367 0.478175C 9.21783 0.494902 7.49899 0.488059 5.78015 0.488439Z" transform="translate(2.29297 11.2637)" fill="white"/>
</g>
<g id="Vector_16">
<path fill-rule="evenodd" clip-rule="evenodd" d="M 4.64682 0.00239873C 6.0251 0.00239873 7.40375 -0.00634459 8.78203 0.0130427C 8.96221 0.0160838 9.13974 0.16586 9.31954 0.247971C 9.13669 0.32704 8.9546 0.473775 8.77174 0.475676C 6.01519 0.490121 3.25788 0.489742 0.50171 0.476437C 0.334093 0.475677 0.167237 0.342626 -1.68572e-07 0.27154C 0.171046 0.182206 0.339807 0.0168435 0.511996 0.0141825C 1.89027 -0.00748565 3.26855 0.00201858 4.64682 0.00239873Z" transform="translate(2.30078 13.8398)" fill="white"/>
</g>
</g>
</g>
</g>
</svg>

