<svg width="32" height="33" viewBox="0 0 32 33" version="1.1" xmlns="http://www.w3.org/2000/svg" xmlns:xlink="http://www.w3.org/1999/xlink">
<title>bank-transfer-logo</title>
<desc>Created using Figma</desc>
<g id="Canvas" transform="translate(-7495 -8822)">
<g id="bank-transfer-logo" style="mix-blend-mode:luminosity">
<g id="Group">
<g id="Layer 1 copy 7">
<g id="Vector">
<use xlink:href="#path0_fill" transform="translate(7495 8822)"/>
</g>
</g>
</g>
</g>
</g>
<defs>
<path id="path0_fill" d="M 9.422 24.87L 12.379 24.87L 12.893 26.519L 14.711 26.519L 11.887 18.507L 9.957 18.507L 7.103 26.52L 8.865 26.52L 9.422 24.87ZM 10.895 20.316L 10.918 20.316L 11.91 23.484L 9.868 23.484L 10.895 20.316ZM 6.617 24.146C 6.617 23.353 6.361 22.572 5.379 22.205C 5.713 22.038 6.361 21.715 6.361 20.564C 6.361 19.738 5.859 18.509 3.894 18.509L -5.96046e-09 18.509L -5.96046e-09 26.523L 3.393 26.523C 5.034 26.523 5.469 26.244 5.926 25.795C 6.349 25.384 6.617 24.779 6.617 24.146ZM 1.608 19.895L 3.528 19.895C 4.286 19.895 4.755 20.095 4.755 20.753C 4.755 21.391 4.232 21.647 3.571 21.647L 1.608 21.647L 1.608 19.895ZM 3.66 25.138L 1.608 25.138L 1.608 22.995L 3.739 22.995C 4.343 22.995 4.944 23.266 4.944 23.966C 4.943 24.779 4.474 25.138 3.66 25.138ZM 27.595 21.79L 31.054 26.519L 28.9 26.519L 26.423 23.004L 25.642 23.808L 25.642 26.519L 23.968 26.519L 23.968 18.507L 25.642 18.507L 25.642 21.765L 28.701 18.507L 30.865 18.507L 27.595 21.79ZM 7.104 30.969C 7.104 30.203 6.92 30.077 6.583 29.929C 6.989 29.792 7.218 29.405 7.218 28.95C 7.218 28.596 7.019 27.791 5.927 27.791L 3.851 27.791L 3.851 31.895L 4.693 31.895L 4.693 30.29L 5.578 30.29C 6.213 30.29 6.248 30.508 6.248 31.066C 6.248 31.488 6.281 31.702 6.338 31.894L 7.287 31.894L 7.287 31.787C 7.104 31.718 7.104 31.568 7.104 30.969ZM 5.695 29.6L 4.692 29.6L 4.692 28.5L 5.76 28.5C 6.262 28.5 6.36 28.818 6.36 29.037C 6.359 29.441 6.143 29.6 5.695 29.6ZM 8.477 11.494C 8.471 11.31 8.465 11.088 8.457 10.832C 8.441 10.572 8.508 10.29 8.535 9.971C 8.568 9.651 8.611 9.304 8.732 8.95C 8.834 8.593 8.923 8.201 9.119 7.836C 9.205 7.648 9.293 7.455 9.385 7.261C 9.481 7.07 9.614 6.897 9.729 6.71C 9.956 6.326 10.25 5.988 10.551 5.65C 10.842 5.297 11.201 5.028 11.528 4.717C 11.887 4.463 12.229 4.169 12.596 3.962C 12.957 3.734 13.313 3.53 13.664 3.362C 14.01 3.175 14.353 3.049 14.666 2.909C 15.15 2.721 15.58 2.575 15.934 2.471C 15.786 2.107 15.659 1.728 15.565 1.324C 15.466 0.908 15.382 0.483 15.374 0C 15.839 0.13 16.228 0.319 16.607 0.517C 16.984 0.717 17.328 0.94 17.65 1.182C 18.3 1.661 18.853 2.214 19.355 2.807C 19.736 3.256 19.769 3.883 19.486 4.362L 19.427 4.46C 18.966 5.231 18.417 5.948 17.753 6.59C 17.425 6.912 17.062 7.213 16.659 7.49C 16.456 7.626 16.243 7.758 16.026 7.885C 15.801 8.008 15.564 8.121 15.303 8.221C 15.285 7.943 15.289 7.679 15.309 7.424C 15.334 7.173 15.366 6.927 15.405 6.684C 15.491 6.205 15.614 5.75 15.772 5.317C 15.788 5.27 15.807 5.226 15.825 5.18C 15.671 5.199 15.511 5.22 15.337 5.245C 15.066 5.303 14.755 5.343 14.446 5.433C 14.128 5.505 13.803 5.606 13.473 5.726C 13.127 5.828 12.817 6.004 12.465 6.145C 12.156 6.336 11.799 6.493 11.506 6.726C 11.199 6.948 10.889 7.172 10.635 7.449C 10.506 7.583 10.356 7.706 10.239 7.849C 10.128 7.996 10.016 8.144 9.907 8.287C 9.665 8.566 9.516 8.889 9.352 9.188C 9.172 9.482 9.063 9.788 8.969 10.075C 8.881 10.362 8.754 10.622 8.717 10.867C 8.67 11.113 8.629 11.326 8.596 11.503C 8.53 11.86 8.491 12.065 8.491 12.065C 8.491 12.065 8.488 11.857 8.477 11.494ZM 0.00100001 27.791L 3.339 27.791L 3.339 28.52L 2.096 28.52L 2.096 31.897L 1.241 31.897L 1.241 28.52L 0.00100001 28.52L 0.00100001 27.791ZM 9.009 27.791L 7.546 31.895L 8.45 31.895L 8.735 31.048L 10.249 31.048L 10.513 31.895L 11.445 31.895L 10 27.791L 9.009 27.791ZM 8.965 30.34L 9.492 28.718L 9.5 28.718L 10.012 30.34L 8.965 30.34ZM 16.544 13.943C 16.203 14.14 15.864 14.278 15.556 14.426C 15.077 14.628 14.654 14.786 14.302 14.901C 14.462 15.26 14.599 15.636 14.706 16.037C 14.813 16.45 14.911 16.872 14.936 17.353C 14.465 17.238 14.071 17.06 13.688 16.874C 13.303 16.686 12.952 16.474 12.624 16.241C 11.962 15.782 11.392 15.245 10.872 14.668C 10.477 14.23 10.425 13.605 10.694 13.117L 10.751 13.019C 11.189 12.234 11.716 11.501 12.36 10.84C 12.678 10.507 13.032 10.196 13.424 9.907C 13.625 9.765 13.83 9.627 14.045 9.494C 14.266 9.364 14.5 9.243 14.758 9.137C 14.783 9.413 14.787 9.678 14.774 9.933C 14.756 10.185 14.733 10.432 14.702 10.676C 14.63 11.157 14.52 11.615 14.376 12.054C 14.36 12.101 14.341 12.145 14.327 12.192C 14.479 12.169 14.64 12.143 14.813 12.112C 15.083 12.047 15.391 11.998 15.696 11.898C 16.012 11.817 16.335 11.707 16.66 11.576C 17.003 11.465 17.308 11.279 17.654 11.128C 17.958 10.927 18.312 10.761 18.595 10.519C 18.896 10.289 19.199 10.054 19.443 9.771C 19.572 9.633 19.716 9.505 19.831 9.36C 19.937 9.208 20.044 9.058 20.148 8.911C 20.382 8.624 20.521 8.298 20.675 7.994C 20.847 7.694 20.946 7.386 21.029 7.096C 21.109 6.806 21.228 6.543 21.258 6.297C 21.297 6.05 21.33 5.835 21.359 5.658C 21.42 5.299 21.449 5.094 21.449 5.094C 21.449 5.094 21.465 5.3 21.484 5.662C 21.494 5.846 21.506 6.069 21.523 6.324C 21.545 6.583 21.49 6.868 21.469 7.187C 21.447 7.507 21.411 7.856 21.303 8.212C 21.211 8.571 21.133 8.966 20.949 9.336C 20.869 9.527 20.785 9.722 20.701 9.919C 20.609 10.113 20.484 10.29 20.374 10.481C 20.158 10.872 19.876 11.217 19.585 11.564C 19.304 11.924 18.953 12.206 18.636 12.525C 18.283 12.79 17.949 13.094 17.589 13.312C 17.24 13.551 16.888 13.766 16.544 13.943ZM 19.947 27.791L 22.867 27.791L 22.867 28.52L 20.805 28.52L 20.805 29.446L 22.611 29.446L 22.611 30.172L 20.805 30.172L 20.805 31.898L 19.947 31.898L 19.947 27.791ZM 14.503 27.791L 15.304 27.791L 15.304 31.895L 14.445 31.895L 12.771 28.968L 12.758 28.968L 12.758 31.895L 11.959 31.895L 11.959 27.791L 12.861 27.791L 14.492 30.648L 14.502 30.648L 14.503 27.791ZM 30.511 30.969C 30.511 30.203 30.325 30.077 29.99 29.929C 30.394 29.792 30.627 29.405 30.627 28.95C 30.627 28.596 30.426 27.791 29.334 27.791L 27.26 27.791L 27.26 31.895L 28.102 31.895L 28.102 30.29L 28.987 30.29C 29.62 30.29 29.657 30.508 29.657 31.066C 29.657 31.488 29.69 31.702 29.748 31.894L 30.694 31.894L 30.694 31.787C 30.511 31.718 30.511 31.568 30.511 30.969ZM 29.105 29.6L 28.101 29.6L 28.101 28.5L 29.167 28.5C 29.671 28.5 29.769 28.818 29.769 29.037C 29.769 29.441 29.552 29.6 29.105 29.6ZM 19.292 30.661C 19.292 31.892 18.033 32.004 17.675 32.004C 16.177 32.004 15.922 31.143 15.922 30.632L 16.742 30.632C 16.748 30.861 16.863 31.295 17.613 31.295C 18.016 31.295 18.469 31.195 18.469 30.766C 18.469 30.444 18.159 30.36 17.726 30.255L 17.287 30.151C 16.623 29.999 15.984 29.848 15.984 28.944C 15.984 28.487 16.229 27.682 17.561 27.682C 18.819 27.682 19.155 28.504 19.161 29.007L 18.341 29.007C 18.318 28.824 18.249 28.391 17.499 28.391C 17.175 28.391 16.784 28.51 16.784 28.881C 16.784 29.201 17.048 29.27 17.22 29.311L 18.218 29.557C 18.777 29.693 19.292 29.924 19.292 30.661ZM 24.283 31.169L 26.558 31.169L 26.558 31.897L 23.443 31.897L 23.443 27.793L 26.462 27.793L 26.462 28.521L 24.283 28.521L 24.283 29.383L 26.283 29.383L 26.283 30.109L 24.283 30.109L 24.283 31.169ZM 17.269 26.523L 15.707 26.523L 15.707 18.51L 17.47 18.51L 20.652 24.089L 20.673 24.089L 20.673 18.51L 22.235 18.51L 22.235 26.524L 20.563 26.524L 17.292 20.811L 17.271 20.811L 17.269 26.523Z"/>
</defs>
</svg>
