<svg width="166" height="134" viewBox="0 0 166 134" version="1.1" xmlns="http://www.w3.org/2000/svg" xmlns:xlink="http://www.w3.org/1999/xlink">
<g id="Canvas" fill="none">
<g id="Group">
<mask id="mask0" mask-type="alpha" maskUnits="userSpaceOnUse" x="0" y="0" width="166" height="134">
<g id="Vector">
<path d="M 133.415 134L 32.4887 134C 14.5142 134 0 119.547 0 101.649L 0 32.3514C 0 14.4529 14.5142 0 32.4887 0L 133.511 0C 151.486 0 166 14.4529 166 32.3514L 166 101.649C 165.904 119.547 151.39 134 133.415 134Z" fill="#96BF3D"/>
</g>
</mask>
<g mask="url(#mask0)">
<g id="Group_2">
<g id="Group_3">
<g id="Vector_2">
<path d="M 133.224 134.008L 31.6856 134.008C 13.6021 134.008 0 120.446 0 102.413L 0 32.5947C 0 14.5615 13.6021 0 31.6856 0L 133.32 0C 151.404 0 165.006 14.5615 165.006 32.5947L 165.006 102.413C 164.909 120.446 148.539 134.008 133.224 134.008Z" transform="translate(0.960938 0)" fill="#F2F2F2"/>
</g>
</g>
<g id="Group_4">
<g id="Group_5">
<g id="Group_6">
<g id="Group_7">
<g id="Group_8">
<g id="Group_9">
<g id="Vector_3">
<path d="M 93.2204 57.4746C 93.2204 63.8393 93.0269 68.2752 93.0269 68.2752L 0.0953678 68.2752C 0.0953678 68.2752 -1.35518 18.226 7.05798 10.8006C 13.6338 4.91813 23.5942 1.63938 27.4623 0.482173C 28.4293 0.192871 29.0096 0.0964354 29.0096 0.0964354L 65.0798 2.94293e-06C 65.0798 2.94293e-06 65.5633 0.096431 66.5303 0.385733C 67.5941 0.675035 69.3347 1.15721 71.2688 1.92868C 72.1391 2.21798 73.1061 2.60372 73.9765 3.08589C 74.0732 3.08589 74.0732 3.08588 74.1699 3.18232C 87.6116 7.71471 96.2181 20.9262 94.8643 35.0055C 94.0907 44.8418 93.2204 54.5816 93.2204 57.4746Z" transform="translate(-1.00586 102.51)" fill="white"/>
</g>
<g id="Vector_4">
<path d="M 16.0325 8.67906C 34.6962 11.4756 41.5621 3.66449 41.272 2.31441C 40.9819 0.964337 39.9182 0.385733 39.8215 0.385733C 38.9511 0.096431 38.3709 2.94293e-06 38.3709 2.94293e-06L 2.20398 0.0964354C 2.20398 0.0964354 1.62377 0.192871 0.656736 0.482173C -0.310294 1.25364 -2.72787 5.88247 16.0325 8.67906Z" transform="translate(25.8008 102.51)" fill="#96BF3D"/>
</g>
<g id="Group_10">
<g id="Group_11">
<g id="Group_12">
<g id="Vector_5">
<path d="M 5.89888 11.7649C 9.15674 11.7649 11.7978 9.13127 11.7978 5.88247C 11.7978 2.63367 9.15674 0 5.89888 0C 2.64102 0 0 2.63367 0 5.88247C 0 9.13127 2.64102 11.7649 5.89888 11.7649Z" transform="translate(8.27734 50.5312)" fill="#FF8B6C"/>
</g>
</g>
<g id="Vector_6">
<path d="M 4.73845 0.646256C 4.73845 0.646256 2.32087 -1.08956 -1.84446e-07 1.12843" stroke-miterlimit="10" stroke-linecap="round" stroke-linejoin="round" transform="translate(10.3066 55.1895)" stroke="#333333"/>
</g>
</g>
<g id="Vector_7">
<path d="M 0.825185 33.4626L 2.66254 32.6911C 6.72407 31.0517 9.43175 27.1944 9.62516 22.9513L 10.6889 12.2471C 10.6889 10.7042 10.4955 9.16123 10.1087 7.71472C 9.43175 5.20744 8.27132 2.89302 6.72407 0.771469C 6.53066 0.482167 6.33725 0.2893 6.14385 0.192866L 35.5416 1.47147e-06L 36.2185 1.47147e-06C 36.0251 0.0964354 35.9284 0.192865 35.735 0.289299C 31.1899 3.66449 28.6756 9.16123 28.6756 14.8508L 28.8691 18.7082L 29.3526 22.8548C 29.546 27.6765 32.8339 31.9196 37.4756 33.2697C 38.7328 33.7519 38.5394 35.4877 37.1855 35.6806L 29.7394 36.7413C 22.6801 37.8021 15.4273 37.8021 8.36802 36.9342L 1.3087 35.9699C -0.238548 35.6806 -0.431954 33.9447 0.825185 33.4626Z" transform="translate(26.791 69.3359)" fill="#F2785F"/>
</g>
<g id="Vector_8">
<path d="M -1.47557e-06 0.289302C 0.193405 0.385736 0.386813 0.675036 0.580219 0.867904C 2.12747 2.98945 3.38461 5.30387 3.96482 7.81115C 6.86591 10.897 13.0549 19.5761 23.0153 22.4691L 22.4351 14.8508C 22.4351 9.16122 24.9494 3.66449 29.4944 0.289302C 29.4944 0.192868 29.3977 0.096431 29.3977 -2.94293e-06L -1.47557e-06 0.289302Z" transform="translate(32.9375 69.1406)" fill="#CC6250"/>
</g>
<g id="Group_13">
<g id="Group_14">
<g id="Group_15">
<g id="Vector_9">
<path d="M 5.89888 11.7649C 9.15674 11.7649 11.7978 9.13127 11.7978 5.88247C 11.7978 2.63367 9.15674 0 5.89888 0C 2.64102 0 0 2.63367 0 5.88247C 0 9.13127 2.64102 11.7649 5.89888 11.7649Z" transform="translate(72.3887 48.5059)" fill="#E06F58"/>
</g>
</g>
<g id="Vector_10">
<path d="M 2.95114e-06 0.646255C 2.95114e-06 0.646255 2.41757 -1.08956 4.73844 1.12842" stroke-miterlimit="10" stroke-linecap="round" stroke-linejoin="round" transform="translate(76.1621 54.9941)" stroke="#333333"/>
</g>
</g>
<g id="Group_16">
<g id="Vector_11">
<path d="M 30.6549 60.657L 35.49 60.657C 52.3163 60.657 66.0481 47.0598 66.0481 30.1838L 66.0481 20.2511C 66.0481 9.06479 56.9581 3.67866e-07 45.7405 3.67866e-07L 17.5999 3.67866e-07C 7.92965 3.67866e-07 -1.84446e-07 7.81115 -1.84446e-07 17.551L -1.84446e-07 30.1838C -1.84446e-07 47.0598 13.7318 60.657 30.6549 60.657Z" transform="translate(14.1758 18.418)" fill="#FF8B6C"/>
</g>
</g>
</g>
</g>
</g>
</g>
</g>
<g id="Vector_12">
<path d="M 3.59441 9.16515C -1.43415 10.0331 -1.04734 15.7227 3.88452 17.4585C 12.3944 20.4479 22.935 23.3409 34.346 24.4017C 42.469 25.1732 49.8184 25.5589 56.2008 25.7518C 70.8997 26.234 74.7678 5.11492 60.6492 0.871829C 60.2624 0.775395 59.8755 0.678961 59.392 0.582527C 46.3371 -2.31049 18.9702 6.36856 3.59441 9.16515Z" transform="translate(18.6055 4.625)" fill="#333333"/>
</g>
<g id="Vector_13">
<path d="M 12.4022 0.653267C 12.4022 0.653267 15.6901 8.36798 10.3714 11.6467C 5.05273 14.9255 6.89009 31.8014 5.14943 32.8622C 3.40878 33.923 2.82856 34.3087 1.95824 30.8371C 1.08791 27.3655 -0.942854 11.3574 0.507691 6.4393C 1.95824 1.52117 7.2769 -1.37185 12.4022 0.653267Z" transform="translate(12.3125 19.6934)" fill="#333333"/>
</g>
<g id="Vector_14">
<path d="M 1.47557e-06 0.928982C 1.47557e-06 0.928982 0.676922 5.55781 4.83515 8.45083C 8.99338 11.3438 8.12305 32.5593 9.767 32.7522C 10.734 32.8486 11.3142 33.2344 11.3142 30.1485C 11.3142 26.5804 10.734 10.5724 9.18679 5.84711C 7.63954 1.02541 3.38461 -1.48187 1.47557e-06 0.928982Z" transform="translate(69.4883 19.9961)" fill="#333333"/>
</g>
<g id="Vector_15">
<path d="M 0 7.35733e-07C 0 7.81115 6.3824 14.1758 14.2153 14.1758C 22.0483 14.1758 28.4307 7.81115 28.4307 7.35733e-07L 0 7.35733e-07Z" transform="translate(38.6406 50.8203)" fill="white"/>
</g>
<g id="Vector_16">
<path d="M 10.4439 5.20743C 10.4439 2.31442 8.12305 -7.35733e-07 5.22196 -7.35733e-07C 2.32087 -7.35733e-07 7.37785e-07 2.31442 7.37785e-07 5.20743" stroke-miterlimit="10" stroke-linecap="round" stroke-linejoin="round" transform="translate(57.6914 32.5957)" stroke="#333333"/>
</g>
<g id="Vector_17">
<path d="M 10.4439 5.20743C 10.4439 2.31442 8.12305 -7.35733e-07 5.22196 -7.35733e-07C 2.32087 -7.35733e-07 -7.37785e-07 2.31442 -7.37785e-07 5.20743" stroke-miterlimit="10" stroke-linecap="round" stroke-linejoin="round" transform="translate(36.0293 32.5957)" stroke="#333333"/>
</g>
</g>
<g id="Group_17">
<g id="Vector_18">
<path d="M 0.0159384 15.1401C 0.0159384 15.1401 -0.854383 5.59317 10.2665 -2.94293e-06" stroke-width="6" stroke-miterlimit="10" stroke-linecap="round" stroke-linejoin="round" transform="translate(150.996 74.9277)" stroke="#D86956"/>
</g>
<g id="Vector_19">
<path d="M 0.35076 23.9156C 0.35076 23.9156 -2.45363 7.13611 7.79689 0" stroke-width="7" stroke-miterlimit="10" stroke-linecap="round" stroke-linejoin="round" transform="translate(150.756 67.0215)" stroke="#ED7962"/>
</g>
<g id="Vector_20">
<path d="M -5.90228e-06 4.00304C 1.16043 2.26722 7.73624 -3.03665 14.1186 2.36365C 20.501 7.76395 19.2439 17.8895 13.8285 24.2542" stroke-width="8" stroke-miterlimit="10" stroke-linecap="round" stroke-linejoin="round" transform="translate(132.346 73.9141)" stroke="#FF8B6C"/>
</g>
<g id="Vector_21">
<path d="M 0.784507 -2.94293e-06C -0.472632 2.98945 -0.375929 6.36464 2.23505 8.96836C 6.00647 12.8257 11.9054 13.5008 16.0636 10.0291" stroke-width="8" stroke-miterlimit="10" stroke-linecap="round" stroke-linejoin="round" transform="translate(128.953 88.4297)" stroke="#FF8B6C"/>
</g>
<g id="Group_18">
<g id="Vector_22">
<path d="M 31.5252 43.5488C 29.7845 42.3915 28.0439 41.3308 26.3999 40.1736C 5.80218 25.8049 1.45055 15.6793 1.06374 14.9079C 0.967033 14.8114 -2.95114e-06 12.5935 -2.95114e-06 12.497C 5.51207 12.5935 7.15603 8.25393 9.09009 3.91441C 10.2505 1.31069 13.2483 -1.58233 14.6988 1.02139C 14.6988 1.02139 14.6988 1.02139 14.6988 1.11782C 14.8923 1.50356 22.8219 15.39 41.7757 27.2514C 46.6108 30.2409 48.2548 36.4126 45.4504 40.945C 42.5493 45.381 36.3603 46.6346 31.5252 43.5488Z" transform="translate(138.922 86.8281)" fill="#FF8B6C"/>
</g>
</g>
<g id="Group_19">
<g id="Group_20">
<g id="Vector_23">
<path d="M 26.1098 38.5736C 24.1758 37.3199 22.2417 36.0663 20.4043 34.8127C 11.7011 28.7373 5.02856 22.3727 2.95114e-06 16.7795C 4.15823 6.75038 10.8307 2.12155 15.5692 0C 20.3076 5.59317 27.6571 12.7293 38.101 19.1904C 43.4196 22.4691 45.0636 29.5088 41.7757 34.8127C 38.4878 40.213 31.4285 41.8523 26.1098 38.5736Z" transform="translate(146.271 95.9512)" fill="#A9FFB7"/>
</g>
</g>
</g>
<g id="Group_21">
<g id="Vector_24">
<path d="M 41.9691 13.5972L 2.95114e-06 2.94293e-06" stroke-width="5" stroke-miterlimit="10" stroke-linecap="round" transform="translate(94.5371 71.6504)" stroke="#495647"/>
</g>
<g id="Vector_25">
<path d="M 5.89888 1.83224L 2.95114e-06 2.94293e-06" stroke-width="5" stroke-miterlimit="10" stroke-linecap="round" transform="translate(94.5371 71.6504)" stroke="white"/>
</g>
</g>
</g>
</g>
</g>
<g id="Group_22">
<g id="Vector_26">
<path d="M 2.38674 8.80245L 2.38674 7.06664C 2.38674 6.77733 2.19334 6.48804 1.90323 6.29517L 0.452682 5.33082C -0.224239 4.84866 -0.127539 3.88432 0.646085 3.59501L 2.29003 3.01641C 2.58014 2.91998 2.87026 2.63068 2.87026 2.34137L 3.35377 0.701996C 3.54718 -0.0694753 4.61091 -0.262342 5.09442 0.412695L 6.15815 1.76277C 6.35156 2.05207 6.64167 2.14851 7.02848 2.14851L 8.76914 2.05207C 9.54276 2.05207 10.123 2.91998 9.63947 3.59501L 8.67244 4.94509C 8.47903 5.23439 8.47902 5.5237 8.57573 5.813L 9.15595 7.35594C 9.44606 8.12741 8.76914 8.89888 7.99551 8.60958L 6.35156 8.12741C 6.06145 8.03097 5.67464 8.12741 5.48123 8.32028L 4.12739 9.38105C 3.35377 10.0561 2.38674 9.67035 2.38674 8.80245Z" transform="translate(92.1484 56.1934)" fill="white"/>
</g>
<g id="Vector_27">
<path d="M 0.557627 1.95638L 2.00817 1.85994C 2.20158 1.85994 2.39498 1.76351 2.49169 1.57065L 3.16861 0.317003C 3.45872 -0.165167 4.03894 -0.0687344 4.32905 0.413435L 4.90926 1.76351C 5.00596 1.95638 5.19937 2.05282 5.39278 2.14925L 6.84332 2.43855C 7.32684 2.53498 7.52025 3.21002 7.13343 3.49933L 6.0697 4.46367C 5.8763 4.5601 5.87629 4.75297 5.87629 5.04227L 6.0697 6.48878C 6.1664 6.97095 5.58619 7.35668 5.10267 7.06738L 3.74883 6.10304C 3.55542 6.00661 3.36202 6.00661 3.16861 6.10304L 1.81477 6.68164C 1.33125 6.87451 0.847738 6.48878 0.944441 6.00661L 1.23455 4.5601C 1.23455 4.36723 1.23455 4.17436 1.04114 3.9815L 0.0741124 2.92072C -0.119294 2.53498 0.0741124 1.95638 0.557627 1.95638Z" transform="translate(79.7617 70.0781)" fill="white"/>
</g>
<g id="Vector_28">
<path d="M 0.134642 3.43853L 0.618156 2.37776C 0.618156 2.37776 0.618156 2.28133 0.618156 2.18489L 0.03794 1.22055C -0.058763 1.12412 0.037937 0.931248 0.231343 0.931248L 1.39178 1.02768C 1.48848 1.02768 1.48848 1.02768 1.48848 0.931248L 2.2621 0.0633416C 2.35881 -0.0330924 2.55222 -0.0330938 2.55222 0.159774L 2.74562 1.22055C 2.74562 1.31699 2.74562 1.31699 2.84232 1.31699L 3.90606 1.70272C 4.00276 1.79916 4.00276 1.89559 3.90606 1.99202L 2.93903 2.57062L 2.84232 2.66706L 2.74562 3.82427C 2.74562 3.9207 2.55222 4.01713 2.45551 3.9207L 1.58519 3.14923C 1.58519 3.14923 1.48848 3.0528 1.48848 3.14923L 0.424746 3.43853C 0.23134 3.6314 0.134642 3.53496 0.134642 3.43853Z" transform="translate(92.5605 81.0371)" fill="white"/>
</g>
</g>
</g>
</g>
</g>
</g>
</svg>

