<svg width="124" height="140" viewBox="0 0 124 140" version="1.1" xmlns="http://www.w3.org/2000/svg" xmlns:xlink="http://www.w3.org/1999/xlink">
<g id="Canvas" fill="none">
<g id="Group">
<g id="Group_2">
<g id="Group_3">
<g id="Vector">
<path d="M 11.6929 7.82695C 9.75008 8.24625 4.61549 4.75208 2.11759 4.61231C 1.28495 4.61231 0.591091 4.05324 0.313545 3.49417C -0.380317 2.23627 0.0360015 0.419301 1.97882 0C 1.97882 0 6.00322 0.139763 8.91744 2.37603C 9.75008 2.9351 10.4439 3.49417 10.999 4.19301C 12.5255 5.87021 13.0806 7.54741 11.6929 7.82695Z" transform="translate(82.5615 130.762)" fill="#FF8B6C"/>
</g>
<g id="Group_4">
<g id="Vector_2">
<path d="M 15.1262 5.19996C 14.7099 4.92043 9.29775 6.17833 10.1304 5.19996C 10.8243 4.22159 13.5997 1.98532 13.1834 1.28649C 13.0446 1.00695 10.6855 3.24322 9.85285 4.22159C 10.6855 3.24322 12.9058 0.58765 12.3508 0.0285819C 11.9344 -0.390719 8.88144 3.94206 8.88144 3.94206C 8.88144 3.94206 9.15898 3.24322 9.43653 2.12509C 9.71407 1.28648 9.5753 0.447884 8.74266 0.308117C 7.91003 0.16835 6.52231 1.28649 7.21617 1.70579C 7.91003 2.26485 8.74267 0.58765 8.60389 2.12509C 8.32635 4.64089 6.79985 4.08182 6.66108 3.80229C 6.5223 3.66252 6.38354 3.24322 7.0774 2.54439C 7.77126 1.84555 6.79985 1.00695 5.82844 2.12509C 5.27335 2.82392 4.85703 3.66252 4.57949 4.64089C 4.30194 5.61926 3.74685 6.45786 3.19176 7.15669L 2.1175e-06 10.6509L 2.77545 12.0485L 6.66108 8.97367C 6.79985 8.8339 6.93862 8.69413 7.21617 8.55436L 7.35494 8.55436C 8.46512 7.71576 9.5753 6.59763 10.4079 6.45786C 11.2406 6.17833 15.6813 5.33973 15.1262 5.19996Z" transform="translate(108.825 69.9316)" fill="#FF8B6C"/>
</g>
<g id="Vector_3">
<path d="M 0.0282973 5.19996C 0.444615 4.92042 5.85674 6.17833 5.02411 5.19996C 4.33025 4.22159 1.55479 1.98532 1.97111 1.28648C 2.10988 1.00695 4.46902 3.24322 5.30165 4.22159C 4.46902 3.24322 2.24866 0.587652 2.80375 0.0285841C 3.22006 -0.390717 6.27306 3.94206 6.27306 3.94206C 6.27306 3.94206 5.99551 3.24322 5.71797 2.12509C 5.44042 1.28649 5.5792 0.447881 6.41183 0.308114C 7.24447 0.168347 8.63219 1.28648 7.93833 1.70578C 7.24447 2.26485 6.41183 0.587652 6.5506 2.12509C 6.82815 4.64089 8.35465 4.08182 8.49342 3.80229C 8.63219 3.66252 8.77097 3.24322 8.0771 2.54439C 7.38324 1.84555 8.35465 1.00695 9.32606 2.12509C 9.88115 2.82392 10.2975 3.66252 10.575 4.64089C 10.8526 5.61926 11.4076 6.45786 11.9627 7.1567L 15.1545 10.6509L 12.3791 12.0485L 8.49342 8.97367C 8.35465 8.8339 8.21587 8.69413 7.93833 8.55437L 7.79956 8.55437C 6.68938 7.71576 5.5792 6.59763 4.74656 6.45786C 3.91393 6.31809 -0.38802 5.47949 0.0282973 5.19996Z" transform="translate(0 71.1914)" fill="#FF8B6C"/>
</g>
<g id="Group_5">
<g id="Group_6">
<g id="Vector_4">
<path d="M -1.05875e-06 6.14975L -1.05875e-06 58.5624L 39.2726 58.5624L 39.4114 -5.33169e-07L -1.05875e-06 6.14975Z" transform="translate(43.4639 14.6152)" fill="#333333"/>
</g>
<g id="Group_7">
<g id="Group_8">
<g id="Group_9">
<g id="Vector_5">
<path d="M 3.46931 6.98835C 5.38536 6.98835 6.93862 5.42395 6.93862 3.49417C 6.93862 1.56439 5.38536 0 3.46931 0C 1.55326 0 -2.1175e-06 1.56439 -2.1175e-06 3.49417C -2.1175e-06 5.42395 1.55326 6.98835 3.46931 6.98835Z" transform="translate(76.4912 24.3984)" fill="#E06F58"/>
</g>
</g>
<g id="Vector_6">
<path d="M -1.05875e-06 0.362496C -1.05875e-06 0.362496 1.38772 -0.615874 2.77545 0.642029" stroke-width="0.25" stroke-miterlimit="10" stroke-linecap="round" stroke-linejoin="round" transform="translate(79.5449 27.1133)" stroke="#333333"/>
</g>
</g>
<g id="Vector_7">
<path d="M 0.693865 1.39767C 1.07707 1.39767 1.38773 1.08479 1.38773 0.698835C 1.38773 0.312879 1.07707 0 0.693865 0C 0.310655 0 2.1175e-06 0.312879 2.1175e-06 0.698835C 2.1175e-06 1.08479 0.310655 1.39767 0.693865 1.39767Z" transform="translate(80.377 30.2676)" fill="#FFC215"/>
</g>
</g>
<g id="Group_10">
<g id="Group_11">
<g id="Group_12">
<g id="Vector_8">
<path d="M 3.46931 6.98835C 5.38536 6.98835 6.93863 5.42395 6.93863 3.49417C 6.93863 1.56439 5.38536 0 3.46931 0C 1.55326 0 0 1.56439 0 3.49417C 0 5.42395 1.55326 6.98835 3.46931 6.98835Z" transform="translate(39.5771 24.3984)" fill="#E06F58"/>
</g>
</g>
<g id="Vector_9">
<path d="M 2.77545 0.362496C 2.77545 0.362496 1.38772 -0.615874 -1.05875e-06 0.642029" stroke-width="0.25" stroke-miterlimit="10" stroke-linecap="round" stroke-linejoin="round" transform="translate(40.6875 27.1133)" stroke="#333333"/>
</g>
</g>
<g id="Vector_10">
<path d="M 0.693862 1.39767C 1.07707 1.39767 1.38772 1.08479 1.38772 0.698835C 1.38772 0.312879 1.07707 0 0.693862 0C 0.310652 0 0 0.312879 0 0.698835C 0 1.08479 0.310652 1.39767 0.693862 1.39767Z" transform="translate(41.5205 30.2676)" fill="#FFC215"/>
</g>
</g>
<g id="Vector_11">
<path d="M 10.2692 20.6855C 15.9407 20.6855 20.5383 16.0549 20.5383 10.3428C 20.5383 4.63061 15.9407 0 10.2692 0C 4.59766 0 2.1175e-06 4.63061 2.1175e-06 10.3428C 2.1175e-06 16.0549 4.59766 20.6855 10.2692 20.6855Z" transform="translate(62.3359 4.27148)" fill="#333333"/>
</g>
<g id="Group_13">
<g id="Group_14">
<g id="Group_15">
<g id="Vector_12">
<path d="M 103.528 17.3311C 102.695 16.772 101.585 16.772 100.752 17.3311L 87.8463 26.5557C 86.7361 27.3943 85.0708 26.975 84.377 25.7171C 83.9606 24.8785 83.6831 24.0399 83.2668 23.3411C 83.2668 23.2013 83.128 23.2013 83.128 23.0615C 80.6301 15.7937 77.5771 8.38602 75.3567 6.28951C 71.6099 2.93511 65.7814 0.978371 63.5611 0.279536C 63.006 0.139769 62.5897 1.06634e-06 62.5897 1.06634e-06L 52.3205 1.06634e-06L 41.7738 1.06634e-06C 41.7738 1.06634e-06 41.4962 0.139769 40.9412 0.279536C 38.8596 0.838604 33.0311 2.79534 29.2843 6.70881C 27.0639 9.08485 24.1497 16.6323 21.6518 24.0399C 21.513 24.1797 21.3742 24.4592 21.2355 24.7388C 20.9579 25.4376 20.5416 26.2762 20.1253 27.1148C 19.5702 28.3727 17.9049 28.792 16.656 27.9534L 3.75012 18.7288C 2.91748 18.1697 1.8073 18.0299 0.974668 18.7288C -0.274284 19.5674 -0.274284 21.3843 0.697124 22.3627L 19.0151 39.6938C 19.9865 40.6722 21.6518 40.5324 22.4844 39.2745L 29.2843 30.609C 30.672 28.9318 33.0311 28.6522 34.6964 29.9101C 34.9739 30.0499 35.1127 30.3294 35.3903 30.4692C 36.3617 31.168 36.778 32.2862 36.9167 33.5441C 37.0555 43.188 37.0555 50.4559 37.1943 52.4126C 37.4718 55.6272 64.3937 54.5091 65.5039 51.7138C 66.3365 49.6173 66.1977 38.5757 66.059 30.0499C 66.059 28.5125 66.8916 27.1148 68.2793 26.416C 68.4181 26.416 68.5569 26.2762 68.5569 26.2762C 70.2222 25.5774 72.0262 26.1364 73.1364 27.5341L 81.1852 38.1564C 82.0178 39.2745 83.6831 39.5541 84.6545 38.5757L 102.972 21.2446C 104.915 19.9867 104.777 18.3095 103.528 17.3311Z" transform="translate(9.73828 60.457)" fill="#96BF3D"/>
</g>
<g id="Vector_13">
<path d="M 21.9261 1.36512C 21.9261 1.36512 17.069 6.5365 9.99162 6.5365C 2.91422 6.5365 0 2.34349 0 0.945818C 0.138773 -0.312084 19.5669 -0.451852 21.9261 1.36512Z" transform="translate(51.373 60.3496)" fill="#F2785F"/>
</g>
<g id="Group_16">
<g id="Vector_14">
<path d="M 21.6884 19.5674L 20.5782 19.1481C 18.2191 18.1697 16.6926 15.9334 16.5538 13.4176L 15.9987 7.26788C 15.9987 6.42928 16.1375 5.45091 16.2762 4.61231C 16.6926 3.21464 17.3864 1.81697 18.2191 0.559069C 18.3578 0.419302 18.4966 0.279533 18.6354 0.139766L 1.70513 -1.06634e-06L 1.28881 -1.06634e-06C 1.42759 -1.06634e-06 1.42759 0.139766 1.56636 0.139766C 4.20304 2.0965 5.59077 5.31115 5.59077 8.52579L 5.45199 10.7621L 5.17444 13.1381C 5.03567 15.9334 3.23163 18.4492 0.456182 19.1481C -0.237681 19.4276 -0.0989106 20.406 0.594952 20.5457L 4.8969 21.2446C 8.92131 21.8036 13.0845 21.9434 17.2477 21.3843L 21.2721 20.8253C 22.2435 20.965 22.3822 19.8469 21.6884 19.5674Z" transform="translate(51.1934 41.0293)" fill="#F2785F"/>
</g>
<g id="Vector_15">
<path d="M 17.069 -5.33169e-07C 16.9302 0.139766 16.7915 0.139768 16.6527 0.419302C 15.6813 1.6772 14.9874 3.07487 14.7099 4.47254C 13.0446 6.28951 9.43653 11.3211 3.74686 12.9983L 4.02441 8.52578C 4.02441 5.17138 2.63668 2.0965 0 0.139767C 0 0.139767 -2.11957e-06 -5.33169e-07 0.13877 -5.33169e-07L 17.069 -5.33169e-07Z" transform="translate(52.7598 41.1719)" fill="#CC6250"/>
</g>
<g id="Group_17">
<g id="Vector_16">
<path d="M 40.244 10.7884C 40.5216 11.3475 40.7991 12.0463 40.7991 12.7452C 40.7991 14.8417 39.1338 16.6586 36.9135 16.6586C 35.6645 16.6586 34.5543 16.0996 33.8605 15.1212C 32.1952 16.0996 30.2524 16.7984 28.1708 16.7984C 27.3382 16.7984 26.3668 16.6586 25.5341 16.5189C 24.0076 17.2177 22.3424 17.4972 20.6771 17.637C 18.4567 19.454 15.6813 20.4323 12.7671 20.4323C 9.5753 20.4323 6.52231 19.1744 4.30195 17.2177C 4.16317 17.2177 4.0244 17.2177 3.88563 17.2177C 1.80404 17.2177 1.05875e-06 15.5405 1.05875e-06 13.3042C 1.05875e-06 12.7452 0.138772 12.1861 0.277544 11.7668C 0.416317 9.94982 3.05299 9.11122 3.05299 7.29425C 3.05299 5.33751 6.10599 7.85331 5.68967 4.35914L 6.24476 4.35914C 7.63249 3.93984 24.7015 -5.14501 39.8277 4.21937C 39.9665 4.77844 40.6603 6.59541 40.6603 7.29425C 40.6603 8.69192 41.493 9.94982 40.244 10.7884Z" transform="translate(41.2422 10.3945)" fill="#333333"/>
</g>
<g id="Vector_17">
<path d="M 19.0118 32.5657C 8.46512 32.5657 5.29375e-07 23.9001 5.29375e-07 13.4176C 5.29375e-07 6.00998 5.96722 2.66584e-07 13.3222 2.66584e-07L 24.8403 2.66584e-07C 32.1952 2.66584e-07 38.1624 6.00998 38.1624 13.4176C 38.1624 23.9001 29.5585 32.5657 19.0118 32.5657Z" transform="translate(42.4912 13.0762)" fill="#FF8B6C"/>
</g>
</g>
</g>
</g>
<g id="Group_18">
<g id="Vector_18" opacity="0.42">
<path d="M 2.77545 5.59068C 4.30829 5.59068 5.5509 4.33916 5.5509 2.79534C 5.5509 1.25151 4.30829 0 2.77545 0C 1.24261 0 -2.1175e-06 1.25151 -2.1175e-06 2.79534C -2.1175e-06 4.33916 1.24261 5.59068 2.77545 5.59068Z" transform="translate(72.3271 27.75)" fill="url(#paint0_radial)"/>
</g>
<g id="Vector_19" opacity="0.42">
<path d="M 2.77545 5.59068C 4.30829 5.59068 5.5509 4.33916 5.5509 2.79534C 5.5509 1.25151 4.30829 0 2.77545 0C 1.24261 0 0 1.25151 0 2.79534C 0 4.33916 1.24261 5.59068 2.77545 5.59068Z" transform="translate(45.1279 27.75)" fill="url(#paint1_radial)"/>
</g>
</g>
</g>
<g id="Vector_20">
<path d="M 20.6987 1.06634e-06C 21.2538 1.06634e-06 21.8088 0.559068 21.6701 1.11814C 20.9762 5.45091 16.3967 8.66555 10.8458 8.66555C 5.29492 8.66555 0.71543 5.31114 0.0215677 1.11814C -0.117205 0.559068 0.437886 1.06634e-06 0.992976 1.06634e-06L 20.6987 1.06634e-06Z" transform="translate(50.6572 33.2031)" fill="white"/>
</g>
</g>
<g id="Group_19">
<g id="Vector_21">
<path d="M 2.1175e-06 2.93511C 2.1175e-06 1.2579 1.24895 0 2.91422 0C 4.57949 0 5.82844 1.2579 5.82844 2.93511" stroke-width="0.25" stroke-miterlimit="10" stroke-linecap="round" stroke-linejoin="round" transform="translate(65.8057 23.1406)" stroke="#333333"/>
</g>
<g id="Vector_22">
<path d="M -1.05875e-06 2.93511C -1.05875e-06 1.2579 1.24895 0 2.91422 0C 4.57949 0 5.82844 1.2579 5.82844 2.93511" stroke-width="0.25" stroke-miterlimit="10" stroke-linecap="round" stroke-linejoin="round" transform="translate(51.79 23.1406)" stroke="#333333"/>
</g>
</g>
<g id="Vector_23">
<path d="M 31.5691 2.16906C 31.5691 2.16906 23.6591 19.2206 0.0677611 15.0276C 0.0677611 15.0276 -0.626103 9.29718 2.42689 7.48021C 5.47989 5.66324 5.47989 1.74976 12.0022 0.352092C 18.5245 -1.04558 31.5691 2.16906 31.5691 2.16906Z" transform="translate(41.8691 11.3281)" fill="#333333"/>
</g>
<g id="Vector_24">
<path d="M 11.101 3.35441C 10.2684 6.42928 7.07664 8.10648 4.02364 7.12811C 0.970648 6.28951 -0.694623 3.07487 0.276784 -5.33169e-07L 11.101 3.35441Z" transform="translate(70.8027 13.2168)" fill="#333333"/>
</g>
<g id="Vector_25">
<path d="M 13.0446 6.56905C 13.0446 10.197 10.1245 13.1381 6.52231 13.1381C 2.92014 13.1381 1.05875e-06 10.197 1.05875e-06 6.56905C 1.05875e-06 2.94106 2.92014 -2.66584e-07 6.52231 -2.66584e-07C 10.1245 -2.66584e-07 13.0446 2.94106 13.0446 6.56905Z" stroke-width="0.25" stroke-miterlimit="10" stroke-linecap="round" stroke-linejoin="round" transform="translate(62.0586 18.5273)" stroke="#333333"/>
</g>
<g id="Vector_26">
<path d="M 13.0446 6.56905C 13.0446 10.197 10.1245 13.1381 6.52231 13.1381C 2.92014 13.1381 -1.05875e-06 10.197 -1.05875e-06 6.56905C -1.05875e-06 2.94106 2.92014 -2.66584e-07 6.52231 -2.66584e-07C 10.1245 -2.66584e-07 13.0446 2.94106 13.0446 6.56905Z" stroke-width="0.25" stroke-miterlimit="10" stroke-linecap="round" stroke-linejoin="round" transform="translate(46.9336 18.5273)" stroke="#333333"/>
</g>
</g>
<g id="Vector_27">
<path d="M 44.682 6.22825C 41.7678 -3.41567 16.2336 0.0785061 6.65835 3.85221C -0.557825 6.64755 -4.58223 22.1617 8.87871 26.3547C 8.87871 26.3547 48.2901 17.6891 44.682 6.22825Z" transform="translate(32.9189 0)" fill="#333333"/>
</g>
</g>
</g>
<g id="Vector_28">
<path d="M 80.603 6.56905C 79.9092 6.00998 78.3827 5.17137 74.0807 4.89184C 64.0891 4.05324 56.5954 -4.26535e-06 56.5954 -4.26535e-06C 41.4692 5.87021 27.7307 0.978371 27.7307 0.978371C 23.0124 6.14975 11.4943 6.00998 8.30255 6.42928C 5.11079 6.98835 3.72306 7.68719 2.75165 8.52579C -0.856433 11.4609 -1.82784 24.599 5.5271 27.2545C 6.22097 27.5341 7.74746 27.5341 9.69028 27.5341C 9.69028 27.5341 22.3186 27.5341 22.8737 27.5341C 27.0368 27.5341 48.1303 27.3943 63.6728 26.6955C 67.6972 26.5557 71.4441 26.2762 74.3583 25.9967C 77.55 25.5774 79.7704 25.2978 80.7418 24.7388C 86.0152 21.8036 84.0723 9.50415 80.603 6.56905Z" transform="translate(19.7578 109.375)" fill="#BBDD5E"/>
</g>
<g id="Vector_29">
<path d="M 12.2795 2.93511C 12.0019 3.77371 11.4469 4.47254 10.3367 4.47254C 7.69999 4.75208 2.98173 8.52578 0.900139 8.24625C -0.765131 8.10648 0.0675056 6.14974 1.87155 4.193C 2.28787 3.63394 2.84296 3.21464 3.39805 2.65557C 5.61841 0.8386 8.6714 0.139763 9.78158 -4.26535e-06C 10.0591 -4.26535e-06 10.1979 -4.26535e-06 10.1979 -4.26535e-06C 12.0019 0.139763 12.557 1.67721 12.2795 2.93511Z" transform="translate(32.1562 131.738)" fill="#FF8B6C"/>
</g>
</g>
<g id="Vector_30">
<path d="M 1.1118 0.419303C -0.13715 0.419303 -0.414694 2.23627 0.695486 2.65557C 4.99743 4.33278 11.7973 6.28952 19.291 6.56905C 20.6787 6.56905 -0.969785 15.0948 0.97303 14.8153C 2.6383 14.5358 38.9967 3.49417 42.466 2.23627C 43.715 1.81697 43.2986 -2.13267e-06 42.0497 -2.13267e-06L 1.1118 0.419303Z" transform="translate(41.1035 116.924)" fill="url(#paint2_linear)"/>
</g>
<g id="Vector_31">
<path d="M 3.74686 0L -2.1175e-06 0L -2.1175e-06 41.2313L 3.74686 41.2313L 3.74686 0Z" transform="translate(77.8789 18.5273)" fill="#333333"/>
</g>
</g>
</g>
</g>
<defs>

<radialGradient id="paint0_radial" cx="0.5" cy="0.5" r="0.5" gradientUnits="userSpaceOnUse" gradientTransform="translate(-3.58172 -8.91266) scale(16.9211 17.0423)">
<stop stop-color="#D4145A" stop-opacity="0"/>
<stop offset="1" stop-color="#D4145A"/>
</radialGradient>
<radialGradient id="paint1_radial" cx="0.5" cy="0.5" r="0.5" gradientUnits="userSpaceOnUse" gradientTransform="translate(-3.63431 -8.91266) scale(16.9211 17.0423)">
<stop stop-color="#D4145A" stop-opacity="0"/>
<stop offset="1" stop-color="#D4145A"/>
</radialGradient>
<linearGradient id="paint2_linear" x2="1" gradientUnits="userSpaceOnUse" gradientTransform="matrix(0 -15.6074 15.4963 0 13.8487 16.0342)">
<stop stop-color="#567319"/>
<stop offset="1" stop-color="#96BF3D" stop-opacity="0"/>
</linearGradient>

</defs>
</svg>

