<svg width="166" height="134" viewBox="0 0 166 134" version="1.1" xmlns="http://www.w3.org/2000/svg" xmlns:xlink="http://www.w3.org/1999/xlink">
<g id="Canvas" fill="none">
<g id="Mask Group">
<mask id="mask0" mask-type="alpha" maskUnits="userSpaceOnUse" x="0" y="0" width="167" height="135">
<g id="Vector">
<path d="M 133.413 134L 32.5872 134C 14.6225 134 -2.65621e-07 119.51 -2.65621e-07 101.708L -2.65621e-07 32.2925C -2.65621e-07 14.4902 14.6225 -4.21149e-06 32.5872 -4.21149e-06L 133.413 -4.21149e-06C 151.378 -4.21149e-06 166 14.4902 166 32.2925L 166 101.708C 165.861 119.51 151.378 134 133.413 134Z" fill="#96BF3D"/>
</g>
</mask>
<g mask="url(#mask0)">
<g id="Group">
<g id="Vector_2">
<path d="M 133.413 134L 32.5872 134C 14.6225 134 -2.65621e-07 119.51 -2.65621e-07 101.708L -2.65621e-07 32.2925C -2.65621e-07 14.4902 14.6225 -4.21149e-06 32.5872 -4.21149e-06L 133.413 -4.21149e-06C 151.378 -4.21149e-06 166 14.4902 166 32.2925L 166 101.708C 165.861 119.51 151.378 134 133.413 134Z" transform="translate(0.00195312 -0.00585938)" fill="#96BF3D"/>
</g>
<g id="Group_2">
<g id="Group_3">
<g id="Group_4">
<g id="Group_5">
<g id="Group_6">
<g id="Vector_3">
<path d="M 4.02486 116.336C 4.02486 129.308 4.44265 138.278 4.44265 138.278L 193.421 138.278C 193.421 138.278 196.345 36.9846 179.355 22.0803C 165.847 10.2122 145.654 3.45004 137.855 1.24201C 135.766 0.690002 134.652 0.41401 134.652 0.41401L 60.9829 0C 60.9829 0 59.8688 0.276004 58.0584 0.69001C 55.8302 1.24202 52.4879 2.34603 48.4494 3.72605C 46.639 4.41606 44.8286 5.10608 42.8789 5.93409C 42.7396 5.93409 42.6004 6.07208 42.4611 6.07208C 15.0265 15.3182 -2.38118 41.9526 0.264794 70.5191C 2.21446 90.8054 3.8856 110.402 4.02486 116.336Z" transform="translate(-11.4062 128.746)" fill="#96BF3D"/>
</g>
<g id="Vector_4">
<path d="M 51.4036 17.5263C 13.3851 23.1843 -0.541048 7.45211 0.0159988 4.69207C 0.573046 2.07003 2.66198 0.828021 2.9405 0.690019C 4.7509 0.13801 5.86499 8.42298e-06 5.86499 8.42298e-06L 79.2559 0.276008C 79.2559 0.276008 80.37 0.552 82.459 1.10401C 84.4086 2.48403 89.4221 11.7302 51.4036 17.5263Z" transform="translate(43.7129 128.887)" fill="#D5E5B1"/>
</g>
<g id="Group_7">
<g id="Group_8">
<g id="Group_9">
<g id="Vector_5">
<path d="M 11.9765 23.7364C 18.591 23.7364 23.953 18.4228 23.953 11.8682C 23.953 5.31356 18.591 0 11.9765 0C 5.36207 0 -4.24993e-06 5.31356 -4.24993e-06 11.8682C -4.24993e-06 18.4228 5.36207 23.7364 11.9765 23.7364Z" transform="translate(139.264 23.8691)" fill="#FF8B6C"/>
</g>
</g>
<g id="Vector_6">
<path d="M 0 1.28273C 0 1.28273 4.87416 -2.16731 9.60906 2.24875" stroke-miterlimit="10" stroke-linecap="round" stroke-linejoin="round" transform="translate(149.428 33.2148)" stroke="#333333"/>
</g>
</g>
<g id="Vector_7">
<path d="M 75.8975 67.759L 71.9981 66.241C 63.7817 62.9289 58.3505 55.2008 57.7934 46.5067L 55.7045 24.9784C 55.7045 21.8043 56.1223 18.7683 56.9579 15.7322C 58.3505 10.6262 60.7179 5.93409 63.9209 1.65602C 64.3387 1.10401 64.7565 0.690006 65.1743 0.414002L 5.43102 2.10574e-06L 4.0384 2.10574e-06C 4.31692 0.138004 4.73471 0.414008 5.01323 0.690012C 14.2045 7.59012 19.2179 18.6303 19.2179 30.0844L 18.9394 37.9506L 18.1038 46.3687C 17.6861 56.1668 11.1408 64.585 1.67095 67.345C -0.835759 68.311 -0.417977 71.8991 2.228 72.3131L 17.4075 74.5211C 31.8907 76.5911 46.5132 76.7291 60.9965 74.7971L 75.4797 72.8651C 77.9864 72.3131 78.4042 68.587 75.8975 67.759Z" transform="translate(48.0449 61.6836)" fill="#F2785F"/>
</g>
<g id="Vector_8">
<path d="M 60.0218 0.414004C 59.604 0.690008 59.1862 1.10402 58.7685 1.65602C 55.5654 5.93409 53.198 10.6262 51.8054 15.7322C 45.9564 22.0803 33.2836 39.6066 13.0906 45.4027L 14.2047 30.0845C 14.2047 18.6303 9.19128 7.59012 2.12497e-06 0.690014C 0.139264 0.41401 0.13926 0.276008 0.278521 4.21149e-06L 60.0218 0.414004Z" transform="translate(53.2012 61.5449)" fill="#CC6250"/>
</g>
<g id="Group_10">
<g id="Group_11">
<g id="Group_12">
<g id="Vector_9">
<path d="M 11.9765 23.7364C 18.591 23.7364 23.953 18.4228 23.953 11.8682C 23.953 5.31356 18.591 -2.10574e-06 11.9765 -2.10574e-06C 5.36207 -2.10574e-06 0 5.31356 0 11.8682C 0 18.4228 5.36207 23.7364 11.9765 23.7364Z" transform="translate(3.76172 26.0762)" fill="#E06F58"/>
</g>
</g>
<g id="Vector_10">
<path d="M 9.60906 1.28274C 9.60906 1.28274 4.7349 -2.16731 2.65621e-07 2.24875" stroke-miterlimit="10" stroke-linecap="round" stroke-linejoin="round" transform="translate(8.49805 35.4219)" stroke="#333333"/>
</g>
</g>
<g id="Group_13">
<g id="Vector_11">
<path d="M 83.9748 122.684L 50.1342 122.684C 22.4211 122.684 -5.31241e-07 100.465 -5.31241e-07 73.0031L -5.31241e-07 40.8486C -5.31241e-07 18.2163 18.5218 2.10574e-06 41.2215 2.10574e-06L 98.4581 2.10574e-06C 118.233 2.10574e-06 134.248 15.8702 134.248 35.4665L 134.248 73.0031C 134.248 100.465 111.688 122.684 83.9748 122.684Z" transform="translate(16.9902 -41.1289)" fill="#FF8B6C"/>
</g>
</g>
</g>
</g>
</g>
</g>
</g>
<g id="Vector_12">
<path d="M 2.03478 1.31883C 2.03478 1.31883 -4.64979 16.9131 6.21263 23.5372C 17.075 30.1613 13.315 64.2478 16.7965 66.4558C 20.2781 68.6638 21.5314 69.4918 23.3418 62.3157C 25.1522 55.1396 29.1908 22.8472 26.4056 13.049C 23.4811 3.25086 12.2009 -2.82123 2.03478 1.31883Z" transform="translate(127.896 -38.5859)" fill="#333333"/>
</g>
<g id="Vector_13">
<path d="M 22.8389 1.84954C 22.8389 1.84954 21.4463 11.2337 12.9513 17.0298C 4.45638 22.8259 6.40604 65.6065 3.06376 66.0205C 1.1141 66.2965 0 67.1245 0 60.7764C 0 53.6003 1.25336 21.1698 4.31711 11.6477C 7.38087 2.12555 16.1544 -2.98053 22.8389 1.84954Z" transform="translate(15.7363 -38.0117)" fill="#333333"/>
</g>
<g id="Vector_14">
<path d="M 57.6544 4.21149e-06C 57.6544 15.8702 44.703 28.5664 28.8272 28.5664C 12.9513 28.5664 -2.12497e-06 15.7322 -2.12497e-06 4.21149e-06L 57.6544 4.21149e-06Z" transform="translate(43.7305 24.2871)" fill="white"/>
</g>
</g>
</g>
</g>
</g>
</g>
</g>
</svg>

