<svg width="80" height="80" viewBox="0 0 80 80" version="1.1" xmlns="http://www.w3.org/2000/svg" xmlns:xlink="http://www.w3.org/1999/xlink">
<title>phone-receiver</title>
<desc>Created using Figma</desc>
<g id="Canvas" transform="translate(-6938 -7397)">
<g id="phone-receiver">
<g id="Vector">
<use xlink:href="#path0_fill" transform="translate(6967.23 7397)" fill="#96BF3D"/>
</g>
<g id="Group">
<g id="Vector">
<use xlink:href="#path1_fill" transform="translate(6981.89 7415.38)" fill="#FFFFFF"/>
</g>
<g id="Vector">
<use xlink:href="#path2_fill" transform="translate(6999.79 7415.38)" fill="#FFFFFF"/>
</g>
<g id="Vector">
<use xlink:href="#path3_fill" transform="translate(6990.84 7415.38)" fill="#FFFFFF"/>
</g>
</g>
<g id="Vector">
<use xlink:href="#path4_fill" transform="translate(6938 7415.24)" fill="#1B4145"/>
</g>
</g>
</g>
<defs>
<path id="path0_fill" d="M 50.7709 20.1608C 50.7709 9.02656 39.4049 0 25.3855 0C 11.365 0 -8.96454e-07 9.02656 -8.96454e-07 20.1608C -8.96454e-07 30.1081 9.07125 38.3723 21.003 40.0214L 20.9669 40.0214C 21.593 43.8673 20.4378 47.9509 17.4995 50.9171C 23.8041 50.9171 29.0084 46.1689 29.7989 40.022L 29.7628 40.022C 41.6961 38.3743 50.7709 30.1095 50.7709 20.1608Z"/>
<path id="path1_fill" d="M 1.77781 3.55562C 2.75967 3.55562 3.55563 2.75967 3.55563 1.77781C 3.55563 0.795953 2.75967 0 1.77781 0C 0.795952 0 0 0.795953 0 1.77781C 0 2.75967 0.795952 3.55562 1.77781 3.55562Z"/>
<path id="path2_fill" d="M 1.77781 3.55562C 2.75967 3.55562 3.55562 2.75967 3.55562 1.77781C 3.55562 0.795953 2.75967 0 1.77781 0C 0.795953 0 0 0.795953 0 1.77781C 0 2.75967 0.795953 3.55562 1.77781 3.55562Z"/>
<path id="path3_fill" d="M 1.77781 3.55562C 2.75967 3.55562 3.55563 2.75967 3.55563 1.77781C 3.55563 0.795953 2.75967 0 1.77781 0C 0.795956 0 0 0.795953 0 1.77781C 0 2.75967 0.795956 3.55562 1.77781 3.55562Z"/>
<path id="path4_fill" d="M 54.6872 46.1001C 50.845 42.2581 46.73 39.0239 46.73 39.0239L 40.7344 45.0195L 16.7441 21.0292L 22.7397 15.0334C 22.7397 15.0334 19.5056 10.9184 15.6634 7.07624C 11.8213 3.23422 7.70626 -4.00543e-07 7.70626 -4.00543e-07C 7.70626 -4.00543e-07 0.522348 6.6089 0.039067 11.8508C -0.607339 18.867 6.81954 31.6234 18.4799 43.2839C 30.1402 54.944 42.8966 62.3709 49.9128 61.7246C 55.1545 61.2412 61.7636 54.0573 61.7636 54.0573C 61.7636 54.0573 58.5294 49.942 54.6872 46.1001Z"/>
</defs>
</svg>
