<svg width="80" height="80" viewBox="0 0 80 80" version="1.1" xmlns="http://www.w3.org/2000/svg" xmlns:xlink="http://www.w3.org/1999/xlink">
<title>mobile-phone</title>
<desc>Created using Figma</desc>
<g id="Canvas" transform="translate(-7358 -7397)">
<g id="mobile-phone">
<g id="Vector">
<use xlink:href="#path0_fill" transform="translate(7358 7397)" fill="#96BF3D"/>
</g>
<g id="Vector">
<use xlink:href="#path1_fill" transform="translate(7373.73 7412.73)" fill="#FFFFFF"/>
</g>
</g>
</g>
<defs>
<path id="path0_fill" d="M 40 0C 17.9086 0 0 17.9086 0 40.0002C 0 48.3606 2.56656 56.1211 6.95266 62.5395L 1.69859 78.3014L 17.4606 73.0475C 23.8791 77.4334 31.6392 80 40 80C 62.0914 80 80 62.0914 80 40.0002C 80 17.9086 62.0914 0 40 0Z"/>
<path id="path1_fill" d="M 42.9813 36.2323C 39.9617 33.2128 36.7273 30.6708 36.7273 30.6708L 32.0151 35.3831L 13.1599 16.5278L 17.8723 11.8156C 17.8723 11.8156 15.3304 8.58125 12.3107 5.56156C 9.29103 2.54203 6.05681 4.00543e-07 6.05681 4.00543e-07C 6.05681 4.00543e-07 0.410402 5.19438 0.0307142 9.31406C -0.477411 14.8286 5.35978 24.8545 14.5242 34.0189C 23.6885 43.1833 33.7143 49.0205 39.2288 48.5122C 43.3487 48.1323 48.5429 42.4863 48.5429 42.4863C 48.5429 42.4863 46.0009 39.2522 42.9813 36.2323Z"/>
</defs>
</svg>
