<svg width="140" height="139" viewBox="0 0 140 139" version="1.1" xmlns="http://www.w3.org/2000/svg" xmlns:xlink="http://www.w3.org/1999/xlink">
<g id="Canvas" fill="none">
<g id="Group">
<g id="Group_2">
<g id="Group_3">
<g id="Vector">
<path d="M 7.29166 18.8056L 3.06884 19.0156C 1.80199 19.1206 0.640713 18.0704 0.640713 16.8102L 0.00728941 2.63271C -0.0982812 1.37249 0.957425 0.217289 2.22427 0.217289L 6.44709 0.00725089C 7.71394 -0.0977676 8.87522 0.952419 8.87522 2.21264L 9.50864 16.3901C 9.50864 17.6504 8.5585 18.7005 7.29166 18.8056Z" transform="translate(26.3252 35.0254)" fill="#EF7F6A"/>
</g>
</g>
<g id="Group_4">
<g id="Group_5">
<g id="Group_6">
<g id="Vector_2">
<path d="M 109.266 42.8475C 103.67 37.9117 95.4358 35.1812 92.1631 34.236C 91.3185 34.026 90.7907 33.921 90.7907 33.921L 60.5975 33.8159C 60.5975 33.8159 60.1752 33.921 59.3307 34.131C 58.3805 34.341 57.0081 34.7611 55.319 35.3912C 54.58 35.7063 53.841 36.0213 52.9964 36.3364C 47.2956 38.2267 38.85 40.8522 33.2547 41.3773C 24.1757 42.2174 19.2138 43.0576 16.3634 33.8159C 13.4075 24.5743 11.6128 8.01227e-07 11.6128 8.01227e-07L 0 0.63011C 0 0.63011 1.37242 38.8568 2.95597 50.0938C 4.01168 57.1301 18.1581 64.4814 28.5041 68.8921C 33.677 71.0975 37.0553 76.2434 37.0553 81.9144C 37.0553 87.2704 37.2664 90.946 37.2664 90.946L 115.072 90.946C 115.072 90.841 116.233 49.0436 109.266 42.8475Z" transform="translate(24.8555 48.0547)" fill="#96BF3D"/>
</g>
<g id="Vector_3">
<path d="M 21.1197 7.35129C 5.4953 9.6617 -0.20551 3.15055 0.00563132 1.99535C 0.216772 0.945165 1.06134 0.420074 1.16691 0.315055C 1.9059 0.105018 2.43376 -3.20491e-06 2.43376 -3.20491e-06L 32.6269 0.105022C 32.6269 0.105022 33.1548 0.210035 33.9994 0.420072C 34.7383 1.1552 36.7442 5.04088 21.1197 7.35129Z" transform="translate(83.0195 81.6602)" fill="#D5E5B1"/>
</g>
<g id="Group_7">
<g id="Group_8">
<g id="Group_9">
<g id="Vector_4">
<path d="M 4.96182 9.87174C 7.70215 9.87174 9.92363 7.66187 9.92363 4.93587C 9.92363 2.20986 7.70215 0 4.96182 0C 2.22148 0 3.22176e-06 2.20986 3.22176e-06 4.93587C 3.22176e-06 7.66187 2.22148 9.87174 4.96182 9.87174Z" transform="translate(122.297 38.3945)" fill="#FF8B6C"/>
</g>
</g>
<g id="Vector_5">
<path d="M 3.22176e-06 0.544747C 3.22176e-06 0.544747 2.00584 -0.925514 4.01168 0.964818" stroke-miterlimit="10" stroke-linecap="round" stroke-linejoin="round" transform="translate(126.52 42.2598)" stroke="#333333"/>
</g>
</g>
<g id="Vector_6">
<path d="M 30.9928 27.9349L 29.4093 27.3048C 26.031 25.9396 23.814 22.789 23.6029 19.1134L 22.7583 10.1868C 22.7583 8.92657 22.9695 7.56133 23.2862 6.40613C 23.814 4.30576 24.8697 2.3104 26.1366 0.630109C 26.3477 0.420072 26.4533 0.210035 26.6644 0.105017L 2.06649 0L 1.53864 0C 1.64421 0.105018 1.85535 0.210036 1.96092 0.315055C 5.76146 3.15055 7.87287 7.77137 7.87287 12.4972L 7.76731 15.7528L 7.45059 19.2184C 7.23945 23.2091 4.60018 26.7797 0.694073 27.9349C -0.361633 28.355 -0.150487 29.8252 0.905219 29.9303L 7.13388 30.8754C 13.0458 31.7156 19.0634 31.8206 25.0809 30.9804L 30.9928 30.2453C 31.943 29.8252 32.0485 28.25 30.9928 27.9349Z" transform="translate(84.9697 54.1465)" fill="#F2785F"/>
</g>
<g id="Vector_7">
<path d="M 24.8091 0.210037C 24.5979 0.315055 24.4924 0.525092 24.2812 0.735129C 22.9088 2.52044 21.9587 4.41078 21.4308 6.51114C 19.0027 9.13661 13.8297 16.3829 5.48967 18.7983L 5.91195 12.4972C 5.91195 7.77137 3.80054 3.15055 -3.22176e-06 0.315054C -3.22176e-06 0.210035 0.105574 0.105018 0.105574 -8.01227e-07L 24.8091 0.210037Z" transform="translate(86.8252 53.9355)" fill="#CC6250"/>
</g>
<g id="Group_10">
<g id="Group_11">
<g id="Group_12">
<g id="Vector_8">
<path d="M 4.96181 9.87174C 7.70215 9.87174 9.92363 7.66187 9.92363 4.93587C 9.92363 2.20986 7.70215 0 4.96181 0C 2.22148 0 0 2.20986 0 4.93587C 0 7.66187 2.22148 9.87174 4.96181 9.87174Z" transform="translate(66.5557 39.3398)" fill="#E06F58"/>
</g>
</g>
<g id="Vector_9">
<path d="M 4.01168 0.544745C 4.01168 0.544745 2.00584 -0.925512 3.22176e-06 0.96482" stroke-miterlimit="10" stroke-linecap="round" stroke-linejoin="round" transform="translate(68.4561 43.207)" stroke="#333333"/>
</g>
</g>
<g id="Group_13">
<g id="Vector_10">
<path d="M 34.6271 50.6189L 20.6918 50.6189C 9.29021 50.6189 -1.61088e-06 41.3773 -1.61088e-06 30.0353L -1.61088e-06 16.908C -1.61088e-06 7.56133 7.60108 0 16.9969 0L 40.5391 0C 48.668 0 55.319 6.51115 55.319 14.7026L 55.319 30.2453C 55.319 41.4823 46.0288 50.6189 34.6271 50.6189Z" transform="translate(71.9395 11.6133)" fill="#FF8B6C"/>
</g>
</g>
</g>
</g>
</g>
</g>
</g>
<g id="Vector_11">
<path d="M 55.1365 7.72718C 59.3593 8.46231 58.937 13.1881 54.9253 14.6584C 47.8521 17.1788 38.9842 19.5943 29.3772 20.4344C 22.6207 21.0645 16.3921 21.3796 11.1135 21.5896C -1.23822 21.9047 -4.40533 4.36659 7.313 0.795965C 7.62971 0.690946 7.94642 0.585928 8.3687 0.48091C 19.4536 -1.93452 42.2568 5.41678 55.1365 7.72718Z" transform="translate(65.3662 0)" fill="#333333"/>
</g>
<g id="Vector_12">
<path d="M 0.839973 0.52735C 0.839973 0.52735 -1.90485 6.93348 2.52911 9.76898C 6.96307 12.6045 5.48508 26.5719 6.8575 27.5171C 8.22992 28.4623 8.86334 28.7773 9.60233 25.8368C 10.3413 22.8963 12.0305 9.55894 10.8692 5.46322C 9.7079 1.3675 5.0628 -1.15295 0.839973 0.52735Z" transform="translate(117.656 12.6621)" fill="#333333"/>
</g>
<g id="Vector_13">
<path d="M 9.39578 0.762689C 9.39578 0.762689 8.76236 4.64837 5.3841 6.95878C 2.00584 9.26919 2.63927 27.1223 1.26685 27.3324C 0.527854 27.4374 -3.22176e-06 27.7524 -3.22176e-06 25.232C -3.22176e-06 22.2915 0.527854 8.84911 1.7947 4.96343C 3.06155 0.867708 6.65094 -1.23266 9.39578 0.762689Z" transform="translate(71.5176 12.8457)" fill="#333333"/>
</g>
<g id="Group_14">
<g id="Vector_14">
<path d="M 5.32389 0.360179C 6.27402 0.99029 6.48516 2.25051 5.85174 3.09066L 3.63476 6.34623C 3.00134 7.2914 1.73449 7.50144 0.889928 6.87132C -0.0602074 6.24121 -0.271348 4.98099 0.362075 4.14085L 2.57906 0.885271C 3.21248 -0.0598949 4.47932 -0.269932 5.32389 0.360179Z" transform="translate(34.417 34.6719)" fill="#EF7F6A"/>
</g>
</g>
<g id="Vector_15">
<path d="M 23.8589 8.01227e-07C 23.8589 6.51115 18.5804 11.8671 11.9295 11.8671C 5.3841 11.8671 0 6.61616 0 8.01227e-07L 23.8589 8.01227e-07Z" transform="translate(82.9189 38.6016)" fill="white"/>
</g>
<g id="Vector_16">
<path d="M -3.22176e-06 4.41078C -3.22176e-06 1.99535 2.00584 8.01227e-07 4.43396 8.01227e-07C 6.86209 8.01227e-07 8.86792 1.99535 8.86792 4.41078" stroke-miterlimit="10" stroke-linecap="round" stroke-linejoin="round" transform="translate(82.0752 23.375)" stroke="#333333"/>
</g>
<g id="Vector_17">
<path d="M 1.61088e-06 4.41078C 1.61088e-06 1.99535 2.00584 8.01227e-07 4.43396 8.01227e-07C 6.86208 8.01227e-07 8.86793 1.99535 8.86793 4.41078" stroke-miterlimit="10" stroke-linecap="round" stroke-linejoin="round" transform="translate(100.232 23.375)" stroke="#333333"/>
</g>
<g id="Group_15">
<g id="Vector_18">
<path d="M 2.517e-08 4.34077C 2.517e-08 4.34077 28.3985 -5.42595 57.3248 4.34077" stroke-width="3" stroke-miterlimit="10" stroke-linecap="round" stroke-linejoin="round" transform="translate(1.73535 38.6738)" stroke="#333333"/>
</g>
<g id="Group_16">
<g id="Vector_19">
<path d="M 3.73565 28.2904L 1.4131 27.8704C 0.462967 27.6603 -0.170456 26.8202 0.0406855 25.875L 4.26351 1.40571C 4.47465 0.460548 5.31921 -0.169565 6.26935 0.0404724L 8.5919 0.460546C 9.54203 0.670583 10.1755 1.51073 9.96432 2.4559L 5.7415 26.9252C 5.53036 27.8704 4.68579 28.5005 3.73565 28.2904Z" transform="translate(45.4004 26.1719)" fill="#8FAF38"/>
</g>
<g id="Vector_20">
<path d="M 3.73566 28.2904L 1.4131 27.8704C 0.462969 27.6603 -0.170454 26.8202 0.0406871 25.875L 4.26351 1.40571C 4.47465 0.460547 5.31921 -0.169565 6.26935 0.0404724L 8.5919 0.460546C 9.54204 0.670583 10.1755 1.51073 9.96432 2.4559L 5.74149 26.9252C 5.53035 27.7653 4.68579 28.3955 3.73566 28.2904Z" transform="translate(51.1016 27.2227)" fill="#96BF3D"/>
</g>
<g id="Vector_21">
<path d="M 3.73566 28.2904L 1.4131 27.8704C 0.462968 27.6603 -0.170455 26.8202 0.0406863 25.875L 4.26351 1.40571C 4.47465 0.460546 5.31921 -0.169564 6.26935 0.0404728L 8.5919 0.460546C 9.54204 0.670583 10.1755 1.51073 9.96432 2.4559L 5.74149 26.9252C 5.53035 27.8704 4.68579 28.5005 3.73566 28.2904Z" transform="translate(39.8047 25.2266)" fill="#96BF3D"/>
</g>
</g>
<g id="Group_17">
<g id="Vector_22">
<path d="M 10.2866 27.4558L 7.964 27.9809C 7.01387 28.1909 6.1693 27.6658 5.95816 26.7207L 0.0462133 2.56641C -0.164928 1.62125 0.362925 0.781101 1.31306 0.571064L 3.63561 0.0459714C 4.58575 -0.164066 5.43031 0.361028 5.64145 1.30619L 11.5534 25.4604C 11.7645 26.3006 11.2367 27.2458 10.2866 27.4558Z" transform="translate(5.5957 26.7969)" fill="#8FAF38"/>
</g>
<g id="Vector_23">
<path d="M 10.2866 27.4558L 7.964 27.9809C 7.01387 28.1909 6.16931 27.6658 5.95817 26.7207L 0.0462135 2.56642C -0.164928 1.62125 0.362925 0.781102 1.31306 0.571065L 3.63561 0.0459722C 4.58575 -0.164065 5.43031 0.361026 5.64145 1.30619L 11.5534 25.4604C 11.7645 26.3006 11.2367 27.2458 10.2866 27.4558Z" transform="translate(11.1904 25.4297)" fill="#96BF3D"/>
</g>
<g id="Vector_24">
<path d="M 10.3921 27.4558L 8.06958 27.9809C 7.11944 28.1909 6.27488 27.6658 6.06373 26.7207L 0.0462131 2.56642C -0.164928 1.62125 0.362925 0.7811 1.31306 0.571063L 3.63561 0.0459706C 4.58575 -0.164066 5.43031 0.361027 5.64145 1.30619L 11.5534 25.4604C 11.8701 26.3006 11.3423 27.2458 10.3921 27.4558Z" transform="translate(0 28.1602)" fill="#96BF3D"/>
</g>
</g>
</g>
<g id="Vector_25">
<path d="M 3.16712 11.237L 10.5571 11.237C 12.3518 11.237 13.7242 9.76672 13.7242 8.08642L 13.7242 3.15056C 13.7242 1.36524 12.2462 -4.00614e-07 10.5571 -4.00614e-07L 3.16712 -4.00614e-07C 1.37242 -4.00614e-07 4.0272e-07 1.47026 4.0272e-07 3.15056L 4.0272e-07 8.08642C 4.0272e-07 9.76672 1.37242 11.237 3.16712 11.237Z" transform="translate(23.9043 33.0352)" fill="#FF8B6C"/>
</g>
</g>
</g>
</g>
</svg>

