<svg width="166" height="134" viewBox="0 0 166 134" version="1.1" xmlns="http://www.w3.org/2000/svg" xmlns:xlink="http://www.w3.org/1999/xlink">
<g id="Canvas" fill="none">
<g id="Mask Group">
<mask id="mask0" mask-type="alpha" maskUnits="userSpaceOnUse" x="0" y="0" width="166" height="134">
<g id="Vector">
<path d="M 133.525 134L 32.4752 134C 14.4954 134 0 119.574 0 101.679L 0 32.3209C 0 14.4265 14.4954 0 32.4752 0L 133.525 0C 151.505 0 166 14.4265 166 32.3209L 166 101.679C 166 119.574 151.505 134 133.525 134Z" fill="#96BF3D"/>
</g>
</mask>
<g mask="url(#mask0)">
<g id="Group 2">
<g id="Vector_2">
<path d="M 133.525 134L 32.4752 134C 14.4954 134 0 119.574 0 101.679L 0 32.3209C 0 14.4265 14.4954 0 32.4752 0L 133.525 0C 151.505 0 166 14.4265 166 32.3209L 166 101.679C 166 119.574 151.505 134 133.525 134Z" fill="#96BF3D"/>
</g>
<g id="Vector_3">
<path d="M 1.06337e-06 11.5135L 1.06337e-06 107.366L 72.7557 107.366L 73.0344 -5.29161e-07L 1.06337e-06 11.5135Z" transform="translate(57.4219 34.5371)" fill="#333333"/>
</g>
<g id="Group">
<g id="Group_2">
<g id="Group_3">
<g id="Vector_4">
<path d="M 6.27204 12.4845C 9.736 12.4845 12.5441 9.68973 12.5441 6.24224C 12.5441 2.79474 9.736 0 6.27204 0C 2.80809 0 4.2535e-06 2.79474 4.2535e-06 6.24224C 4.2535e-06 9.68973 2.80809 12.4845 6.27204 12.4845Z" transform="translate(118.891 52.7109)" fill="#E06F58"/>
</g>
</g>
<g id="Vector_5">
<path d="M -2.12675e-06 0.659297C -2.12675e-06 0.659297 2.50881 -1.14401 5.01763 1.21416" stroke-miterlimit="10" stroke-linecap="round" stroke-linejoin="round" transform="translate(124.188 57.6035)" stroke="#333333"/>
</g>
</g>
<g id="Vector_6">
<path d="M 1.11503 2.21946C 1.73084 2.21946 2.23006 1.72262 2.23006 1.10973C 2.23006 0.496845 1.73084 2.11664e-06 1.11503 2.11664e-06C 0.499214 2.11664e-06 4.2535e-06 0.496845 4.2535e-06 1.10973C 4.2535e-06 1.72262 0.499214 2.21946 1.11503 2.21946Z" transform="translate(125.859 63.6719)" fill="#FFC215"/>
</g>
</g>
<g id="Group_4">
<g id="Group_5">
<g id="Group_6">
<g id="Vector_7">
<path d="M 6.27204 12.4845C 9.73599 12.4845 12.5441 9.68973 12.5441 6.24224C 12.5441 2.79474 9.73599 0 6.27204 0C 2.80809 0 0 2.79474 0 6.24224C 0 9.68973 2.80809 12.4845 6.27204 12.4845Z" transform="translate(50.1758 52.7109)" fill="#E06F58"/>
</g>
</g>
<g id="Vector_8">
<path d="M 5.01763 0.659297C 5.01763 0.659297 2.50881 -1.14401 -2.12675e-06 1.21416" stroke-miterlimit="10" stroke-linecap="round" stroke-linejoin="round" transform="translate(52.4062 57.6035)" stroke="#333333"/>
</g>
</g>
<g id="Vector_9">
<path d="M 1.11503 2.21946C 1.73084 2.21946 2.23006 1.72262 2.23006 1.10973C 2.23006 0.496845 1.73084 2.11664e-06 1.11503 2.11664e-06C 0.499216 2.11664e-06 0 0.496845 0 1.10973C 0 1.72262 0.499216 2.21946 1.11503 2.21946Z" transform="translate(53.9375 63.6719)" fill="#FFC215"/>
</g>
</g>
<g id="Vector_10">
<path d="M 18.9555 37.7309C 29.4243 37.7309 37.911 29.2845 37.911 18.8654C 37.911 8.44634 29.4243 0 18.9555 0C 8.48667 0 2.12675e-06 8.44634 2.12675e-06 18.8654C 2.12675e-06 29.2845 8.48667 37.7309 18.9555 37.7309Z" transform="translate(92.5469 15.6719)" fill="#333333"/>
</g>
<g id="Group_7">
<g id="Group_8">
<g id="Group_9">
<g id="Vector_11">
<path d="M 116.381 43.0021C 113.872 45.6377 111.364 48.2733 108.576 50.6315C 96.3107 61.0352 81.1184 67.971 64.393 70.0518C 62.7204 70.1905 61.0479 70.4679 59.3753 70.4679C 57.5634 70.6066 55.6121 70.6066 53.8002 70.6066C 33.3115 70.6066 14.6348 63.3934 -1.06337e-06 51.4638C 5.01763 36.0663 11.8472 17.3396 16.7254 12.207C 23.6944 4.99379 34.2872 1.52588 38.3291 0.416153C 39.3048 0.138721 39.8623 0 39.8623 0L 59.3753 0.138714L 78.3308 0.138714C 78.3308 0.138714 78.8883 0.277435 80.0034 0.554868C 84.0453 1.80331 94.7775 5.27123 101.746 11.5135C 106.067 15.3975 111.642 29.2692 116.381 43.0021Z" transform="translate(33.1719 118.602)" fill="#96BF3D"/>
</g>
<g id="Vector_12">
<path d="M 40.4332 2.61212C 40.4332 2.61212 29.9798 25.3616 16.8782 25.5003C 3.77656 25.639 -0.265425 4.27671 0.0133322 1.77981C 0.152711 -0.71708 36.2518 -0.717072 40.4332 2.61212Z" transform="translate(72.1836 118.486)" fill="#FFC215"/>
</g>
<g id="Group_10">
<g id="Vector_13">
<path d="M 39.6072 35.7888L 37.6558 34.9565C 33.3351 33.1532 30.4082 29.1304 30.1294 24.5528L 29.0144 13.1781C 29.0144 11.5135 29.2931 9.84886 29.7113 8.32298C 30.4081 5.68737 31.6626 3.19048 33.3351 0.971016C 33.6139 0.693583 33.7532 0.41615 34.032 0.277434L 2.6718 0L 1.9749 0C 2.11428 0.138716 2.39304 0.138717 2.53242 0.277434C 7.41067 3.88406 10.0589 9.71015 10.0589 15.8137L 9.91949 19.9752L 9.50135 24.4141C 9.36198 29.5466 5.87751 33.9855 0.859875 35.5114C -0.394533 36.0662 -0.255153 37.8696 1.13863 38.147L 9.08322 39.2567C 16.6097 40.3665 24.4149 40.3665 31.9413 39.3954L 39.4678 38.4244C 40.7222 38.147 41.0009 36.205 39.6072 35.7888Z" transform="translate(72.3125 83.2285)" fill="#F2785F"/>
</g>
<g id="Vector_14">
<path d="M 31.639 0.138714C 31.3602 0.277431 31.2208 0.554863 30.9421 0.832296C 29.2695 3.05176 28.0151 5.54866 27.3182 8.18427C 24.2519 11.5135 17.5617 20.8074 6.96893 23.8592L 7.52645 15.8137C 7.52645 9.84886 4.87825 3.88406 -2.12675e-06 0.277434C -2.12675e-06 0.138717 0.13938 0 0.13938 0L 31.639 0.138714Z" transform="translate(74.707 83.2285)" fill="#CC6250"/>
</g>
<g id="Group_11">
<g id="Vector_15">
<path d="M 74.707 20.11C 75.2645 21.081 75.6826 22.3295 75.6826 23.5779C 75.6826 27.462 72.4769 30.6524 68.5743 30.6524C 66.2049 30.6524 64.2536 29.5427 62.8598 27.8781C 59.7935 29.6814 56.309 30.7911 52.4064 30.7911C 50.7338 30.7911 49.0613 30.6524 47.5281 30.2363C 44.7406 31.4847 41.6742 32.1783 38.4685 32.1783C 34.4265 35.3688 29.2695 37.3108 23.6944 37.3108C 17.7011 37.3108 12.1259 35.0914 7.94459 31.346C 7.66583 31.346 7.38707 31.346 7.10831 31.346C 3.20571 31.346 1.06337e-06 28.1555 1.06337e-06 24.2715C 1.06337e-06 23.3005 0.139377 22.3295 0.557513 21.4972C 0.83627 18.3067 5.71453 16.6421 5.71453 13.1742C 5.71453 9.42883 11.4291 14.1452 10.5928 7.76423L 11.5684 7.90295C 14.2166 7.20937 45.7162 -9.43659 73.8707 7.76423C 74.2888 8.73525 75.5432 12.2032 75.5432 13.3129C 75.4039 16.2259 76.7977 18.4454 74.707 20.11Z" transform="translate(53.2422 26.6367)" fill="#333333"/>
</g>
<g id="Vector_16">
<path d="M 35.4022 59.7868C 15.8892 59.7868 -1.06337e-06 43.9731 -1.06337e-06 24.5528C -1.06337e-06 11.0973 11.1503 -5.29161e-07 24.67 -5.29161e-07L 46.1343 -5.29161e-07C 59.6541 -5.29161e-07 70.8044 11.0973 70.8044 24.5528C 70.8044 43.9731 54.9152 59.7868 35.4022 59.7868Z" transform="translate(55.4727 31.7637)" fill="#FF8B6C"/>
</g>
</g>
</g>
</g>
<g id="Group_12">
<g id="Vector_17" opacity="0.42">
<path d="M 5.29639 10.5424C 8.2215 10.5424 10.5928 8.18244 10.5928 5.27122C 10.5928 2.36 8.2215 0 5.29639 0C 2.37127 0 2.12675e-06 2.36 2.12675e-06 5.27122C 2.12675e-06 8.18244 2.37127 10.5424 5.29639 10.5424Z" transform="translate(110.666 58.6758)" fill="url(#paint0_radial)"/>
</g>
<g id="Vector_18" opacity="0.42">
<path d="M 5.29639 10.5424C 8.22151 10.5424 10.5928 8.18244 10.5928 5.27122C 10.5928 2.36 8.22151 0 5.29639 0C 2.37127 0 0 2.36 0 5.27122C 0 8.18244 2.37127 10.5424 5.29639 10.5424Z" transform="translate(60.2109 58.6758)" fill="url(#paint1_radial)"/>
</g>
</g>
</g>
<g id="Vector_19">
<path d="M 38.6231 0C 39.7381 0 40.5744 0.971014 40.435 2.08075C 39.0412 9.98758 30.5391 15.9524 20.2251 15.9524C 9.91108 15.9524 1.40898 9.84886 0.0151976 2.08075C -0.124181 0.971014 0.71209 0 1.82712 0L 38.6231 0Z" transform="translate(70.3711 68.6641)" fill="white"/>
</g>
</g>
<g id="Group_13">
<g id="Vector_20">
<path d="M 4.2535e-06 5.40994C 4.2535e-06 2.49689 2.36943 1.05832e-06 5.43576 1.05832e-06C 8.36272 1.05832e-06 10.8715 2.35818 10.8715 5.40994" stroke-miterlimit="10" stroke-linecap="round" stroke-linejoin="round" transform="translate(98.6797 50.2129)" stroke="#333333"/>
</g>
<g id="Vector_21">
<path d="M -1.06337e-06 5.40994C -1.06337e-06 2.49689 2.36944 1.05832e-06 5.43577 1.05832e-06C 8.36272 1.05832e-06 10.8715 2.35818 10.8715 5.40994" stroke-miterlimit="10" stroke-linecap="round" stroke-linejoin="round" transform="translate(72.8945 50.2129)" stroke="#333333"/>
</g>
</g>
<g id="Vector_22">
<path d="M 58.6599 4.00142C 58.6599 4.00142 44.0251 35.2126 0.120817 27.5832C 0.120817 27.5832 -1.13359 17.1795 4.44155 13.7116C 10.0167 10.2437 10.0167 3.30784 22.282 0.672231C 34.408 -1.96338 58.6599 4.00142 58.6599 4.00142Z" transform="translate(54.2363 28.7344)" fill="#333333"/>
</g>
<g id="Vector_23">
<path d="M 20.387 5.9648C 18.7144 11.5135 12.8605 14.5652 7.42476 12.9006C 1.84961 11.236 -1.21672 5.40994 0.455821 1.05832e-06L 20.387 5.9648Z" transform="translate(108.258 32.1797)" fill="#333333"/>
</g>
<g id="Vector_24">
<path d="M 24.2519 12.0683C 24.2519 18.7335 18.8229 24.1366 12.1259 24.1366C 5.42897 24.1366 0 18.7335 0 12.0683C 0 5.40317 5.42897 1.05832e-06 12.1259 1.05832e-06C 18.8229 1.05832e-06 24.2519 5.40317 24.2519 12.0683Z" stroke-miterlimit="10" stroke-linecap="round" stroke-linejoin="round" transform="translate(91.9883 41.8906)" stroke="#333333"/>
</g>
<g id="Vector_25">
<path d="M 24.2519 12.0683C 24.2519 18.7335 18.8229 24.1366 12.1259 24.1366C 5.42897 24.1366 1.06337e-06 18.7335 1.06337e-06 12.0683C 1.06337e-06 5.40317 5.42897 1.05832e-06 12.1259 1.05832e-06C 18.8229 1.05832e-06 24.2519 5.40317 24.2519 12.0683Z" stroke-miterlimit="10" stroke-linecap="round" stroke-linejoin="round" transform="translate(63.6953 41.8906)" stroke="#333333"/>
</g>
<g id="Vector_26">
<path d="M 3.62384 65.4741L 2.36943 65.4741C 0.975646 65.4741 0 64.3644 0 63.1159L 0 2.35818C 0 0.971016 1.11503 0 2.36943 0L 3.62384 0C 5.01763 0 5.99329 1.10973 5.99329 2.35818L 5.99329 62.9772C 5.99329 64.3644 4.87825 65.4741 3.62384 65.4741Z" transform="translate(121.258 40.9199)" fill="#333333"/>
</g>
<g id="Group_14">
<g id="Vector_27">
<path d="M 82.8876 11.389C 77.4519 -6.22793 30.0631 0.153019 12.362 6.95012C -1.01834 12.0826 -8.54479 40.3808 16.5434 48.2876C 16.5434 48.2876 89.4384 32.1965 82.8876 11.389Z" transform="translate(37.8125 8.0293)" fill="#333333"/>
</g>
<g id="Vector_28">
<path d="M 11.5631 1.58347L 11.5631 3.94165C 11.5631 4.49652 11.8418 4.91267 12.26 5.32881L 14.2113 6.71598C 15.3263 7.40956 15.0475 9.21287 13.7931 9.62902L 11.5631 10.3226C 11.0056 10.4613 10.7268 10.8775 10.448 11.4323L 9.75114 13.6518C 9.33301 14.9002 7.66047 15.1777 6.82419 14.2067L 5.43041 12.2646C 5.15165 11.8485 4.59414 11.571 4.03662 11.571L 1.66718 11.571C 0.27339 11.571 -0.423503 10.0452 0.27339 9.07416L 1.66718 7.13213C 1.94593 6.71598 2.08532 6.16111 1.94594 5.60625L 1.10967 3.38679C 0.691535 2.13834 1.80656 0.88989 3.20035 1.30604L 5.43041 1.99962C 5.98792 2.13834 6.54543 1.99962 6.96357 1.72219L 8.7755 0.335025C 10.0299 -0.497273 11.5631 0.335026 11.5631 1.58347Z" transform="translate(113.598 11.0352)" fill="#FFC215"/>
</g>
</g>
<g id="Group_15">
<g id="Vector_29">
<path d="M 3.44002 12.662L 3.44002 10.1651C 3.44002 9.74893 3.16127 9.33278 2.74313 9.05534L 0.65245 7.66818C -0.323201 6.9746 -0.183824 5.58743 0.931206 5.17128L 3.30064 4.33899C 3.71878 4.20027 4.13692 3.78412 4.13692 3.36797L 4.83381 1.00979C 5.11257 -0.0999395 6.64573 -0.377371 7.34263 0.593643L 8.87579 2.53567C 9.15455 2.95182 9.57268 3.09054 10.1302 3.09054L 12.639 2.95182C 13.754 2.95182 14.5903 4.20027 13.8934 5.17128L 12.4996 7.11331C 12.2209 7.52946 12.2209 7.94561 12.3603 8.36176L 13.1965 10.5812C 13.6147 11.691 12.639 12.8007 11.524 12.3845L 8.87579 11.9684C 8.45765 11.8297 7.90014 11.9684 7.62138 12.2458L 5.67008 13.7717C 4.83381 14.4653 3.44002 13.7717 3.44002 12.662Z" transform="translate(35.8633 76.8105)" fill="white"/>
</g>
<g id="Vector_30">
<path d="M 0.940805 2.81417L 3.03149 2.67546C 3.31024 2.67546 3.589 2.53674 3.72838 2.25931L 4.70403 0.455998C 5.12217 -0.237584 5.95844 -0.0988696 6.37657 0.594712L 7.21285 2.53674C 7.35222 2.81418 7.63098 2.95289 7.90974 3.09161L 10.0004 3.50775C 10.6973 3.64647 10.9761 4.61749 10.4186 5.03364L 8.88539 6.42079C 8.60663 6.55951 8.60663 6.83695 8.60663 7.2531L 8.88539 9.33385C 9.02477 10.0274 8.1885 10.5823 7.4916 10.1661L 5.40092 8.91769C 5.12217 8.77898 4.84341 8.77898 4.56465 8.91769L 2.61335 9.74999C 1.91646 10.0274 1.21956 9.47256 1.35894 8.77898L 1.77708 6.69823C 1.77708 6.4208 1.77708 6.14336 1.49832 5.86593L 0.104534 4.34005C -0.174223 3.78519 0.104533 2.81417 0.940805 2.81417Z" transform="translate(16.3398 82.6348)" fill="white"/>
</g>
<g id="Vector_31">
<path d="M 0.194059 4.94619L 0.890952 3.4203C 0.890952 3.4203 0.890952 3.28159 0.890952 3.14288L 0.0546795 1.75571C -0.0846992 1.617 0.0546779 1.33956 0.333435 1.33956L 2.00598 1.47828C 2.14536 1.47828 2.14536 1.47828 2.14536 1.33956L 3.26039 0.0911207C 3.39977 -0.0475957 3.67853 -0.0475978 3.67853 0.229835L 3.95728 1.75571C 3.95728 1.89443 3.95728 1.89443 4.09666 1.89443L 5.62983 2.44929C 5.76921 2.58801 5.76921 2.72673 5.62983 2.86545L 4.23604 3.69774L 4.09666 3.83646L 3.95728 5.50105C 3.95728 5.63977 3.67852 5.77849 3.53915 5.63978L 2.28474 4.53004C 2.28474 4.53004 2.14536 4.39132 2.14536 4.53004L 0.612194 4.94619C 0.194058 5.36234 0.05468 5.22363 0.194059 4.94619Z" transform="translate(34.2305 100.199)" fill="white"/>
</g>
</g>
</g>
</g>
</g>
</g>
<defs>

<radialGradient id="paint0_radial" cx="0.5" cy="0.5" r="0.5" gradientUnits="userSpaceOnUse" gradientTransform="translate(-6.42159 -16.2424) scale(31.3688 31.2198)">
<stop stop-color="#D4145A" stop-opacity="0"/>
<stop offset="1" stop-color="#D4145A"/>
</radialGradient>
<radialGradient id="paint1_radial" cx="0.5" cy="0.5" r="0.5" gradientUnits="userSpaceOnUse" gradientTransform="translate(-6.48752 -16.2424) scale(31.3688 31.2198)">
<stop stop-color="#D4145A" stop-opacity="0"/>
<stop offset="1" stop-color="#D4145A"/>
</radialGradient>

</defs>
</svg>

