<svg width="60" height="60" viewBox="0 0 60 60" version="1.1" xmlns="http://www.w3.org/2000/svg" xmlns:xlink="http://www.w3.org/1999/xlink">
<g id="Canvas" fill="none">
<g id="Group 4">
<g id="Vector">
<path d="M 0 29.9996C 0.000769774 13.431 13.431 0 29.9996 0C 46.5682 0 60 13.431 60 29.9996C 60 46.5682 46.569 59.9985 29.9996 60C 13.431 59.9985 0.000769774 46.5682 0 29.9996ZM 9.33812 9.33812C 4.05055 14.6272 0.779781 21.9293 0.779781 29.9996C 0.779781 38.0707 4.05055 45.3728 9.33812 50.6619C 14.6272 55.9495 21.9293 59.2194 29.9996 59.2194C 38.0699 59.2194 45.3728 55.9495 50.6619 50.6619C 55.951 45.3728 59.2202 38.0707 59.2202 29.9996C 59.2202 21.9301 55.951 14.6272 50.6619 9.33812C 45.372 4.04978 38.0699 0.779781 29.9996 0.779781C 21.9293 0.779781 14.6272 4.04978 9.33812 9.33812Z" fill="#BDBDBD"/>
</g>
<g id="002-business">
<g id="Group">
<g id="Vector_2">
<path d="M 20.4567 1.03672L 19.3731 1.03672L 19.3731 0.485961C 19.3731 0.217516 19.1527 0 18.8806 0C 18.6085 0 18.3881 0.217516 18.3881 0.485961L 18.3881 1.03672L 16.2209 1.03672L 16.2209 0.485961C 16.2209 0.217516 16.0004 0 15.7284 0C 15.4563 0 15.2358 0.217516 15.2358 0.485961L 15.2358 1.03672L 13.0687 1.03672L 13.0687 0.485961C 13.0687 0.217516 12.8482 0 12.5761 0C 12.304 0 12.0836 0.217516 12.0836 0.485961L 12.0836 1.03672L 9.91642 1.03672L 9.91642 0.485961C 9.91642 0.217516 9.69596 0 9.42388 0C 9.1518 0 8.93134 0.217516 8.93134 0.485961L 8.93134 1.03672L 6.76418 1.03672L 6.76418 0.485961C 6.76418 0.217516 6.54372 0 6.27164 0C 5.99956 0 5.7791 0.217516 5.7791 0.485961L 5.7791 1.03672L 3.61194 1.03672L 3.61194 0.485961C 3.61194 0.217516 3.39148 0 3.1194 0C 2.84733 0 2.62687 0.217516 2.62687 0.485961L 2.62687 1.03672L 1.54328 1.03672C 0.69231 1.03672 0 1.71978 0 2.5594L 0 28.4773C 0 29.3169 0.69231 30 1.54328 30L 20.4567 30C 21.3077 30 22 29.3169 22 28.4773L 22 2.5594C 22 1.71978 21.3077 1.03672 20.4567 1.03672ZM 21.0149 28.4773C 21.0149 28.781 20.7645 29.0281 20.4567 29.0281L 1.54328 29.0281C 1.23548 29.0281 0.985075 28.781 0.985075 28.4773L 0.985075 2.5594C 0.985075 2.2557 1.23548 2.00864 1.54328 2.00864L 2.62687 2.00864L 2.62687 2.5594C 2.62687 2.82784 2.84733 3.04536 3.1194 3.04536C 3.39148 3.04536 3.61194 2.82784 3.61194 2.5594L 3.61194 2.00864L 5.7791 2.00864L 5.7791 2.5594C 5.7791 2.82784 5.99956 3.04536 6.27164 3.04536C 6.54372 3.04536 6.76418 2.82784 6.76418 2.5594L 6.76418 2.00864L 8.93134 2.00864L 8.93134 2.5594C 8.93134 2.82784 9.1518 3.04536 9.42388 3.04536C 9.69596 3.04536 9.91642 2.82784 9.91642 2.5594L 9.91642 2.00864L 12.0836 2.00864L 12.0836 2.5594C 12.0836 2.82784 12.304 3.04536 12.5761 3.04536C 12.8482 3.04536 13.0687 2.82784 13.0687 2.5594L 13.0687 2.00864L 15.2358 2.00864L 15.2358 2.5594C 15.2358 2.82784 15.4563 3.04536 15.7284 3.04536C 16.0004 3.04536 16.2209 2.82784 16.2209 2.5594L 16.2209 2.00864L 18.3881 2.00864L 18.3881 2.5594C 18.3881 2.82784 18.6085 3.04536 18.8806 3.04536C 19.1527 3.04536 19.3731 2.82784 19.3731 2.5594L 19.3731 2.00864L 20.4567 2.00864C 20.7645 2.00864 21.0149 2.2557 21.0149 2.5594L 21.0149 28.4773Z" transform="matrix(0.944785 -0.327691 0.327691 0.944785 15.6914 19.4336)" fill="#BDBDBD"/>
</g>
<g id="Vector_3">
<path d="M 0.492537 0.971922L 7.84776 0.971922C 8.11984 0.971922 8.3403 0.754406 8.3403 0.485961C 8.3403 0.217516 8.11984 0 7.84776 0L 0.492537 0C 0.22046 0 0 0.217516 0 0.485961C 0 0.754406 0.22046 0.971922 0.492537 0.971922Z" transform="matrix(0.944785 -0.327691 0.327691 0.944785 26.3398 22.873)" fill="#BDBDBD"/>
</g>
<g id="Vector_4">
<path d="M 9.94925 0L 0.492537 0C 0.22046 0 0 0.217516 0 0.485961C 0 0.754406 0.22046 0.971922 0.492537 0.971922L 9.94925 0.971922C 10.2213 0.971922 10.4418 0.754406 10.4418 0.485961C 10.4418 0.217516 10.2213 0 9.94925 0Z" transform="matrix(0.944785 -0.327691 0.327691 0.944785 27.0195 24.832)" fill="#BDBDBD"/>
</g>
<g id="Vector_5">
<path d="M 4.34718 0.142233L 2.06864 2.39048L 0.840843 1.17901C 0.648425 0.989295 0.336616 0.989295 0.144264 1.17901C -0.0480881 1.36886 -0.0480881 1.67651 0.144264 1.86629L 1.72038 3.42137C 1.81659 3.51623 1.94268 3.56366 2.06871 3.56366C 2.19473 3.56366 2.32082 3.51623 2.41703 3.42137L 5.04389 0.829576C 5.23625 0.639727 5.23625 0.332081 5.04389 0.142297C 4.85141 -0.0474218 4.5396 -0.0474218 4.34718 0.142233Z" transform="matrix(0.944785 -0.327691 0.327691 0.944785 20.2109 24.4492)" fill="#BDBDBD"/>
</g>
<g id="Vector_6">
<path d="M 0.492537 0.971922L 7.84776 0.971922C 8.11984 0.971922 8.3403 0.754406 8.3403 0.485961C 8.3403 0.217516 8.11984 0 7.84776 0L 0.492537 0C 0.22046 0 0 0.217516 0 0.485961C 0 0.754406 0.22046 0.971922 0.492537 0.971922Z" transform="matrix(0.944785 -0.327691 0.327691 0.944785 28.0391 27.7695)" fill="#BDBDBD"/>
</g>
<g id="Vector_7">
<path d="M 9.94925 0L 0.492537 0C 0.22046 0 0 0.217516 0 0.485961C 0 0.754406 0.22046 0.971922 0.492537 0.971922L 9.94925 0.971922C 10.2213 0.971922 10.4418 0.754406 10.4418 0.485961C 10.4418 0.217516 10.2213 0 9.94925 0Z" transform="matrix(0.944785 -0.327691 0.327691 0.944785 28.7188 29.7305)" fill="#BDBDBD"/>
</g>
<g id="Vector_8">
<path d="M 4.34718 0.142233L 2.06864 2.39048L 0.840843 1.17901C 0.648425 0.989296 0.336616 0.989296 0.144264 1.17901C -0.0480881 1.36886 -0.0480881 1.67651 0.144264 1.86629L 1.72038 3.42137C 1.81659 3.51623 1.94268 3.56366 2.06871 3.56366C 2.19473 3.56366 2.32082 3.51623 2.41703 3.42137L 5.04389 0.829576C 5.23625 0.639727 5.23625 0.332082 5.04389 0.142298C 4.85141 -0.0474213 4.5396 -0.0474218 4.34718 0.142233Z" transform="matrix(0.944785 -0.327691 0.327691 0.944785 21.9102 29.3477)" fill="#BDBDBD"/>
</g>
<g id="Vector_9">
<path d="M 0.492537 0.971922L 7.84776 0.971922C 8.11984 0.971922 8.3403 0.754406 8.3403 0.485961C 8.3403 0.217516 8.11984 0 7.84776 0L 0.492537 0C 0.22046 0 0 0.217516 0 0.485961C 0 0.754406 0.22046 0.971922 0.492537 0.971922Z" transform="matrix(0.944785 -0.327691 0.327691 0.944785 29.7344 32.668)" fill="#BDBDBD"/>
</g>
<g id="Vector_10">
<path d="M 9.94925 0L 0.492537 0C 0.22046 0 0 0.217516 0 0.485961C 0 0.754406 0.22046 0.971922 0.492537 0.971922L 9.94925 0.971922C 10.2213 0.971922 10.4418 0.754406 10.4418 0.485961C 10.4418 0.217516 10.2213 0 9.94925 0Z" transform="matrix(0.944785 -0.327691 0.327691 0.944785 30.4141 34.627)" fill="#BDBDBD"/>
</g>
<g id="Vector_11">
<path d="M 4.34718 0.142234L 2.06864 2.39048L 0.840843 1.17901C 0.648425 0.989295 0.336616 0.989295 0.144264 1.17901C -0.0480881 1.36886 -0.0480881 1.67651 0.144264 1.86629L 1.72038 3.42137C 1.81659 3.51623 1.94268 3.56366 2.06871 3.56366C 2.19473 3.56366 2.32082 3.51623 2.41703 3.42137L 5.04389 0.829575C 5.23625 0.639726 5.23625 0.332081 5.04389 0.142297C 4.85141 -0.0474223 4.5396 -0.0474208 4.34718 0.142234Z" transform="matrix(0.944785 -0.327691 0.327691 0.944785 23.6094 34.2441)" fill="#BDBDBD"/>
</g>
<g id="Vector_12">
<path d="M 0.492537 0.971922L 7.84776 0.971922C 8.11984 0.971922 8.3403 0.754406 8.3403 0.485961C 8.3403 0.217516 8.11984 0 7.84776 0L 0.492537 0C 0.22046 0 0 0.217516 0 0.485961C 0 0.754406 0.22046 0.971922 0.492537 0.971922Z" transform="matrix(0.944785 -0.327691 0.327691 0.944785 31.4336 37.5645)" fill="#BDBDBD"/>
</g>
<g id="Vector_13">
<path d="M 9.94925 0L 0.492537 0C 0.22046 0 0 0.217516 0 0.485961C 0 0.754406 0.22046 0.971922 0.492537 0.971922L 9.94925 0.971922C 10.2213 0.971922 10.4418 0.754406 10.4418 0.485961C 10.4418 0.217516 10.2213 0 9.94925 0Z" transform="matrix(0.944785 -0.327691 0.327691 0.944785 32.1133 39.5254)" fill="#BDBDBD"/>
</g>
<g id="Vector_14">
<path d="M 4.34718 0.142234L 2.06864 2.39048L 0.840843 1.17901C 0.648425 0.989295 0.336616 0.989295 0.144264 1.17901C -0.0480881 1.36886 -0.0480881 1.67651 0.144264 1.86629L 1.72038 3.42137C 1.81659 3.51623 1.94268 3.56366 2.06871 3.56366C 2.19473 3.56366 2.32082 3.51623 2.41703 3.42137L 5.04389 0.829575C 5.23625 0.639726 5.23625 0.332081 5.04389 0.142297C 4.85141 -0.0474223 4.5396 -0.0474208 4.34718 0.142234Z" transform="matrix(0.944785 -0.327691 0.327691 0.944785 25.3086 39.1426)" fill="#BDBDBD"/>
</g>
</g>
</g>
</g>
</g>
</svg>

