<?xml version="1.0" encoding="utf-8"?>
<!-- Generator: Adobe Illustrator 22.0.1, SVG Export Plug-In . SVG Version: 6.00 Build 0)  -->
<svg version="1.1" id="Layer_1" xmlns="http://www.w3.org/2000/svg" xmlns:xlink="http://www.w3.org/1999/xlink" x="0px" y="0px"
   viewBox="0 0 60 60" style="enable-background:new 0 0 60 60;" xml:space="preserve">
<style type="text/css">
  .st0{fill:#96BF3D;}
  .st1{fill:#FFFFFF;}
</style>
<path id="path0_fill_1_" class="st0" d="M60.1,30c0,16.6-13.4,30-30,30s-30-13.4-30-30s13.4-30,30-30S60.1,13.4,60.1,30z"/>
<path class="st1" d="M32.1,30l7.9-7.9c0.6-0.6,0.6-1.5,0-2.1s-1.5-0.6-2.1,0L30,27.9L22.1,20c-0.6-0.6-1.5-0.6-2.1,0s-0.6,1.5,0,2.1
  l7.9,7.9L20,37.9c-0.6,0.6-0.6,1.5,0,2.1c0.3,0.3,0.7,0.4,1.1,0.4s0.8-0.1,1.1-0.4l7.9-7.9L38,40c0.3,0.3,0.7,0.4,1.1,0.4
  s0.8-0.1,1.1-0.4c0.6-0.6,0.6-1.5,0-2.1L32.1,30z"/>
</svg>
