<svg width="60" height="60" viewBox="0 0 60 60" version="1.1" xmlns="http://www.w3.org/2000/svg" xmlns:xlink="http://www.w3.org/1999/xlink">
<title>Call</title>
<desc>Created using Figma</desc>
<g id="Canvas" transform="translate(-11473 -22077)">
<g id="Call">
<g id="Group">
<g id="Ellipse">
<use xlink:href="#path0_fill" transform="translate(11473 22077)" fill="#96BF3D"/>
</g>
</g>
<g id="if_phone_1540177">
<g id="&#208;&#161;&#208;&#187;&#208;&#190;&#208;&#185; 2">
<g id="XMLID 1">
<use xlink:href="#path1_fill" transform="translate(11496 22109.6)" fill="#FFFFFF"/>
</g>
<g id="XMLID 4">
<use xlink:href="#path2_fill" transform="translate(11489 22094)" fill="#FFFFFF"/>
</g>
</g>
</g>
</g>
</g>
<defs>
<path id="path0_fill" d="M 60 30C 60 46.5685 46.5685 60 30 60C 13.4315 60 0 46.5685 0 30C 0 13.4315 13.4315 0 30 0C 46.5685 0 60 13.4315 60 30Z"/>
<path id="path1_fill" d="M 4.23471 3.15757e-06C 4.23471 3.15757e-06 7.84969 3.56961 9.32151 3.85414L 12.3426 0.827743C 12.3426 0.827743 13.5304 -0.310401 14.7956 0.853604L 19.7275 5.79415C 19.7275 5.79415 20.528 7.26856 19.5984 8.1739L 17.197 10.5795C 17.197 10.5795 12.9623 13.2955 6.17131 8.9499C 6.17131 8.9499 2.96945 7.26856 -3.15202e-06 4.24215"/>
<path id="path2_fill" d="M 11.445 15.841C 11.445 15.841 7.88163 12.2197 7.57177 10.7453L 10.5929 7.71885C 10.5929 7.71885 11.729 6.52897 10.567 5.2615L 5.60935 0.320952C 5.60935 0.320952 4.13753 -0.480919 3.23378 0.450286L 0.832395 2.85589C 0.832395 2.85589 -1.87885 7.09805 2.48496 13.901C 2.48496 13.901 4.16334 17.1085 7.21027 20.0832"/>
</defs>
</svg>
