<svg width="60" height="60" viewBox="0 0 60 60" version="1.1" xmlns="http://www.w3.org/2000/svg" xmlns:xlink="http://www.w3.org/1999/xlink">
<title>Whatsapp</title>
<desc>Created using Figma</desc>
<g id="Canvas" transform="translate(-11473 -22147)">
<g id="Whatsapp">
<g id="Group">
<g id="Ellipse">
<use xlink:href="#path0_fill" transform="translate(11473 22147)" fill="#96BF3D"/>
</g>
</g>
<g id="if_Whats_App_2062095">
<g id="Group 36">
<g id="Group 35">
<g id="Group 34">
<g id="Ellipse 19">
<g id="Vector">
<use xlink:href="#path1_fill" transform="translate(11490 22163)" fill="#FFFFFF"/>
</g>
</g>
<g id="Path 126">
<use xlink:href="#path2_fill" transform="translate(11490.2 22182.9)" fill="#FFFFFF"/>
</g>
</g>
<g id="Path 128">
<use xlink:href="#path3_fill" transform="translate(11496.4 22170.1)" fill="#96BF3D"/>
</g>
</g>
</g>
</g>
</g>
</g>
<defs>
<path id="path0_fill" d="M 60 30C 60 46.5685 46.5685 60 30 60C 13.4315 60 0 46.5685 0 30C 0 13.4315 13.4315 0 30 0C 46.5685 0 60 13.4315 60 30Z"/>
<path id="path1_fill" d="M 13.5 26.4541C 20.9558 26.4541 27 20.5322 27 13.2271C 27 5.92196 20.9558 0 13.5 0C 6.04416 0 0 5.92196 0 13.2271C 0 20.5322 6.04416 26.4541 13.5 26.4541Z"/>
<path id="path2_fill" d="M 1.97142 0.210117L 0 7.0546L 7.24287 5.08104L 7.24287 3.56921L 4.97125 2.09953L 3.04269 0L 1.97142 0.210117Z"/>
<path id="path3_fill" d="M 1.70082 0.0484665C 1.26324 0.345964 0.890182 0.725519 0.603285 1.16518C 0.316388 1.60485 0.121333 2.09589 0.0293803 2.60989C -0.184905 4.24753 0.843677 5.92716 0.843677 5.92716C 1.88703 7.44806 3.12576 8.83111 4.52938 10.0422C 5.75722 10.9942 7.15124 11.7198 8.64366 12.1838C 9.51422 12.5243 10.4665 12.6118 11.3865 12.4357C 12.202 12.2164 12.9234 11.7451 13.4436 11.092C 13.5656 10.7949 13.6519 10.4849 13.7008 10.1682C 13.7499 9.89034 13.7499 9.60628 13.7008 9.3284C 13.658 9.03447 10.5722 7.64877 10.2722 7.73275C 9.97225 7.81674 9.71506 8.36262 9.37221 8.82451C 9.02935 9.28641 8.90082 9.49637 8.55796 9.49637C 8.21511 9.49637 6.71506 8.90849 5.30078 7.64877C 4.49297 6.9625 3.86165 6.09936 3.45795 5.12933C 3.45795 5.12933 3.71511 4.8354 4.05796 4.3735C 4.32475 4.0871 4.51598 3.74113 4.61507 3.36573C 4.61507 3.15577 3.41507 0.174439 3.11507 0.0484665C 2.64595 -0.0161521 2.16994 -0.0161521 1.70082 0.0484665Z"/>
</defs>
</svg>
