<svg width="165" height="133" viewBox="0 0 165 133" version="1.1" xmlns="http://www.w3.org/2000/svg" xmlns:xlink="http://www.w3.org/1999/xlink">
<g id="Canvas" fill="none">
<g id="Group">
<mask id="mask0" mask-type="alpha" maskUnits="userSpaceOnUse" x="0" y="0" width="165" height="133">
<g id="Vector">
<path d="M 132.611 133L 32.293 133C 14.4268 133 0 118.655 0 100.89L 0 32.11C 0 14.345 14.4268 0 32.293 0L 132.707 0C 150.573 0 165 14.345 165 32.11L 165 100.89C 164.904 118.655 150.478 133 132.611 133Z" fill="#96BF3D"/>
</g>
</mask>
<g mask="url(#mask0)">
<g id="Group_2">
<g id="Group_3">
<g id="Vector_2">
<path d="M 132.611 133L 32.293 133C 14.4268 133 0 118.655 0 100.89L 0 32.11C 0 14.345 14.4268 0 32.293 0L 132.707 0C 150.573 0 165 14.345 165 32.11L 165 100.89C 164.904 118.655 150.478 133 132.611 133Z" transform="translate(-0.0390625 0)" fill="#E5E5E5"/>
</g>
</g>
<g id="Group_4">
<g id="Group_5">
<g id="Group_6">
<g id="Group_7">
<g id="Group_8">
<g id="Group_9">
<g id="Vector_3">
<path d="M 92.6588 57.4746C 92.6588 63.8393 92.4665 68.2752 92.4665 68.2752L 0.0947933 68.2752C 0.0947933 68.2752 -1.34701 18.226 7.01547 10.8006C 13.5517 4.91813 23.4521 1.63938 27.2969 0.482173C 28.2581 0.192871 28.8348 0.0964354 28.8348 0.0964354L 64.6877 2.94293e-06C 64.6877 2.94293e-06 65.1683 0.096431 66.1295 0.385733C 67.1869 0.675035 68.917 1.15721 70.8394 1.92868C 71.7045 2.21798 72.6657 2.60372 73.5308 3.08589C 73.6269 3.08589 73.6269 3.08588 73.7231 3.18232C 87.0838 7.71471 95.6385 20.9262 94.2928 35.0055C 93.5239 44.8418 92.6588 54.5816 92.6588 57.4746Z" transform="translate(-1 102.51)" fill="white"/>
</g>
<g id="Vector_4">
<path d="M 15.9359 8.67906C 34.4872 11.4756 41.3117 3.66449 41.0234 2.31441C 40.735 0.964337 39.6777 0.385733 39.5816 0.385733C 38.7165 0.096431 38.1398 2.94293e-06 38.1398 2.94293e-06L 2.19071 0.0964354C 2.19071 0.0964354 1.61398 0.192871 0.65278 0.482173C -0.308424 1.25364 -2.71144 5.88247 15.9359 8.67906Z" transform="translate(25.6445 102.51)" fill="#96BF3D"/>
</g>
<g id="Group_10">
<g id="Group_11">
<g id="Group_12">
<g id="Vector_5">
<path d="M 5.86335 11.7649C 9.10158 11.7649 11.7267 9.13127 11.7267 5.88247C 11.7267 2.63367 9.10158 0 5.86335 0C 2.62511 0 0 2.63367 0 5.88247C 0 9.13127 2.62511 11.7649 5.86335 11.7649Z" transform="translate(8.22656 50.5312)" fill="#FF8B6C"/>
</g>
</g>
<g id="Vector_6">
<path d="M 4.7099 0.646256C 4.7099 0.646256 2.30689 -1.08956 -1.83335e-07 1.12843" stroke-miterlimit="10" stroke-linecap="round" stroke-linejoin="round" transform="translate(10.2441 55.1895)" stroke="#333333"/>
</g>
</g>
<g id="Vector_7">
<path d="M 0.820214 33.4626L 2.6465 32.6911C 6.68356 31.0517 9.37494 27.1944 9.56718 22.9513L 10.6245 12.2471C 10.6245 10.7042 10.4323 9.16123 10.0478 7.71472C 9.37494 5.20743 8.22149 2.89302 6.68356 0.771469C 6.49132 0.482167 6.29908 0.2893 6.10684 0.192866L 35.3275 1.47147e-06L 36.0003 1.47147e-06C 35.8081 0.0964354 35.7119 0.192865 35.5197 0.289299C 31.002 3.66449 28.5029 9.16123 28.5029 14.8508L 28.6951 18.7082L 29.1757 22.8548C 29.368 27.6765 32.6361 31.9196 37.2499 33.2697C 38.4994 33.7519 38.3072 35.4877 36.9615 35.6806L 29.5602 36.7413C 22.5434 37.8021 15.3344 37.8021 8.31761 36.9342L 1.30082 35.9699C -0.237111 35.6806 -0.429352 33.9447 0.820214 33.4626Z" transform="translate(26.6289 69.3359)" fill="#F2785F"/>
</g>
<g id="Vector_8">
<path d="M -1.46668e-06 0.289302C 0.192239 0.385736 0.384482 0.675036 0.576723 0.867904C 2.11465 2.98945 3.36422 5.30387 3.94094 7.81115C 6.82455 10.897 12.9763 19.5761 22.8767 22.4691L 22.2999 14.8508C 22.2999 9.16122 24.7991 3.66449 29.3167 0.289302C 29.3167 0.192868 29.2206 0.096431 29.2206 -2.94293e-06L -1.46668e-06 0.289302Z" transform="translate(32.7383 69.1406)" fill="#CC6250"/>
</g>
<g id="Group_13">
<g id="Group_14">
<g id="Group_15">
<g id="Vector_9">
<path d="M 5.86335 11.7649C 9.10158 11.7649 11.7267 9.13127 11.7267 5.88247C 11.7267 2.63367 9.10158 0 5.86335 0C 2.62511 0 0 2.63367 0 5.88247C 0 9.13127 2.62511 11.7649 5.86335 11.7649Z" transform="translate(71.9531 48.5059)" fill="#E06F58"/>
</g>
</g>
<g id="Vector_10">
<path d="M 2.93336e-06 0.646255C 2.93336e-06 0.646255 2.40301 -1.08956 4.7099 1.12842" stroke-miterlimit="10" stroke-linecap="round" stroke-linejoin="round" transform="translate(75.7031 54.9941)" stroke="#333333"/>
</g>
</g>
<g id="Group_16">
<g id="Vector_11">
<path d="M 30.4702 60.657L 35.2762 60.657C 52.0012 60.657 65.6503 47.0598 65.6503 30.1838L 65.6503 20.2511C 65.6503 9.06479 56.6149 3.67866e-07 45.465 3.67866e-07L 17.4939 3.67866e-07C 7.88188 3.67866e-07 -1.83335e-07 7.81115 -1.83335e-07 17.551L -1.83335e-07 30.1838C -1.83335e-07 47.0598 13.6491 60.657 30.4702 60.657Z" transform="translate(14.0898 18.418)" fill="#FF8B6C"/>
</g>
</g>
</g>
</g>
</g>
</g>
</g>
<g id="Vector_12">
<path d="M 3.57275 9.16515C -1.42551 10.0331 -1.04103 15.7227 3.86111 17.4585C 12.3197 20.4479 22.7968 23.3409 34.1391 24.4017C 42.2132 25.1732 49.5183 25.5589 55.8623 25.7518C 70.4726 26.234 74.3174 5.11492 60.2838 0.871829C 59.8993 0.775395 59.5149 0.678961 59.0343 0.582527C 46.058 -2.31049 18.8559 6.36856 3.57275 9.16515Z" transform="translate(18.4941 4.625)" fill="#333333"/>
</g>
<g id="Vector_13">
<path d="M 12.3274 0.653267C 12.3274 0.653267 15.5955 8.36798 10.3089 11.6467C 5.02229 14.9255 6.84858 31.8014 5.11841 32.8622C 3.38825 33.923 2.81152 34.3087 1.94644 30.8371C 1.08136 27.3655 -0.937174 11.3574 0.504633 6.4393C 1.94644 1.52117 7.23306 -1.37185 12.3274 0.653267Z" transform="translate(12.2383 19.6934)" fill="#333333"/>
</g>
<g id="Vector_14">
<path d="M 1.46668e-06 0.928982C 1.46668e-06 0.928982 0.672844 5.55781 4.80602 8.45083C 8.9392 11.3438 8.07412 32.5593 9.70817 32.7522C 10.6694 32.8486 11.2461 33.2344 11.2461 30.1485C 11.2461 26.5804 10.6694 10.5724 9.13144 5.84711C 7.59352 1.02541 3.36422 -1.48187 1.46668e-06 0.928982Z" transform="translate(69.0703 19.9961)" fill="#333333"/>
</g>
<g id="Vector_15">
<path d="M 0 7.35733e-07C 0 7.81115 6.34395 14.1758 14.1297 14.1758C 21.9155 14.1758 28.2594 7.81115 28.2594 7.35733e-07L 0 7.35733e-07Z" transform="translate(38.4082 50.8203)" fill="white"/>
</g>
<g id="Vector_16">
<path d="M 10.381 5.20743C 10.381 2.31442 8.07412 -7.35733e-07 5.1905 -7.35733e-07C 2.30689 -7.35733e-07 7.33341e-07 2.31442 7.33341e-07 5.20743" stroke-miterlimit="10" stroke-linecap="round" stroke-linejoin="round" transform="translate(57.3438 32.5957)" stroke="#333333"/>
</g>
<g id="Vector_17">
<path d="M 10.381 5.20743C 10.381 2.31442 8.07412 -7.35733e-07 5.1905 -7.35733e-07C 2.30689 -7.35733e-07 -7.33341e-07 2.31442 -7.33341e-07 5.20743" stroke-miterlimit="10" stroke-linecap="round" stroke-linejoin="round" transform="translate(35.8125 32.5957)" stroke="#333333"/>
</g>
</g>
<g id="Group_17">
<g id="Vector_18">
<path d="M 0.0158424 15.1401C 0.0158424 15.1401 -0.849236 5.59317 10.2046 -2.94293e-06" stroke-width="6" stroke-miterlimit="10" stroke-linecap="round" stroke-linejoin="round" transform="translate(150.086 74.9277)" stroke="#D86956"/>
</g>
<g id="Vector_19">
<path d="M 0.348647 23.9156C 0.348647 23.9156 -2.43885 7.13611 7.74992 0" stroke-width="7" stroke-miterlimit="10" stroke-linecap="round" stroke-linejoin="round" transform="translate(149.848 67.0215)" stroke="#ED7962"/>
</g>
<g id="Vector_20">
<path d="M -5.86673e-06 4.00304C 1.15344 2.26722 7.68964 -3.03665 14.0336 2.36365C 20.3775 7.76395 19.128 17.8895 13.7452 24.2542" stroke-width="8" stroke-miterlimit="10" stroke-linecap="round" stroke-linejoin="round" transform="translate(131.549 73.9141)" stroke="#FF8B6C"/>
</g>
<g id="Vector_21">
<path d="M 0.779781 -2.94293e-06C -0.469784 2.98945 -0.373664 6.36464 2.22159 8.96836C 5.97029 12.8257 11.8336 13.5008 15.9668 10.0291" stroke-width="8" stroke-miterlimit="10" stroke-linecap="round" stroke-linejoin="round" transform="translate(128.176 88.4297)" stroke="#FF8B6C"/>
</g>
<g id="Group_18">
<g id="Vector_22">
<path d="M 31.3353 43.5488C 29.6051 42.3915 27.8749 41.3308 26.2409 40.1736C 5.76723 25.8049 1.44181 15.6793 1.05733 14.9079C 0.961207 14.8114 -2.93336e-06 12.5935 -2.93336e-06 12.497C 5.47886 12.5935 7.11292 8.25393 9.03533 3.91441C 10.1888 1.31069 13.1685 -1.58233 14.6103 1.02139C 14.6103 1.02139 14.6103 1.02139 14.6103 1.11782C 14.8025 1.50356 22.6844 15.39 41.524 27.2514C 46.33 30.2409 47.9641 36.4126 45.1766 40.945C 42.293 45.381 36.1413 46.6346 31.3353 43.5488Z" transform="translate(138.086 86.8281)" fill="#FF8B6C"/>
</g>
</g>
<g id="Group_19">
<g id="Group_20">
<g id="Vector_23">
<path d="M 25.9525 38.5736C 24.0301 37.3199 22.1077 36.0663 20.2814 34.8127C 11.6306 28.7373 4.99827 22.3727 2.93336e-06 16.7795C 4.13318 6.75038 10.7655 2.12155 15.4754 0C 20.1853 5.59317 27.4904 12.7293 37.8715 19.1904C 43.1581 22.4691 44.7921 29.5088 41.524 34.8127C 38.2559 40.213 31.2391 41.8523 25.9525 38.5736Z" transform="translate(145.391 95.9512)" fill="#A9FFB7"/>
</g>
</g>
</g>
<g id="Group_21">
<g id="Vector_24">
<path d="M 41.7163 13.5972L 2.93336e-06 2.94293e-06" stroke-width="5" stroke-miterlimit="10" stroke-linecap="round" transform="translate(93.9668 71.6504)" stroke="#495647"/>
</g>
<g id="Vector_25">
<path d="M 5.86335 1.83224L 2.93336e-06 2.94293e-06" stroke-width="5" stroke-miterlimit="10" stroke-linecap="round" transform="translate(93.9668 71.6504)" stroke="white"/>
</g>
</g>
</g>
</g>
</g>
<g id="Group_22">
<g id="Vector_26">
<path d="M 2.37236 8.80245L 2.37236 7.06663C 2.37236 6.77733 2.18012 6.48804 1.89176 6.29517L 0.449955 5.33082C -0.222888 4.84866 -0.126771 3.88432 0.642193 3.59501L 2.27624 3.01641C 2.5646 2.91998 2.85297 2.63068 2.85297 2.34137L 3.33357 0.701996C 3.52581 -0.0694753 4.58313 -0.262342 5.06373 0.412695L 6.12106 1.76277C 6.3133 2.05207 6.60166 2.14851 6.98614 2.14851L 8.71631 2.05207C 9.48528 2.05207 10.062 2.91998 9.5814 3.59501L 8.62019 4.94509C 8.42795 5.23439 8.42795 5.5237 8.52407 5.813L 9.10079 7.35594C 9.38916 8.12741 8.71631 8.89888 7.94734 8.60958L 6.3133 8.12741C 6.02494 8.03097 5.64046 8.12741 5.44822 8.32028L 4.10253 9.38105C 3.33356 10.0561 2.37236 9.67035 2.37236 8.80245Z" transform="translate(91.5938 56.1934)" fill="white"/>
</g>
<g id="Vector_27">
<path d="M 0.554268 1.95638L 1.99607 1.85994C 2.18832 1.85994 2.38056 1.76351 2.47668 1.57065L 3.14952 0.317003C 3.43789 -0.165167 4.01461 -0.0687344 4.30297 0.413435L 4.87969 1.76351C 4.97581 1.95638 5.16805 2.05282 5.36029 2.14925L 6.8021 2.43855C 7.2827 2.53498 7.47494 3.21002 7.09046 3.49933L 6.03314 4.46367C 5.8409 4.5601 5.84089 4.75297 5.84089 5.04227L 6.03314 6.48878C 6.12926 6.97095 5.55254 7.35668 5.07193 7.06738L 3.72625 6.10304C 3.534 6.00661 3.34177 6.00661 3.14952 6.10304L 1.80384 6.68164C 1.32323 6.87451 0.842631 6.48878 0.938751 6.00661L 1.22712 4.5601C 1.22712 4.36723 1.22711 4.17436 1.03487 3.9815L 0.0736659 2.92072C -0.118575 2.53498 0.0736659 1.95638 0.554268 1.95638Z" transform="translate(79.2812 70.0781)" fill="white"/>
</g>
<g id="Vector_28">
<path d="M 0.13383 3.43853L 0.614433 2.37776C 0.614433 2.37776 0.614433 2.28133 0.614433 2.18489L 0.0377114 1.22055C -0.058409 1.12412 0.0377085 0.931248 0.229949 0.931248L 1.38339 1.02768C 1.47951 1.02768 1.47952 1.02768 1.47952 0.931248L 2.24848 0.0633416C 2.3446 -0.0330924 2.53684 -0.0330938 2.53684 0.159774L 2.72908 1.22055C 2.72908 1.31699 2.72908 1.31699 2.8252 1.31699L 3.88253 1.70272C 3.97865 1.79916 3.97865 1.89559 3.88253 1.99202L 2.92132 2.57062L 2.8252 2.66706L 2.72908 3.82427C 2.72908 3.9207 2.53684 4.01713 2.44072 3.9207L 1.57564 3.14923C 1.57564 3.14923 1.47952 3.0528 1.47952 3.14923L 0.422187 3.43853C 0.229946 3.6314 0.13383 3.53496 0.13383 3.43853Z" transform="translate(92.0039 81.0371)" fill="white"/>
</g>
</g>
</g>
</g>
</g>
</g>
</svg>

