<svg width="126" height="187" viewBox="0 0 126 187" version="1.1" xmlns="http://www.w3.org/2000/svg" xmlns:xlink="http://www.w3.org/1999/xlink">
<title>Girl</title>
<desc>Created using Figma</desc>
<g id="Canvas" transform="translate(-10816 -16593)">
<g id="Girl">
<g id="Girl">
<g id="Group">
<g id="Group">
<g id="Group">
<g id="Vector">
<use xlink:href="#path0_fill" transform="translate(10903.8 16646.1)" fill="#E06F58"/>
</g>
</g>
<g id="Vector">
<use xlink:href="#path1_stroke" transform="translate(10908.9 16650.8)" fill="#333333"/>
</g>
</g>
<g id="Vector">
<use xlink:href="#path2_fill" transform="translate(10910.5 16656.5)" fill="#FFC215"/>
</g>
</g>
<g id="Group">
<g id="Group">
<g id="Group">
<g id="Vector">
<use xlink:href="#path3_fill" transform="translate(10838.5 16646.1)" fill="#E06F58"/>
</g>
</g>
<g id="Vector">
<use xlink:href="#path4_stroke" transform="translate(10840.5 16650.8)" fill="#333333"/>
</g>
</g>
<g id="Vector">
<use xlink:href="#path5_fill" transform="translate(10842 16656.5)" fill="#FFC215"/>
</g>
</g>
<g id="Vector">
<use xlink:href="#path6_fill" transform="translate(10840.2 16623.4)" fill="#2D2D2D"/>
</g>
<g id="Group">
<g id="Group">
<g id="Vector">
<use xlink:href="#path7_fill" transform="translate(10849.5 16593)" fill="#96BF3D"/>
</g>
<g id="Vector">
<use xlink:href="#path7_fill" transform="translate(10849.5 16593)" fill="url(#paint8_linear)"/>
</g>
</g>
<g id="Vector">
<use xlink:href="#path8_fill" transform="matrix(0.0298885 -0.999602 0.999598 0.0300125 10818.6 16638.7)" fill="#85A331"/>
</g>
<g id="Vector">
<use xlink:href="#path9_fill" transform="translate(10819 16607.3)" fill="url(#paint10_linear)"/>
</g>
</g>
<g id="Group">
<g id="Group">
<g id="Group">
<g id="Vector">
<use xlink:href="#path10_fill" transform="translate(10816 16709.3)" fill="#96BF3D"/>
</g>
<g id="Vector">
<use xlink:href="#path11_stroke" transform="translate(10878.7 16709.3)" fill="#87A82D"/>
</g>
<g id="Group">
<g id="Vector">
<use xlink:href="#path12_fill" transform="translate(10859.3 16675.4)" fill="#F2785F"/>
</g>
<g id="Vector">
<use xlink:href="#path13_fill" transform="translate(10861.8 16675.4)" fill="#CC6250"/>
</g>
<g id="Group">
<g id="Vector">
<use xlink:href="#path14_fill" transform="translate(10837.5 16621.9)" fill="#333333"/>
</g>
<g id="Vector">
<use xlink:href="#path15_fill" transform="translate(10843.6 16626.2)" fill="#FF8B6C"/>
</g>
</g>
</g>
<g id="Vector">
<use xlink:href="#path16_stroke" transform="translate(10883.5 16720.3)" fill="#87A82D"/>
</g>
<g id="Vector">
<use xlink:href="#path17_stroke" transform="translate(10883.5 16733.5)" fill="#87A82D"/>
</g>
<g id="Vector">
<use xlink:href="#path18_stroke" transform="translate(10883.5 16746.7)" fill="#87A82D"/>
</g>
<g id="Vector">
<use xlink:href="#path19_stroke" transform="translate(10883.5 16759.9)" fill="#87A82D"/>
</g>
<g id="Vector">
<use xlink:href="#path20_stroke" transform="translate(10883.5 16773.1)" fill="#87A82D"/>
</g>
</g>
<g id="Group">
<g id="Vector" opacity="0.42">
<use xlink:href="#path21_fill" transform="translate(10896.1 16651.9)" fill="url(#paint22_radial)"/>
</g>
<g id="Vector" opacity="0.42">
<use xlink:href="#path22_fill" transform="translate(10848 16651.9)" fill="url(#paint23_radial)"/>
</g>
</g>
</g>
<g id="Vector">
<use xlink:href="#path23_fill" transform="translate(10857.5 16661.4)" fill="#FFFFFF"/>
</g>
<g id="Vector">
<use xlink:href="#path24_fill" transform="translate(10865.1 16694.9)" fill="#718F2E"/>
</g>
<g id="Vector">
<use xlink:href="#path25_fill" transform="translate(10865.1 16691.2)" fill="#E9EDDD"/>
</g>
<g id="Vector">
<use xlink:href="#path26_fill" transform="translate(10865.1 16698.6)" fill="#3BA4BC"/>
</g>
</g>
<g id="Group">
<g id="Vector">
<use xlink:href="#path27_stroke" transform="translate(10884.6 16643.8)" fill="#333333"/>
</g>
<g id="Vector">
<use xlink:href="#path28_stroke" transform="translate(10860 16643.8)" fill="#333333"/>
</g>
</g>
<g id="Vector">
<use xlink:href="#path29_fill" transform="translate(10842.3 16623.2)" fill="#333333"/>
</g>
<g id="Vector">
<use xlink:href="#path30_fill" transform="translate(10893.7 16626.5)" fill="#333333"/>
</g>
</g>
</g>
</g>
<defs>
<linearGradient id="paint8_linear" x1="0" y1="0" x2="1" y2="0" gradientUnits="userSpaceOnUse" gradientTransform="matrix(-8.73101 -15.0413 15.0101 -8.74913 11.9025 20.0254)">
<stop offset="0" stop-color="#5D6942"/>
<stop offset="1" stop-color="#96BF3D" stop-opacity="0"/>
</linearGradient>
<linearGradient id="paint10_linear" x1="0" y1="0" x2="1" y2="0" gradientUnits="userSpaceOnUse" gradientTransform="matrix(84.7089 -49.3753 49.2731 84.8847 -10.2184 -1.14551)">
<stop offset="0" stop-color="#5D6942"/>
<stop offset="1" stop-color="#96BF3D" stop-opacity="0"/>
</linearGradient>
<radialGradient id="paint22_radial" cx="0.5" cy="0.5" r="0.5" gradientUnits="userSpaceOnUse" gradientTransform="matrix(29.8259 0 0 29.8878 -6.20144 -15.6142)">
<stop offset="0" stop-color="#D4145A" stop-opacity="0"/>
<stop offset="1" stop-color="#D4145A"/>
</radialGradient>
<radialGradient id="paint23_radial" cx="0.5" cy="0.5" r="0.5" gradientUnits="userSpaceOnUse" gradientTransform="matrix(29.8259 0 0 29.8878 -6.16665 -15.6142)">
<stop offset="0" stop-color="#D4145A" stop-opacity="0"/>
<stop offset="1" stop-color="#D4145A"/>
</radialGradient>
<path id="path0_fill" d="M 5.97953 11.9839C 9.28193 11.9839 11.9591 9.30118 11.9591 5.99193C 11.9591 2.68268 9.28193 2.39032e-06 5.97953 2.39032e-06C 2.67712 2.39032e-06 2.38537e-06 2.68268 2.38537e-06 5.99193C 2.38537e-06 9.30118 2.67712 11.9839 5.97953 11.9839Z"/>
<path id="path1_stroke" d="M -0.294094 0.247341C -0.517416 0.409766 -0.566783 0.722476 -0.404358 0.945798C -0.241933 1.16912 0.0707769 1.21849 0.294099 1.05606L -0.294094 0.247341ZM 4.46216 1.52282C 4.66209 1.7133 4.97858 1.70565 5.16906 1.50573C 5.35955 1.3058 5.3519 0.989313 5.15198 0.798827L 4.46216 1.52282ZM 2.38537e-06 0.651702C 0.294099 1.05606 0.293894 1.05621 0.293699 1.05635C 0.293646 1.05639 0.293459 1.05653 0.293352 1.0566C 0.293139 1.05676 0.292961 1.05689 0.292819 1.05699C 0.292535 1.05719 0.292392 1.0573 0.292389 1.0573C 0.292385 1.0573 0.292942 1.0569 0.294051 1.05613C 0.296269 1.05457 0.30069 1.0515 0.307237 1.04709C 0.320343 1.03826 0.341902 1.02409 0.37132 1.00594C 0.430263 0.969569 0.520092 0.917625 0.636091 0.860713C 0.869312 0.746289 1.20094 0.615413 1.59493 0.547121C 2.3632 0.413955 3.39911 0.509948 4.46216 1.52282L 5.15198 0.798827C 3.83103 -0.459757 2.46341 -0.618324 1.42415 -0.438187C 0.914372 -0.349827 0.491228 -0.182086 0.195624 -0.0370558C 0.04721 0.0357596 -0.0708888 0.103752 -0.15377 0.15489C -0.195264 0.180491 -0.228091 0.201967 -0.251644 0.217841C -0.263426 0.225781 -0.272902 0.23233 -0.279998 0.237305C -0.283547 0.239793 -0.286502 0.241888 -0.288854 0.243568C -0.29003 0.244408 -0.291056 0.245145 -0.291929 0.245774C -0.292366 0.246089 -0.292765 0.246377 -0.293126 0.246639C -0.293306 0.246769 -0.293549 0.246945 -0.293639 0.24701C -0.293871 0.247179 -0.294094 0.247341 2.38537e-06 0.651702Z"/>
<path id="path2_fill" d="M 1.09429 2.19312C 1.69865 2.19312 2.18859 1.70218 2.18859 1.09657C 2.18859 0.49095 1.69865 0 1.09429 0C 0.489932 0 0 0.49095 0 1.09657C 0 1.70218 0.489932 2.19312 1.09429 2.19312Z"/>
<path id="path3_fill" d="M 5.97953 11.9839C 9.28193 11.9839 11.9591 9.30118 11.9591 5.99193C 11.9591 2.68268 9.28193 2.39032e-06 5.97953 2.39032e-06C 2.67713 2.39032e-06 0 2.68268 0 5.99193C 0 9.30118 2.67713 11.9839 5.97953 11.9839Z"/>
<path id="path4_stroke" d="M 4.51298 1.05606C 4.7363 1.21849 5.04901 1.16912 5.21143 0.945798C 5.37386 0.722476 5.32449 0.409766 5.10117 0.247341L 4.51298 1.05606ZM -0.344906 0.798827C -0.54483 0.989313 -0.552481 1.3058 -0.361995 1.50573C -0.171509 1.70565 0.144981 1.7133 0.344905 1.52282L -0.344906 0.798827ZM 4.80707 0.651702C 5.10117 0.247341 5.10094 0.247179 5.10071 0.24701C 5.10062 0.246945 5.10038 0.246769 5.1002 0.246638C 5.09984 0.246377 5.09944 0.246089 5.099 0.245774C 5.09813 0.245144 5.0971 0.244408 5.09593 0.243568C 5.09358 0.241888 5.09062 0.239793 5.08707 0.237305C 5.07998 0.23233 5.0705 0.225781 5.05872 0.21784C 5.03516 0.201967 5.00234 0.180491 4.96084 0.154889C 4.87796 0.103752 4.75986 0.0357595 4.61145 -0.037056C 4.31584 -0.182086 3.8927 -0.349827 3.38293 -0.438187C 2.34366 -0.618324 0.976037 -0.459757 -0.344906 0.798827L 0.344905 1.52282C 1.40796 0.509948 2.44387 0.413955 3.21214 0.547121C 3.60614 0.615413 3.93776 0.746289 4.17098 0.860713C 4.28698 0.917625 4.37681 0.969569 4.43575 1.00594C 4.46517 1.02409 4.48673 1.03826 4.49984 1.04709C 4.50638 1.0515 4.51081 1.05457 4.51302 1.05613C 4.51413 1.0569 4.51469 1.0573 4.51469 1.0573C 4.51468 1.0573 4.51454 1.05719 4.51426 1.05699C 4.51411 1.05689 4.51394 1.05676 4.51372 1.0566C 4.51362 1.05653 4.51343 1.05639 4.51338 1.05635C 4.51318 1.05621 4.51298 1.05606 4.80707 0.651702Z"/>
<path id="path5_fill" d="M 1.09429 2.19312C 1.69866 2.19312 2.18859 1.70218 2.18859 1.09657C 2.18859 0.49095 1.69866 0 1.09429 0C 0.489933 0 0 0.49095 0 1.09657C 0 1.70218 0.489933 2.19312 1.09429 2.19312Z"/>
<path id="path6_fill" d="M 9.53598 19.1115C 14.8026 19.1115 19.072 14.8333 19.072 9.55576C 19.072 4.27826 14.8026 0 9.53598 0C 4.2694 0 0 4.27826 0 9.55576C 0 14.8333 4.2694 19.1115 9.53598 19.1115Z"/>
<path id="path7_fill" d="M 56.7885 18.3054C 59.0552 22.9658 60.4622 28.3311 60.8139 34.0489L 61.322 42.5864C 61.3611 43.3697 61.4002 44.1138 61.4002 44.8971C 51.6688 46.8552 39.358 47.8343 25.992 47.4427C 16.8077 47.1685 8.09246 46.2678 0.432413 44.9362L 0.0806758 39.2184C -0.466471 30.211 1.80028 21.7126 5.94296 14.9374C 11.0627 6.59569 19.0745 0.877898 28.2978 0.0946385C 40.0614 -0.923598 50.7699 6.36071 56.5149 17.7963C 56.6322 17.9529 56.7103 18.1096 56.7885 18.3054Z"/>
<path id="path8_fill" d="M 16.4876 113.572C 25.5934 113.572 32.9751 88.1482 32.9751 56.7861C 32.9751 25.424 25.5934 0 16.4876 0C 7.38174 0 0 25.424 0 56.7861C 0 88.1482 7.38174 113.572 16.4876 113.572Z"/>
<path id="path9_fill" d="M 113.534 18.2694C 113.417 23.4781 104.975 27.9035 91.8439 30.5666C 82.1125 32.5247 69.8017 33.5038 56.4357 33.1122C 47.2514 32.838 38.5362 31.9373 30.8761 30.6057C 12.4295 27.3552 -0.154887 21.4024 0.00144026 14.9405C 0.157768 7.93037 15.2434 2.40839 36.4258 0.606896C 42.8352 0.0586148 49.8308 -0.1372 57.1001 0.0977781C 68.0821 0.411082 78.3215 1.62513 86.9977 3.46579C 103.06 6.83381 113.691 12.3558 113.534 18.2694Z"/>
<path id="path10_fill" d="M 126 69.7492L 0 69.7492C 0 69.7492 13.8741 20.3256 22.1594 11.6706C 28.8034 4.73872 38.8865 1.44903 42.6383 0.391627C 43.5763 0.117487 44.1235 -2.39032e-06 44.1235 -2.39032e-06L 80.7823 0.156647C 80.7823 0.156647 81.3685 0.313301 82.3846 0.587442C 86.2928 1.72317 96.3759 5.09119 103.098 11.0831C 111.579 18.6807 126 69.7492 126 69.7492Z"/>
<path id="path11_stroke" d="M -0.500006 -2.39032e-06L -0.500006 69.7492L 0.499994 69.7492L 0.499994 -2.39032e-06L -0.500006 -2.39032e-06Z"/>
<path id="path12_fill" d="M 37.8881 34.2284L 35.9731 33.4452C 31.9086 31.7612 29.1337 27.884 28.8602 23.4586L 27.805 12.5713C 27.805 10.9656 28.0004 9.39911 28.4303 7.91092C 29.0947 5.36533 30.3062 2.93722 31.9086 0.822422C 32.104 0.548281 32.3385 0.313301 32.5339 0.195812L 2.71438 -2.39032e-06L 2.04999 -2.39032e-06C 2.20632 0.0783235 2.40173 0.195814 2.55806 0.313302C 7.16972 3.75964 9.67096 9.35995 9.67096 15.1169L 9.51464 19.0724L 9.08473 23.302C 8.88932 28.2365 5.56736 32.5053 0.838456 33.9151C -0.412165 34.3851 -0.216757 36.2257 1.11203 36.4215L 8.69391 37.5181C 15.885 38.5755 23.1933 38.6147 30.4234 37.6748L 37.6536 36.7349C 38.9824 36.539 39.1778 34.6592 37.8881 34.2284Z"/>
<path id="path13_fill" d="M 29.9758 0.156653C 29.7804 0.274142 29.5459 0.509116 29.3505 0.783257C 27.7481 2.93722 26.5366 5.32616 25.8722 7.87176C 22.9411 11.044 16.6098 19.8948 6.56576 22.8712L 7.1129 15.1169C 7.1129 9.35995 4.61166 3.75964 1.19268e-06 0.313303C 0.0390831 0.195814 0.0781626 0.0783235 0.156326 -2.39032e-06L 29.9758 0.156653Z"/>
<path id="path14_fill" d="M 74.8809 18.5608C 75.428 19.5399 75.7798 20.7148 75.7798 21.9288C 75.7798 25.6885 72.7314 28.7432 68.9795 28.7432C 66.7519 28.7432 64.7978 27.6858 63.5471 26.0409C 60.6551 27.8424 57.255 28.8607 53.6203 28.8607C 52.018 28.8607 50.4938 28.6649 49.0478 28.3124C 46.4293 29.4481 43.4981 30.1139 40.4498 30.1922C 36.5806 33.2469 31.7345 35.0876 26.4194 35.0876C 20.6743 35.0876 15.4764 32.9336 11.4901 29.4089C 11.2165 29.4481 10.9429 29.4481 10.6694 29.4481C 6.91749 29.4481 3.86911 26.3934 3.86911 22.6338C 3.86911 21.6938 4.06452 20.7539 4.41625 19.9315C 1.79777 18.4825 -5.55387e-15 15.7019 -5.55387e-15 12.4905C -5.55387e-15 8.92671 2.18859 5.91117 5.27605 4.61879C 7.73821 3.95302 50.9237 -7.67838 77.6948 8.7309C 78.0465 9.67081 78.2419 10.689 78.2419 11.7856C 78.2419 14.5662 76.9132 16.9943 74.8809 18.5608Z"/>
<path id="path15_fill" d="M 33.6104 57.1779C 15.1247 57.1779 -5.96342e-07 42.0219 -5.96342e-07 23.4978C -5.96342e-07 10.574 10.5521 1.19516e-06 23.4491 1.19516e-06L 43.8499 1.19516e-06C 56.7469 1.19516e-06 67.299 10.574 67.299 23.4978C 67.2208 42.0219 52.0962 57.1779 33.6104 57.1779Z"/>
<path id="path16_stroke" d="M 0.500006 0C 0.500006 -0.276142 0.276148 -0.5 6.10352e-06 -0.5C -0.276136 -0.5 -0.499994 -0.276142 -0.499994 0L 0.500006 0ZM -0.499994 4.19044C -0.499994 4.46658 -0.276136 4.69044 6.10352e-06 4.69044C 0.276148 4.69044 0.500006 4.46658 0.500006 4.19044L -0.499994 4.19044ZM -0.499994 0L -0.499994 4.19044L 0.500006 4.19044L 0.500006 0L -0.499994 0Z"/>
<path id="path17_stroke" d="M 0.500006 -4.78063e-06C 0.500006 -0.276147 0.276148 -0.500005 6.10352e-06 -0.500005C -0.276136 -0.500005 -0.499994 -0.276147 -0.499994 -4.78063e-06L 0.500006 -4.78063e-06ZM -0.499994 4.15127C -0.499994 4.42741 -0.276136 4.65127 6.10352e-06 4.65127C 0.276148 4.65127 0.500006 4.42741 0.500006 4.15127L -0.499994 4.15127ZM -0.499994 -4.78063e-06L -0.499994 4.15127L 0.500006 4.15127L 0.500006 -4.78063e-06L -0.499994 -4.78063e-06Z"/>
<path id="path18_stroke" d="M 0.500006 0C 0.500006 -0.276142 0.276148 -0.5 6.10352e-06 -0.5C -0.276136 -0.5 -0.499994 -0.276142 -0.499994 0L 0.500006 0ZM -0.499994 4.15128C -0.499994 4.42742 -0.276136 4.65128 6.10352e-06 4.65128C 0.276148 4.65128 0.500006 4.42742 0.500006 4.15128L -0.499994 4.15128ZM -0.499994 0L -0.499994 4.15128L 0.500006 4.15128L 0.500006 0L -0.499994 0Z"/>
<path id="path19_stroke" d="M 0.500006 4.78063e-06C 0.500006 -0.276138 0.276148 -0.499995 6.10352e-06 -0.499995C -0.276136 -0.499995 -0.499994 -0.276138 -0.499994 4.78063e-06L 0.500006 4.78063e-06ZM -0.499994 4.15127C -0.499994 4.42741 -0.276136 4.65127 6.10352e-06 4.65127C 0.276148 4.65127 0.500006 4.42741 0.500006 4.15127L -0.499994 4.15127ZM -0.499994 4.78063e-06L -0.499994 4.15127L 0.500006 4.15127L 0.500006 4.78063e-06L -0.499994 4.78063e-06Z"/>
<path id="path20_stroke" d="M 0.500006 -2.39032e-06C 0.500006 -0.276145 0.276148 -0.500002 6.10352e-06 -0.500002C -0.276136 -0.500002 -0.499994 -0.276145 -0.499994 -2.39032e-06L 0.500006 -2.39032e-06ZM -0.499994 4.15127C -0.499994 4.42742 -0.276136 4.65127 6.10352e-06 4.65127C 0.276148 4.65127 0.500006 4.42742 0.500006 4.15127L -0.499994 4.15127ZM -0.499994 -2.39032e-06L -0.499994 4.15127L 0.500006 4.15127L 0.500006 -2.39032e-06L -0.499994 -2.39032e-06Z"/>
<path id="path21_fill" d="M 5.00248 10.0257C 7.76527 10.0257 10.005 7.78139 10.005 5.01286C 10.005 2.24433 7.76527 0 5.00248 0C 2.23969 0 -2.38537e-06 2.24433 -2.38537e-06 5.01286C -2.38537e-06 7.78139 2.23969 10.0257 5.00248 10.0257Z"/>
<path id="path22_fill" d="M 5.00248 10.0257C 7.76527 10.0257 10.005 7.78139 10.005 5.01286C 10.005 2.24433 7.76527 0 5.00248 0C 2.23969 0 0 2.24433 0 5.01286C 0 7.78139 2.23969 10.0257 5.00248 10.0257Z"/>
<path id="path23_fill" d="M 38.7692 1.19516e-06C 38.7692 8.49836 30.0931 15.391 19.3846 15.391C 8.67618 15.391 -1.19268e-06 8.49836 -1.19268e-06 1.19516e-06L 38.7692 1.19516e-06Z"/>
<path id="path24_fill" d="M 23.39 0.346897C 23.39 0.346897 3.34102 -0.63218 1.46509 0.699361C -0.410844 2.0309 -0.33268 3.36245 0.839777 3.71491C 2.01223 4.10654 24.328 4.49817 25.4223 3.71491C 26.5166 2.93165 26.2039 0.464385 23.39 0.346897Z"/>
<path id="path25_fill" d="M 23.39 0.346895C 23.39 0.346895 3.34102 -0.632181 1.46509 0.69936C -0.410844 2.0309 -0.33268 3.36244 0.839777 3.71491C 2.01223 4.10654 24.328 4.49817 25.4223 3.71491C 26.4384 2.97081 26.2039 0.464384 23.39 0.346895Z"/>
<path id="path26_fill" d="M 23.39 0.346894C 23.39 0.346894 3.34102 -0.632182 1.46509 0.699358C -0.410844 2.0309 -0.33268 3.36244 0.839777 3.71491C 2.01223 4.10654 24.328 4.49817 25.4223 3.71491C 26.5166 2.93165 26.2039 0.464383 23.39 0.346894Z"/>
<path id="path27_stroke" d="M -1 5.13035C -1 5.68263 -0.552285 6.13035 0 6.13035C 0.552285 6.13035 1 5.68263 1 5.13035L -1 5.13035ZM 9.23945 5.13035C 9.23945 5.68263 9.68717 6.13035 10.2395 6.13035C 10.7917 6.13035 11.2395 5.68263 11.2395 5.13035L 9.23945 5.13035ZM 1 5.13035C 1 2.86094 2.86007 1 5.11973 1L 5.11973 -0.999999C 1.7516 -0.999999 -1 1.76028 -1 5.13035L 1 5.13035ZM 5.11973 1C 7.37939 1 9.23945 2.86094 9.23945 5.13035L 11.2395 5.13035C 11.2395 1.76028 8.48786 -0.999999 5.11973 -0.999999L 5.11973 1Z"/>
<path id="path28_stroke" d="M -1 5.13035C -1 5.68263 -0.552285 6.13035 -5.96342e-07 6.13035C 0.552284 6.13035 0.999999 5.68263 0.999999 5.13035L -1 5.13035ZM 9.23946 5.13035C 9.23946 5.68263 9.68717 6.13035 10.2395 6.13035C 10.7917 6.13035 11.2395 5.68263 11.2395 5.13035L 9.23946 5.13035ZM 0.999999 5.13035C 0.999999 2.86094 2.86007 1 5.11973 1L 5.11973 -0.999999C 1.75159 -0.999999 -1 1.76028 -1 5.13035L 0.999999 5.13035ZM 5.11973 1C 7.37939 1 9.23946 2.86094 9.23946 5.13035L 11.2395 5.13035C 11.2395 1.76028 8.48786 -0.999999 5.11973 -0.999999L 5.11973 1Z"/>
<path id="path29_fill" d="M 55.7234 3.84675C 55.7234 3.84675 41.8493 33.7281 0.109871 26.4046C 0.109871 26.4046 -1.06259 16.3789 4.25255 13.1675C 9.56769 9.95617 9.64585 3.14182 21.2141 0.63539C 32.7823 -1.87104 55.7234 3.84675 55.7234 3.84675Z"/>
<path id="path30_fill" d="M 19.4494 5.67863C 17.8861 10.9656 12.3365 13.942 7.09951 12.3755C 1.82345 10.809 -1.14677 5.24784 0.416508 -1.19516e-06L 19.4494 5.67863Z"/>
</defs>
</svg>
