<svg width="218" height="230" viewBox="0 0 218 230" version="1.1" xmlns="http://www.w3.org/2000/svg" xmlns:xlink="http://www.w3.org/1999/xlink">
<title>Girl </title>
<desc>Created using Figma</desc>
<g id="Canvas" transform="translate(-11012 -18600)">
<g id="Girl ">
<g id="path0 fill 3">
<use xlink:href="#path0_fill" transform="matrix(-1 0 0 1 11230 18647)" fill="#BEE05F" fill-opacity="0.32"/>
</g>
<g id="Vector">
<use xlink:href="#path1_fill" transform="matrix(-1 0 0 1 11224.4 18647)" fill="#BEE05F"/>
</g>
<g id="Group">
<g id="Group">
<g id="Group">
<g id="Group">
<g id="Group">
<g id="Group">
<g id="Group">
<g id="Vector">
<use xlink:href="#path2_fill" transform="matrix(-1 0 0 1 11205.1 18677.4)" fill="#FFFFFF"/>
</g>
<g id="Vector">
<use xlink:href="#path3_fill" transform="matrix(-1 0 0 1 11227 18683.7)" fill="#FFFFFF"/>
</g>
<g id="Vector">
<use xlink:href="#path4_fill" transform="matrix(-1 0 0 1 11207.2 18704)" fill="#FFFFFF"/>
</g>
</g>
<g id="Group">
<g id="Group">
<g id="Vector">
<use xlink:href="#path5_fill" transform="matrix(-1 0 0 1 11181.1 18629.8)" fill="#333333"/>
</g>
<g id="Group">
<g id="Group">
<g id="Group">
<g id="Vector">
<use xlink:href="#path6_fill" transform="matrix(-1 0 0 1 11112.3 18650.1)" fill="#E06F58"/>
</g>
</g>
<g id="Vector">
<use xlink:href="#path7_stroke" transform="matrix(-1 0 0 1 11106.3 18655.6)" fill="#333333"/>
</g>
</g>
<g id="Vector">
<use xlink:href="#path8_fill" transform="matrix(-1 0 0 1 11104.5 18662.4)" fill="#FFC215"/>
</g>
</g>
<g id="Group">
<g id="Group">
<g id="Group">
<g id="Vector">
<use xlink:href="#path9_fill" transform="matrix(-1 0 0 1 11187.6 18650.1)" fill="#E06F58"/>
</g>
</g>
<g id="Vector">
<use xlink:href="#path10_stroke" transform="matrix(-1 0 0 1 11185.1 18655.6)" fill="#333333"/>
</g>
</g>
<g id="Vector">
<use xlink:href="#path11_fill" transform="matrix(-1 0 0 1 11183.5 18662.4)" fill="#FFC215"/>
</g>
</g>
<g id="Vector">
<use xlink:href="#path12_fill" transform="matrix(-1 0 0 1 11141.9 18608.5)" fill="#333333"/>
</g>
<g id="Group">
<g id="Group">
<g id="Group">
<g id="Vector">
<use xlink:href="#path13_fill" transform="matrix(-1 0 0 1 11196.9 18724.4)" fill="#96BF3D"/>
</g>
<g id="Vector">
<use xlink:href="#path14_fill" transform="matrix(-1 0 0 1 11164.6 18724.1)" fill="#FFC215"/>
</g>
<g id="Group">
<g id="Vector">
<use xlink:href="#path15_fill" transform="matrix(-1 0 0 1 11164.7 18684.5)" fill="#F2785F"/>
</g>
<g id="Vector">
<use xlink:href="#path16_fill" transform="matrix(-1 0 0 1 11161.6 18684.5)" fill="#CC6250"/>
</g>
<g id="Group">
<g id="Vector">
<use xlink:href="#path17_fill" transform="matrix(-1 0 0 1 11185.8 18620.9)" fill="#333333"/>
</g>
<g id="Vector">
<use xlink:href="#path18_fill" transform="matrix(-1 0 0 1 11183.2 18626.8)" fill="#FF8B6C"/>
</g>
</g>
</g>
</g>
<g id="Group">
<g id="Vector" opacity="0.42">
<use xlink:href="#path19_fill" transform="matrix(-1 0 0 1 11121.4 18657)" fill="url(#paint19_radial)"/>
</g>
<g id="Vector" opacity="0.42">
<use xlink:href="#path20_fill" transform="matrix(-1 0 0 1 11177.9 18657)" fill="url(#paint20_radial)"/>
</g>
</g>
</g>
<g id="Vector">
<use xlink:href="#path21_fill" transform="matrix(-1 0 0 1 11166.6 18668.2)" fill="#FFFFFF"/>
</g>
</g>
<g id="Group">
<g id="Vector">
<use xlink:href="#path22_stroke" transform="matrix(-1 0 0 1 11134.9 18647.4)" fill="#333333"/>
</g>
<g id="Vector">
<use xlink:href="#path23_stroke" transform="matrix(-1 0 0 1 11163.8 18647.4)" fill="#333333"/>
</g>
</g>
<g id="Vector">
<use xlink:href="#path24_fill" transform="matrix(-1 0 0 1 11184.7 18623.2)" fill="#333333"/>
</g>
<g id="Vector">
<use xlink:href="#path25_fill" transform="matrix(-1 0 0 1 11124.3 18627.2)" fill="#333333"/>
</g>
<g id="Vector">
<use xlink:href="#path26_stroke" transform="matrix(-1 0 0 1 11142.4 18638)" fill="#333333"/>
</g>
<g id="Vector">
<use xlink:href="#path27_stroke" transform="matrix(-1 0 0 1 11174 18638)" fill="#333333"/>
</g>
</g>
<g id="Vector">
<use xlink:href="#path28_fill" transform="matrix(-1 0 0 1 11203 18600)" fill="#333333"/>
</g>
<g id="Vector">
<use xlink:href="#path29_fill" transform="matrix(-1 0 0 1 11110.3 18635.8)" fill="#333333"/>
</g>
<g id="Vector">
<use xlink:href="#path30_fill" transform="matrix(-1 0 0 1 11116 18606.6)" fill="#FFC215"/>
</g>
</g>
</g>
</g>
</g>
</g>
</g>
</g>
</g>
</g>
<defs>
<radialGradient id="paint19_radial" cx="0.5" cy="0.5" r="0.5" gradientUnits="userSpaceOnUse" gradientTransform="matrix(35.1134 0 0 35.1002 -7.29512 -18.3654)">
<stop offset="0" stop-color="#D4145A" stop-opacity="0"/>
<stop offset="1" stop-color="#D4145A"/>
</radialGradient>
<radialGradient id="paint20_radial" cx="0.5" cy="0.5" r="0.5" gradientUnits="userSpaceOnUse" gradientTransform="matrix(35.1134 0 0 35.1002 -7.29563 -18.3654)">
<stop offset="0" stop-color="#D4145A" stop-opacity="0"/>
<stop offset="1" stop-color="#D4145A"/>
</radialGradient>
<path id="path0_fill" d="M 120.749 0C 111.086 0 101.759 1.51195 93.0198 4.31185C 90.3309 5.17982 87.726 6.15978 85.1491 7.25175C 52.63 21.1393 -3.41914e-06 47.8503 -3.41914e-06 85.537C -3.41914e-06 113.284 42.1824 143.747 61.7331 160.462C 77.6145 174.07 98.2296 182.274 120.749 182.274C 147.667 182.274 171.895 170.542 188.533 151.867C 202.901 135.767 211.64 114.488 211.64 91.1648C 211.64 40.7946 170.942 0 120.749 0Z"/>
<path id="path1_fill" d="M 211.64 91.1368C 211.64 114.46 202.901 135.739 188.533 151.839C 176.516 165.334 160.523 175.218 142.429 179.642C 135.482 181.35 128.228 182.246 120.749 182.246C 98.2296 182.246 77.6425 174.042 61.7331 160.434C 52.9381 152.903 39.5495 142.599 27.4774 131.007C 12.7444 116.84 -3.41914e-06 100.769 -3.41914e-06 85.537C -3.41914e-06 47.8503 52.602 21.1393 85.1491 7.25175C 87.698 6.15979 90.3309 5.17982 92.9918 4.31185C 101.731 1.51195 111.058 3.9789e-14 120.721 3.9789e-14C 170.942 7.9578e-14 211.64 40.7946 211.64 91.1368Z"/>
<path id="path2_fill" d="M 3.76816 14.091L 3.71215 11.3471C 3.71215 10.8431 3.43206 10.3392 3.01191 10.0592L 0.715108 8.54722C -0.377265 7.81925 -0.181178 6.1673 1.05124 5.74732L 3.62811 4.85135C 4.10427 4.68336 4.4964 4.29137 4.63645 3.78738L 5.36469 1.15548C 5.70081 -0.104478 7.35338 -0.412466 8.13765 0.623498L 9.79022 2.80742C 10.0983 3.2274 10.6025 3.4514 11.1067 3.4234L 13.8516 3.31141C 15.1681 3.25541 15.9523 4.71135 15.2241 5.77532L 13.6556 8.01524C 13.3474 8.43523 13.2914 8.99521 13.4875 9.47119L 14.4398 12.0471C 14.888 13.2791 13.7676 14.483 12.5071 14.119L 9.87426 13.3351C 9.37009 13.1951 8.83788 13.2791 8.44574 13.615L 6.31702 15.323C 5.30868 16.107 3.79617 15.407 3.76816 14.091Z"/>
<path id="path3_fill" d="M 0.906911 3.25664L 3.2317 3.06064C 3.56782 3.03264 3.84793 2.83665 4.01598 2.55666L 5.16437 0.512729C 5.58451 -0.215245 6.64889 -0.159249 6.95699 0.624724L 7.8813 2.78065C 8.02135 3.08864 8.27343 3.31264 8.60955 3.36863L 10.9063 3.84461C 11.7186 4.01261 11.9987 5.04857 11.3545 5.58056L 9.58988 7.1205C 9.33779 7.34449 9.22575 7.65249 9.25376 7.98847L 9.50586 10.3124C 9.58988 11.1524 8.69357 11.7123 7.99333 11.2924L 5.97666 10.0884C 5.69656 9.92041 5.33242 9.8924 5.05233 10.0324L 2.9236 11.0124C 2.16735 11.3484 1.35507 10.6764 1.52313 9.8644L 2.05531 7.59649C 2.13934 7.2885 2.02729 6.92451 1.83122 6.70052L 0.262694 4.96457C -0.297498 4.3206 0.094633 3.34064 0.906911 3.25664Z"/>
<path id="path4_fill" d="M 0.291532 5.1859L 1.01977 3.53396C 1.04778 3.44996 1.04779 3.36596 0.991771 3.28197L 0.039439 1.74202C -0.0725993 1.54603 0.0674554 1.32203 0.291532 1.35003L 2.08412 1.54602C 2.16815 1.54602 2.25219 1.51803 2.30821 1.46203L 3.4846 0.0900703C 3.62464 -0.077924 3.87676 0.00608 3.93278 0.202073L 4.32488 1.96601C 4.35289 2.05001 4.40894 2.10601 4.49297 2.16201L 6.17354 2.86198C 6.36961 2.94598 6.39761 3.22596 6.20155 3.33796L 4.63302 4.23393C 4.54899 4.28993 4.52098 4.34592 4.49297 4.42992L 4.35292 6.24986C 4.32491 6.47385 4.07282 6.55785 3.93278 6.41785L 2.5883 5.2139C 2.53228 5.1579 2.44824 5.1299 2.36421 5.1579L 0.599631 5.57788C 0.375554 5.60588 0.207503 5.38189 0.291532 5.1859Z"/>
<path id="path5_fill" d="M 0 12.8516L 0 120.704L 81.4238 120.704L 81.76 0L 0 12.8516Z"/>
<path id="path6_fill" d="M 7.05841 14.1115C 10.9567 14.1115 14.1168 10.9525 14.1168 7.05576C 14.1168 3.15897 10.9567 0 7.05841 0C 3.16015 0 6.83828e-06 3.15897 6.83828e-06 7.05576C 6.83828e-06 10.9525 3.16015 14.1115 7.05841 14.1115Z"/>
<path id="path7_stroke" d="M -0.290911 0.349746C -0.515496 0.510419 -0.567308 0.822733 -0.406635 1.04732C -0.245962 1.2719 0.0663522 1.32372 0.290938 1.16304L -0.290911 0.349746ZM 5.31555 1.70875C 5.51679 1.89785 5.83322 1.888 6.02231 1.68676C 6.21141 1.48552 6.20156 1.16909 6.00032 0.979997L 5.31555 1.70875ZM 1.36766e-05 0.756394C 0.290938 1.16304 0.290735 1.16319 0.290544 1.16332C 0.290494 1.16336 0.290312 1.16349 0.290213 1.16356C 0.290013 1.1637 0.289856 1.16381 0.28974 1.1639C 0.28951 1.16406 0.289447 1.1641 0.289551 1.16403C 0.289759 1.16388 0.290633 1.16327 0.292161 1.16222C 0.29522 1.16011 0.300891 1.15624 0.309087 1.1508C 0.325488 1.13993 0.351934 1.12284 0.387721 1.10111C 0.459398 1.0576 0.567899 0.995878 0.707629 0.928393C 0.988284 0.792847 1.38774 0.637511 1.86289 0.556266C 2.79466 0.396944 4.04457 0.514484 5.31555 1.70875L 6.00032 0.979997C 4.47034 -0.457642 2.89129 -0.634093 1.69434 -0.429428C 1.10513 -0.32868 0.615285 -0.137528 0.272729 0.0279147C 0.100854 0.110924 -0.035728 0.188327 -0.131232 0.246308C -0.179036 0.27533 -0.216705 0.299581 -0.243521 0.317362C -0.256934 0.326255 -0.267648 0.33354 -0.275572 0.339005C -0.279534 0.341738 -0.282801 0.344016 -0.285361 0.345815C -0.286641 0.346714 -0.287744 0.347494 -0.288669 0.34815C -0.289132 0.348478 -0.28955 0.348775 -0.289924 0.349041C -0.290111 0.349174 -0.290358 0.34935 -0.290451 0.349417C -0.290686 0.349585 -0.290911 0.349746 1.36766e-05 0.756394Z"/>
<path id="path8_fill" d="M 1.31644 2.63191C 2.0435 2.63191 2.63291 2.04274 2.63291 1.31596C 2.63291 0.589175 2.0435 0 1.31644 0C 0.589388 0 6.83828e-06 0.589175 6.83828e-06 1.31596C 6.83828e-06 2.04274 0.589388 2.63191 1.31644 2.63191Z"/>
<path id="path9_fill" d="M 7.0584 14.1115C 10.9567 14.1115 14.1168 10.9525 14.1168 7.05576C 14.1168 3.15897 10.9567 0 7.0584 0C 3.16015 0 0 3.15897 0 7.05576C 0 10.9525 3.16015 14.1115 7.0584 14.1115Z"/>
<path id="path10_stroke" d="M 5.36701 1.16304C 5.5916 1.32372 5.90391 1.2719 6.06458 1.04732C 6.22526 0.822733 6.17345 0.510419 5.94886 0.349746L 5.36701 1.16304ZM -0.342373 0.979997C -0.543613 1.16909 -0.553459 1.48552 -0.364365 1.68676C -0.17527 1.888 0.14116 1.89785 0.3424 1.70875L -0.342373 0.979997ZM 5.65794 0.756394C 5.94886 0.349746 5.94864 0.349585 5.9484 0.349417C 5.94831 0.34935 5.94806 0.349174 5.94787 0.349041C 5.9475 0.348775 5.94708 0.348478 5.94662 0.34815C 5.94569 0.347494 5.94459 0.346714 5.94331 0.345815C 5.94075 0.344016 5.93748 0.341738 5.93352 0.339005C 5.9256 0.33354 5.91488 0.326255 5.90147 0.317362C 5.87465 0.299581 5.83698 0.27533 5.78918 0.246308C 5.69368 0.188327 5.5571 0.110924 5.38522 0.0279147C 5.04266 -0.137528 4.55281 -0.32868 3.9636 -0.429428C 2.76665 -0.634093 1.18761 -0.457642 -0.342373 0.979997L 0.3424 1.70875C 1.61338 0.514484 2.86329 0.396944 3.79506 0.556266C 4.27021 0.637511 4.66966 0.792847 4.95032 0.928393C 5.09005 0.995878 5.19855 1.0576 5.27023 1.10111C 5.30601 1.12284 5.33246 1.13993 5.34886 1.1508C 5.35706 1.15624 5.36273 1.16011 5.36579 1.16222C 5.36732 1.16327 5.36819 1.16388 5.3684 1.16403C 5.3685 1.1641 5.36844 1.16406 5.36821 1.1639C 5.36809 1.16381 5.36794 1.1637 5.36774 1.16356C 5.36764 1.16349 5.36746 1.16336 5.36741 1.16332C 5.36721 1.16319 5.36701 1.16304 5.65794 0.756394Z"/>
<path id="path11_fill" d="M 1.31646 2.63191C 2.04352 2.63191 2.6329 2.04274 2.6329 1.31596C 2.6329 0.589175 2.04352 0 1.31646 0C 0.589409 0 -6.83828e-06 0.589175 -6.83828e-06 1.31596C -6.83828e-06 2.04274 0.589409 2.63191 1.31646 2.63191Z"/>
<path id="path12_fill" d="M 21.2873 42.5585C 33.0439 42.5585 42.5746 33.0315 42.5746 21.2793C 42.5746 9.52705 33.0439 0 21.2873 0C 9.53064 0 0 9.52705 0 21.2793C 0 33.0315 9.53064 42.5585 21.2873 42.5585Z"/>
<path id="path13_fill" d="M 114.951 102.364C 108.005 104.072 100.75 104.968 93.2719 104.968C 70.7522 104.968 50.1651 96.7646 34.2557 83.1571C 25.4607 75.6254 12.0721 65.3217 6.83828e-06 53.7301C 2.6049 33.0109 5.15375 15.9874 7.36651 13.6915C 15.1812 5.54381 27.0573 1.67995 31.4828 0.447988C 32.5191 0.167998 33.1353 0.0280007 33.2194 1.70893e-06L 55.0388 0.0839954L 76.3541 0.167998C 76.3541 0.167998 77.0544 0.33599 78.2588 0.699978C 82.8523 2.04393 94.7284 5.9918 102.655 13.0196C 106.24 16.1834 110.694 69.6616 114.951 102.364Z"/>
<path id="path14_fill" d="M 45.2696 2.93465C 45.2696 2.93465 33.5896 28.5538 18.9406 28.6378C 4.29159 28.7218 -0.189967 4.83859 0.00610048 2.03868C 0.202168 -0.761219 40.592 -0.873221 45.2696 2.93465Z"/>
<path id="path15_fill" d="M 44.6009 40.2066L 42.3602 39.2826C 37.5425 37.2947 34.2934 32.7589 33.9853 27.5511L 32.7249 14.7555C 32.7249 12.8796 32.977 11.0596 33.4531 9.26768C 34.2374 6.27178 35.6659 3.44388 37.5425 0.92397C 37.7946 0.587981 38.0467 0.335988 38.2988 0.195993L 3.17477 -3.41785e-06L 2.39049 -3.41785e-06C 2.58656 0.111993 2.78264 0.223996 3.00672 0.39199C 3.00672 0.39199 3.00671 0.39199 3.03472 0.39199C 8.46858 4.45185 11.4096 11.0316 11.4096 17.8074L 11.2135 22.4272L 10.6813 27.3831C 10.4572 33.1789 6.56392 38.1907 0.99001 39.8426C -0.494498 40.4026 -0.242418 42.5305 1.29811 42.7825L 10.2052 44.0985C 18.6921 45.3304 27.291 45.4144 35.7779 44.2945L 44.2648 43.1745C 45.8614 42.9225 46.1135 40.7386 44.6009 40.2066Z"/>
<path id="path16_fill" d="M 35.2641 0.223994C 35.012 0.363989 34.7599 0.643981 34.5078 0.95197C 32.6031 3.47188 31.2027 6.29978 30.4184 9.29568C 26.9732 13.0195 19.5227 23.4352 7.70264 26.9071L 8.37488 17.8074C 8.37488 11.0316 5.43387 4.45185 6.83828e-06 0.39199C 0.056026 0.251995 0.112038 0.139992 0.168057 -3.41785e-06L 35.2641 0.223994Z"/>
<path id="path17_fill" d="M 83.6366 22.6005C 84.3088 23.7765 84.673 25.1204 84.673 26.5484C 84.673 30.9722 81.0877 34.5561 76.6622 34.5561C 74.0573 34.5561 71.7606 33.3241 70.276 31.3922C 66.8869 33.4921 62.8815 34.7241 58.596 34.7241C 56.7194 34.7241 54.9268 34.5001 53.1902 34.0521C 50.0811 35.3961 46.664 36.18 43.0787 36.236C 38.5412 39.8479 32.7992 42.0038 26.5531 42.0038C 19.8028 42.0038 13.6407 39.4839 8.96307 35.3401C 8.65496 35.3681 8.34685 35.3961 8.01073 35.3961C 3.58522 35.3961 -6.36864e-14 31.8122 -6.36864e-14 27.3883C -6.36864e-14 26.2684 0.22409 25.2044 0.644234 24.2244C 0.92433 20.6126 6.3862 18.7086 6.3862 14.9288C 6.3862 10.7569 12.8004 15.9647 11.8481 8.76899L 12.9124 8.90898C 15.8254 8.09701 51.0895 -10.5783 82.6003 8.68499C 83.0204 9.80495 84.4489 13.6688 84.4489 14.9288C 84.5049 18.1767 86.0454 20.7806 83.6366 22.6005Z"/>
<path id="path18_fill" d="M 39.5775 67.1417C 17.8141 67.1417 6.83828e-06 49.3343 6.83828e-06 27.579C 6.83828e-06 12.4036 12.4082 -8.54463e-07 27.5894 -8.54463e-07L 51.5936 -8.54463e-07C 66.7748 -8.54463e-07 79.1831 12.4036 79.1831 27.579C 79.1831 49.3343 61.369 67.1417 39.5775 67.1417Z"/>
<path id="path19_fill" d="M 5.882 11.7596C 9.13055 11.7596 11.764 9.12712 11.764 5.8798C 11.764 2.63248 9.13055 0 5.882 0C 2.63346 0 -6.83828e-06 2.63248 -6.83828e-06 5.8798C -6.83828e-06 9.12712 2.63346 11.7596 5.882 11.7596Z"/>
<path id="path20_fill" d="M 5.882 11.7596C 9.13054 11.7596 11.764 9.12712 11.764 5.8798C 11.764 2.63248 9.13054 0 5.882 0C 2.63345 0 -1.36766e-05 2.63248 -1.36766e-05 5.8798C -1.36766e-05 9.12712 2.63345 11.7596 5.882 11.7596Z"/>
<path id="path21_fill" d="M 43.2228 0C 44.5113 0 45.4636 1.14796 45.2395 2.40792C 43.755 11.2556 34.2037 18.0594 22.6358 18.0594C 11.0678 18.0594 1.51657 11.2556 0.0320603 2.40792C -0.192016 1.14796 0.788305 0 2.04874 0L 43.2228 0Z"/>
<path id="path22_stroke" d="M -1.49999 6.04779C -1.49999 6.87622 -0.828413 7.54779 1.36766e-05 7.54779C 0.828441 7.54779 1.50001 6.87622 1.50001 6.04779L -1.49999 6.04779ZM 10.6001 6.04779C 10.6001 6.87622 11.2717 7.54779 12.1001 7.54779C 12.9286 7.54779 13.6001 6.87622 13.6001 6.04779L 10.6001 6.04779ZM 1.50001 6.04779C 1.50001 3.54486 3.54483 1.5 6.05008 1.5L 6.05008 -1.5C 1.88904 -1.5 -1.49999 1.88695 -1.49999 6.04779L 1.50001 6.04779ZM 6.05008 1.5C 8.55532 1.5 10.6001 3.54486 10.6001 6.04779L 13.6001 6.04779C 13.6001 1.88695 10.2111 -1.5 6.05008 -1.5L 6.05008 1.5Z"/>
<path id="path23_stroke" d="M -1.5 6.04779C -1.5 6.87622 -0.828427 7.54779 0 7.54779C 0.828427 7.54779 1.5 6.87622 1.5 6.04779L -1.5 6.04779ZM 10.6001 6.04779C 10.6001 6.87622 11.2717 7.54779 12.1001 7.54779C 12.9286 7.54779 13.6001 6.87622 13.6001 6.04779L 10.6001 6.04779ZM 1.5 6.04779C 1.5 3.54486 3.54482 1.5 6.05006 1.5L 6.05006 -1.5C 1.88903 -1.5 -1.5 1.88695 -1.5 6.04779L 1.5 6.04779ZM 6.05006 1.5C 8.55531 1.5 10.6001 3.54486 10.6001 6.04779L 13.6001 6.04779C 13.6001 1.88695 10.2111 -1.5 6.05006 -1.5L 6.05006 1.5Z"/>
<path id="path24_fill" d="M 65.6143 4.52402C 65.6143 4.52402 49.2847 39.6068 0.127915 30.9831C 0.127915 30.9831 -1.24455 19.2235 5.00159 15.4437C 11.2477 11.6638 11.3037 3.68405 24.9444 0.744155C 38.5851 -2.19574 65.6143 4.52402 65.6143 4.52402Z"/>
<path id="path25_fill" d="M 22.927 6.69177C 21.0784 12.8796 14.5522 16.4074 8.36206 14.5595C 2.17194 12.7116 -1.35726 6.18779 0.491374 0L 22.927 6.69177Z"/>
<path id="path26_stroke" d="M 26.0012 13.4955C 26.0012 20.3963 20.4049 25.9911 13.5006 25.9911L 13.5006 27.9911C 21.5087 27.9911 28.0012 21.5016 28.0012 13.4955L 26.0012 13.4955ZM 13.5006 25.9911C 6.59637 25.9911 0.999993 20.3963 0.999993 13.4955L -1.00001 13.4955C -1.00001 21.5016 5.49252 27.9911 13.5006 27.9911L 13.5006 25.9911ZM 0.999993 13.4955C 0.999993 6.5948 6.59637 1 13.5006 1L 13.5006 -0.999999C 5.49252 -0.999999 -1.00001 5.48951 -1.00001 13.4955L 0.999993 13.4955ZM 13.5006 1C 20.4049 1 26.0012 6.5948 26.0012 13.4955L 28.0012 13.4955C 28.0012 5.48952 21.5087 -0.999999 13.5006 -0.999999L 13.5006 1Z"/>
<path id="path27_stroke" d="M 26.0012 13.4955C 26.0012 20.3963 20.4049 25.9911 13.5006 25.9911L 13.5006 27.9911C 21.5087 27.9911 28.0012 21.5016 28.0012 13.4955L 26.0012 13.4955ZM 13.5006 25.9911C 6.59636 25.9911 1.00001 20.3963 1.00001 13.4955L -0.999993 13.4955C -0.999993 21.5016 5.49249 27.9911 13.5006 27.9911L 13.5006 25.9911ZM 1.00001 13.4955C 1.00001 6.59479 6.59636 1 13.5006 1L 13.5006 -0.999999C 5.49249 -0.999999 -0.999993 5.48952 -0.999993 13.4955L 1.00001 13.4955ZM 13.5006 1C 20.4049 1 26.0012 6.5948 26.0012 13.4955L 28.0012 13.4955C 28.0012 5.48951 21.5087 -0.999999 13.5006 -0.999999L 13.5006 1Z"/>
<path id="path28_fill" d="M 92.8191 12.7487C 86.685 -6.96263 33.6909 0.149122 13.8601 7.82086C -1.15305 13.6167 -9.55593 45.3956 18.5097 54.2433C 18.5097 54.2433 100.13 36.2399 92.8191 12.7487Z"/>
<path id="path29_fill" d="M 4.6776 55.5781L 2.40883 55.5781C 1.09238 55.5781 1.36766e-05 54.4861 1.36766e-05 53.1702L 1.36766e-05 2.40791C 1.36766e-05 1.09196 1.09238 8.54463e-07 2.40883 8.54463e-07L 4.6776 8.54463e-07C 5.99405 8.54463e-07 7.08642 1.09196 7.08642 2.40791L 7.08642 53.1702C 7.08642 54.4861 5.99405 55.5781 4.6776 55.5781Z"/>
<path id="path30_fill" d="M 8.14926 1.16448L 8.14926 2.84442C 8.14926 3.23641 8.34531 3.6004 8.65341 3.79639L 10.0539 4.74836C 10.8382 5.30834 10.6701 6.5123 9.74579 6.82029L 8.14926 7.35227C 7.78513 7.46426 7.50502 7.77225 7.39298 8.13624L 6.91683 9.76018C 6.63673 10.6842 5.43232 10.9081 4.84412 10.1242L 3.86378 8.75222C 3.6397 8.44423 3.27558 8.27624 2.88344 8.27624L 1.20287 8.33223C 0.222535 8.36023 -0.337657 7.26827 0.222535 6.4843L 1.20287 5.11235C 1.42695 4.80436 1.48296 4.41237 1.37092 4.04838L 0.810729 2.45244C 0.474614 1.52847 1.34293 0.660498 2.26725 0.940489L 3.86378 1.47247C 4.2279 1.58447 4.62005 1.52847 4.92816 1.27648L 6.2726 0.240513C 7.02886 -0.347467 8.14926 0.212514 8.14926 1.16448Z"/>
</defs>
</svg>
