<svg width="175" height="170" viewBox="0 0 175 170" version="1.1" xmlns="http://www.w3.org/2000/svg" xmlns:xlink="http://www.w3.org/1999/xlink">
<title>Group</title>
<desc>Created using Figma</desc>
<g id="Canvas" transform="translate(-2715 -748)">
<g id="Group">
<g id="Group">
<g id="Group">
<g id="Vector">
<use xlink:href="#path0_fill" transform="translate(2859.2 888.461)" fill="#96BF3D"/>
</g>
<g id="Vector">
<use xlink:href="#path1_fill" transform="translate(2823.12 888.461)" fill="#96BF3D"/>
</g>
<g id="Vector">
<use xlink:href="#path2_fill" transform="translate(2787.05 888.461)" fill="#96BF3D"/>
</g>
<g id="Vector">
<use xlink:href="#path3_fill" transform="translate(2750.97 888.461)" fill="#96BF3D"/>
</g>
<g id="Vector">
<use xlink:href="#path4_fill" transform="translate(2715 888.465)" fill="#96BF3D"/>
</g>
</g>
<g id="Group">
<g id="Vector">
<use xlink:href="#path5_fill" transform="translate(2746.38 748)" fill="url(#paint5_linear)"/>
</g>
<g id="Vector">
<use xlink:href="#path6_fill" transform="translate(2761.73 748)" fill="#96BF3D"/>
</g>
<g id="Vector" opacity="0.3">
<use xlink:href="#path7_fill" transform="matrix(0.533242 -0.845905 0.844693 0.535159 2808.23 768.275)" fill="#FFFFFF"/>
</g>
<g id="Group">
<g id="Vector">
<use xlink:href="#path8_stroke" transform="translate(2787.14 790.888)" fill="#58595B"/>
</g>
<g id="Vector">
<use xlink:href="#path9_stroke" transform="translate(2823.22 790.888)" fill="#58595B"/>
</g>
</g>
<g id="Vector">
<use xlink:href="#path10_fill" transform="translate(2788.58 813.29)" fill="#E8E8E8"/>
</g>
<g id="Vector">
<use xlink:href="#path11_fill" transform="translate(2791.61 825.032)" fill="#58595B"/>
</g>
<g id="Vector">
<use xlink:href="#path12_fill" transform="translate(2842.46 804.762)" fill="url(#paint12_linear)"/>
</g>
<g id="Vector">
<use xlink:href="#path13_fill" transform="translate(2772.72 804.762)" fill="url(#paint13_linear)"/>
</g>
</g>
</g>
</g>
</g>
<defs>
<linearGradient id="paint5_linear" x1="0" y1="0" x2="1" y2="0" gradientUnits="userSpaceOnUse" gradientTransform="matrix(42.9522 -48.0992 47.9786 43.0602 -22.399 95.8056)">
<stop offset="0" stop-color="#83A033"/>
<stop offset="1" stop-color="#96BF3D"/>
</linearGradient>
<linearGradient id="paint12_linear" x1="0" y1="0" x2="1" y2="0" gradientUnits="userSpaceOnUse" gradientTransform="matrix(0 22.212 -22.1563 0 16.5237 -9.66849)">
<stop offset="0" stop-color="#83A033"/>
<stop offset="1" stop-color="#96BF3D"/>
</linearGradient>
<linearGradient id="paint13_linear" x1="0" y1="0" x2="1" y2="0" gradientUnits="userSpaceOnUse" gradientTransform="matrix(0 22.212 -22.1563 0 16.5087 -9.66849)">
<stop offset="0" stop-color="#83A033"/>
<stop offset="1" stop-color="#96BF3D"/>
</linearGradient>
<path id="path0_fill" d="M 17.9692 1.57172L 20.5281 6.77465C 20.9246 7.60567 21.7175 8.18377 22.6545 8.32829L 28.385 9.15932C 30.6917 9.48451 31.6287 12.3389 29.9348 13.9648L 25.7901 18.0115C 25.1414 18.6619 24.817 19.6013 24.9612 20.5046L 25.9343 26.2134C 26.3307 28.5258 23.916 30.2962 21.8256 29.2123L 16.7078 26.5024C 15.8789 26.0688 14.9058 26.0688 14.0768 26.5024L 8.95903 29.2123C 6.90471 30.2962 4.45393 28.5258 4.85038 26.2134L 5.82348 20.5046C 5.96764 19.6013 5.67932 18.6619 4.99454 18.0115L 0.849847 13.9648C -0.808032 12.3389 0.0929848 9.48451 2.3996 9.15932L 8.1301 8.32829C 9.03112 8.18377 9.86006 7.60567 10.2565 6.77465L 12.8154 1.57172C 13.9327 -0.523904 16.9241 -0.523904 17.9692 1.57172Z"/>
<path id="path1_fill" d="M 17.9692 1.57172L 20.5281 6.77465C 20.9246 7.60567 21.7175 8.18377 22.6545 8.32829L 28.385 9.15932C 30.6917 9.48451 31.6287 12.3389 29.9348 13.9648L 25.7901 18.0115C 25.1414 18.6619 24.817 19.6013 24.9612 20.5046L 25.9343 26.2134C 26.3307 28.5258 23.916 30.2962 21.8256 29.2123L 16.7078 26.5024C 15.8789 26.0688 14.9058 26.0688 14.0768 26.5024L 8.95903 29.2123C 6.9047 30.2962 4.45393 28.5258 4.85038 26.2134L 5.82349 20.5046C 5.96765 19.6013 5.67932 18.6619 4.99454 18.0115L 0.849844 13.9648C -0.808034 12.3389 0.0929936 9.48451 2.39961 9.15932L 8.1301 8.32829C 9.03112 8.18377 9.86005 7.60567 10.2565 6.77465L 12.8154 1.57172C 13.9327 -0.523904 16.9241 -0.523904 17.9692 1.57172Z"/>
<path id="path2_fill" d="M 17.9692 1.57172L 20.5281 6.77465C 20.9246 7.60567 21.7175 8.18377 22.6545 8.32829L 28.385 9.15932C 30.6917 9.48451 31.6287 12.3389 29.9348 13.9648L 25.7901 18.0115C 25.1414 18.6619 24.817 19.6013 24.9612 20.5046L 25.9343 26.2134C 26.3307 28.5258 23.916 30.2962 21.8256 29.2123L 16.7078 26.5024C 15.8789 26.0688 14.9058 26.0688 14.0768 26.5024L 8.95903 29.2123C 6.90471 30.2962 4.45393 28.5258 4.85038 26.2134L 5.82348 20.5046C 5.96765 19.6013 5.67932 18.6619 4.99454 18.0115L 0.849848 13.9648C -0.80803 12.3389 0.0929913 9.48451 2.3996 9.15932L 8.13009 8.32829C 9.03112 8.18377 9.86005 7.60567 10.2565 6.77465L 12.8154 1.57172C 13.9687 -0.523904 16.9601 -0.523904 17.9692 1.57172Z"/>
<path id="path3_fill" d="M 17.9692 1.57172L 20.5281 6.77465C 20.9246 7.60567 21.7175 8.18377 22.6545 8.32829L 28.385 9.15932C 30.6917 9.48451 31.6287 12.3389 29.9348 13.9648L 25.7901 18.0115C 25.1414 18.6619 24.817 19.6013 24.9612 20.5046L 25.9343 26.2134C 26.3307 28.5258 23.916 30.2962 21.8256 29.2123L 16.7078 26.5024C 15.8789 26.0688 14.9058 26.0688 14.0768 26.5024L 8.95903 29.2123C 6.90471 30.2962 4.45393 28.5258 4.85038 26.2134L 5.82348 20.5046C 5.96764 19.6013 5.67932 18.6619 4.99454 18.0115L 0.849846 13.9648C -0.808033 12.3389 0.0929893 9.48451 2.3996 9.15932L 8.1301 8.32829C 9.03112 8.18377 9.86006 7.60567 10.2565 6.77465L 12.8154 1.57172C 13.9687 -0.523904 16.9601 -0.523904 17.9692 1.57172Z"/>
<path id="path4_fill" d="M 17.8611 1.56723L 20.42 6.77016C 20.8165 7.60118 21.6094 8.17928 22.5464 8.32381L 28.2769 9.15484C 30.5835 9.48002 31.5206 12.3344 29.8267 13.9603L 25.682 18.007C 25.0332 18.6574 24.7089 19.5968 24.853 20.5001L 25.8261 26.2089C 26.2226 28.5213 23.8079 30.2917 21.7175 29.2078L 16.5997 26.4979C 15.7708 26.0644 14.7976 26.0644 13.9687 26.4979L 8.85091 29.2078C 6.79658 30.2917 4.34581 28.5213 4.74226 26.2089L 5.71536 20.5001C 5.85952 19.5968 5.5712 18.6574 4.88642 18.007L 0.849847 13.9964C -0.808032 12.3705 0.0929891 9.51615 2.3996 9.19097L 8.1301 8.35994C 9.03112 8.21541 9.86005 7.63732 10.2565 6.80629L 12.8154 1.60337C 13.8606 -0.528389 16.852 -0.528391 17.8611 1.56723Z"/>
<path id="path5_fill" d="M 112.267 56.2928C 112.267 70.095 107.294 82.741 99.0762 92.5326C 88.7686 104.781 73.3791 112.549 56.1516 112.549C 25.1565 112.549 -5.4994e-07 87.3658 -5.4994e-07 56.2567C -5.4994e-07 35.2282 11.497 16.8734 28.5443 7.22629C 36.6896 2.6376 46.0962 0 56.1156 0C 87.1107 0 112.267 25.1836 112.267 56.2928Z"/>
<path id="path6_fill" d="M 96.9138 56.2928C 96.9138 70.095 91.9402 82.741 83.7229 92.5326C 75.5776 97.1575 66.171 99.7951 56.1516 99.7951C 25.1565 99.7951 -1.09988e-06 74.6114 -1.09988e-06 43.5023C -1.09988e-06 29.7 4.97364 17.054 13.1909 7.26242C 21.3362 2.6376 30.7428 0 40.7622 0C 71.7573 0 96.9138 25.1836 96.9138 56.2928Z"/>
<path id="path7_fill" d="M 6.24627 18.1055C 9.696 18.1055 12.4925 14.0524 12.4925 9.05275C 12.4925 4.05305 9.696 0 6.24627 0C 2.79656 0 -2.20371e-06 4.05305 -2.20371e-06 9.05275C -2.20371e-06 14.0524 2.79656 18.1055 6.24627 18.1055Z"/>
<path id="path8_stroke" d="M -3.5 7.76826C -3.5 9.70126 -1.933 11.2683 -1.09988e-06 11.2683C 1.933 11.2683 3.5 9.70126 3.5 7.76826L -3.5 7.76826ZM 11.9976 7.76826C 11.9976 9.70126 13.5646 11.2683 15.4976 11.2683C 17.4306 11.2683 18.9976 9.70126 18.9976 7.76826L 11.9976 7.76826ZM 3.5 7.76826C 3.5 5.39332 5.4012 3.5 7.74878 3.5L 7.74878 -3.5C 1.51864 -3.5 -3.5 1.54391 -3.5 7.76826L 3.5 7.76826ZM 7.74878 3.5C 10.0964 3.5 11.9976 5.39332 11.9976 7.76826L 18.9976 7.76826C 18.9976 1.54391 13.9789 -3.5 7.74878 -3.5L 7.74878 3.5Z"/>
<path id="path9_stroke" d="M -3.5 7.76826C -3.5 9.70126 -1.933 11.2683 -4.39952e-06 11.2683C 1.93299 11.2683 3.5 9.70126 3.5 7.76826L -3.5 7.76826ZM 11.9976 7.76826C 11.9976 9.70126 13.5646 11.2683 15.4976 11.2683C 17.4306 11.2683 18.9976 9.70126 18.9976 7.76826L 11.9976 7.76826ZM 3.5 7.76826C 3.5 5.39332 5.40119 3.5 7.74878 3.5L 7.74878 -3.5C 1.51864 -3.5 -3.5 1.54391 -3.5 7.76826L 3.5 7.76826ZM 7.74878 3.5C 10.0964 3.5 11.9976 5.39332 11.9976 7.76826L 18.9976 7.76826C 18.9976 1.54391 13.9789 -3.5 7.74878 -3.5L 7.74878 3.5Z"/>
<path id="path10_fill" d="M 48.6551 -1.10264e-06C 48.6551 3.72154 47.8262 7.26242 46.3125 10.4059C 46.0962 10.8394 45.88 11.3091 45.6277 11.7427C 45.5556 11.8872 45.4475 12.0318 45.3754 12.1763C 41.1586 19.4387 33.3378 24.3526 24.3276 24.3526C 15.3174 24.3526 7.46045 19.4387 3.27972 12.1763C 3.20764 12.0318 3.09951 11.8872 3.02743 11.7427C 2.77515 11.3091 2.5589 10.8756 2.34265 10.4059C 0.864979 7.26242 -1.09988e-06 3.72154 -1.09988e-06 -1.10264e-06L 48.6551 -1.10264e-06Z"/>
<path id="path11_fill" d="M 42.6003 -1.10264e-06C 42.5282 0.144525 42.4201 0.289049 42.348 0.433575L 0.252287 0.433575C 0.180205 0.289049 0.0720839 0.144525 2.19976e-06 -1.10264e-06L 42.6003 -1.10264e-06Z"/>
<path id="path12_fill" d="M 4.39952e-06 5.45585C 4.39952e-06 2.45694 2.45077 2.20529e-06 5.44216 2.20529e-06C 8.43355 2.20529e-06 10.8843 2.45694 10.8843 5.45585L 4.39952e-06 5.45585Z"/>
<path id="path13_fill" d="M -1.09988e-06 5.45585C -1.09988e-06 2.45694 2.45078 2.20529e-06 5.44217 2.20529e-06C 8.43356 2.20529e-06 10.8843 2.45694 10.8843 5.45585L -1.09988e-06 5.45585Z"/>
</defs>
</svg>
