<svg width="216" height="221" viewBox="0 0 216 221" version="1.1" xmlns="http://www.w3.org/2000/svg" xmlns:xlink="http://www.w3.org/1999/xlink">
<title>Hand with Phone</title>
<desc>Created using Figma</desc>
<g id="Canvas" transform="translate(-10234 -18610)">
<g id="Hand with Phone">
<g id="Group">
<g id="Vector">
<use xlink:href="#path0_fill" transform="translate(10239.5 18649.6)" fill="#BEE05F" fill-opacity="0.32"/>
</g>
</g>
<g id="Vector">
<use xlink:href="#path1_fill" transform="translate(10234 18649.5)" fill="#BEE05F"/>
</g>
<g id="Group">
<g id="Group">
<g id="Vector">
<use xlink:href="#path2_fill" transform="translate(10272 18738.3)" fill="#FF8B6C"/>
</g>
<g id="Vector" opacity="0.33">
<use xlink:href="#path3_fill" transform="translate(10342.3 18763.4)" fill="url(#paint3_linear)"/>
</g>
</g>
<g id="Group">
<g id="Vector">
<use xlink:href="#path4_fill" transform="translate(10412.3 18689.6)" fill="#E06251"/>
</g>
<g id="Vector">
<use xlink:href="#path5_fill" transform="translate(10412.3 18705.7)" fill="#E06251"/>
</g>
</g>
<g id="Group">
<g id="Vector">
<use xlink:href="#path6_fill" transform="translate(10377.9 18670.9)" fill="#FF8B6C"/>
</g>
<g id="Vector">
<use xlink:href="#path7_fill" transform="translate(10393.3 18673)" fill="url(#paint7_linear)"/>
</g>
</g>
<g id="Group">
<g id="Vector">
<use xlink:href="#path8_fill" transform="translate(10400.1 18727.2)" fill="#FF8B6C"/>
</g>
<g id="Vector">
<use xlink:href="#path9_fill" transform="translate(10400.1 18727.2)" fill="url(#paint9_linear)"/>
</g>
</g>
<g id="Group">
<g id="Vector">
<use xlink:href="#path10_fill" transform="translate(10334.6 18610)" fill="url(#paint10_linear)"/>
</g>
<g id="Group">
<g id="Vector">
<use xlink:href="#path11_fill" transform="translate(10332.8 18610)" fill="#BEE05F"/>
</g>
<g id="Vector">
<use xlink:href="#path11_fill" transform="translate(10332.8 18610)" fill="#D5E5B1"/>
</g>
<g id="Vector">
<use xlink:href="#path12_stroke" transform="translate(10364.5 18612.3)" fill="#769327"/>
</g>
<g id="Vector">
<use xlink:href="#path13_fill" transform="translate(10332.8 18614.9)" fill="#EEEEEE"/>
</g>
</g>
<g id="Group">
<g id="Vector">
<use xlink:href="#path14_fill" transform="translate(10349 18655)" fill="#96BF3D"/>
</g>
<g id="Vector">
<use xlink:href="#path15_fill" transform="translate(10391.5 18654.6)" fill="#96BF3D"/>
</g>
<g id="Vector">
<use xlink:href="#path16_fill" transform="translate(10372.8 18663.3)" fill="#59595B"/>
</g>
<g id="Vector">
<use xlink:href="#path17_fill" transform="translate(10379.8 18662.4)" fill="#59595B"/>
</g>
<g id="Vector">
<use xlink:href="#path18_fill" transform="translate(10387.8 18658.2)" fill="#59595B"/>
</g>
<g id="Vector">
<use xlink:href="#path19_fill" transform="translate(10356.8 18659.8)" fill="#59595B"/>
</g>
<g id="Vector">
<use xlink:href="#path20_fill" transform="translate(10367.7 18663.4)" fill="#5A595B"/>
</g>
<g id="Vector">
<use xlink:href="#path21_fill" transform="translate(10384 18660.8)" fill="#5A5A5C"/>
</g>
<g id="Vector">
<use xlink:href="#path22_fill" transform="translate(10354 18658.1)" fill="#5A5A5C"/>
</g>
<g id="Vector">
<use xlink:href="#path23_fill" transform="translate(10365.8 18659.8)" fill="#5A5A5C"/>
</g>
<g id="Vector">
<use xlink:href="#path24_fill" transform="translate(10363.6 18662.5)" fill="#5C5B5D"/>
</g>
<g id="Vector">
<use xlink:href="#path25_fill" transform="translate(10365 18660.8)" fill="#605F61"/>
</g>
</g>
</g>
<g id="Group">
<g id="Group">
<g id="Vector">
<use xlink:href="#path26_fill" transform="translate(10405.4 18690)" fill="#FF8B6C"/>
</g>
</g>
<g id="Vector">
<use xlink:href="#path27_fill" transform="translate(10406.8 18692.9)" fill="url(#paint28_linear)"/>
</g>
</g>
<g id="Group">
<g id="Group">
<g id="Vector">
<use xlink:href="#path28_fill" transform="translate(10405.4 18706)" fill="#FF8B6C"/>
</g>
</g>
<g id="Vector">
<use xlink:href="#path29_fill" transform="translate(10406.8 18708.9)" fill="url(#paint30_linear)"/>
</g>
</g>
<g id="Group">
<g id="Vector">
<use xlink:href="#path30_fill" transform="translate(10300.7 18685.1)" fill="#FF8B6C"/>
</g>
<g id="Vector" opacity="0.54">
<use xlink:href="#path31_fill" transform="translate(10300.7 18713.1)" fill="url(#paint32_linear)"/>
</g>
</g>
</g>
</g>
</g>
<defs>
<linearGradient id="paint3_linear" x1="0" y1="0" x2="1" y2="0" gradientUnits="userSpaceOnUse" gradientTransform="matrix(-28.7573 0 0 28.7464 28.7582 -6.93964)">
<stop offset="0" stop-color="#E26850"/>
<stop offset="1" stop-color="#E26850" stop-opacity="0"/>
</linearGradient>
<linearGradient id="paint7_linear" x1="0" y1="0" x2="1" y2="0" gradientUnits="userSpaceOnUse" gradientTransform="matrix(28.2336 -5.23744 5.23942 28.223 1.02882 -4.02315)">
<stop offset="0" stop-color="#E26850"/>
<stop offset="1" stop-color="#E26850" stop-opacity="0"/>
</linearGradient>
<linearGradient id="paint9_linear" x1="0" y1="0" x2="1" y2="0" gradientUnits="userSpaceOnUse" gradientTransform="matrix(23.2596 3.67465 -3.67604 23.2508 2.26248 -6.62746)">
<stop offset="0" stop-color="#E26850"/>
<stop offset="1" stop-color="#E26850" stop-opacity="0"/>
</linearGradient>
<linearGradient id="paint10_linear" x1="0" y1="0" x2="1" y2="0" gradientUnits="userSpaceOnUse" gradientTransform="matrix(-56.5152 -0 -0 -56.4939 115.994 105.02)">
<stop offset="0" stop-color="#718F2E"/>
<stop offset="0.2723" stop-color="#769630"/>
<stop offset="0.6694" stop-color="#85AA36"/>
<stop offset="1" stop-color="#96BF3D"/>
</linearGradient>
<linearGradient id="paint28_linear" x1="0" y1="0" x2="1" y2="0" gradientUnits="userSpaceOnUse" gradientTransform="matrix(-8.51488 -7.05013 7.05278 -8.51168 17.5424 21.4452)">
<stop offset="0" stop-color="#E26850"/>
<stop offset="1" stop-color="#E26850" stop-opacity="0"/>
</linearGradient>
<linearGradient id="paint30_linear" x1="0" y1="0" x2="1" y2="0" gradientUnits="userSpaceOnUse" gradientTransform="matrix(-8.51488 -7.05013 7.05278 -8.51168 17.5424 21.4578)">
<stop offset="0" stop-color="#E26850"/>
<stop offset="1" stop-color="#E26850" stop-opacity="0"/>
</linearGradient>
<linearGradient id="paint32_linear" x1="0" y1="0" x2="1" y2="0" gradientUnits="userSpaceOnUse" gradientTransform="matrix(23.5979 19.58 -19.5873 23.589 5.6112 2.86244)">
<stop offset="0" stop-color="#E26850"/>
<stop offset="1" stop-color="#E26850" stop-opacity="0"/>
</linearGradient>
<path id="path0_fill" d="M -2.13696e-07 90.2409C -2.13696e-07 113.34 8.65496 134.423 22.8838 150.383C 30.7545 159.202 40.3338 166.482 51.0895 171.662C 62.0692 176.954 74.3094 180.09 87.2218 180.482C 88.1462 180.51 89.0705 180.538 89.9948 180.538C 95.9328 180.538 101.759 179.95 107.361 178.858C 122.822 175.834 136.883 168.806 148.423 158.923C 167.777 142.375 209.54 112.22 209.54 84.7251C 209.54 71.6495 203.125 59.8899 193.434 49.5583C 191.053 47.0384 188.476 44.5745 185.76 42.2225C 183.631 40.3746 181.39 38.5827 179.093 36.8467C 178.561 36.4547 178.057 36.0627 177.525 35.6708C 160.831 23.3792 140.72 13.8035 125.231 7.19575C 122.682 6.10379 120.105 5.15182 117.444 4.28385C 114.447 3.33188 111.394 2.51991 108.285 1.87594C 107.781 1.76394 107.277 1.67994 106.773 1.56795C 101.339 0.531982 95.7087 -1.70893e-06 89.9668 -1.70893e-06C 89.0425 -1.70893e-06 88.1462 1.70642e-06 87.2218 0.0559998C 38.8493 1.45595 -2.13696e-07 41.2986 -2.13696e-07 90.2409Z"/>
<path id="path1_fill" d="M 0 90.3529C 0 113.452 8.65496 134.535 22.8838 150.495C 27.3934 155.563 32.4911 160.126 38.037 164.074C 43.4989 167.966 49.4089 171.242 55.683 173.846C 66.2707 178.186 77.8666 180.594 90.0228 180.594C 90.9471 180.594 91.8714 180.594 92.7957 180.538C 95.3166 180.454 97.7814 180.286 100.246 180.006C 104.7 179.502 109.069 178.662 113.299 177.542C 126.435 174.014 138.423 167.602 148.479 158.979C 167.833 142.431 209.596 112.276 209.596 84.7811C 209.596 72.6855 204.106 61.7099 195.619 51.9662C 195.479 51.8262 195.367 51.6582 195.227 51.5182C 192.594 48.5503 189.681 45.6664 186.544 42.9225C 185.928 42.3905 185.311 41.8586 184.695 41.3266C 184.163 40.8786 183.659 40.4586 183.127 40.0106C 165.509 25.6191 142.541 14.6155 125.259 7.22375C 122.71 6.13179 120.133 5.17982 117.472 4.31185C 116.24 3.91986 114.979 3.55588 113.719 3.19189C 113.215 3.05189 112.683 2.9119 112.178 2.7719C 105.96 1.20396 99.49 0.25199 92.8237 0.0559972C 91.8994 0.0279982 90.9471 -3.18312e-14 89.9948 -3.18312e-14C 40.3058 0.0839971 0 40.4866 0 90.3529Z"/>
<path id="path2_fill" d="M 8.54785e-07 75.2334C 5.46187 79.1253 11.3719 82.4011 17.646 85.0051C 28.2337 89.3729 39.8296 91.7808 51.9858 91.7808C 52.9101 91.7808 53.8344 91.7808 54.7587 91.7248C 57.2796 91.6408 59.7444 91.4728 62.2093 91.1928C 65.5144 77.1653 69.4638 58.602 73.245 51.7422C 74.9536 48.6343 77.2224 45.8064 80.1914 43.4545C 80.3035 43.3425 80.4435 43.2585 80.5555 43.1745C 82.012 42.0546 83.3845 40.9626 84.729 39.8706C 85.2612 39.4506 85.7653 39.0027 86.2695 38.5827C 89.9668 35.4188 93.1599 32.2829 95.8488 29.119C 95.8768 29.091 95.9048 29.063 95.9048 29.035C 96.8851 27.887 97.7814 26.7391 98.6217 25.5631C 98.7618 25.3951 98.8738 25.1991 99.0139 25.0031C 99.0419 24.9471 99.0979 24.8911 99.1259 24.8351C 100.554 22.7912 101.759 20.7193 102.795 18.5914C 105.232 13.5235 106.52 8.17572 106.716 2.29592L 74.4775 1.06396L 62.6014 0.615977L 60.8088 0.559984L 46.4959 3.41785e-06C 43.1347 0.251995 40.0257 1.79193 37.8129 4.22785C 37.0847 5.03982 36.4685 5.9358 35.9363 6.91577C 34.4518 9.74367 32.0149 14.2515 29.0179 19.8233C 20.8951 34.8308 8.59894 57.538 8.54785e-07 75.2334Z"/>
<path id="path3_fill" d="M 0.454814 1.56794C 14.7397 3.07989 16.2802 7.64373 14.4876 14.8675C 15.0198 14.4475 15.524 13.9995 16.0281 13.5795C 19.7254 10.4156 22.9185 7.27975 25.6074 4.11586C 25.6354 4.08786 25.6634 4.05987 25.6634 4.03187C 26.6438 2.88391 27.5401 1.73594 28.3804 0.559981C 28.5204 0.391986 28.6324 0.195993 28.7725 -3.18312e-14C 18.0168 0.0839971 -3.3825 1.17595 0.454814 1.56794Z"/>
<path id="path4_fill" d="M 8.71327 0.319564C 8.71327 0.319564 0.674516 -0.380414 0.114325 0.291563C -0.445867 0.96354 1.23471 9.16726 1.23471 9.16726C 1.23471 9.16726 11.8784 5.24739 8.71327 0.319564Z"/>
<path id="path5_fill" d="M 8.71327 0.319569C 8.71327 0.319569 0.674516 -0.380409 0.114325 0.291568C -0.445867 0.963545 1.23471 9.16726 1.23471 9.16726C 1.23471 9.16726 11.8784 5.2754 8.71327 0.319569Z"/>
<path id="path6_fill" d="M 52.4801 10.3593C 45.7858 14.7832 33.5736 18.787 21.1934 20.271C 18.0003 20.663 14.8072 20.859 11.6981 20.859C -9.16899 20.915 1.22257 5.99148 16.9079 3.83555C 17.7482 3.72356 18.6165 3.63956 19.4848 3.61156C 24.1624 3.41557 29.0081 2.77159 33.6016 2.07162C 45.7578 0.251678 56.1774 -1.87625 57.5778 2.96758C 58.2501 5.2915 56.2334 7.89541 52.4801 10.3593Z"/>
<path id="path7_fill" d="M 37.0781 8.28771C 30.3838 12.7116 18.1716 16.7154 5.79138 18.1994C 2.20615 14.5595 -1.85525 8.7357 0.917702 2.8559C 1.11377 2.46391 1.30985 2.09993 1.50591 1.76394C 2.3462 1.65194 3.2145 1.56795 4.0828 1.53995C 8.7604 1.34396 13.606 0.699979 18.1996 3.41785e-06C 18.7598 2.63191 21.1126 9.91166 29.6555 9.46367C 32.8486 9.32368 35.2575 8.84769 37.0781 8.28771Z"/>
<path id="path8_fill" d="M 30.198 3.03C 30.114 3.92596 27.5651 5.63391 23.8398 7.34185C 19.0782 9.55378 12.3559 11.7937 6.44588 12.3817C -3.74961 13.4176 -1.92899 -0.889862 12.4679 0.0621047C 12.9441 0.0901037 13.4203 0.146102 13.9244 0.2021C 13.8964 0.230099 30.6462 -1.16986 30.198 3.03Z"/>
<path id="path9_fill" d="M 23.8398 7.32527C 19.0782 9.53719 12.3559 11.7771 6.44588 12.3651C -3.74961 13.4011 -1.92899 -0.906447 12.4679 0.0455203C 12.748 2.14545 14.2326 5.50533 20.5347 7.21327C 21.5711 7.52126 22.6914 7.52126 23.8398 7.32527Z"/>
<path id="path10_fill" d="M 80.5275 4.92783C 79.015 2.01593 75.962 -2.13616e-07 72.4328 -2.13616e-07L 9.10312 -2.13616e-07C 5.57391 -2.13616e-07 2.52086 1.98793 1.00834 4.92783C 0.364121 6.18779 3.41914e-06 7.58774 3.41914e-06 9.09969L 3.41914e-06 144.419C 3.41914e-06 145.147 0.0840304 145.875 0.252088 146.547C 1.20441 150.551 4.81765 153.519 9.10312 153.519L 72.4328 153.519C 76.7182 153.519 80.3315 150.551 81.2838 146.547C 81.4519 145.847 81.5359 145.147 81.5359 144.419L 81.5359 9.09969C 81.5359 7.61574 81.1718 6.18779 80.5275 4.92783Z"/>
<path id="path11_fill" d="M 81.5359 9.09969L 81.5359 144.419C 81.5359 145.147 81.4519 145.875 81.2838 146.547C 80.3315 150.551 76.7182 153.519 72.4328 153.519L 9.10311 153.519C 4.81764 153.519 1.20442 150.551 0.25209 146.547C 0.0840321 145.847 -3.41914e-06 145.147 -3.41914e-06 144.419L -3.41914e-06 9.09969C -3.41914e-06 7.58774 0.364123 6.15979 1.00834 4.92783C 2.52086 2.01593 5.5739 -2.13616e-07 9.10311 -2.13616e-07L 72.4328 -2.13616e-07C 75.962 -2.13616e-07 79.015 1.98793 80.5275 4.92783C 81.1718 6.18779 81.5359 7.61574 81.5359 9.09969Z"/>
<path id="path12_stroke" d="M -1.70957e-06 -1.5C -0.828429 -1.5 -1.5 -0.828426 -1.5 1.52588e-06C -1.5 0.828429 -0.828429 1.5 -1.70957e-06 1.5L -1.70957e-06 -1.5ZM 18.1782 1.5C 19.0066 1.5 19.6782 0.828429 19.6782 1.52588e-06C 19.6782 -0.828426 19.0066 -1.5 18.1782 -1.5L 18.1782 1.5ZM -1.70957e-06 1.5L 18.1782 1.5L 18.1782 -1.5L -1.70957e-06 -1.5L -1.70957e-06 1.5Z"/>
<path id="path13_fill" d="M 81.5359 4.17186L 81.5359 139.491C 81.5359 140.219 81.4519 140.947 81.2838 141.619L 0.25209 141.619C 0.0840321 140.919 -3.41914e-06 140.219 -3.41914e-06 139.491L -3.41914e-06 4.17186C -3.41914e-06 2.65991 0.364123 1.23196 1.00834 4.27231e-07L 80.5275 4.27231e-07C 81.1718 1.25996 81.5359 2.68791 81.5359 4.17186Z"/>
<path id="path14_fill" d="M 0 1.8012C 0.112038 0.793231 1.00835 0.093253 2.15674 0.00925588C 3.05305 -0.0467422 3.55722 0.149252 3.69727 0.653235C 3.36115 0.513239 3.02504 0.541241 2.68892 0.625238C 1.82062 0.821231 1.96067 0.653236 2.10072 1.52121C 2.40882 3.48114 3.36115 5.16108 4.6776 6.61703C 6.69429 8.85695 9.21515 10.3409 11.9881 11.4329C 16.4416 13.1968 21.0912 13.8408 25.8808 13.6448C 30.3624 13.4768 34.7039 12.5528 38.7372 10.5369C 39.6055 10.1169 40.4458 9.61293 41.2301 9.05295C 41.4542 8.88495 41.6222 8.91295 41.7623 9.13694C 41.8183 9.19294 41.8743 9.27694 41.9303 9.33294C 42.4625 9.97691 42.4905 9.97691 41.7623 10.5089C 38.6532 12.7768 35.124 14.1208 31.3707 14.8767C 25.0966 16.1087 18.9065 15.8007 12.8564 13.5888C 9.55126 12.3848 6.55424 10.6489 4.20144 7.96098C 2.80096 6.36504 1.82063 4.5451 1.4565 2.41717C 1.40048 2.05319 1.34446 1.6892 1.34446 1.29721C 1.34446 1.04522 1.28844 0.989225 1.03636 1.10122C 0.644224 1.29721 0.336115 1.52121 0 1.8012Z"/>
<path id="path15_fill" d="M 3.05305 0.571114C 3.47319 -0.0168656 4.31348 -0.156863 5.23779 0.179125C 6.19012 0.543113 6.75031 1.18709 6.69429 1.88707C 6.4142 1.57908 6.07808 1.38309 5.74196 1.21509C 5.5739 1.1311 5.48988 1.15909 5.48988 1.35509C 5.2378 4.65897 3.50119 7.15089 1.12038 9.30681C 0.896303 9.50281 0.756266 9.5308 0.588208 9.27881C 0.392141 8.99882 0.0280062 8.77483 -3.41914e-06 8.49484C -3.41914e-06 8.21485 0.448157 8.07486 0.672233 7.85086C 2.54888 6.25492 4.00537 4.35098 4.59357 1.91507C 4.62158 1.77507 4.64959 1.60708 4.6776 1.46708C 4.81765 0.767106 4.81764 0.767107 4.14541 0.627111C 3.8093 0.571113 3.44518 0.543115 3.05305 0.571114Z"/>
<path id="path16_fill" d="M 0.815298 0.892C 1.20743 0.388017 1.62758 0.108025 2.15976 0.164023C 2.49588 0.192022 2.77597 0.332017 3.00005 0.584009C 3.1401 0.752003 3.22412 0.780002 3.36417 0.584009C 3.58825 0.276019 3.92436 0.0800261 4.28848 0.024028C 5.18479 -0.115967 5.801 0.36002 5.91304 1.33999C 5.99706 2.20796 6.02508 3.07592 6.10911 3.94389C 6.13712 4.36388 5.85702 4.25188 5.63294 4.30788C 5.35284 4.36388 5.29683 4.22388 5.26882 3.97189C 5.24081 3.18792 5.1848 2.40395 5.10077 1.61998C 5.07276 1.28399 4.98873 0.947997 4.6246 0.808002C 4.20446 0.612009 3.70029 0.864002 3.53223 1.33999C 3.42019 1.70397 3.42019 2.09596 3.4482 2.48794C 3.47621 3.04792 3.50422 3.57991 3.58824 4.13989C 3.64426 4.55987 3.33616 4.44788 3.1401 4.47588C 2.91602 4.50388 2.77597 4.53187 2.74796 4.19589C 2.71995 3.38391 2.63592 2.57194 2.55189 1.75997C 2.46787 1.14399 2.21578 0.92 1.76762 0.92C 1.26345 0.947999 0.983355 1.28399 0.955346 1.87197C 0.899327 2.68394 1.01136 3.46791 1.06738 4.27988C 1.09539 4.58787 0.955347 4.67187 0.703261 4.64387C 0.479185 4.64387 0.255105 4.69987 0.227095 4.33588C 0.171076 3.18792 0.0870505 2.01196 0.00302176 0.863999C -0.0249878 0.472013 0.143071 0.444014 0.451177 0.388016C 0.787292 0.332018 0.843307 0.500013 0.815298 0.892Z"/>
<path id="path17_fill" d="M 4.03338 2.77464C 3.72527 2.66264 3.47318 2.60664 3.33314 3.05463C 3.16508 3.55861 2.71693 3.78261 2.18475 3.78261C 1.65257 3.78261 1.28843 3.47461 1.03635 3.02663C 0.8963 2.80264 0.952329 2.69064 1.20442 2.63464C 2.07271 2.43865 2.913 2.18666 3.7813 1.96267C 3.92135 1.93467 4.03338 1.90667 4.00537 1.71067C 3.83732 0.758708 2.91299 -0.0532618 2.01668 0.00273624C 0.784261 0.0867333 6.83828e-06 0.870705 6.83828e-06 2.21466C 6.83828e-06 2.63464 0.140051 3.19462 0.504176 3.67061C 0.980339 4.31458 1.62456 4.62257 2.40882 4.51058C 3.27712 4.37058 3.89333 3.8946 4.22945 3.08263C 4.28547 2.88664 4.20143 2.83064 4.03338 2.77464ZM 0.784272 1.79467C 0.8683 1.20669 1.37247 0.758709 1.98868 0.758709C 2.18475 0.758709 2.3528 0.786708 2.49285 0.898704C 2.71693 1.0387 2.99703 1.20669 2.96902 1.48668C 2.94101 1.68267 2.63289 1.62668 2.43683 1.68268C 1.98867 1.82267 1.51251 1.90667 1.03635 2.04666C 0.784261 2.13066 0.756262 2.01866 0.784272 1.79467Z"/>
<path id="path18_fill" d="M 5.02472 2.38569C 5.05273 1.23773 4.01638 0.117768 2.83997 0.00577157C 1.77561 -0.0782255 0.8793 0.761744 0.683233 2.0777C 0.571195 1.9377 0.487159 1.88171 0.43114 1.79771C 0.319102 1.65771 0.263096 1.62971 0.0950386 1.74171C -0.0730189 1.88171 0.011003 1.9657 0.123041 2.0777C 0.319108 2.30169 0.515169 2.55368 0.711236 2.77767C 1.80361 4.09363 2.92401 5.38158 4.01638 6.69754C 4.10041 6.78154 4.1284 7.00553 4.35248 6.86553C 4.54855 6.72554 4.49253 6.61354 4.35248 6.47355C 3.76428 5.77357 3.17609 5.0736 2.55988 4.34562C 4.0724 4.26162 4.99671 3.50565 5.02472 2.38569ZM 2.952 3.95363C 2.02769 3.95363 1.13138 2.97367 1.13138 1.9937C 1.13138 1.18173 1.85964 0.453754 2.69993 0.453754C 3.65225 0.453754 4.57657 1.34972 4.57657 2.32969C 4.57657 3.19766 3.8203 3.95363 2.952 3.95363Z"/>
<path id="path19_fill" d="M 2.1368 0.483634C 3.17316 0.231643 3.76136 0.595629 4.01344 1.65959C 4.60164 1.3236 5.16183 1.3796 5.69402 1.79959C 6.03013 2.07958 6.17019 2.41557 6.08616 2.86355C 6.03014 3.19954 5.86207 3.50753 5.72203 3.81552C 5.38591 4.45949 5.0498 5.13147 4.71368 5.77545C 4.65766 5.88744 4.62966 6.02744 4.40558 5.94344C 4.20952 5.83145 4.26553 5.71945 4.32155 5.57946C 4.65766 4.90748 4.99378 4.2635 5.32989 3.59153C 5.41392 3.42353 5.49795 3.25554 5.58198 3.05954C 5.72203 2.69556 5.72203 2.35957 5.38592 2.07958C 5.02179 1.79959 4.54563 1.74359 4.1815 1.99558C 3.9014 2.19157 3.70534 2.47157 3.56529 2.75156C 3.22918 3.39553 2.92107 4.03951 2.58496 4.65549C 2.52894 4.79548 2.47292 4.93548 2.24884 4.82348C 2.02476 4.71149 2.1368 4.59949 2.22083 4.4595C 2.55694 3.78752 2.92107 3.11554 3.25719 2.44357C 3.34122 2.24757 3.42524 2.05158 3.48126 1.88359C 3.62131 1.4916 3.48127 1.18361 3.14515 0.959617C 2.80904 0.735624 2.44491 0.707628 2.10879 0.93162C 1.77268 1.15561 1.57661 1.4916 1.38054 1.82759C 1.07244 2.41557 0.764335 3.03155 0.45623 3.61952C 0.400211 3.73152 0.372199 3.87152 0.148123 3.78752C -0.0479444 3.67552 -0.0199314 3.56353 0.0640973 3.42353C 0.596279 2.38757 1.12846 1.3516 1.66064 0.343639C 1.71666 0.203644 1.68865 -0.104347 2.02477 0.0356479C 2.38889 0.147644 2.08079 0.31564 2.1368 0.483634Z"/>
<path id="path20_fill" d="M 2.4512 0.0433993C 1.19077 -0.208592 0.154411 0.659377 0.0143626 2.05933C -0.125685 3.31929 0.770625 4.35525 2.1711 4.38325C 2.64727 4.38325 3.17944 4.18726 3.59959 3.71127C 3.68361 3.62728 3.87969 3.54328 3.71163 3.34729C 3.54357 3.17929 3.43153 3.26329 3.31949 3.43128C 3.29148 3.45928 3.26347 3.48728 3.23546 3.51528C 2.73129 3.99127 2.14309 4.13126 1.47086 3.87927C 0.798634 3.62727 0.490525 3.09529 0.434506 2.42332C 0.406497 2.17133 0.462518 2.08733 0.742613 2.11533C 1.72295 2.22733 2.70329 2.33932 3.71163 2.45132C 3.87969 2.47932 4.04774 2.53531 4.07575 2.22732C 4.13177 1.16336 3.45954 0.211394 2.4512 0.0433993ZM 3.3475 1.97534C 2.4792 1.86334 1.61091 1.77934 0.714602 1.69534C 0.490526 1.66735 0.462514 1.58335 0.546543 1.41535C 0.74261 0.855374 1.44285 0.379389 2.08707 0.407388C 2.78731 0.407388 3.48755 0.995369 3.6276 1.69534C 3.65561 1.89134 3.68362 2.03133 3.3475 1.97534Z"/>
<path id="path21_fill" d="M 2.39229 4.62503C 1.86011 4.59703 1.43996 4.40104 1.21589 3.92505C 0.823752 3.08508 0.431615 2.24511 0.0394806 1.40514C -0.0445481 1.23715 0.0114779 1.15315 0.151526 1.09715C 0.319583 1.01315 0.375592 1.12515 0.403602 1.23715C 0.683697 1.82513 0.93579 2.41311 1.21589 3.00109C 1.32792 3.22508 1.43996 3.47707 1.58001 3.70106C 1.94413 4.26104 2.33626 4.37304 2.92446 4.09305C 3.48465 3.81306 3.70873 3.42107 3.48465 2.80509C 3.17655 1.99312 2.78441 1.20915 2.4483 0.425175C 2.39228 0.28518 2.22423 0.145182 2.47632 0.0331861C 2.7284 -0.07881 2.75642 0.117184 2.81244 0.257179C 3.14855 0.985154 3.45665 1.71313 3.82077 2.4411C 4.46499 3.72906 3.34462 4.59703 2.39229 4.62503Z"/>
<path id="path22_fill" d="M 1.45091 3.86492C 0.526592 3.86492 -0.201657 2.94096 0.0504288 2.04499C 0.0784384 1.90499 0.0504288 1.681 0.330525 1.737C 0.582611 1.793 0.526592 1.96099 0.470573 2.15699C 0.330525 2.66097 0.498584 3.10895 0.918727 3.33294C 1.25484 3.52894 1.70299 3.47294 1.98309 3.22095C 2.29119 2.94096 2.29119 2.63297 2.12314 2.26898C 2.0111 1.98899 1.84304 1.709 1.731 1.40101C 1.53494 0.841032 1.703 0.365047 2.17916 0.113055C 2.5993 -0.110937 3.21551 0.00106094 3.55163 0.421046C 3.74769 0.673038 3.85973 0.953028 3.83172 1.26102C 3.83172 1.37301 3.85973 1.54101 3.66366 1.51301C 3.52361 1.48501 3.41158 1.45701 3.43959 1.26102C 3.4676 1.03703 3.38357 0.813029 3.24352 0.645035C 2.99143 0.393044 2.68333 0.337048 2.37522 0.477044C 2.06712 0.645038 2.03911 0.953026 2.15115 1.23302C 2.26319 1.56901 2.45925 1.84899 2.57129 2.18498C 2.90741 3.05295 2.34721 3.86492 1.45091 3.86492Z"/>
<path id="path23_fill" d="M 0.0254889 7.06681C 0.361604 5.52686 0.69772 3.98691 1.03384 2.47497C 1.20189 1.74699 1.36995 0.991019 1.538 0.263044C 1.56601 0.123049 1.59402 -0.0449439 1.8181 0.0110542C 2.07019 0.0670523 1.98616 0.235046 1.93014 0.347042C 1.45397 2.55897 0.949807 4.79889 0.473644 7.01081C 0.445634 7.15081 0.473644 7.3748 0.193548 7.2908C -0.00251899 7.2628 -0.0305303 7.17881 0.0254889 7.06681Z"/>
<path id="path24_fill" d="M 0.238652 4.05332C 0.0705948 4.02532 -0.0414486 3.99732 0.0145705 3.77333C 0.378695 2.56937 0.742825 1.36541 1.07894 0.161455C 1.13496 0.0214595 1.16297 -0.0345386 1.33102 0.0214595C 1.49908 0.0774576 1.52709 0.161455 1.47107 0.30145C 1.10695 1.50541 0.770827 2.70937 0.406703 3.91332C 0.378693 3.99732 0.350691 4.08132 0.238652 4.05332Z"/>
<path id="path25_fill" d="M 0.732435 0.395521C 0.676367 0.647512 0.564233 0.759505 0.339962 0.759505C 0.11569 0.731506 -0.0244829 0.591513 0.00355108 0.36752C 0.00355108 0.115529 0.171755 -0.0244669 0.42406 0.00353213C 0.620298 0.0315312 0.704401 0.199528 0.732435 0.395521Z"/>
<path id="path26_fill" d="M 17.604 13.9435C 11.2458 19.0393 4.29947 19.5433 1.38647 17.4714C -0.378133 16.2114 -0.630212 13.9995 1.63856 11.2836C 7.66062 4.05986 15.6153 -1.70893e-06 15.6153 -1.70893e-06C 15.6153 -1.70893e-06 17.8281 1.06397 19.5647 2.8839C 21.9455 5.34782 23.458 9.23968 17.604 13.9435Z"/>
<path id="path27_fill" d="M 16.2176 11.0596C 9.85938 16.1554 2.91299 16.6594 -3.41914e-06 14.5875C 8.68297 16.2114 14.8731 10.2476 17.1699 6.85977C 18.6824 4.64784 18.4863 1.73594 18.1782 3.41785e-06C 20.559 2.46392 22.0716 6.35578 16.2176 11.0596Z"/>
<path id="path28_fill" d="M 17.604 13.9435C 11.2458 19.0393 4.29947 19.5433 1.38647 17.4714C -0.378133 16.2114 -0.630212 13.9995 1.63856 11.2836C 7.66062 4.05986 15.6153 3.41785e-06 15.6153 3.41785e-06C 15.6153 3.41785e-06 17.8281 1.06396 19.5647 2.8839C 21.9455 5.37581 23.458 9.26768 17.604 13.9435Z"/>
<path id="path29_fill" d="M 16.2176 11.0596C 9.85938 16.1554 2.91299 16.6594 -3.41914e-06 14.5875C 8.68297 16.2114 14.8731 10.2476 17.1699 6.85976C 18.6824 4.64784 18.4863 1.73594 18.1782 0C 20.559 2.49191 22.0716 6.38378 16.2176 11.0596Z"/>
<path id="path30_fill" d="M 58.6752 19.4403C 51.9809 33.0759 46.0148 36.0158 45.3986 48.0834C 44.7824 60.1509 55.7902 82.9142 35.2031 94.9537C 32.9063 96.2977 30.5815 97.1657 28.3128 97.6416C 10.1345 101.338 -6.111 78.7703 2.26386 55.0831C 6.40928 43.3515 14.476 35.4278 23.6352 28.008C 26.1 26.0201 28.6209 24.0602 31.1697 22.1002C 38.9284 16.1085 46.9391 9.86467 53.6614 1.57696C 55.9582 -1.25094 60.4958 -0.0749836 61.14 3.50889C 61.8682 7.70875 61.7282 13.2246 58.6752 19.4403Z"/>
<path id="path31_fill" d="M 28.3128 69.6336C 10.1346 73.3295 -6.111 50.7622 2.26386 27.0751C 6.40928 15.3435 14.476 7.41974 23.6352 -1.59156e-14C 19.4057 3.97586 14.42 9.91166 11.6471 17.5554C 6.18521 32.6469 7.50166 60.5339 28.3128 69.6336Z"/>
</defs>
</svg>
