<?xml version="1.0" encoding="utf-8"?>
<!-- Generator: Adobe Illustrator 22.0.1, SVG Export Plug-In . SVG Version: 6.00 Build 0)  -->
<svg version="1.1" id="Layer_1" xmlns="http://www.w3.org/2000/svg" xmlns:xlink="http://www.w3.org/1999/xlink" x="0px" y="0px"
	 viewBox="0 0 218 230" style="enable-background:new 0 0 218 230;" xml:space="preserve">
<style type="text/css">
	.st0{fill:#BEE05F;fill-opacity:0.32;}
	.st1{fill:#BEE05F;}
	.st2{fill:#FFFFFF;}
	.st3{fill:#333333;}
	.st4{fill:#E06F58;}
	.st5{fill:none;stroke:#333333;stroke-linecap:round;stroke-linejoin:round;stroke-miterlimit:10;}
	.st6{fill:#FFC215;}
	.st7{fill:#96BF3D;}
	.st8{fill:#F2785F;}
	.st9{fill:#CC6250;}
	.st10{fill:#FF8B6C;}
	.st11{opacity:0.42;fill:url(#SVGID_1_);enable-background:new    ;}
	.st12{opacity:0.42;fill:url(#SVGID_2_);enable-background:new    ;}
	.st13{fill:none;stroke:#333333;stroke-width:3;stroke-linecap:round;stroke-linejoin:round;stroke-miterlimit:10;}
	.st14{fill:none;stroke:#333333;stroke-width:2;stroke-linecap:round;stroke-linejoin:round;stroke-miterlimit:10;}
</style>
<path class="st0" d="M97.3,47c9.7,0,19,1.5,27.7,4.3c2.7,0.9,5.3,1.8,7.9,2.9c32.5,13.9,85.1,40.6,85.1,78.3
	c0,27.7-42.2,58.2-61.7,74.9c-15.9,13.6-36.5,21.8-59,21.8c-26.9,0-51.1-11.7-67.8-30.4c-14.4-16.1-23.1-37.4-23.1-60.7
	C6.4,87.8,47.1,47,97.3,47z"/>
<path class="st1" d="M212.4,132.6c0,15.2-12.8,31.3-27.5,45.5c-8.3,8-17.2,15.3-24.8,21.6c-3.5,2.9-6.7,5.5-9.4,7.8
	c-15.9,13.6-36.5,21.8-59,21.8c-7.5,0-14.7-0.9-21.7-2.6c-8.1-2-15.7-5-22.8-9c-8.8-4.9-16.6-11.3-23.3-18.8
	C9.5,182.8,0.8,161.5,0.8,138.2C0.8,87.8,41.5,47,91.7,47c9.7,0,19,1.5,27.7,4.3c2.7,0.9,5.3,1.9,7.8,2.9
	C159.8,68.2,212.4,94.9,212.4,132.6z"/>
<g>
	<path class="st2" d="M165.4,91.5l0.1-2.7c0-0.5,0.3-1,0.7-1.3l2.3-1.5c1.1-0.7,0.9-2.4-0.3-2.8l-2.6-0.9c-0.5-0.2-0.9-0.6-1-1.1
		l-0.7-2.6c-0.3-1.3-2-1.6-2.8-0.5l-1.7,2.2c-0.3,0.4-0.8,0.6-1.3,0.6l-2.7-0.1c-1.3-0.1-2.1,1.4-1.4,2.5l1.6,2.2
		c0.3,0.4,0.4,1,0.2,1.5l-1,2.6c-0.4,1.2,0.7,2.4,1.9,2.1l2.6-0.8c0.5-0.1,1-0.1,1.4,0.3l2.1,1.7C163.9,93.5,165.4,92.8,165.4,91.5z
		"/>
	<path class="st2" d="M190.1,87l-2.3-0.2c-0.3,0-0.6-0.2-0.8-0.5l-1.1-2c-0.4-0.7-1.5-0.7-1.8,0.1l-0.9,2.2
		c-0.1,0.3-0.4,0.5-0.7,0.6l-2.3,0.5c-0.8,0.2-1.1,1.2-0.4,1.7l1.8,1.5c0.3,0.2,0.4,0.5,0.3,0.9l-0.3,2.3c-0.1,0.8,0.8,1.4,1.5,1
		l2-1.2c0.3-0.2,0.6-0.2,0.9-0.1l2.1,1c0.8,0.3,1.6-0.3,1.4-1.1l-0.5-2.3c-0.1-0.3,0-0.7,0.2-0.9l1.6-1.7
		C191.3,88.1,191,87.1,190.1,87z"/>
	<path class="st2" d="M171,109.2l-0.7-1.7c0-0.1,0-0.2,0-0.3l1-1.5c0.1-0.2,0-0.4-0.3-0.4l-1.8,0.2c-0.1,0-0.2,0-0.2-0.1l-1.2-1.4
		c-0.1-0.2-0.4-0.1-0.4,0.1l-0.4,1.8c0,0.1-0.1,0.1-0.2,0.2l-1.7,0.7c-0.2,0.1-0.2,0.4,0,0.5l1.6,0.9c0.1,0.1,0.1,0.1,0.1,0.2
		l0.1,1.8c0,0.2,0.3,0.3,0.4,0.2l1.3-1.2c0.1-0.1,0.1-0.1,0.2-0.1l1.8,0.4C170.9,109.6,171,109.4,171,109.2z"/>
	<path class="st3" d="M145.1,42.7v107.9H63.7L63.4,29.8L145.1,42.7z"/>
	<path class="st4" d="M69.3,64.2c-3.9,0-7.1-3.2-7.1-7.1c0-3.9,3.2-7.1,7.1-7.1c3.9,0,7.1,3.2,7.1,7.1C76.4,61,73.2,64.2,69.3,64.2z
		"/>
	<path class="st5" d="M70.4,56.4c0,0-2.9-2-5.7,0.6"/>
	<path class="st6" d="M67.2,65c-0.7,0-1.3-0.6-1.3-1.3c0-0.7,0.6-1.3,1.3-1.3c0.7,0,1.3,0.6,1.3,1.3C68.6,64.5,68,65,67.2,65z"/>
	<path class="st4" d="M144.6,64.2c-3.9,0-7.1-3.2-7.1-7.1c0-3.9,3.2-7.1,7.1-7.1c3.9,0,7.1,3.2,7.1,7.1
		C151.6,61,148.5,64.2,144.6,64.2z"/>
	<path class="st5" d="M143.5,56.4c0,0,2.9-2,5.7,0.6"/>
	<path class="st6" d="M146.2,65c-0.7,0-1.3-0.6-1.3-1.3c0-0.7,0.6-1.3,1.3-1.3s1.3,0.6,1.3,1.3C147.5,64.5,146.9,65,146.2,65z"/>
	<path class="st3" d="M84.6,51.1c-11.8,0-21.3-9.5-21.3-21.3c0-11.8,9.5-21.3,21.3-21.3c11.8,0,21.3,9.5,21.3,21.3
		C105.9,41.6,96.4,51.1,84.6,51.1z"/>
	<path class="st7" d="M160.1,199.6c-3.5,2.9-6.7,5.5-9.4,7.8c-15.9,13.6-36.5,21.8-59,21.8c-7.5,0-14.7-0.9-21.7-2.6
		c-8.1-2-15.7-5-22.8-9c3.9-32.7,7.9-77.4,11.2-80.3c7.9-7,19.8-11,24.4-12.3c1.2-0.4,1.9-0.5,1.9-0.5l21.3-0.1l21.8-0.1
		c0.1,0,0.7,0.2,1.7,0.5c4.4,1.2,16.3,5.1,24.1,13.2C155.1,139.6,157.8,172.5,160.1,199.6z"/>
	<path class="st6" d="M83.4,127.1c0,0,11.7,25.6,26.3,25.7c14.6,0.1,19.1-23.8,18.9-26.6C128.5,123.4,88.1,123.3,83.4,127.1z"/>
	<path class="st8" d="M84.1,124.7l2.2-0.9c4.8-2,8.1-6.5,8.4-11.7L96,99.3c0-1.9-0.3-3.7-0.7-5.5c-0.8-3-2.2-5.8-4.1-8.3
		c-0.3-0.3-0.5-0.6-0.8-0.7l35.1-0.2h0.8c-0.2,0.1-0.4,0.2-0.6,0.4c0,0,0,0,0,0c-5.4,4.1-8.4,10.6-8.4,17.4l0.2,4.6l0.5,5
		c0.2,5.8,4.1,10.8,9.7,12.5c1.5,0.6,1.2,2.7-0.3,2.9l-8.9,1.3c-8.5,1.2-17.1,1.3-25.6,0.2l-8.5-1.1
		C82.9,127.4,82.6,125.2,84.1,124.7z"/>
	<path class="st9" d="M90.4,84.7c0.3,0.1,0.5,0.4,0.8,0.7c1.9,2.5,3.3,5.3,4.1,8.3c3.4,3.7,10.9,14.1,22.7,17.6l-0.7-9.1
		c0-6.8,2.9-13.4,8.4-17.4c-0.1-0.1-0.1-0.3-0.2-0.4L90.4,84.7z"/>
	<path class="st3" d="M66.3,43.5c-0.7,1.2-1,2.5-1,3.9c0,4.4,3.6,8,8,8c2.6,0,4.9-1.2,6.4-3.2c3.4,2.1,7.4,3.3,11.7,3.3
		c1.9,0,3.7-0.2,5.4-0.7c3.1,1.3,6.5,2.1,10.1,2.2c4.5,3.6,10.3,5.8,16.5,5.8c6.8,0,12.9-2.5,17.6-6.7c0.3,0,0.6,0.1,1,0.1
		c4.4,0,8-3.6,8-8c0-1.1-0.2-2.2-0.6-3.2c-0.3-3.6-5.7-5.5-5.7-9.3c0-4.2-6.4,1-5.5-6.2l-1.1,0.1c-2.9-0.8-38.2-19.5-69.7-0.2
		c-0.4,1.1-1.8,5-1.8,6.2C65.4,39.1,63.9,41.7,66.3,43.5z"/>
	<path class="st10" d="M107.7,93.9c21.8,0,39.6-17.8,39.6-39.6c0-15.2-12.4-27.6-27.6-27.6h-24c-15.2,0-27.6,12.4-27.6,27.6
		C68.1,76.1,85.9,93.9,107.7,93.9z"/>
	
		<radialGradient id="SVGID_1_" cx="-441.0644" cy="643.4203" r="0.5" gradientTransform="matrix(-35.1134 0 0 -35.1002 -15412.0869 22640.377)" gradientUnits="userSpaceOnUse">
		<stop  offset="0" style="stop-color:#D4145A;stop-opacity:0"/>
		<stop  offset="1" style="stop-color:#D4145A"/>
	</radialGradient>
	<path class="st11" d="M79.6,68.8c-3.2,0-5.9-2.6-5.9-5.9s2.6-5.9,5.9-5.9c3.2,0,5.9,2.6,5.9,5.9S82.8,68.8,79.6,68.8z"/>
	
		<radialGradient id="SVGID_2_" cx="-441.0644" cy="643.4203" r="0.5" gradientTransform="matrix(-35.1134 0 0 -35.1002 -15355.5342 22640.377)" gradientUnits="userSpaceOnUse">
		<stop  offset="0" style="stop-color:#D4145A;stop-opacity:0"/>
		<stop  offset="1" style="stop-color:#D4145A"/>
	</radialGradient>
	<path class="st12" d="M136.1,68.8c-3.2,0-5.9-2.6-5.9-5.9s2.6-5.9,5.9-5.9c3.2,0,5.9,2.6,5.9,5.9S139.4,68.8,136.1,68.8z"/>
	<path class="st2" d="M87.4,68.2c-1.3,0-2.2,1.1-2,2.4c1.5,8.8,11,15.7,22.6,15.7c11.6,0,21.1-6.8,22.6-15.7c0.2-1.3-0.8-2.4-2-2.4
		H87.4z"/>
	<path class="st13" d="M99,53.5c0-3.3-2.7-6-6.1-6c-3.3,0-6.1,2.7-6.1,6"/>
	<path class="st13" d="M127.9,53.5c0-3.3-2.7-6-6.1-6s-6.1,2.7-6.1,6"/>
	<path class="st3" d="M83.1,27.8c0,0,16.3,35.1,65.5,26.5c0,0,1.4-11.8-4.9-15.5c-6.2-3.8-6.3-11.8-19.9-14.7S83.1,27.8,83.1,27.8z"
		/>
	<path class="st3" d="M65.4,33.9c1.8,6.2,8.4,9.7,14.6,7.9c6.2-1.8,9.7-8.4,7.9-14.6L65.4,33.9z"/>
	<path class="st14" d="M79.5,51.5C79.5,59,85.5,65,93,65c7.5,0,13.5-6,13.5-13.5c0-7.5-6-13.5-13.5-13.5
		C85.5,38,79.5,44.1,79.5,51.5z"/>
	<path class="st14" d="M111,51.5c0,7.5,6,13.5,13.5,13.5c7.5,0,13.5-6,13.5-13.5c0-7.5-6-13.5-13.5-13.5C117.1,38,111,44.1,111,51.5
		z"/>
	<path class="st3" d="M74.3,12.7c6.1-19.7,59.1-12.6,79-4.9c15,5.8,23.4,37.6-4.6,46.4C148.6,54.2,67,36.2,74.3,12.7z"/>
	<path class="st3" d="M69.6,91.4h2.3c1.3,0,2.4-1.1,2.4-2.4V38.2c0-1.3-1.1-2.4-2.4-2.4h-2.3c-1.3,0-2.4,1.1-2.4,2.4V89
		C67.2,90.3,68.3,91.4,69.6,91.4z"/>
	<path class="st6" d="M71.9,7.7v1.7c0,0.4-0.2,0.8-0.5,1l-1.4,1c-0.8,0.6-0.6,1.8,0.3,2.1l1.6,0.5c0.4,0.1,0.6,0.4,0.8,0.8l0.5,1.6
		c0.3,0.9,1.5,1.1,2.1,0.4l1-1.4c0.2-0.3,0.6-0.5,1-0.5l1.7,0.1c1,0,1.5-1.1,1-1.8l-1-1.4c-0.2-0.3-0.3-0.7-0.2-1.1L79.3,9
		c0.3-0.9-0.5-1.8-1.5-1.5L76.2,8c-0.4,0.1-0.8,0.1-1.1-0.2l-1.3-1C73,6.2,71.9,6.8,71.9,7.7z"/>
</g>
</svg>
