<svg width="165" height="133" viewBox="0 0 165 133" version="1.1" xmlns="http://www.w3.org/2000/svg" xmlns:xlink="http://www.w3.org/1999/xlink">
<g id="Canvas" fill="none">
<g id="Group">
<g id="Vector">
<path d="M 132.471 133L 32.3909 133C 14.5344 133 0 118.603 0 100.915L 0 32.0845C 0 14.3969 14.5344 0 32.3909 0L 132.609 0C 150.466 0 165 14.3969 165 32.0845L 165 101.053C 164.862 118.603 150.327 133 132.471 133Z" fill="#E5E5E5"/>
</g>
<g id="Mask Group">
<mask id="mask0" mask-type="alpha" maskUnits="userSpaceOnUse" x="0" y="0" width="165" height="133">
<g id="Vector_2">
<path d="M 132.471 133L 32.3909 133C 14.5344 133 0 118.603 0 100.915L 0 32.0845C 0 14.3969 14.5344 0 32.3909 0L 132.609 0C 150.466 0 165 14.3969 165 32.0845L 165 101.053C 164.862 118.603 150.327 133 132.471 133Z" fill="#E5E5E5"/>
</g>
</mask>
<g mask="url(#mask0)">
<g id="Group_2">
<g id="Group_3">
<g id="Vector_3">
<path d="M 7.30017e-07 170L 73.6773 170L 73.6773 36.9357C 73.6773 16.5011 57.2195 0 36.8386 0C 16.4578 0 7.30017e-07 16.5011 7.30017e-07 36.9357L 7.30017e-07 170Z" transform="translate(112.678 6) scale(-1 1)" fill="#84A936"/>
</g>
<g id="Vector_4">
<path d="M 7.30017e-07 170L 73.6773 170L 73.6773 36.9357C 73.6773 16.5011 57.2195 0 36.8386 0C 16.4578 0 7.30017e-07 16.5011 7.30017e-07 36.9357L 7.30017e-07 170Z" transform="translate(118.896 6) scale(-1 1)" fill="#D5E5B1"/>
</g>
</g>
<g id="Group_4">
<g id="Group_5">
<g id="Group_6">
<g id="Vector_5">
<path d="M -7.30017e-07 10.0734L -7.30017e-07 94.7855L 63.7261 94.7855L 64.0131 -7.3194e-07L -7.30017e-07 10.0734Z" transform="translate(119.758 39.3867) scale(-1 1)" fill="#333333"/>
</g>
<g id="Group_7">
<g id="Group_8">
<g id="Group_9">
<g id="Vector_6">
<path d="M 5.54972 11.1287C 8.61475 11.1287 11.0994 8.63743 11.0994 5.56433C 11.0994 2.49124 8.61475 0 5.54972 0C 2.4847 0 0 2.49124 0 5.56433C 0 8.63743 2.4847 11.1287 5.54972 11.1287Z" transform="translate(65.9834 55.3125) scale(-1 1)" fill="#E06F58"/>
</g>
</g>
<g id="Vector_7">
<path d="M 0 0.601196C 0 0.601196 2.20075 -1.02973 4.4015 1.08088" stroke-miterlimit="10" stroke-linecap="round" stroke-linejoin="round" transform="translate(61.1982 59.6016) scale(-1 1)" stroke="#333333"/>
</g>
</g>
<g id="Vector_8">
<path d="M 1.05253 2.11061C 1.63383 2.11061 2.10506 1.63813 2.10506 1.0553C 2.10506 0.472476 1.63383 0 1.05253 0C 0.471235 0 0 0.472476 0 1.0553C 0 1.63813 0.471235 2.11061 1.05253 2.11061Z" transform="translate(59.8584 64.9062) scale(-1 1)" fill="#FFC215"/>
</g>
</g>
<g id="Group_10">
<g id="Group_11">
<g id="Group_12">
<g id="Vector_9">
<path d="M 5.54972 11.1287C 8.61474 11.1287 11.0994 8.63743 11.0994 5.56433C 11.0994 2.49124 8.61474 0 5.54972 0C 2.48469 0 0 2.49124 0 5.56433C 0 8.63743 2.48469 11.1287 5.54972 11.1287Z" transform="translate(126.169 55.3125) scale(-1 1)" fill="#E06F58"/>
</g>
</g>
<g id="Vector_10">
<path d="M 4.4015 0.601196C 4.4015 0.601196 2.20075 -1.02973 7.30017e-07 1.08088" stroke-miterlimit="10" stroke-linecap="round" stroke-linejoin="round" transform="translate(124.159 59.6016) scale(-1 1)" stroke="#333333"/>
</g>
</g>
<g id="Vector_11">
<path d="M 1.05253 2.11061C 1.63383 2.11061 2.10507 1.63813 2.10507 1.0553C 2.10507 0.472476 1.63383 0 1.05253 0C 0.471235 0 0 0.472476 0 1.0553C 0 1.63813 0.471235 2.11061 1.05253 2.11061Z" transform="translate(122.915 64.9062) scale(-1 1)" fill="#FFC215"/>
</g>
</g>
<g id="Vector_12">
<path d="M 16.6492 33.386C 25.8442 33.386 33.2983 25.9123 33.2983 16.693C 33.2983 7.47371 25.8442 0 16.6492 0C 7.45408 0 0 7.47371 0 16.693C 0 25.9123 7.45408 33.386 16.6492 33.386Z" transform="translate(89.0439 22.6934) scale(-1 1)" fill="#333333"/>
</g>
<g id="Group_13">
<g id="Group_14">
<g id="Group_15">
<g id="Vector_13">
<path d="M 102 37.895C 99.8949 40.2934 97.5985 42.5 95.1107 44.6106C 84.394 53.8205 70.9981 59.9605 56.3583 61.7833C 54.9231 61.9752 53.3921 62.0711 51.9569 62.167C 50.3302 62.263 48.7036 62.3589 47.0769 62.3589C 29.1839 62.3589 12.7261 56.0271 1.42582e-09 45.3781C 4.4015 31.851 10.334 15.254 14.6398 10.7449C 20.7636 4.31716 30.045 1.34311 33.4897 0.383746C 34.2552 0.191872 34.8293 0.0959339 34.8293 -2.92776e-06L 51.9569 0.0959397L 68.7017 0.191875C 68.7017 0.191875 69.2758 0.287813 70.2326 0.575624C 73.773 1.63093 83.1501 4.7009 89.3696 10.2652C 92.9099 13.5271 97.8856 25.807 102 37.895Z" transform="translate(141 113.641) scale(-1 1)" fill="#96BF3D"/>
</g>
<g id="Vector_14">
<path d="M 35.4107 2.28452C 35.4107 2.28452 26.3206 22.4312 14.8384 22.4312C 3.35626 22.4312 -0.184079 3.8195 0.00729016 1.61296C 0.102975 -0.593591 31.7746 -0.689523 35.4107 2.28452Z" transform="translate(106.848 113.469) scale(-1 1)" fill="#FFC215"/>
</g>
<g id="Group_16">
<g id="Vector_15">
<path d="M 34.7306 31.6591L 33.0082 30.8916C 29.2765 29.3567 26.693 25.7111 26.5017 21.6817L 25.5448 11.6083C 25.5448 10.1693 25.7362 8.73025 26.1189 7.29119C 26.693 4.89277 27.8413 2.68623 29.3722 0.767497C 29.5636 0.479687 29.7549 0.287807 29.9463 0.191871L 2.48478 0L 1.81498 0C 2.00635 0.0959368 2.10204 0.191876 2.29341 0.287813C 6.50354 3.45373 8.89566 8.63431 8.89566 13.9108L 8.70429 17.5564L 8.32155 21.4898C 8.13018 25.9989 5.06827 30.0282 0.762453 31.2754C -0.385764 31.7551 -0.194395 33.386 1.04951 33.5779L 8.0345 34.6332C 14.6367 35.5925 21.4304 35.6885 28.0326 34.8251L 34.6349 33.9616C 35.6874 33.7697 35.8788 32.0429 34.7306 31.6591Z" transform="translate(106.741 82.2695) scale(-1 1)" fill="#F2785F"/>
</g>
<g id="Vector_16">
<path d="M 27.7486 0.191871C 27.5572 0.287807 27.3659 0.479687 27.1745 0.767497C 25.6435 2.78217 24.591 4.98871 23.9212 7.29119C 21.242 10.1693 15.4053 18.4199 6.12383 21.1061L 6.60225 13.9108C 6.60225 8.63431 4.30581 3.45373 -1.46003e-06 0.287813C -1.46003e-06 0.191877 0.0956855 0.0959368 0.0956855 0L 27.7486 0.191871Z" transform="translate(104.64 82.2695) scale(-1 1)" fill="#CC6250"/>
</g>
<g id="Group_17">
<g id="Vector_17">
<path d="M 65.5441 17.8701C 66.0225 18.8294 66.4053 19.8847 66.4053 20.94C 66.4053 24.3938 63.6304 27.2719 60.0901 27.2719C 58.0807 27.2719 56.2627 26.3125 55.1145 24.7775C 52.4353 26.4084 49.3734 27.3678 45.9287 27.3678C 44.4934 27.3678 43.0582 27.1759 41.7186 26.8881C 39.3265 27.9434 36.6473 28.5191 33.7767 28.615C 30.2364 31.4931 25.7392 33.124 20.8593 33.124C 15.5966 33.124 10.7167 31.1093 7.08068 27.8475C 6.79362 27.8475 6.60225 27.8475 6.3152 27.8475C 2.87054 27.8475 -7.30017e-07 25.0653 -7.30017e-07 21.5157C -7.30017e-07 20.6522 0.191369 19.7888 0.478423 19.0213C 0.669793 16.1432 4.97561 14.7042 4.97561 11.7301C 4.97561 8.46826 9.95122 12.5935 9.28143 6.93327L 10.1426 7.02921C 12.439 6.35765 39.9963 -8.32068 64.6829 6.83734C 65.0657 7.70077 66.1182 10.7707 66.1182 11.7301C 66.3096 14.4163 67.4578 16.431 65.5441 17.8701Z" transform="translate(123.585 32.2617) scale(-1 1)" fill="#333333"/>
</g>
<g id="Vector_18">
<path d="M 31.0019 52.7652C 13.97 52.7652 0 38.7585 0 21.6817C 0 9.78555 9.75985 -7.3194e-07 21.6248 -7.3194e-07L 40.379 -7.3194e-07C 52.2439 -7.3194e-07 62.0038 9.78555 62.0038 21.6817C 62.0038 38.7585 48.1295 52.7652 31.0019 52.7652Z" transform="translate(121.479 36.9883) scale(-1 1)" fill="#FF8B6C"/>
</g>
</g>
</g>
</g>
<g id="Group_18">
<g id="Vector_19" opacity="0.42">
<path d="M 4.59287 9.20993C 7.12944 9.20993 9.18574 7.14822 9.18574 4.60497C 9.18574 2.06171 7.12944 0 4.59287 0C 2.0563 0 0 2.06171 0 4.60497C 0 7.14822 2.0563 9.20993 4.59287 9.20993Z" transform="translate(73.0635 60.7793) scale(-1 1)" fill="url(#paint0_radial)"/>
</g>
<g id="Vector_20" opacity="0.42">
<path d="M 4.59287 9.20993C 7.12944 9.20993 9.18574 7.14822 9.18574 4.60497C 9.18574 2.06171 7.12944 0 4.59287 0C 2.0563 0 0 2.06171 0 4.60497C 0 7.14822 2.0563 9.20993 4.59287 9.20993Z" transform="translate(117.271 60.7793) scale(-1 1)" fill="url(#paint1_radial)"/>
</g>
</g>
</g>
<g id="Vector_21">
<path d="M 33.8061 -2.92776e-06C 34.763 -2.92776e-06 35.5285 0.863428 35.4328 1.91873C 34.2846 8.82618 26.7255 14.1986 17.7311 14.1986C 8.73673 14.1986 1.17763 8.82618 0.0294138 1.91873C -0.161956 0.959365 0.603523 -2.92776e-06 1.65606 -2.92776e-06L 33.8061 -2.92776e-06Z" transform="translate(108.401 69.5098) scale(-1 1)" fill="white"/>
</g>
</g>
<g id="Group_19">
<g id="Vector_22">
<path d="M -1.46003e-06 4.7009C -1.46003e-06 2.11061 2.10507 -7.3194e-07 4.68856 -7.3194e-07C 7.27204 -7.3194e-07 9.37711 2.11061 9.37711 4.7009" stroke-miterlimit="10" stroke-linecap="round" stroke-linejoin="round" transform="translate(83.5898 53.2969) scale(-1 1)" stroke="#333333"/>
</g>
<g id="Vector_23">
<path d="M 1.46003e-06 4.7009C 1.46003e-06 2.11061 2.10506 -7.3194e-07 4.68855 -7.3194e-07C 7.27204 -7.3194e-07 9.37711 2.11061 9.37711 4.7009" stroke-miterlimit="10" stroke-linecap="round" stroke-linejoin="round" transform="translate(106.267 53.2969) scale(-1 1)" stroke="#333333"/>
</g>
</g>
<g id="Vector_24">
<path d="M 51.3826 3.46799C 51.3826 3.46799 38.5609 31.0019 0.0955947 24.2863C 0.0955947 24.2863 -0.956938 15.0763 3.92299 12.1023C 8.80291 9.12826 8.8986 2.89238 19.5196 0.589893C 30.1406 -1.71259 51.3826 3.46799 51.3826 3.46799Z" transform="translate(122.629 34.2871) scale(-1 1)" fill="#333333"/>
</g>
<g id="Vector_25">
<path d="M 17.8967 5.27652C 16.4614 10.1693 11.2944 12.8555 6.51016 11.4165C 1.63023 9.97743 -1.04893 4.79684 0.386338 -1.46388e-06L 17.8967 5.27652Z" transform="translate(75.1729 37.2754) scale(-1 1)" fill="#333333"/>
</g>
<g id="Vector_26">
<path d="M 21.0507 10.553C 21.0507 16.3813 16.3383 21.1061 10.5253 21.1061C 4.71235 21.1061 0 16.3813 0 10.553C 0 4.72476 4.71235 -1.46388e-06 10.5253 -1.46388e-06C 16.3383 -1.46388e-06 21.0507 4.72476 21.0507 10.553Z" stroke-miterlimit="10" stroke-linecap="round" stroke-linejoin="round" transform="translate(89.4258 45.9082) scale(-1 1)" stroke="#333333"/>
</g>
<g id="Vector_27">
<path d="M 21.0507 10.553C 21.0507 16.3813 16.3383 21.1061 10.5253 21.1061C 4.71235 21.1061 7.30017e-07 16.3813 7.30017e-07 10.553C 7.30017e-07 4.72476 4.71235 -1.46388e-06 10.5253 -1.46388e-06C 16.3383 -1.46388e-06 21.0507 4.72476 21.0507 10.553Z" stroke-miterlimit="10" stroke-linecap="round" stroke-linejoin="round" transform="translate(114.113 45.9082) scale(-1 1)" stroke="#333333"/>
</g>
</g>
<g id="Vector_28">
<path d="M 72.6848 9.99027C 67.9006 -5.45555 26.3734 0.108783 10.8724 6.1528C -0.896789 10.6618 -7.49904 35.7013 14.5085 42.6088C 14.5085 42.6088 78.3302 28.4101 72.6848 9.99027Z" transform="translate(136.946 15.9648) scale(-1 1)" fill="#333333"/>
</g>
<g id="Vector_29">
<path d="M 6.41106 0.918041L 6.41106 2.26116C 6.41106 2.54897 6.60243 2.83678 6.7938 3.02865L 7.84633 3.79614C 8.51613 4.17989 8.32476 5.13926 7.65497 5.42707L 6.41106 5.81082C 6.12401 5.90675 5.93264 6.09863 5.83695 6.38644L 5.45421 7.63362C 5.26284 8.40111 4.306 8.59298 3.82757 7.92143L 3.06209 6.86612C 2.87072 6.57831 2.58367 6.48237 2.29662 6.48237L 0.957031 6.48237C 0.191552 6.48237 -0.286875 5.61894 0.191549 5.04332L 0.957031 3.98802C 1.1484 3.70021 1.1484 3.4124 1.05271 3.12459L 0.57429 1.87741C 0.287236 1.20585 0.957034 0.438356 1.72251 0.726167L 2.96641 1.10991C 3.25346 1.20585 3.54052 1.10991 3.82757 0.918041L 4.88011 0.150545C 5.5499 -0.233202 6.41106 0.150547 6.41106 0.918041Z" transform="translate(68.8545 21.1035) scale(-1 1)" fill="#FFC215"/>
</g>
</g>
</g>
<g id="Group_20">
<g id="Group_21">
<g id="Vector_30">
<path d="M 34.8396 5.66027C 34.6482 8.44244 32.1604 10.553 29.3856 10.553L 5.27299 10.553C 3.83771 10.553 2.49813 9.97743 1.54128 9.01806C 0.488745 7.96275 -0.085362 6.5237 0.0103228 4.89277C 0.201692 2.11061 2.6895 -1.46388e-06 5.46436 -1.46388e-06C 6.61258 -1.46388e-06 7.66511 0.191876 8.71764 0.67156C 10.9184 1.72687 13.5019 2.30248 16.0854 2.30248L 18.7645 2.30248C 21.348 2.30248 23.8358 1.72686 26.0366 0.767496C 27.1848 0.287812 28.333 -1.46388e-06 29.5769 -1.46388e-06C 31.0122 -1.46388e-06 32.3518 0.575618 33.3086 1.53499C 34.3612 2.59029 34.9353 4.02935 34.8396 5.66027Z" transform="translate(107.616 72.7715) scale(-1 1)" fill="#BEE05F"/>
</g>
<g id="Vector_31">
<path d="M 37.6041 4.89278C 37.6041 8.3465 36.1689 11.5124 33.8724 13.8149C 31.863 15.8296 29.0882 17.1727 26.122 17.4605C 25.9306 17.4605 25.7392 17.4605 25.5478 17.4605C 25.3565 17.4605 25.2608 17.4605 25.0694 17.4605L 12.5347 17.4605C 5.54972 17.4605 -1.46003e-06 11.8002 -1.46003e-06 4.89278C -1.46003e-06 3.54966 0.574107 2.30248 1.43527 1.43905C 2.29643 0.575621 3.54034 0 4.87993 0L 5.74109 0C 7.08067 0 8.32458 0.28781 9.4728 0.959368C 11.8649 2.20655 14.6398 2.8781 17.5103 2.8781L 20.1895 2.8781C 22.1032 2.8781 23.8255 2.59029 25.5478 2.01467C 25.7392 1.91873 25.9306 1.91874 26.122 1.8228C 26.7917 1.63093 27.3659 1.34312 28.0356 0.959368C 29.2796 0.28781 30.7148 0 32.0544 0L 32.7242 0C 35.4034 0 37.6041 2.11061 37.6041 4.89278Z" transform="translate(108.946 73.6367) scale(-1 1)" fill="#1C95FF"/>
</g>
</g>
<g id="Vector_32">
<path d="M 7.36773 27.6298C 11.3865 27.6298 14.7355 24.3679 14.7355 20.2427L 14.7355 0.767494C 14.7355 0.28781 14.3527 -2.92776e-06 13.97 -2.92776e-06L 0.765478 -2.92776e-06C 0.287054 -2.92776e-06 0 0.383747 0 0.767494L 0 20.2427C 0 24.3679 3.25328 27.6298 7.36773 27.6298Z" transform="translate(97.5596 79.1035) scale(-1 1)" fill="#1C95FF"/>
</g>
<g id="Vector_33">
<path d="M 6.79362 1.46388e-06L 6.79362 22.6411L 5.35835 18.1321L 4.59287 15.6377L -7.30017e-07 0.959369L 0.765477 0.959369C 2.67917 0.959369 4.4015 0.671557 6.12383 0.0959368C 6.3152 0.0959368 6.60225 1.46388e-06 6.79362 1.46388e-06Z" transform="translate(89.6172 75.459) scale(-1 1)" fill="url(#paint2_linear)"/>
</g>
<g id="Vector_34">
<path d="M 0 1.46388e-06L 0 22.6411L 1.43527 18.1321L 2.20075 15.6377L 6.79362 0.959369L 6.02814 0.959369C 4.11445 0.959369 2.39212 0.671557 0.669794 0.0959368C 0.38274 0.0959368 0.19137 1.46388e-06 0 1.46388e-06Z" transform="translate(97.5596 75.459) scale(-1 1)" fill="url(#paint3_linear)"/>
</g>
<g id="Group_22">
<g id="Group_23">
<g id="Group_24">
<g id="Group_25">
<g id="Vector_35">
<path d="M 1.14822 0.54076C 1.14822 0.732634 1.05253 1.02044 0.861165 1.11638C 0.76548 1.11638 0.669792 1.21231 0.574107 1.21231C 0.191368 1.21231 0 0.924506 0 0.636696C 0 0.540759 -1.46146e-06 0.444819 0.0956833 0.348882C 0.191368 0.157009 0.38274 0.0610762 0.669794 0.0610762C 0.861164 -0.130797 1.14822 0.157013 1.14822 0.54076Z" transform="translate(89.4277 82.4961) scale(-1 1)" fill="url(#paint4_linear)"/>
</g>
<g id="Vector_36">
<path d="M 1.14822 0.540759C 1.14822 0.732632 1.05253 1.02044 0.861165 1.11638C 0.76548 1.11638 0.669792 1.21231 0.574107 1.21231C 0.191368 1.21231 0 0.924504 0 0.636694C 0 0.540757 -1.46146e-06 0.444818 0.0956833 0.348881C 0.191368 0.157007 0.38274 0.0610748 0.669794 0.0610748C 0.861164 -0.130799 1.14822 0.157012 1.14822 0.540759Z" transform="translate(89.4277 84.5117) scale(-1 1)" fill="url(#paint5_linear)"/>
</g>
<g id="Vector_37">
<path d="M 1.14822 0.540757C 1.14822 0.732631 1.05253 1.02044 0.861165 1.11638C 0.76548 1.11638 0.669792 1.21231 0.574107 1.21231C 0.191368 1.21231 0 0.924503 0 0.636693C 0 0.540756 -1.46146e-06 0.444823 0.0956833 0.348887C 0.191368 0.157013 0.38274 0.0610733 0.669794 0.0610733C 0.861164 -0.1308 1.14822 0.15701 1.14822 0.540757Z" transform="translate(89.4277 86.5254) scale(-1 1)" fill="url(#paint6_linear)"/>
</g>
</g>
</g>
<g id="Group_26">
<g id="Group_27">
<g id="Vector_38">
<path d="M 0.95685 0.575621C 0.95685 0.671558 0.956847 0.767497 0.861163 0.863434C 0.765478 0.863434 0.669794 0.959369 0.574109 0.959369C 0.19137 0.959369 1.46003e-06 0.67156 1.46003e-06 0.38375C 1.46003e-06 0.287813 0 0.191874 0.0956848 0.0959368C 0.19137 0.0959368 0.287054 1.46388e-06 0.382738 1.46388e-06C 0.669793 1.46388e-06 0.95685 0.28781 0.95685 0.575621Z" transform="translate(89.5234 82.6543) scale(-1 1)" fill="url(#paint7_linear)"/>
</g>
<g id="Vector_39">
<path d="M 0.95685 0.575619C 0.95685 0.671556 0.956847 0.767496 0.861163 0.863433C 0.765478 0.863433 0.669794 0.959368 0.574109 0.959368C 0.19137 0.959368 1.46003e-06 0.671559 1.46003e-06 0.383749C 1.46003e-06 0.287812 0 0.191872 0.0956848 0.0959353C 0.19137 0.0959353 0.287054 0 0.382738 0C 0.669793 0 0.95685 0.287809 0.95685 0.575619Z" transform="translate(89.5234 84.668) scale(-1 1)" fill="url(#paint8_linear)"/>
</g>
<g id="Vector_40">
<path d="M 0.95685 0.575618C 0.95685 0.671555 0.956847 0.767494 0.861163 0.863431C 0.765478 0.863431 0.669794 0.959366 0.574109 0.959366C 0.19137 0.959366 1.46003e-06 0.671558 1.46003e-06 0.383747C 1.46003e-06 0.28781 0 0.191871 0.0956848 0.0959339C 0.19137 0.0959339 0.287054 -1.46388e-06 0.382738 -1.46388e-06C 0.669793 -1.46388e-06 0.95685 0.287807 0.95685 0.575618Z" transform="translate(89.5234 86.6816) scale(-1 1)" fill="url(#paint9_linear)"/>
</g>
</g>
</g>
</g>
</g>
<g id="Group_28">
<g id="Group_29">
<g id="Group_30">
<g id="Group_31">
<g id="Vector_41">
<path d="M -1.46003e-06 0.54076C -1.46003e-06 0.732634 0.0956863 1.02044 0.287056 1.11638C 0.382741 1.11638 0.478425 1.21231 0.574109 1.21231C 0.956849 1.21231 1.14822 0.924506 1.14822 0.636696C 1.14822 0.540759 1.14822 0.444819 1.05253 0.348882C 0.956849 0.157009 0.765477 0.0610762 0.478423 0.0610762C 0.287053 -0.130797 -1.46003e-06 0.157013 -1.46003e-06 0.54076Z" transform="translate(92.2012 82.4961) scale(-1 1)" fill="url(#paint10_linear)"/>
</g>
<g id="Vector_42">
<path d="M -1.46003e-06 0.540759C -1.46003e-06 0.732632 0.0956863 1.02044 0.287056 1.11638C 0.382741 1.11638 0.478425 1.21231 0.574109 1.21231C 0.956849 1.21231 1.14822 0.924504 1.14822 0.636694C 1.14822 0.540757 1.14822 0.444818 1.05253 0.348881C 0.956849 0.157007 0.765477 0.0610748 0.478423 0.0610748C 0.287053 -0.130799 -1.46003e-06 0.157012 -1.46003e-06 0.540759Z" transform="translate(92.2021 84.5117) scale(-1 1)" fill="url(#paint11_linear)"/>
</g>
<g id="Vector_43">
<path d="M -1.46003e-06 0.540757C -1.46003e-06 0.732631 0.0956863 1.02044 0.287056 1.11638C 0.382741 1.11638 0.478425 1.21231 0.574109 1.21231C 0.956849 1.21231 1.14822 0.924503 1.14822 0.636693C 1.14822 0.540756 1.14822 0.444823 1.05253 0.348887C 0.956849 0.157013 0.765477 0.0610733 0.478423 0.0610733C 0.287053 -0.1308 -1.46003e-06 0.15701 -1.46003e-06 0.540757Z" transform="translate(92.2021 86.5254) scale(-1 1)" fill="url(#paint12_linear)"/>
</g>
</g>
</g>
<g id="Group_32">
<g id="Group_33">
<g id="Vector_44">
<path d="M 1.46003e-06 0.575621C 1.46003e-06 0.671558 0 0.767497 0.0956848 0.863434C 0.19137 0.863434 0.287054 0.959369 0.382738 0.959369C 0.765478 0.959369 0.95685 0.67156 0.95685 0.38375C 0.95685 0.287813 0.956847 0.191874 0.861163 0.0959368C 0.765478 0.0959368 0.669794 1.46388e-06 0.574109 1.46388e-06C 0.287054 1.46388e-06 1.46003e-06 0.28781 1.46003e-06 0.575621Z" transform="translate(91.915 82.6543) scale(-1 1)" fill="url(#paint13_linear)"/>
</g>
<g id="Vector_45">
<path d="M 1.46003e-06 0.575619C 1.46003e-06 0.671556 0 0.767496 0.0956848 0.863433C 0.19137 0.863433 0.287054 0.959368 0.382738 0.959368C 0.765478 0.959368 0.95685 0.671559 0.95685 0.383749C 0.95685 0.287812 0.956847 0.191872 0.861163 0.0959353C 0.861163 -1.46531e-06 0.765478 0 0.574109 0C 0.287054 0 1.46003e-06 0.287809 1.46003e-06 0.575619Z" transform="translate(91.915 84.6699) scale(-1 1)" fill="url(#paint14_linear)"/>
</g>
<g id="Vector_46">
<path d="M 1.46003e-06 0.575618C 1.46003e-06 0.671555 0 0.767494 0.0956848 0.863431C 0.19137 0.863431 0.287054 0.959366 0.382738 0.959366C 0.765478 0.959366 0.95685 0.671558 0.95685 0.383747C 0.95685 0.28781 0.956847 0.191871 0.861163 0.0959339C 0.765478 0.0959339 0.669794 -1.46388e-06 0.574109 -1.46388e-06C 0.287054 -1.46388e-06 1.46003e-06 0.287807 1.46003e-06 0.575618Z" transform="translate(91.915 86.6816) scale(-1 1)" fill="url(#paint15_linear)"/>
</g>
</g>
</g>
</g>
</g>
</g>
</g>
</g>
</g>
</g>
</g>
<defs>

<radialGradient id="paint0_radial" cx="0.5" cy="0.5" r="0.5" gradientUnits="userSpaceOnUse" gradientTransform="translate(-5.67727 -14.4666) scale(27.4981 27.5705)">
<stop stop-color="#D4145A" stop-opacity="0"/>
<stop offset="1" stop-color="#D4145A"/>
</radialGradient>
<radialGradient id="paint1_radial" cx="0.5" cy="0.5" r="0.5" gradientUnits="userSpaceOnUse" gradientTransform="translate(-5.75764 -14.4666) scale(27.4981 27.5705)">
<stop stop-color="#D4145A" stop-opacity="0"/>
<stop offset="1" stop-color="#D4145A"/>
</radialGradient>
<linearGradient id="paint2_linear" x2="1" gradientUnits="userSpaceOnUse" gradientTransform="matrix(9.2377 -4.11646 4.10564 9.26202 0.939625 7.38881)">
<stop stop-color="#1C95FF"/>
<stop offset="0.2577" stop-color="#1B92F6"/>
<stop offset="1" stop-color="#1988DB"/>
</linearGradient>
<linearGradient id="paint3_linear" x2="1" gradientUnits="userSpaceOnUse" gradientTransform="matrix(-9.2377 -4.11646 -4.10564 9.26202 5.83295 7.38881)">
<stop stop-color="#1C95FF"/>
<stop offset="0.2577" stop-color="#1B92F6"/>
<stop offset="1" stop-color="#1988DB"/>
</linearGradient>
<linearGradient id="paint4_linear" x2="1" gradientUnits="userSpaceOnUse" gradientTransform="translate(1.6208 1.91241) scale(-2.77917 -2.78648)">
<stop stop-color="#1C95FF"/>
<stop offset="0.2577" stop-color="#1B92F6"/>
<stop offset="1" stop-color="#1988DB"/>
</linearGradient>
<linearGradient id="paint5_linear" x2="1" gradientUnits="userSpaceOnUse" gradientTransform="translate(1.6208 1.91222) scale(-2.77917 -2.78648)">
<stop stop-color="#1C95FF"/>
<stop offset="0.2577" stop-color="#1B92F6"/>
<stop offset="1" stop-color="#1988DB"/>
</linearGradient>
<linearGradient id="paint6_linear" x2="1" gradientUnits="userSpaceOnUse" gradientTransform="translate(1.6208 1.91193) scale(-2.77917 -2.78648)">
<stop stop-color="#1C95FF"/>
<stop offset="0.2577" stop-color="#1B92F6"/>
<stop offset="1" stop-color="#1988DB"/>
</linearGradient>
<linearGradient id="paint7_linear" x2="1" gradientUnits="userSpaceOnUse" gradientTransform="matrix(0.590088 -7.82345 7.8029 0.591642 -3.85849 5.62789)">
<stop stop-color="#8BA333"/>
<stop offset="1" stop-color="#8BA333" stop-opacity="0"/>
</linearGradient>
<linearGradient id="paint8_linear" x2="1" gradientUnits="userSpaceOnUse" gradientTransform="matrix(0.590184 -7.82355 7.803 0.591738 -3.70745 3.62468)">
<stop stop-color="#8BA333"/>
<stop offset="1" stop-color="#8BA333" stop-opacity="0"/>
</linearGradient>
<linearGradient id="paint9_linear" x2="1" gradientUnits="userSpaceOnUse" gradientTransform="matrix(0.590088 -7.82355 7.803 0.591642 -3.55637 1.62148)">
<stop stop-color="#8BA333"/>
<stop offset="1" stop-color="#8BA333" stop-opacity="0"/>
</linearGradient>
<linearGradient id="paint10_linear" x2="1" gradientUnits="userSpaceOnUse" gradientTransform="translate(-0.483304 1.91241) scale(2.77917 -2.78648)">
<stop stop-color="#1C95FF"/>
<stop offset="0.2577" stop-color="#1B92F6"/>
<stop offset="1" stop-color="#1988DB"/>
</linearGradient>
<linearGradient id="paint11_linear" x2="1" gradientUnits="userSpaceOnUse" gradientTransform="translate(-0.483304 1.91222) scale(2.77917 -2.78648)">
<stop stop-color="#1C95FF"/>
<stop offset="0.2577" stop-color="#1B92F6"/>
<stop offset="1" stop-color="#1988DB"/>
</linearGradient>
<linearGradient id="paint12_linear" x2="1" gradientUnits="userSpaceOnUse" gradientTransform="translate(-0.483304 1.91193) scale(2.77917 -2.78648)">
<stop stop-color="#1C95FF"/>
<stop offset="0.2577" stop-color="#1B92F6"/>
<stop offset="1" stop-color="#1988DB"/>
</linearGradient>
<linearGradient id="paint13_linear" x2="1" gradientUnits="userSpaceOnUse" gradientTransform="matrix(-0.590184 -7.82345 -7.8029 0.591738 4.80472 5.62784)">
<stop stop-color="#8BA333"/>
<stop offset="1" stop-color="#8BA333" stop-opacity="0"/>
</linearGradient>
<linearGradient id="paint14_linear" x2="1" gradientUnits="userSpaceOnUse" gradientTransform="matrix(-0.590184 -7.82355 -7.803 0.591738 4.65358 3.62468)">
<stop stop-color="#8BA333"/>
<stop offset="1" stop-color="#8BA333" stop-opacity="0"/>
</linearGradient>
<linearGradient id="paint15_linear" x2="1" gradientUnits="userSpaceOnUse" gradientTransform="matrix(-0.590184 -7.82355 -7.803 0.591738 4.50259 1.62143)">
<stop stop-color="#8BA333"/>
<stop offset="1" stop-color="#8BA333" stop-opacity="0"/>
</linearGradient>

</defs>
</svg>

