<svg width="25" height="25" viewBox="0 0 25 25" version="1.1" xmlns="http://www.w3.org/2000/svg" xmlns:xlink="http://www.w3.org/1999/xlink">
<title>Group</title>
<desc>Created using Figma</desc>
<g id="Canvas" transform="translate(-4801 -8121)">
<g id="Group">
<g id="linkedin">
<g id="Group">
<g id="Vector">
<use xlink:href="#path0_fill" transform="translate(4801 8121)" fill="#CF234C"/>
</g>
</g>
</g>
<g id="&#239;&#133;&#173;">
<use xlink:href="#path1_fill" transform="translate(4808 8112)" fill="#FFFFFF"/>
</g>
</g>
</g>
<defs>
<path id="path0_fill" d="M 12.5 25C 19.4036 25 25 19.4036 25 12.5C 25 5.59644 19.4036 0 12.5 0C 5.59644 0 0 5.59644 0 12.5C 0 19.4036 5.59644 25 12.5 25Z"/>
<path id="path1_fill" d="M 8 21C 8 22.1016 7.10156 23 6 23C 4.89844 23 4 22.1016 4 21C 4 19.8984 4.89844 19 6 19C 7.10156 19 8 19.8984 8 21ZM 9.07812 21C 9.07812 19.2969 7.70313 17.9219 6 17.9219C 4.29687 17.9219 2.92187 19.2969 2.92187 21C 2.92187 22.7031 4.29687 24.0781 6 24.0781C 7.70313 24.0781 9.07812 22.7031 9.07812 21ZM 9.92188 17.7969C 9.92188 17.3984 9.60156 17.0781 9.20313 17.0781C 8.80469 17.0781 8.48437 17.3984 8.48437 17.7969C 8.48437 18.1953 8.80469 18.5156 9.20313 18.5156C 9.60156 18.5156 9.92188 18.1953 9.92188 17.7969ZM 6 16.0781C 6.875 16.0781 8.75 16.0078 9.53906 16.3203C 9.8125 16.4297 10.0156 16.5625 10.2266 16.7734C 10.4375 16.9844 10.5703 17.1875 10.6797 17.4609C 10.9922 18.25 10.9219 20.125 10.9219 21C 10.9219 21.875 10.9922 23.75 10.6797 24.5391C 10.5703 24.8125 10.4375 25.0156 10.2266 25.2266C 10.0156 25.4375 9.8125 25.5703 9.53906 25.6797C 8.75 25.9922 6.875 25.9219 6 25.9219C 5.125 25.9219 3.25 25.9922 2.46094 25.6797C 2.1875 25.5703 1.98437 25.4375 1.77344 25.2266C 1.5625 25.0156 1.42969 24.8125 1.32031 24.5391C 1.00781 23.75 1.07812 21.875 1.07812 21C 1.07812 20.125 1.00781 18.25 1.32031 17.4609C 1.42969 17.1875 1.5625 16.9844 1.77344 16.7734C 1.98437 16.5625 2.1875 16.4297 2.46094 16.3203C 3.25 16.0078 5.125 16.0781 6 16.0781ZM 12 21C 12 20.1719 12.0078 19.3516 11.9609 18.5234C 11.9141 17.5625 11.6953 16.7109 10.9922 16.0078C 10.2891 15.3047 9.4375 15.0859 8.47656 15.0391C 7.64844 14.9922 6.82812 15 6 15C 5.17187 15 4.35156 14.9922 3.52344 15.0391C 2.5625 15.0859 1.71094 15.3047 1.00781 16.0078C 0.304688 16.7109 0.0859375 17.5625 0.0390625 18.5234C -0.0078125 19.3516 0 20.1719 0 21C 0 21.8281 -0.0078125 22.6484 0.0390625 23.4766C 0.0859375 24.4375 0.304688 25.2891 1.00781 25.9922C 1.71094 26.6953 2.5625 26.9141 3.52344 26.9609C 4.35156 27.0078 5.17187 27 6 27C 6.82812 27 7.64844 27.0078 8.47656 26.9609C 9.4375 26.9141 10.2891 26.6953 10.9922 25.9922C 11.6953 25.2891 11.9141 24.4375 11.9609 23.4766C 12.0078 22.6484 12 21.8281 12 21Z"/>
</defs>
</svg>
