<svg width="20" height="25" viewBox="0 0 20 25" version="1.1" xmlns="http://www.w3.org/2000/svg" xmlns:xlink="http://www.w3.org/1999/xlink">
<g id="Canvas" fill="none">
<g id="pin 1">
<path id="Vector" d="M 19.9636 9.98228C 19.9636 4.46874 15.4949 -3.45152e-08 9.98228 -3.45152e-08C 4.46874 -3.45152e-08 5.08646e-08 4.46874 5.08646e-08 9.98228C 5.08646e-08 10.969 0.14572 11.9214 0.412397 12.8233C 1.8334 18.5712 10.027 25 10.027 25C 10.027 25 19.2836 17.7416 19.8284 11.7519L 19.8046 11.7471C 19.9074 11.1747 19.9636 10.5852 19.9636 9.98228ZM 10.1185 12.2052C 7.86316 12.2052 6.03451 10.3766 6.03451 8.12126C 6.03451 5.86594 7.86316 4.0373 10.1185 4.0373C 12.3729 4.0373 14.2015 5.86594 14.2015 8.12126C 14.2015 10.3766 12.3729 12.2052 10.1185 12.2052Z" fill="#BDBDBD"/>
</g>
</g>
</svg>
