<svg width="48" height="32" viewBox="0 0 48 32" version="1.1" xmlns="http://www.w3.org/2000/svg" xmlns:xlink="http://www.w3.org/1999/xlink">
<g id="Canvas" fill="none">
<g id="if_master_card_payment_methods_copy_295630">
<g id="Vector">
<path d="M 48 30.4563C 48 31.3097 47.309 32 46.453 32L 1.54704 32C 0.692947 32 -8.71924e-09 31.31 -8.71924e-09 30.4563L -8.71924e-09 1.54374C -8.71924e-09 0.69147 0.692947 2.49419e-07 1.54704 2.49419e-07L 46.453 2.49419e-07C 47.3086 2.49419e-07 48 0.69147 48 1.54374L 48 30.4563Z" fill="#808080"/>
</g>
<g id="Group">
<g id="Vector_2">
<path fill-rule="evenodd" clip-rule="evenodd" d="M 20.3527 21.1806C 19.4049 21.9877 18.3866 22.6894 17.2514 23.2125C 16.3931 23.6101 15.4952 23.8731 14.5752 24.0777C 13.4342 24.332 12.2727 24.3145 11.1226 24.2559C 10.04 24.2004 8.98705 23.9286 7.9642 23.5489C 7.02668 23.198 6.15088 22.7388 5.3246 22.1804C 4.56156 21.663 3.86099 21.0727 3.24004 20.3945C 2.53833 19.6255 1.94062 18.7808 1.43968 17.8658C 0.960823 16.9915 0.621016 16.0651 0.370351 15.106C 0.225591 14.5491 0.134544 13.9789 0.0762587 13.4034C 0.0130211 12.8009 -0.0189789 12.1987 0.011878 11.5966C 0.0587348 10.6493 0.206543 9.71529 0.474731 8.80182C 0.705968 8.01228 1.00197 7.2482 1.39168 6.5229C 1.79739 5.77023 2.27205 5.06241 2.81986 4.40173C 3.71204 3.32594 4.76079 2.43414 5.95469 1.721C 7.10744 1.03105 8.34667 0.538388 9.67085 0.272291C 10.2583 0.155209 10.8468 0.0750003 11.4461 0.0312845C 11.8678 0.00201386 12.2884 -0.00977135 12.7059 0.00923554C 13.2918 0.0385062 13.8761 0.0955276 14.4533 0.211089C 15.3203 0.382151 16.1683 0.622018 16.9771 0.975546C 17.739 1.30855 18.4727 1.70047 19.1512 2.18742C 19.5656 2.48583 19.9595 2.80857 20.3523 3.13321C 20.6875 3.28526 20.9119 3.5658 21.1344 3.83912C 21.2311 3.95887 21.1652 4.0482 20.9824 4.0539C 20.6395 4.06721 20.2936 4.08165 19.9527 4.05238C 19.6113 4.02159 19.3637 4.12689 19.1881 4.41503C 19.15 4.47623 19.0944 4.52299 19.0414 4.5975C 19.1146 4.62677 19.179 4.61651 19.2407 4.61651C 19.9938 4.61651 20.7466 4.62259 21.4997 4.61232C 21.7298 4.60928 21.8921 4.68683 22.014 4.8769C 22.1062 5.02173 22.222 5.15174 22.3069 5.29923C 22.3923 5.44407 22.3599 5.50109 22.1927 5.52009C 22.121 5.5277 22.0475 5.52313 21.9759 5.52313C 20.905 5.52313 19.8361 5.52313 18.7668 5.52313C 18.3287 5.52313 18.203 5.62235 18.0826 6.05647C 18.1294 6.09752 18.1851 6.0827 18.2365 6.0827C 19.6662 6.0827 21.0944 6.08574 22.5241 6.08118C 22.7233 6.05343 22.8494 6.14124 22.934 6.31952C 23.0071 6.4731 23.0925 6.62211 23.1599 6.77987C 23.2128 6.89961 23.1744 6.96994 23.0426 6.98286C 22.9549 6.99313 22.8696 6.99047 22.7846 6.99047C 21.1774 6.99047 19.5721 7.00073 17.9668 6.98286C 17.6533 6.97982 17.4628 7.06611 17.3851 7.37174C 17.3721 7.42154 17.3397 7.46678 17.3279 7.51772C 17.3279 7.53977 17.3356 7.55877 17.3542 7.57322C 17.4319 7.59679 17.5127 7.58614 17.5915 7.58614C 19.3698 7.58614 21.1481 7.58614 22.9248 7.58766C 23.0597 7.58766 23.1915 7.57322 23.3233 7.58196C 23.4109 7.58918 23.502 7.59679 23.5519 7.67547C 23.6837 7.87125 23.7424 8.09515 23.7831 8.32323C 23.798 8.40952 23.7275 8.43271 23.6605 8.44601C 23.5694 8.4635 23.4757 8.45932 23.382 8.45932C 21.3607 8.45932 19.3363 8.45932 17.3135 8.45932C 16.9778 8.45932 16.8434 8.58933 16.8239 8.92271C 16.8182 9.00026 16.8502 9.03371 16.9222 9.03979C 16.9938 9.04739 17.0674 9.04435 17.1405 9.04435C 19.2487 9.04435 21.358 9.04435 23.4673 9.04435C 23.5462 9.04435 23.6254 9.04435 23.7046 9.04587C 23.9915 9.05157 24.0414 9.09263 24.1088 9.37469C 24.2204 9.86279 24.2056 9.88484 23.7104 9.88484C 21.4578 9.88332 19.203 9.87153 16.9489 9.87609C 16.8696 9.87609 16.7904 9.87875 16.7116 9.87001C 16.3836 9.80843 16.0537 9.84644 15.7241 9.84074C 15.5851 9.8377 15.5512 9.92969 15.5325 10.0453C 15.3961 10.8508 15.2411 11.6532 15.1032 12.4587C 14.9946 13.0886 14.8674 13.7143 14.768 14.3473C 14.6948 14.8179 14.8339 15.03 15.3055 15.1132C 15.6586 15.1748 16.0144 15.1794 16.3676 15.0927C 16.5565 15.046 16.6681 14.9422 16.6853 14.7434C 16.6971 14.6248 16.7836 14.4936 16.7291 14.3971C 16.6586 14.2701 16.5154 14.3868 16.4037 14.3781C 16.2895 14.3678 16.1813 14.3458 16.0773 14.302C 15.963 14.2522 15.8929 14.1602 15.9104 14.0375C 15.9649 13.6661 16.0102 13.2935 16.0658 12.9221C 16.0731 12.8769 16.0906 12.8332 16.1405 12.8142C 16.1641 12.8111 16.1843 12.8157 16.2034 12.8286C 16.2255 13.146 16.4232 13.2088 16.6956 13.1719C 16.7527 13.1635 16.8129 13.1749 16.8655 13.2072C 16.9561 13.3331 16.9329 13.4863 16.9561 13.6269C 17.0719 14.3328 17.4658 14.7977 18.15 15.0129C 18.7637 15.2071 19.3892 15.1866 20.0148 15.0901C 20.283 15.0494 20.4601 14.9209 20.4761 14.6183C 20.4849 14.4427 20.5363 14.269 20.5553 14.0964C 20.4967 14.0496 20.4601 14.0964 20.425 14.1139C 19.9108 14.3727 19.3702 14.4066 18.8193 14.288C 18.4677 14.2119 18.2144 13.9953 18.0872 13.6535C 17.9858 13.3787 18.0754 13.2529 18.3683 13.2513C 19.0757 13.2483 19.7831 13.2453 20.491 13.2529C 20.6609 13.2559 20.7412 13.2107 20.7572 13.0278C 20.785 12.7207 20.8483 12.4211 20.8289 12.1052C 20.779 11.2955 20.0906 10.8188 19.3965 10.7884C 19.0053 10.7709 18.6159 10.7899 18.2453 10.939C 17.6228 11.1887 17.2552 11.6624 17.0616 12.2896C 17.0296 12.3934 17.0296 12.515 16.9226 12.585C 16.7367 12.6374 16.5477 12.6138 16.3599 12.607C 16.2178 12.6024 16.1771 12.5059 16.1771 12.3816C 16.1637 12.1946 16.2152 12.0163 16.2533 11.8365C 16.2769 11.7266 16.3413 11.6844 16.4525 11.6947C 16.5843 11.708 16.7161 11.7034 16.8479 11.7023C 16.958 11.7023 17.0194 11.6479 17.0384 11.5415C 17.0662 11.3735 17.094 11.2039 17.1234 11.0359C 17.1439 10.9116 17.0853 10.8679 16.9695 10.8694C 16.8902 10.8709 16.8114 10.8724 16.7321 10.8679C 16.6487 10.8618 16.5432 10.8812 16.5036 10.7903C 16.4597 10.6892 16.4799 10.5843 16.5725 10.5037C 16.6601 10.4642 16.7527 10.4702 16.8449 10.4702C 19.2132 10.4702 21.5805 10.4702 23.9507 10.4702C 24.2585 10.4702 24.2963 10.498 24.3378 10.7143C 24.3084 10.8941 24.1911 11.0359 24.121 11.1982C 23.9629 11.5696 23.8574 11.9539 23.7808 12.3485C 23.7633 12.4375 23.7572 12.534 23.6635 12.5869C 23.265 12.6363 22.8696 12.6249 22.4711 12.5941C 22.3538 12.5386 22.4037 12.4538 22.4422 12.3793C 22.5827 12.1151 22.8197 11.9467 23.1039 11.9292C 23.4525 11.9083 23.614 11.7612 23.6547 11.4248C 23.6753 11.2701 23.769 11.1324 23.8509 10.9952C 23.9389 10.8416 23.9271 10.8242 23.7458 10.8242C 23.3736 10.8242 23.0631 10.9542 22.817 11.2377C 22.7641 11.3008 22.726 11.4103 22.6029 11.3548C 22.5706 11.3054 22.5706 11.2511 22.5767 11.1956C 22.5797 11.1636 22.5881 11.1313 22.5942 11.099C 22.6235 10.8899 22.6087 10.8724 22.3953 10.8694C 22.1961 10.8679 21.9995 10.8679 21.8003 10.8694C 21.5085 10.8694 21.5115 10.874 21.4578 11.153C 21.2849 12.0531 21.1751 12.9624 21.0121 13.863C 20.9462 14.2195 20.8772 14.5761 20.8174 14.9327C 20.785 15.1258 20.7969 15.1448 20.9858 15.1475C 21.217 15.152 21.4471 15.1414 21.6784 15.1505C 21.8281 15.1566 21.8936 15.0935 21.9127 14.9517C 21.926 14.8551 21.9405 14.7517 22.0429 14.6974C 22.1047 14.6712 22.1721 14.6696 22.2365 14.6696C 22.7725 14.6681 23.3085 14.6654 23.8422 14.6696C 24.1084 14.6727 24.1469 14.7225 24.0909 14.9783C 23.9648 15.5455 23.9648 15.5455 23.3763 15.5455C 21.3359 15.5455 19.2952 15.5455 17.2533 15.5455C 17.2003 15.5455 17.1477 15.5455 17.0948 15.5455C 16.9001 15.5515 16.8822 15.5717 16.9382 15.753C 16.9717 15.8614 16.9969 15.9724 17.051 16.0716C 17.0628 16.0894 17.0788 16.1069 17.0994 16.1214C 17.1828 16.1506 17.2693 16.1392 17.3557 16.1392C 19.219 16.1423 21.0837 16.1392 22.9485 16.1423C 23.1328 16.1423 23.3176 16.1214 23.502 16.1392C 23.6688 16.1598 23.71 16.221 23.6631 16.3818C 23.6193 16.5281 23.5519 16.6623 23.4875 16.7999C 23.4345 16.9052 23.35 16.9581 23.2357 16.9664C 23.142 16.9725 23.0483 16.9725 22.9576 16.9725C 21.2113 16.9725 19.4666 16.9695 17.7222 16.9725C 17.4056 16.9725 17.4087 16.9843 17.5348 17.2797C 17.627 17.496 17.7618 17.5663 17.9919 17.5632C 19.5462 17.5545 21.0989 17.5572 22.6528 17.5602C 23.0925 17.5602 23.0955 17.5895 22.9313 17.9898C 22.7846 18.341 22.5709 18.449 22.1869 18.4402C 20.9054 18.4109 19.6224 18.4288 18.339 18.4288C 18.2936 18.4288 18.2468 18.4258 18.2041 18.4463C 18.1938 18.4638 18.1893 18.4817 18.1938 18.5018C 18.5774 19.1214 18.4296 19.0249 19.0974 19.0279C 20.0289 19.034 20.9626 19.0279 21.894 19.031C 21.9908 19.031 22.121 18.996 22.1709 19.0895C 22.2254 19.1944 22.1165 19.2822 22.0551 19.3643C 21.5275 20.0482 21.7111 19.9258 20.921 19.9342C 20.4452 19.9402 19.9691 19.9342 19.4929 19.9372C 19.4239 19.9372 19.3477 19.9136 19.2658 19.9783C 19.4018 20.1299 19.5222 20.2907 19.6704 20.431C 19.7378 20.4952 19.827 20.4926 19.9134 20.4926C 20.1919 20.4952 20.4689 20.4926 20.747 20.4952C 20.8231 20.4983 20.921 20.4838 20.9519 20.5743C 20.9812 20.6591 20.9195 20.7321 20.8582 20.7788C 20.691 20.9119 20.5607 21.0959 20.3527 21.1806Z" transform="translate(4.52344 4.64062)" fill="#E6E6E6"/>
</g>
<g id="Vector_3">
<path fill-rule="evenodd" clip-rule="evenodd" d="M 3.81198 21.1809C 3.92017 21.0464 4.04208 20.9327 4.18112 20.827C 4.26303 20.7658 4.36703 20.6985 4.37884 20.5522C 4.05808 20.5522 3.74189 20.5347 3.42989 20.5583C 3.21466 20.5758 3.07256 20.4967 2.94951 20.3389C 2.86456 20.231 2.76932 20.1314 2.67713 20.0291C 2.64209 19.9884 2.59218 19.9444 2.61542 19.8946C 2.64018 19.8391 2.70913 19.8683 2.75904 19.8683C 3.45922 19.8653 4.15788 19.8653 4.85807 19.8714C 4.99864 19.8714 5.0893 19.8276 5.17007 19.7106C 5.31064 19.5091 5.47026 19.319 5.62835 19.1168C 5.56245 19.07 5.50226 19.0879 5.44816 19.0879C 4.35255 19.0849 3.25694 19.0818 2.16095 19.0879C 2.01314 19.0879 1.91181 19.0586 1.84019 18.9214C 1.75524 18.7606 1.64971 18.6085 1.55295 18.4538C 1.59372 18.4215 1.6421 18.4333 1.68781 18.4333C 2.94913 18.4333 4.20893 18.4333 5.47026 18.4333C 5.50683 18.4333 5.5434 18.4272 5.55063 18.4333C 4.26036 18.4333 2.94494 18.4303 1.628 18.4333C 1.60019 18.4333 1.57505 18.436 1.55333 18.4538C 1.52553 18.4246 1.52248 18.3922 1.56933 18.3865C 1.628 18.3778 1.68781 18.3805 1.74648 18.3805C 3.1278 18.3805 4.50912 18.3774 5.89197 18.3835C 6.05311 18.3835 6.14987 18.3451 6.20816 18.1874C 6.25806 18.0471 6.33425 17.9156 6.41349 17.7836C 6.49844 17.6434 6.45729 17.6141 6.30796 17.6141C 5.42187 17.6202 4.53579 17.6171 3.65084 17.6171C 2.86418 17.6171 2.07752 17.6114 1.29086 17.6232C 1.13124 17.6263 1.04934 17.5704 0.996767 17.4332C 0.958672 17.3336 0.903054 17.2431 0.85734 17.1496C 0.750293 16.9337 0.762103 16.9128 0.99791 16.9128C 2.2798 16.9128 3.56132 16.9128 4.84474 16.9128C 5.45273 16.9128 6.0592 16.9101 6.66834 16.9158C 6.79139 16.9158 6.8672 16.8808 6.90834 16.7641C 6.96129 16.6147 7.01691 16.4691 7.08129 16.3228C 7.1251 16.2262 7.10186 16.1882 6.99939 16.1882C 6.94643 16.1909 6.89386 16.1882 6.84091 16.1882C 4.79788 16.1882 2.75561 16.1909 0.713721 16.1882C 0.639055 16.1882 0.555247 16.2201 0.4882 16.1559C 0.543818 16.1236 0.605531 16.1384 0.663817 16.1384C 2.53885 16.1354 4.41541 16.1354 6.29311 16.1354C 6.34301 16.1354 6.39558 16.1323 6.40739 16.1354C 5.87978 16.1354 5.3133 16.1354 4.74493 16.1354C 3.39713 16.1354 2.04971 16.1354 0.701912 16.1354C 0.630294 16.1354 0.55677 16.1175 0.486675 16.1529C 0.346105 15.9597 0.353343 15.7146 0.227249 15.4834C 0.350295 15.4834 0.435247 15.4834 0.520199 15.4834C 2.71866 15.4834 4.91902 15.4804 7.11634 15.4891C 7.30376 15.4891 7.39443 15.4367 7.4211 15.2554C 7.43862 15.1329 7.46491 15.0098 7.50605 14.8946C 7.559 14.7498 7.51481 14.7159 7.36853 14.7175C 6.74148 14.7235 6.11444 14.7205 5.4874 14.719C 5.40816 14.5335 5.48283 14.1256 5.62225 13.9853C 5.80435 13.931 5.98873 13.9545 6.17311 13.9576C 6.55101 13.9621 6.92624 13.9329 7.3011 13.9735C 7.39481 14.0013 7.43291 14.0788 7.47672 14.1533C 7.87824 14.8083 8.46985 15.1356 9.23442 15.1504C 9.5247 15.1565 9.81727 15.1725 10.1045 15.1098C 10.2336 15.0805 10.3624 15.0482 10.4767 14.9779C 10.5765 14.9197 10.6466 14.8391 10.6672 14.7175C 10.714 14.4457 10.7757 14.178 10.8226 13.8888C 10.33 14.2104 9.8146 14.2442 9.27556 14.086C 8.77461 13.9386 8.47556 13.6025 8.4169 13.0848C 8.34071 12.4066 8.5369 11.7912 8.93537 11.243C 9.11404 11.0031 9.36318 10.8499 9.66184 10.7971C 10.154 10.7123 10.6348 10.7401 11.1034 10.9301C 11.2965 11.0092 11.3022 11.0031 11.3376 10.7899C 11.3727 10.5618 11.4134 10.3337 11.4603 10.1087C 11.4839 10.0049 11.4634 9.92734 11.3521 9.89085C 10.5026 9.60726 9.65575 9.56469 8.81499 9.9186C 8.48699 10.0573 8.21157 10.2622 7.99747 10.5561C 7.93614 10.6409 7.89462 10.7769 7.74262 10.7606C 7.74871 10.6219 7.73081 10.5283 7.54338 10.5283C 5.03407 10.5356 2.52666 10.534 0.0188705 10.5356C -0.0146531 10.3003 -0.0222723 10.0707 0.159441 9.8821C 1.69619 9.88058 3.23103 9.8821 4.76778 9.88058C 3.23408 9.87906 1.70038 9.8821 0.166679 9.87906C 0.135822 9.8764 0.124393 9.85854 0.131631 9.82812C 2.53847 9.82812 4.94493 9.82812 7.35062 9.8266C 7.59672 9.8266 7.59671 9.8266 7.54376 9.59282C 7.43253 9.10472 7.43253 9.10472 6.92586 9.10472C 4.7434 9.10472 2.56056 9.10472 0.379248 9.10472C 0.144964 9.10472 0.144964 9.10472 0.221154 8.87816C 0.273725 8.72458 0.285535 8.52007 0.392581 8.43074C 0.512581 8.33152 0.722102 8.39995 0.893529 8.39995C 2.87713 8.39843 4.86036 8.39843 6.84358 8.39843C 6.96091 8.39843 7.07786 8.39843 7.21843 8.39843C 7.14224 8.17338 7.07215 7.96887 7.00434 7.76398C 6.96358 7.63093 6.86072 7.63549 6.75253 7.63549C 5.24397 7.63701 3.73655 7.63701 2.22914 7.63701C 1.77962 7.63701 1.32972 7.63701 0.879815 7.63397C 0.818483 7.63397 0.746484 7.66324 0.693913 7.6047C 0.762864 7.5682 0.836007 7.58569 0.908006 7.58569C 2.70952 7.58417 4.51293 7.58569 6.3133 7.58417C 6.37463 7.58417 6.43634 7.59748 6.49196 7.56668C 6.51558 7.5492 6.47139 7.53893 6.48892 7.55794C 6.49768 7.56821 6.49501 7.57125 6.48053 7.57543C 6.43672 7.59139 6.39253 7.58265 6.34834 7.58265C 4.51864 7.58417 2.68932 7.58417 0.861149 7.58265C 0.802483 7.58265 0.742293 7.59748 0.686674 7.56516C 0.71296 7.50548 0.74953 7.44656 0.76134 7.38536C 0.846292 6.95542 1.13048 6.91779 1.51143 6.92197C 3.14151 6.9425 4.7735 6.93071 6.40396 6.93071C 6.46834 6.93071 6.53577 6.93071 6.6352 6.93071C 6.50339 6.67488 6.38339 6.43501 6.2573 6.20275C 6.19901 6.10049 6.08473 6.1693 5.99939 6.14117C 5.93501 6.09745 5.85882 6.12064 5.78835 6.11912C 4.4055 6.1176 3.02266 6.11912 1.63867 6.1176C 1.56819 6.1176 1.49353 6.13813 1.4261 6.09555C 1.50953 5.888 1.64286 5.70819 1.7499 5.51394C 1.79676 5.42765 1.87867 5.46566 1.94457 5.46566C 3.1457 5.46262 4.34874 5.46262 5.54949 5.46262C 5.62111 5.46262 5.69159 5.46262 5.79444 5.46262C 5.62873 5.1836 5.45425 4.94221 5.25997 4.71717C 5.20435 4.65407 5.12245 4.68068 5.0535 4.68068C 4.16131 4.67916 3.27065 4.67916 2.34647 4.67916C 2.5339 4.45564 2.70266 4.25226 2.87218 4.05231C 2.93085 3.98199 3.0158 3.99529 3.09466 3.99529C 3.58989 3.99529 4.0836 3.99529 4.61655 3.99529C 4.41007 3.6239 4.07027 3.41482 3.81122 3.13276C 4.09503 2.82142 4.44093 2.58156 4.77617 2.33181C 5.4794 1.80266 6.24549 1.37728 7.04815 1.02223C 7.86871 0.659581 8.72394 0.405268 9.60584 0.231545C 10.4851 0.0589624 11.3696 -0.0216257 12.2633 0.00498399C 13.2652 0.0357752 14.2527 0.184788 15.2226 0.455066C 15.9258 0.651218 16.6085 0.90401 17.2644 1.22257C 18.0667 1.61411 18.8168 2.09384 19.517 2.65188C 19.9856 3.02594 20.4256 3.42965 20.8355 3.86528C 21.4507 4.51874 21.9783 5.2391 22.4469 6.00356C 22.9067 6.75205 23.2522 7.54844 23.5219 8.37752C 23.7208 8.9884 23.8674 9.61259 23.9787 10.247C 24.1516 11.2263 24.1078 12.2127 24.0754 13.1939C 24.0518 13.9728 23.8705 14.7384 23.6537 15.4884C 23.4076 16.3334 23.0823 17.1458 22.6606 17.9182C 22.2739 18.6314 21.8168 19.3008 21.2896 19.9177C 21.0229 20.2333 20.7536 20.5461 20.4519 20.8327C 19.7162 21.5375 18.9136 22.1541 18.0347 22.6715C 16.8305 23.3789 15.5327 23.8324 14.1677 24.1069C 13.2801 24.2882 12.3776 24.2707 11.4782 24.2734C 10.4729 24.2794 9.50641 24.0894 8.54566 23.8259C 7.66643 23.5861 6.83482 23.2322 6.04359 22.7882C 5.33197 22.3905 4.65388 21.9348 4.04131 21.3877C 3.96436 21.3212 3.8577 21.2832 3.81198 21.1809Z" transform="translate(21.0635 4.64062)" fill="white"/>
</g>
<g id="Vector_4">
<path fill-rule="evenodd" clip-rule="evenodd" d="M 4.95592 1.68971C 4.71554 2.26144 4.47402 2.83279 4.23516 3.40451C 3.96545 4.04885 3.69764 4.69546 3.4325 5.34132C 3.39593 5.42875 3.34184 5.45688 3.25079 5.45536C 2.90679 5.4508 2.56394 5.44927 2.21956 5.45536C 2.0847 5.4584 2.05118 5.40138 2.0527 5.27859C 2.06413 4.68786 1.98528 4.10321 1.96928 3.514C 1.95594 3.06353 1.91632 2.61383 1.8889 2.16488C 1.87709 1.98508 1.86985 1.80223 1.81271 1.61673C 1.77766 1.79919 1.73956 1.98204 1.70718 2.1664C 1.52852 3.22319 1.3468 4.27997 1.17538 5.33827C 1.15938 5.43635 1.127 5.45536 1.04205 5.45384C 0.737286 5.45232 0.43405 5.44813 0.129291 5.45536C 0.00167249 5.45992 -0.0112798 5.40138 0.00624391 5.29912C 0.161671 4.42024 0.311003 3.53908 0.469097 2.65945C 0.593668 1.95467 0.728143 1.25027 0.855761 0.545498C 0.870237 0.463769 0.893856 0.371395 0.889285 0.298408C 0.871761 0.0456166 1.00052 0.0091231 1.20281 0.0323115C 1.27442 0.0399143 1.34795 0.0277495 1.41957 0.0250885C 1.81652 -0.00836362 2.21346 -0.00836362 2.61041 0.0250885C 2.65003 0.0277495 2.68965 0.0383937 2.72775 0.0323115C 2.87403 0.0102635 2.9106 0.0642429 2.91974 0.214777C 2.96051 0.925255 3.00013 1.63877 3.03974 2.34887C 3.0546 2.5933 3.03822 2.84305 3.09422 3.14868C 3.25231 2.77158 3.38717 2.44695 3.52317 2.12421C 3.80126 1.45593 4.07974 0.786505 4.35973 0.118603C 4.38907 0.0482777 4.44164 0.030791 4.5163 0.0323115C 4.70106 0.0353526 4.88544 0.0277495 5.0702 0.0250885C 5.33534 -0.00684307 5.59896 -0.00684307 5.8641 0.0250885C 6.00163 0.0277495 6.1422 0.0440966 6.27858 0.0307918C 6.44276 0.0163466 6.466 0.0893319 6.44124 0.225421C 6.362 0.672463 6.28886 1.12141 6.20848 1.56883C 6.0942 2.21202 5.97572 2.85484 5.86105 3.49841C 5.75439 4.09599 5.65001 4.69546 5.54334 5.29342C 5.52582 5.3915 5.49191 5.46448 5.35439 5.45878C 5.06411 5.44281 4.77268 5.45118 4.48278 5.45422C 4.37002 5.45574 4.34792 5.44129 4.37307 5.30939C 4.5163 4.55101 4.64126 3.78921 4.77268 3.02932C 4.8443 2.61991 4.9163 2.2124 4.98944 1.80299C 5.02906 1.7589 5.01725 1.70796 4.99097 1.6669C 4.97801 1.646 4.96925 1.68249 4.95592 1.68971Z" transform="translate(5.68848 14.3965)" fill="#808080"/>
</g>
<g id="Vector_5">
<path fill-rule="evenodd" clip-rule="evenodd" d="M 0.124423 1.82657C 0.242898 1.14841 0.594514 0.620775 1.17775 0.259644C 1.41508 0.113671 1.69203 0.0463872 1.9686 0.0216782C 2.60288 -0.0353425 3.22268 -0.0117737 3.70306 0.49381C 3.91677 0.718851 4.01049 0.998253 4.05468 1.3054C 4.11449 1.71291 3.99601 2.10331 3.97392 2.5036C 3.96782 2.64083 3.8642 2.59255 3.7983 2.59255C 3.03792 2.59559 2.27755 2.59407 1.51755 2.59407C 1.26689 2.59407 1.24365 2.6279 1.31527 2.86777C 1.42651 3.24753 1.77546 3.49196 2.16631 3.53719C 2.56326 3.58243 2.94726 3.58243 3.32364 3.4509C 3.4863 3.39236 3.64135 3.30911 3.82192 3.227C 3.76477 3.56912 3.71182 3.8968 3.65773 4.22258C 3.64592 4.28682 3.58459 4.29557 3.5404 4.31913C 3.35411 4.42139 3.14611 4.47841 2.94421 4.48297C 2.35221 4.4959 1.75336 4.54722 1.18194 4.30431C 0.560991 4.04126 0.193375 3.59269 0.0878517 2.92289C 0.0657566 2.78718 0.0615655 2.65109 0.0467085 2.51538C -0.0424337 2.27247 0.00290019 2.04591 0.124423 1.82657Z" transform="translate(21.3379 15.3594)" fill="#808080"/>
</g>
<g id="Vector_6">
<path fill-rule="evenodd" clip-rule="evenodd" d="M 0.69214 1.13667C 0.929471 0.859165 1.15804 0.576723 1.47994 0.383993C 1.83156 0.171876 2.21556 0.0578337 2.61098 0.0213405C 3.20603 -0.0368206 3.79421 0.0213404 4.35992 0.227375C 4.45059 0.260827 4.52144 0.29618 4.48297 0.441013C 4.40982 0.702548 4.35687 0.974346 4.3363 1.24652C 4.32183 1.48335 4.24564 1.44952 4.0784 1.37235C 3.64488 1.17202 3.18469 1.14275 2.71346 1.20699C 2.19765 1.2758 1.90775 1.61336 1.68794 2.03721C 1.47156 2.46258 1.36261 2.91685 1.40985 3.39507C 1.47461 4.03104 1.80832 4.35529 2.50279 4.47085C 2.97441 4.54992 3.40793 4.46211 3.81516 4.1637C 3.82964 4.37126 3.75954 4.54688 3.74202 4.72631C 3.72716 4.87418 3.69212 5.02015 3.66583 5.16765C 3.63954 5.32692 3.51078 5.40295 3.38774 5.44667C 2.66698 5.7025 1.29899 5.70554 0.657091 4.93956C 0.513474 4.76698 0.384712 4.59022 0.287951 4.38988C 0.112333 4.24391 0.112335 4.02457 0.0624306 3.82614C 0.0418593 3.75163 0.0445244 3.67257 0.0388102 3.59502C -0.00804661 3.36541 -0.0343319 3.13923 0.0913814 2.92255C 0.193857 2.29609 0.372523 1.69243 0.69214 1.13667Z" transform="translate(28.1152 14.2637)" fill="#808080"/>
</g>
<g id="Vector_7">
<path fill-rule="evenodd" clip-rule="evenodd" d="M 2.52698 0.00295737C 2.87441 -0.00730635 3.21993 0.0075181 3.56431 0.0732819C 3.68888 0.0968505 3.68316 0.152351 3.66678 0.231039C 3.61993 0.460643 3.56583 0.688726 3.51745 0.916808C 3.49688 1.00728 3.45002 1.04682 3.35174 1.04377C 3.18755 1.03769 3.02222 1.01602 2.86374 0.989795C 2.62374 0.951782 2.40089 1.0088 2.1727 1.03769C 1.99251 1.06126 1.8447 1.16618 1.82984 1.33762C 1.81384 1.51895 1.96318 1.64629 2.12127 1.71928C 2.33384 1.81545 2.55632 1.893 2.77612 1.97055C 3.3224 2.16214 3.50869 2.66164 3.41345 3.18509C 3.39745 3.27556 3.40469 3.3649 3.38259 3.45689C 3.2245 4.11035 2.64736 4.39963 2.0687 4.48896C 1.74794 4.53724 1.42413 4.53876 1.1049 4.51823C 0.776901 4.49619 0.442808 4.49771 0.126239 4.37188C 0.0104306 4.32664 -0.0230929 4.28445 0.0150021 4.15558C 0.0736683 3.95829 0.119002 3.75226 0.141097 3.54584C 0.157097 3.39531 0.227572 3.37668 0.341857 3.41127C 0.759378 3.53862 1.18718 3.57663 1.62185 3.56485C 1.92813 3.55458 2.09194 3.382 2.08051 3.08093C 2.07632 2.95093 2.01003 2.8825 1.90337 2.82358C 1.59594 2.6529 1.24433 2.57953 0.946805 2.37616C 0.541094 2.09714 0.456142 1.69951 0.499952 1.2768C 0.524713 1.03731 0.601283 0.81075 0.734235 0.603194C 0.966995 0.243584 1.32775 0.118138 1.72165 0.0390695C 1.98794 -0.0149101 2.25727 0.00713889 2.52698 0.00295737Z" transform="translate(15.623 15.3652)" fill="#808080"/>
</g>
<g id="Vector_8">
<path fill-rule="evenodd" clip-rule="evenodd" d="M 1.98888 0.0417923C 1.98469 0.0535766 1.98469 0.0638394 1.9904 0.0752435C 2.00069 0.0839867 2.00526 0.0927299 2.00221 0.101473C 1.99917 0.108696 1.99498 0.113258 1.99193 0.113258C 1.95383 0.325375 1.91421 0.537111 1.87612 0.748847C 1.86583 0.832098 1.85402 0.915349 1.84107 1.01647C 2.06659 1.01647 2.29364 1.01647 2.53249 1.01647C 2.47954 1.31449 2.4224 1.59237 2.38735 1.8714C 2.37402 1.97517 2.32869 1.9824 2.24831 1.98126C 2.1165 1.97821 1.97745 2.00596 1.85441 1.97403C 1.65517 1.91967 1.63041 2.03979 1.60374 2.1755C 1.57745 2.31425 1.55231 2.45453 1.52755 2.59518C 1.52298 2.66968 1.53174 2.74305 1.53631 2.81756C 1.51574 2.89206 1.53174 2.97684 1.47041 3.03956C 1.39993 3.42844 1.32679 3.81732 1.26089 4.20734C 1.23879 4.33469 1.26965 4.42212 1.41936 4.47648C 1.62888 4.55099 1.82812 4.53616 2.02888 4.478C 2.14774 4.44569 2.16069 4.49701 2.13859 4.58444C 2.08755 4.77907 2.03612 4.97332 2.02431 5.17365C 2.02126 5.23941 1.97326 5.2569 1.9264 5.28313C 1.80488 5.35194 1.67155 5.38425 1.53517 5.40021C 1.15003 5.44545 0.763366 5.46028 0.389654 5.34053C 0.0936567 5.2455 -0.0484378 4.99575 0.0147998 4.65058C 0.127561 4.02487 0.221275 3.39803 0.347369 2.77536C 0.474606 2.14243 0.567177 1.5019 0.674224 0.86327C 0.714986 0.627965 0.753461 0.392659 0.798794 0.158494C 0.817842 0.0577578 0.862031 -0.00534519 0.993459 0.00035688C 1.27765 0.0151823 1.56184 0.00339754 1.84602 0.00643864C 1.89517 0.00681878 1.95345 -0.0167489 1.98888 0.0417923Z" transform="translate(19.208 14.4258)" fill="#808080"/>
</g>
<g id="Vector_9">
<path fill-rule="evenodd" clip-rule="evenodd" d="M 1.43406 3.24611C 1.36244 3.47572 1.32282 3.71141 1.31406 3.95089C 1.23787 4.05201 1.25425 4.17935 1.24092 4.28883C 1.22644 4.4234 1.18415 4.44811 1.06377 4.44507C 0.754443 4.43899 0.443969 4.43785 0.133876 4.44507C 0.000162759 4.44963 -0.0143117 4.40439 0.00930713 4.28275C 0.138068 3.60306 0.262638 2.92186 0.379971 2.23951C 0.501494 1.54196 0.61273 0.843265 0.725491 0.146092C 0.740348 0.0464957 0.794444 0.035091 0.876348 0.0362315C 1.19863 0.0392726 1.52206 0.0392732 1.84434 0.0350917C 1.9472 0.0350917 2.00891 0.0643617 1.959 0.1708C 1.9152 0.258232 1.96205 0.357829 1.90605 0.438418C 1.87062 0.482134 1.8912 0.536493 1.88548 0.584391C 1.88243 0.61062 1.89386 0.626966 1.8912 0.600356C 1.8912 0.598836 1.89996 0.594655 1.90605 0.591614C 2.06719 0.521288 2.12853 0.347565 2.26605 0.243787C 2.57652 0.00544086 2.91671 -0.0177474 3.30909 0.00848214C 3.12471 0.303469 2.98376 0.594655 2.92204 0.916251C 2.91366 0.959967 2.91062 1.00672 2.89881 1.0493C 2.87481 1.12381 2.88395 1.19375 2.74033 1.16448C 2.31862 1.07971 1.79443 1.40891 1.7091 1.77992C 1.73539 2.02131 1.62148 2.24179 1.60396 2.47558C 1.54225 2.73179 1.55748 3.00511 1.43406 3.24611Z" transform="translate(25.2373 15.4102)" fill="#808080"/>
</g>
<g id="Vector_10">
<path fill-rule="evenodd" clip-rule="evenodd" d="M 3.25518e-07 0.688811C 0.0438095 0.458067 0.0529514 0.219718 0.155046 0.0015193C 0.57409 0.0015193 0.992753 0.00152013 1.41485 -4.17632e-07C 1.39732 0.229603 1.34742 0.459208 1.41485 0.688811C 1.39732 0.700215 1.38589 0.716559 1.36532 0.71922C 0.925707 0.757614 0.48609 0.758755 0.0499034 0.7177C 0.0293322 0.71694 0.0144764 0.699075 3.25518e-07 0.688811Z" transform="translate(26.792 17.1855)" fill="white"/>
</g>
<g id="Vector_11">
<path fill-rule="evenodd" clip-rule="evenodd" d="M 0.0235992 0.225421C 0.0277897 0.149393 0.032361 0.0748883 0.0369324 1.13689e-06C 0.039599 0.127347 0.0910272 0.182465 0.230074 0.172582C 0.407215 0.158136 0.586262 0.16802 0.763403 0.1665C 0.728356 0.396103 0.684165 0.622667 0.685689 0.855311C 0.55388 0.855311 0.422072 0.853789 0.290264 0.852269C 0.0369327 0.852269 0.019409 0.836303 0.0178852 0.587693C 0.0178852 0.542457 0.0194088 0.4957 0.0209326 0.450464C 0.0395991 0.374436 -0.0365908 0.298787 0.0235992 0.225421Z" transform="translate(20.6982 17.0215)" fill="white"/>
</g>
<g id="Vector_12">
<path fill-rule="evenodd" clip-rule="evenodd" d="M 2.6817 5.04864C 2.32703 5.32082 1.93771 5.47401 1.49238 5.45652C 0.871049 5.43029 0.440576 5.09843 0.21772 4.56928C -0.186848 3.59841 -0.0047558 2.67924 0.575049 1.84331C 0.987998 1.25144 1.5739 0.924141 2.32132 0.97812C 2.72246 1.00587 3.04208 1.19594 3.29693 1.55973C 3.37008 1.15184 3.4436 0.780829 3.50493 0.407913C 3.51941 0.318581 3.55788 0.23381 3.55179 0.138776C 3.54569 0.0642688 3.58722 -0.00149425 3.68093 2.6298e-05C 4.0295 2.6298e-05 4.37807 2.6298e-05 4.73273 2.6298e-05C 4.60054 0.764483 4.47483 1.51145 4.34569 2.2569C 4.19064 3.16011 4.03788 4.06522 3.87712 4.96843C 3.80398 5.3805 3.79522 5.37898 3.37617 5.37898C 3.19179 5.37898 3.00398 5.36301 2.82265 5.38354C 2.63522 5.40559 2.61465 5.31777 2.64399 5.17598C 2.65237 5.13189 2.67027 5.09121 2.6817 5.04864Z" transform="translate(38.7061 14.4727)" fill="#808080"/>
</g>
<g id="Vector_13">
<path fill-rule="evenodd" clip-rule="evenodd" d="M 2.51383 4.15543C 2.2445 4.33942 1.98355 4.48691 1.68489 4.54393C 1.1428 4.64505 0.650613 4.58764 0.252139 4.15391C 0.105474 3.99425 0.044142 3.8 0.0178565 3.60423C -0.0438573 3.10701 0.0471893 2.6307 0.40452 2.25664C 0.712327 1.93618 1.10204 1.75676 1.54737 1.71C 1.96336 1.66628 2.37936 1.61041 2.80107 1.62827C 2.90926 1.63245 2.90659 1.4937 2.89478 1.41463C 2.8624 1.19681 2.68069 1.04932 2.43803 1.04628C 1.8727 1.03906 1.30699 1.03298 0.770992 1.24357C 0.662422 1.28425 0.650993 1.21582 0.671183 1.14436C 0.750421 0.856212 0.844134 0.573009 0.919943 0.283344C 0.940514 0.203135 0.996133 0.185649 1.05785 0.163601C 1.35346 0.0628648 1.66432 0.00584355 1.97746 0.00888465C 2.3965 0.0130662 2.82126 -0.0439536 3.23154 0.0864337C 3.68297 0.228225 4.07839 0.449084 4.20715 0.942883C 4.28639 1.25156 4.20716 1.56859 4.13973 1.87384C 3.96106 2.70292 3.79954 3.53428 3.65897 4.36869C 3.63573 4.50211 3.58621 4.53138 3.46888 4.52986C 3.22278 4.52378 2.97669 4.51352 2.73326 4.53253C 2.54584 4.54583 2.48717 4.47855 2.51345 4.30292C 2.51993 4.26643 2.51383 4.22804 2.51383 4.15543Z" transform="translate(32.0469 15.3613)" fill="#808080"/>
</g>
<g id="Vector_14">
<path fill-rule="evenodd" clip-rule="evenodd" d="M 1.85495 0.694874C 2.19476 0.279764 2.55209 -0.0270065 3.10294 0.00188397C 3.08199 0.332224 3.00313 0.642417 2.95056 0.956411C 2.93609 1.04536 2.90675 1.07349 2.81304 1.07767C 2.03971 1.11987 1.6881 1.46389 1.57381 2.24698C 1.474 2.9221 1.34791 3.59609 1.23362 4.27159C 1.21305 4.38107 1.17229 4.45292 1.02867 4.44531C 0.726961 4.43239 0.422202 4.43923 0.117443 4.44227C 0.0145864 4.44379 -0.0143657 4.42479 0.00620555 4.3077C 0.126205 3.64398 0.237442 2.97912 0.366203 2.31844C 0.501059 1.63116 0.612296 0.941584 0.72658 0.250114C 0.750199 0.0965382 0.79401 0.0235511 0.966961 0.0322942C 1.25115 0.04826 1.53496 0.0364764 1.81914 0.0364764C 1.90143 0.0364764 1.97152 0.0189901 1.93076 0.15774C 1.88429 0.317778 1.88124 0.48884 1.85495 0.694874Z" transform="translate(36.0938 15.4102)" fill="#808080"/>
</g>
<g id="Vector_15">
<path fill-rule="evenodd" clip-rule="evenodd" d="M 0.120111 1.13689e-06C 0.591726 1.13689e-06 1.06372 1.13689e-06 1.53496 1.13689e-06C 1.54372 0.27332 1.61724 0.531812 1.73152 0.778902C 1.15439 0.778902 0.577249 0.778902 0.000110703 0.778902C -0.00331784 0.513186 0.0732539 0.258875 0.120111 1.13689e-06Z" transform="translate(26.6719 17.875)" fill="#E6E6E6"/>
</g>
<g id="Group_2">
<g id="Group_3">
<g id="Vector_16">
<path fill-rule="evenodd" clip-rule="evenodd" d="M 4.00785 0.54458C 3.71947 0.215761 3.34271 0.0344362 2.90614 0.0097272C 2.53548 -0.0108002 2.16367 0.00820688 1.793 0.00402537C 1.58805 0.000984265 1.39148 0.0477408 1.19682 0.0944978C 1.11187 0.115025 0.977012 0.125289 0.945013 0.218803C 0.837966 0.534697 0.75149 0.859335 0.654729 1.18815C 0.770537 1.19538 0.840632 1.13683 0.919869 1.11517C 1.27568 1.01709 1.64215 1.00683 2.00367 0.973375C 2.26576 0.948666 2.54119 0.928139 2.77281 1.11517C 2.91185 1.22769 2.937 1.37556 2.90004 1.5318C 2.86043 1.69108 2.71986 1.62683 2.62005 1.62835C 2.24062 1.63596 1.86424 1.6561 1.48482 1.69868C 0.702729 1.78611 -0.0736467 2.49089 0.00559081 3.38421C 0.0406381 3.77423 0.165209 4.09735 0.503492 4.31213C 0.903489 4.56492 1.33091 4.57974 1.77929 4.45848C 2.05319 4.38549 2.30081 4.26385 2.54119 4.10039C 2.57776 4.2323 2.55871 4.33265 2.52633 4.45126C 2.77547 4.45126 3.01281 4.45126 3.24861 4.45126C 3.62499 4.45126 3.63375 4.45126 3.68518 4.09051C 3.69966 3.99395 3.71604 3.89588 3.73356 3.80084C 3.87985 3.01624 4.0307 2.23239 4.18613 1.44779C 4.25127 1.11935 4.23527 0.804975 4.00785 0.54458ZM 2.75871 2.59124C 2.69852 2.78701 2.67224 2.98735 2.56824 3.1759C 2.42043 3.44009 1.79034 3.63928 1.47682 3.5222C 1.34806 3.47544 1.28482 3.34506 1.28482 3.12001C 1.24672 2.85696 1.45168 2.72239 1.62767 2.60265C 1.90462 2.41562 2.23262 2.3643 2.56367 2.36164C 2.70881 2.36202 2.81852 2.39243 2.75871 2.59124Z" transform="translate(11.6943 15.4004)" fill="#808080"/>
</g>
</g>
</g>
<g id="Vector_17">
<path fill-rule="evenodd" clip-rule="evenodd" d="M -6.04534e-07 0.819571C 0.0159993 0.388495 0.299046 0.0802005 0.744375 0.00569349C 1.03733 -0.042584 1.35808 0.223512 1.40342 0.523061C 1.44913 0.819568 1.44913 0.819571 1.14704 0.819571C 0.766089 0.819571 0.383615 0.819571 -6.04534e-07 0.819571Z" transform="translate(22.8154 16.2891)" fill="#E6E6E6"/>
</g>
<g id="Vector_18">
<path fill-rule="evenodd" clip-rule="evenodd" d="M 1.699 0.934201C 1.6929 1.45879 1.54929 1.93092 1.1131 2.25974C 0.6472 2.61365 0.181679 2.43651 0.0525367 1.8796C -0.0937479 1.2539 0.0700603 0.71752 0.486438 0.251471C 0.64758 0.0686251 0.86434 -0.0115829 1.11615 0.00134183C 1.43234 0.0188282 1.67881 0.414932 1.699 0.735008C 1.70205 0.800772 1.699 0.868057 1.699 0.934201Z" transform="translate(40.043 16.4297)" fill="white"/>
</g>
<g id="Vector_19">
<path fill-rule="evenodd" clip-rule="evenodd" d="M 1.23168 6.03246e-07C 1.45454 0.00152115 1.47777 0.0395335 1.47206 0.245568C 1.45149 0.894463 1.01797 1.13889 0.493782 1.20428C 0.33264 1.22328 0.15969 1.19591 0.0690243 1.02751C -0.0422129 0.821477 -0.0163084 0.599096 0.127309 0.431075C 0.335689 0.187027 0.611117 0.0786885 0.918543 0.0380138C 1.02978 0.0231884 1.13797 0.0114047 1.23168 6.03246e-07Z" transform="translate(33.332 17.7598)" fill="white"/>
</g>
</g>
</g>
</g>
</svg>

