<svg width="165" height="133" viewBox="0 0 165 133" version="1.1" xmlns="http://www.w3.org/2000/svg" xmlns:xlink="http://www.w3.org/1999/xlink">
<g id="Canvas" fill="none">
<g id="Group 4">
<g id="Vector">
<path d="M 132.471 133L 32.3909 133C 14.5344 133 0 118.603 0 100.915L 0 32.0845C 0 14.3969 14.5344 0 32.3909 0L 132.609 0C 150.466 0 165 14.3969 165 32.0845L 165 101.053C 164.862 118.603 150.327 133 132.471 133Z" fill="#E5E5E5"/>
</g>
<g id="Mask Group">
<mask id="mask0" mask-type="alpha" maskUnits="userSpaceOnUse" x="0" y="0" width="165" height="133">
<g id="Vector_2">
<path d="M 132.471 133L 32.3909 133C 14.5344 133 0 118.603 0 100.915L 0 32.0845C 0 14.3969 14.5344 0 32.3909 0L 132.609 0C 150.466 0 165 14.3969 165 32.0845L 165 101.053C 164.862 118.603 150.327 133 132.471 133Z" fill="#96BF3D"/>
</g>
</mask>
<g mask="url(#mask0)">
<g id="Group">
<g id="Group_2">
<g id="Vector_3">
<path d="M 5.01608e-07 44.0884C 3.20515 46.3691 6.6733 48.2888 10.3551 49.8148C 16.5682 52.3744 23.373 53.7855 30.5065 53.7855C 31.0489 53.7855 31.5913 53.7855 32.1337 53.7527C 33.613 53.7035 35.0595 53.605 36.5059 53.441C 38.4454 45.2205 40.763 34.342 42.9819 30.322C 43.9846 28.5008 45.316 26.8435 47.0582 25.4653C 47.124 25.3996 47.2062 25.3504 47.2719 25.3012C 48.1266 24.6449 48.932 24.0049 49.721 23.365C 50.0333 23.1189 50.3291 22.8564 50.625 22.6103C 52.7946 20.7562 54.6684 18.9185 56.2463 17.0644C 56.2628 17.0479 56.2792 17.0315 56.2792 17.0151C 56.8545 16.3424 57.3805 15.6697 57.8736 14.9805C 57.9558 14.8821 58.0215 14.7672 58.1037 14.6524C 58.1201 14.6196 58.153 14.5867 58.1694 14.5539C 59.0077 13.3561 59.7145 12.1419 60.3226 10.8949C 61.7526 7.92508 62.5087 4.79114 62.6238 1.34546L 43.7052 0.623505L 36.736 0.360976L 35.684 0.328163L 27.2849 2.00293e-06C 25.3125 0.147674 23.488 1.05011 22.1895 2.47761C 21.7622 2.95344 21.4006 3.47851 21.0883 4.05279C 20.2171 5.71 18.7871 8.35169 17.0284 11.6169C 12.2618 20.4116 5.04606 33.7185 5.01608e-07 44.0884Z" transform="translate(24 88.2148)" fill="#FF8B6C"/>
</g>
<g id="Vector_4" opacity="0.33">
<path d="M 0.266896 0.918846C 8.64961 1.80488 9.55362 4.47939 8.50167 8.71266C 8.81397 8.46654 9.10983 8.20402 9.40569 7.9579C 11.5753 6.10379 13.4491 4.26609 15.027 2.41198C 15.0435 2.39557 15.0599 2.37917 15.0599 2.36276C 15.6352 1.69003 16.1612 1.0173 16.6543 0.328161C 16.7365 0.229712 16.8022 0.114856 16.8844 0C 10.5727 0.0492241 -1.98493 0.689133 0.266896 0.918846Z" transform="translate(65.2188 102.867)" fill="url(#paint0_linear)"/>
</g>
</g>
<g id="Group_3">
<g id="Vector_5">
<path d="M 5.11315 0.187271C 5.11315 0.187271 0.395822 -0.222931 0.0670885 0.170862C -0.261645 0.564655 0.724556 5.37221 0.724556 5.37221C 0.724556 5.37221 6.9705 3.07508 5.11315 0.187271Z" transform="translate(106.312 59.6758)" fill="#E06251"/>
</g>
<g id="Vector_6">
<path d="M 5.11315 0.187274C 5.11315 0.187274 0.395822 -0.222928 0.0670885 0.170865C -0.261645 0.564658 0.724556 5.37221 0.724556 5.37221C 0.724556 5.37221 6.9705 3.0915 5.11315 0.187274Z" transform="translate(106.312 69.0762)" fill="#E06251"/>
</g>
</g>
<g id="Group_4">
<g id="Vector_7">
<path d="M 30.7966 6.07078C 26.8682 8.66325 19.7018 11.0096 12.4368 11.8792C 10.563 12.1089 8.68922 12.2238 6.86475 12.2238C -5.38058 12.2566 0.717435 3.51113 9.92198 2.24771C 10.4151 2.18208 10.9246 2.13286 11.4342 2.11645C 14.1791 2.0016 17.0226 1.62421 19.7182 1.21401C 26.8518 0.147489 32.9662 -1.09952 33.7881 1.73907C 34.1825 3.10093 32.9991 4.62688 30.7966 6.07078Z" transform="translate(86.1357 48.6875)" fill="#FF8B6C"/>
</g>
<g id="Vector_8">
<path d="M 21.7583 4.85678C 17.8299 7.44924 10.6635 9.7956 3.39852 10.6652C 1.29462 8.53218 -1.0887 5.11931 0.538529 1.67362C 0.653586 1.44391 0.768649 1.2306 0.883706 1.03371C 1.37681 0.968074 1.88635 0.918852 2.39588 0.902444C 5.14081 0.787588 7.98435 0.410203 10.68 2.00293e-06C 11.0087 1.54236 12.3894 5.80844 17.4026 5.54591C 19.2764 5.46387 20.6899 5.18494 21.7583 4.85678Z" transform="translate(95.1758 49.9023)" fill="url(#paint1_linear)"/>
</g>
</g>
<g id="Group_5">
<g id="Vector_9">
<path d="M 17.7209 1.77564C 17.6716 2.3007 16.1759 3.30159 13.9898 4.30248C 11.1955 5.59872 7.25074 6.91136 3.7826 7.25593C -2.20036 7.86303 -1.13197 -0.521478 7.31648 0.0363947C 7.59591 0.0528027 7.87533 0.0856188 8.17119 0.118435C 8.15476 0.134843 17.9839 -0.685563 17.7209 1.77564Z" transform="translate(99.1611 81.6973)" fill="#FF8B6C"/>
</g>
<g id="Vector_10">
<path d="M 13.9898 4.29276C 11.1955 5.589 7.25074 6.90164 3.7826 7.24621C -2.20036 7.85331 -1.13197 -0.531197 7.31648 0.0266759C 7.48085 1.25728 8.352 3.22624 12.0503 4.22713C 12.6584 4.40762 13.3159 4.40762 13.9898 4.29276Z" transform="translate(99.1611 81.707)" fill="url(#paint2_linear)"/>
</g>
</g>
<g id="Group_6">
<g id="Vector_11">
<path d="M 47.2555 2.88781C 46.3679 1.18138 44.5763 -1.25183e-07 42.5053 -1.25183e-07L 5.34193 -1.25183e-07C 3.2709 -1.25183e-07 1.4793 1.16497 0.591719 2.88781C 0.213675 3.62618 2.00643e-06 4.44658 2.00643e-06 5.33261L 2.00643e-06 84.6326C 2.00643e-06 85.0592 0.0493111 85.4858 0.147931 85.8796C 0.706779 88.226 2.82711 89.9652 5.34193 89.9652L 42.5053 89.9652C 45.0201 89.9652 47.1404 88.226 47.6993 85.8796C 47.7979 85.4694 47.8472 85.0592 47.8472 84.6326L 47.8472 5.33261C 47.8472 4.46299 47.6335 3.62618 47.2555 2.88781Z" transform="translate(60.7197 13)" fill="url(#paint3_linear)"/>
</g>
<g id="Group_7">
<g id="Vector_12">
<path d="M 47.8472 5.33261L 47.8472 84.6326C 47.8472 85.0592 47.7979 85.4858 47.6993 85.8796C 47.1404 88.226 45.0201 89.9652 42.5053 89.9652L 5.34192 89.9652C 2.82711 89.9652 0.70678 88.226 0.147932 85.8796C 0.0493121 85.4694 -2.00643e-06 85.0592 -2.00643e-06 84.6326L -2.00643e-06 5.33261C -2.00643e-06 4.44658 0.213676 3.60977 0.59172 2.88781C 1.4793 1.18138 3.2709 -1.25183e-07 5.34192 -1.25183e-07L 42.5053 -1.25183e-07C 44.5763 -1.25183e-07 46.3679 1.16497 47.2555 2.88781C 47.6335 3.62618 47.8472 4.46299 47.8472 5.33261Z" transform="translate(59.668 13)" fill="#BEE05F"/>
</g>
<g id="Vector_13">
<path d="M 47.8472 5.33261L 47.8472 84.6326C 47.8472 85.0592 47.7979 85.4858 47.6993 85.8796C 47.1404 88.226 45.0201 89.9652 42.5053 89.9652L 5.34192 89.9652C 2.82711 89.9652 0.70678 88.226 0.147932 85.8796C 0.0493121 85.4694 -2.00643e-06 85.0592 -2.00643e-06 84.6326L -2.00643e-06 5.33261C -2.00643e-06 4.44658 0.213676 3.60977 0.59172 2.88781C 1.4793 1.18138 3.2709 -1.25183e-07 5.34192 -1.25183e-07L 42.5053 -1.25183e-07C 44.5763 -1.25183e-07 46.3679 1.16497 47.2555 2.88781C 47.6335 3.62618 47.8472 4.46299 47.8472 5.33261Z" transform="translate(59.668 13)" fill="#D5E5B1"/>
</g>
<g id="Vector_14">
<path d="M -1.00322e-06 1.52588e-06L 10.6674 1.52588e-06" stroke-width="0.5" stroke-miterlimit="10" stroke-linecap="round" stroke-linejoin="round" transform="translate(78.2568 14.332)" stroke="#769327"/>
</g>
<g id="Vector_15">
<path d="M 47.8472 2.4448L 47.8472 81.7448C 47.8472 82.1714 47.7979 82.598 47.6993 82.9918L 0.147932 82.9918C 0.0493121 82.5816 -2.00643e-06 82.1714 -2.00643e-06 81.7448L -2.00643e-06 2.4448C -2.00643e-06 1.55876 0.213676 0.721954 0.59172 2.50367e-07L 47.2555 2.50367e-07C 47.6335 0.738362 47.8472 1.57517 47.8472 2.4448Z" transform="translate(59.668 15.8887)" fill="#EEEEEE"/>
</g>
</g>
</g>
<g id="Group_8">
<g id="Group_9">
<g id="Vector_16">
<path d="M 10.3305 8.1712C 6.59933 11.1575 2.52303 11.4528 0.813614 10.2386C -0.221897 9.50025 -0.369824 8.20402 0.961548 6.61244C 4.49544 2.37917 9.16345 -1.00147e-06 9.16345 -1.00147e-06C 9.16345 -1.00147e-06 10.462 0.623507 11.481 1.69003C 12.8781 3.13394 13.7657 5.41465 10.3305 8.1712Z" transform="translate(102.247 59.8633)" fill="#FF8B6C"/>
</g>
</g>
<g id="Vector_17">
<path d="M 9.51685 6.48117C 5.78572 9.46744 1.70941 9.76278 -2.00643e-06 8.54858C 5.09537 9.50025 8.72788 6.00534 10.0757 4.01997C 10.9633 2.72373 10.8482 1.0173 10.6674 2.00293e-06C 12.0645 1.44391 12.9521 3.72462 9.51685 6.48117Z" transform="translate(103.062 61.5527)" fill="url(#paint4_linear)"/>
</g>
</g>
<g id="Group_10">
<g id="Group_11">
<g id="Vector_18">
<path d="M 10.3305 8.1712C 6.59933 11.1575 2.52303 11.4528 0.813614 10.2386C -0.221897 9.50025 -0.369824 8.20402 0.961548 6.61244C 4.49544 2.37916 9.16345 2.00293e-06 9.16345 2.00293e-06C 9.16345 2.00293e-06 10.462 0.623505 11.481 1.69003C 12.8781 3.15034 13.7657 5.43106 10.3305 8.1712Z" transform="translate(102.247 69.2637)" fill="#FF8B6C"/>
</g>
</g>
<g id="Vector_19">
<path d="M 9.51685 6.48117C 5.78572 9.46743 1.70941 9.76278 -2.00643e-06 8.54858C 5.09537 9.50025 8.72788 6.00534 10.0757 4.01997C 10.9633 2.72373 10.8482 1.0173 10.6674 0C 12.0645 1.46031 12.9521 3.74103 9.51685 6.48117Z" transform="translate(103.062 70.9531)" fill="url(#paint5_linear)"/>
</g>
</g>
<g id="Group_12">
<g id="Vector_20">
<path d="M 34.432 11.3925C 30.5036 19.3832 27.0026 21.106 26.641 28.1779C 26.2794 35.2497 32.739 48.5895 20.658 55.6449C 19.3102 56.4325 17.946 56.9412 16.6146 57.2201C 5.9472 59.3859 -3.58608 46.1611 1.32849 32.2799C 3.76112 25.4049 8.49489 20.7614 13.8697 16.4133C 15.3161 15.2483 16.7954 14.0998 18.2912 12.9512C 22.8441 9.4399 27.545 5.78091 31.4898 0.924133C 32.8376 -0.733078 35.5004 -0.043942 35.8784 2.05629C 36.3058 4.51749 36.2236 7.74987 34.432 11.3925Z" transform="translate(40.835 56.9844)" fill="#FF8B6C"/>
</g>
<g id="Vector_21" opacity="0.54">
<path d="M 16.6146 40.8068C 5.9472 42.9726 -3.58608 29.7478 1.32849 15.8666C 3.76112 8.9916 8.49489 4.34813 13.8697 0C 11.3877 2.32994 8.46201 5.80845 6.83478 10.2878C 3.62963 19.1318 4.40215 35.4742 16.6146 40.8068Z" transform="translate(40.8174 73.4141)" fill="url(#paint6_linear)"/>
</g>
</g>
</g>
</g>
</g>
</g>
</g>
<defs>

<linearGradient id="paint0_linear" x2="1" gradientUnits="userSpaceOnUse" gradientTransform="translate(16.876 -4.06678) scale(-16.8755 16.846)">
<stop stop-color="#E26850"/>
<stop offset="1" stop-color="#E26850" stop-opacity="0"/>
</linearGradient>
<linearGradient id="paint1_linear" x2="1" gradientUnits="userSpaceOnUse" gradientTransform="matrix(16.5681 -3.06925 3.07461 16.5393 0.603738 -2.35765)">
<stop stop-color="#E26850"/>
<stop offset="1" stop-color="#E26850" stop-opacity="0"/>
</linearGradient>
<linearGradient id="paint2_linear" x2="1" gradientUnits="userSpaceOnUse" gradientTransform="matrix(13.6493 2.15343 -2.15719 13.6255 1.32768 -3.88383)">
<stop stop-color="#E26850"/>
<stop offset="1" stop-color="#E26850" stop-opacity="0"/>
</linearGradient>
<linearGradient id="paint3_linear" x2="1" gradientUnits="userSpaceOnUse" gradientTransform="translate(68.0678 61.544) scale(-33.1645 -33.1066)">
<stop stop-color="#718F2E"/>
<stop offset="0.2723" stop-color="#769630"/>
<stop offset="0.6694" stop-color="#85AA36"/>
<stop offset="1" stop-color="#96BF3D"/>
</linearGradient>
<linearGradient id="paint4_linear" x2="1" gradientUnits="userSpaceOnUse" gradientTransform="matrix(-4.99674 -4.13153 4.13874 -4.98803 10.2943 12.5673)">
<stop stop-color="#E26850"/>
<stop offset="1" stop-color="#E26850" stop-opacity="0"/>
</linearGradient>
<linearGradient id="paint5_linear" x2="1" gradientUnits="userSpaceOnUse" gradientTransform="matrix(-4.99674 -4.13153 4.13874 -4.98803 10.2943 12.5747)">
<stop stop-color="#E26850"/>
<stop offset="1" stop-color="#E26850" stop-opacity="0"/>
</linearGradient>
<linearGradient id="paint6_linear" x2="1" gradientUnits="userSpaceOnUse" gradientTransform="matrix(13.8478 11.4743 -11.4943 13.8236 3.29278 1.67745)">
<stop stop-color="#E26850"/>
<stop offset="1" stop-color="#E26850" stop-opacity="0"/>
</linearGradient>

</defs>
</svg>

