<svg width="165" height="133" viewBox="0 0 165 133" version="1.1" xmlns="http://www.w3.org/2000/svg" xmlns:xlink="http://www.w3.org/1999/xlink">
<g id="Canvas" fill="none">
<g id="Group">
<g id="Vector">
<path d="M 132.471 133L 32.3909 133C 14.5344 133 0 118.603 0 100.915L 0 32.0845C 0 14.3969 14.5344 0 32.3909 0L 132.609 0C 150.466 0 165 14.3969 165 32.0845L 165 101.053C 164.862 118.603 150.327 133 132.471 133Z" transform="translate(165 0) scale(-1 1)" fill="#E5E5E5"/>
</g>
<g id="Mask Group">
<mask id="mask0" mask-type="alpha" maskUnits="userSpaceOnUse" x="0" y="0" width="165" height="133">
<g id="Vector_2">
<path d="M 132.471 133L 32.3909 133C 14.5344 133 0 118.603 0 100.915L 0 32.0845C 0 14.3969 14.5344 0 32.3909 0L 132.609 0C 150.466 0 165 14.3969 165 32.0845L 165 101.053C 164.862 118.603 150.327 133 132.471 133Z" fill="#96BF3D"/>
</g>
</mask>
<g mask="url(#mask0)">
<g id="Group_2">
<g id="Group_3">
<g id="Vector_3">
<path d="M 5.01608e-07 44.0884C 3.20515 46.3691 6.6733 48.2888 10.3551 49.8148C 16.5682 52.3744 23.373 53.7855 30.5065 53.7855C 31.0489 53.7855 31.5913 53.7855 32.1337 53.7527C 33.613 53.7035 35.0595 53.605 36.5059 53.441C 38.4454 45.2205 40.763 34.342 42.9819 30.322C 43.9846 28.5008 45.316 26.8435 47.0582 25.4653C 47.124 25.3996 47.2062 25.3504 47.2719 25.3012C 48.1266 24.6449 48.932 24.0049 49.721 23.365C 50.0333 23.1189 50.3291 22.8564 50.625 22.6103C 52.7946 20.7562 54.6684 18.9185 56.2463 17.0644C 56.2628 17.0479 56.2792 17.0315 56.2792 17.0151C 56.8545 16.3424 57.3805 15.6697 57.8736 14.9805C 57.9558 14.8821 58.0215 14.7672 58.1037 14.6524C 58.1201 14.6196 58.153 14.5867 58.1694 14.5539C 59.0077 13.3561 59.7145 12.1419 60.3226 10.8949C 61.7526 7.92508 62.5087 4.79114 62.6238 1.34546L 43.7052 0.623505L 36.736 0.360976L 35.684 0.328163L 27.2849 2.00293e-06C 25.3125 0.147674 23.488 1.05011 22.1895 2.47761C 21.7622 2.95344 21.4006 3.47851 21.0883 4.05279C 20.2171 5.71 18.7871 8.35169 17.0284 11.6169C 12.2618 20.4116 5.04606 33.7185 5.01608e-07 44.0884Z" transform="translate(21 88.2148)" fill="#FF8B6C"/>
</g>
<g id="Vector_4" opacity="0.33">
<path d="M 0.266896 0.918846C 8.64961 1.80488 9.55362 4.47939 8.50167 8.71266C 8.81397 8.46654 9.10983 8.20402 9.40569 7.9579C 11.5753 6.10379 13.4491 4.26609 15.027 2.41198C 15.0435 2.39557 15.0599 2.37917 15.0599 2.36276C 15.6352 1.69003 16.1612 1.0173 16.6543 0.328161C 16.7365 0.229712 16.8022 0.114856 16.8844 0C 10.5727 0.0492241 -1.98493 0.689133 0.266896 0.918846Z" transform="translate(62.2188 102.867)" fill="url(#paint0_linear)"/>
</g>
</g>
<g id="Group_4">
<g id="Vector_5">
<path d="M 5.11315 0.187271C 5.11315 0.187271 0.395822 -0.222931 0.0670885 0.170862C -0.261645 0.564655 0.724556 5.37221 0.724556 5.37221C 0.724556 5.37221 6.9705 3.07508 5.11315 0.187271Z" transform="translate(103.312 59.6758)" fill="#E06251"/>
</g>
<g id="Vector_6">
<path d="M 5.11315 0.187274C 5.11315 0.187274 0.395822 -0.222928 0.0670885 0.170865C -0.261645 0.564658 0.724556 5.37221 0.724556 5.37221C 0.724556 5.37221 6.9705 3.0915 5.11315 0.187274Z" transform="translate(103.312 69.0762)" fill="#E06251"/>
</g>
</g>
<g id="Group_5">
<g id="Vector_7">
<path d="M 30.7966 6.07078C 26.8682 8.66325 19.7018 11.0096 12.4368 11.8792C 10.563 12.1089 8.68922 12.2238 6.86475 12.2238C -5.38058 12.2566 0.717435 3.51113 9.92198 2.24771C 10.4151 2.18208 10.9246 2.13286 11.4342 2.11645C 14.1791 2.0016 17.0226 1.62421 19.7182 1.21401C 26.8518 0.147489 32.9662 -1.09952 33.7881 1.73907C 34.1825 3.10093 32.9991 4.62688 30.7966 6.07078Z" transform="translate(83.1367 48.6875)" fill="#FF8B6C"/>
</g>
<g id="Vector_8">
<path d="M 21.7583 4.85678C 17.8299 7.44924 10.6635 9.7956 3.39852 10.6652C 1.29462 8.53218 -1.0887 5.11931 0.538529 1.67362C 0.653586 1.44391 0.768649 1.2306 0.883706 1.03371C 1.37681 0.968074 1.88635 0.918852 2.39588 0.902444C 5.14081 0.787588 7.98435 0.410203 10.68 2.00293e-06C 11.0087 1.54236 12.3894 5.80844 17.4026 5.54592C 19.2764 5.46387 20.6899 5.18494 21.7583 4.85678Z" transform="translate(92.1758 49.9023)" fill="url(#paint1_linear)"/>
</g>
</g>
<g id="Group_6">
<g id="Vector_9">
<path d="M 17.7209 1.77564C 17.6716 2.3007 16.1759 3.30159 13.9898 4.30248C 11.1955 5.59872 7.25074 6.91136 3.7826 7.25593C -2.20036 7.86303 -1.13197 -0.521478 7.31648 0.0363947C 7.59591 0.0528027 7.87533 0.0856188 8.17119 0.118435C 8.15476 0.134843 17.9839 -0.685563 17.7209 1.77564Z" transform="translate(96.1621 81.6973)" fill="#FF8B6C"/>
</g>
<g id="Vector_10">
<path d="M 13.9898 4.29276C 11.1955 5.589 7.25074 6.90164 3.7826 7.24621C -2.20036 7.85331 -1.13197 -0.531197 7.31648 0.0266759C 7.48085 1.25728 8.352 3.22624 12.0503 4.22713C 12.6584 4.40762 13.3159 4.40762 13.9898 4.29276Z" transform="translate(96.1621 81.707)" fill="url(#paint2_linear)"/>
</g>
</g>
<g id="Group_7">
<g id="Vector_11">
<path d="M 47.2555 2.88781C 46.3679 1.18138 44.5763 -1.25183e-07 42.5053 -1.25183e-07L 5.34193 -1.25183e-07C 3.2709 -1.25183e-07 1.4793 1.16497 0.591719 2.88781C 0.213675 3.62618 2.00643e-06 4.44658 2.00643e-06 5.33261L 2.00643e-06 84.6326C 2.00643e-06 85.0592 0.0493111 85.4858 0.147931 85.8796C 0.706779 88.226 2.82711 89.9652 5.34193 89.9652L 42.5053 89.9652C 45.0201 89.9652 47.1404 88.226 47.6993 85.8796C 47.7979 85.4694 47.8472 85.0592 47.8472 84.6326L 47.8472 5.33261C 47.8472 4.46299 47.6335 3.62618 47.2555 2.88781Z" transform="translate(57.7188 13)" fill="url(#paint3_linear)"/>
</g>
<g id="Group_8">
<g id="Vector_12">
<path d="M 47.8472 5.33261L 47.8472 84.6326C 47.8472 85.0592 47.7979 85.4858 47.6993 85.8796C 47.1404 88.226 45.0201 89.9652 42.5053 89.9652L 5.34192 89.9652C 2.82711 89.9652 0.70678 88.226 0.147932 85.8796C 0.0493121 85.4694 -2.00643e-06 85.0592 -2.00643e-06 84.6326L -2.00643e-06 5.33261C -2.00643e-06 4.44658 0.213676 3.60977 0.59172 2.88781C 1.4793 1.18138 3.2709 -1.25183e-07 5.34192 -1.25183e-07L 42.5053 -1.25183e-07C 44.5763 -1.25183e-07 46.3679 1.16497 47.2555 2.88781C 47.6335 3.62618 47.8472 4.46299 47.8472 5.33261Z" transform="translate(56.668 13)" fill="#BEE05F"/>
</g>
<g id="Vector_13">
<path d="M 47.8472 5.33261L 47.8472 84.6326C 47.8472 85.0592 47.7979 85.4858 47.6993 85.8796C 47.1404 88.226 45.0201 89.9652 42.5053 89.9652L 5.34192 89.9652C 2.82711 89.9652 0.70678 88.226 0.147932 85.8796C 0.0493121 85.4694 -2.00643e-06 85.0592 -2.00643e-06 84.6326L -2.00643e-06 5.33261C -2.00643e-06 4.44658 0.213676 3.60977 0.59172 2.88781C 1.4793 1.18138 3.2709 -1.25183e-07 5.34192 -1.25183e-07L 42.5053 -1.25183e-07C 44.5763 -1.25183e-07 46.3679 1.16497 47.2555 2.88781C 47.6335 3.62618 47.8472 4.46299 47.8472 5.33261Z" transform="translate(56.668 13)" fill="#D5E5B1"/>
</g>
<g id="Vector_14">
<path d="M -1.00322e-06 1.52588e-06L 10.6674 1.52588e-06" stroke-width="0.5" stroke-miterlimit="10" stroke-linecap="round" stroke-linejoin="round" transform="translate(75.2559 14.332)" stroke="#769327"/>
</g>
<g id="Vector_15">
<path d="M 47.8472 2.4448L 47.8472 81.7448C 47.8472 82.1714 47.7979 82.598 47.6993 82.9918L 0.147932 82.9918C 0.0493121 82.5816 -2.00643e-06 82.1714 -2.00643e-06 81.7448L -2.00643e-06 2.4448C -2.00643e-06 1.55876 0.213676 0.721954 0.59172 2.50367e-07L 47.2555 2.50367e-07C 47.6335 0.738362 47.8472 1.57517 47.8472 2.4448Z" transform="translate(56.668 15.8887)" fill="#EEEEEE"/>
</g>
</g>
<g id="Group_9">
<g id="Vector_16">
<path d="M 0 1.05554C 0.0657468 0.464851 0.591723 0.0546482 1.26563 0.00542414C 1.7916 -0.0273919 2.08746 0.0874648 2.16965 0.382809C 1.9724 0.300769 1.77516 0.317179 1.57792 0.366403C 1.06839 0.481259 1.15057 0.38281 1.23275 0.891459C 1.41356 2.04002 1.9724 3.0245 2.74493 3.87772C 3.92837 5.19036 5.40767 6.05999 7.0349 6.6999C 9.64834 7.73361 12.3768 8.11099 15.1875 7.99614C 17.8174 7.89769 20.3651 7.35622 22.7319 6.17485C 23.2415 5.92873 23.7346 5.63338 24.1948 5.30522C 24.3263 5.20677 24.4249 5.22318 24.5071 5.35444C 24.54 5.38726 24.5729 5.43648 24.6057 5.4693C 24.918 5.84668 24.9345 5.84668 24.5071 6.15844C 22.6826 7.48749 20.6116 8.27507 18.4091 8.71809C 14.7273 9.44004 11.0948 9.25955 7.54444 7.96332C 5.60491 7.25777 3.84619 6.24048 2.4655 4.66531C 1.64367 3.73005 1.06839 2.66353 0.85471 1.41652C 0.821837 1.20321 0.788959 0.989907 0.788959 0.760195C 0.788959 0.612522 0.75609 0.579707 0.60816 0.645339C 0.378046 0.760195 0.19724 0.891459 0 1.05554Z" transform="translate(66.1523 39.3477)" fill="#96BF3D"/>
</g>
<g id="Vector_17">
<path d="M 1.7916 0.334685C 2.03815 -0.00988358 2.53125 -0.0919253 3.07366 0.104971C 3.63251 0.318276 3.96124 0.695661 3.92837 1.10586C 3.764 0.925374 3.56676 0.810519 3.36952 0.71207C 3.2709 0.662846 3.2216 0.679254 3.2216 0.794111C 3.07367 2.73026 2.05458 4.19057 0.657466 5.45399C 0.525972 5.56885 0.443795 5.58525 0.345174 5.43758C 0.230118 5.2735 0.0164347 5.14224 -2.00643e-06 4.97816C -2.00643e-06 4.81408 0.262989 4.73204 0.394483 4.60077C 1.49574 3.66552 2.35045 2.54977 2.69562 1.12227C 2.71206 1.04023 2.72849 0.941782 2.74493 0.859742C 2.82711 0.449541 2.82711 0.449541 2.43263 0.367501C 2.23539 0.334685 2.02171 0.318277 1.7916 0.334685Z" transform="translate(91.1035 39.1641)" fill="#96BF3D"/>
</g>
<g id="Vector_18">
<path d="M 0.478436 0.522731C 0.70855 0.227386 0.955103 0.063305 1.2674 0.0961211C 1.46464 0.112529 1.62901 0.194569 1.7605 0.342242C 1.84268 0.44069 1.89199 0.457098 1.97418 0.342242C 2.10567 0.161753 2.30291 0.046897 2.51658 0.0140809C 3.04256 -0.0679592 3.40416 0.210979 3.46991 0.78526C 3.51922 1.29391 3.53566 1.80256 3.58497 2.31121C 3.60141 2.55733 3.43704 2.49169 3.30554 2.52451C 3.14118 2.55733 3.10831 2.47529 3.09187 2.32761C 3.07543 1.86819 3.04256 1.40877 2.99325 0.949341C 2.97682 0.752444 2.9275 0.555546 2.71383 0.473506C 2.46728 0.35865 2.17142 0.506324 2.0728 0.78526C 2.00705 0.998565 2.00705 1.22828 2.02348 1.45799C 2.03992 1.78615 2.05636 2.0979 2.10567 2.42606C 2.13854 2.67218 1.95774 2.60655 1.84268 2.62296C 1.71119 2.63937 1.629 2.65578 1.61257 2.45888C 1.59613 1.98305 1.54682 1.50721 1.49751 1.03138C 1.4482 0.670404 1.30027 0.53914 1.03728 0.53914C 0.741422 0.555548 0.577056 0.752443 0.56062 1.09701C 0.527746 1.57284 0.593492 2.03227 0.626365 2.5081C 0.642802 2.68859 0.560621 2.73781 0.41269 2.72141C 0.281197 2.72141 0.149701 2.75422 0.133265 2.54092C 0.100391 1.86819 0.0510833 1.17905 0.00177324 0.506322C -0.0146634 0.276609 0.0839577 0.260202 0.264761 0.227386C 0.462002 0.19457 0.494873 0.293018 0.478436 0.522731Z" transform="translate(80.123 44.2578)" fill="#59595B"/>
</g>
<g id="Vector_19">
<path d="M 2.36688 1.626C 2.18608 1.56037 2.03815 1.52755 1.95596 1.79008C 1.85734 2.08542 1.59436 2.21669 1.28206 2.21669C 0.969767 2.21669 0.756084 2.0362 0.608154 1.77367C 0.52597 1.6424 0.558849 1.57677 0.70678 1.54396C 1.21632 1.4291 1.70942 1.28143 2.21896 1.15017C 2.30114 1.13376 2.36689 1.11735 2.35045 1.00249C 2.25183 0.444619 1.70941 -0.0312126 1.18344 0.00160349C 0.460223 0.0508276 4.01286e-06 0.510252 4.01286e-06 1.29784C 4.01286e-06 1.54396 0.0821855 1.87212 0.295862 2.15105C 0.575286 2.52844 0.953328 2.70893 1.41356 2.6433C 1.92309 2.56126 2.2847 2.28232 2.48194 1.80649C 2.51481 1.69163 2.4655 1.65881 2.36688 1.626ZM 0.460229 1.05172C 0.509539 0.707148 0.805398 0.44462 1.16701 0.44462C 1.28206 0.44462 1.38068 0.461028 1.46286 0.52666C 1.59436 0.6087 1.75873 0.707147 1.74229 0.871227C 1.72585 0.986084 1.54504 0.953269 1.42999 0.986085C 1.167 1.06813 0.887577 1.11735 0.608154 1.19939C 0.460223 1.24861 0.443793 1.18298 0.460229 1.05172Z" transform="translate(84.2168 43.7305)" fill="#59595B"/>
</g>
<g id="Vector_20">
<path d="M 2.94862 1.39806C 2.96506 0.725336 2.35691 0.0690144 1.66656 0.00338226C 1.04197 -0.0458418 0.515994 0.446398 0.400937 1.21758C 0.335191 1.13554 0.285877 1.10272 0.253003 1.0535C 0.187256 0.971455 0.154391 0.955048 0.0557709 1.02068C -0.0428492 1.10272 0.00645683 1.15194 0.0722036 1.21758C 0.18726 1.34884 0.302313 1.49651 0.41737 1.62778C 1.0584 2.39895 1.71588 3.15372 2.35691 3.9249C 2.40622 3.97412 2.42265 4.10539 2.55414 4.02335C 2.6692 3.94131 2.63632 3.87568 2.55414 3.79364C 2.20897 3.38344 1.8638 2.97324 1.5022 2.54663C 2.38978 2.4974 2.93219 2.05439 2.94862 1.39806ZM 1.73231 2.31691C 1.18989 2.31691 0.66392 1.74263 0.66392 1.16835C 0.66392 0.692518 1.09128 0.265909 1.58438 0.265909C 2.14323 0.265909 2.68564 0.790966 2.68564 1.36525C 2.68564 1.8739 2.24184 2.31691 1.73231 2.31691Z" transform="translate(88.9277 41.2676)" fill="#59595B"/>
</g>
<g id="Vector_21">
<path d="M 1.25393 0.28342C 1.86209 0.135748 2.20725 0.349052 2.35518 0.972557C 2.70035 0.77566 3.02909 0.808476 3.34138 1.0546C 3.53862 1.21868 3.62081 1.41557 3.5715 1.6781C 3.53863 1.875 3.44001 2.05549 3.35782 2.23597C 3.16058 2.61336 2.96334 3.00715 2.7661 3.38454C 2.73323 3.45017 2.71679 3.53221 2.5853 3.48299C 2.47024 3.41735 2.50311 3.35172 2.53599 3.26968C 2.73323 2.87589 2.93047 2.49851 3.12771 2.10471C 3.17702 2.00626 3.22633 1.90781 3.27564 1.79296C 3.35782 1.57965 3.35783 1.38276 3.16058 1.21868C 2.94691 1.0546 2.66748 1.02178 2.4538 1.16945C 2.28944 1.28431 2.17438 1.44839 2.0922 1.61247C 1.89496 1.98986 1.71416 2.36724 1.51692 2.72822C 1.48404 2.81026 1.45117 2.8923 1.31967 2.82666C 1.18818 2.76103 1.25393 2.6954 1.30324 2.61336C 1.50048 2.21957 1.71416 1.82577 1.9114 1.43198C 1.96071 1.31713 2.01001 1.20227 2.04289 1.10382C 2.12507 0.874109 2.04289 0.69362 1.84565 0.562356C 1.64841 0.431092 1.43473 0.414685 1.23749 0.545949C 1.04025 0.677214 0.925192 0.87411 0.810135 1.07101C 0.629332 1.41557 0.44853 1.77655 0.267727 2.12112C 0.234853 2.18675 0.218415 2.26879 0.0869219 2.21957C -0.0281349 2.15394 -0.0116962 2.0883 0.0376139 2.00626C 0.349911 1.39917 0.662205 0.792069 0.974502 0.20138C 1.00738 0.11934 0.990942 -0.0611498 1.18818 0.0208904C 1.40186 0.0865225 1.22105 0.184972 1.25393 0.28342Z" transform="translate(70.75 42.2012)" fill="#59595B"/>
</g>
<g id="Vector_22">
<path d="M 1.43842 0.0254329C 0.698771 -0.122239 0.0906118 0.386409 0.00842834 1.20681C -0.0737551 1.94517 0.452221 2.55227 1.27406 2.56868C 1.55348 2.56868 1.86577 2.45382 2.11232 2.17489C 2.16163 2.12566 2.27669 2.07644 2.17807 1.96158C 2.07945 1.86313 2.0137 1.91236 1.94796 2.01081C 1.93152 2.02721 1.91508 2.04362 1.89865 2.06003C 1.60279 2.33897 1.25762 2.42101 0.863138 2.27333C 0.468658 2.12566 0.287852 1.81391 0.254979 1.42012C 0.238542 1.27244 0.271416 1.22322 0.435783 1.23963C 1.01107 1.30526 1.58635 1.37089 2.17807 1.43652C 2.27669 1.45293 2.37531 1.48575 2.39175 1.30526C 2.42462 0.681755 2.03014 0.123881 1.43842 0.0254329ZM 1.96439 1.15759C 1.45486 1.09196 0.94532 1.04273 0.419346 0.993508C 0.287852 0.9771 0.271414 0.927876 0.320724 0.829428C 0.435781 0.501267 0.846699 0.22233 1.22474 0.238738C 1.63566 0.238738 2.04658 0.583308 2.12876 0.993508C 2.1452 1.10836 2.16163 1.1904 1.96439 1.15759Z" transform="translate(77.1562 44.2988)" fill="#5A595B"/>
</g>
<g id="Vector_23">
<path d="M 1.40385 2.71037C 1.09156 2.69396 0.845005 2.5791 0.713511 2.30017C 0.483397 1.80792 0.253282 1.31568 0.0231682 0.823443C -0.0261419 0.724995 0.0067355 0.67577 0.0889189 0.642954C 0.187539 0.593729 0.220406 0.659362 0.236843 0.724994C 0.40121 1.06956 0.549144 1.41413 0.713511 1.7587C 0.779258 1.88996 0.845003 2.03764 0.927186 2.1689C 1.14086 2.49706 1.37097 2.56269 1.71615 2.39861C 2.04488 2.23453 2.17637 2.00482 2.04488 1.64384C 1.86408 1.16801 1.63396 0.708587 1.43672 0.249162C 1.40385 0.167122 1.30523 0.0850799 1.45316 0.0194478C 1.60109 -0.0461843 1.61753 0.0686724 1.6504 0.150713C 1.84764 0.577321 2.02844 1.00393 2.24212 1.43054C 2.62016 2.18531 1.9627 2.69396 1.40385 2.71037Z" transform="translate(86.6758 42.7461)" fill="#5A5A5C"/>
</g>
<g id="Vector_24">
<path d="M 0.851427 2.26493C 0.309017 2.26493 -0.118337 1.72346 0.0295928 1.19841C 0.0460295 1.11637 0.0295928 0.985103 0.19396 1.01792C 0.34189 1.05074 0.309017 1.14918 0.276143 1.26404C 0.19396 1.55938 0.292581 1.82191 0.539131 1.95318C 0.736371 2.06803 0.999356 2.03522 1.16372 1.88755C 1.34453 1.72347 1.34453 1.54298 1.24591 1.32967C 1.18016 1.16559 1.08154 1.00151 1.01579 0.821023C 0.900737 0.492863 0.999358 0.213925 1.27878 0.0662529C 1.52533 -0.0650114 1.88694 0.000621731 2.08418 0.246742C 2.19924 0.394415 2.26498 0.558495 2.24855 0.738983C 2.24855 0.804615 2.26498 0.903062 2.14992 0.886654C 2.06774 0.870246 2.002 0.853839 2.01843 0.738983C 2.03487 0.607719 1.98556 0.476453 1.90337 0.378004C 1.75544 0.230332 1.57464 0.197518 1.39384 0.279558C 1.21303 0.378006 1.1966 0.558494 1.26234 0.722574C 1.32809 0.919471 1.44315 1.08355 1.50889 1.28045C 1.70614 1.7891 1.3774 2.26493 0.851427 2.26493Z" transform="translate(69.0977 41.1875)" fill="#5A5A5C"/>
</g>
<g id="Vector_25">
<path d="M 0.0149575 4.1413C 0.212198 3.23886 0.409439 2.33642 0.606679 1.45038C 0.705299 1.02377 0.803918 0.580758 0.902538 0.154149C 0.918974 0.0721091 0.935411 -0.0263381 1.0669 0.00647799C 1.21483 0.0392941 1.16552 0.137742 1.13265 0.203374C 0.853227 1.49961 0.557369 2.81225 0.277946 4.10849C 0.261509 4.19053 0.277946 4.32179 0.113579 4.27257C -0.00147821 4.25616 -0.0179159 4.20693 0.0149575 4.1413Z" transform="translate(76.0156 42.166)" fill="#5A5A5C"/>
</g>
<g id="Vector_26">
<path d="M 0.140047 2.37533C 0.0414267 2.35892 -0.024323 2.34252 0.00855034 2.21125C 0.222227 1.50571 0.435907 0.800161 0.633148 0.0946159C 0.666021 0.0125757 0.682457 -0.0202403 0.781077 0.0125757C 0.879697 0.0453918 0.896134 0.0946159 0.86326 0.176656C 0.649583 0.882202 0.45234 1.58775 0.238663 2.29329C 0.222226 2.34252 0.205794 2.39174 0.140047 2.37533Z" transform="translate(74.7559 43.752)" fill="#5C5B5D"/>
</g>
<g id="Vector_27">
<path d="M 0.42981 0.231784C 0.396908 0.379456 0.331105 0.445086 0.199498 0.445086C 0.0678898 0.428678 -0.0143671 0.346639 0.00208386 0.215375C 0.00208386 0.0677025 0.10079 -0.0143381 0.248849 0.0020699C 0.364005 0.0184779 0.413359 0.116928 0.42981 0.231784Z" transform="translate(75.5703 42.7598)" fill="#605F61"/>
</g>
</g>
</g>
<g id="Group_10">
<g id="Group_11">
<g id="Vector_28">
<path d="M 10.3305 8.1712C 6.59933 11.1575 2.52303 11.4528 0.813614 10.2386C -0.221897 9.50025 -0.369823 8.20402 0.961548 6.61244C 4.49544 2.37917 9.16345 -1.00147e-06 9.16345 -1.00147e-06C 9.16345 -1.00147e-06 10.462 0.623507 11.481 1.69003C 12.8781 3.13394 13.7657 5.41465 10.3305 8.1712Z" transform="translate(99.2461 59.8633)" fill="#FF8B6C"/>
</g>
</g>
<g id="Vector_29">
<path d="M 9.51685 6.48117C 5.78572 9.46744 1.70941 9.76278 -2.00643e-06 8.54858C 5.09537 9.50025 8.72788 6.00534 10.0757 4.01997C 10.9633 2.72374 10.8482 1.0173 10.6674 2.00293e-06C 12.0645 1.44391 12.9521 3.72463 9.51685 6.48117Z" transform="translate(100.061 61.5527)" fill="url(#paint4_linear)"/>
</g>
</g>
<g id="Group_12">
<g id="Group_13">
<g id="Vector_30">
<path d="M 10.3305 8.1712C 6.59933 11.1575 2.52303 11.4528 0.813614 10.2386C -0.221897 9.50025 -0.369823 8.20402 0.961548 6.61244C 4.49544 2.37916 9.16345 2.00293e-06 9.16345 2.00293e-06C 9.16345 2.00293e-06 10.462 0.623505 11.481 1.69003C 12.8781 3.15034 13.7657 5.43106 10.3305 8.1712Z" transform="translate(99.2461 69.2637)" fill="#FF8B6C"/>
</g>
</g>
<g id="Vector_31">
<path d="M 9.51685 6.48117C 5.78572 9.46743 1.70941 9.76278 -2.00643e-06 8.54858C 5.09537 9.50025 8.72788 6.00534 10.0757 4.01997C 10.9633 2.72373 10.8482 1.0173 10.6674 0C 12.0645 1.46031 12.9521 3.74103 9.51685 6.48117Z" transform="translate(100.061 70.9531)" fill="url(#paint5_linear)"/>
</g>
</g>
<g id="Group_14">
<g id="Vector_32">
<path d="M 34.432 11.3925C 30.5036 19.3832 27.0026 21.106 26.641 28.1779C 26.2794 35.2497 32.739 48.5895 20.658 55.6449C 19.3102 56.4325 17.946 56.9412 16.6146 57.2201C 5.9472 59.386 -3.58608 46.1611 1.32849 32.2799C 3.76112 25.4049 8.49488 20.7614 13.8697 16.4133C 15.3161 15.2483 16.7954 14.0998 18.2911 12.9512C 22.8441 9.4399 27.545 5.78091 31.4898 0.924133C 32.8376 -0.733078 35.5004 -0.043942 35.8784 2.05629C 36.3058 4.51749 36.2236 7.74987 34.432 11.3925Z" transform="translate(37.8359 56.9844)" fill="#FF8B6C"/>
</g>
<g id="Vector_33" opacity="0.54">
<path d="M 16.6146 40.8068C 5.9472 42.9726 -3.58608 29.7478 1.32849 15.8666C 3.76112 8.9916 8.49489 4.34813 13.8697 0C 11.3877 2.32994 8.46201 5.80845 6.83478 10.2878C 3.62963 19.1318 4.40215 35.4742 16.6146 40.8068Z" transform="translate(37.8184 73.4141)" fill="url(#paint6_linear)"/>
</g>
</g>
</g>
</g>
</g>
</g>
</g>
<defs>

<linearGradient id="paint0_linear" x2="1" gradientUnits="userSpaceOnUse" gradientTransform="translate(16.876 -4.06678) scale(-16.8755 16.846)">
<stop stop-color="#E26850"/>
<stop offset="1" stop-color="#E26850" stop-opacity="0"/>
</linearGradient>
<linearGradient id="paint1_linear" x2="1" gradientUnits="userSpaceOnUse" gradientTransform="matrix(16.5681 -3.06925 3.07461 16.5393 0.603738 -2.35765)">
<stop stop-color="#E26850"/>
<stop offset="1" stop-color="#E26850" stop-opacity="0"/>
</linearGradient>
<linearGradient id="paint2_linear" x2="1" gradientUnits="userSpaceOnUse" gradientTransform="matrix(13.6493 2.15343 -2.15719 13.6255 1.32768 -3.88383)">
<stop stop-color="#E26850"/>
<stop offset="1" stop-color="#E26850" stop-opacity="0"/>
</linearGradient>
<linearGradient id="paint3_linear" x2="1" gradientUnits="userSpaceOnUse" gradientTransform="translate(68.0678 61.544) scale(-33.1645 -33.1066)">
<stop stop-color="#718F2E"/>
<stop offset="0.2723" stop-color="#769630"/>
<stop offset="0.6694" stop-color="#85AA36"/>
<stop offset="1" stop-color="#96BF3D"/>
</linearGradient>
<linearGradient id="paint4_linear" x2="1" gradientUnits="userSpaceOnUse" gradientTransform="matrix(-4.99674 -4.13153 4.13874 -4.98803 10.2943 12.5673)">
<stop stop-color="#E26850"/>
<stop offset="1" stop-color="#E26850" stop-opacity="0"/>
</linearGradient>
<linearGradient id="paint5_linear" x2="1" gradientUnits="userSpaceOnUse" gradientTransform="matrix(-4.99674 -4.13153 4.13874 -4.98803 10.2943 12.5747)">
<stop stop-color="#E26850"/>
<stop offset="1" stop-color="#E26850" stop-opacity="0"/>
</linearGradient>
<linearGradient id="paint6_linear" x2="1" gradientUnits="userSpaceOnUse" gradientTransform="matrix(13.8478 11.4743 -11.4943 13.8236 3.29278 1.67745)">
<stop stop-color="#E26850"/>
<stop offset="1" stop-color="#E26850" stop-opacity="0"/>
</linearGradient>

</defs>
</svg>

