<svg width="48" height="34" viewBox="0 0 48 34" version="1.1" xmlns="http://www.w3.org/2000/svg" xmlns:xlink="http://www.w3.org/1999/xlink">
<g id="Canvas" fill="none">
<g id="if_paypal_payment_methods_copy_295652">
<path id="Vector" d="M 48 30.767C 48 31.6284 47.3078 32.3265 46.453 32.3265L 1.54705 32.3265C 0.692953 32.3265 9.44592e-09 31.6288 9.44592e-09 30.767L 9.44592e-09 1.55951C 9.44592e-09 0.698151 0.692572 -3.45722e-07 1.54705 -3.45722e-07L 46.453 -3.45722e-07C 47.3074 -3.45722e-07 48 0.698151 48 1.55951L 48 30.767Z" transform="translate(0 0.998047)" fill="#808080"/>
<g id="Group">
<path id="Vector_2" fill-rule="evenodd" clip-rule="evenodd" d="M 4.46421 0.0170676C 5.15868 0.0170676 5.85278 0.0136107 6.54726 0.018219C 7.69811 0.0251314 8.67716 0.950239 8.74802 2.10883C 8.79945 2.94753 8.64021 3.74169 8.17202 4.45175C 7.73087 5.11994 7.09773 5.52662 6.35487 5.77431C 5.50687 6.05619 4.63221 6.11379 3.74687 6.07769C 3.53316 6.06963 3.31906 6.06156 3.10535 6.06156C 2.97087 6.06118 2.86687 6.11801 2.82649 6.25895C 2.71411 6.64988 2.59716 7.03928 2.49125 7.43214C 2.38192 7.83651 2.2844 8.24396 2.1804 8.64948C 2.1244 8.86914 2.0044 8.96668 1.7823 8.96822C 1.29811 8.97014 0.814302 8.97206 0.330493 8.97206C 0.0763976 8.97206 -0.0329355 8.85301 0.00858829 8.59341C 0.0482073 8.3415 0.111064 8.09265 0.168588 7.84419C 0.736969 5.37378 1.30649 2.90414 1.87564 0.434114C 1.94878 0.11576 2.09164 0.00017111 2.41697 0.00017111C 3.09925 -0.000212912 3.78192 0.00017111 4.46421 0.00017111C 4.46421 0.00516339 4.46421 0.0113072 4.46421 0.0170676ZM 4.09125 4.37993C 4.30078 4.36496 4.47983 4.35843 4.65621 4.33769C 5.10611 4.28393 5.53735 4.17026 5.90383 3.88493C 6.3164 3.56389 6.4604 3.1357 6.37545 2.62188C 6.29773 2.15223 5.99564 1.8934 5.5724 1.75092C 5.13125 1.60231 4.67602 1.5977 4.21964 1.63687C 3.9964 1.65645 3.85125 1.7828 3.79525 2.01014C 3.7404 2.23479 3.66992 2.4556 3.61925 2.68141C 3.52668 3.08962 3.43754 3.49937 3.36021 3.90989C 3.31106 4.16949 3.40402 4.29852 3.66154 4.34268C 3.8124 4.3688 3.96821 4.37033 4.09125 4.37993Z" transform="translate(2.8125 10.9238)" fill="white"/>
<path id="Vector_3" fill-rule="evenodd" clip-rule="evenodd" d="M 4.44178 0.0136109C 5.13969 0.0136109 5.83873 -0.0101972 6.5355 0.0193725C 7.38769 0.0554705 8.52597 0.581962 8.69664 1.89647C 8.84749 3.05736 8.57207 4.10459 7.72445 4.94829C 7.24712 5.4237 6.65169 5.69098 6.00788 5.85573C 5.26502 6.0462 4.50959 6.09958 3.7454 6.05772C 3.51645 6.04582 3.28711 6.04659 3.0574 6.05004C 2.94235 6.05196 2.85169 6.10803 2.81664 6.22861C 2.6974 6.6376 2.57435 7.04504 2.46273 7.45594C 2.35378 7.85571 2.25816 8.25893 2.1534 8.65985C 2.10197 8.85686 1.97664 8.95209 1.77359 8.95286C 1.27721 8.9544 0.781591 8.95516 0.285972 8.9544C 0.0863532 8.95401 -0.016505 8.86492 0.00216171 8.66062C 0.0227331 8.43981 0.0741616 8.22092 0.124066 8.00471C 0.682923 5.56925 1.24445 3.13494 1.80521 0.700242C 1.83073 0.587724 1.85435 0.47482 1.88369 0.36307C 1.94654 0.122289 2.10121 0.000554252 2.3473 0.000170231C 3.04559 -0.000213791 3.74349 0.000170231 4.4414 0.000170231C 4.44178 0.00401044 4.44178 0.00900266 4.44178 0.0136109ZM 4.22578 4.38723C 4.6974 4.3496 5.15683 4.28316 5.58654 4.07387C 6.24787 3.75244 6.53207 3.14377 6.33397 2.46405C 6.20597 2.02665 5.87188 1.82581 5.47035 1.70599C 5.06464 1.58503 4.64788 1.59348 4.23226 1.61498C 3.99035 1.62689 3.83949 1.76091 3.77626 1.99939C 3.68102 2.35729 3.58692 2.71635 3.50654 3.07772C 3.43949 3.3761 3.37892 3.67794 3.34311 3.9817C 3.31835 4.19829 3.40026 4.29506 3.61283 4.33078C 3.81473 4.36457 4.02159 4.36995 4.22578 4.38723Z" transform="translate(25.9102 10.9336)" fill="white"/>
<path id="Vector_4" fill-rule="evenodd" clip-rule="evenodd" d="M 1.02238 9.93006C 0.756477 9.93006 0.490572 9.93121 0.225049 9.93006C 0.0345724 9.92891 -0.0237135 9.86823 0.00828654 9.6816C 0.0239056 9.5902 0.0612395 9.49727 0.110382 9.41777C 0.514954 8.76302 0.925238 8.1121 1.33248 7.4585C 1.41857 7.31987 1.47838 7.17547 1.42771 7.00497C 1.39914 6.90935 1.37286 6.81334 1.35495 6.71503C 0.993429 4.75192 0.633048 2.78803 0.27381 0.824145C 0.255143 0.721611 0.239905 0.619078 0.226191 0.51616C 0.188476 0.224688 0.356857 0.0284533 0.646762 0.022693C 1.03571 0.0150126 1.42391 0.0031072 1.81248 3.50327e-05C 2.17552 -0.00265312 2.35648 0.147499 2.41629 0.509247C 2.55952 1.37598 2.69514 2.24426 2.8361 3.11138C 2.88943 3.43856 2.94924 3.7646 3.00638 4.09178C 3.01286 4.12635 3.014 4.16935 3.03457 4.19432C 3.06733 4.23425 3.11191 4.28149 3.15724 4.28878C 3.19267 4.29378 3.25133 4.25115 3.27419 4.21429C 3.96562 3.08949 4.654 1.96315 5.34429 0.837969C 5.46924 0.634054 5.60867 0.438588 5.72676 0.230449C 5.80562 0.091817 5.92029 0.0288367 6.06543 0.0265326C 6.62352 0.0188522 7.18276 0.0123245 7.74124 0.0200049C 7.94848 0.022693 8.01552 0.167852 7.90771 0.352183C 7.45552 1.12791 7.00829 1.90516 6.54353 2.67244C 5.25476 4.80184 3.95953 6.92663 2.66391 9.05103C 2.51648 9.29258 2.34772 9.52108 2.19038 9.75571C 2.08981 9.90587 1.95191 9.96078 1.7721 9.95272C 1.52257 9.94235 1.27267 9.95003 1.02314 9.95003C 1.02238 9.94388 1.02238 9.93697 1.02238 9.93006Z" transform="translate(18.6582 12.9844)" fill="white"/>
<path id="Vector_5" fill-rule="evenodd" clip-rule="evenodd" d="M 4.37948 6.22049C 4.24538 6.29384 4.14786 6.34645 4.05186 6.40059C 3.81262 6.53423 3.57148 6.6648 3.33605 6.80458C 2.88805 7.0711 2.39433 7.13139 1.8911 7.11372C 1.61643 7.10335 1.33491 7.07263 1.07167 6.99736C 0.458334 6.82225 0.100239 6.40251 0.0248105 5.75774C -0.0403323 5.19861 0.0141437 4.65445 0.292239 4.15407C 0.607668 3.58572 1.11967 3.27927 1.71319 3.08188C 2.2431 2.90523 2.79091 2.86606 3.34329 2.85454C 3.7791 2.84532 4.21529 2.83073 4.6511 2.81768C 4.70214 2.81652 4.75395 2.80385 4.80462 2.80616C 5.00767 2.8146 5.10176 2.6898 5.13529 2.51583C 5.16424 2.36453 5.19053 2.20631 5.17605 2.05501C 5.14786 1.75854 4.9871 1.57959 4.69376 1.54772C 4.33681 1.50855 3.97491 1.48858 3.61643 1.49971C 3.093 1.51623 2.57414 1.58804 2.06862 1.73358C 1.98938 1.75663 1.91433 1.79503 1.83776 1.82728C 1.63624 1.91215 1.45376 1.81231 1.47014 1.59764C 1.49605 1.25241 1.54024 0.906017 1.61186 0.567694C 1.65033 0.38682 1.8031 0.26931 1.99472 0.23014C 2.64881 0.0961167 3.30938 0.0227681 3.97681 0.00433508C 4.52119 -0.0102577 5.06253 0.00740775 5.59662 0.128758C 6.07967 0.238973 6.48386 0.487434 6.82481 0.843422C 7.19395 1.22975 7.31814 1.70325 7.22405 2.21707C 7.04919 3.17021 6.84881 4.11951 6.65376 5.06958C 6.55243 5.56228 6.44233 6.05267 6.33148 6.54345C 6.277 6.78231 6.13567 6.90942 5.88919 6.91825C 5.42976 6.934 4.96957 6.93784 4.50976 6.94207C 4.37376 6.94322 4.33757 6.89483 4.34557 6.75351C 4.3551 6.588 4.36653 6.42249 4.37948 6.22049ZM 3.00081 5.77464C 3.20957 5.75505 3.39167 5.74546 3.57186 5.71934C 4.00119 5.65943 4.34367 5.46089 4.54557 5.05921C 4.70367 4.74508 4.77833 4.40637 4.79395 4.05576C 4.80348 3.83533 4.73338 3.76544 4.51281 3.77466C 4.18405 3.78695 3.85529 3.79962 3.52805 3.82957C 3.19586 3.86106 2.86938 3.92596 2.56843 4.08341C 2.165 4.29462 1.99738 4.61451 2.05148 5.06727C 2.09453 5.42787 2.2751 5.64177 2.62672 5.72625C 2.757 5.75659 2.893 5.76197 3.00081 5.77464Z" transform="translate(10.8496 12.9707)" fill="white"/>
<path id="Vector_6" fill-rule="evenodd" clip-rule="evenodd" d="M 4.37834 6.20853C 4.29758 6.24117 4.24615 6.2573 4.19853 6.28226C 3.89415 6.44508 3.59053 6.60906 3.28691 6.77381C 3.00234 6.9278 2.71091 7.05529 2.38253 7.08102C 1.92958 7.11674 1.48082 7.12212 1.04158 6.97734C 0.419105 6.77189 0.0651991 6.30914 0.0122467 5.65323C -0.0212771 5.24118 0.0107231 4.83911 0.14939 4.45009C 0.387485 3.78459 0.880436 3.38482 1.51663 3.1402C 2.01034 2.95011 2.52387 2.86716 3.04996 2.85372C 3.58101 2.83989 4.11206 2.82799 4.64272 2.80495C 5.03091 2.78882 5.06901 2.80034 5.16806 2.35871C 5.19396 2.24504 5.19244 2.11832 5.17491 2.00157C 5.13453 1.73353 4.97339 1.58069 4.69796 1.52078C 4.32577 1.43898 3.95053 1.44628 3.57377 1.47316C 3.05987 1.50964 2.54977 1.5684 2.05187 1.71202C 1.98749 1.73084 1.92577 1.75849 1.86596 1.78806C 1.63586 1.90058 1.45377 1.80035 1.47282 1.54843C 1.49682 1.23084 1.53682 0.913258 1.59548 0.600664C 1.63053 0.409806 1.76234 0.267334 1.95968 0.232772C 2.36082 0.161728 2.76234 0.0833877 3.16767 0.0511299C 3.68044 0.0111917 4.19701 -0.00954608 4.71129 0.00427869C 5.37644 0.0230957 6.01758 0.149824 6.55701 0.594137C 6.88615 0.865256 7.13834 1.18399 7.21034 1.61794C 7.25948 1.91747 7.22558 2.21663 7.16425 2.51079C 6.89149 3.81723 6.61606 5.12367 6.33987 6.42934C 6.26444 6.78686 6.15548 6.88671 5.79244 6.90015C 5.36882 6.91436 4.94406 6.91666 4.51968 6.9205C 4.37682 6.92242 4.34596 6.88671 4.35091 6.74155C 4.35663 6.57527 4.36806 6.40937 4.37834 6.20853ZM 3.04501 5.7669C 3.24387 5.74732 3.43815 5.73618 3.62939 5.70815C 4.06368 5.64517 4.40387 5.43895 4.60577 5.0315C 4.75815 4.72352 4.82634 4.39172 4.8492 4.05148C 4.86444 3.82222 4.78482 3.74234 4.55701 3.75386C 4.16501 3.77268 3.77263 3.78958 3.38329 3.83182C 3.07625 3.86523 2.7772 3.94933 2.50977 4.11868C 2.20768 4.30993 2.06444 4.58565 2.0793 4.94394C 2.09758 5.3729 2.29453 5.63019 2.68463 5.7212C 2.8031 5.74924 2.92729 5.7527 3.04501 5.7669Z" transform="translate(33.8906 12.9883)" fill="white"/>
<path id="Vector_7" fill-rule="evenodd" clip-rule="evenodd" d="M 0.975938 8.87446C 0.730224 8.87446 0.484129 8.87331 0.238415 8.87485C 0.0761295 8.87561 -0.0183482 8.79727 0.00298515 8.6356C 0.0426042 8.32339 0.0902255 8.01118 0.157654 7.70435C 0.689464 5.28463 1.22737 2.86607 1.76413 0.447499C 1.78051 0.374151 1.80184 0.29965 1.83384 0.232447C 1.89975 0.0934309 2.00603 0.00088169 2.16641 0.000497669C 2.66165 -0.000270374 3.15765 -0.00103823 3.65327 0.00549013C 3.84032 0.00779426 3.99156 0.217854 3.94851 0.39988C 3.3127 3.09417 2.67651 5.78885 2.0407 8.48353C 2.02813 8.53806 2.01861 8.59298 2.00946 8.64828C 1.9748 8.84605 1.92794 8.88982 1.72489 8.89251C 1.47537 8.89597 1.22508 8.89328 0.975557 8.89328C 0.975938 8.88675 0.975938 8.88061 0.975938 8.87446Z" transform="translate(41.4551 10.9902)" fill="white"/>
</g>
</g>
</g>
</svg>
