<svg width="166" height="134" viewBox="0 0 166 134" version="1.1" xmlns="http://www.w3.org/2000/svg" xmlns:xlink="http://www.w3.org/1999/xlink">
<g id="Canvas" fill="none">
<g id="Group 2">
<g id="Vector">
<path d="M 133.413 134L 32.5872 134C 14.6225 134 0 119.51 0 101.708L 0 32.2925C 0 14.4902 14.6225 0 32.5872 0L 133.413 0C 151.378 0 166 14.4902 166 32.2925L 166 101.708C 165.861 119.51 151.378 134 133.413 134Z" fill="#F2F2F2"/>
</g>
<g id="Group">
<g id="Vector_2">
<path d="M 133.413 134L 32.5872 134C 14.6225 134 0 119.51 0 101.708L 0 32.2925C 0 14.4902 14.6225 0 32.5872 0L 133.413 0C 151.378 0 166 14.4902 166 32.2925L 166 101.708C 165.861 119.51 151.378 134 133.413 134Z" fill="#F2F2F2"/>
</g>
<g id="Vector_3">
<path d="M 50.0885 -1.35155e-06C 50.0885 -1.35155e-06 47.5221 13.8178 37.1681 13.3749C 26.8142 12.932 32.0354 18.6894 26.1062 19.1323C 20.0885 19.5752 0 19.1323 0 19.1323" stroke-miterlimit="10" transform="translate(52.6914 82.248)" stroke="#96BF3D"/>
</g>
<g id="Group_2">
<g id="Vector_4">
<path d="M 1.35034e-06 20.2838L 16.8142 20.2838L 25.6637 -1.35155e-06L 8.84956 -1.35155e-06L 1.35034e-06 20.2838Z" transform="translate(99.0605 77.8184)" fill="#769325"/>
</g>
<g id="Vector_5">
<path d="M 37.6106 3.89732L 1.9469 3.89732C 0.884954 3.89732 1.35034e-06 3.01156 1.35034e-06 1.94866C 1.35034e-06 0.885751 0.884954 0 1.9469 0L 37.6106 0C 38.6726 0 39.5575 0.885751 39.5575 1.94866C 39.5575 3.01156 38.6726 3.89732 37.6106 3.89732Z" transform="translate(92.8672 98.1016)" fill="#769325"/>
</g>
<g id="Vector_6">
<path d="M 15.1327 3.89732L 1.9469 3.89732C 0.884956 3.89732 2.70067e-06 3.01156 2.70067e-06 1.94866C 2.70067e-06 0.885751 0.884956 0 1.9469 0L 15.0443 0C 16.1062 0 16.9911 0.885751 16.9911 1.94866C 16.9911 3.01156 16.1947 3.89732 15.1327 3.89732Z" transform="translate(88.7969 98.1016)" fill="#6D8221"/>
</g>
<g id="Vector_7" opacity="0.5">
<path d="M 16.8142 4.16304L 1.35034e-06 4.16304L 18.6726 2.70311e-06L 16.8142 4.16304Z" transform="translate(99.0605 93.9375)" fill="#57661A"/>
</g>
</g>
<g id="Group_3">
<g id="Vector_8">
<path d="M 81.4159 55.8911L 3.45133 55.8911C 1.50443 55.8911 0 54.2967 0 52.4366L 0 3.45444C 0 1.59436 1.50443 0 3.45133 0L 81.4159 0C 83.3628 0 84.8672 1.59436 84.8672 3.45444L 84.8672 52.3481C 84.9557 54.2967 83.3628 55.8911 81.4159 55.8911Z" transform="translate(68.1777 33)" fill="#769325"/>
</g>
<g id="Vector_9">
<path d="M 81.5044 55.8911L 0 55.8911L 0 0L 81.5044 0C 83.3628 0 84.9557 1.50578 84.9557 3.45444L 84.9557 52.5252C 84.9557 54.3853 83.3628 55.8911 81.5044 55.8911Z" transform="translate(73.043 33)" fill="#B9D357"/>
</g>
<g id="Vector_10">
<path d="M 79.646 0L 0 0L 0 50.5766L 79.646 50.5766L 79.646 0Z" transform="translate(75.6992 35.6582)" fill="#EFFFC3"/>
</g>
</g>
<g id="Group_4">
<g id="Vector_11">
<path d="M 58.7611 35.873L 2.83186 35.873C 1.23894 35.873 0 34.633 0 33.0386L 0 2.83441C 0 1.24006 1.23894 -1.68944e-07 2.83186 -1.68944e-07L 58.8496 -1.68944e-07C 60.4425 -1.68944e-07 61.6814 1.24006 61.6814 2.83441L 61.6814 33.0386C 61.5929 34.633 60.354 35.873 58.7611 35.873Z" transform="translate(85.4336 42.4766)" fill="#BBD86C"/>
</g>
</g>
<g id="Group_5">
<g id="Vector_12">
<path d="M 15.8407 4.34019L 15.8407 16.9179L 15.8407 18.6008C 15.8407 20.9924 13.8938 22.941 11.5044 22.941L 6.0177 22.941C 2.74336 22.941 0.0884942 20.2838 -1.35034e-06 17.0065L -1.35034e-06 5.22595C -1.35034e-06 2.30296 2.30089 -3.37888e-07 5.22124 -3.37888e-07L 11.4159 -3.37888e-07C 13.8938 -3.37888e-07 15.8407 1.94866 15.8407 4.34019Z" transform="translate(94.8145 49.2988)" fill="white"/>
</g>
<g id="Vector_13" opacity="0.47">
<path d="M 15.7522 -3.37888e-07L 15.7522 11.4262L -2.70067e-06 11.4262L -2.70067e-06 -3.37888e-07L 15.7522 -3.37888e-07Z" transform="translate(94.9023 55.0566)" fill="#EAEAEA"/>
</g>
</g>
<g id="Group_6">
<g id="Group_7">
<g id="Group_8">
<g id="Vector_14">
<path d="M 22.5393 0L -2.86602e-06 0L -2.86602e-06 7.55222L 22.5393 7.55222L 22.5393 0Z" transform="translate(116.85 57.3359)" fill="#96BF3D"/>
</g>
</g>
<g id="Vector_15">
<path d="M 22.5393 0L -2.86602e-06 0L -2.86602e-06 7.55222L 22.5393 7.55222L 22.5393 0Z" transform="translate(117.318 56.916)" fill="#EFFFC3"/>
</g>
<g id="3D Print">
<path d="M 2.55615 2.229C 2.55615 2.45199 2.48861 2.6416 2.35352 2.79785C 2.21842 2.9541 2.02881 3.06152 1.78467 3.12012L 1.78467 3.13477C 2.07275 3.17057 2.29085 3.25846 2.43896 3.39844C 2.58708 3.53678 2.66113 3.72396 2.66113 3.95996C 2.66113 4.30339 2.53662 4.57113 2.2876 4.76318C 2.03857 4.95361 1.68294 5.04883 1.2207 5.04883C 0.833333 5.04883 0.489909 4.98454 0.19043 4.85596L 0.19043 4.21387C 0.328776 4.28385 0.480957 4.34082 0.646973 4.38477C 0.812988 4.42871 0.977376 4.45068 1.14014 4.45068C 1.38916 4.45068 1.57308 4.40837 1.69189 4.32373C 1.81071 4.2391 1.87012 4.10319 1.87012 3.91602C 1.87012 3.74837 1.80176 3.62956 1.66504 3.55957C 1.52832 3.48958 1.31022 3.45459 1.01074 3.45459L 0.739746 3.45459L 0.739746 2.87598L 1.01562 2.87598C 1.29232 2.87598 1.49414 2.84017 1.62109 2.76855C 1.74967 2.69531 1.81396 2.5708 1.81396 2.39502C 1.81396 2.12484 1.64469 1.98975 1.30615 1.98975C 1.18896 1.98975 1.06934 2.00928 0.947266 2.04834C 0.826823 2.0874 0.692546 2.15495 0.544434 2.25098L 0.195312 1.73096C 0.520833 1.49658 0.909017 1.37939 1.35986 1.37939C 1.72933 1.37939 2.02067 1.45426 2.23389 1.604C 2.44873 1.75374 2.55615 1.96208 2.55615 2.229ZM 6.26709 3.18115C 6.26709 3.76872 6.09945 4.21875 5.76416 4.53125C 5.4305 4.84375 4.94792 5 4.31641 5L 3.30566 5L 3.30566 1.43066L 4.42627 1.43066C 5.00895 1.43066 5.46143 1.58447 5.78369 1.89209C 6.10596 2.19971 6.26709 2.62939 6.26709 3.18115ZM 5.48096 3.20068C 5.48096 2.43408 5.14242 2.05078 4.46533 2.05078L 4.0625 2.05078L 4.0625 4.375L 4.38721 4.375C 5.11637 4.375 5.48096 3.98356 5.48096 3.20068ZM 1.20605 33.1104L 1.45508 33.1104C 1.68783 33.1104 1.86198 33.0648 1.97754 32.9736C 2.0931 32.8809 2.15088 32.7466 2.15088 32.5708C 2.15088 32.3934 2.10205 32.2624 2.00439 32.1777C 1.90837 32.0931 1.757 32.0508 1.55029 32.0508L 1.20605 32.0508L 1.20605 33.1104ZM 2.91504 32.5439C 2.91504 32.9281 2.7946 33.2218 2.55371 33.4253C 2.31445 33.6287 1.97347 33.7305 1.53076 33.7305L 1.20605 33.7305L 1.20605 35L 0.449219 35L 0.449219 31.4307L 1.58936 31.4307C 2.0223 31.4307 2.35107 31.5243 2.57568 31.7114C 2.80192 31.897 2.91504 32.1745 2.91504 32.5439ZM 5.05371 32.2192C 5.15462 32.2192 5.23844 32.2266 5.30518 32.2412L 5.24902 32.9395C 5.1888 32.9232 5.11556 32.915 5.0293 32.915C 4.79167 32.915 4.60612 32.9761 4.47266 33.0981C 4.34082 33.2202 4.2749 33.3911 4.2749 33.6108L 4.2749 35L 3.53027 35L 3.53027 32.2705L 4.09424 32.2705L 4.2041 32.7295L 4.24072 32.7295C 4.32536 32.5765 4.43929 32.4536 4.58252 32.3608C 4.72738 32.2664 4.88444 32.2192 5.05371 32.2192ZM 5.76904 31.5649C 5.76904 31.3224 5.90413 31.2012 6.17432 31.2012C 6.4445 31.2012 6.57959 31.3224 6.57959 31.5649C 6.57959 31.6805 6.54541 31.7708 6.47705 31.8359C 6.41032 31.8994 6.30941 31.9312 6.17432 31.9312C 5.90413 31.9312 5.76904 31.8091 5.76904 31.5649ZM 6.54541 35L 5.80078 35L 5.80078 32.2705L 6.54541 32.2705L 6.54541 35ZM 9.84863 35L 9.104 35L 9.104 33.4058C 9.104 33.2088 9.06901 33.0615 8.99902 32.9639C 8.92904 32.8646 8.81755 32.8149 8.66455 32.8149C 8.45622 32.8149 8.30566 32.8849 8.21289 33.0249C 8.12012 33.1632 8.07373 33.3936 8.07373 33.7158L 8.07373 35L 7.3291 35L 7.3291 32.2705L 7.89795 32.2705L 7.99805 32.6196L 8.03955 32.6196C 8.12256 32.4878 8.23649 32.3885 8.38135 32.3218C 8.52783 32.2534 8.69385 32.2192 8.87939 32.2192C 9.19678 32.2192 9.43766 32.3055 9.60205 32.478C 9.76644 32.6489 9.84863 32.8963 9.84863 33.2202L 9.84863 35ZM 11.7651 34.4556C 11.8953 34.4556 12.0516 34.4271 12.2339 34.3701L 12.2339 34.9243C 12.0483 35.0073 11.8205 35.0488 11.5503 35.0488C 11.2524 35.0488 11.0352 34.974 10.8984 34.8242C 10.7633 34.6729 10.6958 34.4466 10.6958 34.1455L 10.6958 32.8296L 10.3394 32.8296L 10.3394 32.5146L 10.7495 32.2656L 10.9644 31.6895L 11.4404 31.6895L 11.4404 32.2705L 12.2046 32.2705L 12.2046 32.8296L 11.4404 32.8296L 11.4404 34.1455C 11.4404 34.2513 11.4697 34.3294 11.5283 34.3799C 11.5885 34.4303 11.6675 34.4556 11.7651 34.4556Z" transform="translate(119.506 57.8008)" fill="#96BF3D"/>
</g>
</g>
</g>
<g id="Canvas 2">
<g id="Anchor 1">
<g id="Vector 2">
<g id="Vector_16">
<path d="M 6.0177 3.96375L 4.60176 4.76093C 4.42477 4.8495 4.33629 5.11523 4.51328 5.29238L 4.86725 5.91241C 4.95575 6.08956 4.95575 6.26671 4.86725 6.53243C 4.77876 6.62101 4.77876 6.70959 4.60176 6.79816L 3.9823 7.15246C 3.71681 7.32961 3.36283 7.24104 3.18584 6.88674L 2.83185 6.26671C 2.74336 6.08956 2.47788 6.00098 2.30089 6.17814L 0.884953 6.97531C 0.530971 7.24104 -2.70067e-06 6.88674 -2.70067e-06 6.44386L -2.70067e-06 3.52087L -2.70067e-06 0.597885C -2.70067e-06 0.332159 0.0884956 0.155006 0.265487 0.0664309C 0.442478 -0.0221445 0.619466 -0.0221445 0.884953 0.0664309L 6.0177 2.90084C 6.37168 3.16657 6.37168 3.7866 6.0177 3.96375Z" transform="translate(133.84 62.8711)" fill="white"/>
</g>
</g>
<g id="Vector 2 1" opacity="0.3">
<g id="Vector_17" opacity="0.47">
<path d="M 5.66372 3.96375L 4.24778 4.76093C 4.07079 4.8495 3.9823 5.11523 4.15929 5.29238L 4.51327 5.91241C 4.60177 6.08956 4.60177 6.26671 4.51327 6.53243L 5.40134e-06 0.0664309C 0.176997 -0.0221445 0.353985 -0.0221445 0.619472 0.0664309L 5.66372 2.90084C 6.0177 3.16657 6.0177 3.7866 5.66372 3.96375Z" transform="translate(134.195 62.8711)" fill="#EAEAEA"/>
</g>
</g>
</g>
</g>
<g id="Group_9">
<g id="Vector_18">
<path d="M 9.73451 8.44721e-08L 30.4425 8.44721e-08C 35.8407 8.44721e-08 40.177 4.34019 40.177 9.74329L 40.177 64.66C 40.177 64.9258 40 65.1029 39.7345 65.1029L 0.442478 65.1029C 0.176991 65.1029 0 64.9258 0 64.66L 0 9.74329C 0 4.34019 4.33628 8.44721e-08 9.73451 8.44721e-08Z" transform="translate(13.752 36.4551)" fill="#B9D357"/>
</g>
<g id="Vector_19">
<path d="M -6.75168e-07 47.0335L 22.5664 47.0335L 22.5664 5.7574C 22.5664 2.56869 20 -3.37888e-07 16.8142 -3.37888e-07L 5.75221 -3.37888e-07C 2.56637 -3.37888e-07 -6.75168e-07 2.56869 -6.75168e-07 5.7574L -6.75168e-07 47.0335Z" transform="translate(29.0625 52.3984)" fill="#769325"/>
</g>
<g id="Vector_20">
<path d="M 44.2478 4.3402L 2.12389 4.3402C 0.973451 4.3402 0 3.36587 0 2.21439C 0 0.974329 0.973451 0 2.12389 0L 44.2478 0C 45.3982 0 46.3717 0.974331 46.3717 2.12581C 46.3717 3.36587 45.3982 4.3402 44.2478 4.3402Z" transform="translate(10.6562 97.6602)" fill="#B9D357"/>
</g>
<g id="Vector_21">
<path d="M 22.9204 4.3402L 2.12389 4.3402C 0.973451 4.3402 0 3.36587 0 2.21439C 0 0.974329 0.973451 0 2.12389 0L 22.9204 0C 24.0708 0 25.0442 0.974331 25.0442 2.12581C 25.0442 3.36587 24.0708 4.3402 22.9204 4.3402Z" transform="translate(8 97.6602)" fill="#96BF3D"/>
</g>
<g id="Vector_22" opacity="0.27">
<path d="M 12.9204 5.7574L 0 0L 0 5.7574L 12.9204 5.7574Z" transform="translate(13.752 91.9023)" fill="#769325"/>
</g>
<g id="Group_10">
<g id="Vector_23">
<path d="M 14.4248 4.3402L 14.4248 5.7574L -6.75168e-07 5.7574L -6.75168e-07 5.22595C -6.75168e-07 2.30296 2.12389 0 4.77876 0L 10.4425 0C 12.6549 0 14.4248 1.94866 14.4248 4.3402Z" transform="translate(33.4883 66.6582)" fill="white"/>
</g>
<g id="Vector_24">
<path d="M -6.75168e-07 0L 14.4248 0L 14.4248 1.41721C 14.4248 3.80874 12.6549 5.7574 10.4425 5.7574L 5.48673 5.7574C 2.56637 5.7574 0.17699 3.18871 -6.75168e-07 0Z" transform="translate(33.4883 76.8438)" fill="white"/>
</g>
<g id="Vector_25" opacity="0.47">
<path d="M 0 0.265726L 0 0C 0 0.0885754 0 0.17715 0 0.265726Z" transform="translate(32.7793 82.6016)" fill="#EAEAEA"/>
</g>
<g id="Vector_26" opacity="0.42">
<path d="M 0.973451 0L 0 0L 0 4.42877L 0.973451 4.42877L 0.973451 0Z" transform="translate(33.4883 72.416)" fill="white"/>
</g>
<g id="Vector_27" opacity="0.42">
<path d="M 0.97345 0L 0 0L 0 4.42877L 0.97345 4.42877L 0.97345 0Z" transform="translate(46.9395 72.416)" fill="white"/>
</g>
</g>
</g>
<g id="Vector_28" opacity="0.5">
<path d="M -6.75168e-07 5.66883L -6.75168e-07 45.262L 22.5664 45.262L 22.5664 5.66883C 22.5664 2.56869 20.0885 -3.37888e-07 16.9027 -3.37888e-07L 5.66372 -3.37888e-07C 2.56637 0.0885751 -6.75168e-07 2.56869 -6.75168e-07 5.66883Z" transform="translate(29.0625 52.3984)" fill="url(#paint0_linear)"/>
</g>
</g>
</g>
</g>
<defs>

<linearGradient id="paint0_linear" x2="1" gradientUnits="userSpaceOnUse" gradientTransform="matrix(0 60.0836 -60.0295 0 41.309 -18.263)">
<stop stop-color="white"/>
<stop offset="1" stop-color="white" stop-opacity="0"/>
</linearGradient>

</defs>
</svg>

