<svg width="60" height="60" viewBox="0 0 60 60" version="1.1" xmlns="http://www.w3.org/2000/svg" xmlns:xlink="http://www.w3.org/1999/xlink">
<g id="Canvas" fill="none">
<g id="if_user_325966">
<g id="Group">
<g id="Group_2">
<g id="Group_3">
<g id="Group_4">
<g id="Vector">
<path d="M 0 29.9996C 0.000769774 13.431 13.431 0 29.9996 0C 46.5682 0 60 13.431 60 29.9996C 60 46.5682 46.569 59.9985 29.9996 60C 13.431 59.9985 0.000769774 46.5682 0 29.9996ZM 9.33812 9.33812C 4.05055 14.6272 0.779781 21.9293 0.779781 29.9996C 0.779781 38.0707 4.05055 45.3728 9.33812 50.6619C 14.6272 55.9495 21.9293 59.2194 29.9996 59.2194C 38.0699 59.2194 45.3728 55.9495 50.6619 50.6619C 55.951 45.3728 59.2202 38.0707 59.2202 29.9996C 59.2202 21.9301 55.951 14.6272 50.6619 9.33812C 45.372 4.04978 38.0699 0.779781 29.9996 0.779781C 21.9293 0.779781 14.6272 4.04978 9.33812 9.33812Z" fill="#BDBDBD"/>
</g>
</g>
</g>
</g>
<g id="Group_5">
<g id="Group_6">
<g id="Vector_2">
<path d="M -6.81257e-07 8.29046C -6.81257e-07 3.71262 3.71108 0.000770009 8.29046 2.34916e-07C 12.8683 0.000770009 16.5802 3.71185 16.5802 8.29046C 16.5802 12.8691 12.8691 16.5809 8.29046 16.5817C 3.71108 16.5809 -6.81257e-07 12.8691 -6.81257e-07 8.29046ZM 0.823658 8.29046C 0.831356 12.4134 4.16678 15.748 8.28969 15.7565C 12.4118 15.748 15.7473 12.4134 15.755 8.29046C 15.7473 4.16755 12.4118 0.832895 8.28969 0.825967C 4.16678 0.832895 0.831356 4.16755 0.823658 8.29046Z" transform="translate(21.707 12.3594)" fill="#BDBDBD"/>
<path d="M -6.81257e-07 8.29046C -6.81257e-07 3.71262 3.71108 0.000770009 8.29046 2.34916e-07C 12.8683 0.000770009 16.5802 3.71185 16.5802 8.29046C 16.5802 12.8691 12.8691 16.5809 8.29046 16.5817C 3.71108 16.5809 -6.81257e-07 12.8691 -6.81257e-07 8.29046ZM 0.823658 8.29046C 0.831356 12.4134 4.16678 15.748 8.28969 15.7565C 12.4118 15.748 15.7473 12.4134 15.755 8.29046C 15.7473 4.16755 12.4118 0.832895 8.28969 0.825967C 4.16678 0.832895 0.831356 4.16755 0.823658 8.29046Z" stroke-width="0.5" transform="translate(21.707 12.3594)" stroke="#BDBDBD"/>
</g>
</g>
</g>
<g id="Group_7">
<g id="Group_8">
<g id="Vector_3">
<path d="M 0 15.9728L 0.0538839 15.5371C 1.1231 6.78863 7.85862 0.00461864 16.069 0C 24.2802 0.00461864 31.0165 6.78863 32.0849 15.5371L 32.138 15.9728L 0 15.9728ZM 31.252 15.1938C 30.052 6.99416 23.6898 0.773621 16.0683 0.778239C 8.44904 0.773621 2.08455 6.99416 0.885239 15.1938L 31.252 15.1938Z" transform="translate(13.9297 28.9395)" fill="#BDBDBD"/>
<path d="M 0 15.9728L -0.24811 15.9421L -0.282823 16.2228L 0 16.2228L 0 15.9728ZM 0.0538839 15.5371L 0.301994 15.5678L 0.302037 15.5674L 0.0538839 15.5371ZM 16.069 0L 16.0692 -0.25L 16.0689 -0.25L 16.069 0ZM 32.0849 15.5371L 32.3331 15.5069L 32.3331 15.5068L 32.0849 15.5371ZM 31.6985 15.5841L 31.4485 15.5841L 31.4485 15.8663L 31.7287 15.8322L 31.6985 15.5841ZM 32.138 15.9728L 32.138 16.2228L 32.4204 16.2228L 32.3862 15.9425L 32.138 15.9728ZM 31.252 15.1938L 31.252 15.4438L 31.5413 15.4438L 31.4994 15.1576L 31.252 15.1938ZM 16.0683 0.778239L 16.0681 1.02824L 16.0684 1.02824L 16.0683 0.778239ZM 0.885239 15.1938L 0.637871 15.1576L 0.596013 15.4438L 0.885239 15.4438L 0.885239 15.1938ZM 0.24811 16.0035L 0.301994 15.5678L -0.194226 15.5064L -0.24811 15.9421L 0.24811 16.0035ZM 0.302037 15.5674C 1.35876 6.92115 8.00708 0.254535 16.0692 0.25L 16.0689 -0.25C 7.71016 -0.245298 0.887435 6.65612 -0.19427 15.5068L 0.302037 15.5674ZM 16.0689 0.25C 24.1318 0.254535 30.7808 6.92117 31.8368 15.5674L 32.3331 15.5068C 31.2522 6.65609 24.4286 -0.245298 16.0692 -0.25L 16.0689 0.25ZM 32.0548 15.2889L 31.6683 15.3359L 31.7287 15.8322L 32.1151 15.7853L 32.0548 15.2889ZM 31.9485 15.5841L 31.9485 15.1946L 31.4485 15.1946L 31.4485 15.5841L 31.9485 15.5841ZM 31.8368 15.5674L 31.8899 16.0031L 32.3862 15.9425L 32.3331 15.5069L 31.8368 15.5674ZM 32.138 15.7228L 0 15.7228L 0 16.2228L 32.138 16.2228L 32.138 15.7228ZM 31.4994 15.1576C 30.2847 6.85819 23.8357 0.523532 16.0681 0.528239L 16.0684 1.02824C 23.5438 1.02371 29.8192 7.13013 31.0047 15.23L 31.4994 15.1576ZM 16.0684 0.528239C 8.3031 0.523532 1.85178 6.85817 0.637871 15.1576L 1.13261 15.23C 2.31732 7.13016 8.59497 1.02371 16.0681 1.02824L 16.0684 0.528239ZM 0.885239 15.4438L 31.252 15.4438L 31.252 14.9438L 0.885239 14.9438L 0.885239 15.4438Z" transform="translate(13.9297 28.9395)" fill="#BDBDBD"/>
</g>
</g>
</g>
</g>
</g>
</g>
</svg>

