<svg width="60" height="60" viewBox="0 0 60 60" version="1.1" xmlns="http://www.w3.org/2000/svg" xmlns:xlink="http://www.w3.org/1999/xlink">
<title>Go to srart</title>
<desc>Created using Figma</desc>
<g id="Canvas" transform="translate(-11386 -22219)">
<g id="Go to srart">
<g id="Group">
<g id="Ellipse">
<use xlink:href="#path0_fill" transform="translate(11386 22219)" fill="#96BF3D"/>
</g>
</g>
<g id="Polygon">
<use xlink:href="#path1_stroke" transform="translate(11405 22243)" fill="#FFFFFF"/>
</g>
</g>
</g>
<defs>
<path id="path0_fill" d="M 60 30C 60 46.5685 46.5685 60 30 60C 13.4315 60 0 46.5685 0 30C 0 13.4315 13.4315 0 30 0C 46.5685 0 60 13.4315 60 30Z"/>
<path id="path1_stroke" d="M 11.7385 0.738519L 10.6779 1.79918L 10.6779 1.79918L 11.7385 0.738519ZM 21.9393 13.0607C 22.5251 13.6464 23.4749 13.6464 24.0607 13.0607C 24.6464 12.4749 24.6464 11.5251 24.0607 10.9393L 21.9393 13.0607ZM -1.10573 10.9864C -1.66552 11.5971 -1.62427 12.5459 -1.01359 13.1057C -0.402908 13.6655 0.545943 13.6243 1.10573 13.0136L -1.10573 10.9864ZM 10.2943 0.769901L 9.18853 -0.243686L 9.18853 -0.243686L 10.2943 0.769901ZM 10.6779 1.79918L 21.9393 13.0607L 24.0607 10.9393L 12.7992 -0.322142L 10.6779 1.79918ZM 1.10573 13.0136L 11.4 1.78349L 9.18853 -0.243686L -1.10573 10.9864L 1.10573 13.0136ZM 12.7992 -0.322141C 11.7927 -1.32859 10.1503 -1.2929 9.18853 -0.243686L 11.4 1.78349C 11.2076 1.99333 10.8791 2.00047 10.6779 1.79918L 12.7992 -0.322141Z"/>
</defs>
</svg>
