<svg width="21" height="21" viewBox="0 0 21 21" version="1.1" xmlns="http://www.w3.org/2000/svg" xmlns:xlink="http://www.w3.org/1999/xlink">
<title>Vector</title>
<desc>Created using Figma</desc>
<g id="Canvas" transform="translate(-2877 -2361)">
<g id="Vector">
<use xlink:href="#path0_fill" transform="translate(2877 2361)" fill="#FFFFFF"/>
</g>
</g>
<defs>
<path id="path0_fill" d="M 14.5861 13.7085C 15.9698 12.2552 16.833 10.3091 16.833 8.16599C 16.833 3.67037 13.0627 0 8.41651 0C 3.77029 0 2.56373e-09 3.67037 2.56373e-09 8.16599C 2.56373e-09 12.6616 3.77029 16.332 8.41651 16.332C 10.308 16.332 12.0471 15.7285 13.4562 14.7062L 19.7147 20.7783C 19.867 20.9261 20.0574 21 20.2478 21C 20.4383 21 20.6414 20.9261 20.781 20.7783C 21.073 20.495 21.073 20.027 20.781 19.7314L 14.5861 13.7085ZM 1.52335 8.16599C 1.52335 4.48327 4.60813 1.47801 8.41651 1.47801C 12.2122 1.47801 15.3097 4.47097 15.3097 8.16599C 15.3097 11.861 12.2249 14.854 8.41651 14.854C 4.60813 14.854 1.52335 11.8487 1.52335 8.16599Z"/>
</defs>
</svg>
