<svg width="95" height="139" viewBox="0 0 95 139" version="1.1" xmlns="http://www.w3.org/2000/svg" xmlns:xlink="http://www.w3.org/1999/xlink">
<title>Layer 7</title>
<desc>Created using Figma</desc>
<g id="Canvas" transform="translate(-15642 -16396)">
<g id="Layer 7">
<g id="Vector">
<use xlink:href="#path0_fill" transform="translate(15708.2 16435.4)" fill="#E06F58"/>
</g>
<g id="Vector">
<use xlink:href="#path1_stroke" transform="translate(15712 16438.9)" fill="#333333"/>
</g>
<g id="Vector">
<use xlink:href="#path2_fill" transform="translate(15713.2 16443.1)" fill="#FFC215"/>
</g>
<g id="Vector">
<use xlink:href="#path3_fill" transform="translate(15658.9 16435.4)" fill="#E06F58"/>
</g>
<g id="Vector">
<use xlink:href="#path4_stroke" transform="translate(15660.5 16438.9)" fill="#333333"/>
</g>
<g id="Vector">
<use xlink:href="#path5_fill" transform="translate(15661.6 16443.1)" fill="#FFC215"/>
</g>
<g id="Vector">
<use xlink:href="#path6_fill" transform="translate(15660.3 16418.5)" fill="#2D2D2D"/>
</g>
<g id="Vector">
<use xlink:href="#path7_fill" transform="translate(15667.3 16396)" fill="#96BF3D"/>
</g>
<g id="Vector">
<use xlink:href="#path7_fill" transform="translate(15667.3 16396)" fill="url(#paint8_linear)"/>
</g>
<g id="Vector">
<use xlink:href="#path8_fill" transform="matrix(0.0304417 -0.999537 0.999562 0.0295946 15644 16429.9)" fill="#85A331"/>
</g>
<g id="Vector">
<use xlink:href="#path9_fill" transform="translate(15644.3 16406.6)" fill="url(#paint10_linear)"/>
</g>
<g id="Vector">
<use xlink:href="#path10_fill" transform="translate(15642 16482.2)" fill="#96BF3D"/>
</g>
<g id="Vector">
<use xlink:href="#path11_stroke" transform="translate(15689.3 16482.3)" fill="#87A82D"/>
</g>
<g id="Vector">
<use xlink:href="#path12_fill" transform="translate(15674.6 16457.1)" fill="#F2785F"/>
</g>
<g id="Vector">
<use xlink:href="#path13_fill" transform="translate(15676.6 16457.1)" fill="#CC6250"/>
</g>
<g id="Vector">
<use xlink:href="#path14_fill" transform="translate(15658.2 16417.4)" fill="#333333"/>
</g>
<g id="Vector">
<use xlink:href="#path15_fill" transform="translate(15662.8 16420.6)" fill="#FF8B6C"/>
</g>
<g id="Vector">
<use xlink:href="#path16_stroke" transform="translate(15692.9 16490.4)" fill="#87A82D"/>
</g>
<g id="Vector">
<use xlink:href="#path17_stroke" transform="translate(15692.9 16498)" fill="#87A82D"/>
</g>
<g id="Vector">
<use xlink:href="#path18_stroke" transform="translate(15692.9 16527)" fill="#87A82D"/>
</g>
<g id="Vector">
<use xlink:href="#path19_stroke" transform="translate(15692.9 16519.8)" fill="#87A82D"/>
</g>
<g id="Vector">
<use xlink:href="#path19_stroke" transform="translate(15692.9 16513)" fill="#87A82D"/>
</g>
<g id="Vector">
<use xlink:href="#path19_stroke" transform="translate(15692.9 16506.2)" fill="#87A82D"/>
</g>
<g id="Vector" opacity="0.42">
<use xlink:href="#path20_fill" transform="translate(15702.4 16439.7)" fill="url(#paint23_radial)"/>
</g>
<g id="Vector" opacity="0.42">
<use xlink:href="#path21_fill" transform="translate(15666.1 16439.7)" fill="url(#paint24_radial)"/>
</g>
<g id="Vector">
<use xlink:href="#path22_fill" transform="translate(15673.4 16446.8)" fill="#FFFFFF"/>
</g>
<g id="Vector">
<use xlink:href="#path23_fill" transform="translate(15679.1 16471.6)" fill="#718F2E"/>
</g>
<g id="Vector">
<use xlink:href="#path24_fill" transform="translate(15679.1 16468.9)" fill="#E9EDDD"/>
</g>
<g id="Vector">
<use xlink:href="#path25_fill" transform="translate(15679.1 16474.3)" fill="#3BA4BC"/>
</g>
<g id="Vector">
<use xlink:href="#path26_stroke" transform="translate(15693.7 16433.8)" fill="#333333"/>
</g>
<g id="Vector">
<use xlink:href="#path27_stroke" transform="translate(15675.2 16433.8)" fill="#333333"/>
</g>
<g id="Vector">
<use xlink:href="#path28_fill" transform="translate(15661.8 16418.4)" fill="#333333"/>
</g>
<g id="Vector">
<use xlink:href="#path29_fill" transform="translate(15700.6 16420.9)" fill="#333333"/>
</g>
</g>
</g>
<defs>
<linearGradient id="paint8_linear" x1="0" y1="0" x2="1" y2="0" gradientUnits="userSpaceOnUse" gradientTransform="matrix(-6.5468 -11.1026 11.2605 -6.45498 6.38227 13.7257)">
<stop offset="0" stop-color="#5D6942"/>
<stop offset="1" stop-color="#96BF3D" stop-opacity="0"/>
</linearGradient>
<linearGradient id="paint10_linear" x1="0" y1="0" x2="1" y2="0" gradientUnits="userSpaceOnUse" gradientTransform="matrix(21464.4 0 0 6172.78 77598.7 35841.1)">
<stop offset="0" stop-color="#5D6942"/>
<stop offset="1" stop-color="#96BF3D" stop-opacity="0"/>
</linearGradient>
<radialGradient id="paint23_radial" cx="0.5" cy="0.5" r="0.5" gradientUnits="userSpaceOnUse" gradientTransform="matrix(22.4916 0 0 22.1762 -4.66218 -11.5908)">
<stop offset="0" stop-color="#D4145A" stop-opacity="0"/>
<stop offset="1" stop-color="#D4145A"/>
</radialGradient>
<radialGradient id="paint24_radial" cx="0.5" cy="0.5" r="0.5" gradientUnits="userSpaceOnUse" gradientTransform="matrix(576.236 0 0 568.154 17701.2 839.129)">
<stop offset="0" stop-color="#D4145A" stop-opacity="0"/>
<stop offset="1" stop-color="#D4145A"/>
</radialGradient>
<path id="path0_fill" d="M 4.52072 8.91465C 7.01744 8.91465 9.04147 6.91903 9.04147 4.45732C 9.04147 1.99561 7.01744 0 4.52072 0C 2.02399 0 -3.16574e-05 1.99561 -3.16574e-05 4.45732C -3.16574e-05 6.91903 2.02399 8.91465 4.52072 8.91465Z"/>
<path id="path1_stroke" d="M -0.274818 0.0554969C -0.505498 0.207291 -0.569448 0.517347 -0.417654 0.748027C -0.26586 0.978707 0.0441959 1.04266 0.274876 0.890863L -0.274818 0.0554969ZM 1.88523 0.015779L 1.83309 0.513054L 1.88523 0.015779ZM 3.27436 1.20457C 3.46807 1.40137 3.78465 1.40387 3.98145 1.21016C 4.17825 1.01645 4.18075 0.699879 3.98704 0.503078L 3.27436 1.20457ZM 0.274876 0.890863C 0.732754 0.589567 1.28417 0.455504 1.83309 0.513054L 1.93736 -0.481496C 1.15965 -0.563031 0.376982 -0.373406 -0.274818 0.0554969L 0.274876 0.890863ZM 1.83309 0.513054C 2.38197 0.570598 2.89176 0.81587 3.27436 1.20457L 3.98704 0.503078C 3.44051 -0.05217 2.71511 -0.399956 1.93736 -0.481496L 1.83309 0.513054Z"/>
<path id="path2_fill" d="M 0.834017 1.64462C 1.29463 1.64462 1.66805 1.27646 1.66805 0.822311C 1.66805 0.368162 1.29463 0 0.834017 0C 0.373408 0 -1.15118e-05 0.368162 -1.15118e-05 0.822311C -1.15118e-05 1.27646 0.373408 1.64462 0.834017 1.64462Z"/>
<path id="path3_fill" d="M 4.5207 8.91465C 7.01743 8.91465 9.04145 6.91903 9.04145 4.45732C 9.04145 1.99561 7.01743 0 4.5207 0C 2.02397 0 2.30236e-05 1.99561 2.30236e-05 4.45732C 2.30236e-05 6.91903 2.02397 8.91465 4.5207 8.91465Z"/>
<path id="path4_stroke" d="M 3.35585 0.890863C 3.58653 1.04266 3.89658 0.978707 4.04838 0.748027C 4.20017 0.517347 4.13622 0.207291 3.90554 0.0554969L 3.35585 0.890863ZM -0.356316 0.503078C -0.550027 0.699879 -0.547523 1.01645 -0.350723 1.21016C -0.153922 1.40387 0.16265 1.40137 0.356362 1.20457L -0.356316 0.503078ZM 3.90554 0.0554969C 3.25374 -0.373406 2.47107 -0.563031 1.69336 -0.481496L 1.79763 0.513054C 2.34655 0.455504 2.89797 0.589567 3.35585 0.890863L 3.90554 0.0554969ZM 1.69336 -0.481496C 0.91561 -0.399956 0.190218 -0.05217 -0.356316 0.503078L 0.356362 1.20457C 0.738961 0.81587 1.24875 0.570598 1.79763 0.513054L 1.69336 -0.481496Z"/>
<path id="path5_fill" d="M 0.83404 1.64462C 1.29465 1.64462 1.668 1.27646 1.668 0.822311C 1.668 0.368162 1.29465 0 0.83404 0C 0.373432 0 1.15118e-05 0.368162 1.15118e-05 0.822311C 1.15118e-05 1.27646 0.373432 1.64462 0.83404 1.64462Z"/>
<path id="path6_fill" d="M 7.19955 14.1972C 11.1758 14.1972 14.3991 11.019 14.3991 7.09859C 14.3991 3.17815 11.1758 0 7.19955 0C 3.22334 0 8.63384e-06 3.17815 8.63384e-06 7.09859C 8.63384e-06 11.019 3.22334 14.1972 7.19955 14.1972Z"/>
<path id="path7_fill" d="M 42.8162 13.5599C 44.5927 17.2181 45.622 21.185 45.8457 25.2349L 46.2259 31.5751C 46.2612 32.1563 46.2799 32.7239 46.2819 33.2779C 38.9349 34.7307 29.6489 35.463 19.5731 35.1753C 13.1157 35.0121 6.67853 34.3916 0.311356 33.3186L 0.0579528 29.1082C -0.342841 22.4251 1.35759 16.114 4.47848 11.093C 8.33907 4.89805 14.3686 0.652837 21.3206 0.0687942C 30.1853 -0.677967 38.2807 4.71789 42.604 13.1938L 42.8162 13.5599Z"/>
<path id="path8_fill" d="M 12.2477 85.6451C 19.0118 85.6451 24.4953 66.4728 24.4953 42.8225C 24.4953 19.1723 19.0118 3.95712e-06 12.2477 3.95712e-06C 5.48348 3.95712e-06 -1.13505e-05 19.1723 -1.13505e-05 42.8225C -1.13505e-05 66.4728 5.48348 85.6451 12.2477 85.6451Z"/>
<path id="path9_fill" d="M 85.6 13.5401C 85.5175 17.4192 79.1401 20.6968 69.2528 22.6581C 61.9059 24.111 52.6199 24.8432 42.544 24.5555C 36.0868 24.3942 29.6496 23.7757 23.2823 22.7046C 9.37241 20.2871 -0.108138 15.8733 0.000902057 11.0819C 0.109942 5.88941 11.4943 1.78367 27.4701 0.452863C 32.6552 0.0354829 37.86 -0.0935276 43.0598 0.0664199C 51.3438 0.304686 59.065 1.19964 65.5956 2.55369C 77.6842 5.0642 85.6884 9.14959 85.6 13.5401Z"/>
<path id="path10_fill" d="M 95 51.7503L 2.87795e-06 51.7503C 2.87795e-06 51.7503 10.4766 15.0747 16.7155 8.64732C 21.7254 3.50135 29.3287 1.05766 32.1667 0.290561C 32.871 0.0958798 33.2777 -7.80336e-06 33.2777 -7.80336e-06L 60.9148 0.11041C 60.9148 0.11041 61.3598 0.215016 62.129 0.438754C 65.076 1.2785 72.6852 3.78029 77.7482 8.2289C 84.1491 13.8456 95 51.7503 95 51.7503Z"/>
<path id="path11_stroke" d="M -0.500049 2.48289e-06L -0.500049 51.7416L 0.499951 51.7416L 0.499951 2.48289e-06L -0.500049 2.48289e-06Z"/>
<path id="path12_fill" d="M 28.5794 25.3899L 27.1384 24.8088C 25.6296 24.1955 24.3266 23.1753 23.379 21.8653C 22.4313 20.5553 21.8774 19.0084 21.7806 17.4022L 20.979 9.32725C 20.9789 8.15907 21.1325 6.99581 21.4359 5.86658C 21.9572 3.95906 22.85 2.16979 24.0646 0.598569C 24.1924 0.415387 24.3533 0.256839 24.5391 0.130758L 2.04742 -1.41879e-06L 1.54054 -1.41879e-06C 1.67648 0.0701065 1.80658 0.150756 1.92957 0.241176C 5.40705 2.79818 7.29607 6.95621 7.29607 11.2363L 7.17527 14.1623L 6.83927 17.2888C 6.76831 19.0758 6.13117 20.7958 5.01739 22.2072C 3.90361 23.6186 2.36919 24.6504 0.62989 25.1574C 0.427895 25.2329 0.257067 25.3723 0.144092 25.5538C 0.0311179 25.7353 -0.017598 25.9487 0.0056633 26.1604C 0.0289246 26.3722 0.122817 26.5703 0.272593 26.7238C 0.422368 26.8772 0.619594 26.9773 0.833288 27.0084L 6.53867 27.8336C 11.9697 28.6184 17.4848 28.6585 22.9271 27.9527L 28.3643 27.2495C 28.5823 27.2238 28.7852 27.1263 28.94 26.9727C 29.0949 26.8192 29.1926 26.6187 29.2175 26.4036C 29.2423 26.1885 29.1929 25.9714 29.0771 25.7874C 28.9613 25.6034 28.786 25.4634 28.5794 25.3899Z"/>
<path id="path13_fill" d="M 22.5977 0.130756C 22.4119 0.256837 22.2511 0.415385 22.1232 0.598567C 20.9087 2.16979 20.0158 3.95906 19.4945 5.86658C 17.2872 8.21728 12.51 14.79 4.94211 16.9896L 5.36654 11.2392C 5.36654 6.95911 3.47751 2.81271 3.16574e-05 0.244082L 0.106084 -3.54698e-06L 22.5977 0.130756Z"/>
<path id="path14_fill" d="M 56.4614 13.7578C 57.0902 14.8732 57.2686 16.1816 56.9612 17.4212C 56.6537 18.6608 55.883 19.7403 54.8031 20.4438C 53.7232 21.1472 52.4138 21.4228 51.1367 21.2154C 49.8596 21.008 48.7091 20.3329 47.9151 19.3251C 46.2987 20.3119 44.4979 20.9688 42.6193 21.2568C 40.7407 21.5448 38.8226 21.458 36.9787 21.0017C 34.9307 21.8782 32.7275 22.3482 30.4952 22.3848C 27.3655 24.8343 23.4608 26.1187 19.4664 26.0124C 15.4719 25.9061 11.6431 24.416 8.65191 21.8036C 7.75889 21.907 6.85405 21.7772 6.02787 21.4274C 5.2017 21.0775 4.48323 20.5199 3.94431 19.8102C 3.4054 19.1006 3.06498 18.2638 2.95711 17.3837C 2.84924 16.5036 2.97771 15.6109 3.32966 14.7951C 2.26914 14.2244 1.39435 13.369 0.806778 12.3281C 0.219204 11.2872 -0.0571314 10.1034 0.00980271 8.91395C 0.0767368 7.72452 0.48418 6.57814 1.18494 5.60771C 1.8857 4.63728 2.85109 3.88255 3.96914 3.431C 5.8287 2.92541 38.3873 -5.69576 58.5803 6.48488C 59.0777 7.76239 59.1397 9.16486 58.7569 10.4802C 58.374 11.7955 57.5672 12.9522 56.4585 13.7752L 56.4614 13.7578Z"/>
<path id="path15_fill" d="M 17.632 7.09396e-07L 33.0066 7.09396e-07C 37.6962 7.09396e-07 42.1937 1.8368 45.5097 5.10634C 48.8258 8.37587 50.6887 12.8103 50.6887 17.4341C 50.6887 24.0616 48.0185 30.4176 43.2655 35.1039C 38.5125 39.7903 32.0661 42.423 25.3443 42.423C 18.6226 42.423 12.1761 39.7903 7.42316 35.1039C 2.67017 30.4176 1.42592e-10 24.0616 1.42592e-10 17.4341C -1.87886e-05 12.8189 1.85603 8.39188 5.16124 5.12377C 8.46644 1.85565 12.9511 0.0130773 17.632 7.09396e-07Z"/>
<path id="path16_stroke" d="M 0.499951 1.41879e-06C 0.499951 -0.276141 0.276094 -0.499999 -4.88281e-05 -0.499999C -0.276191 -0.499999 -0.500049 -0.276141 -0.500049 1.41879e-06L 0.499951 1.41879e-06ZM -0.500049 3.08875C -0.500049 3.36489 -0.276191 3.58875 -4.88281e-05 3.58875C 0.276094 3.58875 0.499951 3.36489 0.499951 3.08875L -0.500049 3.08875ZM -0.500049 1.41879e-06L -0.500049 3.08875L 0.499951 3.08875L 0.499951 1.41879e-06L -0.500049 1.41879e-06Z"/>
<path id="path17_stroke" d="M 0.499951 -1.06409e-06C 0.499951 -0.276143 0.276094 -0.500001 -4.88281e-05 -0.500001C -0.276191 -0.500001 -0.500049 -0.276143 -0.500049 -1.06409e-06L 0.499951 -1.06409e-06ZM -0.500049 3.09165C -0.500049 3.3678 -0.276191 3.59165 -4.88281e-05 3.59165C 0.276094 3.59165 0.499951 3.3678 0.499951 3.09165L -0.500049 3.09165ZM -0.500049 -1.06409e-06L -0.500049 3.09165L 0.499951 3.09165L 0.499951 -1.06409e-06L -0.500049 -1.06409e-06Z"/>
<path id="path18_stroke" d="M 0.499951 -7.09396e-07C 0.499951 -0.276143 0.276094 -0.500001 -4.88281e-05 -0.500001C -0.276191 -0.500001 -0.500049 -0.276143 -0.500049 -7.09396e-07L 0.499951 -7.09396e-07ZM -0.500049 3.08874C -0.500049 3.36489 -0.276191 3.58874 -4.88281e-05 3.58874C 0.276094 3.58874 0.499951 3.36489 0.499951 3.08874L -0.500049 3.08874ZM -0.500049 -7.09396e-07L -0.500049 3.08874L 0.499951 3.08874L 0.499951 -7.09396e-07L -0.500049 -7.09396e-07Z"/>
<path id="path19_stroke" d="M 0.499951 -3.54698e-07C 0.499951 -0.276143 0.276094 -0.5 -4.88281e-05 -0.5C -0.276191 -0.5 -0.500049 -0.276143 -0.500049 -3.54698e-07L 0.499951 -3.54698e-07ZM -0.500049 3.08875C -0.500049 3.36489 -0.276191 3.58875 -4.88281e-05 3.58875C 0.276094 3.58875 0.499951 3.36489 0.499951 3.08875L -0.500049 3.08875ZM -0.500049 -3.54698e-07L -0.500049 3.08875L 0.499951 3.08875L 0.499951 -3.54698e-07L -0.500049 -3.54698e-07Z"/>
<path id="path20_fill" d="M 3.77512 7.44437C 5.86007 7.44437 7.55027 5.77789 7.55027 3.72218C 7.55027 1.66648 5.86007 0 3.77512 0C 1.69018 0 -2.01456e-05 1.66648 -2.01456e-05 3.72218C -2.01456e-05 5.77789 1.69018 7.44437 3.77512 7.44437Z"/>
<path id="path21_fill" d="M 3.77515 7.44437C 5.8601 7.44437 7.55022 5.77789 7.55022 3.72218C 7.55022 1.66648 5.8601 0 3.77515 0C 1.69021 0 5.75589e-06 1.66648 5.75589e-06 3.72218C 5.75589e-06 5.77789 1.69021 7.44437 3.77515 7.44437Z"/>
<path id="path22_fill" d="M 29.2049 2.12819e-06C 29.2049 6.30244 22.6684 11.4106 14.6024 11.4106C 6.53647 11.4106 -2.87795e-05 6.30244 -2.87795e-05 2.12819e-06L 29.2049 2.12819e-06Z"/>
<path id="path23_fill" d="M 17.6435 0.259861C 17.6435 0.259861 2.52232 -0.469465 1.1048 0.515563C -0.312712 1.50059 -0.244896 2.4798 0.624474 2.76456C 1.49384 3.04932 18.3478 3.3457 19.1494 2.76456C 19.951 2.18342 19.7653 0.347032 17.6435 0.259861Z"/>
<path id="path24_fill" d="M 17.6435 0.259239C 17.6435 0.259239 2.52232 -0.470084 1.1048 0.517849C -0.312712 1.50578 -0.244896 2.47918 0.624474 2.76394C 1.49384 3.0487 18.3478 3.34508 19.1494 2.76394C 19.951 2.1828 19.7653 0.349315 17.6435 0.259239Z"/>
<path id="path25_fill" d="M 17.6435 0.259862C 17.6435 0.259862 2.52232 -0.469464 1.1048 0.515564C -0.312712 1.50059 -0.244896 2.4798 0.624474 2.76456C 1.49384 3.04932 18.3478 3.3457 19.1494 2.76456C 19.951 2.18342 19.7653 0.347033 17.6435 0.259862Z"/>
<path id="path26_stroke" d="M -0.499804 3.6959C -0.507533 3.97194 -0.290028 4.20197 -0.0139935 4.2097C 0.262041 4.21743 0.492076 3.99992 0.499804 3.72389L -0.499804 3.6959ZM 7.23611 3.72389C 7.24384 3.99992 7.47388 4.21743 7.74991 4.2097C 8.02595 4.20197 8.24345 3.97194 8.23572 3.6959L 7.23611 3.72389ZM 0.499804 3.72389C 0.523906 2.86305 0.887668 2.04396 1.51599 1.44131L 0.823782 0.719615C 0.00740147 1.50263 -0.468289 2.57027 -0.499804 3.6959L 0.499804 3.72389ZM 1.51599 1.44131C 2.14453 0.838459 2.98822 0.500002 3.86796 0.500002L 3.86796 -0.499998C 2.7322 -0.499998 1.63994 -0.0631885 0.823782 0.719615L 1.51599 1.44131ZM 3.86796 0.500002C 4.74769 0.500002 5.59139 0.838459 6.21993 1.44131L 6.91214 0.719615C 6.09598 -0.0631885 5.00372 -0.499998 3.86796 -0.499998L 3.86796 0.500002ZM 6.21993 1.44131C 6.84825 2.04396 7.21201 2.86305 7.23611 3.72389L 8.23572 3.6959C 8.20421 2.57027 7.72852 1.50263 6.91214 0.719615L 6.21993 1.44131Z"/>
<path id="path27_stroke" d="M -0.499772 3.6959C -0.507501 3.97194 -0.289996 4.20197 -0.0139618 4.2097C 0.262072 4.21743 0.492107 3.99992 0.499836 3.72389L -0.499772 3.6959ZM 1.16984 1.08047L 0.823742 0.719615L 1.16984 1.08047ZM 7.23615 3.72389C 7.24387 3.99992 7.47391 4.21743 7.74994 4.2097C 8.02598 4.20197 8.24348 3.97194 8.23575 3.6959L 7.23615 3.72389ZM 0.499836 3.72389C 0.523938 2.86303 0.887646 2.04394 1.51595 1.44131L 0.823742 0.719615C 0.00734367 1.50265 -0.468258 2.57029 -0.499772 3.6959L 0.499836 3.72389ZM 1.51595 1.44131C 2.14448 0.838466 2.98825 0.500002 3.86799 0.500002L 3.86799 -0.499998C 2.73224 -0.499998 1.63991 -0.0631952 0.823742 0.719615L 1.51595 1.44131ZM 3.86799 0.500002C 4.74773 0.500002 5.59142 0.838459 6.21996 1.44131L 6.91217 0.719615C 6.09601 -0.0631884 5.00375 -0.499998 3.86799 -0.499998L 3.86799 0.500002ZM 6.21996 1.44131C 6.84828 2.04396 7.21204 2.86305 7.23615 3.72389L 8.23575 3.6959C 8.20424 2.57027 7.72855 1.50263 6.91217 0.719615L 6.21996 1.44131Z"/>
<path id="path28_fill" d="M 42.0188 2.84401C 42.0188 2.84401 31.551 25.0028 0.0827342 19.5691C 0.0827342 19.5691 -0.801339 12.1422 3.20955 9.75082C 7.22044 7.35944 7.25582 2.3239 15.979 0.470069C 24.7022 -1.38376 42.0188 2.84401 42.0188 2.84401Z"/>
<path id="path29_fill" d="M 14.639 4.23358C 14.0414 6.07838 12.7335 7.61828 10.9964 8.52215C 9.25931 9.42601 7.23181 9.62166 5.34995 9.067C 3.46809 8.51233 1.88215 7.25167 0.933168 5.55611C -0.0158182 3.86054 -0.252059 1.86549 0.275269 -7.80336e-06L 14.639 4.23358Z"/>
</defs>
</svg>
