<svg width="100" height="140" viewBox="0 0 100 140" version="1.1" xmlns="http://www.w3.org/2000/svg" xmlns:xlink="http://www.w3.org/1999/xlink">
<g id="Canvas" fill="none">
<g id="Group">
<g id="Vector">
<path d="M 0 140L 99.7122 140L 99.7122 50.0218C 99.7122 22.3675 77.4189 0 49.8561 0C 22.2934 0 0 22.3675 0 50.0218L 0 140Z" fill="#BBDD5E"/>
</g>
<g id="Group_2">
<g id="Vector_2">
<path d="M 47.4277 0.203341C 47.4277 0.203341 58.3717 3.25345 60.3984 10.0654C 62.4251 16.8773 62.4251 52.7669 62.4251 52.7669L 0.0036022 52.7669C 0.0036022 52.7669 -0.199063 17.0806 2.43561 10.7771C 5.88095 2.84677 15.913 3.10273e-06 15.913 3.10273e-06L 47.4277 0.203341Z" transform="translate(26.6465 87.2324)" fill="#96BF3D"/>
</g>
<g id="Group_3">
<g id="Group_4">
<g id="Vector_3">
<path d="M 20.2721 7.11692C 5.27475 9.35367 -0.197259 3.05011 0.0054084 1.93174C 0.208076 0.915034 1.01874 0.406684 1.12008 0.305014C 1.82941 0.101673 2.33608 0 2.33608 0L 31.3175 0.101669C 31.3175 0.101669 31.8241 0.203342 32.6348 0.406683C 33.3442 1.0167 35.2695 4.7785 20.2721 7.11692Z" transform="translate(41.4395 86.9258)" fill="#D5E5B1"/>
</g>
<g id="Group_5">
<g id="Group_6">
<g id="Vector_4">
<path d="M 4.76268 9.55701C 7.39304 9.55701 9.52536 7.4176 9.52536 4.7785C 9.52536 2.13941 7.39304 0 4.76268 0C 2.13233 0 0 2.13941 0 4.7785C 0 7.4176 2.13233 9.55701 4.76268 9.55701Z" transform="translate(79.1406 39.6504)" fill="#FF8B6C"/>
</g>
</g>
<g id="Vector_5" opacity="0.2">
<path d="M -1.54623e-06 0.527379C -1.54623e-06 0.527379 1.92534 -0.896007 3.85068 0.934058" stroke-miterlimit="10" stroke-linecap="round" stroke-linejoin="round" transform="translate(83.1934 43.3945)" stroke="#333333"/>
</g>
</g>
<g id="Vector_6">
<path d="M 30.4754 27.0443L 28.9554 26.4343C 25.7127 25.1126 23.5847 22.0625 23.382 18.504L 22.5714 9.86202C 22.5714 8.64198 22.774 7.32027 23.078 6.20189C 23.5847 4.16849 24.598 2.23675 25.8141 0.610021C 26.0167 0.40668 26.1181 0.20334 26.3207 0.10167L 2.71 7.75683e-07L 2.20333 7.75683e-07C 2.30466 0.101671 2.50733 0.203341 2.60866 0.305011C 6.25667 3.05011 8.28335 7.5236 8.28335 12.0988L 8.08068 15.0472L 7.77668 18.4023C 7.57401 22.2658 5.04067 25.7226 1.29133 26.841C 0.277991 27.2476 -0.634012 28.7727 0.581991 29.6877C 4.93933 32.9412 11.526 33.5512 17.5047 33.1445C 20.7474 32.8395 25.6114 31.5178 28.4487 30.6028C 31.0834 29.6877 32.1981 27.6543 30.4754 27.0443Z" transform="translate(42.5859 60.1875)" fill="#F2785F"/>
</g>
<g id="Vector_7">
<path d="M 23.8134 0.203341C 23.6107 0.305012 23.5094 0.508352 23.3067 0.711693C 21.9894 2.44009 21.0774 4.27015 20.5707 6.30356C 18.24 8.84531 13.2747 15.8606 5.26934 18.199L 5.67468 12.0988C 5.67468 7.5236 3.64801 3.05011 1.54623e-06 0.30501C 1.54623e-06 0.20334 0.101334 0.10167 0.101334 0L 23.8134 0.203341Z" transform="translate(44.9922 59.9844)" fill="#CC6250"/>
</g>
<g id="Group_7">
<g id="Group_8">
<g id="Vector_8">
<path d="M 4.76268 9.55701C 7.39303 9.55701 9.52536 7.4176 9.52536 4.7785C 9.52536 2.13941 7.39303 0 4.76268 0C 2.13232 0 0 2.13941 0 4.7785C 0 7.4176 2.13232 9.55701 4.76268 9.55701Z" transform="translate(28.373 39.752)" fill="#E06F58"/>
</g>
</g>
<g id="Vector_9" opacity="0.2">
<path d="M 3.85067 0.527378C 3.85067 0.527378 1.92534 -0.896005 -7.73114e-07 0.934061" stroke-miterlimit="10" stroke-linecap="round" stroke-linejoin="round" transform="translate(30.1953 43.4961)" stroke="#333333"/>
</g>
</g>
<g id="Group_9">
<g id="Vector_10">
<path d="M 32.2241 49.1068L 18.848 49.1068C 7.90402 49.1068 -3.86557e-07 40.1598 -3.86557e-07 29.1794L -3.86557e-07 16.3689C -3.86557e-07 7.32026 6.28268 7.75683e-07 15.3014 7.75683e-07L 37.8988 7.75683e-07C 45.7014 7.75683e-07 52.0855 6.30356 52.0855 14.2338L 52.0855 29.281C 52.0855 40.1598 43.1681 49.1068 32.2241 49.1068Z" transform="translate(31.8203 19.0098)" fill="#FF8B6C"/>
</g>
</g>
</g>
<g id="Group_10">
<g id="Vector_11">
<path d="M 1.54623e-06 4.27015C 1.54623e-06 1.93173 1.92534 1.55137e-06 4.25601 1.55137e-06C 6.58668 1.55137e-06 8.51202 1.93173 8.51202 4.27015" stroke-miterlimit="10" stroke-linecap="round" stroke-linejoin="round" transform="translate(41.4453 33.9551)" stroke="#333333"/>
</g>
<g id="Vector_12">
<path d="M -1.54623e-06 4.27015C -1.54623e-06 1.93173 1.92534 1.55137e-06 4.25601 1.55137e-06C 6.58668 1.55137e-06 8.51202 1.93173 8.51202 4.27015" stroke-miterlimit="10" stroke-linecap="round" stroke-linejoin="round" transform="translate(58.873 33.9551)" stroke="#333333"/>
</g>
</g>
</g>
<g id="Vector_13">
<path d="M -3.09246e-06 2.3765C -3.09246e-06 2.3765 0.202666 12.5435 6.48535 13.6619C 12.16 14.6786 10.032 30.6408 11.552 30.6408C 12.768 30.6408 12.0587 30.6408 12.8694 30.6408C 13.072 30.6408 13.2747 30.4375 13.2747 30.2342C 13.2747 29.1158 13.4774 25.7607 13.5787 19.7621C 13.68 15.2886 15.3014 8.47672 13.68 4.81659C 9.82935 -3.52038 1.216 1.25813 -3.09246e-06 2.3765Z" transform="translate(70.6289 16.6348)" fill="#333333"/>
</g>
<g id="Vector_14">
<path d="M 58.6721 11.6792C 59.2801 15.0343 57.6588 18.4911 54.7201 20.2195C 49.4508 23.3712 38.7094 28.3531 23.9147 27.8447C 2.73601 27.0314 -3.86557e-07 2.83384 -3.86557e-07 2.83384C -3.86557e-07 2.83384 55.0241 -7.6382 58.6721 11.6792Z" transform="translate(19.1523 3.46875)" fill="#333333"/>
</g>
<g id="Vector_15">
<path d="M 7.73114e-07 1.55137e-06C 7.73114e-07 1.55137e-06 7.60002 7.11692 18.7467 1.55137e-06" stroke-miterlimit="10" stroke-linecap="round" stroke-linejoin="round" transform="translate(44.2832 53.7832)" stroke="#333333"/>
</g>
<g id="Vector_16">
<path d="M 5.15851 1.01973C 5.15851 1.01973 7.38785 6.91661 3.84117 9.15336C 1.00383 10.9834 1.2065 31.2158 1.2065 31.2158L 0.395834 31.1141C 0.395834 31.1141 -0.617501 7.42496 0.598502 2.64646C 1.8145 -2.13205 5.15851 1.01973 5.15851 1.01973Z" transform="translate(31.4238 16.3652)" fill="#333333"/>
</g>
</g>
<g id="Group_11">
<g id="Vector_17">
<path d="M 2.73601 11.1837C 2.73601 11.1837 5.37068 5.69354 -1.93278e-07 7.75683e-07" stroke-width="4" stroke-miterlimit="10" stroke-linecap="round" stroke-linejoin="round" transform="translate(6.78906 42.9023)" stroke="#D86956"/>
</g>
<g id="Vector_18">
<path d="M 3.86557e-07 15.8606C 3.86557e-07 15.8606 5.37068 6.5069 0.810668 -1.55137e-06" stroke-width="4" stroke-miterlimit="10" stroke-linecap="round" stroke-linejoin="round" transform="translate(9.2207 38.7344)" stroke="#ED7962"/>
</g>
<g id="Vector_19">
<path d="M 14.3272 5.67948C 14.3272 4.35776 12.6046 -0.725751 7.33521 0.0876118C 2.06586 0.799304 -0.670146 6.69618 0.140523 11.983" stroke-width="5" stroke-miterlimit="10" stroke-linecap="round" stroke-linejoin="round" transform="translate(9.48633 45.9648)" stroke="#FF8B6C"/>
</g>
<g id="Vector_20">
<path d="M 28.3734 1.55137e-06C 28.3734 7.62527 22.0907 13.8272 14.1867 13.8272C 6.28268 13.8272 3.86557e-07 7.62527 3.86557e-07 1.55137e-06L 28.3734 1.55137e-06Z" transform="translate(20.873 51.75)" fill="white"/>
</g>
<g id="Vector_21">
<path d="M 11.4507 7.75683e-07C 11.248 2.03341 10.1334 3.86347 7.90402 4.57516C 4.66134 5.59187 1.11467 4.16848 3.86557e-07 0.915031" stroke-width="5" stroke-miterlimit="10" stroke-linecap="round" stroke-linejoin="round" transform="translate(10.2344 58.6621)" stroke="#FF8B6C"/>
</g>
<g id="Group_12">
<g id="Vector_22">
<path d="M 13.4774 11.6174C 13.376 11.9225 11.6534 13.6508 7.19468 15.8876C 5.37068 16.8026 2.93867 17.8193 0 18.836L 0 5.51722C 0.912002 5.11054 1.72267 4.70386 2.53334 4.19551C 6.28268 2.1621 8.30935 0.433705 8.41069 0.332035C 9.42402 -0.582997 9.52536 0.535378 9.52536 1.95876C 9.52536 1.95876 9.52536 1.95876 9.52536 2.06043C 9.52536 2.36544 9.52536 2.77212 9.52536 3.07713C 9.52536 3.28047 9.52536 3.48381 9.52536 3.58549C 9.62669 5.41555 9.82936 6.22891 10.1334 6.9406C 10.4374 7.6523 10.7414 8.16065 11.248 8.77067C 11.9574 9.58403 12.5654 10.3974 12.9707 10.9057C 13.2747 11.3124 13.4774 11.5158 13.4774 11.6174Z" transform="translate(0 51.8223)" fill="#FF8B6C"/>
</g>
</g>
<g id="Group_13">
<g id="Vector_23">
<path d="M 7.19468 13.4205C 5.06668 14.5389 2.63467 15.6572 0 16.7756L 0 0.915033C 0.608001 0.610023 1.216 0.30501 1.72267 -7.75683e-07C 2.02667 0.30501 2.33067 0.508352 2.53334 0.915033C 4.56001 3.25345 6.78935 7.01525 7.19468 12.6071C 7.19468 12.8105 7.19468 13.1155 7.19468 13.4205Z" transform="translate(0 55.2031)" fill="white"/>
</g>
</g>
</g>
<g id="Group_14">
<g id="Group_15">
<g id="Group_16">
<g id="Vector_24">
<path d="M 22.7445 5.04673L 22.7445 16.5355C 20.3125 16.2305 17.7792 15.8238 15.0432 15.2138C 11.1925 14.2987 7.13916 12.8753 3.08581 10.8419C 0.349806 9.41855 -0.764863 6.06343 0.552473 3.21666C 0.856474 2.60664 1.26181 1.99662 1.66714 1.58993C 2.37648 0.878243 3.18715 0.47156 4.09915 0.166549C 5.31515 -0.138462 6.63248 -0.03679 7.84849 0.573232C 8.96316 1.08158 10.0778 1.58993 11.1925 2.09829C 12.8138 2.70831 14.4352 3.31833 16.0565 3.72501C 18.4885 4.33503 20.6165 4.74172 22.7445 5.04673Z" transform="translate(76.9688 70.6992)" fill="#FF8B6C"/>
</g>
</g>
<g id="Group_17">
<g id="Vector_25">
<path d="M 8.22682 1.0167L 8.22682 13.9288C 5.18681 13.5222 2.4508 13.1155 0.728131 12.8105C 0.626797 12.6071 0.6268 12.3021 0.525467 12.0988C -0.690536 6.91358 0.424132 3.05011 1.64013 0.610025C 1.74147 0.406684 1.8428 0.203338 1.94413 -3.10273e-06C 3.3628 0.203338 5.59214 0.610019 8.22682 1.0167Z" transform="translate(91.4863 73.916)" fill="white"/>
</g>
</g>
<g id="Vector_26">
<path d="M 0.897914 7.01525C 0.897914 7.01525 -0.723423 3.05011 0.391246 3.10273e-06" stroke-width="4" stroke-miterlimit="10" stroke-linecap="round" stroke-linejoin="round" transform="translate(87.9727 67.918)" stroke="#FF8B6C"/>
</g>
</g>
<g id="Vector_27">
<path d="M 5.06668 2.84677L -3.09246e-06 0" stroke-width="3" stroke-miterlimit="10" stroke-linecap="round" stroke-linejoin="round" transform="translate(80.7637 70.6621)" stroke="#FF8B6C"/>
</g>
<g id="Vector_28">
<path d="M 5.06668 2.84677L 3.09246e-06 1.55137e-06" stroke-width="3" stroke-miterlimit="10" stroke-linecap="round" stroke-linejoin="round" transform="translate(78.332 72.0859)" stroke="#FF8B6C"/>
</g>
<g id="Vector_29">
<path d="M 5.16801 3.15178L 1.54623e-06 -1.55137e-06" stroke-width="3" stroke-miterlimit="10" stroke-linecap="round" stroke-linejoin="round" transform="translate(77.4199 74.3223)" stroke="#FF8B6C"/>
</g>
<g id="Vector_30">
<path d="M 4.86401 3.45679L -3.09246e-06 1.55137e-06" stroke-width="3" stroke-miterlimit="10" stroke-linecap="round" stroke-linejoin="round" transform="translate(77.2168 77.1699)" stroke="#FF8B6C"/>
</g>
</g>
</g>
</g>
</svg>

