<svg width="31" height="36" viewBox="0 0 31 36" version="1.1" xmlns="http://www.w3.org/2000/svg" xmlns:xlink="http://www.w3.org/1999/xlink">
<g id="Canvas" fill="none">
<g id="Group">
<g id="Vector">
<path d="M 9.1061 7.01733e-08L 0.700489 7.01733e-08C 0.313831 7.01733e-08 7.05427e-07 0.343407 7.05427e-07 0.766503C 7.05427e-07 1.1896 0.313831 1.53301 0.700489 1.53301L 9.1061 1.53301C 9.49275 1.53301 9.80658 1.1896 9.80658 0.766503C 9.80658 0.343407 9.49275 7.01733e-08 9.1061 7.01733e-08Z" transform="matrix(0.99912 0.00153538 0.00353889 1.00083 18.792 3.60352)" fill="#96BF3D"/>
</g>
<g id="Vector_2">
<path d="M 3.99864 3.29014L 1.19675 0.224195C 0.923567 -0.0747317 0.479448 -0.0747317 0.206266 0.224195C -0.0669162 0.523122 -0.0669162 1.00909 0.206266 1.30802L 2.51223 3.83129L 0.204887 6.35608C -0.068295 6.655 -0.068295 7.14097 0.204887 7.4399C 0.342201 7.58857 0.521477 7.66374 0.700818 7.66374C 0.880159 7.66374 1.05944 7.58865 1.19675 7.4399L 3.99864 4.37396C 4.27182 4.07496 4.27182 3.58906 3.99864 3.29014Z" transform="matrix(0.99912 0.00153538 0.00353889 1.00083 24.3789 0.550781)" fill="#96BF3D"/>
</g>
<g id="Vector_3">
<path d="M 9.10609 7.01733e-08L 0.700489 7.01733e-08C 0.313831 7.01733e-08 -5.81175e-08 0.343407 -5.81175e-08 0.766503C -5.81175e-08 1.1896 0.313831 1.53301 0.700489 1.53301L 9.10609 1.53301C 9.49275 1.53301 9.80658 1.1896 9.80658 0.766503C 9.80658 0.343407 9.49275 7.01733e-08 9.10609 7.01733e-08Z" transform="matrix(0.99912 0.00153538 0.00353889 1.00083 0.59668 3.58008)" fill="#96BF3D"/>
</g>
<g id="Vector_4">
<path d="M 1.69123 3.83129L 3.99719 1.30802C 4.27038 1.00909 4.27038 0.523122 3.99719 0.224195C 3.72401 -0.0747317 3.27989 -0.0747317 3.00671 0.224195L 0.204887 3.29021C -0.0682955 3.58913 -0.0682955 4.07511 0.204887 4.37403L 3.00678 7.43997C 3.14409 7.58865 3.32337 7.66381 3.50271 7.66381C 3.68205 7.66381 3.86133 7.58872 3.99726 7.43846C 4.27044 7.13954 4.27044 6.65357 3.99726 6.35464L 1.69123 3.83129Z" transform="matrix(0.99912 0.00153538 0.00353889 1.00083 0.584961 0.509766)" fill="#96BF3D"/>
</g>
<g id="Vector_5">
<path d="M 23.2355 10.7307C 22.6597 10.7307 22.1232 10.9223 21.6777 11.2488C 21.2938 10.0562 20.2529 9.19775 19.0327 9.19775C 18.4569 9.19775 17.9204 9.38939 17.4749 9.71591C 17.091 8.5233 16.0501 7.66482 14.8299 7.66482C 14.32 7.66482 13.8409 7.81507 13.429 8.07721L 13.429 3.06594C 13.429 1.37506 12.1724 8.33307e-08 10.6271 8.33307e-08C 9.08186 8.33307e-08 7.82522 1.37506 7.82522 3.06594L 7.82522 16.0961L 5.39042 14.0986C 3.94748 12.9136 1.89369 13.0716 0.61466 14.4696C -0.204886 15.3664 -0.204886 16.8243 0.61466 17.721L 10.5907 28.6388C 11.7815 29.9418 13.366 30.6592 15.0499 30.6592L 18.3323 30.6592C 22.58 30.6592 26.0374 26.8774 26.0374 22.2279L 26.0374 13.7966C 26.0374 12.1057 24.7808 10.7307 23.2355 10.7307ZM 24.6365 22.2279C 24.6365 26.0311 21.808 29.1262 18.3323 29.1262L 15.0499 29.1262C 13.7386 29.1262 12.5072 28.5682 11.5812 27.5549L 1.60514 16.6372C 1.33196 16.3383 1.33196 15.8523 1.60514 15.5534C 2.03941 15.0797 2.6194 14.836 3.20221 14.836C 3.67575 14.836 4.15204 14.9969 4.55131 15.325L 8.1055 18.2422C 8.31846 18.4169 8.60425 18.443 8.83961 18.3142C 9.07635 18.184 9.22627 17.9187 9.22627 17.629L 9.22627 3.06594C 9.22627 2.22126 9.85386 1.53301 10.6272 1.53301C 11.4005 1.53301 12.0281 2.22133 12.0281 3.06594L 12.0281 14.5631C 12.0281 14.9862 12.3419 15.3296 12.7286 15.3296C 13.1152 15.3296 13.4291 14.9862 13.4291 14.5631L 13.4291 10.7308C 13.4291 9.88607 14.0567 9.19782 14.83 9.19782C 15.6033 9.19782 16.2309 9.88614 16.2309 10.7308L 16.2309 14.5631C 16.2309 14.9862 16.5447 15.3296 16.9314 15.3296C 17.318 15.3296 17.6319 14.9862 17.6319 14.5631L 17.6319 12.2637C 17.6319 11.419 18.2595 10.7308 19.0328 10.7308C 19.8061 10.7308 20.4337 11.4191 20.4337 12.2637L 20.4337 14.5631C 20.4337 14.9862 20.7475 15.3296 21.1342 15.3296C 21.5208 15.3296 21.8347 14.9862 21.8347 14.5631L 21.8347 13.7966C 21.8347 12.9519 22.4623 12.2637 23.2356 12.2637C 24.0089 12.2637 24.6365 12.952 24.6365 13.7966L 24.6365 22.2279Z" transform="matrix(0.99912 0.00153538 0.00353889 1.00083 3.98047 5.11523)" fill="#96BF3D"/>
</g>
</g>
</g>
</svg>

