<svg width="166" height="134" viewBox="0 0 166 134" version="1.1" xmlns="http://www.w3.org/2000/svg" xmlns:xlink="http://www.w3.org/1999/xlink">
<g id="Canvas" fill="none">
<g id="Group">
<g id="Vector">
<path d="M 133.413 134L 32.5872 134C 14.6225 134 0 119.51 0 101.708L 0 32.2925C 0 14.4902 14.6225 0 32.5872 0L 133.413 0C 151.378 0 166 14.4902 166 32.2925L 166 101.708C 165.861 119.51 151.378 134 133.413 134Z" fill="#F2F2F2"/>
</g>
<g id="Mask Group">
<mask id="mask0" mask-type="alpha" maskUnits="userSpaceOnUse" x="0" y="0" width="166" height="134">
<g id="Vector_2">
<path d="M 133.273 134L 32.5872 134C 14.6225 134 0 119.495 0 101.674L 0 32.3258C 0 14.5052 14.6225 0 32.5872 0L 133.413 0C 151.378 0 166 14.5052 166 32.3258L 166 101.812C 165.861 119.495 151.238 134 133.273 134Z" fill="#96BF3D"/>
</g>
</mask>
<g mask="url(#mask0)">
<g id="Group_2">
<g id="Group_3">
<g id="Vector_3">
<path d="M 5.07725e-07 45.098C 3.24424 47.431 6.75468 49.3947 10.4814 50.9556C 16.7702 53.5738 23.658 55.0173 30.8785 55.0173C 31.4275 55.0173 31.9766 55.0173 32.5256 54.9837C 34.0229 54.9333 35.487 54.8326 36.9511 54.6648C 38.9143 46.2561 41.2601 35.1285 43.5061 31.0164C 44.521 29.1534 45.8686 27.4583 47.6321 26.0484C 47.6987 25.9813 47.7819 25.931 47.8484 25.8806C 48.7135 25.2093 49.5288 24.5547 50.3273 23.9001C 50.6434 23.6484 50.9429 23.3798 51.2424 23.1281C 53.4385 21.2315 55.3351 19.3517 56.9323 17.4551C 56.9489 17.4384 56.9656 17.4216 56.9656 17.4048C 57.5479 16.7167 58.0802 16.0285 58.5794 15.3236C 58.6625 15.2229 58.7291 15.1054 58.8123 14.9879C 58.8289 14.9544 58.8622 14.9208 58.8788 14.8872C 59.7273 13.662 60.4427 12.42 61.0583 11.1444C 62.5057 8.10657 63.271 4.90087 63.3875 1.37627L 44.2381 0.637784L 37.184 0.369242L 36.1192 0.335678L 27.6176 2.0488e-06C 25.6212 0.151056 23.7745 1.07416 22.4601 2.53435C 22.0276 3.02108 21.6616 3.55817 21.3454 4.1456C 20.4637 5.84076 19.0162 8.54295 17.2361 11.8829C 12.4113 20.879 5.1076 34.4907 5.07725e-07 45.098Z" transform="translate(21.2559 92.2812)" fill="#FF8B6C"/>
</g>
<g id="Vector_4" opacity="0.33">
<path d="M 0.270151 0.939888C 8.75509 1.84621 9.67013 4.58197 8.60535 8.91219C 8.92146 8.66043 9.22093 8.39189 9.5204 8.14014C 11.7165 6.24357 13.6131 4.36379 15.2103 2.46722C 15.2269 2.45044 15.2436 2.43365 15.2436 2.41687C 15.8259 1.72873 16.3583 1.04059 16.8574 0.335676C 16.9406 0.234973 17.0071 0.117487 17.0903 0C 10.7016 0.0503514 -2.00914 0.704915 0.270151 0.939888Z" transform="translate(62.9766 107.27)" fill="url(#paint0_linear)"/>
</g>
</g>
<g id="Group_4">
<g id="Vector_5">
<path d="M 5.17551 0.19156C 5.17551 0.19156 0.400649 -0.228036 0.0679067 0.174775C -0.264836 0.577586 0.733392 5.49524 0.733392 5.49524C 0.733392 5.49524 7.05551 3.14551 5.17551 0.19156Z" transform="translate(104.572 63.0879)" fill="#E06251"/>
</g>
<g id="Vector_6">
<path d="M 5.17551 0.191563C 5.17551 0.191563 0.400649 -0.228033 0.0679067 0.174778C -0.264836 0.577589 0.733392 5.49524 0.733392 5.49524C 0.733392 5.49524 7.05551 3.16229 5.17551 0.191563Z" transform="translate(104.572 72.7031)" fill="#E06251"/>
</g>
</g>
<g id="Group_5">
<g id="Vector_7">
<path d="M 31.1721 6.20981C 27.1959 8.86165 19.9421 11.2617 12.5885 12.1513C 10.6918 12.3862 8.79519 12.5037 6.94847 12.5037C -5.4462 12.5373 0.726184 3.59154 10.043 2.29919C 10.5421 2.23205 11.0578 2.1817 11.5736 2.16492C 14.352 2.04743 17.2302 1.66141 19.9587 1.24181C 27.1792 0.150867 33.3682 -1.1247 34.2001 1.77889C 34.5994 3.17195 33.4015 4.73284 31.1721 6.20981Z" transform="translate(84.1504 51.8477)" fill="#FF8B6C"/>
</g>
<g id="Vector_8">
<path d="M 22.0236 4.968C 18.0474 7.61984 10.7936 10.0199 3.43996 10.9095C 1.31041 8.72757 -1.10198 5.23654 0.545097 1.71195C 0.661557 1.47697 0.778023 1.25878 0.894483 1.05738C 1.3936 0.990244 1.90935 0.939894 2.4251 0.92311C 5.2035 0.805624 8.08172 0.419597 10.8102 2.0488e-06C 11.143 1.57768 12.5405 5.94146 17.6148 5.67292C 19.5114 5.589 20.9422 5.30368 22.0236 4.968Z" transform="translate(93.3008 53.0918)" fill="url(#paint1_linear)"/>
</g>
</g>
<g id="Group_6">
<g id="Vector_9">
<path d="M 17.937 1.81631C 17.8871 2.35339 16.3731 3.3772 14.1604 4.40101C 11.3321 5.72693 7.33916 7.06963 3.82872 7.42209C -2.22719 8.04309 -1.14578 -0.533421 7.40571 0.0372282C 7.68854 0.0540119 7.97137 0.0875795 8.27084 0.121147C 8.2542 0.137931 18.2032 -0.701263 17.937 1.81631Z" transform="translate(97.334 85.6133)" fill="#FF8B6C"/>
</g>
<g id="Vector_10">
<path d="M 14.1604 4.39107C 11.3321 5.71699 7.33916 7.05969 3.82872 7.41215C -2.22719 8.03315 -1.14578 -0.543362 7.40571 0.0272868C 7.57208 1.28607 8.45386 3.30012 12.1972 4.32393C 12.8128 4.50855 13.4783 4.50856 14.1604 4.39107Z" transform="translate(97.334 85.623)" fill="url(#paint2_linear)"/>
</g>
</g>
<g id="Group_7">
<g id="Vector_11">
<path d="M 47.8318 2.95395C 46.9334 1.20843 45.1199 -1.2805e-07 43.0236 -1.2805e-07L 5.40707 -1.2805e-07C 3.31079 -1.2805e-07 1.49734 1.19165 0.598935 2.95395C 0.216281 3.70922 2.0309e-06 4.54841 2.0309e-06 5.45473L 2.0309e-06 86.5708C 2.0309e-06 87.0072 0.0499124 87.4435 0.149735 87.8464C 0.715398 90.2464 2.86159 92.0255 5.40707 92.0255L 43.0236 92.0255C 45.5691 92.0255 47.7153 90.2464 48.281 87.8464C 48.3808 87.4268 48.4307 87.0072 48.4307 86.5708L 48.4307 5.45473C 48.4307 4.56519 48.2144 3.70922 47.8318 2.95395Z" transform="translate(58.4219 15.3438)" fill="url(#paint3_linear)"/>
</g>
<g id="Group_8">
<g id="Vector_12">
<path d="M 48.4307 5.45473L 48.4307 86.5708C 48.4307 87.0072 48.3808 87.4435 48.281 87.8464C 47.7153 90.2464 45.5691 92.0255 43.0236 92.0255L 5.40707 92.0255C 2.86159 92.0255 0.715399 90.2464 0.149736 87.8464C 0.0499134 87.4268 -2.0309e-06 87.0072 -2.0309e-06 86.5708L -2.0309e-06 5.45473C -2.0309e-06 4.54841 0.216282 3.69243 0.598936 2.95395C 1.49734 1.20843 3.31079 -1.2805e-07 5.40707 -1.2805e-07L 43.0236 -1.2805e-07C 45.1199 -1.2805e-07 46.9334 1.19165 47.8318 2.95395C 48.2144 3.70922 48.4307 4.56519 48.4307 5.45473Z" transform="translate(57.3594 15.3438)" fill="#BEE05F"/>
</g>
<g id="Vector_13">
<path d="M 48.4307 5.45473L 48.4307 86.5708C 48.4307 87.0072 48.3808 87.4435 48.281 87.8464C 47.7153 90.2464 45.5691 92.0255 43.0236 92.0255L 5.40707 92.0255C 2.86159 92.0255 0.715399 90.2464 0.149736 87.8464C 0.0499134 87.4268 -2.0309e-06 87.0072 -2.0309e-06 86.5708L -2.0309e-06 5.45473C -2.0309e-06 4.54841 0.216282 3.69243 0.598936 2.95395C 1.49734 1.20843 3.31079 -1.2805e-07 5.40707 -1.2805e-07L 43.0236 -1.2805e-07C 45.1199 -1.2805e-07 46.9334 1.19165 47.8318 2.95395C 48.2144 3.70922 48.4307 4.56519 48.4307 5.45473Z" transform="translate(57.3594 15.3438)" fill="#D5E5B1"/>
</g>
<g id="Vector_14">
<path d="M -1.01545e-06 1.52588e-06L 10.7975 1.52588e-06" stroke-width="0.5" stroke-miterlimit="10" stroke-linecap="round" stroke-linejoin="round" transform="translate(76.1738 16.7051)" stroke="#769327"/>
</g>
<g id="Vector_15">
<path d="M 48.4307 2.50078L 48.4307 83.6168C 48.4307 84.0532 48.3808 84.4896 48.281 84.8924L 0.149736 84.8924C 0.0499134 84.4728 -2.0309e-06 84.0532 -2.0309e-06 83.6168L -2.0309e-06 2.50078C -2.0309e-06 1.59446 0.216282 0.738487 0.598936 2.561e-07L 47.8318 2.561e-07C 48.2144 0.755271 48.4307 1.61124 48.4307 2.50078Z" transform="translate(57.3594 18.2988)" fill="#EEEEEE"/>
</g>
</g>
<g id="Group_9">
<g id="Vector_16">
<path d="M 0 1.07971C 0.0665486 0.475496 0.598939 0.0558997 1.28106 0.00554836C 1.81345 -0.0280192 2.11292 0.0894678 2.1961 0.391576C 1.99646 0.307657 1.79681 0.324442 1.59717 0.374794C 1.08142 0.49228 1.1646 0.391577 1.24779 0.911874C 1.43079 2.08674 1.99646 3.09377 2.7784 3.96652C 3.97628 5.30923 5.47362 6.19877 7.12069 6.85333C 9.766 7.91071 12.5278 8.29674 15.3727 8.17926C 18.0347 8.07855 20.6134 7.52469 23.0092 6.31625C 23.5249 6.0645 24.024 5.76239 24.4899 5.42671C 24.623 5.32601 24.7228 5.34279 24.806 5.47706C 24.8392 5.51063 24.8725 5.56098 24.9058 5.59455C 25.2219 5.98058 25.2385 5.98058 24.806 6.29947C 22.9592 7.65896 20.863 8.46458 18.6336 8.91774C 14.9069 9.65623 11.2301 9.47161 7.63645 8.14569C 5.67326 7.42398 3.89309 6.38339 2.49557 4.77215C 1.66371 3.81547 1.08142 2.72452 0.865133 1.44896C 0.831859 1.23077 0.798581 1.01258 0.798581 0.777604C 0.798581 0.62655 0.76531 0.592983 0.615576 0.660118C 0.382656 0.777604 0.199646 0.911874 0 1.07971Z" transform="translate(66.959 42.2949)" fill="#96BF3D"/>
</g>
<g id="Vector_17">
<path d="M 1.81345 0.34235C 2.06301 -0.0101099 2.56212 -0.0940305 3.11114 0.107375C 3.67681 0.325564 4.00955 0.711592 3.97628 1.13119C 3.80991 0.946566 3.61026 0.82908 3.41061 0.728377C 3.31079 0.678026 3.26088 0.69481 3.26088 0.812296C 3.11115 2.79278 2.07964 4.28654 0.665483 5.57889C 0.532386 5.69638 0.449207 5.71316 0.349384 5.56211C 0.232924 5.39427 0.0166351 5.26 -2.0309e-06 5.09216C -2.0309e-06 4.92432 0.266196 4.84041 0.399293 4.70614C 1.51398 3.74946 2.37911 2.60816 2.72849 1.14797C 2.74513 1.06405 2.76177 0.963349 2.7784 0.87943C 2.86159 0.459836 2.86158 0.459836 2.46229 0.375917C 2.26265 0.342349 2.04637 0.325566 1.81345 0.34235Z" transform="translate(92.2148 42.1074)" fill="#96BF3D"/>
</g>
<g id="Vector_18">
<path d="M 0.484271 0.534702C 0.717191 0.232594 0.966751 0.0647548 1.28286 0.0983223C 1.4825 0.115106 1.64887 0.199025 1.78197 0.350079C 1.86516 0.450782 1.91507 0.467566 1.99825 0.350079C 2.13135 0.165457 2.33099 0.047971 2.54727 0.0144034C 3.07966 -0.0695155 3.44568 0.215811 3.51223 0.803243C 3.56214 1.32354 3.57878 1.84384 3.62869 2.36413C 3.64533 2.61589 3.47895 2.54876 3.34585 2.58232C 3.17948 2.61589 3.14621 2.53197 3.12957 2.38092C 3.11294 1.91097 3.07967 1.44103 3.02976 0.971081C 3.01312 0.769676 2.9632 0.568269 2.74692 0.48435C 2.49736 0.366863 2.1979 0.517919 2.09807 0.803243C 2.03153 1.02143 2.03152 1.2564 2.04816 1.49138C 2.0648 1.82705 2.08143 2.14595 2.13135 2.48162C 2.16462 2.73338 1.98162 2.66624 1.86516 2.68303C 1.73206 2.69981 1.64887 2.71659 1.63223 2.51519C 1.61559 2.02846 1.56569 1.54173 1.51578 1.055C 1.46586 0.685757 1.31613 0.551487 1.04993 0.551487C 0.750464 0.56827 0.584094 0.769675 0.567456 1.12213C 0.534182 1.60886 0.60073 2.07881 0.634004 2.56554C 0.650641 2.75016 0.567457 2.80051 0.417723 2.78373C 0.284626 2.78373 0.151527 2.8173 0.13489 2.59911C 0.101616 1.91097 0.0517063 1.20605 0.00179487 0.517917C -0.0148423 0.282944 0.0849816 0.266161 0.26799 0.232593C 0.467636 0.199026 0.500908 0.299729 0.484271 0.534702Z" transform="translate(81.0996 47.3164)" fill="#59595B"/>
</g>
<g id="Vector_19">
<path d="M 2.39575 1.66323C 2.21274 1.5961 2.063 1.56253 1.97982 1.83107C 1.87999 2.13318 1.6138 2.26745 1.2977 2.26745C 0.981593 2.26745 0.765304 2.08283 0.61557 1.81429C 0.532384 1.68002 0.565665 1.61288 0.715399 1.57932C 1.23115 1.46183 1.73027 1.31078 2.24602 1.17651C 2.3292 1.15972 2.39575 1.14294 2.37911 1.02545C 2.27929 0.454801 1.73026 -0.0319274 1.19787 0.00164022C 0.465836 0.0519916 4.0618e-06 0.521937 4.0618e-06 1.32756C 4.0618e-06 1.57932 0.0831877 1.91499 0.299471 2.20031C 0.582302 2.58634 0.964954 2.77096 1.43079 2.70383C 1.94655 2.61991 2.31256 2.33459 2.51221 1.84786C 2.54548 1.73037 2.49557 1.6968 2.39575 1.66323ZM 0.465842 1.0758C 0.515753 0.723342 0.81522 0.454802 1.18124 0.454802C 1.2977 0.454802 1.39752 0.471586 1.4807 0.538721C 1.6138 0.62264 1.78017 0.723341 1.76354 0.891179C 1.7469 1.00867 1.56389 0.9751 1.44743 1.00867C 1.18123 1.09259 0.898401 1.14294 0.61557 1.22685C 0.465836 1.27721 0.449205 1.21007 0.465842 1.0758Z" transform="translate(85.2441 46.7773)" fill="#59595B"/>
</g>
<g id="Vector_20">
<path d="M 2.98458 1.43008C 3.00122 0.741946 2.38565 0.0705949 1.68689 0.00345972C 1.05468 -0.0468916 0.522287 0.456621 0.405827 1.24546C 0.339278 1.16154 0.289363 1.12797 0.256089 1.07762C 0.18954 0.993702 0.156274 0.976919 0.056451 1.04405C -0.0433718 1.12797 0.00653557 1.17832 0.0730841 1.24546C 0.189544 1.37973 0.306 1.53078 0.42246 1.66505C 1.07131 2.45389 1.7368 3.22595 2.38565 4.01478C 2.43556 4.06514 2.45219 4.19941 2.58529 4.11549C 2.70175 4.03157 2.66847 3.96443 2.58529 3.88051C 2.23591 3.46092 1.88653 3.04133 1.52052 2.60495C 2.41892 2.5546 2.96795 2.10143 2.98458 1.43008ZM 1.75343 2.36997C 1.20441 2.36997 0.672017 1.78254 0.672017 1.19511C 0.672017 0.708377 1.10459 0.271999 1.6037 0.271999C 2.16937 0.271999 2.71839 0.80908 2.71839 1.39651C 2.71839 1.91681 2.26918 2.36997 1.75343 2.36997Z" transform="translate(90.0117 44.2578)" fill="#59595B"/>
</g>
<g id="Vector_21">
<path d="M 1.26922 0.28991C 1.88479 0.138856 2.23417 0.357045 2.3839 0.994829C 2.73328 0.793424 3.06603 0.826991 3.38213 1.07875C 3.58178 1.24659 3.66497 1.44799 3.61506 1.71653C 3.58178 1.91794 3.48196 2.10256 3.39877 2.28718C 3.19913 2.67321 2.99948 3.07602 2.79983 3.46205C 2.76656 3.52918 2.74993 3.6131 2.61683 3.56275C 2.50037 3.49561 2.53364 3.42848 2.56691 3.34456C 2.76656 2.94175 2.96621 2.55572 3.16585 2.15291C 3.21576 2.05221 3.26567 1.9515 3.31559 1.83402C 3.39877 1.61583 3.39877 1.41442 3.19913 1.24659C 2.98285 1.07875 2.70001 1.04518 2.48373 1.19623C 2.31736 1.31372 2.2009 1.48156 2.11771 1.6494C 1.91807 2.03543 1.73506 2.42145 1.53541 2.79069C 1.50214 2.87461 1.46886 2.95853 1.33577 2.8914C 1.20267 2.82426 1.26922 2.75713 1.31913 2.67321C 1.51877 2.2704 1.73506 1.86759 1.93471 1.46478C 1.98462 1.34729 2.03453 1.2298 2.0678 1.1291C 2.15099 0.894127 2.0678 0.709505 1.86816 0.575234C 1.66851 0.440964 1.45223 0.424182 1.25258 0.558452C 1.05294 0.692722 0.936475 0.894127 0.820015 1.09553C 0.637006 1.44799 0.454 1.81723 0.270991 2.16969C 0.237717 2.23683 0.221079 2.32075 0.0879819 2.2704C -0.028478 2.20326 -0.0118389 2.13613 0.0380726 2.05221C 0.354178 1.43121 0.670281 0.810208 0.986386 0.205992C 1.01966 0.122073 1.00303 -0.0625501 1.20267 0.0213688C 1.41895 0.088504 1.23595 0.189208 1.26922 0.28991Z" transform="translate(71.6133 45.2129)" fill="#59595B"/>
</g>
<g id="Vector_22">
<path d="M 1.45596 0.0260154C 0.707293 -0.125039 0.0917168 0.395258 0.00853112 1.23445C -0.0746546 1.98972 0.457736 2.61072 1.28959 2.6275C 1.57242 2.6275 1.88853 2.51002 2.13808 2.22469C 2.18799 2.17434 2.30446 2.12399 2.20464 2.0065C 2.10481 1.9058 2.03826 1.95615 1.97171 2.05685C 1.95507 2.07364 1.93844 2.09042 1.9218 2.10721C 1.62233 2.39253 1.27296 2.47645 0.873664 2.32539C 0.474373 2.17434 0.291362 1.85545 0.258088 1.45264C 0.241451 1.30158 0.274726 1.25123 0.441098 1.26802C 1.0234 1.33515 1.6057 1.40229 2.20464 1.46942C 2.30446 1.48621 2.40428 1.51977 2.42092 1.33515C 2.45419 0.697368 2.0549 0.126718 1.45596 0.0260154ZM 1.98835 1.1841C 1.4726 1.11696 0.956848 1.06661 0.42446 1.01626C 0.291362 0.999477 0.274724 0.949125 0.324636 0.848423C 0.441096 0.512747 0.857024 0.227421 1.23968 0.244205C 1.65561 0.244205 2.07154 0.596666 2.15472 1.01626C 2.17136 1.13375 2.188 1.21767 1.98835 1.1841Z" transform="translate(78.0977 47.3594)" fill="#5A595B"/>
</g>
<g id="Vector_23">
<path d="M 1.42097 2.77244C 1.10487 2.75565 0.855309 2.63817 0.722212 2.35284C 0.489293 1.84933 0.256371 1.34581 0.0234507 0.8423C -0.0264607 0.741598 0.00681764 0.691245 0.0900033 0.657678C 0.189826 0.607326 0.223094 0.674461 0.239731 0.741597C 0.406103 1.09406 0.555841 1.44652 0.722212 1.79898C 0.788761 1.93325 0.855307 2.0843 0.938493 2.21857C 1.15478 2.55425 1.38769 2.62138 1.73707 2.45354C 2.06982 2.2857 2.20291 2.05073 2.06982 1.68149C 1.88681 1.19476 1.65389 0.724814 1.45424 0.254868C 1.42097 0.170949 1.32115 0.0870283 1.47088 0.0198932C 1.62062 -0.047242 1.63726 0.070245 1.67053 0.154164C 1.87018 0.590542 2.05318 1.02692 2.26946 1.4633C 2.65212 2.23535 1.98664 2.75565 1.42097 2.77244Z" transform="translate(87.7324 45.7715)" fill="#5A5A5C"/>
</g>
<g id="Vector_24">
<path d="M 0.861811 2.3168C 0.312785 2.3168 -0.11978 1.76293 0.0299537 1.22585C 0.0465909 1.14193 0.0299537 1.00766 0.196325 1.04123C 0.346059 1.0748 0.312785 1.1755 0.279511 1.29299C 0.196325 1.5951 0.296149 1.86364 0.545706 1.99791C 0.745352 2.11539 1.01154 2.08183 1.17792 1.93077C 1.36092 1.76293 1.36092 1.57831 1.2611 1.36012C 1.19455 1.19228 1.09473 1.02445 1.02818 0.839825C 0.911722 0.50415 1.01155 0.218824 1.29438 0.0677701C 1.54393 -0.0665002 1.90995 0.000635969 2.1096 0.252393C 2.22606 0.403447 2.2926 0.571285 2.27597 0.755906C 2.27597 0.823042 2.2926 0.923743 2.17614 0.90696C 2.09296 0.890176 2.02641 0.873393 2.04305 0.755906C 2.05969 0.621636 2.00977 0.487364 1.92659 0.386661C 1.77685 0.235607 1.59384 0.202041 1.41083 0.28596C 1.22783 0.386663 1.21119 0.571284 1.27774 0.739122C 1.34429 0.940527 1.46075 1.10836 1.5273 1.30977C 1.72694 1.83007 1.3942 2.3168 0.861811 2.3168Z" transform="translate(69.9395 44.1758)" fill="#5A5A5C"/>
</g>
<g id="Vector_25">
<path d="M 0.0151399 4.23614C 0.214786 3.31303 0.414432 2.38992 0.614078 1.4836C 0.713901 1.04722 0.813721 0.594058 0.913544 0.157679C 0.930181 0.0737605 0.946819 -0.0269412 1.07992 0.00662634C 1.22965 0.0401939 1.17974 0.140896 1.14646 0.208031C 0.863632 1.53395 0.564166 2.87665 0.281335 4.20257C 0.264698 4.28649 0.281335 4.42076 0.114964 4.37041C -0.00149623 4.35363 -0.0181344 4.30328 0.0151399 4.23614Z" transform="translate(76.9434 45.1777)" fill="#5A5A5C"/>
</g>
<g id="Vector_26">
<path d="M 0.141755 2.42973C 0.0419319 2.41294 -0.0246197 2.39616 0.00865461 2.26189C 0.224937 1.54019 0.441223 0.818486 0.640869 0.0967827C 0.674143 0.0128637 0.690779 -0.0207039 0.790602 0.0128637C 0.890425 0.0464313 0.907062 0.0967827 0.873788 0.180702C 0.657505 0.902405 0.457856 1.62411 0.241574 2.34581C 0.224936 2.39616 0.208303 2.44651 0.141755 2.42973Z" transform="translate(75.668 46.7988)" fill="#5C5B5D"/>
</g>
<g id="Vector_27">
<path d="M 0.435052 0.237092C 0.401749 0.388146 0.335143 0.455279 0.201931 0.455279C 0.0687177 0.438495 -0.0145423 0.354577 0.00210927 0.220307C 0.00210927 0.069253 0.102019 -0.0146665 0.251883 0.0021173C 0.368445 0.0189011 0.4184 0.119605 0.435052 0.237092Z" transform="translate(76.4922 45.7852)" fill="#605F61"/>
</g>
</g>
</g>
<g id="Group_10">
<g id="Group_11">
<g id="Vector_28">
<path d="M 10.4564 8.35833C 6.67981 11.413 2.5538 11.7151 0.823536 10.4731C -0.224603 9.71781 -0.374334 8.3919 0.973274 6.76387C 4.55026 2.43365 9.2752 -1.0244e-06 9.2752 -1.0244e-06C 9.2752 -1.0244e-06 10.5895 0.637786 11.621 1.72873C 13.0352 3.20571 13.9336 5.53865 10.4564 8.35833Z" transform="translate(100.457 63.2793)" fill="#FF8B6C"/>
</g>
</g>
<g id="Vector_29">
<path d="M 9.63291 6.6296C 5.85627 9.68425 1.73026 9.98635 -2.0309e-06 8.74435C 5.15751 9.71781 8.83432 6.14287 10.1986 4.11203C 11.097 2.78611 10.9805 1.0406 10.7975 2.0488e-06C 12.2117 1.47698 13.1101 3.80992 9.63291 6.6296Z" transform="translate(101.281 65.0078)" fill="url(#paint4_linear)"/>
</g>
</g>
<g id="Group_12">
<g id="Group_13">
<g id="Vector_30">
<path d="M 10.4564 8.35833C 6.67981 11.413 2.5538 11.7151 0.823536 10.4731C -0.224603 9.71781 -0.374334 8.39189 0.973274 6.76387C 4.55026 2.43365 9.2752 2.0488e-06 9.2752 2.0488e-06C 9.2752 2.0488e-06 10.5895 0.637784 11.621 1.72873C 13.0352 3.22249 13.9336 5.55543 10.4564 8.35833Z" transform="translate(100.457 72.8965)" fill="#FF8B6C"/>
</g>
</g>
<g id="Vector_31">
<path d="M 9.63291 6.6296C 5.85627 9.68425 1.73026 9.98635 -2.0309e-06 8.74435C 5.15751 9.71781 8.83432 6.14287 10.1986 4.11203C 11.097 2.78611 10.9805 1.04059 10.7975 0C 12.2117 1.49376 13.1101 3.8267 9.63291 6.6296Z" transform="translate(101.281 74.623)" fill="url(#paint5_linear)"/>
</g>
</g>
<g id="Group_14">
<g id="Vector_32">
<path d="M 34.8519 11.6534C 30.8756 19.8271 27.3319 21.5894 26.9659 28.8232C 26.5999 36.057 33.1383 49.7022 20.91 56.9192C 19.5457 57.7249 18.1648 58.2451 16.8172 58.5305C 6.01972 60.7459 -3.62981 47.2182 1.34469 33.0191C 3.80699 25.9867 8.59848 21.2369 14.0388 16.7892C 15.5029 15.5975 17.0002 14.4227 18.5142 13.2478C 23.1227 9.65608 27.8809 5.9133 31.8738 0.945296C 33.2381 -0.749867 35.9333 -0.0449483 36.3159 2.10338C 36.7485 4.62094 36.6653 7.92735 34.8519 11.6534Z" transform="translate(38.2969 60.3359)" fill="#FF8B6C"/>
</g>
<g id="Vector_33" opacity="0.54">
<path d="M 16.8172 41.7413C 6.01973 43.9567 -3.62981 30.429 1.34469 16.2299C 3.80699 9.19752 8.59848 4.4477 14.0388 0C 11.5266 2.3833 8.56521 5.94146 6.91813 10.5234C 3.67389 19.5699 4.45584 36.2866 16.8172 41.7413Z" transform="translate(38.2793 77.1406)" fill="url(#paint6_linear)"/>
</g>
</g>
</g>
</g>
</g>
</g>
</g>
<defs>

<linearGradient id="paint0_linear" x2="1" gradientUnits="userSpaceOnUse" gradientTransform="translate(17.0818 -4.15991) scale(-17.0813 17.2318)">
<stop stop-color="#E26850"/>
<stop offset="1" stop-color="#E26850" stop-opacity="0"/>
</linearGradient>
<linearGradient id="paint1_linear" x2="1" gradientUnits="userSpaceOnUse" gradientTransform="matrix(16.7702 -3.13954 3.11211 16.918 0.6111 -2.41165)">
<stop stop-color="#E26850"/>
<stop offset="1" stop-color="#E26850" stop-opacity="0"/>
</linearGradient>
<linearGradient id="paint2_linear" x2="1" gradientUnits="userSpaceOnUse" gradientTransform="matrix(13.8157 2.20274 -2.18349 13.9375 1.34387 -3.97277)">
<stop stop-color="#E26850"/>
<stop offset="1" stop-color="#E26850" stop-opacity="0"/>
</linearGradient>
<linearGradient id="paint3_linear" x2="1" gradientUnits="userSpaceOnUse" gradientTransform="translate(68.8979 62.9534) scale(-33.5689 -33.8648)">
<stop stop-color="#718F2E"/>
<stop offset="0.2723" stop-color="#769630"/>
<stop offset="0.6694" stop-color="#85AA36"/>
<stop offset="1" stop-color="#96BF3D"/>
</linearGradient>
<linearGradient id="paint4_linear" x2="1" gradientUnits="userSpaceOnUse" gradientTransform="matrix(-5.05767 -4.22614 4.18921 -5.10225 10.4198 12.8551)">
<stop stop-color="#E26850"/>
<stop offset="1" stop-color="#E26850" stop-opacity="0"/>
</linearGradient>
<linearGradient id="paint5_linear" x2="1" gradientUnits="userSpaceOnUse" gradientTransform="matrix(-5.05767 -4.22614 4.18921 -5.10225 10.4198 12.8627)">
<stop stop-color="#E26850"/>
<stop offset="1" stop-color="#E26850" stop-opacity="0"/>
</linearGradient>
<linearGradient id="paint6_linear" x2="1" gradientUnits="userSpaceOnUse" gradientTransform="matrix(14.0167 11.7371 -11.6345 14.1402 3.33294 1.71587)">
<stop stop-color="#E26850"/>
<stop offset="1" stop-color="#E26850" stop-opacity="0"/>
</linearGradient>

</defs>
</svg>

