<svg width="48" height="32" viewBox="0 0 48 32" version="1.1" xmlns="http://www.w3.org/2000/svg" xmlns:xlink="http://www.w3.org/1999/xlink">
<g id="Canvas" fill="none">
<g id="if_visa_payment_methods_295710">
<g id="Vector">
<path d="M 48 30.4562C 48 31.3089 47.3074 32 46.4526 32L 1.54702 32C 0.692941 32 -8.71917e-09 31.3093 -8.71917e-09 30.4562L -8.71917e-09 1.54378C -8.71917e-09 0.691107 0.69256 4.06041e-08 1.54702 4.06041e-08L 46.4526 4.06041e-08C 47.3071 4.06041e-08 48 0.691107 48 1.54378L 48 30.4562Z" fill="#808080"/>
</g>
<g id="Group">
<g id="Vector_2">
<path fill-rule="evenodd" clip-rule="evenodd" d="M 7.18501 -5.33653e-07C 7.58005 0.0741281 7.97624 0.144076 8.37051 0.222766C 8.67565 0.28359 9.06117 0.291573 9.23907 0.502934C 9.42917 0.728742 9.20898 1.0876 9.16784 1.38716C 9.10765 1.82775 9.00974 2.26377 8.9507 2.70512C 8.92213 2.91459 8.88175 2.95678 8.66804 2.86555C 7.74081 2.47057 6.77283 2.31129 5.76637 2.44092C 5.43532 2.4835 5.11952 2.57549 4.85019 2.78153C 4.41401 3.11492 4.39077 3.57224 4.79457 3.9444C 5.14124 4.26411 5.56866 4.45798 5.98579 4.66326C 6.55188 4.94077 7.1252 5.20459 7.62843 5.59272C 9.05584 6.69325 9.29774 8.46891 8.21166 9.91461C 7.52405 10.8289 6.56026 11.2976 5.4799 11.5671C 5.10276 11.6614 4.71876 11.7184 4.33172 11.7553C 4.26849 11.7621 4.19153 11.7367 4.15154 11.8157C 4.11268 11.8157 4.07382 11.8157 4.03458 11.8157C 3.85973 11.7705 3.6845 11.7705 3.51002 11.8157C 3.45174 11.8157 3.39269 11.8157 3.33479 11.8157C 3.17936 11.7682 3.02355 11.7682 2.86775 11.8157C 2.82889 11.8157 2.79003 11.8157 2.7508 11.8157C 2.29671 11.6819 1.81862 11.6914 1.35844 11.5873C 0.960348 11.4975 0.563783 11.4055 0.178646 11.2698C 0.0354102 11.22 -0.0202079 11.1417 0.00645839 10.9889C 0.132171 10.2727 0.253693 9.55613 0.371405 8.83955C 0.410262 8.6031 0.541689 8.68902 0.663972 8.74604C 1.5371 9.15584 2.45175 9.38735 3.41745 9.41662C 3.93706 9.43258 4.44867 9.39875 4.92943 9.18017C 5.75608 8.8042 5.84103 8.04581 5.11876 7.50448C 4.71915 7.2053 4.26049 7.01295 3.81478 6.79855C 3.33212 6.56666 2.87346 6.29751 2.44642 5.97211C 0.816732 4.73321 1.08377 2.93169 1.97138 1.81254C 2.61289 1.00359 3.48717 0.559957 4.46087 0.285491C 4.84524 0.177149 5.23761 0.112904 5.63342 0.0642452C 5.70465 0.0551217 5.7938 0.0874332 5.84294 -5.33653e-07C 5.8616 -5.33653e-07 5.88141 -5.33653e-07 5.90084 -5.33653e-07C 6.09512 0.0475178 6.28979 0.0475178 6.48369 -5.33653e-07C 6.52293 -5.33653e-07 6.56178 -5.33653e-07 6.60064 -5.33653e-07C 6.77549 0.0456171 6.95073 0.0456171 7.12558 -5.33653e-07C 7.14577 -5.33653e-07 7.1652 -5.33653e-07 7.18501 -5.33653e-07Z" transform="translate(22.8262 9.46875)" fill="white"/>
</g>
<g id="Vector_3">
<path fill-rule="evenodd" clip-rule="evenodd" d="M 1.27881e-07 0.00570695C 1.72607 0.0053268 3.45214 -0.0087374 5.17782 0.00874935C 5.94276 0.0163523 6.35342 0.37179 6.50732 1.09635C 6.84675 2.69373 7.17589 4.29262 7.50807 5.89152C 7.51759 5.9379 7.51264 5.9877 7.51493 6.0356C 7.31493 6.03103 7.27417 5.85997 7.21017 5.72768C 6.90846 5.1088 6.55304 4.52375 6.11495 3.99193C 5.44639 3.18031 4.66316 2.49643 3.76794 1.94408C 3.57594 1.82509 3.40909 1.6871 3.28338 1.50083C 2.25482 0.908937 1.15274 0.510163 0.000380865 0.238738C -8.13786e-08 0.160808 1.27881e-07 0.083637 1.27881e-07 0.00570695Z" transform="translate(4.1709 9.69531)" fill="white"/>
</g>
<g id="Vector_4">
<path fill-rule="evenodd" clip-rule="evenodd" d="M 0.582848 -5.33653e-07C 0.388946 0.089334 0.193902 0.089334 3.95269e-07 -5.33653e-07C 0.193902 -5.33653e-07 0.388946 -5.33653e-07 0.582848 -5.33653e-07Z" transform="translate(28.7285 9.46875)" fill="white"/>
</g>
<g id="Vector_5">
<path fill-rule="evenodd" clip-rule="evenodd" d="M 0.524943 -5.33653e-07C 0.350089 0.0897141 0.174854 0.0897141 -3.72018e-07 -5.33653e-07C 0.174854 -5.33653e-07 0.350089 -5.33653e-07 0.524943 -5.33653e-07Z" transform="translate(29.4277 9.46875)" fill="white"/>
</g>
<g id="Vector_6">
<path fill-rule="evenodd" clip-rule="evenodd" d="M 4.41771e-07 0.0675706C 0.174474 -0.0225242 0.349709 -0.0225242 0.524563 0.0675706C 0.349709 0.0675706 0.174474 0.0675706 4.41771e-07 0.0675706Z" transform="translate(26.3369 21.2168)" fill="white"/>
</g>
<g id="Vector_7">
<path fill-rule="evenodd" clip-rule="evenodd" d="M 1.37182e-06 0.0652897C 0.155427 -0.0217639 0.311234 -0.0217639 0.467041 0.0652897C 0.311234 0.0652897 0.155427 0.0652897 1.37182e-06 0.0652897Z" transform="translate(25.6943 21.2207)" fill="white"/>
</g>
<g id="Vector_8">
<path fill-rule="evenodd" clip-rule="evenodd" d="M 1.39507e-07 1.50811C 1.8354 2.5155 3.25023 3.92204 4.12908 5.83798C 4.1607 5.90755 4.19765 5.97484 4.23193 6.04288C 4.35574 6.58915 4.47917 7.13543 4.60793 7.70299C 4.71002 7.61441 4.72564 7.49732 4.76488 7.39811C 5.70086 5.01687 6.63647 2.63601 7.56407 0.252107C 7.63493 0.0707771 7.71912 -0.00259201 7.92064 6.90205e-05C 8.84367 0.0107131 9.76708 0.00957372 10.6897 0.000830347C 10.9095 -0.00107039 10.9568 0.0415053 10.8642 0.255528C 9.29128 3.89391 7.72293 7.53458 6.15838 11.1768C 6.09057 11.3349 5.99991 11.3923 5.83 11.3908C 4.88716 11.3843 3.9447 11.3828 3.00224 11.3923C 2.80643 11.3946 2.73443 11.3129 2.68605 11.1388C 1.79311 7.92841 0.895986 4.71845 1.39507e-07 1.50811Z" transform="translate(7.4541 9.6875)" fill="white"/>
</g>
<g id="Vector_9">
<path fill-rule="evenodd" clip-rule="evenodd" d="M 1.54517 11.4149C 1.11736 11.4149 0.689179 11.4058 0.262138 11.4188C 0.0419514 11.426 -0.0296665 11.3678 0.0107138 11.1371C 0.346709 9.20934 0.672799 7.27933 1.0027 5.34933C 1.28879 3.67782 1.58174 2.00708 1.85678 0.33405C 1.89754 0.0861941 1.97487 -0.00580077 2.23887 0.000281583C 3.07428 0.0181485 3.91046 0.0120661 4.74626 0.0029426C 4.95921 0.000661718 5.03349 0.039816 4.99235 0.278928C 4.36912 3.88918 3.75389 7.5002 3.144 11.1124C 3.10438 11.3473 3.01867 11.4362 2.76953 11.4218C 2.36268 11.3978 1.95354 11.4149 1.54517 11.4149Z" transform="translate(17.7637 9.68555)" fill="white"/>
</g>
<g id="Group_2">
<g id="Group_3">
<g id="Vector_10">
<path fill-rule="evenodd" clip-rule="evenodd" d="M 11.014 9.8945C 10.4856 7.51022 9.95264 5.12632 9.43074 2.74052C 9.26275 1.97338 9.09589 1.20624 8.91494 0.442149C 8.82047 0.0445153 8.76028 0.00345828 8.36066 0.00345828C 7.63191 0.00345828 6.90278 0.0133423 6.17441 0.000417326C 5.38623 -0.0136481 4.83196 0.327344 4.51882 1.04468C 3.99959 2.2353 3.46512 3.42022 2.94246 4.60894C 2.23619 6.21506 1.52115 7.81662 0.814878 9.42312C 0.552787 10.0173 0.262126 10.5997 0.0407963 11.2102C -0.0624402 11.4949 0.0289882 11.6139 0.329555 11.6147C 1.25297 11.6169 2.176 11.6101 3.09941 11.6192C 3.31884 11.6219 3.43846 11.5314 3.52036 11.3394C 3.67045 10.9916 3.80455 10.6381 3.92759 10.2811C 4.01635 10.0215 4.17292 9.91427 4.44568 9.91541C 5.44643 9.92149 6.44717 9.91465 7.44792 9.91921C 7.79953 9.92111 7.85896 9.97547 7.93553 10.3244C 8.00791 10.6563 8.07991 10.9878 8.16029 11.317C 8.21172 11.5284 8.31685 11.6226 8.54542 11.6192C 9.34236 11.6097 10.1393 11.6154 10.9359 11.6158C 11.0433 11.6158 11.1519 11.6261 11.2296 11.5284C 11.2296 11.4896 11.2296 11.4508 11.2296 11.412C 11.1343 10.9095 11.1248 10.3971 11.014 9.8945ZM 7.18925 7.46726C 6.49974 7.45624 5.81099 7.45624 5.12186 7.46726C 4.90281 7.4703 4.88415 7.4034 4.95691 7.21941C 5.31462 6.31998 5.66356 5.41751 6.0148 4.51542C 6.16717 4.12235 6.31689 3.72852 6.46774 3.33507C 6.49403 3.33925 6.52069 3.34305 6.54698 3.34685C 6.7645 4.33827 6.98316 5.32932 7.19954 6.32074C 7.26392 6.61383 7.31306 6.91073 7.39306 7.19926C 7.4502 7.4034 7.41249 7.47068 7.18925 7.46726Z" transform="translate(31.4395 9.58203)" fill="white"/>
</g>
</g>
</g>
</g>
</g>
</g>
</svg>

