<svg width="25" height="25" viewBox="0 0 25 25" version="1.1" xmlns="http://www.w3.org/2000/svg" xmlns:xlink="http://www.w3.org/1999/xlink">
<title>Group 2</title>
<desc>Created using Figma</desc>
<g id="Canvas" transform="translate(-4766 -8121)">
<g id="Group 2">
<g id="Vector">
<use xlink:href="#path0_fill" transform="translate(4766 8121)" fill="#D42626"/>
</g>
<g id="&#239;&#133;&#167;">
<use xlink:href="#path1_fill" transform="translate(4766 8108)" fill="#FFFFFF"/>
</g>
</g>
</g>
<defs>
<path id="path0_fill" d="M 12.5 0C 19.4039 0 25 5.59687 25 12.5C 25 19.404 19.4039 25 12.5 25C 5.59601 25 0 19.4039 0 12.5C 0 5.59687 5.5961 0 12.5 0Z"/>
<path id="path1_fill" d="M 14.084 27.7187C 14.084 27.375 13.9824 27.1953 13.7793 27.1953C 13.6621 27.1953 13.5449 27.25 13.4277 27.3672L 13.4277 29.7188C 13.5449 29.8359 13.6621 29.8906 13.7793 29.8906C 13.9824 29.8906 14.084 29.7188 14.084 29.3672L 14.084 27.7187ZM 16.7246 27.7266C 16.7246 27.375 16.6074 27.1953 16.373 27.1953C 16.1387 27.1953 16.0215 27.375 16.0215 27.7266L 16.0215 28.0859L 16.7246 28.0859L 16.7246 27.7266ZM 9.17773 26.0234L 9.17773 30.4687L 8.39648 30.4687L 8.39648 26.0234L 7.57617 26.0234L 7.57617 25.2891L 10.0137 25.2891L 10.0137 26.0234L 9.17773 26.0234ZM 11.4277 30.4687L 11.4277 30.0469C 11.1465 30.3672 10.8809 30.5234 10.6309 30.5234C 10.4043 30.5234 10.2402 30.4297 10.1777 30.2344C 10.1387 30.1172 10.1152 29.9375 10.1152 29.6641L 10.1152 26.6094L 10.8105 26.6094L 10.8105 29.4531C 10.8105 29.6172 10.8105 29.7031 10.8184 29.7266C 10.834 29.8359 10.8887 29.8906 10.9824 29.8906C 11.123 29.8906 11.2715 29.7812 11.4277 29.5625L 11.4277 26.6094L 12.123 26.6094L 12.123 30.4687L 11.4277 30.4687ZM 14.7793 29.3125C 14.7793 29.6719 14.7637 29.9297 14.709 30.0938C 14.623 30.375 14.4277 30.5234 14.1543 30.5234C 13.9043 30.5234 13.6621 30.3828 13.4277 30.0938L 13.4277 30.4687L 12.7324 30.4687L 12.7324 25.2891L 13.4277 25.2891L 13.4277 26.9844C 13.6543 26.7031 13.8965 26.5625 14.1543 26.5625C 14.4277 26.5625 14.623 26.7109 14.709 27C 14.7637 27.1562 14.7793 27.4141 14.7793 27.7734L 14.7793 29.3125ZM 17.4199 29.2344C 17.4199 29.4609 17.4199 29.6172 17.4043 29.6875C 17.3887 29.8437 17.3262 29.9844 17.2402 30.1094C 17.0527 30.3828 16.7637 30.5234 16.3965 30.5234C 16.0293 30.5234 15.7559 30.3906 15.5527 30.125C 15.4043 29.9375 15.3262 29.6328 15.3262 29.2188L 15.3262 27.8672C 15.3262 27.4531 15.3965 27.1562 15.5449 26.9609C 15.748 26.6953 16.0215 26.5625 16.3809 26.5625C 16.7324 26.5625 17.0059 26.6953 17.209 26.9609C 17.3496 27.1562 17.4199 27.4531 17.4199 27.8672L 17.4199 28.6719L 16.0215 28.6719L 16.0215 29.3516C 16.0215 29.7109 16.1387 29.8906 16.3809 29.8906C 16.5527 29.8906 16.6543 29.7969 16.6934 29.6094C 16.7012 29.5703 16.709 29.4141 16.709 29.1328L 17.4199 29.1328L 17.4199 29.2344ZM 12.6699 22.1016C 12.6699 22.4609 12.5684 22.6484 12.334 22.6484C 12.1074 22.6484 11.998 22.4609 11.998 22.1016L 11.998 20.4609C 11.998 20.1016 12.1074 19.9219 12.334 19.9219C 12.5684 19.9219 12.6699 20.1016 12.6699 20.4609L 12.6699 22.1016ZM 18.2871 27.9688C 18.2871 27.0625 18.2871 26.1094 18.084 25.2344C 17.9434 24.6172 17.4355 24.1641 16.834 24.0938C 15.3965 23.9375 13.9434 23.9375 12.498 23.9375C 11.0527 23.9375 9.59961 23.9375 8.16992 24.0938C 7.56055 24.1641 7.06055 24.6172 6.91211 25.2344C 6.7168 26.1094 6.70898 27.0625 6.70898 27.9688C 6.70898 28.8672 6.70898 29.8281 6.91211 30.7031C 7.05273 31.3203 7.56055 31.7734 8.16211 31.8359C 9.59961 32 11.0527 32 12.498 32C 13.9434 32 15.3965 32 16.834 31.8359C 17.4355 31.7734 17.9355 31.3203 18.084 30.7031C 18.2793 29.8281 18.2871 28.8672 18.2871 27.9688ZM 10.4902 18L 9.95898 20.0547L 9.4043 18L 8.57617 18C 8.74023 18.4844 8.91211 18.9766 9.08398 19.4609C 9.33398 20.1875 9.49023 20.7344 9.56055 21.1172L 9.56055 23.2344L 10.3418 23.2344L 10.3418 21.1172L 11.2871 18L 10.4902 18ZM 13.3809 20.6016C 13.3809 20.1875 13.3105 19.8828 13.1621 19.6875C 12.9668 19.4219 12.6934 19.2891 12.334 19.2891C 11.9824 19.2891 11.709 19.4219 11.5137 19.6875C 11.3652 19.8828 11.2949 20.1875 11.2949 20.6016L 11.2949 21.9687C 11.2949 22.3828 11.3652 22.6875 11.5137 22.8906C 11.709 23.1562 11.9824 23.2891 12.334 23.2891C 12.6934 23.2891 12.9668 23.1562 13.1621 22.8906C 13.3105 22.6953 13.3809 22.3828 13.3809 21.9687L 13.3809 20.6016ZM 15.998 19.3359L 15.2871 19.3359L 15.2871 22.3125C 15.1309 22.5391 14.9824 22.6484 14.8418 22.6484C 14.748 22.6484 14.6934 22.5859 14.6777 22.4766C 14.6699 22.4609 14.6699 22.3672 14.6699 22.2031L 14.6699 19.3359L 13.959 19.3359L 13.959 22.4141C 13.959 22.6953 13.9824 22.8828 14.0215 23C 14.0918 23.1953 14.2559 23.2891 14.4824 23.2891C 14.7402 23.2891 15.0059 23.1328 15.2871 22.8047L 15.2871 23.2344L 15.998 23.2344L 15.998 19.3359Z"/>
</defs>
</svg>
