<svg width="27" height="22" viewBox="0 0 27 22" version="1.1" xmlns="http://www.w3.org/2000/svg" xmlns:xlink="http://www.w3.org/1999/xlink">
<g id="Canvas" fill="none">
<g id="Group">
<g id="Vector">
<path d="M 25 16.0259C 25 16.5412 24.7062 16.8693 24.1948 16.8693L 1.04674 16.8693C 0.535326 16.8693 0 16.5412 0 16.0259L 0 0.933315C 0 0.417944 0.535326 0 1.04674 0L 24.1948 0C 24.7062 0 25 0.417944 25 0.933315L 25 16.0259Z" stroke-width="1.2" stroke-miterlimit="10" stroke-linecap="round" stroke-linejoin="round" transform="translate(1 3.94141)" stroke="#BDBDBD"/>
</g>
<g id="Vector_2">
<path d="M 1.25314e-07 -4.39453e-06L 22.7779 -4.39453e-06" stroke-width="1.2" stroke-miterlimit="10" stroke-linecap="round" stroke-linejoin="round" transform="translate(2.10938 9.02344)" stroke="#BDBDBD"/>
</g>
<g id="Vector_3">
<path d="M 3.46456e-07 1.92848L 3.46456e-07 0.933132C 3.46456e-07 0.417822 0.414554 -1.64143e-07 0.925967 -1.64143e-07L 7.96304 -1.64143e-07C 8.4744 -1.64143e-07 8.88895 0.417822 8.88895 0.933132L 8.88895 1.92848" stroke-width="1.2" stroke-miterlimit="10" stroke-linecap="round" stroke-linejoin="round" transform="translate(9.67188 1)" stroke="#BDBDBD"/>
</g>
<g id="Vector_4">
<path d="M 2.22222 -2.68597e-07C 2.22222 0.618481 1.72464 1.11973 1.11111 1.11973C 0.497403 1.11973 3.6857e-07 0.618481 3.6857e-07 -2.68597e-07" stroke-width="1.2" stroke-miterlimit="10" stroke-linecap="round" stroke-linejoin="round" transform="translate(12.3867 10.123)" stroke="#BDBDBD"/>
</g>
</g>
</g>
</svg>

