<svg width="30" height="30" viewBox="0 0 30 30" version="1.1" xmlns="http://www.w3.org/2000/svg" xmlns:xlink="http://www.w3.org/1999/xlink">
<g id="Canvas" fill="none">
<g id="X">
<g id="Rectangle">
<rect x="0.35" y="0.35" width="29.3" height="29.3" rx="14.65" stroke-width="0.7" stroke="#BDBDBD"/>
</g>
<g id="if_Box_1872928">
<g id="Group">
<g id="Vector">
<path d="M 16.5952 0L 0.404762 0C 0.175397 0 0 0.172449 0 0.397959L 0 2.12245C 0 2.2949 0.107937 2.44082 0.269841 2.49388L 0.269841 12.602C 0.269841 12.8276 0.445238 13 0.674603 13L 16.3254 13C 16.5548 13 16.7302 12.8276 16.7302 12.602L 16.7302 2.49388C 16.8921 2.44082 17 2.2949 17 2.12245L 17 0.397959C 17 0.172449 16.8246 0 16.5952 0ZM 0.269841 0.397959C 0.269841 0.318367 0.32381 0.265306 0.404762 0.265306L 11.6032 0.265306L 11.6032 2.2551L 0.404762 2.2551C 0.32381 2.2551 0.269841 2.20204 0.269841 2.12245L 0.269841 0.397959ZM 0.539683 12.602L 0.539683 2.52041L 11.6032 2.52041L 11.6032 12.7347L 0.674603 12.7347C 0.593651 12.7347 0.539683 12.6816 0.539683 12.602ZM 16.4603 12.602C 16.4603 12.6816 16.4063 12.7347 16.3254 12.7347L 11.873 12.7347L 11.873 2.52041L 16.4603 2.52041L 16.4603 12.602ZM 16.7302 2.12245C 16.7302 2.20204 16.6762 2.2551 16.5952 2.2551L 11.873 2.2551L 11.873 0.265306L 16.5952 0.265306C 16.6762 0.265306 16.7302 0.318367 16.7302 0.397959L 16.7302 2.12245Z" transform="translate(7 9)" fill="#BDBDBD"/>
<path d="M 16.5952 0L 0.404762 0C 0.175397 0 0 0.172449 0 0.397959L 0 2.12245C 0 2.2949 0.107937 2.44082 0.269841 2.49388L 0.269841 12.602C 0.269841 12.8276 0.445238 13 0.674603 13L 16.3254 13C 16.5548 13 16.7302 12.8276 16.7302 12.602L 16.7302 2.49388C 16.8921 2.44082 17 2.2949 17 2.12245L 17 0.397959C 17 0.172449 16.8246 0 16.5952 0ZM 0.269841 0.397959C 0.269841 0.318367 0.32381 0.265306 0.404762 0.265306L 11.6032 0.265306L 11.6032 2.2551L 0.404762 2.2551C 0.32381 2.2551 0.269841 2.20204 0.269841 2.12245L 0.269841 0.397959ZM 0.539683 12.602L 0.539683 2.52041L 11.6032 2.52041L 11.6032 12.7347L 0.674603 12.7347C 0.593651 12.7347 0.539683 12.6816 0.539683 12.602ZM 16.4603 12.602C 16.4603 12.6816 16.4064 12.7347 16.3254 12.7347L 11.873 12.7347L 11.873 2.52041L 16.4603 2.52041L 16.4603 12.602ZM 16.7302 2.12245C 16.7302 2.20204 16.6762 2.2551 16.5952 2.2551L 11.873 2.2551L 11.873 0.265306L 16.5952 0.265306C 16.6762 0.265306 16.7302 0.318367 16.7302 0.397959L 16.7302 2.12245Z" stroke-width="0.3" transform="translate(7 9)" stroke="#BDBDBD"/>
</g>
<g id="Vector_2">
<path d="M 0.404762 1.32653L 2.83333 1.32653C 3.0627 1.32653 3.2381 1.15408 3.2381 0.928571L 3.2381 0.397959C 3.2381 0.172449 3.0627 0 2.83333 0L 0.404762 0C 0.175397 0 0 0.172449 0 0.397959L 0 0.928571C 0 1.15408 0.175397 1.32653 0.404762 1.32653ZM 0.269841 0.397959C 0.269841 0.318367 0.32381 0.265306 0.404762 0.265306L 2.83333 0.265306C 2.91429 0.265306 2.96825 0.318367 2.96825 0.397959L 2.96825 0.928571C 2.96825 1.00816 2.91429 1.06122 2.83333 1.06122L 0.404762 1.06122C 0.32381 1.06122 0.269841 1.00816 0.269841 0.928571L 0.269841 0.397959Z" transform="translate(19.5469 12.4492)" fill="#BDBDBD"/>
<path d="M 0.404762 1.32653L 2.83333 1.32653C 3.0627 1.32653 3.2381 1.15408 3.2381 0.928572L 3.2381 0.397959C 3.2381 0.172449 3.0627 0 2.83333 0L 0.404762 0C 0.175397 0 0 0.172449 0 0.397959L 0 0.928572C 0 1.15408 0.175397 1.32653 0.404762 1.32653ZM 0.269841 0.397959C 0.269841 0.318367 0.32381 0.265306 0.404762 0.265306L 2.83333 0.265306C 2.91429 0.265306 2.96825 0.318367 2.96825 0.397959L 2.96825 0.928572C 2.96825 1.00816 2.91429 1.06122 2.83333 1.06122L 0.404762 1.06122C 0.32381 1.06122 0.269841 1.00816 0.269841 0.928572L 0.269841 0.397959Z" stroke-width="0.3" transform="translate(19.5469 12.4492)" stroke="#BDBDBD"/>
</g>
</g>
</g>
</g>
</g>
</svg>

