<svg width="29" height="30" viewBox="0 0 29 30" version="1.1" xmlns="http://www.w3.org/2000/svg" xmlns:xlink="http://www.w3.org/1999/xlink">
<g id="Canvas" fill="none">
<g id="Group">
<g id="Vector">
<path d="M 14.0626 24.1453C 10.3063 24.1453 6.77307 22.6863 4.12019 20.0319C 1.4673 17.3776 -2.23893e-08 13.8561 -2.23893e-08 10.1061C -2.23893e-08 6.35602 1.46143 2.82864 4.12019 0.180178C 4.36083 -0.0600592 4.75406 -0.0600592 4.9947 0.180178C 5.23534 0.420414 5.23534 0.812996 4.9947 1.05323C 2.57072 3.47318 1.2384 6.69001 1.2384 10.1061C 1.2384 13.5221 2.57072 16.7448 4.9947 19.1589C 7.41869 21.5788 10.6409 22.9089 14.0626 22.9089C 17.4903 22.9089 20.7125 21.5788 23.1306 19.1589C 25.5546 16.7389 26.8869 13.5221 26.8869 10.1061C 26.8869 6.69001 25.5546 3.46732 23.1306 1.05323C 22.8899 0.812996 22.8899 0.420414 23.1306 0.180178C 23.3712 -0.0600592 23.7644 -0.0600592 24.0051 0.180178C 26.6638 2.8345 28.1253 6.35602 28.1253 10.1061C 28.1253 13.8561 26.6638 17.3835 24.0051 20.0319C 21.3463 22.6804 17.8189 24.1453 14.0626 24.1453Z" transform="translate(0 5.85547)" fill="#828282"/>
</g>
<g id="Vector_2">
<path d="M 0.616268 13.6525C 0.275853 13.6525 0 13.3771 0 13.0372L 0 0.61524C 0 0.275393 0.275853 0 0.616268 0C 0.956682 0 1.23254 0.275393 1.23254 0.61524L 1.23254 13.0314C 1.23254 13.3771 0.956682 13.6525 0.616268 13.6525Z" transform="translate(13.4492 0)" fill="#828282"/>
</g>
</g>
</g>
</svg>

