<svg width="130" height="42" viewBox="0 0 130 42" version="1.1" xmlns="http://www.w3.org/2000/svg" xmlns:xlink="http://www.w3.org/1999/xlink">
<g id="Canvas" fill="none">
<g id="Logo">
<g id="Vector">
<path d="M 0 4.72812C 0.288111 2.08748 2.64102 0.215021 5.7142 0.0229743C 8.0671 -0.121061 9.41162 0.407068 9.79577 1.7514C 8.88342 1.41531 8.01908 1.46333 7.10673 1.70338C 4.84987 2.23151 5.18599 1.7514 5.52212 4.05596C 6.33844 9.24122 8.8354 13.6583 12.3407 17.5472C 17.6708 23.4527 24.3454 27.3416 31.6442 30.2703C 43.4087 34.9275 55.7014 36.6079 68.3303 36.0798C 80.1908 35.5996 91.6192 33.1991 102.327 27.8698C 104.632 26.7175 106.841 25.4692 108.906 23.9328C 109.53 23.5007 109.914 23.5487 110.298 24.1248C 110.394 24.3169 110.587 24.4609 110.731 24.653C 112.171 26.3814 112.171 26.3814 110.298 27.7257C 102.039 33.6792 92.7717 37.2801 82.8799 39.2485C 66.2655 42.5133 49.9392 41.6491 33.9491 35.8877C 25.2097 32.7189 17.2866 28.1098 11.0442 21.0041C 7.34683 16.7791 4.75383 11.9779 3.84148 6.40853C 3.69742 5.4483 3.60138 4.44005 3.55337 3.47982C 3.55337 2.80765 3.40931 2.61561 2.73705 2.95169C 1.72866 3.38379 0.912351 3.95993 0 4.72812Z" transform="translate(0 0.861328)" fill="#96BF3D"/>
</g>
<g id="Vector_2">
<path d="M 8.0685 1.50821C 9.22094 -0.0761725 11.3818 -0.412254 13.8307 0.499968C 16.3277 1.4602 17.8643 3.18862 17.6722 5.06108C 16.9039 4.24488 16.0876 3.71675 15.1752 3.28465C 14.7431 3.0926 14.551 3.14061 14.503 3.66874C 13.8307 12.4069 9.26896 18.9845 2.97855 24.6498C 2.40232 25.178 2.01818 25.274 1.53799 24.5538C 1.05781 23.8337 0.0494136 23.2095 0.00139512 22.4893C -0.0466233 21.7691 1.15384 21.337 1.8261 20.8089C 6.772 16.5839 10.6135 11.5907 12.1981 5.10909C 12.2941 4.725 12.3902 4.3409 12.4382 3.95681C 12.8223 2.13237 12.8223 2.13237 11.0456 1.70026C 10.0853 1.50821 9.17292 1.4602 8.0685 1.50821Z" transform="translate(112.312 0)" fill="#96BF3D"/>
</g>
<g id="Group">
<g id="Vector_3">
<path d="M 2.17298 2.37099C 3.22938 1.02666 4.28579 0.306488 5.77436 0.450523C 6.63869 0.546547 7.40699 0.882628 7.98321 1.55479C 8.36736 1.9869 8.55943 2.03491 8.94358 1.55479C 9.5198 0.738593 10.3841 0.210465 11.3925 0.0664302C 13.7935 -0.317663 15.4261 0.978652 15.7142 3.57128C 15.9543 5.87584 16.0023 8.13239 16.2424 10.437C 16.3384 11.5892 15.5221 11.2532 14.9459 11.3972C 14.1776 11.5892 14.0335 11.1571 13.9855 10.485C 13.8895 8.42046 13.7454 6.35596 13.5534 4.24345C 13.4573 3.37924 13.2172 2.51502 12.3049 2.08292C 11.1524 1.6028 9.80791 2.22696 9.42377 3.47526C 9.08764 4.48351 9.18368 5.49175 9.2317 6.5C 9.32773 7.94035 9.37575 9.42871 9.56782 10.8691C 9.71188 11.9733 8.89557 11.6372 8.36736 11.7333C 7.79114 11.8293 7.35897 11.8293 7.35897 10.9651C 7.26293 8.80456 7.07087 6.69204 6.83077 4.53152C 6.6387 2.94713 5.91842 2.27497 4.76598 2.32298C 3.46948 2.37099 2.70118 3.28321 2.60515 4.8676C 2.46109 6.98011 2.79722 9.09263 2.89325 11.2051C 2.94127 12.0213 2.60515 12.2134 1.88487 12.1654C 1.26063 12.1174 0.684404 12.3574 0.636386 11.3492C 0.492331 8.27643 0.300255 5.25169 0.0121444 2.17894C -0.0838926 1.12269 0.396292 1.07468 1.21261 0.93064C 2.12496 0.882629 2.26901 1.31473 2.17298 2.37099Z" transform="translate(62.8438 22.9512)" fill="#525252"/>
</g>
<g id="Vector_4">
<path d="M 10.7081 7.25672C 9.84378 6.96865 9.21955 6.82462 8.8354 7.9769C 8.35522 9.32122 7.20277 9.89737 5.81024 9.94538C 4.4177 9.94538 3.45733 9.12918 2.78507 7.9769C 2.44894 7.35274 2.54498 7.11269 3.26526 6.92064C 5.52212 6.39251 7.77899 5.76836 10.0359 5.19222C 10.42 5.09619 10.7081 5.04818 10.6121 4.52006C 10.1799 1.97544 7.73097 -0.137079 5.33005 0.00695578C 2.0648 0.247014 -1.46541e-06 2.31152 -1.46541e-06 5.86438C 0.048017 6.96865 0.384145 8.409 1.2965 9.70532C 2.54498 11.4337 4.22562 12.2019 6.33843 11.9139C 8.64332 11.5778 10.2759 10.3295 11.1403 8.12093C 11.3804 7.54479 11.1883 7.40076 10.7081 7.25672ZM 2.20885 4.66409C 2.44894 3.0797 3.79346 1.92742 5.42609 1.97543C 5.90627 1.92742 6.38646 2.07146 6.7706 2.31152C 7.39484 2.69561 8.0671 3.12772 8.01908 3.84789C 7.97106 4.32801 7.10673 4.23198 6.62655 4.37602C 5.42609 4.7121 4.17761 5.00017 2.92913 5.33625C 2.16083 5.5283 2.11281 5.24023 2.20885 4.66409Z" transform="translate(81.2422 20.6602)" fill="#525252"/>
</g>
<g id="Vector_5">
<path d="M 13.2663 6.2593C 13.3624 3.23457 10.6253 0.257842 7.5041 0.0177833C 4.71903 -0.222275 2.36613 1.98626 1.78991 5.53913C 1.5018 5.20305 1.2617 5.011 1.11765 4.77094C 0.877554 4.43486 0.637468 4.29082 0.25332 4.62691C -0.178846 5.011 0.0132231 5.20305 0.301334 5.49112C 0.829537 6.11527 1.35774 6.69141 1.83792 7.31556C 4.76705 10.7724 7.64816 14.2292 10.6253 17.6381C 10.8174 17.8781 10.9614 18.4543 11.5377 18.0222C 12.0659 17.6381 11.8738 17.398 11.5377 17.0139C 9.95305 15.1895 8.41645 13.317 6.78383 11.3966C 10.7213 11.2525 13.1703 9.23603 13.2663 6.2593ZM 7.7442 10.3883C 5.29525 10.3883 2.94235 7.79568 2.94235 5.20305C 2.94235 3.04252 4.86309 1.12205 7.07194 1.12205C 9.61692 1.12205 12.0178 3.52264 12.0659 6.11527C 12.1139 8.37182 10.0491 10.4363 7.7442 10.3883Z" transform="translate(102.555 9.50781)" fill="#525252"/>
</g>
<g id="Vector_6">
<path d="M 5.47524 1.51993C 8.2123 0.847768 9.74889 1.808 10.4211 4.64069C 12.0058 3.72847 13.4943 3.92052 14.8869 4.97677C 15.7992 5.69695 16.1353 6.60917 15.9433 7.76145C 15.7992 8.67367 15.367 9.48987 14.9829 10.3061C 14.1186 12.0345 13.2062 13.7629 12.3419 15.4433C 12.1978 15.7314 12.1018 16.1155 11.5256 15.8754C 10.9494 15.5874 11.1414 15.2993 11.3335 14.9152C 12.2458 13.1868 13.1582 11.4103 14.0225 9.68192C 14.2626 9.24981 14.5027 8.7697 14.6468 8.28958C 14.9829 7.32935 15.0309 6.41712 14.1186 5.69695C 13.1582 4.92876 11.9097 4.83274 10.9493 5.45689C 10.1811 5.93701 9.70087 6.70519 9.31672 7.47338C 8.45239 9.15379 7.58806 10.8342 6.72373 12.5146C 6.53165 12.8507 6.43561 13.2348 5.85939 12.9467C 5.28317 12.6106 5.57128 12.3226 5.76336 11.9865C 6.67571 10.21 7.58806 8.43362 8.50041 6.60917C 8.7405 6.12905 8.93258 5.60093 9.12465 5.0728C 9.46078 4.01654 9.17267 3.20034 8.26031 2.57619C 7.34796 1.95204 6.43561 1.90402 5.47524 2.48017C 4.61091 3.05631 4.03469 3.92052 3.60253 4.83274C 2.78621 6.41712 1.9699 8.00151 1.15358 9.5859C 1.00953 9.87397 0.913492 10.2581 0.385289 10.018C -0.142914 9.72993 -0.0468783 9.44186 0.193214 9.05777C 1.58575 6.3211 2.97828 3.58443 4.41884 0.895779C 4.61091 0.559698 4.51488 -0.256501 5.37921 0.0795812C 6.19552 0.60771 5.37921 1.13584 5.47524 1.51993Z" transform="translate(20.8477 13.4316)" fill="#525252"/>
</g>
<g id="Vector_7">
<path d="M 6.52275 0.105015C 3.20948 -0.519137 0.472423 1.6894 0.0402569 5.3863C -0.343891 8.69911 2.05703 11.4838 5.70644 11.5318C 7.00294 11.5318 8.34745 11.0037 9.45188 9.75537C 9.69197 9.51531 10.2202 9.27525 9.73999 8.79513C 9.30782 8.36303 8.97169 8.55508 8.68358 8.98718C 8.63556 9.0832 8.53953 9.13122 8.44349 9.22724C 7.09897 10.4755 5.56238 10.8596 3.7857 10.1875C 2.00902 9.51531 1.1927 8.12297 1.04865 6.29852C 1.00063 5.67437 1.14468 5.3863 1.91298 5.48233C 4.50597 5.81841 7.09897 6.05847 9.73999 6.34654C 10.2202 6.39455 10.6523 6.58659 10.7004 5.7704C 10.9404 3.08174 9.16376 0.633144 6.52275 0.105015ZM 8.87565 5.24227C 6.57077 4.9542 4.26588 4.71414 1.91298 4.47408C 1.33676 4.42607 1.28874 4.18601 1.43279 3.70589C 1.961 2.21753 3.7857 0.969227 5.46634 1.01724C 7.33907 1.01724 9.16377 2.55361 9.4999 4.37806C 9.69197 5.00221 9.73999 5.3863 8.87565 5.24227Z" transform="translate(49.5156 23.1035)" fill="#525252"/>
</g>
<g id="Vector_8">
<path d="M 6.33673 12.2967C 4.9442 12.2487 3.83977 11.6726 3.21553 10.4242C 2.15913 8.21571 1.15074 6.00717 0.0943316 3.79863C -0.0977422 3.36653 -0.00170674 3.17448 0.430459 2.98243C 0.910644 2.74238 1.00668 3.07846 1.15074 3.36653C 1.87101 4.9029 2.59129 6.48729 3.31157 8.02366C 3.59968 8.64781 3.88779 9.27197 4.27194 9.84811C 5.18429 11.2885 6.28871 11.5765 7.8253 10.8564C 9.36189 10.1362 9.89009 9.07992 9.26585 7.44752C 8.44954 5.28699 7.44115 3.22249 6.5288 1.15799C 6.38475 0.821908 5.95258 0.437814 6.62484 0.101732C 7.34511 -0.23435 7.34512 0.341791 7.48917 0.677873C 8.40152 2.59834 9.21784 4.56682 10.1302 6.43928C 11.8589 9.94413 8.83369 12.1527 6.33673 12.2967Z" transform="translate(92.3945 16.0977)" fill="#525252"/>
</g>
<g id="Vector_9">
<path d="M 3.78751 10.2016C 1.33857 10.2016 -0.534151 7.75302 0.138107 5.40045C 0.234144 5.06437 0.0900888 4.3922 0.858384 4.58425C 1.53064 4.7763 1.38659 5.16039 1.24253 5.64051C 0.858384 6.93683 1.33857 8.13712 2.44299 8.76127C 3.35534 9.2894 4.50779 9.14536 5.27608 8.4732C 6.0924 7.75302 6.0924 6.88881 5.66023 5.97659C 5.3241 5.2084 4.93995 4.48823 4.65184 3.67203C 4.12364 2.18367 4.55581 0.983375 5.80429 0.311211C 6.95673 -0.312941 8.58936 0.0231402 9.45369 1.12741C 9.98189 1.75156 10.27 2.51975 10.222 3.33595C 10.222 3.62402 10.318 4.05612 9.78982 4.00811C 9.40567 3.9601 9.06954 3.81606 9.16558 3.33595C 9.26161 2.7118 9.02152 2.18367 8.63737 1.75156C 7.96512 1.0794 7.19682 0.935363 6.33249 1.31946C 5.51617 1.75156 5.42014 2.56776 5.70825 3.33595C 5.99636 4.20016 6.47654 4.96835 6.81267 5.83256C 7.62899 8.04109 6.14041 10.2016 3.78751 10.2016Z" transform="translate(13.3516 9.12109)" fill="#525252"/>
</g>
<g id="Vector_10">
<path d="M 0.06244 18.6915C 0.974791 14.6105 1.83912 10.5775 2.70346 6.54451C 3.13562 4.57603 3.56779 2.65557 3.99996 0.687088C 4.09599 0.302994 4.14401 -0.0810993 4.76825 0.0149241C 5.44051 0.158959 5.20042 0.591064 5.10438 0.927146C 3.80788 6.78457 2.51138 12.642 1.21488 18.5474C 1.11885 18.9315 1.16687 19.5077 0.446589 19.3156C 0.014423 19.2196 -0.0816154 18.9795 0.06244 18.6915Z" transform="translate(44.4102 13.5449)" fill="#525252"/>
</g>
<g id="Vector_11">
<path d="M 0.631546 10.7134C 0.19938 10.6174 -0.136752 10.5213 0.0553221 9.9452C 1.01569 6.77642 1.92804 3.60765 2.88841 0.438881C 2.98445 0.0547878 3.12851 -0.0892469 3.56067 0.0547882C 3.99284 0.198823 4.04086 0.438882 3.94482 0.774963C 2.98445 3.94373 2.0721 7.11251 1.11173 10.2813C 1.06371 10.5213 1.01569 10.7614 0.631546 10.7134Z" transform="translate(38.6914 20.7051)" fill="#525252"/>
</g>
<g id="Vector_12">
<path d="M 1.97328 1.01228C 1.82923 1.63643 1.54112 2.02053 0.916875 1.97251C 0.292636 1.9245 -0.0434945 1.54041 0.00452399 0.964268C 0.0525425 0.340116 0.436692 -0.0439775 1.06093 0.00403416C 1.68517 0.100058 1.92527 0.532164 1.97328 1.01228Z" transform="translate(42.3477 16.2441)" fill="#525252"/>
</g>
</g>
</g>
</g>
</svg>

