<svg width="23" height="25" viewBox="0 0 23 25" version="1.1" xmlns="http://www.w3.org/2000/svg" xmlns:xlink="http://www.w3.org/1999/xlink">
<g id="Canvas" fill="none">
<g id="if_jee01-28_2184670">
<g id="Icons">
<g id="Group">
<g id="Vector">
<path d="M 6.89697e-07 0.0764681C 1.5017 -0.140882 2.98363 0.115988 4.3075 0.708758C 6.22414 1.5584 7.80487 3.09962 8.615 5.21385L 9.93886 8.65195" stroke-miterlimit="10" stroke-linecap="round" stroke-linejoin="round" transform="translate(8.125 2.49219)" stroke="#828282"/>
</g>
<g id="Vector_2">
<path d="M 3.44855 3.79944e-07C 0.464919 2.11423 -0.81943 6.02655 0.54395 9.56344L 1.86781 13.0213" stroke-miterlimit="10" stroke-linecap="round" stroke-linejoin="round" transform="translate(1 3.9707)" stroke="#828282"/>
</g>
<g id="Vector_3">
<path d="M -2.81372e-07 5.10254e-07C 0.00639972 0.384611 0.0460591 0.77179 0.120689 1.15766" stroke-miterlimit="10" stroke-linecap="round" stroke-linejoin="round" transform="translate(3.32812 11.1484)" stroke="#828282"/>
</g>
<g id="Vector_4">
<path d="M 2.64546 -7.75146e-08C 2.14786 0.35261 1.70713 0.76539 1.32965 1.22376C 0.70155 1.98644 0.248561 2.87532 7.50732e-07 3.82315" stroke-miterlimit="10" stroke-linecap="round" stroke-linejoin="round" transform="translate(3.54688 5.50781)" stroke="#828282"/>
</g>
<g id="Vector_5">
<path d="M 15.1966 7.37305e-07L -2.38647e-07 5.84407" stroke-miterlimit="10" stroke-linecap="round" stroke-linejoin="round" transform="translate(5.37891 17.6953)" stroke="#828282"/>
</g>
<g id="Vector_6">
<path d="M 0.244515 2.9796L 0.131035 2.68452C -0.259045 1.67019 0.251715 0.521115 1.26604 0.131035C 2.28037 -0.259045 3.42944 0.251715 3.81953 1.26605L 3.933 1.56113" stroke-miterlimit="10" stroke-linecap="round" stroke-linejoin="round" transform="translate(4.19922 1)" stroke="#828282"/>
</g>
<g id="Vector_7">
<path d="M 0.111984 5.84999C 0.581984 7.08999 0.627954 8.42273 0.287954 9.84273C -0.00430566 10.2938 -0.0965362 10.8797 0.116234 11.433C 0.470854 12.3551 1.51777 12.8205 2.43989 12.4659L 2.62432 12.3949L 17.8209 6.55087L 17.9684 6.49413C 18.8906 6.13951 19.3559 5.09259 19.0013 4.17047C 18.9091 3.93072 18.7758 3.74913 18.624 3.57463C 18.4211 3.37743 18.1885 3.21286 17.9218 3.1249L 17.8884 3.1134C 16.6684 2.2834 15.792 1.26 15.312 -1.58081e-07" stroke-miterlimit="10" stroke-linecap="round" stroke-linejoin="round" transform="translate(2.75781 11.1445)" stroke="#828282"/>
</g>
<g id="Vector_8">
<path d="M 4.90569 -1.30981e-06C 5.39506 1.27253 4.74101 2.70957 3.46848 3.19894L 3.21029 3.29823C 1.93776 3.7876 0.489369 3.15909 -7.89795e-07 1.88656" stroke-miterlimit="10" stroke-linecap="round" stroke-linejoin="round" transform="translate(7.16797 20.9648)" stroke="#828282"/>
</g>
</g>
</g>
</g>
</g>
</svg>

