<svg width="27" height="27" viewBox="0 0 27 27" version="1.1" xmlns="http://www.w3.org/2000/svg" xmlns:xlink="http://www.w3.org/1999/xlink">
<g id="Canvas" fill="none">
<g id="Icons">
<g id="Group">
<g id="Group_2">
<g id="Vector">
<path fill-rule="evenodd" clip-rule="evenodd" d="M 24.6902 22.5425C 25.1708 22.7428 25.5098 23.2175 25.5098 23.7705C 25.5098 24.5036 24.9134 25.1 24.1803 25.1L 1.22951 25.1C 0.496411 25.1 -0.1 24.5036 -0.1 23.7705C -0.1 23.2175 0.239052 22.7428 0.719672 22.5425L 0.719672 21.3115C 0.719672 21.0295 0.948115 20.8016 1.22951 20.8016L 1.63934 20.8016C 2.07722 20.8016 2.45526 20.5491 2.64177 20.182L 2.45902 20.182C 1.49969 20.182 0.719672 19.402 0.719672 18.4426C 0.719672 18.3077 0.77313 18.1776 0.869221 18.082C 0.869225 18.082 0.869228 18.082 0.869232 18.082L 1.53934 17.4119L 1.53934 15.5738C 1.53934 9.86706 5.84316 5.14887 11.3754 4.48914L 11.3754 3.37585C 10.4625 3.32389 9.73606 2.56511 9.73606 1.63934C 9.73606 0.680017 10.5161 -0.1 11.4754 -0.1L 13.9344 -0.1C 14.8938 -0.1 15.6738 0.680017 15.6738 1.63934C 15.6738 2.56511 14.9474 3.32389 14.0344 3.37585L 14.0344 4.48913C 19.5663 5.14847 23.8705 9.86707 23.8705 15.5738L 23.8705 17.4119L 24.5408 18.0822C 24.6361 18.1775 24.6902 18.3074 24.6902 18.4426C 24.6902 19.4015 23.9102 20.182 22.9508 20.182L 22.7681 20.182C 22.9546 20.5491 23.3326 20.8016 23.7705 20.8016L 24.1803 20.8016C 24.4617 20.8016 24.6902 21.0295 24.6902 21.3115L 24.6902 22.5425ZM 11.4754 0.919672C 11.0786 0.919672 10.7557 1.24252 10.7557 1.63934C 10.7557 2.03616 11.0786 2.35902 11.4754 2.35902L 13.9344 2.35902C 14.3312 2.35902 14.6541 2.03616 14.6541 1.63934C 14.6541 1.24252 14.3312 0.919672 13.9344 0.919672L 11.4754 0.919672ZM 13.0148 4.41478L 13.0148 3.37869L 12.3951 3.37869L 12.3951 4.41478C 12.4972 4.41121 12.6008 4.4082 12.7049 4.4082C 12.809 4.4082 12.9126 4.41121 13.0148 4.41478ZM 1.7639 18.6292C 1.84619 18.936 2.12672 19.1623 2.45902 19.1623L 22.9508 19.1623C 23.2831 19.1623 23.5637 18.936 23.6459 18.6292L 23.0004 17.9836C 22.9043 17.888 22.8508 17.7579 22.8508 17.623L 22.8508 15.5738C 22.8508 9.97941 18.2993 5.42787 12.7049 5.42787C 7.11056 5.42787 2.55902 9.97941 2.55902 15.5738L 2.55902 17.623C 2.55902 17.7581 2.50499 17.8881 2.40965 17.9834L 1.7639 18.6292ZM 21.9504 20.8016C 21.8311 20.6132 21.7383 20.4057 21.6828 20.182L 3.72701 20.182C 3.67152 20.4057 3.57876 20.6132 3.45923 20.8016L 21.9504 20.8016ZM 1.22951 24.0803L 24.1803 24.0803C 24.351 24.0803 24.4902 23.9414 24.4902 23.7705C 24.4902 23.5996 24.351 23.4607 24.1803 23.4607C 23.8989 23.4607 23.6705 23.2328 23.6705 22.9508L 23.6705 21.8213L 1.73934 21.8213L 1.73934 22.9508C 1.73934 23.2328 1.5109 23.4607 1.22951 23.4607C 1.05885 23.4607 0.919672 23.5996 0.919672 23.7705C 0.919672 23.9414 1.05885 24.0803 1.22951 24.0803Z" transform="translate(1 1)" fill="#BDBDBD"/>
<path fill-rule="evenodd" clip-rule="evenodd" d="M 24.6902 22.5425C 25.1708 22.7428 25.5098 23.2175 25.5098 23.7705C 25.5098 24.5036 24.9134 25.1 24.1803 25.1L 1.22951 25.1C 0.496411 25.1 -0.1 24.5036 -0.1 23.7705C -0.1 23.2175 0.239052 22.7428 0.719672 22.5425L 0.719672 21.3115C 0.719672 21.0295 0.948115 20.8016 1.22951 20.8016L 1.63934 20.8016C 2.07722 20.8016 2.45526 20.5491 2.64177 20.182L 2.45902 20.182C 1.49969 20.182 0.719672 19.402 0.719672 18.4426C 0.719672 18.3077 0.77313 18.1776 0.869221 18.082C 0.869225 18.082 0.869228 18.082 0.869232 18.082L 1.53934 17.4119L 1.53934 15.5738C 1.53934 9.86706 5.84316 5.14887 11.3754 4.48914L 11.3754 3.37585C 10.4625 3.32389 9.73606 2.56511 9.73606 1.63934C 9.73606 0.680017 10.5161 -0.1 11.4754 -0.1L 13.9344 -0.1C 14.8938 -0.1 15.6738 0.680017 15.6738 1.63934C 15.6738 2.56511 14.9474 3.32389 14.0344 3.37585L 14.0344 4.48913C 19.5663 5.14847 23.8705 9.86707 23.8705 15.5738L 23.8705 17.4119L 24.5408 18.0822C 24.6361 18.1775 24.6902 18.3074 24.6902 18.4426C 24.6902 19.4015 23.9102 20.182 22.9508 20.182L 22.7681 20.182C 22.9546 20.5491 23.3326 20.8016 23.7705 20.8016L 24.1803 20.8016C 24.4617 20.8016 24.6902 21.0295 24.6902 21.3115L 24.6902 22.5425ZM 11.4754 0.919672C 11.0786 0.919672 10.7557 1.24252 10.7557 1.63934C 10.7557 2.03616 11.0786 2.35902 11.4754 2.35902L 13.9344 2.35902C 14.3312 2.35902 14.6541 2.03616 14.6541 1.63934C 14.6541 1.24252 14.3312 0.919672 13.9344 0.919672L 11.4754 0.919672ZM 13.0148 4.41478L 13.0148 3.37869L 12.3951 3.37869L 12.3951 4.41478C 12.4972 4.41121 12.6008 4.4082 12.7049 4.4082C 12.809 4.4082 12.9126 4.41121 13.0148 4.41478ZM 1.7639 18.6292C 1.84619 18.936 2.12672 19.1623 2.45902 19.1623L 22.9508 19.1623C 23.2831 19.1623 23.5637 18.936 23.6459 18.6292L 23.0004 17.9836C 22.9043 17.888 22.8508 17.7579 22.8508 17.623L 22.8508 15.5738C 22.8508 9.97941 18.2993 5.42787 12.7049 5.42787C 7.11056 5.42787 2.55902 9.97941 2.55902 15.5738L 2.55902 17.623C 2.55902 17.7581 2.50499 17.8881 2.40965 17.9834L 1.7639 18.6292ZM 21.9504 20.8016C 21.8311 20.6132 21.7383 20.4057 21.6828 20.182L 3.72701 20.182C 3.67152 20.4057 3.57876 20.6132 3.45923 20.8016L 21.9504 20.8016ZM 1.22951 24.0803L 24.1803 24.0803C 24.351 24.0803 24.4902 23.9414 24.4902 23.7705C 24.4902 23.5996 24.351 23.4607 24.1803 23.4607C 23.8989 23.4607 23.6705 23.2328 23.6705 22.9508L 23.6705 21.8213L 1.73934 21.8213L 1.73934 22.9508C 1.73934 23.2328 1.5109 23.4607 1.22951 23.4607C 1.05885 23.4607 0.919672 23.5996 0.919672 23.7705C 0.919672 23.9414 1.05885 24.0803 1.22951 24.0803Z" stroke-width="0.2" stroke-miterlimit="8" transform="translate(1 1)" stroke="#BDBDBD"/>
</g>
</g>
</g>
</g>
</g>
</svg>

