<svg width="30" height="27" viewBox="0 0 30 27" version="1.1" xmlns="http://www.w3.org/2000/svg" xmlns:xlink="http://www.w3.org/1999/xlink">
<g id="Canvas" fill="none">
<g id="if_Jee-64_2180757">
<g id="Icons">
<g id="Group">
<g id="Vector">
<path d="M 10.4357 5.17576C 10.4357 8.03426 8.0996 10.3515 5.21786 10.3515C 2.33611 10.3515 -1.02127e-06 8.03426 -1.02127e-06 5.17576C -1.02127e-06 2.31727 2.33611 -2.10019e-07 5.21786 -2.10019e-07C 8.0996 -2.10019e-07 10.4357 2.31727 10.4357 5.17576Z" stroke-width="1.2" stroke-miterlimit="10" stroke-linecap="round" stroke-linejoin="round" transform="translate(9.66797 8.32422)" stroke="#BDBDBD"/>
</g>
<g id="Vector_2">
<path d="M 27.4442 13.274L 21.3905 23.7452C 20.9419 24.5213 20.1089 25 19.2069 25L 8.63209 25C 7.73385 25 6.90368 24.5252 6.45364 23.7541L 0.338733 13.277C -0.127665 12.4778 -0.111377 11.4886 0.381081 10.7051L 6.36987 1.17596C 6.82956 0.444537 7.63704 -4.94162e-07 8.50596 -4.94162e-07L 19.2681 -4.94162e-07C 20.137 -4.94162e-07 20.9445 0.444537 21.4042 1.17596L 27.3967 10.711C 27.8872 11.4914 27.9054 12.4762 27.4442 13.274Z" stroke-width="1.2" stroke-miterlimit="10" stroke-linecap="round" stroke-linejoin="round" transform="translate(1 1)" stroke="#BDBDBD"/>
</g>
<g id="Vector_3">
<path d="M -9.8977e-07 4.27478L 2.68659 1.04646e-06" stroke-width="1.2" stroke-miterlimit="10" stroke-linecap="round" stroke-linejoin="round" transform="translate(6.27734 4.88867)" stroke="#BDBDBD"/>
</g>
<g id="Vector_4">
<path d="M 4.9342e-07 0.940367L 0.590991 5.89361e-07" stroke-width="1.2" stroke-miterlimit="10" stroke-linecap="round" stroke-linejoin="round" transform="translate(4.63672 10.8203)" stroke="#BDBDBD"/>
</g>
</g>
</g>
</g>
</g>
</svg>

