<svg width="165" height="133" viewBox="0 0 165 133" version="1.1" xmlns="http://www.w3.org/2000/svg" xmlns:xlink="http://www.w3.org/1999/xlink">
<g id="Canvas" fill="none">
<g id="Group">
<g id="Vector">
<path d="M 132.72 133L 32.2796 133C 14.4081 133 0 118.681 0 100.92L 0 32.0797C 0 14.3188 14.4081 0 32.2796 0L 132.72 0C 150.592 0 165 14.3188 165 32.0797L 165 100.92C 165 118.681 150.592 133 132.72 133Z" fill="#E5E5E5"/>
</g>
<g id="Mask Group">
<mask id="mask0" mask-type="alpha" maskUnits="userSpaceOnUse" x="0" y="0" width="165" height="133">
<g id="Vector_2">
<path d="M 132.72 133L 32.2796 133C 14.4081 133 0 118.681 0 100.92L 0 32.0797C 0 14.3188 14.4081 0 32.2796 0L 132.72 0C 150.592 0 165 14.3188 165 32.0797L 165 100.92C 165 118.681 150.592 133 132.72 133Z" fill="#E5E5E5"/>
</g>
</mask>
<g mask="url(#mask0)">
<g id="Group_2">
<g id="Group_3">
<g id="Group_4">
<g id="Vector_3">
<path d="M 0 0C 0 0 23.3 13 62.6 9.5" stroke-width="8" stroke-miterlimit="10" stroke-linecap="round" stroke-linejoin="round" transform="translate(-20 54.5)" stroke="#FFAD56"/>
</g>
<g id="Vector_4">
<path d="M 0 0C 0 0 19.3 12.4 54 9.9" stroke-width="14" stroke-miterlimit="10" stroke-linecap="round" stroke-linejoin="round" transform="translate(-20 54.5)" stroke="#769325"/>
</g>
</g>
<g id="Group_5">
<g id="Vector_5">
<path d="M 62.3 0L 0 0L 0 44.5L 62.3 44.5L 62.3 0Z" transform="translate(64.4004 41)" fill="#EFFFC3"/>
</g>
<g id="Vector_6">
<path d="M 21.8 0L 0 0L 0 44.5L 21.8 44.5L 21.8 0Z" transform="translate(42.5996 41)" fill="#DEEAB2"/>
</g>
<g id="Group_6">
<g id="Vector_7">
<path d="M -1.52588e-06 1.4C 0.0999985 0.6 0.800003 0.100001 1.7 7.62939e-07C 2.4 7.62939e-07 2.8 0.100001 2.9 0.500001C 2.6 0.400001 2.4 0.400001 2.1 0.500001C 1.4 0.700001 1.5 0.5 1.6 1.2C 1.8 2.8 2.6 4.1 3.6 5.2C 5.2 7 7.2 8.1 9.4 9C 12.9 10.4 16.6 10.9 20.4 10.7C 23.9 10.6 27.4 9.8 30.6 8.2C 31.3 7.9 31.9 7.5 32.6 7C 32.8 6.9 32.9 6.9 33 7.1C 33 7.2 33.1 7.2 33.1 7.3C 33.5 7.8 33.5 7.8 33 8.2C 30.5 10 27.8 11.1 24.8 11.6C 19.8 12.6 14.9 12.3 10.2 10.6C 7.6 9.7 5.2 8.3 3.4 6.2C 2.3 4.9 1.5 3.5 1.2 1.8C 1.2 1.5 1.1 1.2 1.1 0.9C 1.1 0.7 1.1 0.6 0.9 0.7C 0.6 1 0.299998 1.2 -1.52588e-06 1.4Z" transform="translate(76.0996 57.2012)" fill="#96BF3D"/>
</g>
<g id="Vector_8">
<path d="M 2.50001 0.46875C 2.80001 -0.0312504 3.5 -0.13125 4.2 0.16875C 4.9 0.46875 5.39999 0.96875 5.29999 1.56875C 5.09999 1.36875 4.80001 1.16875 4.50001 1.06875C 4.40001 0.96875 4.29999 1.06875 4.29999 1.16875C 4.09999 3.76875 2.7 5.76875 0.9 7.46875C 0.7 7.66875 0.600006 7.66875 0.500006 7.46875C 0.400006 7.26875 0.100006 7.06875 6.10352e-06 6.86875C 6.10352e-06 6.66875 0.300006 6.56875 0.500006 6.36875C 2.00001 5.06875 3.1 3.56875 3.6 1.66875C 3.6 1.56875 3.7 1.46875 3.7 1.26875C 3.8 0.768751 3.79999 0.76875 3.29999 0.56875C 3.09999 0.46875 2.80001 0.46875 2.50001 0.46875Z" transform="translate(109.6 56.9316)" fill="#96BF3D"/>
</g>
<g id="Vector_9">
<path d="M 0.799998 0.715206C 1.1 0.315206 1.4 0.115206 1.9 0.115206C 2.2 0.115206 2.4 0.215207 2.6 0.415207C 2.7 0.515207 2.8 0.515207 2.9 0.415207C 3.1 0.215207 3.3 0.0152055 3.6 0.0152055C 4.3 -0.0847945 4.8 0.315206 4.9 1.01521C 5 1.71521 5 2.41521 5.1 3.11521C 5.1 3.41521 4.9 3.31521 4.7 3.41521C 4.5 3.51521 4.4 3.31521 4.4 3.11521C 4.4 2.51521 4.3 1.91521 4.3 1.21521C 4.3 0.915206 4.2 0.715206 3.9 0.615206C 3.6 0.515206 3.2 0.615206 3 1.01521C 2.9 1.31521 2.9 1.61521 2.9 1.91521C 2.9 2.31521 2.9 2.81521 3 3.21521C 3 3.51521 2.8 3.41521 2.6 3.51521C 2.4 3.51521 2.3 3.51521 2.3 3.31521C 2.3 2.71521 2.2 2.01521 2.1 1.41521C 2 0.915207 1.8 0.715206 1.5 0.715206C 1.1 0.715206 0.899998 1.01521 0.799998 1.51521C 0.799998 2.11521 0.899997 2.81521 0.899997 3.41521C 0.899997 3.61521 0.800002 3.71521 0.600002 3.71521C 0.400002 3.71521 0.2 3.81521 0.2 3.51521C 0.2 2.61521 0.100003 1.71521 3.05176e-06 0.815207C 3.05176e-06 0.515207 0.0999969 0.515207 0.399997 0.415207C 0.799997 0.315207 0.799998 0.415206 0.799998 0.715206Z" transform="translate(94.7988 63.7852)" fill="#59595B"/>
</g>
<g id="Vector_10">
<path d="M 3.30001 2.1109C 3.00001 2.0109 2.9 2.0109 2.7 2.3109C 2.6 2.7109 2.20001 2.9109 1.80001 2.9109C 1.40001 2.9109 1.1 2.7109 0.899997 2.3109C 0.799997 2.1109 0.800003 2.0109 1 2.0109C 1.7 1.8109 2.3 1.7109 3 1.5109C 3.1 1.5109 3.2 1.5109 3.2 1.3109C 3.1 0.510904 2.29999 -0.0890954 1.59999 0.0109046C 0.599994 0.110905 3.05176e-06 0.710904 3.05176e-06 1.7109C 3.05176e-06 2.0109 0.0999969 2.5109 0.399997 2.8109C 0.799997 3.3109 1.3 3.5109 1.9 3.5109C 2.6 3.4109 3.10001 3.0109 3.30001 2.4109C 3.50001 2.2109 3.50001 2.2109 3.30001 2.1109ZM 0.800006 1.3109C 0.900006 0.810904 1.30001 0.510905 1.80001 0.510905C 1.90001 0.510905 2.1 0.510903 2.2 0.610903C 2.4 0.710903 2.59999 0.810903 2.59999 1.1109C 2.59999 1.2109 2.3 1.2109 2.2 1.3109C 1.8 1.4109 1.49999 1.5109 1.09999 1.6109C 0.799994 1.6109 0.700006 1.5109 0.800006 1.3109Z" transform="translate(100.299 63.1895)" fill="#59595B"/>
</g>
<g id="Vector_11">
<path d="M 3.975 1.9095C 3.975 1.0095 3.17501 0.1095 2.27501 0.00950003C 1.47501 -0.0905 0.774994 0.6095 0.574994 1.6095C 0.474994 1.5095 0.374997 1.4095 0.374997 1.4095C 0.274997 1.3095 0.274994 1.3095 0.0749939 1.4095C -0.0250061 1.5095 -0.0250061 1.6095 0.0749939 1.7095C 0.274994 1.9095 0.374994 2.1095 0.574994 2.2095C 1.47499 3.2095 2.275 4.3095 3.175 5.3095C 3.275 5.4095 3.275 5.5095 3.475 5.4095C 3.675 5.3095 3.575 5.2095 3.475 5.1095C 2.975 4.5095 2.57499 4.0095 2.07499 3.4095C 3.17499 3.4095 3.875 2.8095 3.975 1.9095ZM 2.27501 3.1095C 1.57501 3.1095 0.874997 2.3095 0.874997 1.5095C 0.874997 0.8095 1.47499 0.309501 2.07499 0.309501C 2.87499 0.309501 3.57499 1.0095 3.57499 1.8095C 3.57499 2.5095 2.97501 3.1095 2.27501 3.1095Z" transform="translate(106.824 59.791)" fill="#59595B"/>
</g>
<g id="Vector_12">
<path d="M 1.725 0.627254C 2.525 0.427254 3.025 0.727253 3.225 1.52725C 3.725 1.22725 4.125 1.32725 4.525 1.62725C 4.825 1.82725 4.925 2.12725 4.825 2.42725C 4.825 2.72725 4.625 2.92725 4.525 3.22725C 4.225 3.72725 4.025 4.22725 3.725 4.72725C 3.725 4.82725 3.625 4.92725 3.525 4.82725C 3.325 4.72725 3.425 4.62725 3.425 4.52725C 3.725 4.02725 3.925 3.52726 4.225 2.92725C 4.325 2.82726 4.325 2.62725 4.425 2.52725C 4.525 2.22725 4.525 1.92725 4.225 1.72725C 3.925 1.52725 3.525 1.42725 3.325 1.62725C 3.125 1.82725 2.925 2.02725 2.825 2.22725C 2.525 2.72725 2.325 3.22725 2.025 3.72725C 1.925 3.82725 1.925 3.92725 1.725 3.82725C 1.525 3.72725 1.625 3.62725 1.725 3.52725C 2.025 3.02725 2.225 2.42726 2.525 1.92726C 2.625 1.82726 2.625 1.62726 2.725 1.42726C 2.825 1.12725 2.725 0.827254 2.425 0.727254C 2.125 0.527254 1.925 0.527254 1.625 0.727254C 1.325 0.927254 1.225 1.12725 1.025 1.42726C 0.825003 1.92726 0.524998 2.42725 0.324998 2.82725C 0.324998 2.92725 0.225002 3.02725 0.125002 2.92725C -0.0749985 2.82726 0.0250031 2.72725 0.0250031 2.62725C 0.425003 1.82725 0.824998 1.02725 1.325 0.227254C 1.425 0.127254 1.325 -0.0727465 1.625 0.0272535C 1.925 0.427253 1.725 0.527254 1.725 0.627254Z" transform="translate(82.2754 60.7734)" fill="#59595B"/>
</g>
<g id="Vector_13">
<path d="M 1.90948 0.0340527C 0.909477 -0.165947 0.109475 0.534053 0.00947502 1.63405C -0.090525 2.63405 0.609472 3.43405 1.70947 3.43405C 2.10947 3.43405 2.50948 3.23405 2.80948 2.93405C 2.90948 2.83405 3.00948 2.83405 2.90948 2.63405C 2.80948 2.53405 2.70947 2.53405 2.60947 2.73405C 2.60947 2.73405 2.60947 2.73405 2.50947 2.83405C 2.10947 3.23405 1.60947 3.33405 1.10947 3.13405C 0.609473 2.93405 0.309478 2.53405 0.309478 1.93405C 0.309478 1.73405 0.309473 1.63405 0.609473 1.73405C 1.40947 1.83405 2.20948 1.93405 2.90948 2.03405C 3.00948 2.03405 3.20947 2.13405 3.20947 1.83405C 3.20947 0.934054 2.70948 0.234053 1.90948 0.0340527ZM 2.60947 1.53405C 1.90947 1.43405 1.20948 1.33405 0.509475 1.33405C 0.309475 1.33405 0.309477 1.23405 0.409477 1.13405C 0.609477 0.734053 1.10947 0.334054 1.60947 0.334054C 2.20947 0.334054 2.70948 0.834054 2.80948 1.33405C 2.80948 1.53405 2.80947 1.63405 2.60947 1.53405Z" transform="translate(90.9902 63.8672)" fill="#5A595B"/>
</g>
<g id="Vector_14">
<path d="M 1.84143 3.72725C 1.44143 3.72725 1.14142 3.52725 0.941418 3.12725C 0.641418 2.42725 0.341424 1.82725 0.0414244 1.12725C -0.0585756 1.02725 0.0414153 0.927254 0.141415 0.827254C 0.241415 0.727254 0.341427 0.827255 0.341427 0.927255C 0.541427 1.42725 0.741418 1.82725 0.941418 2.32725C 1.04142 2.52725 1.14142 2.72725 1.24142 2.92725C 1.54142 3.32725 1.84143 3.42725 2.34143 3.22725C 2.84143 3.02725 2.94142 2.72725 2.74142 2.22725C 2.54142 1.62725 2.14142 0.927254 1.94142 0.327254C 1.94142 0.227254 1.74142 0.127255 1.94142 0.027255C 2.14142 -0.072745 2.14142 0.127254 2.24142 0.227254C 2.54142 0.827254 2.74142 1.42725 3.04142 1.92725C 3.54142 3.02725 2.64143 3.72725 1.84143 3.72725Z" transform="translate(103.758 61.6738)" fill="#5A5A5C"/>
</g>
<g id="Vector_15">
<path d="M 1.139 3.00405C 0.438996 3.00405 -0.16101 2.30405 0.0389904 1.60405C 0.0389904 1.50405 0.038995 1.30405 0.238995 1.40405C 0.438995 1.50405 0.438993 1.60405 0.338993 1.70405C 0.238993 2.10405 0.338995 2.40405 0.738995 2.60405C 1.039 2.80405 1.339 2.70405 1.639 2.50405C 1.839 2.30405 1.83899 2.00405 1.73899 1.80405C 1.63899 1.60405 1.53899 1.30405 1.43899 1.10405C 1.23899 0.704051 1.43899 0.304051 1.73899 0.104051C 2.039 -0.0959489 2.53899 0.00405183 2.83899 0.304052C 3.03899 0.504052 3.03899 0.704053 3.03899 1.00405C 3.03899 1.10405 3.03899 1.20405 2.93899 1.20405C 2.83899 1.20405 2.739 1.10405 2.739 1.00405C 2.739 0.804053 2.73899 0.704053 2.53899 0.504053C 2.33899 0.304053 2.13899 0.204052 1.83899 0.404052C 1.53899 0.504052 1.539 0.804053 1.639 1.00405C 1.739 1.30405 1.83899 1.50405 1.93899 1.70405C 2.23899 2.40405 1.839 3.00405 1.139 3.00405Z" transform="translate(80.1602 59.6973)" fill="#5A5A5C"/>
</g>
<g id="Vector_16">
<path d="M 1.52588e-06 5.6C 0.300002 4.4 0.499997 3.2 0.799997 2C 0.899997 1.4 1.1 0.800001 1.2 0.200001C 1.2 0.100001 1.2 0 1.4 0C 1.6 0 1.5 0.199999 1.5 0.299999C 1.1 2.1 0.699997 3.8 0.299997 5.6C 0.299997 5.7 0.3 5.9 0.1 5.8C 0 5.8 1.52588e-06 5.7 1.52588e-06 5.6Z" transform="translate(89.4004 61)" fill="#5A5A5C"/>
</g>
<g id="Vector_17">
<path d="M 0.200002 3.14142C 0.100002 3.14142 -3.05176e-06 3.04142 -3.05176e-06 2.94142C 0.299997 2.04142 0.6 1.04142 0.8 0.141421C 0.8 0.041421 0.899997 -0.0585794 0.999997 0.0414206C 1.1 0.0414206 1.1 0.141421 1.1 0.241421C 0.800003 1.14142 0.5 2.14142 0.3 3.04142C 0.3 3.04142 0.300002 3.14142 0.200002 3.14142Z" transform="translate(87.6992 63.2598)" fill="#5C5B5D"/>
</g>
<g id="Vector_18">
<path d="M 0.600002 0.3C 0.600002 0.5 0.499998 0.6 0.299998 0.6C 0.0999985 0.6 3.05176e-06 0.5 3.05176e-06 0.3C 3.05176e-06 0.1 0.0999985 -7.62939e-07 0.299998 -7.62939e-07C 0.499998 -7.62939e-07 0.600002 0.2 0.600002 0.3Z" transform="translate(88.7988 61.8008)" fill="#605F61"/>
</g>
</g>
</g>
<g id="Group_7">
<g id="Vector_19">
<path d="M 0 -7.62939e-07C 0 -7.62939e-07 31.8 17.7 85.5 12.9" stroke-width="8" stroke-miterlimit="10" stroke-linecap="round" stroke-linejoin="round" transform="translate(-18.5 60.3008)" stroke="#FFAD56"/>
</g>
<g id="Vector_20">
<path d="M 0 -7.62939e-07C 0 -7.62939e-07 26.3 16.9 73.8 13.6" stroke-width="14" stroke-miterlimit="10" stroke-linecap="round" stroke-linejoin="round" transform="translate(-18.5 60.3008)" stroke="#B9D357"/>
</g>
</g>
<g id="Group_8">
<g id="Vector_21">
<path d="M 83.1 0L -3.05176e-06 0L -3.05176e-06 8L 83.1 8L 83.1 0Z" transform="translate(61.7012 85.5)" fill="#BEE05F"/>
</g>
<g id="Vector_22">
<path d="M 29.8 0L 0 0L 0 8L 29.8 8L 29.8 0Z" transform="translate(31.9004 85.5)" fill="#769325"/>
</g>
</g>
<g id="Vector_23">
<path d="M 80.3 0L 3.05176e-06 0L 3.05176e-06 42.3L 80.3 42.3L 80.3 0Z" transform="translate(53.3008 93.5)" fill="#B9D357"/>
</g>
<g id="Vector_24">
<path d="M 22.8 0L 0 0L 0 42.3L 22.8 42.3L 22.8 0Z" transform="translate(35.3008 93.5)" fill="#6D8221"/>
</g>
</g>
</g>
</g>
</g>
</g>
</g>
</svg>

