<svg width="164" height="53" viewBox="0 0 164 53" version="1.1" xmlns="http://www.w3.org/2000/svg" xmlns:xlink="http://www.w3.org/1999/xlink">
<title>Group</title>
<desc>Created using Figma</desc>
<g id="Canvas" transform="translate(-10901 -19752)">
<g id="Group">
<g id="Vector">
<use xlink:href="#path0_fill" transform="translate(10901 19752)" fill="#4A7010"/>
</g>
<g id="PLAY 1">
<g id="Vector">
<use xlink:href="#path1_fill" transform="translate(10913.3 19762.1)" fill="url(#paint1_linear)"/>
</g>
<g id="Vector">
<use xlink:href="#path2_fill" transform="translate(10913.3 19761.9)" fill="url(#paint2_linear)"/>
</g>
<g id="Vector">
<use xlink:href="#path3_fill" transform="translate(10913.3 19780)" fill="url(#paint3_linear)"/>
</g>
<g id="Vector">
<use xlink:href="#path4_fill" transform="translate(10931.6 19775.2)" fill="url(#paint4_linear)"/>
</g>
</g>
<g id="Group">
<g id="Vector">
<use xlink:href="#path5_fill" transform="translate(11023.7 19776.2)" fill="#F9F9F9"/>
</g>
<g id="Vector">
<use xlink:href="#path6_fill" transform="translate(11035.1 19772)" fill="#F9F9F9"/>
</g>
<g id="Vector">
<use xlink:href="#path7_fill" transform="translate(11038.6 19776.2)" fill="#F9F9F9"/>
</g>
<g id="Vector">
<use xlink:href="#path8_fill" transform="translate(11048 19776.4)" fill="#F9F9F9"/>
</g>
</g>
<g id="Group">
<g id="Vector">
<use xlink:href="#path9_fill" transform="translate(10990.8 19776.6)" fill="#F9F9F9"/>
</g>
<g id="Vector">
<use xlink:href="#path10_fill" transform="translate(10979.7 19776.3)" fill="#F9F9F9"/>
</g>
<g id="Vector">
<use xlink:href="#path11_fill" transform="translate(10967.7 19776.3)" fill="#F9F9F9"/>
</g>
<g id="Vector">
<use xlink:href="#path12_fill" transform="translate(10950.8 19771.4)" fill="#F9F9F9"/>
</g>
<g id="Vector">
<use xlink:href="#path13_fill" transform="translate(11001.3 19770.8)" fill="#F9F9F9"/>
</g>
<g id="Vector">
<use xlink:href="#path14_fill" transform="translate(11007 19776.2)" fill="#F9F9F9"/>
</g>
<g id="Group">
<g id="Vector">
<use xlink:href="#path15_fill" transform="translate(11016.5 19776.3)" fill="#F9F9F9"/>
</g>
<g id="Vector">
<use xlink:href="#path16_fill" transform="translate(11017.9 19776.3)" fill="#F9F9F9"/>
</g>
</g>
</g>
<g id="Group">
<g id="Vector">
<use xlink:href="#path17_fill" transform="translate(10950.8 19762.6)" fill="#F9F9FA"/>
</g>
<g id="Vector">
<use xlink:href="#path18_fill" transform="translate(10955.9 19762.6)" fill="#F9F9FA"/>
</g>
<g id="Vector">
<use xlink:href="#path19_fill" transform="translate(10960.8 19762.6)" fill="#F9F9FA"/>
</g>
<g id="Vector">
<use xlink:href="#path20_fill" transform="translate(10965.6 19762.6)" fill="#F9F9FA"/>
</g>
<g id="Vector">
<use xlink:href="#path21_fill" transform="translate(10969.8 19762.5)" fill="#F9F9FA"/>
</g>
<g id="Vector">
<use xlink:href="#path22_fill" transform="translate(10975.1 19762.6)" fill="#F9F9FA"/>
</g>
<g id="Vector">
<use xlink:href="#path23_fill" transform="translate(10977.3 19762.6)" fill="#F9F9FA"/>
</g>
<g id="Vector">
<use xlink:href="#path24_fill" transform="translate(10983.3 19762.6)" fill="#F9F9FA"/>
</g>
<g id="Vector">
<use xlink:href="#path25_fill" transform="translate(10988.5 19762.6)" fill="#F9F9FA"/>
</g>
<g id="Vector">
<use xlink:href="#path26_fill" transform="translate(10992.6 19762.6)" fill="#F9F9FA"/>
</g>
<g id="Vector">
<use xlink:href="#path27_fill" transform="translate(10998.2 19762.5)" fill="#F9F9FA"/>
</g>
<g id="Vector">
<use xlink:href="#path28_fill" transform="translate(11003.6 19762.6)" fill="#F9F9FA"/>
</g>
</g>
</g>
</g>
<defs>
<linearGradient id="paint1_linear" x1="0" y1="0" x2="1" y2="0" gradientUnits="userSpaceOnUse" gradientTransform="matrix(0 35.8942 -36.3281 0 27.312 -0.00918709)">
<stop offset="0" stop-color="#257CB0"/>
<stop offset="0.2863" stop-color="#4A93B5"/>
<stop offset="0.767" stop-color="#78BCBB"/>
<stop offset="1" stop-color="#89CFBD"/>
</linearGradient>
<linearGradient id="paint2_linear" x1="0" y1="0" x2="1" y2="0" gradientUnits="userSpaceOnUse" gradientTransform="matrix(23.2388 0 0 22.9612 -0.011286 -2.45468)">
<stop offset="0" stop-color="#52C1AD"/>
<stop offset="1" stop-color="#DEE89A"/>
</linearGradient>
<linearGradient id="paint3_linear" x1="0" y1="0" x2="1" y2="0" gradientUnits="userSpaceOnUse" gradientTransform="matrix(0 18.077 -18.2955 0 20.7557 0.00753975)">
<stop offset="0" stop-color="#EC413D"/>
<stop offset="0.1668" stop-color="#DA4452"/>
<stop offset="0.5748" stop-color="#B0487A"/>
<stop offset="0.8619" stop-color="#954A92"/>
<stop offset="1" stop-color="#8A4A9D"/>
</linearGradient>
<linearGradient id="paint4_linear" x1="0" y1="0" x2="1" y2="0" gradientUnits="userSpaceOnUse" gradientTransform="matrix(0 9.64065 -9.75718 0 11.5634 0.00221757)">
<stop offset="0" stop-color="#F58879"/>
<stop offset="0.1194" stop-color="#F69079"/>
<stop offset="0.7128" stop-color="#FCB877"/>
<stop offset="1" stop-color="#FEC874"/>
</linearGradient>
<path id="path0_fill" d="M 164 45.8404C 164 49.8004 160.762 53 156.754 53L 7.24614 53C 3.23832 53 0 49.8004 0 45.8404L 0 7.15959C 0 3.19964 3.23832 0 7.24614 0L 156.754 0C 160.762 0 164 3.19964 164 7.15959L 164 45.8404Z"/>
<path id="path1_fill" d="M 4.89236e-07 -2.41696e-07L 4.89236e-07 17.9307L 4.89236e-07 35.893L 18.3077 17.9307L 4.89236e-07 -2.41696e-07Z"/>
<path id="path2_fill" d="M 23.2133 13.2421L 15.8389 9.02869L 4.89236e-07 -1.20848e-07L 4.89236e-07 0.126718L 18.3077 18.0574L 23.2133 13.2421Z"/>
<path id="path3_fill" d="M 4.89236e-07 17.9623L 4.89236e-07 18.0891L 15.8389 9.06037L 23.2133 4.8153L 18.3077 4.83393e-07L 4.89236e-07 17.9623Z"/>
<path id="path4_fill" d="M 4.90557 -9.66785e-07L 0 4.8153L 4.90557 9.6306L 13.3701 4.8153L 4.90557 -9.66785e-07Z"/>
<path id="path5_fill" d="M 4.93764 10.8344C 4.26432 10.8344 3.62307 10.7077 3.04595 10.4543C 2.46882 10.2008 1.98788 9.82068 1.60313 9.28213L 1.47487 9.28213C 1.539 9.88404 1.60313 10.4543 1.60313 11.0245L 1.60313 15.3329L 3.91389e-06 15.3329L 3.91389e-06 0.190078L 1.31456 0.190078L 1.539 1.61566L 1.60313 1.61566C 2.01995 1.04543 2.50088 0.633592 3.04595 0.380155C 3.59101 0.126718 4.23226 4.83393e-07 4.93764 4.83393e-07C 6.34839 4.83393e-07 7.40646 0.475195 8.17596 1.42558C 8.94546 2.37597 9.3302 3.70652 9.3302 5.41721C 9.3302 7.12791 8.94546 8.45846 8.17596 9.40885C 7.37439 10.3592 6.28426 10.8344 4.93764 10.8344ZM 4.68113 1.36222C 3.591 1.36222 2.82151 1.64734 2.34057 2.24925C 1.85963 2.85117 1.60313 3.76988 1.60313 5.06874L 1.60313 5.41721C 1.60313 6.87448 1.85963 7.91991 2.34057 8.5535C 2.82151 9.18709 3.62307 9.50389 4.71319 9.50389C 5.61095 9.50389 6.34839 9.12373 6.86139 8.3951C 7.37439 7.66647 7.63089 6.65272 7.63089 5.38554C 7.63089 4.08667 7.37439 3.07292 6.86139 2.37597C 6.34839 1.7107 5.64301 1.36222 4.68113 1.36222Z"/>
<path id="path6_fill" d="M 1.60312 14.8261L -3.91389e-06 14.8261L -3.91389e-06 2.41696e-07L 1.60312 2.41696e-07L 1.60312 14.8261Z"/>
<path id="path7_fill" d="M 7.2782 10.6127L 6.95758 9.12373L 6.89345 9.12373C 6.38045 9.789 5.83538 10.2325 5.32238 10.4543C 4.80938 10.676 4.13607 10.8027 3.36656 10.8027C 2.3085 10.8027 1.50694 10.5493 0.897754 10.0108C 0.288565 9.47221 -3.91389e-06 8.71189 -3.91389e-06 7.72983C -3.91389e-06 5.60729 1.69931 4.53019 5.13001 4.40347L 6.92551 4.34011L 6.92551 3.70651C 6.92551 2.88284 6.73314 2.28093 6.38045 1.90078C 6.02777 1.52062 5.45063 1.33054 4.68113 1.33054C 3.81544 1.33054 2.78944 1.58398 1.69932 2.12253L 1.21838 0.918709C 1.73138 0.633593 2.3085 0.411836 2.91769 0.253438C 3.52688 0.0950398 4.16814 0 4.77733 0C 6.02777 0 6.95757 0.285116 7.56676 0.82367C 8.17595 1.36222 8.46452 2.24925 8.46452 3.48476L 8.46452 10.6127L 7.2782 10.6127ZM 3.65514 9.50389C 4.64908 9.50389 5.41857 9.21877 5.9957 8.68021C 6.57282 8.14166 6.86139 7.38135 6.86139 6.39928L 6.86139 5.44889L 5.25826 5.51225C 3.97576 5.54393 3.07801 5.76569 2.50088 6.11417C 1.92376 6.46264 1.66725 7.0012 1.66725 7.72983C 1.66725 8.30006 1.82757 8.74357 2.18026 9.02869C 2.53294 9.34549 3.01388 9.50389 3.65514 9.50389Z"/>
<path id="path8_fill" d="M 1.95694e-06 0L 1.69931 0L 4.00782 5.95577C 4.52082 7.31799 4.84145 8.30006 4.93763 8.90197L 5.00176 8.90197C 5.09795 8.58518 5.25826 8.01494 5.51476 7.25463C 5.77126 6.46264 6.66901 4.05499 8.14389 0.0316791L 9.87527 0.0316791L 5.32239 11.9115C 4.87351 13.0837 4.3605 13.9074 3.75132 14.4142C 3.14213 14.9211 2.40469 15.1429 1.539 15.1429C 1.05806 15.1429 0.577124 15.0795 0.0961857 14.9845L 0.0961857 13.7173C 0.448874 13.7806 0.833629 13.844 1.2825 13.844C 2.37263 13.844 3.17419 13.2421 3.62307 12.0066L 4.2002 10.5176L 1.95694e-06 0Z"/>
<path id="path9_fill" d="M 8.20802 0.79199C 8.72102 1.20382 9.77908 2.09086 9.77908 3.73819C 9.77908 5.35386 8.84927 6.11416 7.91946 6.8428C 7.63089 7.12791 7.31026 7.44471 7.31026 7.9199C 7.31026 8.3951 7.63089 8.64853 7.88739 8.87029L 8.68896 9.47221C 9.65083 10.2959 10.5486 11.0245 10.5486 12.5451C 10.5486 14.6043 8.52864 16.6635 4.74525 16.6635C 1.539 16.6635 0 15.1429 0 13.5272C 0 12.7352 0.384747 11.6264 1.69931 10.8661C 3.078 10.0424 4.93763 9.91572 5.93157 9.85236C 5.61095 9.4722 5.25826 9.06037 5.25826 8.36342C 5.25826 7.98326 5.35445 7.76151 5.4827 7.50807C 5.2262 7.53975 5.00176 7.53975 4.77732 7.53975C 2.43675 7.53975 1.12219 5.82905 1.12219 4.11835C 1.12219 3.1046 1.57106 1.99582 2.53294 1.20383C 3.78338 0.190078 5.29033 -4.83393e-07 6.47664 -4.83393e-07L 11.0295 -4.83393e-07L 9.61877 0.79199L 8.20802 0.79199ZM 6.63695 10.486C 6.44458 10.4543 6.34839 10.4543 6.12395 10.4543C 5.93158 10.4543 4.74526 10.486 3.81544 10.8027C 3.3345 10.9611 1.92375 11.4997 1.92375 13.052C 1.92375 14.6043 3.46276 15.7131 5.80333 15.7131C 7.91945 15.7131 9.04165 14.6993 9.04165 13.3688C 9.04165 12.26 8.33627 11.6581 6.63695 10.486ZM 7.2782 6.33592C 7.79121 5.82905 7.82326 5.1321 7.82326 4.75194C 7.82326 3.16796 6.86139 0.728632 5.03383 0.728632C 4.4567 0.728632 3.84751 1.01375 3.49482 1.45726C 3.11007 1.90078 3.01388 2.50269 3.01388 3.07292C 3.01388 4.53019 3.87957 6.96951 5.77126 6.96951C 6.34839 6.93784 6.92552 6.6844 7.2782 6.33592Z"/>
<path id="path10_fill" d="M 5.38651 10.4226C 1.8917 10.4226 -1.95694e-06 7.72983 -1.95694e-06 5.2905C -1.95694e-06 2.43933 2.37263 -9.66785e-07 5.70714 -9.66785e-07C 8.94546 -9.66785e-07 10.9654 2.50269 10.9654 5.1321C 10.9975 7.69815 8.97752 10.4226 5.38651 10.4226ZM 8.14389 8.64853C 8.68895 7.95158 8.8172 7.06455 8.8172 6.24088C 8.8172 4.30843 7.88739 0.665273 5.16207 0.665273C 4.42463 0.665273 3.71926 0.950388 3.17419 1.3939C 2.30851 2.15421 2.14819 3.1046 2.14819 4.05499C 2.14819 6.2092 3.23831 9.75732 5.89951 9.75732C 6.7652 9.75732 7.63089 9.34549 8.14389 8.64853Z"/>
<path id="path11_fill" d="M 5.38651 10.4226C 1.89169 10.4226 1.95694e-06 7.72983 1.95694e-06 5.2905C 1.95694e-06 2.43933 2.37263 -9.66785e-07 5.70713 -9.66785e-07C 8.94545 -9.66785e-07 10.9654 2.50269 10.9654 5.1321C 10.9975 7.69815 8.97752 10.4226 5.38651 10.4226ZM 8.14389 8.64853C 8.68895 7.95158 8.81721 7.06455 8.81721 6.24088C 8.81721 4.30843 7.88739 0.665273 5.16207 0.665273C 4.42463 0.665273 3.71926 0.950388 3.17419 1.3939C 2.3085 2.15421 2.14819 3.1046 2.14819 4.05499C 2.14819 6.2092 3.23832 9.75732 5.89951 9.75732C 6.7652 9.75732 7.63089 9.34549 8.14389 8.64853Z"/>
<path id="path12_fill" d="M 15.2938 15.0161L 12.1196 15.7448C 10.8371 15.9348 9.6829 16.1249 8.46452 16.1249C 2.34057 16.1249 -9.78472e-07 11.6898 -9.78472e-07 8.20502C -9.78472e-07 3.95995 3.30245 -4.83393e-07 8.94546 -4.83393e-07C 10.1318 -4.83393e-07 11.286 0.190077 12.3441 0.475194C 14.0113 0.950388 14.7808 1.48894 15.2618 1.83742L 13.4342 3.5798L 12.6647 3.76987L 13.2098 2.88284C 12.4403 2.15421 11.0936 0.82367 8.46452 0.82367C 4.9697 0.82367 2.3085 3.45308 2.3085 7.28631C 2.3085 11.4047 5.32238 15.2696 10.1638 15.2696C 11.5746 15.2696 12.312 14.9845 12.9853 14.731L 12.9853 11.1512L 9.65083 11.3413L 11.4143 10.3909L 16.1275 10.3909L 15.5503 10.9295C 15.39 11.0562 15.358 11.1195 15.3259 11.2779C 15.2938 11.468 15.2938 12.1016 15.2938 12.3234L 15.2938 15.0161Z"/>
<path id="path13_fill" d="M 4.7132 14.8894C 3.97576 14.8261 3.81545 14.6993 3.81545 13.844L 3.81545 13.5906L 3.81545 1.42558C 3.81545 1.3939 3.81545 1.33054 3.81545 1.29886C 3.91164 0.538553 4.13607 0.411835 4.80938 0L 1.66725 0L -3.91389e-06 0.79199L 1.69932 0.79199L 1.69932 13.5906L 1.69932 14.3192C 1.69932 14.7627 1.60313 14.8261 1.09013 15.4913L 5.00176 15.4913L 5.83539 15.0161C 5.45064 14.9528 5.09795 14.9211 4.7132 14.8894Z"/>
<path id="path14_fill" d="M 8.0477 9.69396C 7.7912 9.82068 7.56676 9.97908 7.31026 10.0741C 6.57282 10.3909 5.83539 10.486 5.16207 10.486C 4.4567 10.486 3.36657 10.4543 2.24438 9.6306C 0.673314 8.5535 0 6.6844 0 5.03706C 0 1.67902 2.78945 4.50194e-15 5.03383 4.50194e-15C 5.83539 4.50194e-15 6.63695 0.190078 7.31026 0.601913C 8.40039 1.33054 8.68896 2.24925 8.84927 2.75613L 3.68719 4.87866L 1.98788 5.00538C 2.53295 7.76151 4.42463 9.37717 6.54076 9.37717C 7.66295 9.37717 8.46451 8.99701 9.23401 8.61685L 8.0477 9.69396ZM 5.9957 3.23132C 6.41252 3.07292 6.63695 2.94621 6.63695 2.62941C 6.63695 1.77406 5.64301 0.760311 4.45669 0.760311C 3.55894 0.760311 1.92375 1.42558 1.92375 3.76987C 1.92375 4.15003 1.95582 4.53019 1.98788 4.91034L 5.9957 3.23132Z"/>
<path id="path15_fill" d="M 0.67331 0.158398L 0.67331 1.58398L 0.480942 1.58398L 0.480942 0.158398L 3.91389e-06 0.158398L 3.91389e-06 -4.83393e-07L 1.12219 -4.83393e-07L 1.12219 0.158398L 0.67331 0.158398Z"/>
<path id="path16_fill" d="M 1.18631 1.58398L 1.18631 0.126718L 0.737439 1.58398L 0.609191 1.58398L 0.160317 0.126718L 0.160317 1.58398L 3.91389e-06 1.58398L 3.91389e-06 -4.83393e-07L 0.288565 -4.83393e-07L 0.705374 1.26718L 1.12219 -4.83393e-07L 1.41075 -4.83393e-07L 1.41075 1.58398L 1.18631 1.58398Z"/>
<path id="path17_fill" d="M 4.36051 4.43515L 3.27038 4.43515C 3.27038 4.27675 3.1742 3.86491 2.94976 3.16796L 1.34663 3.16796C 1.12219 3.86491 1.026 4.27675 1.026 4.43515L -1.95694e-06 4.43515C -1.95694e-06 4.34011 0.256498 3.61148 0.801562 2.24925C 1.34663 0.887029 1.60313 0.126718 1.60313 -4.83393e-07L 2.91769 -4.83393e-07C 2.91769 0.126718 3.17419 0.855349 3.65513 2.21757C 4.10401 3.5798 4.36051 4.30843 4.36051 4.43515ZM 2.75738 2.50269C 2.37263 1.33054 2.18025 0.696952 2.18025 0.601913L 2.11613 0.601913C 2.11613 0.696952 1.92376 1.33054 1.50694 2.50269L 2.75738 2.50269Z"/>
<path id="path18_fill" d="M 3.6872 4.46683L 2.82151 4.46683C 2.82151 4.37179 2.50088 3.89659 1.85963 2.97788C 1.18632 2.0275 0.833629 1.3939 0.737441 1.04543L 0.673312 1.04543C 0.737437 1.5523 0.7695 1.99582 0.7695 2.40765C 0.7695 2.97788 0.7695 3.64316 0.833625 4.46683L 9.78472e-07 4.46683C 0.0320635 3.76987 0.0641251 2.97788 0.0641251 2.15421C 0.0641251 1.33054 0.0320635 0.633592 9.78472e-07 0.0316791L 1.026 0.0316791C 1.026 0.158398 1.31456 0.633592 1.89169 1.45726C 2.50088 2.34429 2.85357 2.9462 2.91769 3.263L 2.98182 3.263C 2.9177 2.75613 2.88563 2.31261 2.88563 1.90078C 2.88563 1.29886 2.85357 0.665272 2.82151 0L 3.6872 0C 3.65513 0.570233 3.62307 1.26718 3.62307 2.12253C 3.65513 3.00956 3.65513 3.76987 3.6872 4.46683Z"/>
<path id="path19_fill" d="M 3.81544 2.05917C 3.81544 2.69277 3.591 3.263 3.17419 3.73819C 2.75738 4.21339 2.18025 4.46683 1.41075 4.46683C 1.05806 4.46683 0.609189 4.46683 0 4.43515C 0.0320626 3.73819 0.0320645 2.97788 0.0320645 2.12253C 0.0320645 1.29886 0.0320626 0.601912 0 -4.83393e-07L 0.609187 -4.83393e-07C 0.705374 -4.83393e-07 0.86569 -4.83393e-07 1.05807 -4.83393e-07C 1.25044 -4.83393e-07 1.37869 -4.83393e-07 1.44282 -4.83393e-07C 2.27644 -4.83393e-07 2.88563 0.190078 3.23832 0.601913C 3.62307 0.982068 3.81544 1.48894 3.81544 2.05917ZM 2.85357 2.21757C 2.85357 1.77406 2.72532 1.42558 2.46882 1.10879C 2.21232 0.82367 1.82757 0.665272 1.2825 0.665272C 1.18631 0.665272 1.05806 0.665272 0.865688 0.696951C 0.897751 1.14047 0.897753 1.61566 0.897753 2.12253C 0.897753 2.66109 0.89775 3.19964 0.929812 3.73819C 1.09013 3.76987 1.21838 3.76987 1.37869 3.76987C 1.85963 3.76987 2.24438 3.61148 2.46882 3.32636C 2.75738 3.00956 2.85357 2.62941 2.85357 2.21757Z"/>
<path id="path20_fill" d="M 3.62307 4.43515L 2.59707 4.43515C 2.34057 3.64316 2.11613 3.13628 1.98788 2.9462C 1.85963 2.75613 1.60313 2.66109 1.31456 2.66109C 1.18631 2.66109 1.05807 2.66109 0.929815 2.66109C 0.929815 3.23132 0.929812 3.83323 0.961875 4.43515L -1.95694e-06 4.43515C 0.0320606 3.73819 0.0320626 2.97788 0.0320626 2.12253C 0.0320626 1.29886 0.0320606 0.601912 -1.95694e-06 -4.83393e-07L 0.60919 -4.83393e-07C 0.673315 -4.83393e-07 0.833629 -4.83393e-07 1.026 -4.83393e-07C 1.25044 -4.83393e-07 1.44282 -4.83393e-07 1.63519 -4.83393e-07C 2.69326 -4.83393e-07 3.20625 0.348476 3.20625 1.07711C 3.20625 1.64734 2.9177 2.0275 2.30851 2.24925L 2.30851 2.31261C 2.53294 2.37597 2.75738 2.56605 2.91769 2.85116C 3.11007 3.1046 3.33451 3.64316 3.62307 4.43515ZM 2.34057 1.29886C 2.34057 0.85535 2.052 0.633592 1.44281 0.633592C 1.21838 0.633592 1.026 0.665272 0.865691 0.696951C 0.897754 1.04543 0.897751 1.52062 0.897751 2.05917C 1.026 2.05917 1.12219 2.05917 1.21838 2.05917C 1.98788 2.05917 2.34057 1.80574 2.34057 1.29886Z"/>
<path id="path21_fill" d="M 4.36051 2.24925C 4.36051 2.9462 4.13607 3.51644 3.71926 3.99163C 3.30245 4.43515 2.75738 4.68858 2.11613 4.68858C 1.50694 4.68858 0.993937 4.46683 0.609187 4.05499C 0.192373 3.64316 0 3.1046 0 2.43933C 0 1.74238 0.224438 1.17215 0.641251 0.696952C 1.05806 0.253437 1.60313 2.41696e-07 2.24438 2.41696e-07C 2.85357 2.41696e-07 3.36657 0.221758 3.75132 0.633593C 4.16813 1.07711 4.36051 1.61566 4.36051 2.24925ZM 3.43069 2.34429C 3.43069 1.8691 3.30245 1.48894 3.07801 1.20383C 2.82151 0.918709 2.53294 0.76031 2.18026 0.76031C 1.85963 0.76031 1.57107 0.918709 1.31457 1.20383C 1.09013 1.48894 0.961877 1.8691 0.961877 2.34429C 0.961877 2.81949 1.09013 3.19964 1.34663 3.48476C 1.60313 3.76987 1.89169 3.92827 2.24438 3.92827C 2.565 3.92827 2.85357 3.76987 3.11007 3.48476C 3.30244 3.16796 3.43069 2.81949 3.43069 2.34429Z"/>
<path id="path22_fill" d="M 0.961876 4.43515L -9.78472e-07 4.43515C 0.0320616 3.73819 0.0320635 2.9462 0.0320635 2.12253C 0.0320635 1.29886 0.0320616 0.601912 -9.78472e-07 -4.83393e-07L 0.961876 -4.83393e-07C 0.929813 0.570233 0.929816 1.26718 0.929816 2.12253C 0.929816 2.97788 0.929813 3.73819 0.961876 4.43515Z"/>
<path id="path23_fill" d="M 3.81545 2.05917C 3.81545 2.69277 3.59101 3.263 3.17419 3.73819C 2.75738 4.21339 2.18025 4.46683 1.41075 4.46683C 1.05807 4.46683 0.609187 4.46683 -1.95694e-06 4.43515C 0.0320606 3.73819 0.0320626 2.97788 0.0320626 2.12253C 0.0320626 1.29886 0.0320606 0.601912 -1.95694e-06 -4.83393e-07L 0.60919 -4.83393e-07C 0.705377 -4.83393e-07 0.865688 -4.83393e-07 1.05806 -4.83393e-07C 1.25044 -4.83393e-07 1.37869 -4.83393e-07 1.44281 -4.83393e-07C 2.27644 -4.83393e-07 2.88563 0.190078 3.23832 0.601913C 3.62307 0.982068 3.81545 1.48894 3.81545 2.05917ZM 2.85357 2.21757C 2.85357 1.77406 2.72532 1.42558 2.46882 1.10879C 2.21232 0.82367 1.82756 0.665272 1.2825 0.665272C 1.18631 0.665272 1.05807 0.665272 0.865691 0.696951C 0.897754 1.14047 0.897751 1.61566 0.897751 2.12253C 0.897751 2.66109 0.897753 3.19964 0.929815 3.73819C 1.09013 3.76987 1.21838 3.76987 1.37869 3.76987C 1.85963 3.76987 2.24438 3.61148 2.46882 3.32636C 2.75738 3.00956 2.85357 2.62941 2.85357 2.21757Z"/>
<path id="path24_fill" d="M 4.36051 4.43515L 3.27038 4.43515C 3.27038 4.27675 3.17419 3.86491 2.94976 3.16796L 1.34663 3.16796C 1.12219 3.86491 1.026 4.27675 1.026 4.43515L -3.91389e-06 4.43515C -3.91389e-06 4.34011 0.256497 3.61148 0.80156 2.24925C 1.34662 0.887029 1.60312 0.126718 1.60312 -4.83393e-07L 2.91769 -4.83393e-07C 2.91769 0.126718 3.1742 0.855349 3.65514 2.21757C 4.13607 3.5798 4.36051 4.30843 4.36051 4.43515ZM 2.78944 2.50269C 2.40469 1.33054 2.21232 0.696952 2.21232 0.601913L 2.14819 0.601913C 2.14819 0.696952 1.95582 1.33054 1.539 2.50269L 2.78944 2.50269Z"/>
<path id="path25_fill" d="M 3.27038 1.17215C 3.27038 1.7107 3.07801 2.12253 2.66119 2.37597C 2.24438 2.62941 1.76344 2.75613 1.15425 2.75613C 1.05806 2.75613 0.961881 2.75613 0.929818 2.75613C 0.929818 3.16796 0.92981 3.73819 0.961873 4.43515L -3.91389e-06 4.43515C 0.0320586 3.76987 0.0320606 3.00956 0.0320606 2.12253C 0.0320606 1.29886 0.0320586 0.601912 -3.91389e-06 -4.83393e-07L 0.609193 -4.83393e-07C 0.70538 -4.83393e-07 0.865693 -4.83393e-07 1.09013 -4.83393e-07C 1.34663 -4.83393e-07 1.53901 -4.83393e-07 1.73138 -4.83393e-07C 2.18026 -4.83393e-07 2.53294 0.0950388 2.82151 0.285117C 3.11007 0.475194 3.27038 0.760311 3.27038 1.17215ZM 2.37263 1.33054C 2.37263 0.855349 2.05201 0.601913 1.37869 0.601913C 1.21838 0.601913 1.05806 0.633593 0.865689 0.665272C 0.897752 1.10879 0.897754 1.58398 0.897754 2.12253C 0.961879 2.12253 1.02601 2.12253 1.09013 2.12253C 1.95582 2.12253 2.37263 1.8691 2.37263 1.33054Z"/>
<path id="path26_fill" d="M 3.27038 1.17215C 3.27038 1.7107 3.078 2.12253 2.66119 2.37597C 2.24438 2.62941 1.76344 2.75613 1.15426 2.75613C 1.05807 2.75613 0.961877 2.75613 0.929814 2.75613C 0.929814 3.16796 0.929816 3.73819 0.961879 4.43515L 1.95694e-06 4.43515C 0.0320645 3.76987 0.0320665 3.00956 0.0320665 2.12253C 0.0320665 1.29886 0.0320645 0.601912 1.95694e-06 -4.83393e-07L 0.609189 -4.83393e-07C 0.705376 -4.83393e-07 0.865689 -4.83393e-07 1.09013 -4.83393e-07C 1.34663 -4.83393e-07 1.539 -4.83393e-07 1.73138 -4.83393e-07C 2.18025 -4.83393e-07 2.53294 0.0950388 2.8215 0.285117C 3.14213 0.475194 3.27038 0.760311 3.27038 1.17215ZM 2.40469 1.33054C 2.40469 0.855349 2.08407 0.601913 1.41075 0.601913C 1.25044 0.601913 1.09013 0.633593 0.89775 0.665272C 0.929812 1.10879 0.929814 1.58398 0.929814 2.12253C 0.993939 2.12253 1.05807 2.12253 1.12219 2.12253C 1.98788 2.12253 2.40469 1.8691 2.40469 1.33054Z"/>
<path id="path27_fill" d="M 4.36051 2.24925C 4.36051 2.9462 4.13607 3.51644 3.71925 3.99163C 3.30244 4.43515 2.75738 4.68858 2.11613 4.68858C 1.50694 4.68858 0.993943 4.46683 0.609193 4.05499C 0.192379 3.64316 -3.91389e-06 3.1046 -3.91389e-06 2.43933C -3.91389e-06 1.74238 0.224434 1.17215 0.641247 0.696952C 1.05806 0.253437 1.60312 2.41696e-07 2.24438 2.41696e-07C 2.85356 2.41696e-07 3.36657 0.221758 3.75132 0.633593C 4.16813 1.07711 4.36051 1.61566 4.36051 2.24925ZM 3.39863 2.34429C 3.39863 1.8691 3.27038 1.48894 3.04594 1.20383C 2.78944 0.918709 2.50088 0.76031 2.14819 0.76031C 1.82757 0.76031 1.539 0.918709 1.2825 1.20383C 1.05806 1.48894 0.929818 1.8691 0.929818 2.34429C 0.929818 2.81949 1.05806 3.19964 1.31456 3.48476C 1.57106 3.76987 1.85963 3.92827 2.21232 3.92827C 2.53295 3.92827 2.8215 3.76987 3.078 3.48476C 3.30244 3.16796 3.39863 2.81949 3.39863 2.34429Z"/>
<path id="path28_fill" d="M 3.68719 4.46683L 2.8215 4.46683C 2.8215 4.37179 2.50088 3.89659 1.85962 2.97788C 1.18631 2.0275 0.833623 1.3939 0.737435 1.04543L 0.673316 1.04543C 0.737441 1.5523 0.7695 1.99582 0.7695 2.40765C 0.7695 2.97788 0.769503 3.64316 0.833629 4.46683L 0 4.46683C 0.0320626 3.76987 0.064129 2.97788 0.064129 2.15421C 0.064129 1.33054 0.0320626 0.633592 0 0.0316791L 1.02601 0.0316791C 1.02601 0.158398 1.31456 0.633592 1.89169 1.45726C 2.50088 2.34429 2.85357 2.9462 2.9177 3.263L 2.98181 3.263C 2.91769 2.75613 2.88563 2.31261 2.88563 1.90078C 2.88563 1.29886 2.88563 0.665272 2.8215 0L 3.68719 0C 3.65513 0.570233 3.62307 1.26718 3.62307 2.12253C 3.62307 3.00956 3.65513 3.76987 3.68719 4.46683Z"/>
</defs>
</svg>
