<svg width="97" height="67" viewBox="0 0 97 67" version="1.1" xmlns="http://www.w3.org/2000/svg" xmlns:xlink="http://www.w3.org/1999/xlink">
<title>mailing</title>
<desc>Created using Figma</desc>
<g id="Canvas" transform="translate(-7774 -7410)">
<g id="mailing">
<g id="Vector">
<use xlink:href="#path0_fill" transform="translate(7774 7411.18)" fill="#D6CED1"/>
</g>
<g id="Vector">
<use xlink:href="#path1_fill" transform="translate(7775.45 7439.5)" fill="#C2B8B9"/>
</g>
<g id="Vector">
<use xlink:href="#path2_fill" transform="translate(7775.43 7410)" fill="#ECE7EA"/>
</g>
<g id="Vector">
<use xlink:href="#path3_fill" transform="translate(7839.68 7445.59)" fill="#96BF3D"/>
</g>
<g id="Vector">
<use xlink:href="#path4_fill" transform="translate(7851.12 7453.45)" fill="#FFFFFF"/>
</g>
</g>
</g>
<defs>
<path id="path0_fill" d="M 78.6173 -2.32557e-08L 40.0002 25.5027L 1.38307 -2.32557e-08C 0.535885 0.811574 0 1.9695 0 3.25392L 0 53.3865C 0 54.6772 0.541019 55.8399 1.39536 56.6519L 40 31.1622L 79.6711 57.8203L 80 57.8203L 80 3.25392C 80.0004 1.9695 79.4645 0.811574 78.6173 -2.32557e-08Z"/>
<path id="path1_fill" d="M 2.93461 29.5L 80 29.5L 52.4774 -2.55812e-07L 26.4325 -2.55812e-07L 1.14363e-08 28.3317C 0.776468 29.0542 1.80551 29.5 2.93461 29.5Z"/>
<path id="path2_fill" d="M 2.98693 0.000190231C 1.83652 0.000190231 0.788462 0.450747 2.82519e-08 1.18002L 36.951 40.0801C 38.628 41.8454 41.3718 41.8454 43.0488 40.0801L 80 1.17983C 79.2115 0.450557 78.1635 -1.74417e-07 77.0131 -1.74417e-07L 2.98693 -1.74417e-07L 2.98693 0.000190231Z"/>
<path id="path3_fill" d="M 15.659 31.4063C 24.3073 31.4063 31.318 24.3758 31.318 15.7032C 31.318 7.03054 24.3073 0 15.659 0C 7.01078 0 0 7.03054 0 15.7032C 0 24.3758 7.01078 31.4063 15.659 31.4063Z"/>
<path id="path4_fill" d="M 4.21599 15.7034C 3.21789 15.7034 2.40922 14.8923 2.40922 13.8916L 2.40922 5.93681C 1.77364 6.16144 1.03805 6.01923 0.529172 5.50912C -0.176391 4.80157 -0.176391 3.65429 0.529172 2.94674L 2.93818 0.530933C 3.45514 0.012519 4.23234 -0.142569 4.90747 0.138126C 5.58281 0.418614 6.02296 1.07945 6.02296 1.81212L 6.02296 13.8916C 6.02275 14.8921 5.21409 15.7034 4.21599 15.7034Z"/>
</defs>
</svg>
