<svg width="238" height="225" viewBox="0 0 238 225" version="1.1" xmlns="http://www.w3.org/2000/svg" xmlns:xlink="http://www.w3.org/1999/xlink">
<title>Doctor service</title>
<desc>Created using Figma</desc>
<g id="Canvas" transform="translate(-10624 -18606)">
<g id="Doctor service">
<g id="Group 2">
<g id="Group">
<g id="Group">
<g id="Group">
<g id="path0 fill 8">
<use xlink:href="#path0_fill" transform="translate(10629.5 18649.3)" fill="#BEE05F" fill-opacity="0.32"/>
</g>
<g id="Vector">
<use xlink:href="#path1_fill" transform="translate(10624 18649.3)" fill="#BEE05F"/>
</g>
</g>
<g id="Vector">
<use xlink:href="#path2_fill" transform="translate(10831 18678.3)" fill="#FF8B6C"/>
</g>
</g>
</g>
<g id="Group">
<g id="Vector">
<use xlink:href="#path3_stroke" transform="translate(10704.2 18619.5)" fill="url(#paint3_linear)"/>
</g>
<g id="Group">
<g id="Group">
<g id="Vector">
<use xlink:href="#path4_fill" transform="translate(10741.3 18745.1)" fill="#718F2E"/>
</g>
<g id="Vector">
<use xlink:href="#path5_fill" transform="translate(10725.4 18737.6)" fill="#D5E5B1"/>
</g>
<g id="Group">
<g id="Group">
<g id="Group">
<g id="Vector">
<use xlink:href="#path6_fill" transform="translate(10704.6 18657.2)" fill="#FF8B6C"/>
</g>
</g>
<g id="Vector">
<use xlink:href="#path7_stroke" transform="translate(10707 18662.7)" fill="#333333"/>
</g>
</g>
<g id="Vector">
<use xlink:href="#path8_fill" transform="translate(10726.6 18691.5)" fill="#F2785F"/>
</g>
<g id="Vector">
<use xlink:href="#path9_fill" transform="translate(10733.9 18691.5)" fill="#CC6250"/>
</g>
<g id="Group">
<g id="Group">
<g id="Vector">
<use xlink:href="#path10_fill" transform="translate(10780.9 18657.2)" fill="#E06F58"/>
</g>
</g>
<g id="Vector">
<use xlink:href="#path11_stroke" transform="translate(10786.6 18662.7)" fill="#333333"/>
</g>
<g id="Group">
<g id="Vector">
<use xlink:href="#path12_fill" transform="translate(10711.6 18627.8)" fill="#FF8B6C"/>
</g>
</g>
</g>
</g>
<g id="Group">
<g id="Vector">
<use xlink:href="#path13_fill" transform="translate(10683.3 18737.7)" fill="#96BF3D"/>
</g>
<g id="Vector">
<use xlink:href="#path14_fill" transform="translate(10681.8 18737.3)" fill="#ECF2DD"/>
</g>
<g id="Vector">
<use xlink:href="#path15_fill" transform="translate(10768.2 18737.4)" fill="#ECF2DD"/>
</g>
</g>
</g>
<g id="Group">
<g id="Vector">
<use xlink:href="#path16_fill" transform="translate(10710.8 18764.7)" fill="#D5E5B1"/>
</g>
<g id="Group">
<g id="Vector">
<use xlink:href="#path17_fill" transform="translate(10716.7 18766.5)" fill="#96BF3D"/>
</g>
<g id="Vector">
<use xlink:href="#path18_fill" transform="translate(10712.6 18770.6)" fill="#96BF3D"/>
</g>
</g>
</g>
</g>
<g id="Vector">
<use xlink:href="#path19_fill" transform="translate(10715.4 18617.3)" fill="#333333"/>
</g>
<g id="Vector">
<use xlink:href="#path20_fill" transform="translate(10718.1 18606)" fill="#333333"/>
</g>
<g id="Vector">
<use xlink:href="#path21_fill" transform="translate(10711.6 18652.9)" fill="#333333"/>
</g>
<g id="Vector">
<use xlink:href="#path22_fill" transform="translate(10707.7 18624.4)" fill="#333333"/>
</g>
<g id="Vector">
<use xlink:href="#path23_stroke" transform="translate(10764.5 18655.7)" fill="#333333"/>
</g>
<g id="Vector">
<use xlink:href="#path23_stroke" transform="translate(10742.6 18655.7)" fill="#333333"/>
</g>
<g id="Vector">
<use xlink:href="#path24_fill" transform="translate(10740.5 18676.5)" fill="#FFFFFF"/>
</g>
<g id="Vector">
<use xlink:href="#path25_stroke" transform="translate(10711.6 18669.8)" fill="#82A329"/>
</g>
<g id="Vector">
<use xlink:href="#path26_fill" transform="translate(10697.9 18653.9)" fill="url(#paint27_linear)"/>
</g>
<g id="Vector">
<use xlink:href="#path27_fill" transform="translate(10697.9 18654.5)" fill="#96BF3D"/>
</g>
</g>
</g>
<g id="Group 2.1">
<g id="Group 2">
<g id="Vector">
<use xlink:href="#path28_fill" transform="translate(10765 18709)" fill="#96BF3D"/>
</g>
<g id="Group">
<g id="Vector">
<use xlink:href="#path29_fill" transform="translate(10791.2 18718.3)" fill="#FFFFFF"/>
</g>
<g id="Vector">
<use xlink:href="#path30_fill" transform="translate(10802.4 18718.3)" fill="#FFFFFF"/>
</g>
<g id="Vector">
<use xlink:href="#path29_fill" transform="translate(10813.6 18718.3)" fill="#FFFFFF"/>
</g>
</g>
</g>
<g id="Group">
<g id="Vector">
<use xlink:href="#path31_fill" transform="translate(10781.6 18736.2)" fill="#D5E5B1"/>
</g>
<g id="Group">
<g id="Vector">
<use xlink:href="#path32_fill" transform="translate(10807.8 18745.5)" fill="#96BF3D"/>
</g>
<g id="Vector">
<use xlink:href="#path33_fill" transform="translate(10819 18745.5)" fill="#96BF3D"/>
</g>
<g id="Vector">
<use xlink:href="#path34_fill" transform="translate(10830.2 18745.5)" fill="#96BF3D"/>
</g>
</g>
</g>
</g>
</g>
</g>
<defs>
<linearGradient id="paint3_linear" x1="0" y1="0" x2="1" y2="0" gradientUnits="userSpaceOnUse" gradientTransform="matrix(-31.3256 -6.20363 -6.20597 31.3138 32.7037 7.46508)">
<stop offset="0" stop-color="#718F2E"/>
<stop offset="0.2723" stop-color="#769630"/>
<stop offset="0.6694" stop-color="#85AA36"/>
<stop offset="1" stop-color="#96BF3D"/>
</linearGradient>
<linearGradient id="paint27_linear" x1="0" y1="0" x2="1" y2="0" gradientUnits="userSpaceOnUse" gradientTransform="matrix(-19.718 -3.90494 -3.90641 19.7106 27.0813 3.34202)">
<stop offset="0" stop-color="#718F2E"/>
<stop offset="0.2723" stop-color="#769630"/>
<stop offset="0.6694" stop-color="#85AA36"/>
<stop offset="1" stop-color="#96BF3D"/>
</linearGradient>
<path id="path0_fill" d="M -1.36766e-05 90.4929C -1.36766e-05 113.648 8.683 134.787 22.9399 150.775C 39.4655 169.31 63.4977 180.986 90.2468 180.986C 112.598 180.986 133.074 172.838 148.843 159.314C 168.226 142.739 210.128 112.472 210.128 84.9211C 210.128 47.5144 157.89 20.9713 125.567 7.19577C 123.018 6.1038 120.413 5.15183 117.752 4.28386C 109.069 1.51196 99.8261 1.62025e-05 90.2188 1.62025e-05C 40.4178 -0.0279828 -1.36766e-05 40.5146 -1.36766e-05 90.4929Z"/>
<path id="path1_fill" d="M 210.128 84.9491C 210.128 94.9447 204.61 105.304 196.655 115.216C 193.882 118.66 190.829 122.076 187.608 125.38C 185.928 127.088 184.219 128.796 182.482 130.447C 170.606 141.815 157.47 151.923 148.843 159.342C 147.33 160.63 145.79 161.862 144.193 163.066C 133.578 171.018 121.141 176.702 107.641 179.334C 102.011 180.426 96.2129 181.014 90.2469 181.014C 79.4072 181.014 68.9876 179.082 59.3523 175.582C 58.8481 175.386 58.344 175.19 57.8118 174.994C 44.3112 169.786 32.3791 161.414 22.9399 150.803C 8.68298 134.815 6.83828e-06 113.676 6.83828e-06 90.5209C 6.83828e-06 43.9585 35.068 5.59981 80.1634 0.559981C 81.3398 0.419986 82.5162 0.30799 83.6926 0.223993C 85.8493 0.0559989 88.0341 0 90.2469 0C 90.611 0 91.0031 0 91.3673 0C 91.5073 0 91.6753 0 91.8154 0C 94.5043 0.0559981 97.1652 0.223991 99.7701 0.475983C 104.616 0.979965 109.349 1.87593 113.943 3.13589C 115.231 3.49988 116.52 3.86387 117.78 4.28385C 120.441 5.15182 123.046 6.10379 125.595 7.19575C 130.721 9.37967 136.351 11.8996 142.177 14.6995C 147.022 17.0514 152.008 19.5993 156.994 22.3712C 159.739 23.9112 162.484 25.5071 165.2 27.1591C 165.621 27.4111 166.041 27.663 166.433 27.915C 169.766 29.987 173.015 32.1429 176.18 34.4108C 191.838 45.5824 204.806 59.106 208.839 74.7854C 209.316 76.6614 209.68 78.5933 209.904 80.5252C 210.044 82.0092 210.128 83.4651 210.128 84.9491Z"/>
<path id="path2_fill" d="M 1.51253 0C 1.51253 0 1.14837 0.61598 -2.73531e-05 1.42795L 1.51253 0Z"/>
<path id="path3_stroke" d="M 1.31983 9.00476L 5.38637 10.9317L 5.39083 10.9223L 5.39524 10.9129L 1.31983 9.00476ZM 0.395498 39.5237C 4.88937 39.2889 4.88937 39.289 4.88937 39.289C 4.88937 39.2889 4.88936 39.2888 4.88935 39.2886C 4.88933 39.2881 4.88928 39.2872 4.88921 39.2859C 4.88908 39.2834 4.88887 39.2793 4.88858 39.2737C 4.888 39.2625 4.88712 39.2452 4.88594 39.222C 4.88359 39.1756 4.88008 39.1055 4.87556 39.0133C 4.86652 38.8288 4.85344 38.5555 4.83754 38.2049C 4.80573 37.5034 4.76264 36.493 4.7179 35.2646C 4.62829 32.8047 4.53258 29.4846 4.50675 26.0261C 4.48081 22.5534 4.526 19.0075 4.70948 16.0741C 4.80141 14.6045 4.92411 13.3559 5.07545 12.3811C 5.24294 11.3023 5.39464 10.9143 5.38637 10.9317L -2.74671 7.07778C -3.32218 8.2922 -3.62476 9.75563 -3.81801 11.0004C -4.0274 12.3492 -4.17189 13.8964 -4.27296 15.5123C -4.47549 18.7501 -4.51958 22.5347 -4.493 26.0933C -4.46632 29.666 -4.36772 33.078 -4.27614 35.5922C -4.23029 36.8509 -4.18607 37.8882 -4.15322 38.6126C -4.13679 38.9749 -4.1232 39.2591 -4.11365 39.4538C -4.10888 39.5512 -4.10512 39.6262 -4.10252 39.6775C -4.10122 39.7031 -4.10022 39.7228 -4.09952 39.7364C -4.09917 39.7431 -4.0989 39.7484 -4.09871 39.7521C -4.09861 39.7539 -4.09853 39.7554 -4.09848 39.7565C -4.09845 39.757 -4.09842 39.7575 -4.09841 39.7578C -4.09839 39.7582 -4.09837 39.7585 0.395498 39.5237ZM 5.39524 10.9129C 7.19654 7.06568 10.2794 5.12182 14.6095 4.62414C 19.184 4.09837 25.054 5.2501 31.4475 7.94389L 34.942 -0.350006C 27.7789 -3.36802 20.2743 -5.08619 13.5819 -4.317C 6.64515 -3.51973 0.568868 -0.0037712 -2.75559 7.09663L 5.39524 10.9129Z"/>
<path id="path4_fill" d="M 18.3743 1.62675L 13.1925 11.5664C 11.764 14.2823 7.95475 14.4503 6.30218 11.8464L 2.73531e-05 0.730775C 2.73531e-05 0.758774 10.4756 -1.42515 18.3743 1.62675Z"/>
<path id="path5_fill" d="M 19.0532 10.4156C 41.3489 13.7755 49.4436 4.47985 49.1075 2.7999C 48.7994 1.23196 47.539 0.531983 47.3989 0.447986C 46.3065 0.139997 45.6623 -1.59156e-14 45.6623 -1.59156e-14L 2.63959 0.167996C 2.63959 0.167996 1.9394 0.335987 0.734992 0.671975C -0.329372 1.51195 -3.24239 7.05576 19.0532 10.4156Z"/>
<path id="path6_fill" d="M 7.03043 14.0555C 10.9132 14.0555 14.0608 10.9091 14.0608 7.02776C 14.0608 3.14643 10.9132 0 7.03043 0C 3.14765 0 0 3.14643 0 7.02776C 0 10.9091 3.14765 14.0555 7.03043 14.0555Z"/>
<path id="path7_stroke" d="M 5.07227 1.56697C 5.51993 1.89041 6.14504 1.7897 6.46848 1.34204C 6.79192 0.894373 6.69121 0.269267 6.24355 -0.0541731L 5.07227 1.56697ZM -0.681161 0.612228C -1.08551 0.988415 -1.10835 1.62117 -0.73216 2.02552C -0.355973 2.42988 0.27678 2.45271 0.681133 2.07652L -0.681161 0.612228ZM 5.65791 0.756397C 6.24355 -0.0541731 6.24311 -0.0544918 6.24265 -0.0548181C 6.24249 -0.0549374 6.24202 -0.0552722 6.24169 -0.0555109C 6.24103 -0.0559886 6.24032 -0.0564979 6.23956 -0.0570385C 6.23805 -0.0581195 6.23636 -0.0593255 6.23449 -0.0606532C 6.23075 -0.0633082 6.22629 -0.0664507 6.22111 -0.0700534C 6.21076 -0.0772574 6.19756 -0.0863111 6.1816 -0.0969967C 6.14968 -0.118355 6.10659 -0.146314 6.05302 -0.179112C 5.9461 -0.244583 5.79621 -0.330092 5.60907 -0.421115C 5.23711 -0.60203 4.70408 -0.811498 4.05889 -0.922182C 2.73087 -1.15001 0.990033 -0.942555 -0.681161 0.612228L 0.681133 2.07652C 1.83891 0.999395 2.92703 0.91286 3.72073 1.04902C 4.1364 1.12033 4.48742 1.25735 4.73429 1.37743C 4.85656 1.4369 4.94979 1.49051 5.00863 1.52654C 5.03794 1.54449 5.05839 1.55787 5.0693 1.56517C 5.07474 1.56881 5.07777 1.57091 5.0783 1.57128C 5.07857 1.57147 5.0782 1.57122 5.0772 1.57051C 5.0767 1.57015 5.07604 1.56968 5.07522 1.56909C 5.07481 1.5688 5.07436 1.56847 5.07386 1.56812C 5.07362 1.56794 5.07322 1.56765 5.0731 1.56757C 5.07269 1.56727 5.07227 1.56697 5.65791 0.756397Z"/>
<path id="path8_fill" d="M 0.994223 46.4784L 3.23499 45.5544C 8.02463 43.5665 11.2738 32.5909 11.5819 27.4391L 12.8423 14.6995C 12.8423 12.8236 12.5902 11.0036 12.142 9.23968C 11.3578 6.24378 9.95727 3.41589 8.05262 0.923971C 7.80054 0.587983 7.54849 0.33599 7.32442 0.195995L 42.3364 -1.70893e-06L 43.1207 -1.70893e-06C 42.9246 0.111994 42.7285 0.223989 42.5044 0.391983C 42.5044 0.391983 42.5044 0.391983 42.4764 0.391983C 37.0706 4.42384 34.1296 11.0036 34.1296 17.7514L 34.3256 22.3712L 34.8578 27.2991C 35.0819 33.0949 38.9753 44.5185 44.5211 46.1704C 45.9776 46.7304 45.7535 48.8583 44.213 49.0823L 35.334 50.3703C 26.8751 51.6022 18.3041 51.6862 9.81724 50.5663L 1.35836 49.4463C -0.266194 49.1943 -0.490285 47.0104 0.994223 46.4784Z"/>
<path id="path9_fill" d="M -1.36766e-05 0.223992C 0.252073 0.363987 0.504186 0.643979 0.728263 0.951969C 2.63291 3.44388 4.03335 6.27178 4.81762 9.26768C 8.2628 12.9915 15.6854 23.3512 27.4774 26.8231L 26.8051 17.7514C 26.8051 11.0036 29.7462 4.42385 35.152 0.391988C 35.096 0.251993 35.04 0.139999 34.984 3.41785e-06L -1.36766e-05 0.223992Z"/>
<path id="path10_fill" d="M 7.03039 14.0555C 10.9132 14.0555 14.0608 10.9091 14.0608 7.02776C 14.0608 3.14643 10.9132 0 7.03039 0C 3.14761 0 2.73531e-05 3.14643 2.73531e-05 7.02776C 2.73531e-05 10.9091 3.14761 14.0555 7.03039 14.0555Z"/>
<path id="path11_stroke" d="M -0.585659 -0.0541798C -1.03333 0.269256 -1.13404 0.89436 -0.810605 1.34203C -0.487169 1.7897 0.137935 1.89041 0.585604 1.56697L -0.585659 -0.0541798ZM 4.97682 2.07652C 5.38117 2.45271 6.01392 2.42988 6.39011 2.02552C 6.7663 1.62117 6.74346 0.988415 6.33911 0.612228L 4.97682 2.07652ZM -2.73531e-05 0.756397C 0.585604 1.56697 0.585184 1.56728 0.584775 1.56757C 0.584653 1.56766 0.584253 1.56795 0.584007 1.56813C 0.583515 1.56848 0.583064 1.5688 0.582653 1.5691C 0.581831 1.56969 0.581171 1.57016 0.58067 1.57051C 0.579669 1.57122 0.579306 1.57147 0.579571 1.57129C 0.580102 1.57092 0.583132 1.56882 0.588575 1.56517C 0.59948 1.55788 0.619929 1.54449 0.649246 1.52654C 0.708084 1.49052 0.801315 1.4369 0.923593 1.37743C 1.17047 1.25736 1.5215 1.12033 1.93719 1.04902C 2.73091 0.912859 3.81904 0.999398 4.97682 2.07652L 6.33911 0.612228C 4.66791 -0.942558 2.92705 -1.15001 1.59902 -0.922182C 0.953834 -0.811499 0.420792 -0.602032 0.0488272 -0.421119C -0.138318 -0.330096 -0.288206 -0.244587 -0.395131 -0.179117C -0.448696 -0.14632 -0.491789 -0.11836 -0.523706 -0.0970027C -0.539674 -0.0863173 -0.552875 -0.0772637 -0.563222 -0.0700598C -0.568396 -0.0664571 -0.57286 -0.0633147 -0.576602 -0.0606597C -0.578473 -0.0593322 -0.580165 -0.0581262 -0.581674 -0.0570451C -0.582429 -0.0565046 -0.583139 -0.0559953 -0.583803 -0.0555176C -0.584135 -0.055279 -0.5846 -0.0549442 -0.584765 -0.0548248C -0.585218 -0.0544986 -0.585659 -0.0541798 -2.73531e-05 0.756397Z"/>
<path id="path12_fill" d="M 39.3254 72.4895C 61.0329 72.4895 78.6509 54.8781 78.6509 33.1789L 78.6509 8.54463e-07L 30.5865 8.54463e-07C 13.6967 8.54463e-07 2.73531e-05 13.6915 2.73531e-05 30.5749L 2.73531e-05 33.1789C 2.73531e-05 54.8781 17.618 72.4895 39.3254 72.4895Z"/>
<path id="path13_fill" d="M 123.13 42.0545C 111.254 53.4222 98.1176 63.5298 89.4906 70.9496C 87.9781 72.2375 86.4375 73.4695 84.841 74.6734C 74.2254 82.6251 61.7891 88.3089 48.2885 90.9409C 42.6586 92.0328 36.8606 92.6208 30.8946 92.6208C 20.0549 92.6208 9.63531 90.6889 1.36766e-05 87.189C 5.26581 68.0377 14.7611 16.2674 18.4863 12.9356C 26.385 5.9078 38.2331 1.95993 42.7987 0.643979C 42.8827 0.61598 42.9387 0.615977 43.0227 0.587978C 43.1627 0.559979 43.3028 0.503983 43.4149 0.475984C 43.5269 0.447985 43.6669 0.419989 43.751 0.39199C 43.751 0.39199 43.779 0.39199 43.807 0.39199C 43.891 0.363991 43.975 0.363987 44.0311 0.335988C 44.1711 0.307989 44.3111 0.251993 44.4232 0.223994C 44.4512 0.223994 44.4792 0.195993 44.5072 0.195993L 44.5352 0.195993C 44.5633 0.195993 44.5912 0.195992 44.5912 0.167992C 44.6193 0.167992 44.6192 0.167992 44.6473 0.167992C 44.6753 0.167992 44.6753 0.167992 44.6753 0.167992L 45.9077 0.167992L 86.8297 -3.41785e-06L 87.698 -3.41785e-06C 87.698 -3.41785e-06 87.726 -3.41785e-06 87.754 -3.41785e-06C 87.782 -3.41785e-06 87.81 0.0279973 87.838 0.0279973C 87.838 0.0279973 87.838 0.0279973 87.8661 0.0279973C 87.8941 0.0279973 87.9221 0.027999 87.9501 0.0559981C 88.0341 0.0839971 88.1181 0.0840005 88.2021 0.112C 88.2582 0.112 88.3142 0.139992 88.3702 0.139992C 88.4263 0.167991 88.5103 0.167994 88.5943 0.195993C 88.6784 0.223992 88.7343 0.223996 88.8183 0.251995C 88.8464 0.251995 88.9024 0.279987 88.9584 0.279987C 89.0424 0.307986 89.0985 0.307989 89.1825 0.335988C 89.2385 0.363987 89.3225 0.363991 89.3785 0.39199C 93.8041 1.59595 105.652 5.45981 113.439 13.5795C 115.484 15.6235 119.321 28.139 123.13 42.0545Z"/>
<path id="path14_fill" d="M 49.829 91.3048C 44.1991 92.3968 38.4012 92.9848 32.4351 92.9848C 21.5954 92.9848 11.1758 91.0528 1.54054 87.553C 1.03637 87.357 0.532196 87.161 1.36766e-05 86.965C 1.59656 33.8788 2.01668 5.6558 47.4482 -1.70893e-06L 47.4762 0.503986L 47.5603 3.83587L 47.6443 6.85976L 49.829 91.3048Z"/>
<path id="path15_fill" d="M 43.4148 37.3227C 41.7343 39.0306 40.0257 40.7386 38.2891 42.3905C 26.413 53.7581 13.2766 63.8658 4.6496 71.2855C 3.13709 72.5735 1.59653 73.8055 -1.36766e-05 75.0094L 1.79264 7.75574L 1.90465 3.30388L 1.98869 0.307991L 1.98869 0.0280007L 1.98869 -1.59156e-14C 26.8052 0.139995 38.121 17.9474 43.4148 37.3227Z"/>
<path id="path16_fill" d="M 7.56257 15.1195C 11.7393 15.1195 15.1252 11.7349 15.1252 7.55974C 15.1252 3.38461 11.7393 3.41785e-06 7.56257 3.41785e-06C 3.38587 3.41785e-06 -1.36766e-05 3.38461 -1.36766e-05 7.55974C -1.36766e-05 11.7349 3.38587 15.1195 7.56257 15.1195Z"/>
<path id="path17_fill" d="M 1.68056 11.4236C 2.60488 11.4236 3.36114 10.6676 3.36114 9.74366L 3.36114 1.67995C 3.36114 0.755977 2.60488 3.41785e-06 1.68056 3.41785e-06C 0.756245 3.41785e-06 -1.36766e-05 0.755977 -1.36766e-05 1.67995L -1.36766e-05 9.74366C 0.0279959 10.6676 0.756245 11.4236 1.68056 11.4236Z"/>
<path id="path18_fill" d="M -2.73531e-05 1.67995C -2.73531e-05 2.60391 0.756231 3.35989 1.68055 3.35989L 9.74732 3.35989C 10.6716 3.35989 11.4279 2.60391 11.4279 1.67995C 11.4279 0.755977 10.6716 3.41785e-06 9.74732 3.41785e-06L 1.68055 3.41785e-06C 0.728222 3.41785e-06 -2.73531e-05 0.755977 -2.73531e-05 1.67995Z"/>
<path id="path19_fill" d="M 2.73531e-05 28.671L 66.3827 28.671C 81.9 28.671 94.4763 16.0994 94.4763 0.58798C 94.4763 0.27999 94.2242 4.27231e-07 93.8881 4.27231e-07L 23.6401 4.27231e-07C 10.5876 4.27231e-07 2.73531e-05 10.5836 2.73531e-05 23.6312L 2.73531e-05 28.671Z"/>
<path id="path20_fill" d="M 1.28659 36.7456L 50.1633 25.686C 61.5912 23.1101 68.7337 11.7424 66.1568 0.346842C 66.1008 0.122849 65.8767 -0.0451449 65.6246 0.0108531L 13.9189 11.7144C 4.31166 13.8984 -1.73844 23.446 0.446307 33.0497L 1.28659 36.7456Z"/>
<path id="path21_fill" d="M 2.73531e-05 2.31917L 2.73531e-05 9.93491C 2.73531e-05 11.7268 1.96067 12.8468 3.47319 11.9228C 5.43386 10.7469 6.75029 8.59096 6.75029 6.12704C 6.75029 3.66313 5.43386 1.5352 3.47319 0.331244C 1.96067 -0.592724 2.73531e-05 0.527235 2.73531e-05 2.31917Z"/>
<path id="path22_fill" d="M 8.51494 34.6628L 7.59061 34.6628C 3.41718 34.6628 -1.36766e-05 31.2469 -1.36766e-05 27.0751L -1.36766e-05 7.58774C -1.36766e-05 3.41588 3.41718 -7.9578e-15 7.59061 -7.9578e-15L 8.51494 -7.9578e-15C 12.6884 -7.9578e-15 16.1055 3.41588 16.1055 7.58774L 16.1055 27.0751C 16.0775 31.2469 12.6884 34.6628 8.51494 34.6628Z"/>
<path id="path23_stroke" d="M 10.7122 6.10379C 10.7122 6.93222 11.3837 7.60379 12.2122 7.60379C 13.0406 7.60379 13.7122 6.93222 13.7122 6.10379L 10.7122 6.10379ZM -1.50003 6.10379C -1.50003 6.93222 -0.828454 7.60379 -2.73531e-05 7.60379C 0.8284 7.60379 1.49997 6.93222 1.49997 6.10379L -1.50003 6.10379ZM 13.7122 6.10379C 13.7122 1.91494 10.2951 -1.5 6.10607 -1.5L 6.10607 1.5C 8.63933 1.5 10.7122 3.57287 10.7122 6.10379L 13.7122 6.10379ZM 6.10607 -1.5C 1.91703 -1.5 -1.50003 1.91494 -1.50003 6.10379L 1.49997 6.10379C 1.49997 3.57287 3.57282 1.5 6.10607 1.5L 6.10607 -1.5Z"/>
<path id="path24_fill" d="M 3.12458 0C 1.1359 0 -0.348645 1.84794 0.071499 3.77987C 1.80809 12.0396 9.14659 18.2274 17.9136 18.2274C 26.6806 18.2274 34.0191 12.0396 35.7557 3.77987C 36.1759 1.81994 34.6913 0 32.7027 0L 3.12458 0Z"/>
<path id="path25_stroke" d="M 1.79131 -0.889554C 1.30002 -1.87885 0.0997726 -2.28257 -0.889526 -1.79128C -1.87882 -1.3 -2.28254 -0.0997461 -1.79126 0.889552L 1.79131 -0.889554ZM 25.6599 18.3498C 26.7636 18.3945 27.6945 17.536 27.7392 16.4323C 27.7838 15.3287 26.9254 14.3978 25.8217 14.3531L 25.6599 18.3498ZM 2.73531e-05 -8.54463e-07C -1.79126 0.889552 -1.79083 0.890404 -1.79038 0.891315C -1.79019 0.891699 -1.7897 0.892672 -1.78932 0.893439C -1.78856 0.894974 -1.78767 0.896749 -1.78666 0.898761C -1.78464 0.902785 -1.78214 0.907758 -1.77916 0.913667C -1.77318 0.925485 -1.76526 0.941044 -1.75539 0.960228C -1.73564 0.998593 -1.70806 1.05147 -1.67257 1.11792C -1.6016 1.25078 -1.49891 1.43805 -1.36387 1.67215C -1.0939 2.14011 -0.693781 2.79662 -0.158166 3.58069C 0.911378 5.14635 2.53111 7.23519 4.7462 9.34948C 9.18196 13.5834 16.0567 17.961 25.6599 18.3498L 25.8217 14.3531C 17.4427 14.0139 11.4471 10.2158 7.50802 6.45598C 5.53569 4.5734 4.09187 2.71088 3.14473 1.32439C 2.67201 0.632387 2.3255 0.0626276 2.10092 -0.326665C 1.9887 -0.521195 1.90713 -0.670296 1.85567 -0.766645C 1.82994 -0.814807 1.81176 -0.849748 1.80105 -0.870549C 1.7957 -0.880948 1.79222 -0.887809 1.79059 -0.891016C 1.78978 -0.892619 1.78944 -0.893309 1.78956 -0.89307C 1.78962 -0.892951 1.78979 -0.892599 1.79009 -0.892014C 1.79023 -0.891722 1.79054 -0.891106 1.79061 -0.89096C 1.79095 -0.890287 1.79131 -0.889554 2.73531e-05 -8.54463e-07Z"/>
<path id="path26_fill" d="M 1.36766e-05 10.2476C 1.36766e-05 13.8875 1.90462 17.1074 4.78961 18.8993C 6.35815 19.8793 8.20679 20.4393 10.1955 20.4393C 15.8254 20.4393 20.419 15.8755 20.419 10.2196C 20.419 4.56384 15.8534 1.70893e-06 10.1955 1.70893e-06C 9.1031 1.70893e-06 8.06679 0.167995 7.08645 0.475984C 2.99705 1.81994 1.36766e-05 5.6838 1.36766e-05 10.2476Z"/>
<path id="path27_fill" d="M 1.36766e-05 9.71566C 1.36766e-05 13.3555 1.90462 16.5754 4.78961 18.3674C 8.90702 17.0514 11.9041 13.1875 11.9041 8.6517C 11.9041 5.01182 9.99941 1.79194 7.11442 7.9578e-15C 2.99701 1.28796 1.36766e-05 5.15182 1.36766e-05 9.71566Z"/>
<path id="path28_fill" d="M 12.1501 23.9692L 68.1118 23.9692C 74.7894 23.9692 80.2618 18.5713 80.2618 11.9846C 80.2618 5.39789 74.7894 0 68.1118 0L 12.1501 0C 5.47244 0 2.83081e-05 5.39789 2.83081e-05 11.9846C -0.0162586 18.5874 5.45615 23.9692 12.1501 23.9692Z"/>
<path id="path29_fill" d="M 2.75249 5.43002C 4.27265 5.43002 5.50496 4.21447 5.50496 2.71501C 5.50496 1.21555 4.27265 1.96108e-06 2.75249 1.96108e-06C 1.23234 1.96108e-06 -1.59052e-05 1.21555 -1.59052e-05 2.71501C -1.59052e-05 4.21447 1.23234 5.43002 2.75249 5.43002Z"/>
<path id="path30_fill" d="M 2.75248 5.43002C 4.27264 5.43002 5.50495 4.21447 5.50495 2.71501C 5.50495 1.21555 4.27264 1.96108e-06 2.75248 1.96108e-06C 1.23233 1.96108e-06 1.59052e-05 1.21555 1.59052e-05 2.71501C 1.59052e-05 4.21447 1.23233 5.43002 2.75248 5.43002Z"/>
<path id="path31_fill" d="M 12.15 23.9692L 68.1118 23.9692C 74.7894 23.9692 80.2618 18.5713 80.2618 11.9846C 80.2618 5.39789 74.7894 -1.96108e-06 68.1118 -1.96108e-06L 12.15 -1.96108e-06C 5.47242 -1.96108e-06 5.21659e-05 5.39789 5.21659e-05 11.9846C -0.0162347 18.5874 5.45614 23.9692 12.15 23.9692Z"/>
<path id="path32_fill" d="M 2.75249 5.43002C 4.27265 5.43002 5.50496 4.21447 5.50496 2.71501C 5.50496 1.21556 4.27265 0 2.75249 0C 1.23234 0 -1.59052e-05 1.21556 -1.59052e-05 2.71501C -1.59052e-05 4.21447 1.23234 5.43002 2.75249 5.43002Z"/>
<path id="path33_fill" d="M 2.75248 5.43002C 4.27264 5.43002 5.50495 4.21447 5.50495 2.71501C 5.50495 1.21556 4.27264 0 2.75248 0C 1.23233 0 1.59052e-05 1.21556 1.59052e-05 2.71501C 1.59052e-05 4.21447 1.23233 5.43002 2.75248 5.43002Z"/>
<path id="path34_fill" d="M 2.75248 5.43002C 4.27263 5.43002 5.50498 4.21447 5.50498 2.71501C 5.50498 1.21556 4.27263 0 2.75248 0C 1.23232 0 7.95258e-06 1.21556 7.95258e-06 2.71501C 7.95258e-06 4.21447 1.23232 5.43002 2.75248 5.43002Z"/>
</defs>
</svg>
