<?xml version="1.0" encoding="utf-8"?>
<!-- Generator: Adobe Illustrator 22.0.1, SVG Export Plug-In . SVG Version: 6.00 Build 0)  -->
<svg version="1.1" id="Layer_1" xmlns="http://www.w3.org/2000/svg" xmlns:xlink="http://www.w3.org/1999/xlink" x="0px" y="0px"
	 viewBox="0 0 238 225" style="enable-background:new 0 0 238 225;" xml:space="preserve">
<style type="text/css">
	.st0{fill:#BEE05F;fill-opacity:0.32;}
	.st1{fill:#BEE05F;}
	.st2{fill:#FF8B6C;}
	.st3{fill:none;stroke:#333333;stroke-width:2;stroke-linecap:round;stroke-linejoin:round;stroke-miterlimit:10;}
	.st4{fill:#96BF3D;}
	.st5{fill:none;stroke:url(#SVGID_1_);stroke-width:9.1766;stroke-miterlimit:10;}
	.st6{fill:#F2785F;}
	.st7{fill:#CC6250;}
	.st8{fill:#E06F58;}
	.st9{fill:none;stroke:#333333;stroke-width:2.0392;stroke-linecap:round;stroke-linejoin:round;stroke-miterlimit:10;}
	.st10{fill:none;stroke:#333333;stroke-width:3.0589;stroke-linecap:round;stroke-linejoin:round;stroke-miterlimit:10;}
	.st11{fill:#FFFFFF;}
	.st12{fill:#333333;}
	.st13{fill:none;stroke:#82A329;stroke-width:4.0785;stroke-linecap:round;stroke-linejoin:round;stroke-miterlimit:10;}
	.st14{fill:url(#SVGID_2_);}
	.st15{fill:#ECF2DD;}
	.st16{fill:#D5E5B1;}
</style>
<g>
	<path class="st0" d="M10.6,133.8c0,23.2,8.7,44.3,22.9,60.3c16.5,18.5,40.6,30.2,67.3,30.2c22.4,0,42.8-8.1,58.6-21.7
		c19.4-16.6,61.3-46.8,61.3-74.4c0-37.4-52.2-63.9-84.6-77.7c-2.5-1.1-5.2-2-7.8-2.9c-8.7-2.8-17.9-4.3-27.5-4.3
		C51,43.3,10.6,83.8,10.6,133.8z"/>
	<path class="st1" d="M215.1,128.2c0,10-5.5,20.4-13.5,30.3c-2.8,3.4-5.8,6.9-9,10.2c-1.7,1.7-3.4,3.4-5.1,5.1
		c-11.9,11.4-25,21.5-33.6,28.9c-1.5,1.3-3.1,2.5-4.7,3.7c-10.6,8-23.1,13.6-36.6,16.3c-5.6,1.1-11.4,1.7-17.4,1.7
		c-10.8,0-21.3-1.9-30.9-5.4c-0.5-0.2-1-0.4-1.5-0.6c-13.5-5.2-25.4-13.6-34.9-24.2C13.7,178.1,5,157,5,133.8
		c0-46.6,35.1-84.9,80.2-90c1.2-0.1,2.4-0.3,3.5-0.3c2.2-0.2,4.3-0.2,6.6-0.2c0.4,0,0.8,0,1.1,0c0.1,0,0.3,0,0.4,0
		c2.7,0.1,5.3,0.2,8,0.5c4.8,0.5,9.6,1.4,14.2,2.7c1.3,0.4,2.6,0.7,3.8,1.1c2.7,0.9,5.3,1.8,7.8,2.9c5.1,2.2,10.8,4.7,16.6,7.5
		c4.8,2.4,9.8,4.9,14.8,7.7c2.7,1.5,5.5,3.1,8.2,4.8c0.4,0.3,0.8,0.5,1.2,0.8c3.3,2.1,6.6,4.2,9.7,6.5
		c15.7,11.2,28.6,24.7,32.7,40.4c0.5,1.9,0.8,3.8,1.1,5.7C215.1,125.3,215.1,126.8,215.1,128.2z"/>
	<path class="st2" d="M92.6,65.2c3.9,0,7-3.1,7-7c0-3.9-3.1-7-7-7s-7,3.1-7,7C85.6,62.1,88.7,65.2,92.6,65.2z"/>
	<path class="st3" d="M93.7,57.5c0,0-2.8-2-5.7,0.6"/>
	<g>
		<g>
			<path class="st4" d="M166.2,192.4c-4.6,3.8-8.8,7.2-12.3,10.2c-1.5,1.3-3.1,2.5-4.7,3.7c-9.3,7-20.1,12.2-31.7,15.2
				c-1.6,0.4-3.2,0.8-4.9,1.1c-5.6,1.1-11.4,1.7-17.4,1.7c-5.4,0-10.7-0.5-15.8-1.4c-5.2-0.9-10.2-2.3-15.1-4
				c-0.5-0.2-1-0.4-1.5-0.6c-9.2-3.5-17.6-8.5-25-14.7c4.5-20.8,9.3-42.7,11.7-44.8c8-7.2,20.1-11.2,24.8-12.5c0.1,0,0.1,0,0.2-0.1
				c0.2,0,0.3-0.1,0.4-0.1c0.1,0,0.3-0.1,0.3-0.1c0,0,0,0,0.1,0c0.1,0,0.2,0,0.2-0.1c0.1,0,0.3-0.1,0.4-0.1l0.1,0h0c0,0,0,0,0,0
				c0,0,0,0,0.1,0c0,0,0,0,0,0h1.3l41.7-0.2h0.9c0,0,0,0,0,0c0,0,0,0,0,0c0,0,0,0,0,0c0,0,0,0,0,0c0,0,0,0,0.1,0
				c0.1,0,0.2,0,0.3,0.1c0.1,0,0.1,0,0.2,0c0.1,0,0.1,0,0.2,0.1c0.1,0,0.1,0,0.2,0.1c0,0,0.1,0,0.1,0c0.1,0,0.1,0,0.2,0.1
				c0.1,0,0.1,0,0.2,0.1c4.5,1.2,16.6,5.2,24.5,13.4C148.1,161.2,160.5,178.6,166.2,192.4z"/>
		</g>
		<g>
			
				<linearGradient id="SVGID_1_" gradientUnits="userSpaceOnUse" x1="-434.7213" y1="642.091" x2="-433.7017" y2="642.091" gradientTransform="matrix(-31.3256 -6.2037 6.206 -31.3138 -17516.3867 17436.3633)">
				<stop  offset="0" style="stop-color:#718F2E"/>
				<stop  offset="0.2723" style="stop-color:#769630"/>
				<stop  offset="0.6694" style="stop-color:#85AA36"/>
				<stop  offset="1" style="stop-color:#96BF3D"/>
			</linearGradient>
			<path class="st5" d="M52.2,65.3c0,0-1.4-26.2,0.9-31.1c5.2-11.2,18.7-11.1,32.5-5.3"/>
			<g>
				<path class="st6" d="M75.7,145.9l2.3-0.9c4.9-2,8.2-13.2,8.5-18.5l1.3-13c0-1.9-0.3-3.8-0.7-5.6c-0.8-3.1-2.2-5.9-4.2-8.5
					c-0.3-0.3-0.5-0.6-0.7-0.7l35.7-0.2h0.8c-0.2,0.1-0.4,0.2-0.6,0.4c0,0,0,0,0,0c-5.5,4.1-8.5,10.8-8.5,17.7l0.2,4.7l0.5,5
					c0.2,5.9,4.2,17.6,9.9,19.2c1.5,0.6,1.3,2.7-0.3,3l-9.1,1.3c-8.6,1.3-17.4,1.3-26,0.2l-8.6-1.1
					C74.4,148.6,74.2,146.4,75.7,145.9z"/>
				<path class="st7" d="M82.1,98.7c0.3,0.1,0.5,0.4,0.7,0.7c1.9,2.5,3.4,5.4,4.2,8.5c3.5,3.8,11.1,14.4,23.1,17.9l-0.7-9.2
					c0-6.9,3-13.6,8.5-17.7c-0.1-0.1-0.1-0.3-0.2-0.4L82.1,98.7z"/>
			</g>
			<g>
				<g>
					<path class="st8" d="M137.3,77.8c4,0,7.2-3.2,7.2-7.2c0-4-3.2-7.2-7.2-7.2c-4,0-7.2,3.2-7.2,7.2
						C130.1,74.6,133.3,77.8,137.3,77.8z"/>
					<path class="st9" d="M135.9,69.9c0,0,2.9-2.1,5.8,0.6"/>
					<path class="st2" d="M99.5,107.4c22.1,0,40.1-18,40.1-40.1V33.5h-49c-17.2,0-31.2,14-31.2,31.2v2.7
						C59.4,89.5,77.4,107.4,99.5,107.4z"/>
					<path class="st10" d="M125.8,68.1c0-3.4-2.8-6.2-6.2-6.2c-3.4,0-6.2,2.8-6.2,6.2"/>
					<path class="st10" d="M103.5,68.1c0-3.4-2.8-6.2-6.2-6.2S91,64.7,91,68.1"/>
					<path class="st11" d="M92.1,83.1c-2,0-3.5,1.9-3.1,3.9c1.8,8.4,9.3,14.7,18.2,14.7s16.4-6.3,18.2-14.7c0.4-2-1.1-3.9-3.1-3.9
						H92.1z"/>
				</g>
				<path class="st12" d="M63.3,52.1h67.7c15.8,0,28.6-12.8,28.6-28.6c0-0.3-0.3-0.6-0.6-0.6H87.4c-13.3,0-24.1,10.8-24.1,24.1V52.1
					z"/>
				<path class="st12" d="M67.4,48.7l49.8-11.3c11.7-2.6,18.9-14.2,16.3-25.8c-0.1-0.2-0.3-0.4-0.5-0.3L80.2,23.2
					c-9.8,2.2-16,12-13.7,21.8L67.4,48.7z"/>
				<path class="st12" d="M59.4,61.5v7.8c0,1.8,2,3,3.5,2c2-1.2,3.3-3.4,3.3-5.9c0-2.5-1.3-4.7-3.3-5.9
					C61.4,58.5,59.4,59.6,59.4,61.5z"/>
				<path class="st12" d="M64.1,65.3h-0.9c-4.3,0-7.7-3.5-7.7-7.7V37.7c0-4.3,3.5-7.7,7.7-7.7h0.9c4.3,0,7.7,3.5,7.7,7.7v19.9
					C71.8,61.9,68.4,65.3,64.1,65.3z"/>
			</g>
			<g>
				<path class="st13" d="M59.4,76.3c0,0,7.9,15.9,26.2,16.7"/>
				
					<linearGradient id="SVGID_2_" gradientUnits="userSpaceOnUse" x1="-443.3817" y1="634.8378" x2="-442.3621" y2="634.8378" gradientTransform="matrix(-19.7181 -3.905 3.9064 -19.7106 -11151.4873 10855.2354)">
					<stop  offset="0" style="stop-color:#718F2E"/>
					<stop  offset="0.2723" style="stop-color:#769630"/>
					<stop  offset="0.6694" style="stop-color:#85AA36"/>
					<stop  offset="1" style="stop-color:#96BF3D"/>
				</linearGradient>
				<path class="st14" d="M45.5,70.6c0,3.7,1.9,7,4.9,8.8c1.6,1,3.5,1.6,5.5,1.6c5.7,0,10.4-4.7,10.4-10.4c0-5.8-4.7-10.4-10.4-10.4
					c-1.1,0-2.2,0.2-3.2,0.5C48.5,62,45.5,65.9,45.5,70.6z"/>
				<path class="st4" d="M45.5,70.6c0,3.7,1.9,7,4.9,8.8c4.2-1.3,7.3-5.3,7.3-9.9c0-3.7-1.9-7-4.9-8.8C48.5,62,45.5,65.9,45.5,70.6z
					"/>
			</g>
		</g>
		<g>
			<path class="st15" d="M169.4,189.7c-1.1,0.9-2.1,1.8-3.2,2.7c-4.6,3.8-8.8,7.2-12.3,10.2c-1.5,1.3-3.1,2.5-4.7,3.7
				c-9.3,7-20.1,12.2-31.7,15.2l1.4-68.4l0.1-4.5v-0.1l0.1-3v-0.4h0C140.4,145.3,160.3,170.1,169.4,189.7z"/>
			<g>
				<path class="st15" d="M79.4,222.9c-5.2-0.9-10.2-2.3-15.1-4c-0.5-0.2-1-0.4-1.5-0.6c-9.2-3.5-17.6-8.5-25-14.7
					c-2.4-2-4.7-4.1-6.9-6.4c3-30.7,12.1-47.8,46.6-52v0l0,0.5v0l0.1,3.3v0l0.1,3.1L79.4,222.9z"/>
				<g>
					<path class="st16" d="M66.3,188.5c4.3,0,7.7-3.5,7.7-7.7c0-4.3-3.5-7.7-7.7-7.7c-4.3,0-7.7,3.5-7.7,7.7
						C58.6,185,62,188.5,66.3,188.5z"/>
					<g>
						<path class="st4" d="M66.3,186.6c0.9,0,1.7-0.8,1.7-1.7v-8.2c0-0.9-0.8-1.7-1.7-1.7s-1.7,0.8-1.7,1.7v8.2
							C64.6,185.8,65.3,186.6,66.3,186.6z"/>
						<path class="st4" d="M60.5,180.8c0,0.9,0.8,1.7,1.7,1.7h8.2c0.9,0,1.7-0.8,1.7-1.7s-0.8-1.7-1.7-1.7h-8.2
							C61.2,179.1,60.5,179.8,60.5,180.8z"/>
					</g>
				</g>
			</g>
		</g>
	</g>
	<g>
		<path class="st4" d="M144.5,127h56c6.7,0,12.2-5.4,12.2-12c0-6.6-5.5-12-12.2-12h-56c-6.7,0-12.2,5.4-12.2,12
			C132.4,121.6,137.8,127,144.5,127z"/>
		<path class="st11" d="M161.3,117.8c1.5,0,2.8-1.2,2.8-2.7s-1.2-2.7-2.8-2.7s-2.8,1.2-2.8,2.7S159.8,117.8,161.3,117.8z"/>
		<path class="st11" d="M172.5,117.8c1.5,0,2.8-1.2,2.8-2.7s-1.2-2.7-2.8-2.7s-2.8,1.2-2.8,2.7S171,117.8,172.5,117.8z"/>
		<path class="st11" d="M183.7,117.8c1.5,0,2.8-1.2,2.8-2.7s-1.2-2.7-2.8-2.7s-2.8,1.2-2.8,2.7S182.2,117.8,183.7,117.8z"/>
	</g>
	<g>
		<path class="st16" d="M164.9,153.2h56c6.7,0,12.1-5.4,12.1-12c0-6.6-5.5-12-12.1-12h-56c-6.7,0-12.1,5.4-12.1,12
			C152.7,147.8,158.2,153.2,164.9,153.2z"/>
		<path class="st4" d="M181.7,143.9c1.5,0,2.8-1.2,2.8-2.7c0-1.5-1.2-2.7-2.8-2.7s-2.8,1.2-2.8,2.7
			C178.9,142.7,180.2,143.9,181.7,143.9z"/>
		<path class="st4" d="M192.9,143.9c1.5,0,2.8-1.2,2.8-2.7c0-1.5-1.2-2.7-2.8-2.7c-1.5,0-2.8,1.2-2.8,2.7
			C190.1,142.7,191.3,143.9,192.9,143.9z"/>
		<path class="st4" d="M204.1,143.9c1.5,0,2.8-1.2,2.8-2.7c0-1.5-1.2-2.7-2.8-2.7s-2.8,1.2-2.8,2.7
			C201.3,142.7,202.5,143.9,204.1,143.9z"/>
	</g>
</g>
</svg>
