<svg width="121" height="170" viewBox="0 0 121 170" version="1.1" xmlns="http://www.w3.org/2000/svg" xmlns:xlink="http://www.w3.org/1999/xlink">
<title>Group</title>
<desc>Created using Figma</desc>
<g id="Canvas" transform="translate(-2427 -748)">
<g id="Group">
<g id="Group">
<g id="Group">
<g id="Group">
<g id="Vector">
<use xlink:href="#path0_fill" transform="translate(2427 851.692)" fill="#96BF3D"/>
</g>
<g id="Vector">
<use xlink:href="#path1_fill" transform="translate(2479.99 857.741)" fill="#718F2E"/>
</g>
<g id="Vector">
<use xlink:href="#path2_fill" transform="translate(2466.55 851.763)" fill="#D5E5B1"/>
</g>
<g id="Group">
<g id="Group">
<g id="Group">
<g id="Vector">
<use xlink:href="#path3_fill" transform="translate(2512.33 791.654)" fill="#FF8B6C"/>
</g>
</g>
<g id="Vector">
<use xlink:href="#path4_stroke" transform="translate(2517.21 796.098)" fill="#333333"/>
</g>
</g>
<g id="Vector">
<use xlink:href="#path5_fill" transform="translate(2468.6 819.517)" fill="#F2785F"/>
</g>
<g id="Vector">
<use xlink:href="#path6_fill" transform="translate(2471.05 819.482)" fill="#CC6250"/>
</g>
<g id="Group">
<g id="Group">
<g id="Vector">
<use xlink:href="#path7_fill" transform="translate(2449.85 791.654)" fill="#E06F58"/>
</g>
</g>
<g id="Vector">
<use xlink:href="#path8_stroke" transform="translate(2452.08 796.098)" fill="#333333"/>
</g>
<g id="Group">
<g id="Vector">
<use xlink:href="#path9_fill" transform="translate(2453.69 767.782)" fill="#FF8B6C"/>
</g>
</g>
<g id="Vector">
<use xlink:href="#path10_fill" transform="translate(2453.73 788.875)" fill="#333333"/>
</g>
<g id="Group">
<g id="Vector">
<use xlink:href="#path11_stroke" transform="translate(2487.86 778.863)" fill="#333333"/>
</g>
<g id="Vector">
<use xlink:href="#path12_stroke" transform="translate(2459.12 778.863)" fill="#333333"/>
</g>
<g id="Vector">
<use xlink:href="#path13_stroke" transform="translate(2483.91 790.938)" fill="#333333"/>
</g>
</g>
<g id="Vector">
<use xlink:href="#path14_fill" transform="translate(2470.08 812.89)" fill="#FFFFFF"/>
</g>
</g>
</g>
</g>
<g id="Vector">
<use xlink:href="#path15_fill" transform="translate(2438.19 748)" fill="#333333"/>
</g>
<g id="Vector">
<use xlink:href="#path16_fill" transform="translate(2508.45 762.099)" fill="#333333"/>
</g>
<g id="Vector">
<use xlink:href="#path17_fill" transform="translate(2496.48 771.416)" fill="#333333"/>
</g>
<g id="Vector">
<use xlink:href="#path18_fill" transform="translate(2503.45 772.625)" fill="#333333"/>
</g>
<g id="Vector">
<use xlink:href="#path19_fill" transform="translate(2509 775.407)" fill="#333333"/>
</g>
<g id="Vector">
<use xlink:href="#path20_fill" transform="translate(2508.33 759.811)" fill="#333333"/>
</g>
</g>
<g id="Vector">
<use xlink:href="#path21_fill" transform="translate(2427 851.727)" fill="#ECF2DD"/>
</g>
<g id="Vector">
<use xlink:href="#path22_fill" transform="translate(2501.04 851.799)" fill="#ECF2DD"/>
</g>
<g id="Group">
<g id="Vector">
<use xlink:href="#path23_fill" transform="translate(2511.36 879.056)" fill="#D5E5B1"/>
</g>
<g id="Group">
<g id="Vector">
<use xlink:href="#path24_fill" transform="translate(2516.17 880.517)" fill="#96BF3D"/>
</g>
<g id="Vector">
<use xlink:href="#path25_fill" transform="translate(2512.83 883.83)" fill="#96BF3D"/>
</g>
</g>
</g>
</g>
</g>
</g>
<defs>
<path id="path0_fill" d="M 121 66.3083L 0 66.3083C 0 66.3083 13.3287 19.3117 21.3043 11.0811C 25.7592 6.44912 31.8667 3.52742 36.3575 1.85279C 38.2616 1.14018 39.8783 0.641348 40.9561 0.356305C 41.8542 0.106891 42.3572 -2.02536e-14 42.3572 -2.02536e-14L 77.565 0.14252C 77.565 0.14252 78.1398 0.285046 79.1099 0.57009C 82.8462 1.639 92.5463 4.84575 99.0131 10.5466C 107.168 17.744 121 66.3083 121 66.3083Z"/>
<path id="path1_fill" d="M 0 1.32659L 4.23931 9.4147C 5.38896 11.6238 8.55048 11.7307 9.87975 9.66411L 15.0531 0.649598C 15.0172 0.613967 6.43082 -1.16755 0 1.32659Z"/>
<path id="path2_fill" d="M 24.6164 8.40879C 6.36585 11.1167 -0.244602 3.59868 0.00688286 2.24472C 0.258367 0.962023 1.30023 0.42757 1.40801 0.356309C 2.30617 0.106896 2.80914 4.34942e-06 2.80914 4.34942e-06L 38.017 0.142524C 38.017 0.142524 38.5918 0.285039 39.5618 0.570083C 40.46 1.1758 42.867 5.66524 24.6164 8.40879Z"/>
<path id="path3_fill" d="M 5.74822 11.4017C 8.92287 11.4017 11.4964 8.84938 11.4964 5.70087C 11.4964 2.55237 8.92287 0 5.74822 0C 2.57357 0 0 2.55237 0 5.70087C 0 8.84938 2.57357 11.4017 5.74822 11.4017Z"/>
<path id="path4_stroke" d="M -0.291379 0.20958C -0.515784 0.370505 -0.567244 0.682877 -0.406319 0.907282C -0.245393 1.13169 0.0669786 1.18315 0.291384 1.02222L -0.291379 0.20958ZM 4.29103 1.47809C 4.49171 1.66778 4.80816 1.65888 4.99786 1.4582C 5.18755 1.25753 5.17865 0.941069 4.97797 0.751375L 4.29103 1.47809ZM 2.19277e-06 0.615901C 0.291384 1.02222 0.291178 1.02237 0.29098 1.02251C 0.290926 1.02255 0.290737 1.02268 0.290629 1.02276C 0.290412 1.02292 0.290229 1.02305 0.29008 1.02315C 0.289782 1.02337 0.28962 1.02348 0.289594 1.0235C 0.289542 1.02353 0.29003 1.02319 0.29105 1.02249C 0.293089 1.02108 0.297248 1.01823 0.303455 1.01411C 0.315877 1.00585 0.336435 0.992536 0.364556 0.975442C 0.420901 0.94119 0.506957 0.892172 0.618186 0.838474C 0.841834 0.730502 1.16004 0.607097 1.53819 0.543302C 2.27549 0.418919 3.26987 0.512809 4.29103 1.47809L 4.97797 0.751375C 3.69985 -0.456806 2.37697 -0.612331 1.37184 -0.442764C 0.878782 -0.359584 0.469481 -0.200173 0.183425 -0.0620725C 0.0398015 0.00726527 -0.0745446 0.0720975 -0.154887 0.120937C -0.195111 0.145388 -0.226969 0.165927 -0.249877 0.181144C -0.261335 0.188756 -0.27057 0.195047 -0.277507 0.199841C -0.280976 0.202239 -0.283873 0.204264 -0.286187 0.205894C -0.287345 0.206709 -0.288357 0.207425 -0.289222 0.208041C -0.289655 0.208348 -0.290051 0.20863 -0.290411 0.208887C -0.29059 0.209015 -0.290833 0.209189 -0.290923 0.209253C -0.291155 0.209419 -0.291379 0.20958 2.19277e-06 0.615901Z"/>
<path id="path5_fill" d="M 36.3646 32.495L 34.5323 31.7467C 30.6164 30.1434 27.9578 26.4734 27.7063 22.269L 26.7004 11.9362C 26.7004 10.4397 26.916 8.94325 27.2752 7.51803C 27.9219 5.09516 29.0715 2.8148 30.6164 0.783868C 30.8319 0.534455 31.0116 0.320673 31.2271 0.178151L 2.59381 -1.08736e-06L 1.94713 -1.08736e-06C 2.12676 0.0712598 2.27047 0.178155 2.4501 0.320676C 6.86904 3.59868 9.27611 8.90762 9.27611 14.3947L 9.1324 18.1359L 8.70129 22.1265C 8.52166 26.8297 5.32421 30.8916 0.797488 32.2099C -0.388082 32.6731 -0.208451 34.3834 1.04897 34.5972L 8.3061 35.6661C 15.2399 36.6637 22.2455 36.735 29.1793 35.8086L 36.1131 34.9179C 37.4065 34.7041 37.622 32.9226 36.3646 32.495Z"/>
<path id="path6_fill" d="M 28.777 0.178155C 28.5615 0.285046 28.3818 0.498828 28.1663 0.783871C 26.6214 2.81481 25.4718 5.09516 24.8251 7.51803C 22.0229 10.5466 15.9154 18.9554 6.28712 21.7702L 6.82601 14.3947C 6.82601 8.90762 4.41894 3.59868 -5.48193e-07 0.320674C 0.0359258 0.213783 0.107779 0.106894 0.143705 2.17471e-06L 28.777 0.178155Z"/>
<path id="path7_fill" d="M 5.74822 11.4017C 8.92287 11.4017 11.4964 8.84938 11.4964 5.70087C 11.4964 2.55237 8.92287 0 5.74822 0C 2.57356 0 0 2.55237 0 5.70087C 0 8.84938 2.57356 11.4017 5.74822 11.4017Z"/>
<path id="path8_stroke" d="M 4.34312 1.02222C 4.56752 1.18315 4.8799 1.13169 5.04082 0.907282C 5.20175 0.682877 5.15029 0.370505 4.92588 0.20958L 4.34312 1.02222ZM -0.34347 0.751375C -0.544146 0.941069 -0.553049 1.25753 -0.363355 1.4582C -0.173661 1.65888 0.142796 1.66778 0.343472 1.47809L -0.34347 0.751375ZM 4.6345 0.615901C 4.92588 0.20958 4.92566 0.209419 4.92542 0.209253C 4.92533 0.209189 4.92509 0.209015 4.92491 0.208887C 4.92455 0.20863 4.92416 0.208348 4.92372 0.208041C 4.92286 0.207425 4.92185 0.206709 4.92069 0.205894C 4.91838 0.204264 4.91548 0.202239 4.91201 0.199841C 4.90507 0.195047 4.89584 0.188756 4.88438 0.181144C 4.86147 0.165927 4.82961 0.145388 4.78939 0.120937C 4.70905 0.0720975 4.5947 0.00726526 4.45108 -0.0620725C 4.16502 -0.200173 3.75572 -0.359584 3.26266 -0.442764C 2.25753 -0.612331 0.934657 -0.456806 -0.34347 0.751375L 0.343472 1.47809C 1.36463 0.512809 2.35901 0.418919 3.09631 0.543302C 3.47446 0.607097 3.79267 0.730502 4.01632 0.838474C 4.12755 0.892172 4.2136 0.94119 4.26995 0.975442C 4.29807 0.992536 4.31862 1.00585 4.33105 1.01411C 4.33725 1.01823 4.34141 1.02108 4.34345 1.02249C 4.34447 1.02319 4.34496 1.02353 4.34491 1.0235C 4.34488 1.02348 4.34472 1.02337 4.34442 1.02315C 4.34427 1.02305 4.34409 1.02292 4.34387 1.02276C 4.34376 1.02268 4.34358 1.02255 4.34352 1.02251C 4.34332 1.02237 4.34312 1.02222 4.6345 0.615901Z"/>
<path id="path9_fill" d="M 32.19 58.8259C 14.4065 58.8259 1.09639e-06 44.5381 1.09639e-06 26.901L 1.09639e-06 0L 39.3394 0C 53.171 0 64.3801 11.1167 64.3801 24.8344L 64.3801 26.9366C 64.3801 44.5381 49.9736 58.8259 32.19 58.8259Z"/>
<path id="path10_fill" d="M 63.8052 9.29955C 63.8052 9.29955 62.2963 23.623 60.3204 31.7467C 58.3444 39.9061 39.6986 45.5357 20.6577 41.2601C 1.61668 36.9844 0.754455 31.6399 0.682602 21.8415C 0.610749 12.0431 5.48193e-07 5.20205 5.48193e-07 5.20205L 5.38896 2.70792C 5.38896 2.70792 2.47892 4.66759 2.98189 13.5752C 3.48486 22.4472 7.14935 21.6633 11.6761 19.3473C 16.2028 17.0314 22.7414 21.1645 31.0404 21.3427C 39.3394 21.5208 46.7043 16.2831 49.7221 20.0243C 52.7399 23.8011 56.2248 24.8344 57.9133 21.9127C 59.6018 18.991 63.4819 13.7534 62.6556 -1.08736e-06L 63.8052 9.29955Z"/>
<path id="path11_stroke" d="M 24.0392 12.2925C 24.0392 18.6614 18.8316 23.835 12.3946 23.835L 12.3946 25.335C 19.6483 25.335 25.5392 19.5015 25.5392 12.2925L 24.0392 12.2925ZM 12.3946 23.835C 5.9576 23.835 0.749998 18.6614 0.749998 12.2925L -0.750002 12.2925C -0.750002 19.5015 5.14089 25.335 12.3946 25.335L 12.3946 23.835ZM 0.749998 12.2925C 0.749998 5.92359 5.9576 0.749999 12.3946 0.749999L 12.3946 -0.750001C 5.14089 -0.750001 -0.750002 5.0835 -0.750002 12.2925L 0.749998 12.2925ZM 12.3946 0.749999C 18.8316 0.749999 24.0392 5.92359 24.0392 12.2925L 25.5392 12.2925C 25.5392 5.0835 19.6483 -0.750001 12.3946 -0.750001L 12.3946 0.749999Z"/>
<path id="path12_stroke" d="M 24.0392 12.2925C 24.0392 18.6614 18.8316 23.835 12.3946 23.835L 12.3946 25.335C 19.6483 25.335 25.5392 19.5015 25.5392 12.2925L 24.0392 12.2925ZM 12.3946 23.835C 5.9576 23.835 0.750001 18.6614 0.750001 12.2925L -0.749999 12.2925C -0.749999 19.5015 5.1409 25.335 12.3946 25.335L 12.3946 23.835ZM 0.750001 12.2925C 0.750001 5.92359 5.9576 0.749999 12.3946 0.749999L 12.3946 -0.750001C 5.1409 -0.750001 -0.749999 5.0835 -0.749999 12.2925L 0.750001 12.2925ZM 12.3946 0.749999C 18.8316 0.749999 24.0392 5.92359 24.0392 12.2925L 25.5392 12.2925C 25.5392 5.0835 19.6483 -0.750001 12.3946 -0.750001L 12.3946 0.749999Z"/>
<path id="path13_stroke" d="M -2.19277e-06 0.680938C 0.439351 1.28878 0.439096 1.28896 0.438849 1.28914C 0.438777 1.28919 0.438537 1.28937 0.438393 1.28947C 0.438104 1.28968 0.437846 1.28986 0.437619 1.29003C 0.437164 1.29035 0.436832 1.29059 0.436621 1.29074C 0.436199 1.29104 0.436261 1.29099 0.436797 1.29062C 0.437871 1.28986 0.440837 1.2878 0.445621 1.28455C 0.455202 1.27804 0.47199 1.26686 0.495409 1.25205C 0.542387 1.22235 0.615176 1.17864 0.709224 1.12913C 0.89934 1.02903 1.1652 0.91111 1.47236 0.833601C 2.07779 0.680827 2.79409 0.69044 3.47079 1.25629L 4.43301 0.105582C 3.27746 -0.860674 2.01781 -0.85106 1.10535 -0.620807C 0.653565 -0.506802 0.274999 -0.337453 0.0104215 -0.198155C -0.122877 -0.127974 -0.23 -0.0639606 -0.306098 -0.0158551C -0.344217 0.0082418 -0.374758 0.0284779 -0.397121 0.0436657C -0.408309 0.0512639 -0.41747 0.0576119 -0.424529 0.0625627C -0.428059 0.0650386 -0.431065 0.0671666 -0.433539 0.0689282C -0.434776 0.0698091 -0.435879 0.0705986 -0.436849 0.0712944C -0.437334 0.0716423 -0.437785 0.0719669 -0.438203 0.0722677C -0.438412 0.072418 -0.4387 0.072626 -0.438804 0.0727011C -0.439084 0.0729028 -0.439355 0.0730988 -2.19277e-06 0.680938Z"/>
<path id="path14_fill" d="M 27.6633 2.17471e-06C 27.6633 7.58929 21.448 13.7177 13.8316 13.7177C 6.21526 13.7177 5.48193e-07 7.55366 5.48193e-07 2.17471e-06L 27.6633 2.17471e-06Z"/>
<path id="path15_fill" d="M 72.8391 16.9671C 72.8391 16.9671 42.2299 -4.87434 18.9855 1.00469C -4.25884 6.88372 -3.64809 32.894 7.41723 41.7659C 29.3682 59.3318 68.5998 31.7182 73.414 22.3117C 75.354 18.5705 72.8391 16.9671 72.8391 16.9671Z"/>
<path id="path16_fill" d="M 0.251482 12.061C 0.251482 12.061 6.17933 29.5556 9.08937 36.1116C 9.08937 36.1116 11.5683 13.1299 11.1731 8.39107C 9.98752 -6.75188 -1.09639e-06 3.22465 -1.09639e-06 3.22465L 0.251482 12.061Z"/>
<path id="path17_fill" d="M 12.1072 -1.08736e-06C 12.1072 -1.08736e-06 6.5386 10.0122 -2.19277e-06 14.1809C -2.19277e-06 14.1809 10.742 10.4397 13.9394 1.38959L 12.1072 -1.08736e-06Z"/>
<path id="path18_fill" d="M 5.24525 1.53497C 5.24525 1.53497 2.5867 8.73233 1.09639e-06 11.1196C 1.09639e-06 11.1196 6.79009 6.66576 7.47269 2.17632C 8.15529 -2.31312 5.24525 1.53497 5.24525 1.53497Z"/>
<path id="path19_fill" d="M 0.0170686 1.35396C 0.0170686 1.35396 -0.4859 3.17111 3.96897 10.9742L 3.32229 5.43678e-07L 0.0170686 1.35396Z"/>
<path id="path20_fill" d="M 1.83663 5.61972C 1.83663 5.61972 2.26775 2.73365 6.65076 0.0969931C 6.65076 0.0969931 1.58515 -1.15007 0.327724 5.29904C -0.929698 11.7482 1.83663 5.61972 1.83663 5.61972Z"/>
<path id="path21_fill" d="M 48.2491 66.2727L 0 66.2727C 0 66.2727 12.682 21.0932 18.9691 11.5799C 22.3103 6.52038 35.0641 0.890764 42.3931 2.17471e-06L 48.2491 66.2727Z"/>
<path id="path22_fill" d="M 2.19277e-06 66.2014L 46.9558 66.2014C 46.9558 66.2014 33.4474 19.383 25.6514 10.9742C 19.8314 4.66759 8.47862 0.748235 3.44893 -4.34942e-06L 2.19277e-06 66.2014Z"/>
<path id="path23_fill" d="M 6.17934 12.2569C 9.59209 12.2569 12.3587 9.51309 12.3587 6.12844C 12.3587 2.7438 9.59209 -4.34942e-06 6.17934 -4.34942e-06C 2.76658 -4.34942e-06 0 2.7438 0 6.12844C 0 9.51309 2.76658 12.2569 6.17934 12.2569Z"/>
<path id="path24_fill" d="M 1.3652 9.26392C 0.610748 9.26392 -1.09639e-06 8.65821 -1.09639e-06 7.90997L -1.09639e-06 1.35396C -1.09639e-06 0.605722 0.610748 -2.17471e-06 1.3652 -2.17471e-06C 2.11966 -2.17471e-06 2.73041 0.605722 2.73041 1.35396L 2.73041 7.90997C 2.73041 8.65821 2.08373 9.26392 1.3652 9.26392Z"/>
<path id="path25_fill" d="M 9.34085 1.35396C 9.34085 2.1022 8.73011 2.70791 7.97566 2.70791L 1.3652 2.70791C 0.610747 2.70791 -2.19277e-06 2.1022 -2.19277e-06 1.35396C -2.19277e-06 0.605718 0.610747 4.34942e-06 1.3652 4.34942e-06L 7.97566 4.34942e-06C 8.73011 4.34942e-06 9.34085 0.605718 9.34085 1.35396Z"/>
</defs>
</svg>
