<svg width="30" height="67" viewBox="0 0 30 67" version="1.1" xmlns="http://www.w3.org/2000/svg" xmlns:xlink="http://www.w3.org/1999/xlink">
<title>Group</title>
<desc>Created using Figma</desc>
<g id="Canvas" transform="translate(-8863 -7593)">
<g id="Group">
<g id="Group">
<g id="Vector">
<use xlink:href="#path0_fill" transform="translate(8863 7593)" fill="#FFFFFF"/>
</g>
<g id="Vector">
<use xlink:href="#path1_fill" transform="translate(8876.64 7602.53)" fill="#FFFFFF"/>
</g>
<g id="Vector">
<use xlink:href="#path2_fill" transform="translate(8865.55 7646.21)" fill="#FFFFFF"/>
</g>
</g>
</g>
</g>
<defs>
<path id="path0_fill" fill-rule="evenodd" d="M 2.72727 14.9815L 2.72727 32.6776C 2.72727 39.451 8.22008 44.9357 15 44.9357C 21.7791 44.9357 27.2727 39.4484 27.2727 32.6776L 27.2727 14.9815C 27.2727 8.20808 21.7799 2.72338 15 2.72338C 8.22094 2.72338 2.72727 8.21074 2.72727 14.9815ZM 0 14.9815C 0 6.70746 6.71391 0 15 0C 23.2843 0 30 6.70212 30 14.9815L 30 32.6776C 30 40.9516 23.2861 47.6591 15 47.6591C 6.71573 47.6591 0 40.957 0 32.6776L 0 14.9815Z"/>
<path id="path1_fill" fill-rule="evenodd" d="M 0 1.3675C 0 0.612249 0.60527 0 1.36364 0C 2.11675 0 2.72727 0.614088 2.72727 1.3675L 2.72727 6.80264C 2.72727 7.55788 2.122 8.17013 1.36364 8.17013C 0.610521 8.17013 0 7.55605 0 6.80264L 0 1.3675Z"/>
<path id="path2_fill" fill-rule="evenodd" d="M 12.4463 10.5028L 22.5322 0.431217C 23.0647 -0.100556 23.9282 -0.100556 24.4607 0.431217C 24.9932 0.962989 24.9932 1.82516 24.4607 2.35694L 13.4105 13.3913C 13.1442 13.6572 12.7952 13.7902 12.4463 13.7902C 12.0973 13.7902 11.7483 13.6572 11.482 13.3913L 0.3994 2.32455C -0.133133 1.79278 -0.133133 0.930602 0.3994 0.398829C 0.931933 -0.132943 1.79534 -0.132943 2.32787 0.398829L 12.4463 10.5028Z"/>
</defs>
</svg>
