<svg width="23" height="27" viewBox="0 0 23 27" version="1.1" xmlns="http://www.w3.org/2000/svg" xmlns:xlink="http://www.w3.org/1999/xlink">
<g id="Canvas" fill="none">
<g id="Group">
<path id="Vector" d="M 10.9416 5.61482C 10.9416 8.71478 8.49259 11.2291 5.47104 11.2291C 3.84262 11.2291 2.37939 10.4982 1.37744 9.33909C 0.520584 8.34803 3.44068e-07 7.04356 3.44068e-07 5.61482C 3.44068e-07 2.51387 2.44949 -6.14106e-08 5.47055 -6.14106e-08C 8.49259 -6.14106e-08 10.9416 2.51387 10.9416 5.61482Z" transform="translate(5.94531 1)" stroke="#BDBDBD" stroke-miterlimit="10"/>
<path id="Vector_2" d="M 19.7646 5.96849C 19.7268 5.89001 19.6881 5.81153 19.6489 5.73405C 17.9072 2.32622 14.4269 6.14106e-08 10.4166 6.14106e-08C 4.66418 6.14106e-08 0 4.78676 0 10.6904L 20.8332 10.6904C 20.8332 9.66659 20.693 8.67503 20.4312 7.7378" transform="translate(1 15.3096)" stroke="#BDBDBD" stroke-miterlimit="10" stroke-linecap="round" stroke-linejoin="round"/>
</g>
</g>
</svg>
