<svg width="117" height="52" viewBox="0 0 117 52" version="1.1" xmlns="http://www.w3.org/2000/svg" xmlns:xlink="http://www.w3.org/1999/xlink">
<g id="Canvas" fill="none">
<g id="if__Paypal-39_1156727 (1)">
<g id="Group">
<g id="Group_2">
<g id="Vector">
<path d="M 8.49683 1.23208e-06L 3.04603 1.23208e-06C 2.7254 1.23208e-06 2.40476 0.322982 2.24444 0.645963L 2.44625e-06 14.8571C 2.44625e-06 15.1801 0.160319 15.3416 0.480954 15.3416L 3.36667 15.3416C 3.6873 15.3416 3.84762 15.1801 3.84762 14.8571L 4.48889 10.8199C 4.48889 10.4969 4.80952 10.1739 5.29048 10.1739L 7.05397 10.1739C 10.7413 10.1739 12.8254 8.39752 13.3064 4.84472C 13.627 3.39131 13.3063 2.09938 12.6651 1.29193C 11.7032 0.484472 10.2603 1.23208e-06 8.49683 1.23208e-06ZM 9.13809 5.32919C 8.81746 7.26708 7.3746 7.26708 5.93174 7.26708L 4.96984 7.26708L 5.61111 3.55279C 5.61111 3.3913 5.77143 3.22982 6.09206 3.22982L 6.4127 3.22982C 7.37461 3.22982 8.33651 3.22981 8.81746 3.87578C 9.1381 4.03727 9.13809 4.52174 9.13809 5.32919Z" transform="translate(77.5781 19.7822)" fill="#139AD6"/>
</g>
</g>
<g id="Group_3">
<g id="Vector_2">
<path d="M 8.49683 1.23208e-06L 3.04603 1.23208e-06C 2.7254 1.23208e-06 2.40476 0.322982 2.24444 0.645963L -6.11563e-07 14.8571C -6.11563e-07 15.1801 0.160319 15.3416 0.480954 15.3416L 3.04603 15.3416C 3.36667 15.3416 3.6873 15.0186 3.84762 14.6957L 4.48889 10.8199C 4.48889 10.4969 4.80952 10.1739 5.29048 10.1739L 7.05397 10.1739C 10.7413 10.1739 12.8254 8.39752 13.3064 4.84472C 13.627 3.39131 13.3063 2.09938 12.6651 1.29193C 11.7032 0.484472 10.4206 1.23208e-06 8.49683 1.23208e-06ZM 9.1381 5.32919C 8.81746 7.26708 7.3746 7.26708 5.93175 7.26708L 5.13016 7.26708L 5.77143 3.55279C 5.77143 3.3913 5.93174 3.22982 6.25238 3.22982L 6.57302 3.22982C 7.53492 3.22982 8.49683 3.22981 8.97778 3.87578C 9.13809 4.03727 9.29841 4.52174 9.1381 5.32919Z" transform="translate(38.2969 19.7832)" fill="#263B80"/>
</g>
</g>
<g id="Group_4">
<g id="Vector_3">
<path d="M 12.4449 0.322981L 9.8798 0.322981C 9.71948 0.322981 9.39884 0.484473 9.39884 0.645963L 9.23853 1.45341L 9.07821 1.13043C 8.43694 0.322981 7.31472 1.23208e-06 6.03218 1.23208e-06C 3.14646 1.23208e-06 0.581384 2.26087 0.100432 5.32919C -0.220203 6.9441 0.26075 8.39752 1.06234 9.36646C 1.86392 10.3354 2.98615 10.6584 4.429 10.6584C 6.83377 10.6584 8.1163 9.20497 8.1163 9.20497L 7.95599 10.0124C 7.95599 10.3354 8.11631 10.4969 8.43694 10.4969L 10.8417 10.4969C 11.1623 10.4969 11.483 10.1739 11.6433 9.85093L 13.0862 0.807455C 12.9258 0.645964 12.6052 0.322981 12.4449 0.322981ZM 8.75758 5.49068C 8.43694 6.9441 7.31472 8.07454 5.71154 8.07454C 4.90996 8.07454 4.26869 7.75155 3.94805 7.42857C 3.62742 6.9441 3.4671 6.29813 3.4671 5.49068C 3.62742 4.03727 4.90996 2.90683 6.35281 2.90683C 7.1544 2.90683 7.63535 3.22982 8.1163 3.5528C 8.59726 4.03727 8.75758 4.84472 8.75758 5.49068Z" transform="translate(50.8633 24.627)" fill="#263B80"/>
</g>
</g>
<g id="Group_5">
<g id="Vector_4">
<path d="M 12.4449 0.322981L 9.8798 0.322981C 9.71948 0.322981 9.39884 0.484473 9.39884 0.645963L 9.23853 1.45341L 9.07821 1.13043C 8.43694 0.322981 7.31472 1.23208e-06 6.03218 1.23208e-06C 3.14647 1.23208e-06 0.581386 2.26087 0.100434 5.32919C -0.220201 6.9441 0.260749 8.39752 1.06234 9.36646C 1.86392 10.3354 2.98615 10.6584 4.42901 10.6584C 6.83377 10.6584 8.11631 9.20497 8.11631 9.20497L 7.95599 10.0124C 7.95599 10.3354 8.11631 10.4969 8.43694 10.4969L 10.8417 10.4969C 11.1623 10.4969 11.483 10.1739 11.6433 9.85093L 13.0861 0.807455C 12.9258 0.645964 12.7655 0.322981 12.4449 0.322981ZM 8.75757 5.49068C 8.43694 6.9441 7.31472 8.07454 5.71154 8.07454C 4.90996 8.07454 4.26868 7.75155 3.94805 7.42857C 3.62741 6.9441 3.4671 6.29813 3.4671 5.49068C 3.62742 4.03727 4.90995 2.90683 6.35281 2.90683C 7.1544 2.90683 7.63535 3.22982 8.11631 3.5528C 8.75758 4.03727 8.91789 4.84472 8.75757 5.49068Z" transform="translate(89.9805 24.6279)" fill="#139AD6"/>
</g>
</g>
<g id="Group_6">
<g id="Group_7">
<g id="Vector_5">
<path d="M 12.3444 -6.16038e-07L 9.61905 -6.16038e-07C 9.29841 -6.16038e-07 9.13809 0.161491 8.97778 0.322982L 5.4508 5.81366L 3.84762 0.645962C 3.6873 0.32298 3.52699 0.161491 3.04603 0.161491L 0.480951 0.161491C 0.160316 0.161491 0 0.484471 0 0.807453L 2.88571 9.36646L 0.160315 13.2422C -2.44864e-06 13.5652 0.160316 14.0497 0.480951 14.0497L 3.04603 14.0497C 3.36667 14.0497 3.52698 13.8882 3.6873 13.7267L 12.5048 0.968944C 12.9857 0.484472 12.6651 -6.16038e-07 12.3444 -6.16038e-07Z" transform="translate(64.9102 24.9512)" fill="#263B80"/>
</g>
</g>
<g id="Group_8">
<g id="Vector_6">
<path d="M 2.24444 0.386335L 2.44625e-06 14.9205C 2.44625e-06 15.2435 0.160319 15.405 0.480954 15.405L 2.72539 15.405C 3.04603 15.405 3.36666 15.082 3.52698 14.759L 5.77143 0.547826C 5.77143 0.224845 5.61111 0.0633524 5.29048 0.0633524L 2.72539 0.0633524C 2.56508 -0.0981384 2.40476 0.0633536 2.24444 0.386335Z" transform="translate(103.227 19.8809)" fill="#139AD6"/>
</g>
</g>
<g id="Group_9">
<g id="Vector_7">
<path d="M 18.4365 1.93789C 17.3143 0.645964 15.2302 0 12.3444 0L 4.32857 0C 3.84762 0 3.36667 0.484473 3.20635 0.968945L 0 22.1242C 0 22.6087 0.320635 22.9317 0.64127 22.9317L 5.61111 22.9317L 6.89365 15.0186L 6.89365 15.3416C 7.05397 14.8571 7.53492 14.3727 8.01587 14.3727L 10.4206 14.3727C 15.0698 14.3727 18.5968 12.4348 19.719 7.10559C 19.719 6.9441 19.719 6.78261 19.719 6.62112C 19.5587 6.62112 19.5587 6.62112 19.719 6.62112C 19.8794 4.52174 19.5587 3.22982 18.4365 1.93789Z" transform="translate(8 13)" fill="#263B80"/>
</g>
</g>
</g>
<g id="Group_10">
<g id="Vector_8">
<path d="M 14.4286 6.16038e-07C 14.4286 0.161491 14.4286 0.322981 14.4286 0.484471C 13.3063 5.97515 9.77937 7.75156 5.13016 7.75156L 2.7254 7.75156C 2.24444 7.75156 1.76349 8.23603 1.60317 8.7205L 7.64453e-08 18.5714C 7.64453e-08 18.8944 0.160317 19.2174 0.64127 19.2174L 4.80952 19.2174C 5.29048 19.2174 5.77143 18.8944 5.77143 18.4099L 5.77143 18.2484L 6.57302 13.2422L 6.57302 12.9193C 6.57302 12.4348 7.05397 12.1118 7.53492 12.1118L 8.17619 12.1118C 12.1841 12.1118 15.3905 10.4969 16.1921 5.65217C 16.5127 3.71429 16.3524 1.93789 15.3905 0.807454C 15.2302 0.484473 14.9095 0.161491 14.4286 6.16038e-07Z" transform="translate(13.1289 19.6201)" fill="#139AD6"/>
</g>
</g>
<g id="Group_11">
<g id="Vector_9">
<path d="M 11.5429 0.484471C 11.3825 0.484471 11.2222 0.322983 11.0619 0.322983C 10.9016 0.322983 10.7413 0.322982 10.581 0.161491C 9.93968 6.13632e-07 9.29841 0 8.49683 0L 2.24444 0C 2.08413 0 1.92381 6.13632e-07 1.76349 0.161491C 1.44286 0.322982 1.28254 0.645963 1.28254 0.968945L 3.05781e-07 9.36646L 3.05781e-07 9.68944C 0.160318 9.20497 0.64127 8.7205 1.12222 8.7205L 3.52698 8.7205C 8.17619 8.7205 11.7032 6.78261 12.8254 1.45342C 12.8254 1.29192 12.8254 1.13044 12.9857 0.968945C 12.6651 0.807454 12.5048 0.645962 12.1841 0.645962C 11.7032 0.484471 11.7032 0.484471 11.5429 0.484471Z" transform="translate(14.8945 18.6523)" fill="#232C65"/>
</g>
</g>
</g>
<g id="Vector_10">
<path d="M 110.565 50L 4.43478 50C 1.98552 50 0 48.0248 0 45.5882L 0 4.41176C 0 1.97521 1.98552 0 4.43478 0L 110.565 0C 113.014 0 115 1.97521 115 4.41176L 115 45.5882C 115 48.0248 113.014 50 110.565 50Z" stroke-miterlimit="10" stroke-linecap="round" stroke-linejoin="round" transform="translate(1 1)" stroke="#263B80"/>
</g>
</g>
</g>
</svg>

