<svg width="70" height="52" viewBox="0 0 70 52" version="1.1" xmlns="http://www.w3.org/2000/svg" xmlns:xlink="http://www.w3.org/1999/xlink">
<g id="Canvas" fill="none">
<g id="if_Sofort_onlyne_payments_pay_online_send_money_credit_card_card_ecommerce_2327520">
<g id="Group">
<g id="Vector">
<path d="M 63.5652 50L 4.43478 50C 1.98552 50 0 48.0248 0 45.5882L 0 4.41176C 0 1.97521 1.98552 0 4.43478 0L 63.5652 0C 66.0145 0 68 1.97521 68 4.41176L 68 45.5882C 68 48.0248 66.0145 50 63.5652 50Z" stroke-miterlimit="10" stroke-linecap="round" stroke-linejoin="round" transform="translate(1 1)" stroke="#303C42"/>
</g>
<g id="path66">
<path d="M 19.5597 -8.98294e-08C 18.7507 -8.98294e-08 17.9663 0.184948 17.2295 0.530086C 16.1774 1.02585 15.2229 1.85255 14.4438 2.94963C 13.9377 3.66185 13.5044 4.48741 13.1652 5.41074C 12.5255 7.15363 12.5327 8.56734 13.1866 9.49897C 13.5574 10.0256 14.3282 10.6547 15.8954 10.6565L 15.9014 10.6565C 18.7562 10.6565 20.8872 8.79502 22.2368 5.12364C 22.5933 4.15227 23.0636 2.33937 22.204 1.11597C 21.6848 0.376474 20.7966 0.00118638 19.5597 -8.98294e-08L 19.5597 -8.98294e-08ZM 36.785 -8.98294e-08C 35.9767 -8.98294e-08 35.1917 0.184948 34.4555 0.530086C 33.4027 1.02585 32.449 1.85255 31.6699 2.94963C 31.1632 3.66185 30.7303 4.48741 30.3911 5.41074C 29.7509 7.15363 29.7586 8.56734 30.4131 9.49897C 30.7833 10.0256 31.5535 10.6547 33.1219 10.6565L 33.1268 10.6565C 35.9821 10.6565 38.1138 8.79502 39.4622 5.12364C 39.8198 4.15227 40.289 2.33937 39.43 1.11597C 38.9102 0.376474 38.022 0.00118638 36.785 -8.98294e-08ZM 10.3915 0.147609C 9.45198 0.147609 8.53934 0.147536 7.72147 0.560261C 6.9042 0.973003 6.18228 1.7991 5.6267 3.45125C 5.50629 3.80647 5.4426 4.11251 5.43425 4.37819C 5.42591 4.64445 5.47242 4.87096 5.57376 5.06784C 5.69894 5.30801 5.90162 5.53396 6.15497 5.72432C 6.40892 5.91527 6.71226 6.07011 7.03953 6.16915C 7.05205 6.1727 7.2238 6.2213 7.43244 6.2806C 7.63989 6.3399 7.88247 6.41099 8.03626 6.45725C 8.12628 6.48453 8.22515 6.52014 8.31456 6.57411C 8.40458 6.62689 8.48511 6.69801 8.53577 6.79645C 8.56916 6.86168 8.58707 6.93346 8.58886 7.00997C 8.59124 7.08706 8.57805 7.17016 8.54765 7.25793C 8.47135 7.48209 8.3557 7.62677 8.13513 7.71513C 7.91576 7.80349 7.59211 7.83185 7.10091 7.83541L 0.969262 7.83541L -2.59851e-08 10.4844L 6.5632 10.4844C 7.18077 10.4844 8.30979 10.4845 9.39472 10.0255C 10.4796 9.5671 11.5206 8.65087 11.9611 6.81666C 12.1268 6.12758 12.0755 5.56598 11.8043 5.12478C 11.5319 4.68416 11.0395 4.364 10.3223 4.15941C 10.3223 4.15941 10.162 4.11302 9.97307 4.05905C 9.78529 4.00509 9.5677 3.94347 9.45682 3.91144C 9.27321 3.85926 9.13191 3.75369 9.04845 3.61907C 8.96559 3.48505 8.94055 3.32196 8.98764 3.15532C 9.03712 2.98216 9.15636 2.84398 9.32804 2.7485C 9.50091 2.65362 9.72743 2.60146 9.9921 2.60146L 13.8072 2.60146C 13.834 2.56292 13.8585 2.52087 13.8853 2.48232C 14.5822 1.50146 15.4257 0.708013 16.3497 0.147609L 10.3915 0.147609ZM 27.5393 0.147609C 25.8415 0.147609 24.5777 1.00209 23.981 2.60146L 21.097 10.4844L 24.2565 10.4844L 25.7384 6.43234L 28.5306 6.43419L 29.3251 4.26374L 26.542 4.26189L 26.9902 3.00529C 27.0832 2.77994 27.3067 2.60089 27.6334 2.60089C 27.8152 2.60089 29.8652 2.60147 30.9257 2.60203C 30.9531 2.56289 30.9775 2.52086 31.0044 2.48232C 31.7012 1.50146 32.6878 0.708013 33.6118 0.147606L 27.5393 0.147606L 27.5393 0.147609ZM 42.1965 0.1533L 38.4129 10.4908L 41.6266 10.4908L 43.0018 6.85211C 43.0692 7.00214 43.8805 10.4908 43.8805 10.4908L 47.2593 10.4908C 47.2593 10.4908 46.6448 7.92723 46.1929 6.89182C 46.0767 6.62555 45.9556 6.32728 45.7934 6.07762C 46.7478 5.72477 48.1308 4.96748 48.7036 3.43274C 49.0553 2.48925 49.0352 1.72657 48.6441 1.16735C 48.1702 0.488346 47.2057 0.155081 45.6945 0.1533L 42.1965 0.1533L 42.1965 0.1533ZM 48.7882 0.153449C 48.9915 0.313565 49.1667 0.496141 49.3128 0.704886C 49.6865 1.24097 49.8296 1.878 49.7443 2.60801L 51.6579 2.60801L 48.7739 10.4934L 51.6555 10.4934L 54.5413 2.60801L 58.2437 2.60801L 59.142 0.153449L 48.7882 0.153449ZM 44.3139 2.2876L 44.8445 2.2876C 45.8144 2.28825 46.1761 2.57048 45.8477 3.45111C 45.5395 4.27778 44.9851 4.78842 43.9312 4.78842L 43.927 4.78842L 43.3816 4.78784L 44.3139 2.28758L 44.3139 2.2876ZM 18.8015 2.33884L 18.802 2.33884C 19.7892 2.34003 20.0152 2.90937 19.1485 5.2684L 19.1483 5.2684C 18.2577 7.69326 17.6116 8.30344 16.6387 8.30344L 16.6369 8.30344C 15.689 8.30286 15.3565 7.70619 16.2435 5.2926C 16.9058 3.49101 17.7636 2.33884 18.8015 2.33884L 18.8015 2.33884ZM 36.0268 2.33884L 36.028 2.33884C 37.0145 2.34003 37.241 2.90937 36.3737 5.2684C 35.4837 7.69326 34.8369 8.30344 33.8647 8.30344L 33.8624 8.30344C 32.914 8.30286 32.583 7.70619 33.4695 5.2926C 34.1311 3.49101 34.9896 2.33884 36.0268 2.33884L 36.0268 2.33884Z" transform="translate(5.42578 21.3926)" fill="#303C42"/>
</g>
</g>
</g>
</g>
</svg>

