<svg width="44" height="33" viewBox="0 0 44 33" version="1.1" xmlns="http://www.w3.org/2000/svg" xmlns:xlink="http://www.w3.org/1999/xlink">
<g id="Canvas" fill="none">
<path id="Vector" d="M 1.98935 0.00102229C 0.884783 0.00102938 0.000544441 0.89646 0.00052712 2.00103C 0.000380765 11.3345 -0.000671701 20.6679 0.000684647 30.0014C 0.000845144 31.1058 0.89687 32.001 2.0013 32.001C 16.251 32.001 29.6688 32.0003 44 32C 44 27.9387 44.0004 -2.28882e-05 44.0004 -2.28882e-05C 44.0004 -2.28882e-05 16.0609 0.000931938 1.98935 0.00102229ZM 10.634 17.3363C 10.3718 18.4449 9.75209 18.9988 9.10627 19.2759C 8.46045 19.5533 7.78831 19.5532 7.42071 19.5532L 3.51367 19.5532L 4.09063 17.9521L 7.74083 17.9521C 8.03323 17.9499 8.22584 17.9328 8.35646 17.8794C 8.48773 17.826 8.55659 17.7386 8.60203 17.603C 8.62008 17.55 8.62792 17.4997 8.62652 17.4532C 8.62545 17.407 8.61481 17.3636 8.59494 17.3241C 8.56475 17.2646 8.51684 17.2216 8.46324 17.1897C 8.41006 17.1571 8.3512 17.1356 8.29759 17.1191C 8.20607 17.0911 8.06159 17.0481 7.93816 17.0123C 7.81398 16.9764 7.71172 16.9471 7.7042 16.9449C 7.50944 16.885 7.32886 16.7915 7.17761 16.6761C 7.02679 16.561 6.90616 16.4244 6.83172 16.2792C 6.77134 16.1602 6.74363 16.0233 6.74857 15.8624C 6.75362 15.7018 6.79154 15.5168 6.86319 15.3021C 7.19394 14.3034 7.62363 13.8041 8.11014 13.5546C 8.59709 13.3052 9.14032 13.3053 9.69966 13.3053L 13.2465 13.3053C 12.6965 13.6439 12.1943 14.1235 11.7795 14.7164C 11.7636 14.7397 11.749 14.7651 11.7329 14.7885L 9.46183 14.7885C 9.30435 14.7885 9.16943 14.8199 9.06652 14.8773C 8.96436 14.9351 8.89336 15.0186 8.86392 15.1232C 8.83589 15.2239 8.85082 15.3225 8.90012 15.4036C 8.94986 15.4849 9.03397 15.5488 9.14322 15.5802C 9.20928 15.5997 9.33873 15.6369 9.45055 15.6694C 9.56302 15.7021 9.65852 15.7301 9.65852 15.7301C 10.0854 15.8538 10.3785 16.0474 10.5407 16.3136C 10.7021 16.5803 10.7326 16.9198 10.634 17.3363ZM 12.9797 19.6573L 12.976 19.6573C 12.0432 19.6562 11.5843 19.2759 11.3635 18.9576C 10.9743 18.3945 10.97 17.54 11.3507 16.4865C 11.5527 15.9284 11.8106 15.4294 12.1119 14.9989C 12.5758 14.3358 13.1439 13.8361 13.7703 13.5364C 14.2089 13.3279 14.6758 13.216 15.1573 13.216C 15.8937 13.2167 16.4225 13.4435 16.7316 13.8906C 17.2433 14.63 16.9633 15.7259 16.7511 16.313C 15.9476 18.5321 14.6791 19.6573 12.9797 19.6573ZM 20.4977 17.1051L 18.8356 17.104L 17.9533 19.5532L 16.0726 19.5532L 17.7894 14.7885C 18.1446 13.8217 18.8969 13.3053 19.9076 13.3053L 23.5226 13.3053C 22.9725 13.6439 22.3852 14.1235 21.9704 14.7164C 21.9544 14.7397 21.9399 14.7651 21.9235 14.7888C 21.2922 14.7885 20.0719 14.7881 19.9636 14.7881C 19.7692 14.7881 19.6362 14.8963 19.5808 15.0325L 19.3139 15.792L 20.9707 15.7932L 20.4977 17.1051ZM 23.2339 19.6573L 23.231 19.6573C 22.2972 19.6562 21.8388 19.2759 21.6184 18.9576C 21.2287 18.3945 21.2242 17.54 21.6053 16.4865C 21.8072 15.9284 22.0649 15.4294 22.3665 14.9989C 22.8304 14.3358 23.3981 13.8361 24.0248 13.5364C 24.463 13.3279 24.9304 13.216 25.4115 13.216C 26.1479 13.2167 26.6766 13.4435 26.9861 13.8906C 27.4974 14.63 27.2181 15.7259 27.0052 16.313C 26.2026 18.5321 24.9336 19.6573 23.2339 19.6573ZM 30.7742 16.8896C 30.8707 17.0405 30.9428 17.2208 31.0121 17.3818C 31.281 18.0075 31.6468 19.5571 31.6468 19.5571L 29.6355 19.5571C 29.6355 19.5571 29.1525 17.4484 29.1124 17.3577L 28.2937 19.5571L 26.3807 19.5571L 28.633 13.3086L 30.7154 13.3086C 31.6149 13.3097 32.1891 13.5112 32.4712 13.9216C 32.704 14.2596 32.716 14.7206 32.5066 15.291C 32.1657 16.2186 31.3424 16.6763 30.7742 16.8896ZM 38.1858 14.7924L 35.9817 14.7924L 34.2638 19.5586L 32.5484 19.5586L 34.2653 14.7924L 33.1261 14.7924C 33.1769 14.3512 33.0917 13.9661 32.8693 13.6421C 32.7823 13.5159 32.678 13.4055 32.557 13.3088L 38.7205 13.3088L 38.1858 14.7924Z" transform="translate(0 0.998047)" fill="#808080"/>
</g>
</svg>
