<svg width="50" height="32" viewBox="0 0 50 32" version="1.1" xmlns="http://www.w3.org/2000/svg" xmlns:xlink="http://www.w3.org/1999/xlink">
<g id="Canvas" fill="none">
<g id="Group">
<g id="Group_2">
<g id="Vector">
<path fill-rule="evenodd" clip-rule="evenodd" d="M 32 14.9116C 32.1088 15.8912 32.2177 16.9796 32 17.9592C 31.8912 18.6122 31.4558 18.7211 30.9116 18.5034L 30.9116 17.9592C 30.9116 16.9796 30.9116 15.8912 30.9116 14.9116C 30.9116 14.6939 31.0204 14.6939 31.1293 14.585C 31.2381 14.585 31.3469 14.4762 31.3469 14.4762C 31.6735 14.3673 32 14.4762 32 14.9116ZM 38.7483 14.1497C 38.6395 14.2585 38.6395 14.3673 38.5306 14.4762C 38.4218 14.9116 38.4218 15.3469 38.4218 15.7823L 39.7279 15.7823C 39.619 15.2381 39.619 14.8027 39.5102 14.3673C 39.5102 13.932 39.0748 13.932 38.7483 14.1497ZM 49.1973 1.30612L 49.1973 30.6939C 49.1973 31.3469 48.6531 32 47.8912 32L 1.30612 32C 0.653061 32 0 31.4558 0 30.6939L 0 1.30612C 0 0.544218 0.544218 0 1.30612 0L 47.8912 0C 48.6531 0 49.1973 0.544218 49.1973 1.30612ZM 11.3197 16C 10.9932 15.7823 10.7755 15.6735 10.449 15.4558C 10.2313 15.3469 9.90476 15.2381 9.79592 15.1293C 9.68708 15.0204 9.57823 14.8027 9.57823 14.6939C 9.57823 14.585 9.79592 14.4762 9.90476 14.3673C 10.1224 14.3673 10.3401 14.3673 10.449 14.3673C 10.8844 14.4762 11.4286 14.585 11.8639 14.585C 11.8639 14.0408 11.8639 13.3878 11.8639 12.8435C 11.8639 12.6259 11.7551 12.6259 11.6463 12.517C 10.6667 12.1905 9.68707 12.0816 8.70748 12.2993C 7.72789 12.517 7.07483 12.9524 6.85714 13.932C 6.7483 14.1497 6.7483 14.3673 6.7483 14.585L 6.7483 15.0204C 6.7483 15.1293 6.7483 15.1293 6.7483 15.2381C 6.85714 15.8912 7.07483 16.3265 7.61905 16.7619C 7.83673 16.9796 8.16327 17.0884 8.4898 17.1973C 8.70748 17.415 9.03401 17.5238 9.2517 17.6327C 9.46939 17.7415 9.46939 17.9592 9.46939 18.1769C 9.36054 18.2857 9.2517 18.3946 9.14286 18.5034C 8.92517 18.5034 8.59864 18.5034 8.27211 18.5034C 7.83673 18.3946 7.40136 18.2857 6.96599 18.2857C 6.96599 18.9388 6.96599 19.5918 6.96599 20.1361C 6.96599 20.2449 7.07483 20.2449 7.18367 20.3537C 8.05442 20.5714 8.92517 20.6803 9.90476 20.6803C 11.3197 20.5714 12.0816 19.8095 12.2993 18.3946C 12.2993 17.3061 12.0816 16.5442 11.3197 16ZM 16.4354 17.6327C 16.4354 16.5442 16.4354 15.5646 16.4354 14.4762C 16.4354 14.3673 16.4354 14.3673 16.4354 14.2585L 17.5238 14.2585C 17.6327 13.6054 17.7415 13.0612 17.8503 12.4082L 16.3265 12.4082L 16.3265 10.1224C 15.5646 10.3401 14.8027 10.449 14.0408 10.6667C 13.8231 10.6667 13.8231 10.7755 13.7143 10.9932C 13.6054 11.5374 13.4966 11.9728 13.3878 12.517L 12.4082 12.517L 12.4082 14.3673L 13.3878 14.3673L 13.3878 14.6939C 13.3878 16 13.3878 17.1973 13.3878 18.5034C 13.3878 19.5918 13.932 20.3537 14.8027 20.5714C 15.7823 20.7891 16.7619 20.5714 17.7415 20.4626L 17.7415 18.5034C 17.415 18.5034 17.0884 18.6122 16.7619 18.6122C 16.4354 18.6122 16.3265 18.5034 16.2177 18.1769C 16.4354 17.8503 16.4354 17.7415 16.4354 17.6327ZM 23.2925 12.7347C 23.2925 12.517 23.1837 12.517 23.0748 12.4082C 22.2041 12.1905 21.6599 12.4082 21.1156 13.1701C 21.0068 12.9524 20.898 12.8435 20.7891 12.6259C 20.6803 12.517 20.6803 12.4082 20.4626 12.4082C 19.8095 12.4082 19.2653 12.4082 18.6122 12.4082C 18.5034 12.4082 18.5034 12.4082 18.3946 12.4082L 18.3946 20.2449L 21.2245 20.2449L 21.2245 15.3469C 21.2245 14.8027 21.3333 14.6939 21.8776 14.585C 21.9864 14.585 22.2041 14.585 22.3129 14.585C 22.6395 14.585 22.8571 14.6939 23.1837 14.6939C 23.2925 14.1497 23.2925 13.3878 23.2925 12.7347ZM 26.7755 12.517L 23.9456 12.517L 23.9456 20.4626L 26.7755 20.4626L 26.7755 12.517ZM 26.8844 10.1224C 26.8844 9.36055 26.3401 8.81633 25.5782 8.70748L 25.2517 8.70748C 24.4898 8.81633 23.9456 9.36055 23.9456 10.1224C 23.9456 10.5578 24.1633 10.8844 24.381 11.102C 24.5986 11.3197 24.8163 11.4286 25.034 11.4286C 25.1429 11.4286 25.2517 11.4286 25.3605 11.4286C 26.2313 11.5374 26.8844 10.8844 26.8844 10.1224ZM 34.9388 15.2381C 34.9388 14.585 34.7211 14.0408 34.5034 13.4966C 34.2857 12.9524 33.8503 12.6259 33.3061 12.517C 32.4354 12.2993 31.6735 12.4082 30.9116 12.8435C 30.8027 12.8435 30.8027 12.9524 30.6939 12.9524C 30.4762 12.4082 30.0408 12.4082 29.6054 12.4082C 29.4966 12.4082 29.4966 12.4082 29.3878 12.4082L 27.9728 12.4082L 27.9728 22.8571C 27.9728 22.966 27.9728 23.0748 27.9728 23.0748L 30.8027 23.0748L 30.8027 20.2449C 31.2381 20.2449 31.6735 20.3537 32 20.3537C 33.415 20.3537 34.1769 19.7007 34.6122 18.3946C 34.6122 18.2857 34.6122 18.2857 34.6122 18.1769C 35.0476 17.3061 35.0476 16.3265 34.9388 15.2381ZM 38.5306 17.415L 42.449 17.415C 42.3401 16.5442 42.3401 15.7823 42.2313 14.9116C 42.1224 14.1497 41.9048 13.4966 41.3605 13.0612C 40.7075 12.4082 39.8367 12.2993 39.0748 12.4082C 37.4422 12.517 36.4626 13.1701 36.0272 14.6939C 35.7007 15.8912 35.7007 17.0884 36.0272 18.2857C 36.3537 19.483 37.1157 20.1361 38.3129 20.4626C 39.4014 20.6803 40.4898 20.6803 41.4694 20.3537C 42.1224 20.2449 42.1225 20.2449 42.1225 19.5918L 42.1225 18.1769C 41.9048 18.1769 41.6871 18.2857 41.3605 18.2857C 40.7075 18.3946 40.0544 18.5034 39.2925 18.3946C 38.7483 18.2857 38.5306 17.9592 38.5306 17.415Z" fill="#808080"/>
</g>
</g>
</g>
</g>
</svg>

