<svg width="60" height="60" viewBox="0 0 60 60" version="1.1" xmlns="http://www.w3.org/2000/svg" xmlns:xlink="http://www.w3.org/1999/xlink">
<g id="Canvas" fill="none">
<g id="Group 6">
<g id="Vector">
<path d="M 0 29.9996C 0.000769774 13.431 13.431 0 29.9996 0C 46.5682 0 60 13.431 60 29.9996C 60 46.5682 46.569 59.9985 29.9996 60C 13.431 59.9985 0.000769774 46.5682 0 29.9996ZM 9.33812 9.33812C 4.05055 14.6272 0.779781 21.9293 0.779781 29.9996C 0.779781 38.0707 4.05055 45.3728 9.33812 50.6619C 14.6272 55.9495 21.9293 59.2194 29.9996 59.2194C 38.0699 59.2194 45.3728 55.9495 50.6619 50.6619C 55.951 45.3728 59.2202 38.0707 59.2202 29.9996C 59.2202 21.9301 55.951 14.6272 50.6619 9.33812C 45.372 4.04978 38.0699 0.779781 29.9996 0.779781C 21.9293 0.779781 14.6272 4.04978 9.33812 9.33812Z" fill="#BDBDBD"/>
</g>
<g id="004-wallet">
<g id="Group">
<g id="Group_2">
<g id="Vector_2">
<path d="M 26.1072 16.4004L 25.6901 16.4004L 25.6901 12.6262C 25.6901 12.0287 25.394 11.4996 24.9419 11.1782L 24.9419 10.6643C 24.9419 9.91883 24.3383 9.3124 23.5963 9.3124L 23.2848 9.3124L 24.4764 7.55583C 24.8758 6.96707 24.7239 6.16158 24.1378 5.76028L 16.0522 0.224807C 15.7683 0.0303923 15.4261 -0.0413577 15.0884 0.0230095C 14.7508 0.0872674 14.4583 0.279713 14.2649 0.564963L 7.28595 10.8529L 5.3439 10.8529L 5.81244 6.08802C 5.81772 6.03432 5.85245 5.98778 5.9009 5.96946C 6.50456 5.74081 7.0277 5.31381 7.37392 4.76715C 7.40119 4.72411 7.45264 4.6995 7.50588 4.70492L 10.5519 5.00723C 10.7703 5.0285 10.9646 4.86871 10.9862 4.64941C 11.0077 4.43011 10.8483 4.23482 10.63 4.21317L 7.58394 3.91086C 7.23037 3.87607 6.89318 4.03975 6.70374 4.33879C 6.44919 4.74074 6.06454 5.05465 5.62071 5.22275C 5.28663 5.3493 5.05723 5.65074 5.02195 6.00954L 4.54574 10.8529L 4.03931 10.8529L 4.78031 3.31673C 4.80698 3.04548 5.04798 2.8462 5.31831 2.87338L 11.4738 3.48424C 11.6921 3.5054 11.8864 3.34571 11.908 3.12642C 11.9296 2.90712 11.7701 2.71183 11.5518 2.69017L 5.39637 2.07932C 4.69065 2.00937 4.05956 2.52917 3.98982 3.23825L 3.39254 9.3124L 2.37537 9.3124C 1.63339 9.3124 1.02968 9.91883 1.02968 10.6643L 1.02968 11.0148C 0.422652 11.2956 2.03509e-08 11.912 2.03509e-08 12.6262L 2.03509e-08 26.2267C 2.03509e-08 27.2045 0.791846 28 1.76524 28L 23.9249 28C 24.8982 28 25.6901 27.2045 25.6901 26.2267L 25.6901 22.4525L 26.1072 22.4525C 26.5995 22.4525 27 22.0502 27 21.5556L 27 17.2974C 27.0001 16.8028 26.5995 16.4004 26.1072 16.4004ZM 23.5963 10.1104C 23.9003 10.1103 24.1476 10.3588 24.1476 10.6643L 24.1476 10.8676C 24.0746 10.8583 24.0004 10.853 23.9249 10.853L 22.2398 10.853L 22.7435 10.1104L 23.5963 10.1104ZM 14.9212 1.01428C 14.9953 0.905174 15.1071 0.831565 15.2363 0.806955C 15.2671 0.801104 15.2981 0.798151 15.3288 0.798151C 15.4267 0.798151 15.5223 0.827572 15.6049 0.884119L 23.6905 6.41959C 23.9147 6.5731 23.9728 6.88121 23.8201 7.10641L 21.2786 10.8528L 20.6687 10.8528L 21.9147 9.01605C 22.1168 8.71816 22.1335 8.33907 21.9581 8.02664C 21.725 7.61156 21.6305 7.12282 21.692 6.65037C 21.7377 6.2989 21.5838 5.95579 21.2902 5.75486L 17.0987 2.8853C 16.8051 2.68432 16.4309 2.66589 16.122 2.83723C 15.7069 3.06746 15.2195 3.15786 14.7497 3.0918C 14.4013 3.04269 14.048 3.20074 13.8489 3.49414L 8.85707 10.8529L 8.24715 10.8529L 14.9212 1.01428ZM 15.0961 7.78957C 13.3666 7.78957 11.9469 9.14434 11.8312 10.8529L 9.81816 10.8529L 14.5052 3.9435C 14.5052 3.9435 14.5052 3.9435 14.5052 3.9435C 14.5318 3.90418 14.576 3.88078 14.6213 3.88078C 14.6274 3.88078 14.6334 3.88121 14.6395 3.88204C 15.2784 3.97183 15.9412 3.849 16.5058 3.53581C 16.5503 3.51109 16.6073 3.51464 16.6513 3.54472L 20.8429 6.41434C 20.8868 6.44442 20.9109 6.49648 20.9044 6.54701C 20.8207 7.18954 20.9493 7.85421 21.2663 8.41869C 21.2917 8.46403 21.2886 8.52211 21.2584 8.56668L 19.7076 10.8528L 18.3612 10.8528C 18.2454 9.14434 16.8258 7.78957 15.0961 7.78957ZM 17.5648 10.8529L 12.6276 10.8529C 12.7413 9.58479 13.8047 8.58757 15.0961 8.58757C 16.3876 8.58751 17.451 9.58479 17.5648 10.8529ZM 1.82398 10.6643C 1.82398 10.3588 2.07129 10.1103 2.37537 10.1103L 3.31409 10.1103L 3.24109 10.8529L 1.82398 10.8529L 1.82398 10.6643ZM 0.794295 12.6262C 0.794295 12.0884 1.22985 11.6508 1.76524 11.6508L 23.9249 11.6508C 24.4603 11.6508 24.8958 12.0884 24.8958 12.6262L 24.8958 13.7333L 0.794295 13.7333L 0.794295 12.6262ZM 24.8958 26.2267C 24.8958 26.7645 24.4603 27.2021 23.9249 27.2021L 1.76524 27.2021C 1.22985 27.2021 0.794295 26.7645 0.794295 26.2267L 0.794295 25.1196L 2.93597 25.1196C 3.15535 25.1196 3.33309 24.941 3.33309 24.7207C 3.33309 24.5003 3.1553 24.3217 2.93597 24.3217L 0.794295 24.3217L 0.794295 14.5312L 24.8958 14.5312L 24.8958 16.4004L 21.1197 16.4004L 21.1196 16.4004C 19.9298 16.4004 18.8992 17.0972 18.4101 18.1057C 18.4085 18.1091 18.4066 18.1123 18.4049 18.1157C 18.4008 18.1243 18.3972 18.1332 18.3932 18.1419C 18.3349 18.2662 18.2843 18.3948 18.2431 18.5276C 18.243 18.528 18.2429 18.5283 18.2428 18.5287C 18.1549 18.8125 18.1074 19.114 18.1074 19.4265C 18.1074 21.095 19.4587 22.4525 21.1196 22.4525L 21.1196 22.4525L 24.8957 22.4525L 24.8957 24.3217L 5.47896 24.3217C 5.25957 24.3217 5.08184 24.5003 5.08184 24.7207C 5.08184 24.941 5.25963 25.1196 5.47896 25.1196L 24.8958 25.1196L 24.8958 26.2267ZM 26.2058 21.5556C 26.2058 21.6101 26.1616 21.6546 26.1072 21.6546L 21.1197 21.6546C 20.2789 21.6546 19.5459 21.1821 19.1699 20.4876C 19.1528 20.4561 19.1365 20.424 19.1208 20.3916C 19.0897 20.3267 19.0615 20.26 19.0366 20.1918C 18.9494 19.953 18.9018 19.6952 18.9018 19.4265C 18.9018 19.1577 18.9495 18.8999 19.0366 18.6612C 19.0616 18.593 19.0897 18.5263 19.1208 18.4613C 19.1365 18.4289 19.1528 18.3969 19.1699 18.3653C 19.5459 17.6708 20.2789 17.1984 21.1197 17.1984L 26.1072 17.1984C 26.1615 17.1984 26.2058 17.2428 26.2058 17.2974L 26.2058 21.5556Z" transform="matrix(0.969663 -0.244444 0.244444 0.969663 12.9883 19.7246)" fill="#BDBDBD"/>
</g>
</g>
</g>
<g id="Group_3">
<g id="Group_4">
<g id="Vector_3">
<path d="M 1.61135 7.74384e-07C 0.722819 7.74384e-07 -3.4555e-07 0.726195 -3.4555e-07 1.61875C -3.4555e-07 2.51131 0.722819 3.23745 1.61135 3.23745C 2.49987 3.23745 3.22269 2.51131 3.22269 1.61875C 3.22269 0.726195 2.49987 7.74384e-07 1.61135 7.74384e-07ZM 1.61135 2.4395C 1.16082 2.4395 0.794295 2.07129 0.794295 1.61875C 0.794295 1.16621 1.16082 0.797945 1.61135 0.797945C 2.06187 0.797945 2.4284 1.16616 2.4284 1.61875C 2.4284 2.07134 2.06187 2.4395 1.61135 2.4395Z" transform="matrix(0.969663 -0.244444 0.244444 0.969663 36.3477 32.2012)" fill="#BDBDBD"/>
</g>
</g>
</g>
</g>
</g>
</g>
</svg>

