<svg width="260" height="51" viewBox="0 0 260 51" version="1.1" xmlns="http://www.w3.org/2000/svg" xmlns:xlink="http://www.w3.org/1999/xlink">
<g id="Canvas" fill="none">
<g id="visa and master ">
<g id="if_visa_213724">
<g id="Group">
<g id="Group_2">
<g id="Vector">
<path d="M 75.6012 0.785788C 77.7749 0.785788 79.5434 2.55711 79.5434 4.73453L 79.5434 45.2655C 79.5434 47.4427 77.775 49.2142 75.6012 49.2142L 4.72663 49.2142C 2.553 49.2142 0.784476 47.4429 0.784476 45.2655L 0.784476 4.73453C 0.784476 2.55727 2.55284 0.785788 4.72663 0.785788L 75.6012 0.785788ZM 75.6012 -3.06948e-07L 4.72663 -3.06948e-07C 2.1162 -3.06948e-07 3.51623e-09 2.11974 3.51623e-09 4.73453L 3.51623e-09 45.2655C 3.51623e-09 47.8804 2.1162 50 4.72663 50L 75.6012 50C 78.2118 50 80.3279 47.8804 80.3279 45.2655L 80.3279 4.73453C 80.3279 2.11974 78.2117 -3.06948e-07 75.6012 -3.06948e-07Z" transform="translate(179 0)" fill="#005098"/>
</g>
</g>
<g id="Group_3">
<g id="Vector_2">
<path d="M 7.6609e-07 19.9719L 3.39663 4.98791e-07L 8.83352 4.98791e-07L 5.43077 19.9719L 7.6609e-07 19.9719Z" transform="translate(208.812 15.0596)" fill="#005098"/>
</g>
<g id="Vector_3">
<path d="M 16.3075 0.839063C 15.2312 0.434068 13.5435 5.56344e-07 11.4361 5.56344e-07C 6.0662 5.56344e-07 2.28345 2.70845 2.25004 6.59119C 2.21975 9.46026 4.9502 11.0625 7.01197 12.0174C 9.12833 12.9966 9.83969 13.621 9.83074 14.4953C 9.81552 15.8339 8.1402 16.4445 6.5772 16.4445C 4.40311 16.4445 3.24757 16.1431 1.46258 15.3967L 0.763138 15.0799L -6.51177e-07 19.5513C 1.26803 20.1086 3.61534 20.5914 6.05412 20.6156C 11.7678 20.6156 15.4744 17.9384 15.5169 13.7914C 15.5383 11.5209 14.0909 9.79233 10.9558 8.36597C 9.05537 7.44157 7.89089 6.82551 7.90297 5.88964C 7.90297 5.05969 8.88812 4.1719 11.0167 4.1719C 12.7925 4.14377 14.0818 4.53211 15.0822 4.9371L 15.5719 5.16781L 16.3075 0.839063Z" transform="translate(217.648 14.7119)" fill="#005098"/>
</g>
<g id="Vector_4">
<path d="M 15.1159 -4.41238e-07L 10.9165 -4.41238e-07C 9.61501 -4.41238e-07 8.64211 0.355491 8.07038 1.65613L -7.6609e-07 19.9603L 5.70753 19.9603C 5.70753 19.9603 6.63808 17.4992 6.85083 16.9586C 7.47433 16.9586 13.0176 16.9678 13.8112 16.9678C 13.9723 17.6667 14.4711 19.9603 14.4711 19.9603L 19.5156 19.9603L 15.1159 -4.41238e-07ZM 8.41398 12.874C 8.86395 11.7227 10.5791 7.29023 10.5791 7.29023C 10.5487 7.3435 11.0261 6.13354 11.2998 5.38359L 11.6678 7.10588C 11.6678 7.10588 12.7077 11.8734 12.9264 12.874L 8.41398 12.874Z" transform="translate(232.777 15.0781)" fill="#005098"/>
</g>
<g id="Vector_5">
<path d="M 13.416 -2.49396e-07L 8.09454 13.6204L 7.52595 10.8533C 6.53767 7.66112 3.45123 4.20412 3.83045e-08 2.47413L 4.86517 19.942L 10.6152 19.9345L 19.172 -2.49396e-07L 13.416 -2.49396e-07Z" transform="translate(190.836 15.0732)" fill="#005098"/>
</g>
<g id="Vector_6">
<path d="M 8.83336 4.0287e-07L 0.0668376 4.0287e-07L -1.91523e-07 0.415052C 6.81741 2.06882 11.3299 6.06424 13.2001 10.8654L 11.2965 1.68583C 10.9681 0.421026 10.0132 0.0441617 8.83336 4.0287e-07Z" transform="translate(185.164 15.0615)" fill="#F6A500"/>
</g>
</g>
</g>
</g>
<g id="if_mastercard_213734">
<g id="Group_4">
<g id="Group_5">
<g id="Vector_7">
<path d="M 75.2927 0.785788C 77.4574 0.785788 79.2187 2.55711 79.2187 4.73453L 79.2187 45.2655C 79.2187 47.4427 77.4576 49.2142 75.2927 49.2142L 4.70733 49.2142C 2.54258 49.2142 0.781274 47.4429 0.781274 45.2655L 0.781274 4.73453C 0.781274 2.55727 2.54242 0.785788 4.70733 0.785788L 75.2927 0.785788ZM 75.2927 -3.06948e-07L 4.70733 -3.06948e-07C 2.10757 -3.06948e-07 3.50188e-09 2.11974 3.50188e-09 4.73453L 3.50188e-09 45.2655C 3.50188e-09 47.8804 2.10757 50 4.70733 50L 75.2927 50C 77.8926 50 80 47.8804 80 45.2655L 80 4.73453C 80 2.11974 77.8924 -3.06948e-07 75.2927 -3.06948e-07Z" transform="translate(88 1)" fill="#E30613"/>
</g>
</g>
<g id="Group_6">
<g id="Vector_8">
<path fill-rule="evenodd" clip-rule="evenodd" d="M 6.62536 35.3776C 10.1639 38.657 14.9164 40.6458 20.0852 40.6458C 31.185 40.6458 40.1698 31.54 40.1698 20.34C 40.1698 9.10602 31.185 5.56344e-07 20.0852 5.56344e-07C 14.9164 5.56344e-07 10.1641 1.98852 6.62536 5.26824C 2.56711 9.00104 1.16352e-06 14.3744 1.16352e-06 20.34C 1.16352e-06 26.3061 2.56727 31.6797 6.62536 35.3776Z" transform="translate(121.488 6.00781)" fill="#FAB31E"/>
</g>
<g id="Vector_9">
<path fill-rule="evenodd" clip-rule="evenodd" d="M 40.0658 18.1768C 39.9964 17.4442 39.8578 16.7464 39.7184 16.0137L 27.439 16.0137C 27.5777 15.2811 27.7854 14.5831 27.9935 13.8853L 39.1292 13.8853C 38.8857 13.1531 38.6084 12.4202 38.296 11.7224L 28.8611 11.7224C 29.2079 10.9902 29.5894 10.2572 30.0058 9.55942L 37.1169 9.55942C 36.6658 8.82676 36.1458 8.09393 35.5905 7.4312L 31.5318 7.4312C 32.1562 6.6638 32.8502 5.93113 33.5782 5.26824C 30.0058 2.02341 25.2878 3.83685e-07 20.0847 3.83685e-07C 9.01919 3.83685e-07 5.24537e-08 9.10603 5.24537e-08 20.34C 5.24537e-08 31.54 9.01919 40.6458 20.0847 40.6458C 25.288 40.6458 30.0058 38.657 33.5782 35.3776C 34.3072 34.7142 34.9661 34.0166 35.5905 33.249L 31.5318 33.249C 30.9767 32.5514 30.4911 31.8536 30.0056 31.0861L 37.1168 31.0861C 37.5676 30.3885 37.9492 29.6907 38.2959 28.923L 28.8609 28.923C 28.5482 28.2253 28.2365 27.5274 27.9934 26.7944L 39.129 26.7944C 39.3717 26.0968 39.5448 25.3643 39.7183 24.6315C 39.8577 23.9338 39.9961 23.2007 40.0656 22.4683C 40.1348 21.7706 40.1697 21.0729 40.1697 20.3398C 40.1698 19.6075 40.135 18.8746 40.0658 18.1768Z" transform="translate(94.5352 6.00781)" fill="#E40520"/>
</g>
<g id="Vector_10">
<path fill-rule="evenodd" clip-rule="evenodd" d="M -9.53704e-07 0.662422C -9.53704e-07 0.279114 0.277196 -1.88006e-06 0.624394 -1.88006e-06C 1.00566 -1.88006e-06 1.28332 0.278957 1.28332 0.662422C 1.28332 1.01131 1.00581 1.32578 0.624394 1.32578C 0.277352 1.32578 -9.53704e-07 1.01131 -9.53704e-07 0.662422ZM 0.624394 1.15071C 0.901746 1.15071 1.14457 0.941533 1.14457 0.662422C 1.14457 0.383153 0.901746 0.173817 0.624394 0.173817C 0.381574 0.173817 0.138753 0.383153 0.138753 0.662422C 0.138753 0.941533 0.38173 1.15071 0.624394 1.15071ZM 0.555017 0.941529L 0.416262 0.941529L 0.416262 0.382993L 0.659085 0.382993C 0.694242 0.382993 0.763151 0.382993 0.797839 0.382993C 0.867216 0.418511 0.867217 0.48829 0.867217 0.55791C 0.867217 0.592642 0.832682 0.662264 0.763148 0.697625L 0.901903 0.941529L 0.728615 0.941529L 0.659238 0.7322L 0.555174 0.7322L 0.555174 0.941529L 0.555174 0.627847L 0.624551 0.627847C 0.65924 0.627847 0.694238 0.627847 0.694238 0.592644C 0.728615 0.592644 0.728615 0.557908 0.728615 0.523019C 0.728615 0.523019 0.728615 0.488291 0.694238 0.488291C 0.694238 0.452773 0.659084 0.488291 0.624551 0.488291L 0.555174 0.488291L 0.555174 0.627847L 0.555174 0.941529L 0.555017 0.941529Z" transform="translate(158.988 30.3955)" fill="white"/>
</g>
<g id="Vector_11">
<path fill-rule="evenodd" clip-rule="evenodd" d="M 3.29542 9.52501C 2.63665 9.69914 2.151 9.80396 1.66536 9.80396C 0.624394 9.80396 -7.62963e-07 9.14076 -7.62963e-07 7.95469C -7.62963e-07 7.71094 0.0346879 7.46624 0.0693764 7.18713L 0.208131 6.38437L 0.312354 5.72195L 1.24895 -9.78398e-07L 3.33042 -9.78398e-07L 3.08713 1.256L 4.40561 1.256L 4.09341 3.3495L 2.7754 3.3495L 2.22038 6.76846C 2.18522 6.94338 2.18522 7.04742 2.18522 7.11735C 2.18522 7.57154 2.39336 7.74536 2.91415 7.74536C 3.15651 7.74536 3.36464 7.71094 3.57277 7.67558L 3.29542 9.52501Z" transform="translate(117.984 22.6846)" fill="#06326E"/>
</g>
<g id="Vector_12">
<path fill-rule="evenodd" clip-rule="evenodd" d="M 5.93175 8.40856C 5.16876 8.61789 4.47514 8.72224 3.71137 8.72224C 1.3527 8.72224 -1.06815e-06 7.46624 -1.06815e-06 4.98881C -1.06815e-06 2.0935 1.59567 7.09818e-07 3.81543 7.09818e-07C 5.58502 7.09818e-07 6.72943 1.18654 6.72943 3.03519C 6.72943 3.66303 6.66021 4.25661 6.48677 5.09379L 2.15054 5.09379C 2.11553 5.23351 2.11553 5.30328 2.11553 5.3729C 2.11553 6.3498 2.77477 6.83793 4.02356 6.83793C 4.82156 6.83793 5.51533 6.66427 6.27848 6.31522L 5.93175 8.40856ZM 4.64796 3.41928C 4.64796 3.24468 4.64796 3.10496 4.64796 3.00061C 4.64796 2.30299 4.26701 1.91889 3.60746 1.91889C 2.91384 1.91889 2.42789 2.44254 2.22007 3.41928L 4.64796 3.41928Z" transform="translate(122.078 23.7314)" fill="#06326E"/>
</g>
<g id="Vector_13">
<path fill-rule="evenodd" clip-rule="evenodd" d="M 8.8109 10.2921L 6.66021 10.2921L 7.909 2.37229L 5.09922 10.2921L 3.60761 10.2921L 3.43401 2.4075L 2.116 10.2921L 7.62963e-08 10.2921L 1.69974 -2.30211e-07L 4.85656 -2.30211e-07L 4.92578 6.34948L 7.04163 -2.30211e-07L 10.5105 -2.30211e-07L 8.8109 10.2921Z" transform="translate(95.8203 22.0215)" fill="#06326E"/>
</g>
<g id="Vector_14">
<path fill-rule="evenodd" clip-rule="evenodd" d="M 4.33623 4.8491C 4.12794 4.81468 4.05872 4.81468 3.91997 4.81468C 2.67086 4.81468 2.04663 5.30313 2.04663 6.07053C 2.04663 6.59433 2.35882 6.94322 2.84446 6.94322C 3.88512 6.94338 4.30154 6.07068 4.33623 4.8491ZM 6.0705 8.58253L 4.19747 8.58253L 4.23216 7.71062C 3.74637 8.3732 3.08728 8.72224 1.94272 8.72224C 0.901904 8.72224 -5.43611e-07 7.78072 -5.43611e-07 6.41957C -5.43611e-07 6.03642 0.0696893 5.68753 0.173286 5.3377C 0.520172 4.04712 1.80381 3.24468 3.78121 3.2101C 4.02372 3.2101 4.40529 3.2101 4.75234 3.24467C 4.82171 2.96556 4.82171 2.86121 4.82171 2.6863C 4.82171 2.12807 4.37076 1.95425 3.36464 1.95425C 2.74024 1.95425 2.04647 2.05829 1.56083 2.23321L 1.24895 2.30283L 1.11019 2.33741L 1.42223 0.453558C 2.4282 0.140028 3.15682 7.09818e-07 3.95465 7.09818e-07C 5.82768 7.09818e-07 6.83365 0.872226 6.83365 2.47696C 6.83365 2.89563 6.86834 3.2101 6.72959 4.11706L 6.24394 7.11735L 6.17457 7.641L 6.13988 8.05983L 6.10519 8.33878L 6.0705 8.58253Z" transform="translate(105.531 23.7314)" fill="#06326E"/>
</g>
<g id="Vector_15">
<path fill-rule="evenodd" clip-rule="evenodd" d="M 9.78202 2.23321C 10.4063 2.23321 10.9614 2.40734 11.7243 2.79143L 12.1062 0.558224C 11.8982 0.453557 11.8287 0.453558 11.551 0.349048L 10.6836 0.104667C 10.4063 0.0348887 10.0595 -3.64501e-07 9.67765 -3.64501e-07C 8.60246 -3.64501e-07 7.97822 0.0348899 7.31914 0.418826C 6.97225 0.663049 6.5213 0.976891 6.03566 1.53527L 5.75815 1.46549L 3.53792 3.03534L 3.64199 2.16327L 1.3527 2.16327L 1.90741e-07 10.5365L 2.18522 10.5365L 2.98291 6.03564C 2.98291 6.03564 3.29511 5.40763 3.43386 5.19846C 3.84997 4.67544 4.19685 4.67544 4.64812 4.67544C 4.71718 4.67544 4.78671 4.67544 4.82171 4.67544C 4.75187 5.16389 4.71718 5.68675 4.71718 6.28033C 4.71718 9.0012 6.24379 10.7111 8.60245 10.7111C 9.19216 10.7111 9.71249 10.6415 10.5103 10.4321L 10.8917 8.05982C 10.198 8.44313 9.57342 8.61821 9.05325 8.61821C 7.76993 8.61821 7.00694 7.64132 7.00694 6.10542C 7.00725 3.83795 8.15182 2.23321 9.78202 2.23321Z" transform="translate(128.703 21.7773)" fill="#06326E"/>
</g>
<g id="Vector_16">
<path fill-rule="evenodd" clip-rule="evenodd" d="M 10.233 0.000156927L 9.74749 2.93068C 9.22701 2.1287 8.60293 1.74445 7.7704 1.74445C 6.62521 1.74445 5.55002 2.40765 4.89093 3.66381L 4.89093 3.62846L 3.50339 2.79096L 3.64215 1.91889L 1.31817 1.91889L 1.64037e-06 10.2921L 2.15085 10.2921L 2.879 5.79126C 2.879 5.79126 3.43401 5.16326 3.57277 4.95408C 3.91965 4.53557 4.26654 4.46548 4.54405 4.43106C 4.30123 5.12868 4.16263 5.96633 4.16263 6.9077C 4.16263 9.00167 5.23798 10.3971 6.83381 10.3971C 7.63164 10.3971 8.25604 10.1181 8.84559 9.45476L 8.74168 10.2921L 10.7881 10.2921L 12.453 1.05514e-06L 10.233 1.05514e-06L 10.233 0.000156927ZM 7.56227 8.3042C 6.83365 8.3042 6.45208 7.74598 6.45208 6.66395C 6.45208 5.02386 7.14538 3.83779 8.15166 3.83779C 8.91512 3.83779 9.29654 4.43121 9.29654 5.47804C 9.29654 7.15255 8.60277 8.3042 7.56227 8.3042Z" transform="translate(146.672 22.0215)" fill="#06326E"/>
</g>
<g id="Vector_17">
<path fill-rule="evenodd" clip-rule="evenodd" d="M 4.40561 4.8491C 4.19732 4.81468 4.12794 4.81468 3.98934 4.81468C 2.74056 4.81468 2.11616 5.30313 2.11616 6.07053C 2.11616 6.59433 2.42851 6.94322 2.914 6.94322C 3.9545 6.94338 4.37092 6.07068 4.40561 4.8491ZM 6.13988 8.58253L 4.232 8.58253L 4.30154 7.71062C 3.8159 8.3732 3.15682 8.72224 2.01225 8.72224C 0.936903 8.72224 4.1963e-07 7.81513 4.1963e-07 6.41957C 4.1963e-07 4.43075 1.49192 3.2101 3.85059 3.2101C 4.09341 3.2101 4.47498 3.2101 4.78718 3.24467C 4.8564 2.96556 4.89125 2.86121 4.89125 2.6863C 4.89125 2.12807 4.44045 1.95425 3.39964 1.95425C 2.81009 1.95425 2.08147 2.05829 1.59614 2.23321L 1.31863 2.30283L 1.17957 2.33741L 1.49192 0.453558C 2.49789 0.140028 3.22619 7.09818e-07 4.02403 7.09818e-07C 5.89706 7.09818e-07 6.86865 0.872226 6.86865 2.47696C 6.86865 2.89563 6.93756 3.2101 6.76428 4.11706L 6.31316 7.11735L 6.24394 7.641L 6.17457 8.05983L 6.13988 8.33878L 6.13988 8.58253Z" transform="translate(139.805 23.7314)" fill="#06326E"/>
</g>
<g id="Vector_18">
<path fill-rule="evenodd" clip-rule="evenodd" d="M 4.09325 1.98852C 4.50952 1.98852 5.09922 2.02388 5.72362 2.12807L 6.03581 0.174446C 5.41142 0.104825 4.57874 7.09818e-07 4.09325 7.09818e-07C 1.66505 7.09818e-07 0.867057 1.3261 0.867057 2.86105C 0.867057 3.87268 1.31832 4.6055 2.49758 5.16373C 3.36464 5.58224 3.50355 5.65201 3.50355 6.03626C 3.50355 6.55928 3.0526 6.8736 2.22007 6.8736C 1.56099 6.8736 0.936748 6.76846 0.24282 6.52471L -5.34074e-07 8.44298L 0.0346881 8.47818L 0.450951 8.54796C 0.589549 8.58253 0.763463 8.61774 1.00613 8.65231C 1.52646 8.68752 1.97741 8.72209 2.25476 8.72209C 4.68312 8.72209 5.68908 7.78056 5.68908 5.93097C 5.68908 4.77916 5.13391 4.08154 4.05856 3.59309C 3.12197 3.17458 3.01791 3.1048 3.01791 2.72134C 3.01791 2.3374 3.43417 1.98852 4.09325 1.98852Z" transform="translate(112.055 23.7314)" fill="#06326E"/>
</g>
<g id="Vector_19">
<path fill-rule="evenodd" clip-rule="evenodd" d="M 7.3196 0.523178L 6.93787 2.75592C 6.17441 2.37229 5.61939 2.19769 4.995 2.19769C 3.36479 2.19769 2.21991 3.80258 2.21991 6.07068C 2.21991 7.64021 2.98322 8.58238 4.26654 8.58238C 4.78687 8.58238 5.41126 8.40856 6.10503 8.05873L 5.72362 10.3966C 4.92578 10.6059 4.40545 10.7109 3.8159 10.7109C 1.45708 10.7109 7.62963e-07 9.00105 7.62963e-07 6.24466C 7.62963e-07 2.58147 2.0121 -8.82477e-07 4.89109 -8.82477e-07C 5.27251 -8.82477e-07 5.61955 0.0348882 5.89737 0.104666L 6.76443 0.314C 7.04194 0.41851 7.111 0.4534 7.3196 0.523178Z" transform="translate(134.082 21.1494)" fill="white"/>
</g>
<g id="Vector_20">
<path fill-rule="evenodd" clip-rule="evenodd" d="M 5.13407 4.22054e-07C 5.06469 4.22054e-07 4.99469 4.22054e-07 4.92578 4.22054e-07C 4.19685 4.22054e-07 3.7809 0.348891 3.12166 1.36099L 3.32964 0.0697784L 1.35285 0.0697784L 1.60222e-06 8.44345L 2.18507 8.44345C 2.9829 3.31461 3.19104 2.44207 4.2317 2.44207C 4.30092 2.44207 4.30092 2.44207 4.37045 2.44207C 4.57858 1.43061 4.85609 0.697622 5.20329 0.0347311L 5.13407 4.22054e-07Z" transform="translate(129.258 23.208)" fill="white"/>
</g>
<g id="Vector_21">
<path fill-rule="evenodd" clip-rule="evenodd" d="M 3.29526 9.52469C 2.70602 9.73403 2.22054 9.80365 1.73474 9.80365C 0.62455 9.80365 6.48519e-07 9.1758 6.48519e-07 7.95516C 6.48519e-07 7.74583 0.0346893 7.46593 0.0693779 7.22218L 0.208287 6.38484L 0.312198 5.72148L 1.24926 1.05514e-06L 3.39979 1.05514e-06L 3.1565 1.256L 4.26654 1.256L 3.98919 3.31477L 2.87915 3.31477L 2.28992 6.80335C 2.25491 6.94307 2.25491 7.04726 2.25491 7.1524C 2.25491 7.57107 2.46305 7.74583 2.98369 7.74583C 3.22604 7.74583 3.43464 7.74583 3.57339 7.67605L 3.29526 9.52469Z" transform="translate(118.539 22.0215)" fill="white"/>
</g>
<g id="Vector_22">
<path fill-rule="evenodd" clip-rule="evenodd" d="M 0.832837 2.82617C 0.832837 3.87284 1.31832 4.60566 2.46305 5.16404C 3.36511 5.58255 3.50386 5.72211 3.50386 6.071C 3.50386 6.59465 3.12244 6.83856 2.25507 6.83856C 1.59599 6.83856 1.00628 6.7342 0.312511 6.52502L 1.06815e-06 8.44329L 0.104222 8.47865L 0.485954 8.54843C 0.624552 8.58284 0.798149 8.61821 1.07566 8.61821C 1.5613 8.68783 1.97741 8.68783 2.25507 8.68783C 4.54452 8.68783 5.61986 7.81545 5.61986 5.89671C 5.61986 4.74506 5.16891 4.08185 4.09357 3.55899C 3.15697 3.14048 3.05275 3.03519 3.05275 2.65203C 3.05275 2.19816 3.43448 1.98867 4.12825 1.98867C 4.54436 1.98867 5.13422 2.02403 5.68908 2.09381L 6.00128 0.174601C 5.44626 0.0699345 4.57921 5.3716e-07 4.09357 5.3716e-07C 1.66521 0.000157695 0.798149 1.29105 0.832837 2.82617Z" transform="translate(112.641 23.1035)" fill="white"/>
</g>
<g id="Vector_23">
<path fill-rule="evenodd" clip-rule="evenodd" d="M 6.59099 10.2929L 4.54452 10.2929L 4.64842 9.48996C 4.05888 10.118 3.43432 10.3971 2.63664 10.3971C 1.0405 10.3971 -3.43333e-07 9.03703 -3.43333e-07 6.94291C -3.43333e-07 4.1521 1.63052 1.77965 3.53855 1.77965C 4.40576 1.77965 5.03016 2.16343 5.61971 2.9313L 6.10535 -4.22054e-07L 8.25635 -4.22054e-07L 6.59099 10.2929ZM 3.39964 8.33925C 4.4056 8.33925 5.09954 7.15208 5.09954 5.51324C 5.09954 4.43106 4.7178 3.87299 3.95497 3.87299C 2.98353 3.87299 2.25476 5.02449 2.25476 6.66395C 2.25476 7.78087 2.63664 8.33925 3.39964 8.33925Z" transform="translate(151.426 21.3584)" fill="white"/>
</g>
<g id="Vector_24">
<path fill-rule="evenodd" clip-rule="evenodd" d="M 5.93175 8.40825C 5.16876 8.6531 4.47514 8.75714 3.67668 8.75714C 1.24879 8.75714 -8.01111e-07 7.46671 -8.01111e-07 4.98944C -8.01111e-07 2.1287 1.59552 -7.67371e-07 3.78137 -7.67371e-07C 5.58486 -7.67371e-07 6.72958 1.18622 6.72958 3.0355C 6.72958 3.6635 6.66005 4.2563 6.45207 5.129L 2.15054 5.129C 2.11585 5.23303 2.11585 5.30281 2.11585 5.37259C 2.11585 6.35042 2.77493 6.83871 4.02372 6.83871C 4.82171 6.83871 5.51549 6.69916 6.27879 6.31506L 5.93175 8.40825ZM 4.71733 3.41896C 4.71733 3.24499 4.71733 3.10559 4.71733 3.00045C 4.71733 2.30267 4.33623 1.91905 3.67668 1.91905C 2.98306 1.91905 2.49742 2.44254 2.28929 3.41896L 4.71733 3.41896Z" transform="translate(122.562 23.0684)" fill="white"/>
</g>
<g id="Vector_25">
<path fill-rule="evenodd" clip-rule="evenodd" d="M 8.70684 10.2929L 6.5563 10.2929L 7.80493 2.37277L 4.99516 10.2929L 3.50339 10.2929L 3.3301 2.44239L 2.01178 10.2929L -1.57361e-07 10.2929L 1.69974 -4.22054e-07L 4.82171 -4.22054e-07L 4.92578 6.38468L 7.00694 -4.22054e-07L 10.4066 -4.22054e-07L 8.70684 10.2929Z" transform="translate(96.4766 21.3584)" fill="white"/>
</g>
<g id="Vector_26">
<path fill-rule="evenodd" clip-rule="evenodd" d="M 4.43998 4.81515C 4.23185 4.81515 4.12778 4.77963 3.9545 4.77963C 2.74024 4.77963 2.11585 5.23366 2.11585 6.071C 2.11585 6.59465 2.39336 6.90833 2.879 6.90833C 3.78106 6.90849 4.40545 6.07116 4.43998 4.81515ZM 6.03566 8.54843L 4.23185 8.54843L 4.26654 7.67558C 3.71152 8.37336 2.98291 8.68783 1.97709 8.68783C 0.797837 8.68783 -3.05185e-07 7.78087 -3.05185e-07 6.41957C -3.05185e-07 4.36081 1.38739 3.1749 3.81543 3.1749C 4.05825 3.1749 4.37076 3.2101 4.71749 3.24452C 4.78687 2.96556 4.78687 2.86137 4.78687 2.72165C 4.78687 2.16359 4.40545 1.95425 3.39933 1.95425C 2.77493 1.95425 2.08116 2.02403 1.59568 2.16359L 1.28348 2.26778L 1.07535 2.30299L 1.38754 0.418983C 2.46273 0.104825 3.19151 5.3716e-07 3.98919 5.3716e-07C 5.86221 5.3716e-07 6.86834 0.837492 6.86834 2.44254C 6.86834 2.86121 6.83365 3.17474 6.69505 4.11706L 6.2091 7.08294L 6.13972 7.6058L 6.10503 8.02447L 6.0705 8.33862L 6.03566 8.54843Z" transform="translate(106.121 23.1035)" fill="white"/>
</g>
<g id="Vector_27">
<path fill-rule="evenodd" clip-rule="evenodd" d="M 4.43983 4.81515C 4.19685 4.81515 4.09294 4.77963 3.95419 4.77963C 2.70556 4.77963 2.08116 5.23366 2.08116 6.071C 2.08116 6.59465 2.39336 6.90833 2.879 6.90833C 3.74605 6.90849 4.40514 6.07116 4.43983 4.81515ZM 6.03519 8.54843L 4.23154 8.54843L 4.26623 7.67558C 3.71136 8.37336 2.98291 8.68783 1.97709 8.68783C 0.797681 8.68783 1.71667e-06 7.78087 1.71667e-06 6.41957C 1.71667e-06 4.36081 1.38739 3.1749 3.81543 3.1749C 4.05825 3.1749 4.37045 3.2101 4.6828 3.24452C 4.75202 2.96556 4.78671 2.86137 4.78671 2.72165C 4.78671 2.16359 4.4053 1.95425 3.39917 1.95425C 2.77493 1.95425 2.04662 2.02403 1.56067 2.16359L 1.28332 2.26778L 1.07519 2.30299L 1.38739 0.418983C 2.46273 0.104825 3.19104 5.3716e-07 3.98872 5.3716e-07C 5.8619 5.3716e-07 6.8335 0.837492 6.8335 2.44254C 6.8335 2.86121 6.8335 3.17474 6.65958 4.11706L 6.2091 7.08294L 6.13941 7.6058L 6.07019 8.02447L 6.03535 8.33862L 6.03535 8.54843L 6.03519 8.54843Z" transform="translate(140.465 23.1035)" fill="white"/>
</g>
<g id="Vector_28">
<path fill-rule="evenodd" clip-rule="evenodd" d="M 5.09922 4.22054e-07C 5.02985 4.22054e-07 4.96031 4.22054e-07 4.89109 4.22054e-07C 4.16263 4.22054e-07 3.74652 0.348891 3.08728 1.36099L 3.29526 0.0697784L 1.31848 0.0697784L -2.67037e-07 8.44345L 2.15085 8.44345C 2.94869 3.31461 3.15682 2.44207 4.19748 2.44207C 4.26685 2.44207 4.26685 2.44207 4.33639 2.44207C 4.54436 1.43061 4.82187 0.697622 5.16876 0.0347311L 5.09922 4.22054e-07Z" transform="translate(147.227 23.208)" fill="white"/>
</g>
</g>
</g>
</g>
<g id="Group_7">
<g id="Vector_29">
<path fill-rule="evenodd" clip-rule="evenodd" d="M 76.1306 47.9592L 76.1306 2.04082C 76.1306 1.06958 75.4614 0.4 74.4988 0.4L 2.03179 0.4C 1.06916 0.4 0.4 1.06958 0.4 2.04082L 0.4 47.9592C 0.4 48.9091 1.21667 49.6 2.03179 49.6L 74.4988 49.6C 75.4403 49.6 76.1306 48.7822 76.1306 47.9592Z" stroke-width="0.8" stroke-miterlimit="8" transform="translate(0 1)" stroke="#808080"/>
</g>
<g id="Group 2">
<g id="Vector_30">
<path d="M 5.75673 10.5442C 6.26468 10.8844 6.60331 11.0544 7.11125 11.3946C 8.29646 12.2449 8.63509 13.4354 8.63509 15.1361C 8.29646 17.3469 7.11125 18.5374 4.91015 18.7075C 3.38631 18.7075 2.03179 18.5374 0.677261 18.1973C 0.507946 18.0272 0.338631 18.0272 0.338631 17.8571L 0.338631 14.966C 1.01588 14.966 1.69316 15.1361 2.37042 15.3061L 3.72494 15.3061L 4.23289 14.7959C 4.23289 14.4558 4.23289 14.1156 3.89426 13.9456C 3.55563 13.7755 3.04768 13.6054 2.70905 13.2653C 2.2011 13.0952 1.69315 12.9252 1.35452 12.585C 0.507946 11.9048 0.169316 11.2245 0 10.2041L 0 9.86395L 0 9.18367C 0 8.84354 0 8.5034 0.169315 8.16327C 0.507946 6.63265 1.52384 5.95238 3.04768 5.61225C 4.57152 5.27211 6.09536 5.44218 7.6192 5.95238C 7.78851 6.12245 7.95783 6.12245 7.95783 6.46259L 7.95783 9.18367C 7.28057 9.18367 6.43399 9.0136 5.75673 8.84354L 4.91015 8.84354C 4.74084 9.0136 4.4022 9.18367 4.4022 9.35374C 4.4022 9.52381 4.57152 9.86395 4.74083 10.034C 4.91015 10.2041 5.4181 10.3742 5.75673 10.5442Z" transform="translate(10 14.6055)" fill="#808080"/>
<path d="M 15.0691 9.01361L 15.0691 13.9456C 15.0691 14.1156 15.0691 14.2857 14.7304 14.7959C 14.8998 15.3061 15.0691 15.4762 15.577 15.4762C 16.085 15.4762 16.5929 15.3061 17.1009 15.3061L 17.1009 18.3673C 15.577 18.5374 14.0532 18.8776 12.5293 18.5374C 11.1748 18.1973 10.3282 17.0068 10.3282 15.3061L 10.3282 9.35374L 10.3282 8.84354L 8.80441 8.84354L 8.80441 5.95238L 10.3282 5.95238C 10.4976 5.10204 10.6669 4.42177 10.8362 3.57143C 11.0055 3.23129 11.0055 3.06122 11.3441 3.06122C 12.5293 2.72109 13.7146 2.55102 14.8998 2.21089L 14.8998 5.78231L 17.2702 5.78231C 17.1009 6.80272 16.9315 7.65306 16.7622 8.67347L 15.0691 8.67347L 15.0691 9.01361Z" transform="translate(10 14.6055)" fill="#808080"/>
<path d="M 25.3973 5.78231C 25.5666 5.95238 25.736 5.95238 25.736 6.29252C 25.736 7.31292 25.736 8.5034 25.5666 9.35374C 25.0587 9.35374 24.7201 9.18367 24.2121 9.18367L 23.5349 9.18367C 22.6883 9.35374 22.519 9.52381 22.519 10.3741L 22.519 18.0272L 18.1168 18.0272L 18.1168 5.78231L 18.4554 5.78231L 21.3338 5.78231C 21.6724 5.78231 21.6724 5.95238 21.8417 6.12245C 22.011 6.46259 22.1803 6.63265 22.3496 6.97279C 23.1962 5.78231 24.0428 5.44218 25.3973 5.78231Z" transform="translate(10 14.6055)" fill="#808080"/>
<path d="M 26.7519 5.95238L 31.1541 5.95238L 31.1541 18.3673L 26.7519 18.3673L 26.7519 5.95238Z" transform="translate(10 14.6055)" fill="#808080"/>
<path d="M 29.2916 0C 30.4768 0.170068 31.3234 1.02041 31.3234 2.21089C 31.3234 3.40136 30.3075 4.42177 28.9529 4.2517L 28.445 4.2517C 28.1064 4.2517 27.7677 4.08163 27.4291 3.7415C 27.0905 3.40136 26.7519 2.89116 26.7519 2.21089C 26.7519 1.02041 27.5984 0.170068 28.7836 0L 29.2916 0Z" transform="translate(10 14.6055)" fill="#808080"/>
<path d="M 43.1755 7.48299C 43.5141 8.33333 43.8527 9.18367 43.8527 10.2041C 44.022 11.9048 44.022 13.4354 43.3448 14.7959L 43.3448 15.1361C 42.6675 17.1769 41.4823 18.1973 39.2812 18.1973C 38.7733 18.1973 38.096 18.0272 37.4187 18.0272L 37.4187 22.449L 33.0165 22.449L 33.0165 22.1088L 33.0165 5.78231L 35.2176 5.78231L 35.5563 5.78231C 36.2335 5.78231 36.9108 5.78231 37.2494 6.63265C 37.4187 6.63265 37.4187 6.46259 37.588 6.46259C 38.7732 5.78231 39.9585 5.61225 41.313 5.95238C 42.1596 6.12245 42.8368 6.63265 43.1755 7.48299Z" transform="translate(10 14.6055)" fill="#808080"/>
<path d="M 55.5355 13.6054L 49.4401 13.6054C 49.4401 14.4558 49.7788 14.966 50.6253 15.1361C 51.8105 15.3061 52.8264 15.1361 53.8423 14.966C 54.3503 14.966 54.6889 14.7959 55.0275 14.7959L 55.0275 17.0068C 55.0275 18.0272 55.0275 18.0272 54.0116 18.1973C 52.4878 18.7075 50.7947 18.7075 49.1015 18.3673C 47.239 17.8571 46.0538 16.8367 45.5459 14.966C 45.0379 13.0952 45.0379 11.2245 45.5459 9.35374C 46.2231 6.97279 47.747 5.95238 50.2867 5.78231C 51.4719 5.61224 52.8264 5.78231 53.8423 6.80272C 54.6889 7.48299 55.0275 8.5034 55.1969 9.69388C 55.3662 11.0544 55.3662 12.2449 55.5355 13.6054Z" transform="translate(10 14.6055)" fill="#808080"/>
</g>
<g id="Vector_31">
<path d="M 0.169319 0.733624C 0.338634 0.563556 0.338631 0.393488 0.507946 0.22342C 1.01589 -0.116716 1.69316 -0.116717 1.69316 0.563555C 1.86247 1.24383 1.86247 1.9241 2.03179 2.77444L 0 2.77444C 0 2.09417 3.8147e-06 1.4139 0.169319 0.733624Z" transform="translate(59.2695 22.8857)" fill="white"/>
</g>
<g id="Vector_32">
<path d="M 1.69316 5.50352C 2.03179 3.97291 1.86247 2.27222 1.69316 0.741611C 1.69316 0.0613392 1.18521 -0.108728 0.677261 0.0613401C 0.677261 0.0613401 0.50795 0.231407 0.338634 0.231407C 0.169319 0.401475 0 0.401476 0 0.741611L 0 5.50352L 0 6.35386C 0.846577 6.69399 1.52384 6.52393 1.69316 5.50352Z" transform="translate(47.5898 23.5576)" fill="white"/>
</g>
</g>
</g>
</g>
</g>
</svg>

