<svg width="32" height="18" viewBox="0 0 32 18" version="1.1" xmlns="http://www.w3.org/2000/svg" xmlns:xlink="http://www.w3.org/1999/xlink">
<g id="Canvas" fill="none">
<g id="Group 4">
<g id="if_account_friend_human_man_member_person_profile_user_users_392531">
<g id="Vector">
<path d="M 9.26111 5.92533C 9.85168 5.29556 10.2143 4.46622 10.2143 3.55556C 10.2143 1.59511 8.54796 0 6.5 0C 4.45204 0 2.78571 1.59511 2.78571 3.55556C 2.78571 5.516 4.45204 7.11111 6.5 7.11111C 7.22196 7.11111 7.89425 6.90978 8.46532 6.56711C 10.485 7.29556 11.8755 9.06489 12.0524 11.1111L 0.948071 11.1111C 1.06832 9.73378 1.74339 8.44933 2.84143 7.53289C 3.03504 7.37156 3.055 7.09111 2.88646 6.90578C 2.71839 6.72089 2.42496 6.70133 2.23136 6.86267C 0.812964 8.04578 0 9.756 0 11.5556C 0 11.8013 0.208 12 0.464286 12L 12.5357 12C 12.7925 12 13 11.8013 13 11.5556C 13 9.11733 11.5236 6.94 9.26111 5.92533ZM 3.71429 3.55556C 3.71429 2.08489 4.96368 0.888889 6.5 0.888889C 8.03632 0.888889 9.28571 2.08489 9.28571 3.55556C 9.28571 5.02622 8.03632 6.22222 6.5 6.22222C 4.96368 6.22222 3.71429 5.02622 3.71429 3.55556Z" fill="#BDBDBD"/>
</g>
</g>
<g id="if_account_friend_human_man_member_person_profile_user_users_392531_2">
<g id="Vector_2">
<path d="M 9.26111 5.92533C 9.85168 5.29556 10.2143 4.46622 10.2143 3.55556C 10.2143 1.59511 8.54796 0 6.5 0C 4.45204 0 2.78571 1.59511 2.78571 3.55556C 2.78571 5.516 4.45204 7.11111 6.5 7.11111C 7.22196 7.11111 7.89425 6.90978 8.46532 6.56711C 10.485 7.29556 11.8755 9.06489 12.0524 11.1111L 0.948071 11.1111C 1.06832 9.73378 1.74339 8.44933 2.84143 7.53289C 3.03504 7.37156 3.055 7.09111 2.88646 6.90578C 2.71839 6.72089 2.42496 6.70133 2.23136 6.86267C 0.812964 8.04578 0 9.756 0 11.5556C 0 11.8013 0.208 12 0.464286 12L 12.5357 12C 12.7925 12 13 11.8013 13 11.5556C 13 9.11733 11.5236 6.94 9.26111 5.92533ZM 3.71429 3.55556C 3.71429 2.08489 4.96368 0.888889 6.5 0.888889C 8.03632 0.888889 9.28571 2.08489 9.28571 3.55556C 9.28571 5.02622 8.03632 6.22222 6.5 6.22222C 4.96368 6.22222 3.71429 5.02622 3.71429 3.55556Z" transform="translate(19 0)" fill="#BDBDBD"/>
</g>
</g>
<g id="if_account_friend_human_man_member_person_profile_user_users_392531_3">
<g id="Vector_3">
<path d="M 11.3983 7.40667C 12.1251 6.61944 12.5714 5.58278 12.5714 4.44444C 12.5714 1.99389 10.5206 0 8 0C 5.47943 0 3.42857 1.99389 3.42857 4.44444C 3.42857 6.895 5.47943 8.88889 8 8.88889C 8.88857 8.88889 9.716 8.63722 10.4189 8.20889C 12.9046 9.11944 14.616 11.3311 14.8337 13.8889L 1.16686 13.8889C 1.31486 12.1672 2.14571 10.5617 3.49714 9.41611C 3.73543 9.21444 3.76 8.86389 3.55257 8.63222C 3.34571 8.40111 2.98457 8.37667 2.74629 8.57833C 1.00057 10.0572 0 12.195 0 14.4444C 0 14.7517 0.256 15 0.571429 15L 15.4286 15C 15.7446 15 16 14.7517 16 14.4444C 16 11.3967 14.1829 8.675 11.3983 7.40667ZM 4.57143 4.44444C 4.57143 2.60611 6.10914 1.11111 8 1.11111C 9.89086 1.11111 11.4286 2.60611 11.4286 4.44444C 11.4286 6.28278 9.89086 7.77778 8 7.77778C 6.10914 7.77778 4.57143 6.28278 4.57143 4.44444Z" transform="translate(8 3)" fill="#BDBDBD"/>
</g>
</g>
</g>
</g>
</svg>

