<svg width="26" height="27" viewBox="0 0 26 27" version="1.1" xmlns="http://www.w3.org/2000/svg" xmlns:xlink="http://www.w3.org/1999/xlink">
<g id="Canvas" fill="none">
<g id="Vector">
<path d="M 24.359 12.4683L 24.359 23.8437C 24.359 24.4823 23.8398 25 23.1993 25L 14.639 25L 14.639 19.1959C 14.639 18.8775 14.5799 18.571 14.4617 18.288C 14.3434 17.9815 14.1542 17.6985 13.9177 17.4627C 13.4802 17.0147 12.8653 16.7435 12.1795 16.7435C 11.1389 16.7435 10.2521 17.3802 9.89731 18.288C 9.77906 18.571 9.71994 18.8775 9.71994 19.1959L 9.71994 25L 1.15971 25C 0.519224 25 -2.25539e-07 24.4823 -2.25539e-07 23.8437L -2.25539e-07 12.4683C -2.25539e-07 11.954 0.204887 11.4608 0.569598 11.0972L 11.3595 0.338687C 11.8124 -0.112896 12.5466 -0.112896 12.9995 0.338687L 23.7894 11.0972C 24.1541 11.4608 24.359 11.954 24.359 12.4683Z" stroke-width="1.2" stroke-miterlimit="10" stroke-linecap="round" stroke-linejoin="round" transform="translate(1 1)" stroke="#BDBDBD"/>
</g>
</g>
</svg>

