<svg width="29" height="22" viewBox="0 0 29 22" version="1.1" xmlns="http://www.w3.org/2000/svg" xmlns:xlink="http://www.w3.org/1999/xlink">
<g id="Canvas" fill="none">
<g id="Icons">
<g id="Group">
<g id="Group_2">
<g id="Vector">
<path d="M 0 5.44147L 3.77086 8.31819L 3.50064 5.44147L 5.42906 5.44147C 6.09234 5.44147 6.64527 4.87579 6.65736 4.23471L 6.64527 0" stroke-width="1.2" stroke-miterlimit="10" stroke-linecap="round" stroke-linejoin="round" transform="translate(21.3789 10.3887)" stroke="#BDBDBD"/>
</g>
<g id="Vector_2">
<path d="M 16.0907 14.9931L 14.9483 14.9931L 1.22829 14.9931C 0.552733 14.9931 0 14.4567 0 13.7863L 0 5.04645L 0 3.85188L 0 1.23114C 0 0.560717 0.552733 9.93221e-07 1.22829 9.93221e-07L 21.9378 -2.81819e-07C 22.3797 -3.09022e-07 22.7378 0.358172 22.7378 0.8L 22.7378 13.8179" stroke-width="1.2" stroke-miterlimit="10" stroke-linecap="round" stroke-linejoin="round" transform="translate(5.28516 0.837891)" stroke="#BDBDBD"/>
</g>
</g>
<g id="Vector_3">
<path d="M 0 0L 15.9678 0" stroke-width="1.2" stroke-linecap="round" transform="translate(8.98047 4.9043)" stroke="#BDBDBD"/>
</g>
<g id="Vector_4">
<path d="M 0 0L 15.9678 0" stroke-width="1.2" stroke-linecap="round" transform="translate(8.98047 7.95117)" stroke="#BDBDBD"/>
</g>
<g id="Vector_5">
<path d="M 0 0L 15.9678 0" stroke-width="1.2" stroke-linecap="round" transform="translate(8.98047 10.998)" stroke="#BDBDBD"/>
</g>
<g id="Group_3">
<g id="Vector_6">
<path d="M 19.2351 9.94662L 19.2351 11.6531C 19.2351 12.2186 18.7732 12.6771 18.2033 12.6771L 6.01393 12.6771C 5.77009 12.6771 5.53309 12.7571 5.33981 12.9046L 2.44431 15.115L 2.6654 12.6771L 1.04405 12.6771C 0.469823 12.6771 5.80261e-07 12.2108 5.80261e-07 11.641L 5.80261e-07 1.03611C 5.80261e-07 0.466247 0.469823 -1.07506e-06 1.04405 -1.07506e-06L 4.28675 -1.07506e-06" stroke-width="1.2" stroke-miterlimit="10" stroke-linecap="round" stroke-linejoin="round" transform="translate(1 5.88477)" stroke="#BDBDBD"/>
</g>
</g>
</g>
</g>
</g>
</svg>

