<svg width="60" height="60" viewBox="0 0 60 60" version="1.1" xmlns="http://www.w3.org/2000/svg" xmlns:xlink="http://www.w3.org/1999/xlink">
<g id="Canvas" fill="none">
<rect width="60" height="60" fill="#F2994A"/>
<g id="Grid">
<g id="12">
</g>
</g>
<g id="Main Dashborad " clip-path="url(#clip0)">
<rect width="1440" height="1205" fill="white" transform="translate(-472 -213)"/>
<g id="Rectangle">
<rect width="1340" height="1072" transform="translate(-372 -85)" fill="#F2F2F2"/>
</g>
<g id="Nav + menu " filter="url(#filter0_d)">
</g>
<g id="Rectangle 2.1" filter="url(#filter1_d)">
<rect width="262" height="150" rx="30" transform="translate(-29 -45)" fill="white"/>
</g>
<g id="Group 2.1">
<g id="if_user_325966">
<g id="Group">
<g id="Group_2">
<g id="Group_3">
<g id="Group_4">
<g id="Vector">
<path d="M 0 29.9996C 0.000769774 13.431 13.431 0 29.9996 0C 46.5682 0 60 13.431 60 29.9996C 60 46.5682 46.569 59.9985 29.9996 60C 13.431 59.9985 0.000769774 46.5682 0 29.9996ZM 9.33812 9.33812C 4.05055 14.6272 0.779781 21.9293 0.779781 29.9996C 0.779781 38.0707 4.05055 45.3728 9.33812 50.6619C 14.6272 55.9495 21.9293 59.2194 29.9996 59.2194C 38.0699 59.2194 45.3728 55.9495 50.6619 50.6619C 55.951 45.3728 59.2202 38.0707 59.2202 29.9996C 59.2202 21.9301 55.951 14.6272 50.6619 9.33812C 45.372 4.04978 38.0699 0.779781 29.9996 0.779781C 21.9293 0.779781 14.6272 4.04978 9.33812 9.33812Z" fill="#BDBDBD"/>
</g>
</g>
</g>
</g>
</g>
</g>
</g>
<g id="001-transport">
<g id="Group_5">
<g id="Group_6">
<g id="Vector_2">
<path d="M 1.91173 -4.10152e-07C 0.857694 -4.10152e-07 3.43247e-07 0.854061 3.43247e-07 1.90363C 3.43247e-07 2.95313 0.857694 3.80726 1.91173 3.80726C 2.96569 3.80726 3.82345 2.95313 3.82345 1.90363C 3.82345 0.854061 2.96569 -4.10152e-07 1.91173 -4.10152e-07ZM 1.91173 2.53817C 1.55996 2.53817 1.27448 2.25391 1.27448 1.90363C 1.27448 1.55335 1.55996 1.26909 1.91173 1.26909C 2.26349 1.26909 2.54897 1.55335 2.54897 1.90363C 2.54897 2.25391 2.26349 2.53817 1.91173 2.53817Z" transform="translate(29.2031 42.6562)" fill="#BDBDBD"/>
</g>
</g>
</g>
<g id="Group_7">
<g id="Group_8">
<g id="Vector_3">
<path d="M 4.46069 1.04247e-06C 2.00093 1.04247e-06 -3.43247e-07 1.99309 -3.43247e-07 4.4418C -3.43247e-07 6.89052 2.00093 8.88361 4.46069 8.88361C 6.91982 8.88361 8.92138 6.89052 8.92138 4.4418C 8.92138 1.99309 6.91982 1.04247e-06 4.46069 1.04247e-06ZM 4.46069 7.61452C 2.70383 7.61452 1.27448 6.19123 1.27448 4.4418C 1.27448 2.69238 2.70383 1.26909 4.46069 1.26909C 6.21755 1.26909 7.6469 2.69238 7.6469 4.4418C 7.6469 6.19123 6.21755 7.61452 4.46069 7.61452Z" transform="translate(26.6602 40.1172)" fill="#BDBDBD"/>
</g>
</g>
</g>
<g id="Group_9">
<g id="Group_10">
<g id="Vector_4">
<path d="M 1.27448 0L 0 0L 0 10.7872L 1.27448 10.7872L 1.27448 0Z" transform="translate(26.6602 33.7695)" fill="#BDBDBD"/>
</g>
</g>
</g>
<g id="Group_11">
<g id="Group_12">
<g id="Vector_5">
<path d="M 7.6533 1.6657C 7.09823 0.640913 6.02642 0.00258998 4.85583 5.34052e-09L 0.634543 5.34052e-09C 0.284095 5.34052e-09 0 0.284095 0 0.634543C 0 0.984992 0.284095 1.26909 0.634543 1.26909L 4.8545 1.26909C 5.55613 1.27098 6.19843 1.65359 6.53171 2.2691L 18.5564 24.4146L 19.6779 23.8105L 7.6533 1.6657Z" transform="translate(12 16.6367)" fill="#BDBDBD"/>
</g>
</g>
</g>
<g id="Group_13">
<g id="Group_14">
<g id="Vector_6">
<path d="M 13.8967 0L 0 0L 0 1.26978L 13.8967 1.26978C 14.2473 1.26978 14.5316 0.98553 14.5316 0.63489C 14.5316 0.28425 14.2473 0 13.8967 0Z" transform="matrix(0.87726 -0.480131 0.483271 0.875535 34.6406 44.6367)" fill="#BDBDBD"/>
</g>
</g>
</g>
<g id="Group_15">
<g id="Group_16">
<g id="Vector_7">
<path d="M 17.1256 10.4776L 11.3892 0.324308C 11.3064 0.1771 11.1687 0.0692308 11.0056 0.0241513C 10.8424 -0.0221883 10.6691 -0.00125842 10.5213 0.0819007L 0.324796 5.79405C 0.0183018 5.96604 -0.0906581 6.35307 0.0819912 6.65826L 5.81843 16.8122C 5.90124 16.9594 6.03959 17.0673 6.20204 17.1124C 6.25877 17.1276 6.31677 17.1358 6.37413 17.1358C 6.48246 17.1358 6.59015 17.1079 6.68639 17.0534L 16.8829 11.3418C 17.19 11.1699 17.2983 10.7828 17.1256 10.4776ZM 6.61623 15.6371L 1.50494 6.5891L 10.5914 1.49883L 15.702 10.5474L 6.61623 15.6371Z" transform="translate(22.832 16)" fill="#BDBDBD"/>
</g>
</g>
</g>
<g id="Group_17">
<g id="Group_18">
<g id="Vector_8">
<path d="M 5.54213 3.06512L 3.94836 0.317577C 3.77247 0.0142699 3.38183 -0.090449 3.07787 0.0853192L 0.318646 1.67164C 0.0140495 1.84678 -0.0904827 2.23451 0.0854003 2.53844L 1.67847 5.28599C 1.79636 5.48968 2.01048 5.60329 2.23093 5.60329C 2.33926 5.60329 2.44885 5.57599 2.54889 5.51824L 5.30874 3.93192C 5.45531 3.84813 5.56238 3.70981 5.60568 3.54678C 5.64919 3.38369 5.62691 3.21044 5.54213 3.06512ZM 2.46425 4.10202L 1.50842 2.45346L 3.16398 1.50168L 4.11988 3.15024L 2.46425 4.10202Z" transform="translate(26.6602 18.0078)" fill="#BDBDBD"/>
</g>
</g>
</g>
<g id="Group_19">
<g id="Group_20">
<g id="Vector_9">
<path d="M 17.125 10.477L 11.3885 0.323701C 11.2165 0.018504 10.8284 -0.0906245 10.5213 0.0819237L 0.324797 5.79344C 0.0183019 5.96543 -0.090658 6.35246 0.0819913 6.65766L 5.81843 16.8116C 5.90124 16.9588 6.03895 17.0667 6.20204 17.1118C 6.25877 17.127 6.31613 17.1352 6.37413 17.1352C 6.48246 17.1352 6.59015 17.1079 6.68512 17.0534L 16.8823 11.3412C 17.0301 11.2588 17.1384 11.1216 17.1837 10.9593C 17.2289 10.7975 17.2085 10.6236 17.125 10.477ZM 6.61686 15.6365L 1.50557 6.5885L 10.592 1.49885L 15.7033 10.5468L 6.61686 15.6365Z" transform="translate(28.5625 26.1543)" fill="#BDBDBD"/>
</g>
</g>
</g>
<g id="Group_21">
<g id="Group_22">
<g id="Vector_10">
<path d="M 5.5415 3.06526L 3.94836 0.317714C 3.77184 0.0137769 3.3812 -0.0903115 3.07787 0.0854566L 0.318646 1.67178C 0.014049 1.84692 -0.0904821 2.23464 0.0854008 2.53858L 1.67847 5.28612C 1.79636 5.48982 2.01048 5.60343 2.23093 5.60343C 2.33926 5.60343 2.44885 5.57613 2.54889 5.51838L 5.30811 3.93206C 5.61285 3.75692 5.71738 3.36919 5.5415 3.06526ZM 2.46362 4.10209L 1.50779 2.45353L 3.16335 1.50175L 4.11918 3.15031L 2.46362 4.10209Z" transform="translate(32.3906 28.166)" fill="#BDBDBD"/>
</g>
</g>
</g>
</g>
</g>
</g>
<defs>
<filter id="filter0_d" x="-487" y="-224" width="1470" height="1230" filterUnits="userSpaceOnUse" color-interpolation-filters="sRGB">
<feFlood flood-opacity="0" result="BackgroundImageFix"/>
<feColorMatrix in="SourceAlpha" type="matrix" values="0 0 0 0 0 0 0 0 0 0 0 0 0 0 0 0 0 0 255 0"/>
<feOffset dy="4"/>
<feGaussianBlur stdDeviation="7.5"/>
<feColorMatrix type="matrix" values="0 0 0 0 0 0 0 0 0 0 0 0 0 0 0 0 0 0 0.15 0"/>
<feBlend mode="normal" in2="BackgroundImageFix" result="effect1_dropShadow"/>
<feBlend mode="normal" in="SourceGraphic" in2="effect1_dropShadow" result="shape"/>
</filter>
<filter id="filter1_d" x="-44" y="-60" width="292" height="180" filterUnits="userSpaceOnUse" color-interpolation-filters="sRGB">
<feFlood flood-opacity="0" result="BackgroundImageFix"/>
<feColorMatrix in="SourceAlpha" type="matrix" values="0 0 0 0 0 0 0 0 0 0 0 0 0 0 0 0 0 0 255 0"/>
<feOffset/>
<feGaussianBlur stdDeviation="7.5"/>
<feColorMatrix type="matrix" values="0 0 0 0 0 0 0 0 0 0 0 0 0 0 0 0 0 0 0.1 0"/>
<feBlend mode="normal" in2="BackgroundImageFix" result="effect1_dropShadow"/>
<feBlend mode="normal" in="SourceGraphic" in2="effect1_dropShadow" result="shape"/>
</filter>

<clipPath id="clip0">
<rect width="1440" height="1205" fill="white" transform="translate(-472 -213)"/>
</clipPath>

</defs>
</svg>

