<svg width="55" height="65" viewBox="0 0 55 65" version="1.1" xmlns="http://www.w3.org/2000/svg" xmlns:xlink="http://www.w3.org/1999/xlink">
<title>Hand</title>
<desc>Created using Figma</desc>
<g id="Canvas" transform="translate(-10702 -20779)">
<g id="Hand">
<g id="Vector">
<use xlink:href="#path0_fill" transform="matrix(0.99912 0.00153538 0.00353888 1.00083 10736 20784.8)" fill="#96BF3D"/>
</g>
<g id="Vector">
<use xlink:href="#path1_fill" transform="matrix(0.99912 0.00153538 0.00353888 1.00083 10746.2 20779.2)" fill="#96BF3D"/>
</g>
<g id="Vector">
<use xlink:href="#path2_fill" transform="matrix(0.99912 0.00153538 0.00353888 1.00083 10702.7 20784.7)" fill="#96BF3D"/>
</g>
<g id="Vector">
<use xlink:href="#path3_fill" transform="matrix(0.99912 0.00153538 0.00353888 1.00083 10702.7 20779.1)" fill="#96BF3D"/>
</g>
<g id="Vector">
<use xlink:href="#path4_fill" transform="matrix(0.99912 0.00153538 0.00353888 1.00083 10708.9 20787.5)" fill="#96BF3D"/>
</g>
</g>
</g>
<defs>
<path id="path0_fill" d="M 16.6455 1.28274e-07L 1.28046 1.28274e-07C 0.573669 1.28274e-07 1.28949e-06 0.627732 1.28949e-06 1.40113C 1.28949e-06 2.17453 0.573669 2.80227 1.28046 2.80227L 16.6455 2.80227C 17.3523 2.80227 17.926 2.17453 17.926 1.40113C 17.926 0.627732 17.3523 1.28274e-07 16.6455 1.28274e-07Z"/>
<path id="path1_fill" d="M 7.30933 6.01422L 2.1876 0.409818C 1.68824 -0.136606 0.876409 -0.136606 0.377045 0.409818C -0.12232 0.956243 -0.12232 1.84458 0.377045 2.391L 4.59223 7.00343L 0.374524 11.6186C -0.12484 12.165 -0.12484 13.0534 0.374524 13.5998C 0.625527 13.8716 0.953235 14.009 1.28106 14.009C 1.60889 14.009 1.9366 13.8717 2.1876 13.5998L 7.30933 7.9954C 7.80869 7.44884 7.80869 6.56064 7.30933 6.01422Z"/>
<path id="path2_fill" d="M 16.6455 1.28274e-07L 1.28046 1.28274e-07C 0.573669 1.28274e-07 -1.06236e-07 0.627732 -1.06236e-07 1.40113C -1.06236e-07 2.17453 0.573669 2.80227 1.28046 2.80227L 16.6455 2.80227C 17.3523 2.80227 17.926 2.17453 17.926 1.40113C 17.926 0.627732 17.3523 1.28274e-07 16.6455 1.28274e-07Z"/>
<path id="path3_fill" d="M 3.0915 7.00343L 7.30669 2.391C 7.80605 1.84458 7.80605 0.956243 7.30669 0.409818C 6.80732 -0.136606 5.9955 -0.136606 5.49613 0.409818L 0.374524 6.01435C -0.124841 6.56077 -0.124841 7.44911 0.374524 7.99553L 5.49625 13.5999C 5.74725 13.8717 6.07496 14.0091 6.40279 14.0091C 6.73062 14.0091 7.05833 13.8718 7.30681 13.5972C 7.80617 13.0507 7.80617 12.1624 7.30681 11.616L 3.0915 7.00343Z"/>
<path id="path4_fill" d="M 42.4735 19.6152C 41.421 19.6152 40.4401 19.9655 39.6258 20.5624C 38.9241 18.3823 37.0214 16.8131 34.791 16.8131C 33.7384 16.8131 32.7576 17.1634 31.9432 17.7603C 31.2416 15.5802 29.3389 14.0109 27.1084 14.0109C 26.1763 14.0109 25.3005 14.2856 24.5476 14.7648L 24.5476 5.6044C 24.5476 2.51355 22.2505 1.52325e-07 19.4259 1.52325e-07C 16.6012 1.52325e-07 14.3042 2.51355 14.3042 5.6044L 14.3042 29.4229L 9.85345 25.7717C 7.21582 23.6056 3.46158 23.8943 1.12357 26.4498C -0.374523 28.0891 -0.374523 30.754 1.12357 32.3933L 19.3594 52.3504C 21.5361 54.7322 24.4324 56.0436 27.5105 56.0436L 33.5106 56.0436C 41.2751 56.0436 47.5952 49.1307 47.5952 40.6317L 47.5952 25.2196C 47.5952 22.1288 45.2981 19.6152 42.4735 19.6152ZM 45.0344 40.6315C 45.0344 47.5837 39.8641 53.2413 33.5106 53.2413L 27.5105 53.2413C 25.1136 53.2413 22.8626 52.2214 21.1699 50.3691L 2.93413 30.4121C 2.43476 29.8657 2.43476 28.9773 2.93413 28.4309C 3.72795 27.565 4.78814 27.1195 5.85349 27.1195C 6.71909 27.1195 7.58974 27.4137 8.31958 28.0133L 14.8165 33.3458C 15.2058 33.6653 15.7282 33.713 16.1584 33.4776C 16.5911 33.2394 16.8652 32.7546 16.8652 32.225L 16.8652 5.6044C 16.8652 4.06036 18.0124 2.80227 19.426 2.80227C 20.8396 2.80227 21.9868 4.06049 21.9868 5.6044L 21.9868 26.6207C 21.9868 27.3941 22.5605 28.0219 23.2673 28.0219C 23.9741 28.0219 24.5477 27.3941 24.5477 26.6207L 24.5477 19.6153C 24.5477 18.0713 25.6949 16.8132 27.1085 16.8132C 28.5221 16.8132 29.6693 18.0714 29.6693 19.6153L 29.6693 26.6207C 29.6693 27.3941 30.243 28.0219 30.9498 28.0219C 31.6566 28.0219 32.2303 27.3941 32.2303 26.6207L 32.2303 22.4175C 32.2303 20.8734 33.3775 19.6153 34.7911 19.6153C 36.2047 19.6153 37.3519 20.8736 37.3519 22.4175L 37.3519 26.6207C 37.3519 27.3941 37.9255 28.0219 38.6323 28.0219C 39.3391 28.0219 39.9128 27.3941 39.9128 26.6207L 39.9128 25.2196C 39.9128 23.6756 41.06 22.4175 42.4736 22.4175C 43.8872 22.4175 45.0344 23.6757 45.0344 25.2196L 45.0344 40.6315Z"/>
</defs>
</svg>
